<?xml version="1.0" encoding="iso-8859-1"?>
<!-- Generator: Adobe Illustrator 19.0.0, SVG Export Plug-In . SVG Version: 6.00 Build 0)  -->
<svg version="1.1" id="Capa_1" xmlns="http://www.w3.org/2000/svg" xmlns:xlink="http://www.w3.org/1999/xlink" x="0px" y="0px"
	 viewBox="0 0 390 390" style="enable-background:new 0 0 390 390;" xml:space="preserve">
<g id="XMLID_21_">
	<polygon id="XMLID_30_" style="fill:#FFD6A0;" points="135,290 195,390 255,290 195,280 	"/>
	<polygon id="XMLID_29_" style="fill:#FFC170;" points="135,290 195,390 195,290 	"/>
	<polygon id="XMLID_28_" style="fill:#FF5023;" points="135,110 135,290 255,290 255,110 195,100 	"/>
	<rect id="XMLID_27_" x="135" y="110" style="fill:#D80027;" width="60" height="180"/>
	<polygon id="XMLID_26_" points="170.964,350 195,390 219.036,350 	"/>
	<path id="XMLID_25_" style="fill:#FFDA44;" d="M255,70V60c0-33.137-26.863-60-60-60s-60,26.863-60,60v10l60,10L255,70z"/>
	<path id="XMLID_24_" style="fill:#FF9811;" d="M195,70c0,0,0-43.667,0-70c-33.137,0-60,26.863-60,60v10H195z"/>
	<rect id="XMLID_23_" x="135" y="70" style="fill:#F2F2F3;" width="120" height="40"/>
	<rect id="XMLID_22_" x="135" y="70" style="fill:#DEDDE0;" width="60" height="40"/>
</g>
<g>
</g>
<g>
</g>
<g>
</g>
<g>
</g>
<g>
</g>
<g>
</g>
<g>
</g>
<g>
</g>
<g>
</g>
<g>
</g>
<g>
</g>
<g>
</g>
<g>
</g>
<g>
</g>
<g>
</g>
</svg>
