<?xml version="1.0" encoding="iso-8859-1"?>
<!-- Generator: Adobe Illustrator 19.0.0, SVG Export Plug-In . SVG Version: 6.00 Build 0)  -->
<svg version="1.1" id="Capa_1" xmlns="http://www.w3.org/2000/svg" xmlns:xlink="http://www.w3.org/1999/xlink" x="0px" y="0px"
	 viewBox="0 0 390 390" style="enable-background:new 0 0 390 390;" xml:space="preserve">
<g id="XMLID_338_">
	<polygon id="XMLID_340_" style="fill:#DEDDE0;" points="155,290 155,390 235,340 235,290 	"/>
	<polygon id="XMLID_341_" style="fill:#ACABB1;" points="155,360 155,390 235,340 235,310 	"/>
	<path id="XMLID_348_" style="fill:#FF5023;" d="M195,0c-33.137,0-60,26.863-60,60v190c0,33.137,26.863,60,60,60s60-26.863,60-60V60
		C255,26.863,228.137,0,195,0z"/>
	<path id="XMLID_350_" style="fill:#D80027;" d="M195,0c-33.137,0-60,26.863-60,60v190c0,33.137,26.863,60,60,60
		C195,220,195,53,195,0z"/>
	<rect id="XMLID_351_" x="175" y="70" style="fill:#DEDDE0;" width="40" height="190"/>
	<rect id="XMLID_352_" x="175" y="135" style="fill:#565659;" width="40" height="60"/>
	<path id="XMLID_439_" d="M255,70V60c0-33.137-26.863-60-60-60s-60,26.863-60,60v10H255z"/>
</g>
<g>
</g>
<g>
</g>
<g>
</g>
<g>
</g>
<g>
</g>
<g>
</g>
<g>
</g>
<g>
</g>
<g>
</g>
<g>
</g>
<g>
</g>
<g>
</g>
<g>
</g>
<g>
</g>
<g>
</g>
</svg>
