<?xml version="1.0" encoding="iso-8859-1"?>
<!-- Generator: Adobe Illustrator 19.0.0, SVG Export Plug-In . SVG Version: 6.00 Build 0)  -->
<svg version="1.1" id="Capa_1" xmlns="http://www.w3.org/2000/svg" xmlns:xlink="http://www.w3.org/1999/xlink" x="0px" y="0px"
	 viewBox="0 0 390 390" style="enable-background:new 0 0 390 390;" xml:space="preserve">
<g id="XMLID_458_">
	<polygon id="XMLID_459_" style="fill:#DEDDE0;" points="171,220 171,370 219,390 219,220 	"/>
	<path id="XMLID_460_" style="fill:#00A1A7;" d="M195,0c-25.023,0-45.171,15.9-55.47,37.088
		C134.361,47.722,128.611,76.71,123.31,110c-0.013,0.016,31.69,40,31.69,40s-36.25-9.672-36.256-9.659
		C110.933,194.995,105,250,105,250l90,80C195,330,195,63,195,0z"/>
	<path id="XMLID_461_" style="fill:#00D7DF;" d="M195,0c25.023,0,45.171,15.9,55.47,37.088C255.639,47.722,261.389,76.71,266.69,110
		c0.013,0.016-31.69,40-31.69,40s36.25-9.672,36.256-9.659C279.066,194.995,285,250,285,250l-90,80C195,330,195,63,195,0z"/>
</g>
<g>
</g>
<g>
</g>
<g>
</g>
<g>
</g>
<g>
</g>
<g>
</g>
<g>
</g>
<g>
</g>
<g>
</g>
<g>
</g>
<g>
</g>
<g>
</g>
<g>
</g>
<g>
</g>
<g>
</g>
</svg>
