<?xml version="1.0" encoding="iso-8859-1"?>
<!-- Generator: Adobe Illustrator 19.0.0, SVG Export Plug-In . SVG Version: 6.00 Build 0)  -->
<svg version="1.1" id="Capa_1" xmlns="http://www.w3.org/2000/svg" xmlns:xlink="http://www.w3.org/1999/xlink" x="0px" y="0px"
	 viewBox="0 0 390 390" style="enable-background:new 0 0 390 390;" xml:space="preserve">
<g id="XMLID_462_">
	<path id="XMLID_463_" style="fill:#F2F2F3;" d="M195,0c-33.137,0-60,26.863-60,60v270c0,33.137,26.863,60,60,60s60-26.863,60-60V60
		C255,26.863,228.137,0,195,0z"/>
	<path id="XMLID_464_" style="fill:#DEDDE0;" d="M195,0c-33.137,0-60,26.863-60,60v270c0,33.137,26.863,60,60,60
		C195,307,195,70,195,0z"/>
	<g id="XMLID_466_">
		<path id="XMLID_467_" style="fill:#565659;" d="M255,270V60c0-33.137-26.863-60-60-60s-60,26.863-60,60v210H255z"/>
		<path id="XMLID_468_" d="M195,270V0c-33.137,0-60,26.863-60,60v210H195z"/>
	</g>
	<polygon id="XMLID_469_" style="fill:#FFDA44;" points="325,270 337.471,307.529 375,320 337.471,332.471 325,370 312.529,332.471 
		275,320 312.529,307.529 	"/>
	<polygon id="XMLID_470_" style="fill:#FFDA44;" points="65,220 77.471,257.529 115,270 77.471,282.471 65,320 52.529,282.471 
		15,270 52.529,257.529 	"/>
</g>
<g>
</g>
<g>
</g>
<g>
</g>
<g>
</g>
<g>
</g>
<g>
</g>
<g>
</g>
<g>
</g>
<g>
</g>
<g>
</g>
<g>
</g>
<g>
</g>
<g>
</g>
<g>
</g>
<g>
</g>
</svg>
