<?xml version="1.0" encoding="iso-8859-1"?>
<!-- Generator: Adobe Illustrator 19.0.0, SVG Export Plug-In . SVG Version: 6.00 Build 0)  -->
<svg version="1.1" id="Capa_1" xmlns="http://www.w3.org/2000/svg" xmlns:xlink="http://www.w3.org/1999/xlink" x="0px" y="0px"
	 viewBox="0 0 380 380" style="enable-background:new 0 0 380 380;" xml:space="preserve">
<g id="XMLID_15_">
	<path id="XMLID_483_" style="fill:#DEDDE0;" d="M190,75c-14.194,0-27.981,1.74-41.161,5.018
		c-39.762,9.888-24.909,56.782-2.654,98.06C158.772,169.819,173.82,165,190,165c44.183,0,80,35.817,80,80h90
		C360,151.112,283.889,75,190,75z"/>
	<path id="XMLID_484_" style="fill:#CDCDD0;" d="M190,165V75C96.112,75,20,151.112,20,245h90C110,200.818,145.817,165,190,165z"/>
	<rect id="XMLID_115_" x="170" y="215" style="fill:#DEDDE0;" width="210" height="90"/>
	<rect id="XMLID_114_" x="0.001" y="215" style="fill:#CDCDD0;" width="190" height="90"/>
	<rect id="XMLID_113_" y="245" style="fill:#ACABB1;" width="380" height="30"/>
	<rect id="XMLID_112_" x="0.001" y="245" style="fill:#818085;" width="190" height="30"/>
	<g id="XMLID_486_">
		<rect id="XMLID_487_" x="180" y="75.301" style="fill:#818085;" width="0.001" height="29.699"/>
		<path id="XMLID_488_" style="fill:#818085;" d="M190.001,105H200V75.301c-3.31-0.192-6.642-0.301-9.999-0.301V105z"/>
		<path id="XMLID_489_" style="fill:#616064;" d="M190,75c-3.357,0-6.689,0.108-9.999,0.301V105h10V75C190.001,75,190,75,190,75z"/>
		<path id="XMLID_490_" style="fill:#616064;" d="M148.644,110.875l-10.766-27.723c-6.387,2.056-12.61,4.475-18.643,7.24
			L130,118.115L148.644,110.875z"/>
		<path id="XMLID_491_" style="fill:#616064;" d="M102.896,134.942l-20.045-21.917c-5.18,4.211-10.105,8.721-14.754,13.503
			l20.04,21.912L102.896,134.942z"/>
		<path id="XMLID_493_" style="fill:#616064;" d="M68.964,173.937l-26.646-13.188c-3.298,5.769-6.27,11.749-8.887,17.916
			l26.66,13.195L68.964,173.937z"/>
		<path id="XMLID_494_" style="fill:#818085;" d="M250,118.115l10.765-27.722c-6.033-2.766-12.256-5.185-18.643-7.24l-10.766,27.723
			L250,118.115z"/>
		<path id="XMLID_495_" style="fill:#818085;" d="M291.862,148.439l20.04-21.912c-4.648-4.782-9.574-9.292-14.754-13.503
			l-20.045,21.917L291.862,148.439z"/>
		<path id="XMLID_496_" style="fill:#818085;" d="M319.909,191.861l26.66-13.195c-2.617-6.167-5.588-12.147-8.887-17.916
			l-26.646,13.188L319.909,191.861z"/>
	</g>
</g>
<g>
</g>
<g>
</g>
<g>
</g>
<g>
</g>
<g>
</g>
<g>
</g>
<g>
</g>
<g>
</g>
<g>
</g>
<g>
</g>
<g>
</g>
<g>
</g>
<g>
</g>
<g>
</g>
<g>
</g>
</svg>
