<?xml version="1.0" encoding="iso-8859-1"?>
<!-- Generator: Adobe Illustrator 19.0.0, SVG Export Plug-In . SVG Version: 6.00 Build 0)  -->
<svg version="1.1" id="Capa_1" xmlns="http://www.w3.org/2000/svg" xmlns:xlink="http://www.w3.org/1999/xlink" x="0px" y="0px"
	 viewBox="0 0 370 370" style="enable-background:new 0 0 370 370;" xml:space="preserve">
<g id="XMLID_526_">
	<path id="XMLID_527_" style="fill:#F2F2F3;" d="M285,323c0,25.957-21.043,47-47,47H132c-25.957,0-47-21.043-47-47V47
		c0-25.958,21.043-47,47-47h106c25.957,0,47,21.042,47,47V323z"/>
	<path id="XMLID_530_" style="fill:#DEDDE0;" d="M185,0h-53c-25.957,0-47,21.042-47,47v276c0,25.957,21.043,47,47,47h53V0z"/>
	<rect id="XMLID_531_" x="85" y="75" style="fill:#FF5023;" width="200" height="220"/>
	<rect id="XMLID_532_" x="85" y="75" style="fill:#D80027;" width="100" height="220"/>
	<rect id="XMLID_533_" x="155" y="120" style="fill:#FFFFFF;" width="60" height="135"/>
	<rect id="XMLID_534_" x="155" y="120" style="fill:#F2F2F3;" width="30" height="135"/>
</g>
<g>
</g>
<g>
</g>
<g>
</g>
<g>
</g>
<g>
</g>
<g>
</g>
<g>
</g>
<g>
</g>
<g>
</g>
<g>
</g>
<g>
</g>
<g>
</g>
<g>
</g>
<g>
</g>
<g>
</g>
</svg>
