<?xml version="1.0" encoding="iso-8859-1"?>
<!-- Generator: Adobe Illustrator 19.0.0, SVG Export Plug-In . SVG Version: 6.00 Build 0)  -->
<svg version="1.1" id="Capa_1" xmlns="http://www.w3.org/2000/svg" xmlns:xlink="http://www.w3.org/1999/xlink" x="0px" y="0px"
	 viewBox="0 0 390 390" style="enable-background:new 0 0 390 390;" xml:space="preserve">
<g id="XMLID_19_">
	<rect id="XMLID_27_" x="135" style="fill:#FF5023;" width="120" height="290"/>
	<path id="XMLID_26_" style="fill:#A2001D;" d="M135,0v290h40c0,0,0-200.384,0-290H135z"/>
	<path id="XMLID_25_" style="fill:#D80027;" d="M215,0v290h40c0,0,0-200.384,0-290H215z"/>
	<path id="XMLID_24_" style="fill:#D80027;" d="M175,0v290h20c0,0,0-200.384,0-290H175z"/>
	<path id="XMLID_23_" style="fill:#FFD6A0;" d="M235,276.5c-8.36,0-15.715,5.369-20,13.5c-4.285-8.131-11.64-13.5-20-13.5
		c-8.36,0-15.715,5.369-20,13.5c-4.285-8.131-11.64-13.5-20-13.5c-8.36,0-15.715,5.369-20,13.5l60,100l60-100
		C250.715,281.869,243.36,276.5,235,276.5z"/>
	<path id="XMLID_22_" style="fill:#FFC170;" d="M195,276.5c-8.36,0-15.715,5.369-20,13.5c-4.285-8.131-11.64-13.5-20-13.5
		c-8.36,0-15.715,5.369-20,13.5l60,100C195,390,195,303.75,195,276.5z"/>
	<polygon id="XMLID_21_" points="170.964,350 195,390 219.036,350 	"/>
</g>
<g>
</g>
<g>
</g>
<g>
</g>
<g>
</g>
<g>
</g>
<g>
</g>
<g>
</g>
<g>
</g>
<g>
</g>
<g>
</g>
<g>
</g>
<g>
</g>
<g>
</g>
<g>
</g>
<g>
</g>
</svg>
