<?xml version="1.0" encoding="iso-8859-1"?>
<!-- Generator: Adobe Illustrator 19.0.0, SVG Export Plug-In . SVG Version: 6.00 Build 0)  -->
<svg version="1.1" id="Capa_1" xmlns="http://www.w3.org/2000/svg" xmlns:xlink="http://www.w3.org/1999/xlink" x="0px" y="0px"
	 viewBox="0 0 390 390" style="enable-background:new 0 0 390 390;" xml:space="preserve">
<g id="XMLID_786_">
	<polygon id="XMLID_796_" style="fill:#DEDDE0;" points="235,350 235,330 155,330 155,350 135,350 135,390 255,390 255,350 	"/>
	<polygon id="XMLID_797_" style="fill:#F2F2F3;" points="195,270 125,280 155,330 195,340 235,330 265,280 	"/>
	<polygon id="XMLID_798_" style="fill:#DEDDE0;" points="195,330 195,280 125,280 155,330 	"/>
	<rect id="XMLID_799_" x="155" y="330" width="80" height="19.999"/>
	<polygon id="XMLID_800_" style="fill:#FF9811;" points="105,30 125,280 265,280 285,30 	"/>
	<path id="XMLID_801_" style="fill:#FF5023;" d="M105,30l20,250h70c0,0,0-180.587,0-250H105z"/>
	<rect id="XMLID_802_" x="155" y="105" style="fill:#FFFFFF;" width="80" height="110"/>
	<rect id="XMLID_803_" x="155" y="105" style="fill:#F2F2F3;" width="40" height="110"/>
	<rect id="XMLID_804_" x="135" y="350" style="fill:#ACABB1;" width="60" height="40"/>
	<rect id="XMLID_805_" x="95" style="fill:#DEDDE0;" width="200" height="40"/>
	<rect id="XMLID_806_" x="95" style="fill:#ACABB1;" width="100" height="40"/>
</g>
<g>
</g>
<g>
</g>
<g>
</g>
<g>
</g>
<g>
</g>
<g>
</g>
<g>
</g>
<g>
</g>
<g>
</g>
<g>
</g>
<g>
</g>
<g>
</g>
<g>
</g>
<g>
</g>
<g>
</g>
</svg>
