<?xml version="1.0" encoding="iso-8859-1"?>
<!-- Generator: Adobe Illustrator 19.0.0, SVG Export Plug-In . SVG Version: 6.00 Build 0)  -->
<svg version="1.1" id="Capa_1" xmlns="http://www.w3.org/2000/svg" xmlns:xlink="http://www.w3.org/1999/xlink" x="0px" y="0px"
	 viewBox="0 0 390 390" style="enable-background:new 0 0 390 390;" xml:space="preserve">
<g id="XMLID_13_">
	<polygon id="XMLID_808_" points="223.273,90.998 215,0 175,0 166.727,90.998 	"/>
	<polygon id="XMLID_809_" style="fill:#00D7DF;" points="95,350 195,340 295,350 295,390 95,390 	"/>
	<polygon id="XMLID_810_" style="fill:#00A1A7;" points="95,350 195,340 195,390 95,390 	"/>
	<g id="XMLID_811_">
		<polygon id="XMLID_812_" style="fill:#00D7DF;" points="255,110 195,100 135,110 95,140 95,170 195,180 295,170 295,140 		"/>
		<polygon id="XMLID_813_" style="fill:#00A1A7;" points="195,100 135,110 95,140 95,170 195,180 		"/>
	</g>
	<polygon id="XMLID_814_" style="fill:#F2F2F3;" points="195,170 95,170 95,350 195,350 295,350 295,170 	"/>
	<polygon id="XMLID_815_" style="fill:#DEDDE0;" points="125,170 95,170 95,350 195,350 195,170 	"/>
	<rect id="XMLID_816_" x="135" y="210" style="fill:#ACABB1;" width="120" height="40"/>
	<rect id="XMLID_817_" x="135" y="210" style="fill:#616064;" width="60" height="40"/>
	<rect id="XMLID_818_" x="135" y="270" style="fill:#ACABB1;" width="120" height="40"/>
	<rect id="XMLID_819_" x="135" y="270" style="fill:#616064;" width="60" height="40"/>
	<rect id="XMLID_820_" x="135" y="70" style="fill:#DEDDE0;" width="120" height="40"/>
	<rect id="XMLID_821_" x="135" y="70" style="fill:#ACABB1;" width="60" height="40"/>
</g>
<g>
</g>
<g>
</g>
<g>
</g>
<g>
</g>
<g>
</g>
<g>
</g>
<g>
</g>
<g>
</g>
<g>
</g>
<g>
</g>
<g>
</g>
<g>
</g>
<g>
</g>
<g>
</g>
<g>
</g>
</svg>
