<?xml version="1.0" encoding="iso-8859-1"?>
<!-- Generator: Adobe Illustrator 19.0.0, SVG Export Plug-In . SVG Version: 6.00 Build 0)  -->
<svg version="1.1" id="Capa_1" xmlns="http://www.w3.org/2000/svg" xmlns:xlink="http://www.w3.org/1999/xlink" x="0px" y="0px"
	 viewBox="0 0 340 340" style="enable-background:new 0 0 340 340;" xml:space="preserve">
<g id="XMLID_807_">
	<polygon id="XMLID_822_" points="230,90 110,90 110,40 170,30 230,40 	"/>
	<path id="XMLID_823_" style="fill:#F2F2F3;" d="M310,293c0,25.957-21.043,47-47,47H77c-25.957,0-47-21.043-47-47V127
		c0-25.957,21.043-47,47-47h186c25.957,0,47,21.043,47,47V293z"/>
	<path id="XMLID_824_" style="fill:#DEDDE0;" d="M170,80H77c-25.957,0-47,21.043-47,47v166c0,25.957,21.043,47,47,47h93V80z"/>
	<polygon id="XMLID_825_" style="fill:#FF5023;" points="170,120 70,120 70,300 170,300 270,300 270,120 	"/>
	<rect id="XMLID_826_" x="70" y="120" style="fill:#D80027;" width="100" height="180"/>
	<rect id="XMLID_827_" x="110" style="fill:#DEDDE0;" width="120" height="40"/>
	<rect id="XMLID_828_" x="110" style="fill:#ACABB1;" width="60" height="40"/>
	<rect id="XMLID_829_" x="110" y="160" style="fill:#F2F2F3;" width="120" height="40"/>
	<rect id="XMLID_830_" x="110" y="160" style="fill:#DEDDE0;" width="60" height="40"/>
	<rect id="XMLID_831_" x="110" y="220" style="fill:#F2F2F3;" width="120" height="40"/>
	<rect id="XMLID_832_" x="110" y="220" style="fill:#DEDDE0;" width="60" height="40"/>
</g>
<g>
</g>
<g>
</g>
<g>
</g>
<g>
</g>
<g>
</g>
<g>
</g>
<g>
</g>
<g>
</g>
<g>
</g>
<g>
</g>
<g>
</g>
<g>
</g>
<g>
</g>
<g>
</g>
<g>
</g>
</svg>
