<?xml version="1.0" encoding="iso-8859-1"?>
<!-- Generator: Adobe Illustrator 19.0.0, SVG Export Plug-In . SVG Version: 6.00 Build 0)  -->
<svg version="1.1" id="Capa_1" xmlns="http://www.w3.org/2000/svg" xmlns:xlink="http://www.w3.org/1999/xlink" x="0px" y="0px"
	 viewBox="0 0 310 310" style="enable-background:new 0 0 310 310;" xml:space="preserve">
<g id="XMLID_833_">
	<polygon id="XMLID_834_" style="fill:#FFDA44;" points="35,270 155,260 275,270 275,310 35,310 	"/>
	<polygon id="XMLID_835_" style="fill:#FF9811;" points="35,270 155,260 155,310 35,310 	"/>
	<polygon id="XMLID_836_" style="fill:#FFDA44;" points="235,90 155,80 75,90 35,120 35,150 155,160 275,150 275,120 	"/>
	<g id="XMLID_837_">
		<polygon id="XMLID_838_" style="fill:#FF9811;" points="155,80 75,90 35,120 35,150 155,160 		"/>
	</g>
	<polygon id="XMLID_839_" style="fill:#F2F2F3;" points="155,150 35,150 35,270 155,270 275,270 275,150 	"/>
	<rect id="XMLID_840_" x="35" y="150" style="fill:#DEDDE0;" width="120" height="120"/>
	<rect id="XMLID_841_" x="75" y="190" style="fill:#ACABB1;" width="160" height="40"/>
	<rect id="XMLID_842_" x="75" y="190" style="fill:#616064;" width="80" height="40"/>
	<g id="XMLID_843_">
		<polygon id="XMLID_844_" points="235,90 75,90 75,40 155,30 235,40 		"/>
		<rect id="XMLID_845_" x="75" style="fill:#DEDDE0;" width="160" height="40"/>
		<rect id="XMLID_846_" x="75" style="fill:#ACABB1;" width="80" height="40"/>
	</g>
</g>
<g>
</g>
<g>
</g>
<g>
</g>
<g>
</g>
<g>
</g>
<g>
</g>
<g>
</g>
<g>
</g>
<g>
</g>
<g>
</g>
<g>
</g>
<g>
</g>
<g>
</g>
<g>
</g>
<g>
</g>
</svg>
