<?xml version="1.0" encoding="iso-8859-1"?>
<!-- Generator: Adobe Illustrator 19.0.0, SVG Export Plug-In . SVG Version: 6.00 Build 0)  -->
<svg version="1.1" id="Capa_1" xmlns="http://www.w3.org/2000/svg" xmlns:xlink="http://www.w3.org/1999/xlink" x="0px" y="0px"
	 viewBox="0 0 390 390" style="enable-background:new 0 0 390 390;" xml:space="preserve">
<g id="XMLID_847_">
	<polygon id="XMLID_848_" points="225,110 165,110 175,0 215,0 	"/>
	<rect id="XMLID_849_" x="145" y="80" style="fill:#FF5023;" width="100" height="70"/>
	<rect id="XMLID_850_" x="145" y="80" style="fill:#D80027;" width="50" height="70"/>
	<path id="XMLID_851_" style="fill:#F2F2F3;" d="M295,343c0,25.957-21.043,47-47,47H142c-25.957,0-47-21.043-47-47V187
		c0-25.957,21.043-47,47-47h106c25.957,0,47,21.043,47,47V343z"/>
	<path id="XMLID_852_" style="fill:#DEDDE0;" d="M195,140h-53c-25.957,0-47,21.043-47,47v156c0,25.957,21.043,47,47,47h53V140z"/>
	<polygon id="XMLID_853_" style="fill:#FF5023;" points="195,200 95,200 95,330 195,330 295,330 295,200 	"/>
	<rect id="XMLID_854_" x="95" y="200" style="fill:#D80027;" width="100" height="130"/>
	<rect id="XMLID_855_" x="135" y="240" style="fill:#F2F2F3;" width="120" height="50"/>
	<rect id="XMLID_856_" x="135" y="240" style="fill:#DEDDE0;" width="60" height="50"/>
</g>
<g>
</g>
<g>
</g>
<g>
</g>
<g>
</g>
<g>
</g>
<g>
</g>
<g>
</g>
<g>
</g>
<g>
</g>
<g>
</g>
<g>
</g>
<g>
</g>
<g>
</g>
<g>
</g>
<g>
</g>
</svg>
