<?xml version="1.0" encoding="iso-8859-1"?>
<!-- Generator: Adobe Illustrator 19.0.0, SVG Export Plug-In . SVG Version: 6.00 Build 0)  -->
<svg version="1.1" id="Capa_1" xmlns="http://www.w3.org/2000/svg" xmlns:xlink="http://www.w3.org/1999/xlink" x="0px" y="0px"
	 viewBox="0 0 380 380" style="enable-background:new 0 0 380 380;" xml:space="preserve">
<g id="XMLID_12_">
	<path id="XMLID_874_" style="fill:#FF9811;" d="M190,30C85.066,30,0,101.635,0,190c0,13.8,2.075,27.192,5.976,39.967l21.597-21.597
		c23.432-23.432,61.421-23.431,84.853,0c23.432,23.432,23.433,61.421,0.001,84.853l-29.159,29.158
		C113.69,339.81,150.431,350,190,350c104.934,0,190-71.635,190-160S294.934,30,190,30z"/>
	<path id="XMLID_875_" style="fill:#FF5023;" d="M0,190c0,13.8,2.075,27.192,5.976,39.967l21.597-21.597
		c23.432-23.432,61.421-23.431,84.853,0c23.432,23.432,23.433,61.421,0.001,84.853l-29.159,29.158
		C113.69,339.81,150.431,350,190,350V30C85.066,30,0,101.635,0,190z"/>
	<circle id="XMLID_876_" style="fill:#FFFFFF;" cx="190" cy="285" r="30"/>
	<circle id="XMLID_877_" style="fill:#6C0014;" cx="95" cy="125" r="35"/>
	<circle id="XMLID_878_" style="fill:#FF5023;" cx="284.999" cy="125" r="35"/>
	<circle id="XMLID_879_" style="fill:#FFDA44;" cx="315" cy="215" r="35"/>
	<circle id="XMLID_880_" style="fill:#D80027;" cx="190" cy="95" r="35"/>
</g>
<g>
</g>
<g>
</g>
<g>
</g>
<g>
</g>
<g>
</g>
<g>
</g>
<g>
</g>
<g>
</g>
<g>
</g>
<g>
</g>
<g>
</g>
<g>
</g>
<g>
</g>
<g>
</g>
<g>
</g>
</svg>
