<?xml version="1.0" encoding="iso-8859-1"?>
<!-- Generator: Adobe Illustrator 19.0.0, SVG Export Plug-In . SVG Version: 6.00 Build 0)  -->
<svg version="1.1" id="Capa_1" xmlns="http://www.w3.org/2000/svg" xmlns:xlink="http://www.w3.org/1999/xlink" x="0px" y="0px"
	 viewBox="0 0 370.395 370.395" style="enable-background:new 0 0 370.395 370.395;" xml:space="preserve">
<g id="XMLID_11_">
	<rect id="XMLID_881_" x="105.197" y="230" style="fill:#565659;" width="160" height="40"/>
	<rect id="XMLID_882_" x="105.197" y="230" width="80" height="40"/>
	<g id="XMLID_883_">
		<path id="XMLID_884_" style="fill:#DEDDE0;" d="M143.248,90L45.156,309.849c-7.877,17.652,0.049,38.347,17.701,46.224
			c17.652,7.876,31.963,14.261,31.963,14.261L219.898,90H143.248z"/>
		<path id="XMLID_885_" style="fill:#F2F2F3;" d="M227.146,90.062l98.092,219.849c7.877,17.652-0.049,38.347-17.701,46.224
			c-17.652,7.876-31.963,14.261-31.963,14.261L150.496,90.062H227.146z"/>
	</g>
	<circle id="XMLID_886_" cx="78.197" cy="325" r="15"/>
	<circle id="XMLID_887_" style="fill:#565659;" cx="292.863" cy="325" r="15"/>
	<path id="XMLID_888_" style="fill:#FF5023;" d="M215.197,44.724V0h-60c0,0,0,23.663,0,44.724c-20.794,10.842-35,32.585-35,57.658
		c0,35.899,29.102,65,65,65s65-29.102,65-65C250.197,77.309,235.991,55.565,215.197,44.724z"/>
	<path id="XMLID_889_" style="fill:#D80027;" d="M155.197,0v44.724c-20.794,10.842-35,32.585-35,57.658c0,35.899,29.102,65,65,65V0
		H155.197z"/>
	<circle id="XMLID_84_" style="fill:#FFFFFF;" cx="185.197" cy="102.382" r="24.995"/>
</g>
<g>
</g>
<g>
</g>
<g>
</g>
<g>
</g>
<g>
</g>
<g>
</g>
<g>
</g>
<g>
</g>
<g>
</g>
<g>
</g>
<g>
</g>
<g>
</g>
<g>
</g>
<g>
</g>
<g>
</g>
</svg>
