<?xml version="1.0" encoding="iso-8859-1"?>
<!-- Generator: Adobe Illustrator 19.0.0, SVG Export Plug-In . SVG Version: 6.00 Build 0)  -->
<svg version="1.1" id="Capa_1" xmlns="http://www.w3.org/2000/svg" xmlns:xlink="http://www.w3.org/1999/xlink" x="0px" y="0px"
	 viewBox="0 0 330 330" style="enable-background:new 0 0 330 330;" xml:space="preserve">
<g id="XMLID_873_">
	<rect id="XMLID_894_" x="45" y="170" style="fill:#616064;" width="240" height="160"/>
	<rect id="XMLID_895_" x="45" y="170" width="120" height="160"/>
	<path id="XMLID_896_" style="fill:#DEDDE0;" d="M217.35,118.034C234.709,105.461,245,86.978,245,67.143
		c0-18.588-9.191-36.47-25.217-49.062C204.943,6.422,185.487,0,165,0c0,0-0.001,0.002-0.001,0.003c0-0.001-0.001-0.003-0.001-0.003
		c-20.487,0-39.943,6.422-54.783,18.081C94.19,30.673,84.999,48.555,84.999,67.143c0,19.835,10.291,38.318,27.65,50.892L74.999,300
		l39.253,7.695l43.417-211.383l-14.394-6.541c-11.273-5.123-18.276-13.794-18.276-22.629c0-14.713,18.318-27.143,40-27.143
		l0.001-0.003L165,40c21.682,0,40,12.43,40,27.143c0,8.835-7.003,17.506-18.276,22.629l-14.393,6.541l43.417,211.383L255,300
		L217.35,118.034z"/>
	<path id="XMLID_897_" style="fill:#ACABB1;" d="M112.566,118.034c-17.359-12.573-27.65-31.057-27.65-50.892
		c0-18.588,9.191-36.47,25.217-49.062C124.974,6.422,144.429,0,164.916,0c0.111,0,0.111,40,0,40c-21.682,0-40,12.43-40,27.143
		c0,8.835,7.003,17.506,18.276,22.629l14.393,6.541l-43.417,211.383L74.916,300L112.566,118.034z"/>
	<rect id="XMLID_898_" x="45" y="290" style="fill:#818085;" width="240" height="40"/>
	<rect id="XMLID_899_" x="45" y="290" style="fill:#616064;" width="120" height="40"/>
</g>
<g>
</g>
<g>
</g>
<g>
</g>
<g>
</g>
<g>
</g>
<g>
</g>
<g>
</g>
<g>
</g>
<g>
</g>
<g>
</g>
<g>
</g>
<g>
</g>
<g>
</g>
<g>
</g>
<g>
</g>
</svg>
