<?xml version="1.0" encoding="iso-8859-1"?>
<!-- Generator: Adobe Illustrator 19.0.0, SVG Export Plug-In . SVG Version: 6.00 Build 0)  -->
<svg version="1.1" id="Capa_1" xmlns="http://www.w3.org/2000/svg" xmlns:xlink="http://www.w3.org/1999/xlink" x="0px" y="0px"
	 viewBox="0 0 390 390" style="enable-background:new 0 0 390 390;" xml:space="preserve">
<g id="XMLID_900_">
	<path id="XMLID_915_" style="fill:#00D7DF;" d="M195,390c-41.355,0-75-33.645-75-75V75c0-41.355,33.645-75,75-75s75,33.645,75,75
		v240C270,356.355,236.355,390,195,390z M195,30c-24.814,0-45,20.187-45,45v240c0,24.814,20.186,45,45,45s45-20.186,45-45V75
		C240,50.187,219.814,30,195,30z"/>
	<path id="XMLID_918_" style="fill:#00A1A7;" d="M240,260v55c0,24.814-20.186,45-45,45s-45-20.186-45-45V75
		c0-24.813,20.186-45,45-45c0.016,0,0.031,0.001,0.048,0.001v-30C195.031,0.001,195.016,0,195,0c-41.355,0-75,33.645-75,75v240
		c0,41.355,33.645,75,75,75s75-33.645,75-75v-75L240,260z"/>
	<path id="XMLID_919_" style="fill:#00D7DF;" d="M225,285c-24.814,0-45-20.186-45-45V120h30v120c0,8.271,6.729,15,15,15
		s15-6.729,15-15V120h30v120C270,264.814,249.814,285,225,285z"/>
</g>
<g>
</g>
<g>
</g>
<g>
</g>
<g>
</g>
<g>
</g>
<g>
</g>
<g>
</g>
<g>
</g>
<g>
</g>
<g>
</g>
<g>
</g>
<g>
</g>
<g>
</g>
<g>
</g>
<g>
</g>
</svg>
