<?xml version="1.0" encoding="iso-8859-1"?>
<!-- Generator: Adobe Illustrator 19.0.0, SVG Export Plug-In . SVG Version: 6.00 Build 0)  -->
<svg version="1.1" id="Capa_1" xmlns="http://www.w3.org/2000/svg" xmlns:xlink="http://www.w3.org/1999/xlink" x="0px" y="0px"
	 viewBox="0 0 370 370" style="enable-background:new 0 0 370 370;" xml:space="preserve">
<g id="XMLID_955_">
	<path id="XMLID_956_" style="fill:#DEDDE0;" d="M258,0H112C86.043,0,65,21.043,65,47v276c0,25.959,21.043,47,47,47h146
		c25.957,0,47-21.041,47-47V47C305,21.043,283.957,0,258,0z"/>
	<path id="XMLID_957_" style="fill:#BDBCC1;" d="M185,0h-73C86.043,0,65,21.043,65,47v276c0,25.959,21.043,47,47,47h73V0z"/>
	<rect id="XMLID_958_" x="65" y="50" style="fill:#616064;" width="240" height="40"/>
	<rect id="XMLID_959_" x="65" y="50" width="120" height="40"/>
	<rect id="XMLID_960_" x="65" y="250" style="fill:#616064;" width="240" height="40"/>
	<rect id="XMLID_961_" x="65" y="250" width="120" height="40"/>
	<circle id="XMLID_962_" style="fill:#FFFFFF;" cx="185" cy="330" r="20"/>
	<g id="XMLID_963_">
		<rect id="XMLID_964_" x="65" y="85" style="fill:#00D7DF;" width="240" height="170"/>
		<rect id="XMLID_965_" x="65" y="85" style="fill:#00A1A7;" width="120" height="170"/>
		<g id="XMLID_966_">
			<polygon id="XMLID_967_" style="fill:#FFFFFF;" points="220,165 195.484,201.774 160,145 110,225 260,225 			"/>
			<circle id="XMLID_968_" style="fill:#FFFFFF;" cx="205" cy="130" r="15"/>
		</g>
	</g>
</g>
<g>
</g>
<g>
</g>
<g>
</g>
<g>
</g>
<g>
</g>
<g>
</g>
<g>
</g>
<g>
</g>
<g>
</g>
<g>
</g>
<g>
</g>
<g>
</g>
<g>
</g>
<g>
</g>
<g>
</g>
</svg>
