<?xml version="1.0" encoding="iso-8859-1"?>
<!-- Generator: Adobe Illustrator 19.0.0, SVG Export Plug-In . SVG Version: 6.00 Build 0)  -->
<svg version="1.1" id="Capa_1" xmlns="http://www.w3.org/2000/svg" xmlns:xlink="http://www.w3.org/1999/xlink" x="0px" y="0px"
	 viewBox="0 0 380 380" style="enable-background:new 0 0 380 380;" xml:space="preserve">
<g id="XMLID_981_">
	<path id="XMLID_982_" style="fill:#DEDDE0;" d="M225,345c0,19.329-15.67,35-35,35l0,0c-19.33,0-35-15.671-35-35V235
		c0-19.33,15.67-35,35-35l0,0c19.33,0,35,15.67,35,35V345z"/>
	<g id="XMLID_983_">
		<circle id="XMLID_984_" style="fill:#DEDDE0;" cx="190" cy="135" r="135"/>
		<path id="XMLID_985_" style="fill:#BDBCC1;" d="M190,270c-74.559,0-135-60.441-135-135S115.441,0,190,0"/>
	</g>
	<g id="XMLID_986_">
		<circle id="XMLID_987_" style="fill:#F2F2F3;" cx="190" cy="135" r="90"/>
		<path id="XMLID_988_" style="fill:#DEDDE0;" d="M190,225c-49.706,0-90-40.296-90-90c0-49.705,40.294-90,90-90"/>
	</g>
	<g id="XMLID_989_">
		<polygon id="XMLID_990_" style="fill:#616064;" points="240,115 210,115 210,85 170,85 170,115 140,115 140,155 170,155 170,185 
			210,185 210,155 240,155 		"/>
		<polygon id="XMLID_991_" points="190,185 190,85 170,85 170,115 140,115 140,155 170,155 170,185 		"/>
	</g>
</g>
<g>
</g>
<g>
</g>
<g>
</g>
<g>
</g>
<g>
</g>
<g>
</g>
<g>
</g>
<g>
</g>
<g>
</g>
<g>
</g>
<g>
</g>
<g>
</g>
<g>
</g>
<g>
</g>
<g>
</g>
</svg>
