<?xml version="1.0" encoding="iso-8859-1"?>
<!-- Generator: Adobe Illustrator 19.0.0, SVG Export Plug-In . SVG Version: 6.00 Build 0)  -->
<svg version="1.1" id="Capa_1" xmlns="http://www.w3.org/2000/svg" xmlns:xlink="http://www.w3.org/1999/xlink" x="0px" y="0px"
	 viewBox="0 0 370 370" style="enable-background:new 0 0 370 370;" xml:space="preserve">
<g id="XMLID_992_">
	<path id="XMLID_101_" style="fill:#DEDDE0;" d="M47,340c-25.957,0-47-21.043-47-47V117c0-25.957,21.043-47,47-47h276
		c25.959,0,47,21.043,47,47v176c0,25.957-21.041,47-47,47H47z"/>
	<path id="XMLID_993_" style="fill:#BDBCC1;" d="M185,70H47C21.043,70,0,91.043,0,117v176c0,25.957,21.043,47,47,47h138V70z"/>
	<path id="XMLID_994_" style="fill:#616064;" d="M323,70h-58l-10-40H115l-10,40H47C21.043,70,0,91.043,0,117v163h44.999H185h140h45
		V117C370,91.043,348.959,70,323,70z"/>
	<path id="XMLID_995_" d="M115,30l-10,40H47C21.043,70,0,91.043,0,117v163h45h140V120V70V30H115z"/>
	<path id="XMLID_996_" style="fill:#DEDDE0;" d="M310,215c0,69.035-55.964,125-125,125C145,300,75,215,75,215s60-75,110-125
		C254.036,90,310,145.965,310,215z"/>
	<path id="XMLID_997_" style="fill:#BDBCC1;" d="M185,340c-69.036,0-125-55.965-125-125S115.964,90,185,90"/>
	<path id="XMLID_998_" style="fill:#F2F2F3;" d="M265,215c0,44.18-35.818,80-80,80c-44.182,0-80-35.82-80-80
		c0-44.181,35.818-80,80-80C229.182,135,265,170.819,265,215z"/>
	<path id="XMLID_999_" style="fill:#DEDDE0;" d="M185,295c-44.182,0-80-35.82-80-80c0-44.181,35.818-80,80-80"/>
	<circle id="XMLID_1000_" style="fill:#00D7DF;" cx="325" cy="115" r="15"/>
</g>
<g>
</g>
<g>
</g>
<g>
</g>
<g>
</g>
<g>
</g>
<g>
</g>
<g>
</g>
<g>
</g>
<g>
</g>
<g>
</g>
<g>
</g>
<g>
</g>
<g>
</g>
<g>
</g>
<g>
</g>
</svg>
