<?xml version="1.0" encoding="iso-8859-1"?>
<!-- Generator: Adobe Illustrator 19.0.0, SVG Export Plug-In . SVG Version: 6.00 Build 0)  -->
<svg version="1.1" id="Capa_1" xmlns="http://www.w3.org/2000/svg" xmlns:xlink="http://www.w3.org/1999/xlink" x="0px" y="0px"
	 viewBox="0 0 400 400" style="enable-background:new 0 0 400 400;" xml:space="preserve">
<g id="XMLID_1022_">
	<g id="XMLID_1023_">
		<polygon id="XMLID_1024_" style="fill:#818085;" points="245,388.535 105,388.535 125,338.535 225,338.535 		"/>
		<polygon id="XMLID_1025_" style="fill:#565659;" points="175,388.535 105,388.535 125,338.535 175,338.535 		"/>
		<path id="XMLID_130_" style="fill:#DEDDE0;" d="M47,348.535c-25.957,0-47-21.043-47-47v-176c0-25.957,21.043-47,47-47h256
			c25.959,0,47,21.043,47,47v176c0,25.957-21.041,47-47,47H47z"/>
		<path id="XMLID_1026_" style="fill:#BDBCC1;" d="M175,78.535H47c-25.957,0-47,21.043-47,47v176c0,25.957,21.043,47,47,47h128
			V78.535z"/>
		<path id="XMLID_1027_" style="fill:#616064;" d="M350,288.535v-163c0-25.957-21.041-47-47-47H47c-25.957,0-47,21.043-47,47v163h45
			l130-10l130,10H350z"/>
		<path id="XMLID_1028_" d="M175,78.535H47c-25.957,0-47,21.043-47,47v163h45l130-10V78.535z"/>
		<rect id="XMLID_1029_" x="45" y="118.535" style="fill:#00D7DF;" width="260" height="170"/>
		<rect id="XMLID_1030_" x="45" y="118.535" style="fill:#00A1A7;" width="130" height="170"/>
		<g id="XMLID_1031_">
			<polygon id="XMLID_1032_" style="fill:#FFFFFF;" points="210,198.535 185.484,235.31 150,178.535 100,258.535 250,258.535 			"/>
			<circle id="XMLID_1033_" style="fill:#FFFFFF;" cx="195" cy="163.535" r="15"/>
		</g>
	</g>
	<g id="XMLID_1034_">
		<path id="XMLID_1035_" style="fill:#DEDDE0;" d="M372.054,168.535h-86.812c-15.434,0-27.945,12.512-27.945,27.945v164.108
			c0,15.435,12.512,27.946,27.945,27.946h86.812c15.434,0,27.946-12.512,27.946-27.946V196.48
			C400,181.047,387.487,168.535,372.054,168.535z"/>
		<path id="XMLID_1036_" style="fill:#BDBCC1;" d="M328.648,168.535h-43.406c-15.434,0-27.945,12.512-27.945,27.945v164.108
			c0,15.435,12.512,27.946,27.945,27.946h43.406V168.535z"/>
		<rect id="XMLID_1037_" x="257.297" y="198.265" style="fill:#616064;" width="142.703" height="23.784"/>
		<polygon id="XMLID_1038_" points="328.648,222.049 257.297,218.535 257.297,198.265 328.648,198.265 		"/>
		<rect id="XMLID_1039_" x="257.297" y="318.535" style="fill:#616064;" width="142.703" height="22.432"/>
		<polygon id="XMLID_1040_" points="328.648,340.967 257.297,340.967 257.297,318.535 328.648,317.184 		"/>
		<circle id="XMLID_1041_" style="fill:#FFFFFF;" cx="328.648" cy="364.752" r="11.892"/>
		<g id="XMLID_1042_">
			<rect id="XMLID_1043_" x="257.297" y="219.076" style="fill:#00D7DF;" width="142.703" height="101.08"/>
			<rect id="XMLID_1044_" x="257.297" y="219.076" style="fill:#00A1A7;" width="71.352" height="101.08"/>
			<g id="XMLID_1045_">
				<polygon id="XMLID_1046_" style="fill:#FFFFFF;" points="349.459,266.643 334.883,288.509 313.783,254.752 284.054,302.318 
					373.242,302.318 				"/>
				<circle id="XMLID_1047_" style="fill:#FFFFFF;" cx="340.54" cy="245.832" r="8.919"/>
			</g>
		</g>
	</g>
	<g id="XMLID_1048_">
		<g id="XMLID_1049_">
			<path id="XMLID_1050_" style="fill:#DEDDE0;" d="M290.16,49.292c-25.029-23.456-58.673-37.827-95.684-37.827
				C143.9,11.465,99.601,38.289,75,78.48l33.316,22.211c17.397-29.461,49.468-49.227,86.16-49.227
				c26.2,0,50.037,10.086,67.863,26.577C271.022,67.959,280.662,58.682,290.16,49.292z"/>
			<polygon id="XMLID_1051_" style="fill:#DEDDE0;" points="289.477,21.465 304.477,96.465 225,78.535 			"/>
		</g>
		<path id="XMLID_1052_" style="fill:#CDCDD0;" d="M194.493,11.465c-0.006,0-0.011,0-0.017,0C143.9,11.465,99.601,38.289,75,78.48
			l33.316,22.211c17.397-29.461,49.468-49.227,86.16-49.227c0.006,0,0.011,0,0.017,0V11.465z"/>
	</g>
</g>
<g>
</g>
<g>
</g>
<g>
</g>
<g>
</g>
<g>
</g>
<g>
</g>
<g>
</g>
<g>
</g>
<g>
</g>
<g>
</g>
<g>
</g>
<g>
</g>
<g>
</g>
<g>
</g>
<g>
</g>
</svg>
