<?xml version="1.0" encoding="iso-8859-1"?>
<!-- Generator: Adobe Illustrator 19.0.0, SVG Export Plug-In . SVG Version: 6.00 Build 0)  -->
<svg version="1.1" id="Capa_1" xmlns="http://www.w3.org/2000/svg" xmlns:xlink="http://www.w3.org/1999/xlink" x="0px" y="0px"
	 viewBox="0 0 370 370" style="enable-background:new 0 0 370 370;" xml:space="preserve">
<g id="XMLID_1075_">
	<polygon id="XMLID_1076_" style="fill:#FFDA44;" points="65,200 15,370 355,370 305,200 185,180 	"/>
	<polygon id="XMLID_1077_" style="fill:#FF9811;" points="65,200 15,370 185,370 185,180 	"/>
	<rect id="XMLID_1078_" x="165" y="160" style="fill:#50412E;" width="40" height="180"/>
	<rect id="XMLID_1079_" x="95" y="330" style="fill:#786145;" width="180" height="40"/>
	<rect id="XMLID_1080_" x="95" y="330" style="fill:#282017;" width="90" height="40"/>
	<circle id="XMLID_1081_" style="fill:#FFFFFF;" cx="185" cy="185" r="55"/>
	<path id="XMLID_1082_" style="fill:#616064;" d="M245,96.058V60c0-33.137-26.863-60-60-60s-60,26.863-60,60v36.058
		C89.133,116.807,65,155.584,65,200h240C305,155.584,280.867,116.807,245,96.058z"/>
	<path id="XMLID_1083_" d="M185,0c-33.137,0-60,26.863-60,60v36.058C89.133,116.807,65,155.584,65,200h120C185,200,185,53,185,0z"/>
</g>
<g>
</g>
<g>
</g>
<g>
</g>
<g>
</g>
<g>
</g>
<g>
</g>
<g>
</g>
<g>
</g>
<g>
</g>
<g>
</g>
<g>
</g>
<g>
</g>
<g>
</g>
<g>
</g>
<g>
</g>
</svg>
