<?xml version="1.0" encoding="iso-8859-1"?>
<!-- Generator: Adobe Illustrator 19.0.0, SVG Export Plug-In . SVG Version: 6.00 Build 0)  -->
<svg version="1.1" id="Capa_1" xmlns="http://www.w3.org/2000/svg" xmlns:xlink="http://www.w3.org/1999/xlink" x="0px" y="0px"
	 viewBox="0 0 388.949 388.949" style="enable-background:new 0 0 388.949 388.949;" xml:space="preserve">
<g id="XMLID_1090_">
	<g id="XMLID_1091_">
		
			<rect id="XMLID_125_" x="11.234" y="138.606" transform="matrix(0.866 0.5 -0.5 0.866 123.0933 -72.1789)" style="fill:#F2F2F3;" width="370" height="110"/>
		
			<rect id="XMLID_124_" x="23.627" y="92.356" transform="matrix(0.866 0.5 -0.5 0.866 89.2359 -38.3215)" style="fill:#DEDDE0;" width="185" height="110"/>
		
			<rect id="XMLID_123_" x="48.986" y="72.356" transform="matrix(0.866 0.5 -0.5 0.866 74.5935 -23.6806)" style="fill:#003638;" width="65.001" height="110"/>
		
			<rect id="XMLID_122_" x="105.279" y="104.856" transform="matrix(0.866 0.5 -0.5 0.866 98.3878 -47.4727)" style="fill:#006C70;" width="64.999" height="110"/>
		
			<rect id="XMLID_121_" x="161.57" y="137.356" transform="matrix(0.866 0.5 -0.5 0.866 122.1796 -71.2642)" style="fill:#00A1A7;" width="64.999" height="110"/>
		
			<rect id="XMLID_120_" x="217.861" y="169.856" transform="matrix(0.866 0.5 -0.5 0.866 145.9691 -95.0551)" style="fill:#00D7DF;" width="65" height="110"/>
		
			<rect id="XMLID_119_" x="274.153" y="202.356" transform="matrix(0.866 0.5 -0.5 0.866 169.7607 -118.8469)" style="fill:#99EFF2;" width="65" height="110"/>
	</g>
	<g id="XMLID_1092_">
		<polygon id="XMLID_1093_" style="fill:#F2F2F3;" points="236.143,189.105 293.537,204.484 207.166,181.341 207.166,181.341 		"/>
		<polygon id="XMLID_1094_" style="fill:#DEDDE0;" points="137.102,276.447 178.695,287.593 178.695,287.593 144.889,278.534 		"/>
		
			<rect id="XMLID_1095_" x="13.894" y="134.173" transform="matrix(0.9659 0.2588 -0.2588 0.9659 49.779 0.2621)" style="fill:#DEDDE0;" width="20" height="110"/>
		<polygon id="XMLID_1096_" style="fill:#D80027;" points="173.358,172.282 110.573,155.459 91.617,208.477 82.104,261.711 
			137.102,276.447 144.889,278.534 161.617,228.809 		"/>
		<polygon id="XMLID_1097_" style="fill:#6C0014;" points="110.573,155.459 47.788,138.636 19.318,244.887 19.318,244.888 
			82.104,261.711 		"/>
		<polygon id="XMLID_1098_" style="fill:#FF5023;" points="236.143,189.105 207.166,181.341 173.358,172.282 144.889,278.534 
			178.695,287.593 207.674,295.357 		"/>
		<polygon id="XMLID_1099_" style="fill:#FF9811;" points="298.929,205.929 293.537,204.484 236.143,189.105 207.674,295.357 
			265.067,310.736 270.459,312.181 		"/>
		
			<rect id="XMLID_1100_" x="273.161" y="225.701" transform="matrix(0.2588 -0.9659 0.9659 0.2588 -18.2503 517.6191)" style="fill:#FFDA44;" width="110" height="90"/>
	</g>
	<g id="XMLID_1101_">
		<rect id="XMLID_1102_" x="188.949" y="225.475" style="fill:#F2F2F3;" width="200" height="110"/>
		<rect id="XMLID_1103_" x="8.949" y="225.475" style="fill:#DEDDE0;" width="190" height="110"/>
	</g>
	<g id="XMLID_1104_">
		<rect id="XMLID_1105_" x="138.949" y="260.475" style="fill:#616064;" width="120" height="40"/>
		<rect id="XMLID_1106_" x="138.949" y="260.475" width="60" height="40"/>
	</g>
	<circle id="XMLID_1107_" style="fill:#616064;" cx="358.949" cy="260.475" r="15"/>
</g>
<g>
</g>
<g>
</g>
<g>
</g>
<g>
</g>
<g>
</g>
<g>
</g>
<g>
</g>
<g>
</g>
<g>
</g>
<g>
</g>
<g>
</g>
<g>
</g>
<g>
</g>
<g>
</g>
<g>
</g>
</svg>
