<?xml version="1.0" encoding="iso-8859-1"?>
<!-- Generator: Adobe Illustrator 19.0.0, SVG Export Plug-In . SVG Version: 6.00 Build 0)  -->
<svg version="1.1" id="Capa_1" xmlns="http://www.w3.org/2000/svg" xmlns:xlink="http://www.w3.org/1999/xlink" x="0px" y="0px"
	 viewBox="0 0 330 330" style="enable-background:new 0 0 330 330;" xml:space="preserve">
<g id="XMLID_1155_">
	<polygon id="XMLID_1156_" style="fill:#00A1A7;" points="5,240 5,80 125,160 	"/>
	<polygon id="XMLID_1157_" style="fill:#00D7DF;" points="325,240 325,80 205,160 	"/>
	<rect id="XMLID_1158_" x="145" y="260" style="fill:#DEDDE0;" width="40" height="70"/>
	<rect id="XMLID_1159_" x="145" y="170" style="fill:#DEDDE0;" width="40" height="70"/>
	<rect id="XMLID_1160_" x="145" y="80" style="fill:#DEDDE0;" width="40" height="70"/>
	<rect id="XMLID_1161_" x="145" y="260" style="fill:#CDCDD0;" width="20" height="70"/>
	<rect id="XMLID_1162_" x="145" y="170" style="fill:#CDCDD0;" width="20" height="70"/>
	<rect id="XMLID_1163_" x="145" y="80" style="fill:#CDCDD0;" width="20" height="70"/>
	<g id="XMLID_1164_">
		<path id="XMLID_1165_" style="fill:#DEDDE0;" d="M260.684,37.827C235.654,14.371,202.011,0,165,0
			C114.424,0,70.124,26.824,45.523,67.016L78.84,89.227C96.237,59.766,128.308,40,165,40c26.2,0,50.037,10.086,67.863,26.577
			C241.546,56.494,251.186,47.217,260.684,37.827z"/>
		<polygon id="XMLID_1166_" style="fill:#DEDDE0;" points="260,10 275,85 200,70 		"/>
	</g>
	<path id="XMLID_1167_" style="fill:#CDCDD0;" d="M165.017,0c-0.006,0-0.011,0-0.017,0C114.424,0,70.124,26.824,45.523,67.016
		L78.84,89.227C96.237,59.766,128.308,40,165,40c0.006,0,0.011,0,0.017,0V0z"/>
</g>
<g>
</g>
<g>
</g>
<g>
</g>
<g>
</g>
<g>
</g>
<g>
</g>
<g>
</g>
<g>
</g>
<g>
</g>
<g>
</g>
<g>
</g>
<g>
</g>
<g>
</g>
<g>
</g>
<g>
</g>
</svg>
