<?xml version="1.0" encoding="iso-8859-1"?>
<!-- Generator: Adobe Illustrator 19.0.0, SVG Export Plug-In . SVG Version: 6.00 Build 0)  -->
<svg version="1.1" id="Capa_1" xmlns="http://www.w3.org/2000/svg" xmlns:xlink="http://www.w3.org/1999/xlink" x="0px" y="0px"
	 viewBox="0 0 360 360" style="enable-background:new 0 0 360 360;" xml:space="preserve">
<g id="XMLID_7_">
	<path id="XMLID_1169_" style="fill:#00D7DF;" d="M320,131.643c0,77.32-62.68,140-140,140s-140-62.68-140-140H0
		c0,82.396,55.365,151.861,130.922,173.226h98.156C304.635,283.504,360,214.039,360,131.643H320z"/>
	<path id="XMLID_1170_" style="fill:#00A1A7;" d="M40,131.643H0c0,82.396,55.365,151.861,130.922,173.226H180v-33.226
		C102.68,271.643,40,208.963,40,131.643z"/>
	<g id="XMLID_1171_">
		<path id="XMLID_1172_" style="fill:#818085;" d="M240,131.643c0,33.137-60,80-60,80s-60-46.863-60-80c0-33.138,26.863-60,60-60
			S240,98.505,240,131.643z"/>
		<path id="XMLID_1173_" style="fill:#565659;" d="M180,211.643c0,0-60-46.863-60-80c0-33.138,26.863-60,60-60
			C180,114.643,180,211.643,180,211.643z"/>
		<circle id="XMLID_1174_" cx="180" cy="141.643" r="20"/>
		<path id="XMLID_1175_" d="M170,141.643v61.611c5.968,5.238,10,8.389,10,8.389s4.032-3.15,10-8.389v-61.611H170z"/>
		<polygon id="XMLID_1176_" style="fill:#F2F2F3;" points="180,41.643 120,41.643 135.281,91.643 180,91.643 224.719,91.643 
			240,41.643 		"/>
		<polygon id="XMLID_1177_" style="fill:#DEDDE0;" points="180,91.643 180,41.643 120,41.643 135.281,91.643 		"/>
	</g>
	<rect id="XMLID_1178_" x="180" y="268.357" style="fill:#DEDDE0;" width="160" height="40"/>
	<rect id="XMLID_1179_" x="20" y="268.357" style="fill:#CDCDD0;" width="160" height="40"/>
	<rect id="XMLID_1180_" x="150" y="258.357" style="fill:#FF5023;" width="60" height="60"/>
	<rect id="XMLID_1181_" x="150" y="258.357" style="fill:#D80027;" width="30" height="60"/>
	<circle id="XMLID_1182_" style="fill:#565659;" cx="20" cy="288.357" r="20"/>
	<circle id="XMLID_1183_" style="fill:#565659;" cx="20" cy="131.643" r="20"/>
	<circle id="XMLID_1184_" style="fill:#818085;" cx="340" cy="131.643" r="20"/>
	<circle id="XMLID_1185_" style="fill:#818085;" cx="340" cy="288.357" r="20"/>
</g>
<g>
</g>
<g>
</g>
<g>
</g>
<g>
</g>
<g>
</g>
<g>
</g>
<g>
</g>
<g>
</g>
<g>
</g>
<g>
</g>
<g>
</g>
<g>
</g>
<g>
</g>
<g>
</g>
<g>
</g>
</svg>
