<?xml version="1.0" encoding="iso-8859-1"?>
<!-- Generator: Adobe Illustrator 19.0.0, SVG Export Plug-In . SVG Version: 6.00 Build 0)  -->
<svg version="1.1" id="Capa_1" xmlns="http://www.w3.org/2000/svg" xmlns:xlink="http://www.w3.org/1999/xlink" x="0px" y="0px"
	 viewBox="0 0 360 360" style="enable-background:new 0 0 360 360;" xml:space="preserve">
<g id="XMLID_1168_">
	<path id="XMLID_1186_" style="fill:#00D7DF;" d="M256.53,306.02c43.981-26.148,73.47-74.121,73.47-129c0-82.842-67.157-150-150-150
		s-150,67.158-150,150c0,54.879,29.488,102.852,73.47,129H256.53z M70,177.02c0-60.75,49.248-110,110-110s110,49.25,110,110
		s-49.249,110-110,110S70,237.77,70,177.02z"/>
	<path id="XMLID_1189_" style="fill:#00A1A7;" d="M180,306.02v-19c-60.752,0-110-49.25-110-110s49.248-110,110-110v-40
		c-82.843,0-150,67.158-150,150c0,54.868,29.466,102.848,73.431,129H180z"/>
	<g id="XMLID_1190_">
		<path id="XMLID_1191_" style="fill:#818085;" d="M240,157.02c0,33.137-60,80-60,80s-60-46.863-60-80c0-33.138,26.863-60,60-60
			S240,123.882,240,157.02z"/>
		<path id="XMLID_1192_" style="fill:#565659;" d="M180,237.02c0,0-60-46.863-60-80c0-33.138,26.863-60,60-60
			C180,140.02,180,237.02,180,237.02z"/>
		<circle id="XMLID_1193_" cx="180" cy="167.02" r="20"/>
		<path id="XMLID_1194_" d="M170,167.02v61.611c5.968,5.238,10,8.389,10,8.389s4.032-3.15,10-8.389V167.02H170z"/>
		<polygon id="XMLID_1195_" style="fill:#F2F2F3;" points="180,67.02 120,67.02 135.281,117.02 180,117.02 224.719,117.02 
			240,67.02 		"/>
		<polygon id="XMLID_1196_" style="fill:#DEDDE0;" points="180,117.02 180,67.02 120,67.02 135.281,117.02 		"/>
	</g>
	<rect id="XMLID_1197_" x="180" y="282.98" style="fill:#DEDDE0;" width="160" height="40"/>
	<rect id="XMLID_1198_" x="20" y="282.98" style="fill:#CDCDD0;" width="160" height="40"/>
	<circle id="XMLID_1199_" style="fill:#565659;" cx="20" cy="302.98" r="20"/>
	<circle id="XMLID_1200_" style="fill:#818085;" cx="340" cy="302.98" r="20"/>
	<rect id="XMLID_1201_" x="150" y="272.98" style="fill:#FF5023;" width="60" height="60"/>
	<rect id="XMLID_1202_" x="150" y="272.98" style="fill:#D80027;" width="30" height="60"/>
</g>
<g>
</g>
<g>
</g>
<g>
</g>
<g>
</g>
<g>
</g>
<g>
</g>
<g>
</g>
<g>
</g>
<g>
</g>
<g>
</g>
<g>
</g>
<g>
</g>
<g>
</g>
<g>
</g>
<g>
</g>
</svg>
