<?xml version="1.0" encoding="iso-8859-1"?>
<!-- Generator: Adobe Illustrator 19.0.0, SVG Export Plug-In . SVG Version: 6.00 Build 0)  -->
<svg version="1.1" id="Capa_1" xmlns="http://www.w3.org/2000/svg" xmlns:xlink="http://www.w3.org/1999/xlink" x="0px" y="0px"
	 viewBox="0 0 360 360" style="enable-background:new 0 0 360 360;" xml:space="preserve">
<g id="XMLID_6_">
	<rect id="XMLID_1233_" x="60" y="120" style="fill:#F2F2F3;" width="240" height="240"/>
	<rect id="XMLID_1234_" x="60" y="120" style="fill:#DEDDE0;" width="120" height="240"/>
	<rect id="XMLID_1235_" x="100" y="190" style="fill:#FFFFFF;" width="40" height="130"/>
	<rect id="XMLID_1236_" x="160" y="190" style="fill:#FFFFFF;" width="40" height="130"/>
	<rect id="XMLID_1237_" x="220" y="190" style="fill:#FFFFFF;" width="40" height="130"/>
	<path id="XMLID_1238_" style="fill:#818085;" d="M180,0c-33.137,0-60,26.863-60,60v43h40V60c0-11.046,8.955-20,20-20
		c11.046,0,20,8.954,20,20v43h40V60C240,26.863,213.137,0,180,0z"/>
	<polygon id="XMLID_1239_" style="fill:#ACABB1;" points="330,150 150,150 170,70 310,70 	"/>
	<polygon id="XMLID_1240_" style="fill:#818085;" points="180,150 30,150 50,70 180,70 	"/>
</g>
<g>
</g>
<g>
</g>
<g>
</g>
<g>
</g>
<g>
</g>
<g>
</g>
<g>
</g>
<g>
</g>
<g>
</g>
<g>
</g>
<g>
</g>
<g>
</g>
<g>
</g>
<g>
</g>
<g>
</g>
</svg>
