<?xml version="1.0" encoding="iso-8859-1"?>
<!-- Generator: Adobe Illustrator 19.0.0, SVG Export Plug-In . SVG Version: 6.00 Build 0)  -->
<svg version="1.1" id="Capa_1" xmlns="http://www.w3.org/2000/svg" xmlns:xlink="http://www.w3.org/1999/xlink" x="0px" y="0px"
	 viewBox="0 0 359.24 359.24" style="enable-background:new 0 0 359.24 359.24;" xml:space="preserve">
<g id="XMLID_1321_">
	<circle id="XMLID_1322_" style="fill:#006DF0;" cx="249.24" cy="239.613" r="110"/>
	<circle id="XMLID_1323_" style="fill:#D80027;" cx="179.291" cy="119.627" r="110"/>
	<circle id="XMLID_1324_" style="fill:#91DC5A;" cx="110" cy="239.613" r="110"/>
	<path id="XMLID_1325_" style="fill:#FFFFFF;" d="M279.971,139.627c0,0-70.441-9.623-100.351,14.816
		c-30.086-24.585-99.649-14.816-99.649-14.816s24.129,69.273,60.582,82.984c-5.938,37.987,38.719,87.016,39.068,87.016
		c0.35,0,45.066-49.201,39.026-87.266C254.846,208.479,279.971,139.627,279.971,139.627z"/>
	<path id="XMLID_1326_" style="fill:#EA348B;" d="M179.62,154.443c10.027,8.194,18.772,18.304,25.631,30.184
		c6.938,12.018,11.344,24.801,13.396,37.734c36.198-13.883,63.194-46.34,69.311-85.709
		C250.889,122.667,209.529,130.004,179.62,154.443z"/>
	<path id="XMLID_1327_" style="fill:#99EFF2;" d="M218.648,222.361c-12.227,4.689-25.5,7.266-39.377,7.266
		c-13.628,0-26.673-2.484-38.718-7.016c-5.938,37.987,8.476,77.23,39.068,102.182C210.281,299.787,224.688,260.426,218.648,222.361z
		"/>
	<path id="XMLID_1328_" style="fill:#FFDA44;" d="M140.553,222.611c2.035-13.018,6.454-25.889,13.438-37.984
		c6.858-11.88,15.603-21.989,25.63-30.184c-30.086-24.585-71.759-31.865-108.996-17.543C76.854,176.396,104.1,208.9,140.553,222.611
		z"/>
	<path id="XMLID_1329_" style="fill:#FFFFFF;" d="M179.62,154.443c-10.027,8.194-18.771,18.304-25.63,30.184
		c-6.983,12.096-11.402,24.967-13.438,37.984c12.045,4.531,25.09,7.016,38.718,7.016c13.877,0,27.15-2.576,39.377-7.266
		c-2.053-12.934-6.458-25.717-13.396-37.734C198.393,172.747,189.648,162.638,179.62,154.443z"/>
</g>
<g>
</g>
<g>
</g>
<g>
</g>
<g>
</g>
<g>
</g>
<g>
</g>
<g>
</g>
<g>
</g>
<g>
</g>
<g>
</g>
<g>
</g>
<g>
</g>
<g>
</g>
<g>
</g>
<g>
</g>
</svg>
