<?xml version="1.0" encoding="iso-8859-1"?>
<!-- Generator: Adobe Illustrator 19.0.0, SVG Export Plug-In . SVG Version: 6.00 Build 0)  -->
<svg version="1.1" id="Capa_1" xmlns="http://www.w3.org/2000/svg" xmlns:xlink="http://www.w3.org/1999/xlink" x="0px" y="0px"
	 viewBox="0 0 400 400" style="enable-background:new 0 0 400 400;" xml:space="preserve">
<g id="XMLID_1347_">
	<path id="XMLID_1348_" style="fill:#F2F2F3;" d="M400,200c0,0-50,130-200,130S0,200,0,200S50,70,200,70S400,200,400,200z"/>
	<path id="XMLID_1349_" style="fill:#DEDDE0;" d="M200,330C50,330,0,200,0,200S50,70,200,70"/>
	<circle id="XMLID_1350_" style="fill:#00D7DF;" cx="200" cy="200" r="100"/>
	<path id="XMLID_1351_" style="fill:#00A1A7;" d="M200,300c-55.229,0-100-44.771-100-100s44.771-100,100-100"/>
	<circle id="XMLID_1352_" style="fill:#616064;" cx="200" cy="200" r="60"/>
	<path id="XMLID_1353_" d="M200,260c-33.137,0-60-26.863-60-60s26.863-60,60-60"/>
	<circle id="XMLID_1354_" style="fill:#FFFFFF;" cx="245" cy="165" r="15"/>
	<circle id="XMLID_1355_" style="fill:#FFFFFF;" cx="190" cy="240" r="30"/>
</g>
<g>
</g>
<g>
</g>
<g>
</g>
<g>
</g>
<g>
</g>
<g>
</g>
<g>
</g>
<g>
</g>
<g>
</g>
<g>
</g>
<g>
</g>
<g>
</g>
<g>
</g>
<g>
</g>
<g>
</g>
</svg>
