<?xml version="1.0" encoding="iso-8859-1"?>
<!-- Generator: Adobe Illustrator 19.0.0, SVG Export Plug-In . SVG Version: 6.00 Build 0)  -->
<svg version="1.1" id="Capa_1" xmlns="http://www.w3.org/2000/svg" xmlns:xlink="http://www.w3.org/1999/xlink" x="0px" y="0px"
	 viewBox="0 0 350 350" style="enable-background:new 0 0 350 350;" xml:space="preserve">
<g id="XMLID_1356_">
	<path id="XMLID_1357_" style="fill:#FF5023;" d="M255,30c-33.59,0-63.107,17.434-80,43.745C158.107,47.434,128.59,30,95,30
		C42.533,30,0,72.533,0,125c0,62.001,46,96.667,92,132.667C132.954,289.718,175,320,175,320s42.047-30.282,83-62.333
		c46-36,92-70.666,92-132.667C350,72.533,307.467,30,255,30z"/>
	<path id="XMLID_1358_" style="fill:#D80027;" d="M175,73.745C158.107,47.434,128.59,30,95,30C42.533,30,0,72.533,0,125
		c0,62.001,46,96.667,92,132.667C132.954,289.718,175,320,175,320S175,154,175,73.745z"/>
</g>
<g>
</g>
<g>
</g>
<g>
</g>
<g>
</g>
<g>
</g>
<g>
</g>
<g>
</g>
<g>
</g>
<g>
</g>
<g>
</g>
<g>
</g>
<g>
</g>
<g>
</g>
<g>
</g>
<g>
</g>
</svg>
