<?xml version="1.0" encoding="iso-8859-1"?>
<!-- Generator: Adobe Illustrator 19.0.0, SVG Export Plug-In . SVG Version: 6.00 Build 0)  -->
<svg version="1.1" id="Capa_1" xmlns="http://www.w3.org/2000/svg" xmlns:xlink="http://www.w3.org/1999/xlink" x="0px" y="0px"
	 viewBox="0 0 413.598 413.598" style="enable-background:new 0 0 413.598 413.598;" xml:space="preserve">
<g id="XMLID_1_">
	<g id="XMLID_1429_">
		<path id="XMLID_124_" style="fill:#00A1A7;" d="M130.911,0.722C111.76,4.188,98.543,19.15,93.598,36.794
			c-2.482,8.854-2.866,31.837-2.311,58.05c-0.008,0.013,29.796,26.222,29.796,26.222s-29.083-2.38-29.086-2.368
			c1.597,42.911,4.677,85.831,4.677,85.831l79.966,48.754C176.64,253.282,139.641,48.938,130.911,0.722z"/>
		<path id="XMLID_123_" style="fill:#00D7DF;" d="M130.911,0.722c19.15-3.468,36.774,5.91,47.592,20.699
			c5.43,7.422,13.848,28.811,22.519,53.555c0.012,0.009-18.711,35.004-18.711,35.004s26.402-12.426,26.409-12.416
			c13.551,40.746,25.715,82.021,25.715,82.021l-57.795,73.697C176.64,253.282,139.641,48.938,130.911,0.722z"/>
	</g>
	<g id="XMLID_1430_">
		<polygon id="XMLID_121_" style="fill:#FFD6A0;" points="322.533,115.235 290.19,44.536 243.029,106.345 282.04,117.415 		"/>
		<polygon id="XMLID_120_" style="fill:#FFC170;" points="322.533,115.235 290.19,44.536 282.781,110.79 		"/>
		<polygon id="XMLID_119_" style="fill:#FF5023;" points="306.974,254.368 322.533,115.235 243.029,106.345 227.47,245.477 
			267.222,249.923 		"/>
		
			<rect id="XMLID_118_" x="224.877" y="162.579" transform="matrix(-0.1111 0.9938 -0.9938 -0.1111 509.0978 -90.1797)" style="fill:#D80027;" width="140" height="40"/>
		<polygon id="XMLID_117_" points="303.151,72.819 290.19,44.536 271.303,69.258 		"/>
	</g>
	<g id="XMLID_99_">
		<polygon id="XMLID_1432_" style="fill:#818085;" points="163.545,63.598 163.545,122.264 207.545,122.264 207.545,63.598 
			185.545,63.598 		"/>
		<rect id="XMLID_1433_" x="163.545" y="63.598" style="fill:#565659;" width="22" height="58.666"/>
		<polygon id="XMLID_1434_" style="fill:#ACABB1;" points="141.545,92.931 141.545,273.598 229.545,273.598 229.545,92.931 
			185.545,92.931 		"/>
		<rect id="XMLID_1435_" x="141.545" y="92.931" style="fill:#818085;" width="44" height="180.667"/>
		<rect id="XMLID_1436_" x="141.545" y="122.264" style="fill:#565659;" width="110" height="29.334"/>
		<rect id="XMLID_1437_" x="141.545" y="122.264" width="44" height="29.334"/>
		<rect id="XMLID_1438_" x="229.545" y="122.264" width="22" height="110.001"/>
	</g>
	<rect id="XMLID_1431_" x="111.545" y="223.598" style="fill:#F2F2F3;" width="200" height="190"/>
	<rect id="XMLID_1439_" x="111.545" y="223.598" style="fill:#DEDDE0;" width="100" height="190"/>
	<rect id="XMLID_1440_" x="111.545" y="213.598" style="fill:#CDCDD0;" width="200" height="40"/>
	<rect id="XMLID_1441_" x="111.545" y="213.598" style="fill:#BDBCC1;" width="100" height="40"/>
	<rect id="XMLID_1442_" x="111.545" y="373.598" style="fill:#CDCDD0;" width="200" height="40"/>
	<rect id="XMLID_1443_" x="111.545" y="373.598" style="fill:#BDBCC1;" width="100" height="40"/>
</g>
<g>
</g>
<g>
</g>
<g>
</g>
<g>
</g>
<g>
</g>
<g>
</g>
<g>
</g>
<g>
</g>
<g>
</g>
<g>
</g>
<g>
</g>
<g>
</g>
<g>
</g>
<g>
</g>
<g>
</g>
</svg>
