<?xml version="1.0" encoding="iso-8859-1"?>
<!-- Generator: Adobe Illustrator 19.0.0, SVG Export Plug-In . SVG Version: 6.00 Build 0)  -->
<svg version="1.1" id="Capa_1" xmlns="http://www.w3.org/2000/svg" xmlns:xlink="http://www.w3.org/1999/xlink" x="0px" y="0px"
	 viewBox="0 0 390 390" style="enable-background:new 0 0 390 390;" xml:space="preserve">
<g id="XMLID_245_">
	<path id="XMLID_307_" style="fill:#F2F2F3;" d="M195,0c-33.137,0-60,26.863-60,60v180l60,10l60-10V60C255,26.863,228.137,0,195,0z"
		/>
	<polygon id="XMLID_308_" style="fill:#DEDDE0;" points="155,290 155,390 235,340 235,290 195,280 	"/>
	<polygon id="XMLID_309_" style="fill:#ACABB1;" points="155,360 155,390 235,340 235,310 	"/>
	<path id="XMLID_311_" style="fill:#DEDDE0;" d="M195,0c-33.137,0-60,26.863-60,60v180h60C195,240,195,63,195,0z"/>
	<polygon id="XMLID_312_" style="fill:#818085;" points="195,240 135,240 155,290 195,290 235,290 255,240 	"/>
	<polygon id="XMLID_333_" style="fill:#565659;" points="195,290 195,240 135,240 155,290 	"/>
	<rect id="XMLID_334_" x="135" y="70" style="fill:#818085;" width="120" height="40"/>
	<rect id="XMLID_337_" x="135" y="70" style="fill:#565659;" width="60" height="40"/>
</g>
<g>
</g>
<g>
</g>
<g>
</g>
<g>
</g>
<g>
</g>
<g>
</g>
<g>
</g>
<g>
</g>
<g>
</g>
<g>
</g>
<g>
</g>
<g>
</g>
<g>
</g>
<g>
</g>
<g>
</g>
</svg>
