<?xml version="1.0" encoding="iso-8859-1"?>
<!-- Generator: Adobe Illustrator 19.0.0, SVG Export Plug-In . SVG Version: 6.00 Build 0)  -->
<svg version="1.1" id="Capa_1" xmlns="http://www.w3.org/2000/svg" xmlns:xlink="http://www.w3.org/1999/xlink" x="0px" y="0px"
	 viewBox="0 0 340 340" style="enable-background:new 0 0 340 340;" xml:space="preserve">
<g id="XMLID_1560_">
	<g id="XMLID_1561_">
		<polygon id="XMLID_127_" style="fill:#F2F2F3;" points="5.001,340 5.001,0 215.001,0 265.001,49.997 265.001,340 		"/>
		<polygon id="XMLID_126_" style="fill:#DEDDE0;" points="4.999,340 4.999,0 134.999,0 134.999,270.002 35.001,340 		"/>
		<polygon id="XMLID_1562_" style="fill:#818085;" points="215.001,0 215.001,50 265.001,50 		"/>
	</g>
	<g id="XMLID_1563_">
		
			<rect id="XMLID_123_" x="42.323" y="37.323" transform="matrix(0.7071 0.7071 -0.7071 0.7071 56.4664 -26.3181)" style="fill:#00D7DF;" width="35.356" height="35.355"/>
		<polygon id="XMLID_122_" style="fill:#00A1A7;" points="60.001,80 35.001,54.999 60.001,30 		"/>
	</g>
	<g id="XMLID_1564_">
		<rect id="XMLID_1565_" x="35.001" y="90" style="fill:#ACABB1;" width="50" height="20"/>
		<rect id="XMLID_1566_" x="35.001" y="90" style="fill:#818085;" width="25" height="20"/>
	</g>
	<g id="XMLID_1567_">
		<rect id="XMLID_1568_" x="215.001" y="218.422" style="fill:#616064;" width="120" height="121.578"/>
		<polygon id="XMLID_1569_" points="225.001,340 145.001,340 115.001,310 115.001,218.422 225.001,218.422 		"/>
		<polygon id="XMLID_1570_" style="fill:#616064;" points="225.001,131.579 115.001,218.422 335.001,218.422 		"/>
		<polygon id="XMLID_1571_" style="fill:#ACABB1;" points="225.001,131.579 225.001,218.422 335.001,218.422 		"/>
		<polygon id="XMLID_1572_" style="fill:#99EFF2;" points="132.369,218.422 225.001,146.332 317.632,218.422 225.001,287.895 		"/>
		<polygon id="XMLID_1573_" style="fill:#00D7DF;" points="132.369,218.422 225.001,146.332 225.001,218.422 		"/>
		<polygon id="XMLID_1574_" style="fill:#00D7DF;" points="132.369,218.422 225.001,290.511 317.632,218.422 		"/>
		<polygon id="XMLID_1575_" style="fill:#00A1A7;" points="132.369,218.422 225.001,290.511 225.001,218.422 		"/>
	</g>
	<g id="XMLID_1576_">
		
			<rect id="XMLID_99_" x="269.394" y="294.394" transform="matrix(0.7071 0.7071 -0.7071 0.7071 297.6917 -108.6576)" style="fill:#FFFFFF;" width="21.214" height="21.212"/>
		<polygon id="XMLID_98_" style="fill:#DEDDE0;" points="280.001,320 265.001,304.999 280.001,290 		"/>
	</g>
	<rect id="XMLID_1577_" x="35.001" y="270" style="fill:#F2F2F3;" width="110" height="70"/>
	<g id="XMLID_1578_">
		
			<rect id="XMLID_95_" x="75.859" y="290.858" transform="matrix(0.7071 0.7071 -0.7071 0.7071 242.0352 25.6959)" style="fill:#00D7DF;" width="28.285" height="28.284"/>
		<polygon id="XMLID_94_" style="fill:#00A1A7;" points="90.001,325 70.001,304.999 90.001,285 		"/>
	</g>
</g>
<g>
</g>
<g>
</g>
<g>
</g>
<g>
</g>
<g>
</g>
<g>
</g>
<g>
</g>
<g>
</g>
<g>
</g>
<g>
</g>
<g>
</g>
<g>
</g>
<g>
</g>
<g>
</g>
<g>
</g>
</svg>
