<?xml version="1.0" encoding="iso-8859-1"?>
<!-- Generator: Adobe Illustrator 19.0.0, SVG Export Plug-In . SVG Version: 6.00 Build 0)  -->
<svg version="1.1" id="Capa_1" xmlns="http://www.w3.org/2000/svg" xmlns:xlink="http://www.w3.org/1999/xlink" x="0px" y="0px"
	 viewBox="0 0 350.001 350.001" style="enable-background:new 0 0 350.001 350.001;" xml:space="preserve">
<g id="XMLID_1588_">
	<polygon id="XMLID_1589_" style="fill:#00D7DF;" points="315,350.001 155.001,350.001 155.001,80 295.003,10.001 315,10.001 	"/>
	<rect id="XMLID_1590_" x="225.001" y="260" style="fill:#DEDDE0;" width="70" height="70"/>
	<polygon id="XMLID_1591_" style="fill:#00A1A7;" points="175.001,350.001 35,350.001 35,10.001 55,10.001 175.001,80 	"/>
	<polygon id="XMLID_117_" style="fill:#F2F2F3;" points="55.001,10 55.001,330 245.001,330 295.001,280.003 295.001,10 	"/>
	<rect id="XMLID_116_" x="55" y="10" style="fill:#DEDDE0;" width="120" height="320"/>
	<polygon id="XMLID_1592_" style="fill:#CDCDD0;" points="245.001,330 245.001,280 295.001,280 	"/>
	<g id="XMLID_1593_">
		<circle id="XMLID_114_" style="fill:#00A1A7;" cx="100.001" cy="35" r="15"/>
		<rect id="XMLID_113_" x="90.001" style="fill:#616064;" width="20" height="40"/>
		<circle id="XMLID_112_" style="fill:#00A1A7;" cx="150.001" cy="35" r="15"/>
		<rect id="XMLID_111_" x="140.001" style="fill:#616064;" width="20" height="40"/>
		<circle id="XMLID_101_" style="fill:#00D7DF;" cx="200.001" cy="35" r="15"/>
		<rect id="XMLID_100_" x="190.001" style="fill:#ACABB1;" width="20" height="40"/>
		<circle id="XMLID_99_" style="fill:#00D7DF;" cx="250.001" cy="35" r="15"/>
		<rect id="XMLID_98_" x="240.001" style="fill:#ACABB1;" width="20" height="40"/>
	</g>
	<g id="XMLID_1594_">
		<polygon id="XMLID_1595_" style="fill:#786145;" points="210.001,160 185.485,196.774 150.001,140 100.001,220 250.001,220 		"/>
		<polygon id="XMLID_1596_" style="fill:#282017;" points="175.085,180.133 150.001,140 100.001,220 175.085,220 		"/>
		<circle id="XMLID_1597_" style="fill:#FFDA44;" cx="195.001" cy="125" r="15"/>
	</g>
</g>
<g>
</g>
<g>
</g>
<g>
</g>
<g>
</g>
<g>
</g>
<g>
</g>
<g>
</g>
<g>
</g>
<g>
</g>
<g>
</g>
<g>
</g>
<g>
</g>
<g>
</g>
<g>
</g>
<g>
</g>
</svg>
