<?xml version="1.0" encoding="iso-8859-1"?>
<!-- Generator: Adobe Illustrator 19.0.0, SVG Export Plug-In . SVG Version: 6.00 Build 0)  -->
<svg version="1.1" id="Capa_1" xmlns="http://www.w3.org/2000/svg" xmlns:xlink="http://www.w3.org/1999/xlink" x="0px" y="0px"
	 viewBox="0 0 390 390" style="enable-background:new 0 0 390 390;" xml:space="preserve">
<g id="XMLID_1627_">
	<path id="XMLID_101_" style="fill:#282017;" d="M144,350h94c25.957,0,47-21.043,47-47V87c0-25.959-21.043-47-47-47h-94V350z"/>
	<path id="XMLID_1628_" style="fill:#FFFFFF;" d="M174,320V70h64c9.374,0,17,7.626,17,17v216c0,9.374-7.626,17-17,17H174z"/>
	<polygon id="XMLID_1629_" style="fill:#A0815C;" points="225,350 165,360 105,350 105,40 165,30 225,40 	"/>
	<polygon id="XMLID_1630_" style="fill:#786145;" points="165,360 105,350 105,40 165,30 	"/>
	<rect id="XMLID_1631_" x="135" y="160" style="fill:#FFFFFF;" width="60" height="70"/>
	<rect id="XMLID_1632_" x="105" style="fill:#F2F2F3;" width="120" height="40"/>
	<rect id="XMLID_1633_" x="105" style="fill:#DEDDE0;" width="60" height="40"/>
	<rect id="XMLID_1634_" x="105" y="350" style="fill:#F2F2F3;" width="120" height="40"/>
	<rect id="XMLID_1635_" x="105" y="350" style="fill:#DEDDE0;" width="60" height="40"/>
</g>
<g>
</g>
<g>
</g>
<g>
</g>
<g>
</g>
<g>
</g>
<g>
</g>
<g>
</g>
<g>
</g>
<g>
</g>
<g>
</g>
<g>
</g>
<g>
</g>
<g>
</g>
<g>
</g>
<g>
</g>
</svg>
