<?xml version="1.0" encoding="iso-8859-1"?>
<!-- Generator: Adobe Illustrator 19.0.0, SVG Export Plug-In . SVG Version: 6.00 Build 0)  -->
<svg version="1.1" id="Capa_1" xmlns="http://www.w3.org/2000/svg" xmlns:xlink="http://www.w3.org/1999/xlink" x="0px" y="0px"
	 viewBox="0 0 400 400" style="enable-background:new 0 0 400 400;" xml:space="preserve">
<g id="XMLID_1636_">
	<path id="XMLID_1637_" style="fill:#FFAD41;" d="M150,95.501c0,0-20,4.499,0,74.499c0,0-10,100,20,80l10-90L150,95.501z"/>
	<path id="XMLID_1638_" style="fill:#FFC170;" d="M250,95.501c0,0,20,4.499,0,74.499c0,0,10,100-20,80l-10-90L250,95.501z"/>
	<path id="XMLID_1639_" style="fill:#FFD6A0;" d="M230,340v-48.333l10-55L200,230l-40,6.667l10,55V340c-20.001,0-20,20-20,20l50,10
		l50-10C250,360,250,340,230,340z"/>
	<path id="XMLID_1640_" style="fill:#FFC170;" d="M160,236.667l10,55V340c-20,0-20,20-20,20h50V236.667H160z"/>
	<circle id="XMLID_1641_" style="fill:#FFD6A0;" cx="185" cy="291.667" r="15"/>
	<circle id="XMLID_1642_" style="fill:#FFEACF;" cx="215" cy="291.667" r="15"/>
	<rect id="XMLID_1643_" x="130" y="360" style="fill:#786145;" width="140" height="40"/>
	<rect id="XMLID_1644_" x="130" y="360" style="fill:#282017;" width="70" height="40"/>
	<path id="XMLID_1645_" style="fill:#FFD6A0;" d="M230,175l-30-5l-30,5c0,0-10,21.667-10,61.667h40h40C240,196.667,230,175,230,175z
		"/>
	<path id="XMLID_1646_" style="fill:#FFEACF;" d="M230,175c0,0,10,21.667,10,61.667h-40V175H230z"/>
	<rect id="XMLID_1647_" x="180" y="70" style="fill:#FFC170;" width="20" height="30"/>
	<rect id="XMLID_1648_" x="200" y="70" style="fill:#FFD6A0;" width="20" height="30"/>
	<path id="XMLID_1649_" style="fill:#FFC170;" d="M200,86.667c-40,0-50,8.834-50,8.834L170,175h30h30l20-79.499
		C250,95.501,240,86.667,200,86.667z"/>
	<path id="XMLID_1650_" style="fill:#FFD6A0;" d="M250,95.501c0,0-10-8.834-50-8.834V175h30L250,95.501z"/>
	<g id="XMLID_1651_">
		<path id="XMLID_1652_" style="fill:#FFEACF;" d="M240,66.667V40c0-22.092-17.908-40-40-40c0,0.889-8.889,17.908-8.889,40L200,90
			L240,66.667z"/>
		<path id="XMLID_1653_" style="fill:#FFAD41;" d="M200,90c0,0,0-72.445,0-90c-22.092,0-40,17.908-40,40v26.667L200,90z"/>
	</g>
</g>
<g>
</g>
<g>
</g>
<g>
</g>
<g>
</g>
<g>
</g>
<g>
</g>
<g>
</g>
<g>
</g>
<g>
</g>
<g>
</g>
<g>
</g>
<g>
</g>
<g>
</g>
<g>
</g>
<g>
</g>
</svg>
