<?xml version="1.0" encoding="utf-8"?>
<!-- Generator: Adobe Illustrator 18.0.0, SVG Export Plug-In . SVG Version: 6.00 Build 0)  -->
<!DOCTYPE svg PUBLIC "-//W3C//DTD SVG 1.1//EN" "http://www.w3.org/Graphics/SVG/1.1/DTD/svg11.dtd">
<svg version="1.1" id="Layer_1" xmlns="http://www.w3.org/2000/svg" xmlns:xlink="http://www.w3.org/1999/xlink" x="0px" y="0px"
	 viewBox="0 0 44 44" enable-background="new 0 0 44 44" xml:space="preserve">
<g id="aperturesvg">
	<path id="path-1" d="M22,44C9.9,44,0,34.2,0,22S9.9,0,22,0s22,9.9,22,22S34.2,44,22,44z M13,39.8c2.7,1.4,5.8,2.2,9,2.2
		c7,0,13.1-3.6,16.7-9H13V39.8z M11,38.7V33v-2V20l-8.4,6.8C3.8,31.7,6.8,35.9,11,38.7z M2,22c0,0.8,0.1,1.7,0.2,2.5L21.3,9.2l-6-6
		C7.6,5.9,2,13.3,2,22z M32,4.7C29.1,3,25.6,2,22,2c-1.6,0-3.1,0.2-4.5,0.5L32,17V4.7z M32,19.9l-9.3-9.3L13,18.4V31h19V19.9z M34,6
		v25h5.8c1.4-2.7,2.2-5.8,2.2-9C42,15.5,38.8,9.7,34,6z"/>
	<path id="path-2" opacity="0.25" d="M12,17.8L22.7,9L33,19.5V32H12V17.8z"/>
</g>
</svg>
