<?xml version="1.0" encoding="utf-8"?>
<!-- Generator: Adobe Illustrator 18.0.0, SVG Export Plug-In . SVG Version: 6.00 Build 0)  -->
<!DOCTYPE svg PUBLIC "-//W3C//DTD SVG 1.1//EN" "http://www.w3.org/Graphics/SVG/1.1/DTD/svg11.dtd">
<svg version="1.1" id="Layer_1" xmlns="http://www.w3.org/2000/svg" xmlns:xlink="http://www.w3.org/1999/xlink" x="0px" y="0px"
	 viewBox="0 0 44 44" enable-background="new 0 0 44 44" xml:space="preserve">
<g id="brightness-contrastsvg">
	<path id="path-1" d="M22,34c-6.6,0-12-5.4-12-12s5.4-12,12-12s12,5.4,12,12S28.6,34,22,34z M22,12c-5.5,0-10,4.5-10,10
		s4.5,10,10,10s10-4.5,10-10S27.5,12,22,12z"/>
	<path id="path-2" opacity="0.25" d="M10,22c0-6.6,5.4-12,12-12v24C15.4,34,10,28.6,10,22z"/>
	<path id="path-3" d="M43,23h-6c-0.6,0-1-0.4-1-1s0.4-1,1-1h6c0.6,0,1,0.4,1,1S43.6,23,43,23z M33.3,12.1c-0.4,0.4-1,0.4-1.4,0
		c-0.4-0.4-0.4-1,0-1.4l4.2-4.2c0.4-0.4,1-0.4,1.4,0c0.4,0.4,0.4,1,0,1.4L33.3,12.1z M22,44c-0.6,0-1-0.4-1-1v-6c0-0.6,0.4-1,1-1
		s1,0.4,1,1v6C23,43.6,22.6,44,22,44z M22,8c-0.6,0-1-0.4-1-1V1c0-0.6,0.4-1,1-1s1,0.4,1,1v6C23,7.6,22.6,8,22,8z M7.9,37.6
		c-0.4,0.4-1,0.4-1.4,0c-0.4-0.4-0.4-1,0-1.4l4.2-4.2c0.4-0.4,1-0.4,1.4,0c0.4,0.4,0.4,1,0,1.4L7.9,37.6z M10.7,12.1L6.4,7.9
		c-0.4-0.4-0.4-1,0-1.4c0.4-0.4,1-0.4,1.4,0l4.2,4.2c0.4,0.4,0.4,1,0,1.4C11.7,12.5,11.1,12.5,10.7,12.1z M8,22c0,0.6-0.4,1-1,1H1
		c-0.6,0-1-0.4-1-1s0.4-1,1-1h6C7.6,21,8,21.4,8,22z M33.3,31.9l4.2,4.2c0.4,0.4,0.4,1,0,1.4c-0.4,0.4-1,0.4-1.4,0l-4.2-4.2
		c-0.4-0.4-0.4-1,0-1.4C32.3,31.5,32.9,31.5,33.3,31.9z"/>
</g>
</svg>
