<?xml version="1.0" encoding="utf-8"?>
<!-- Generator: Adobe Illustrator 18.0.0, SVG Export Plug-In . SVG Version: 6.00 Build 0)  -->
<!DOCTYPE svg PUBLIC "-//W3C//DTD SVG 1.1//EN" "http://www.w3.org/Graphics/SVG/1.1/DTD/svg11.dtd">
<svg version="1.1" id="Layer_1" xmlns="http://www.w3.org/2000/svg" xmlns:xlink="http://www.w3.org/1999/xlink" x="0px" y="0px"
	 viewBox="0 0 44 31" enable-background="new 0 0 44 31" xml:space="preserve">
<g id="camerasvg">
	<path id="path-1" d="M40,31H4c-2.2,0-4-1.8-4-4V5c0-2.2,1.8-4,4-4h2c0-0.6,0.4-1,1-1h2c0.6,0,1,0.4,1,1h30c2.2,0,4,1.8,4,4v22
		C44,29.2,42.2,31,40,31z M42,5c0-1.1-0.9-2-2-2H4C2.9,3,2,3.9,2,5v22c0,1.1,0.9,2,2,2h36c1.1,0,2-0.9,2-2V5z M28,27
		c-6.1,0-11-4.9-11-11S21.9,5,28,5s11,4.9,11,11S34.1,27,28,27z M28,7c-5,0-9,4-9,9s4,9,9,9s9-4,9-9S33,7,28,7z M15.5,8
		C14.7,8,14,7.3,14,6.5S14.7,5,15.5,5C16.3,5,17,5.7,17,6.5S16.3,8,15.5,8z M9,27c-0.6,0-1-0.4-1-1V6c0-0.6,0.4-1,1-1s1,0.4,1,1v20
		C10,26.6,9.6,27,9,27z"/>
	<path id="path-2" opacity="0.25" d="M28,23c-3.9,0-7-3.1-7-7s3.1-7,7-7s7,3.1,7,7S31.9,23,28,23z M29.5,12c-0.8,0-1.5,0.7-1.5,1.5
		s0.7,1.5,1.5,1.5s1.5-0.7,1.5-1.5S30.3,12,29.5,12z"/>
</g>
</svg>
