<?xml version="1.0" encoding="utf-8"?>
<!-- Generator: Adobe Illustrator 18.0.0, SVG Export Plug-In . SVG Version: 6.00 Build 0)  -->
<!DOCTYPE svg PUBLIC "-//W3C//DTD SVG 1.1//EN" "http://www.w3.org/Graphics/SVG/1.1/DTD/svg11.dtd">
<svg version="1.1" id="Layer_1" xmlns="http://www.w3.org/2000/svg" xmlns:xlink="http://www.w3.org/1999/xlink" x="0px" y="0px"
	 viewBox="0 0 44 23" enable-background="new 0 0 44 23" xml:space="preserve">
<g id="camera-shakesvg">
	<path id="path-1" d="M22.1,2c0.6,0,1,0.5,1,1v8h1V4.8c0-0.6,0.4-0.9,1-0.9c0.6,0,1,0.4,1,0.9V14h1v-3.9c0-0.6,0.5-1.2,1-1.2
		c0.6,0,1,0.6,1,1.2v4.7c0,0.1,0,0.1,0,0.2c-0.3,3.3-3.3,6-7,6c-3.9,0-7-2.9-7-6.5h0v-0.3l0-7.1c0-0.6,0.4-1.1,1-1.1
		c0.6,0,1,0.6,1,1.1V11h1V4c0-0.6,0.4-1.1,1-1.1c0.6,0,1,0.6,1,1.1V11h1V3C21,2.4,21.5,2,22.1,2 M22.1,0c-0.9,0-1.8,0.4-2.3,1
		C19.5,1,19.3,1,19.1,1c-1.7,0-3,1.4-3,3.1v0c0,0,0,0,0,0c-1.6,0-3,1.4-3,3.1l0,7.1v0.3c0,4.6,4,8.4,9,8.4c4.6,0,8.5-3.4,9-7.6
		c0-0.2,0-0.3,0-0.5v-4.7c0-1.7-1.3-3.1-3-3.1c0,0,0,0,0,0V4.8c0-1.6-1.3-2.9-3-2.9c-0.1,0-0.1,0-0.2,0C24.5,0.8,23.4,0,22.1,0
		L22.1,0z"/>
	<path id="path-2" d="M9.5,6.7c-1.6,1.2-2.6,3-2.6,4.8s0.9,3.6,2.6,4.8c0.4,0.3,0.5,1,0.2,1.4c-0.2,0.3-0.5,0.4-0.8,0.4
		c-0.2,0-0.4-0.1-0.6-0.2c-2.1-1.6-3.4-3.9-3.4-6.5C4.9,9,6.2,6.6,8.3,5c0.4-0.3,1.1-0.2,1.4,0.2C10,5.7,9.9,6.4,9.5,6.7z M6.5,2.9
		C3.6,5.1,2,8.2,2,11.5c0,3.3,1.7,6.4,4.5,8.6c0.4,0.3,0.5,1,0.2,1.4c-0.2,0.3-0.5,0.4-0.8,0.4c-0.2,0-0.4-0.1-0.6-0.2
		C1.9,19.2,0,15.5,0,11.5s2-7.7,5.4-10.2C5.8,0.9,6.4,1,6.7,1.5C7.1,2,7,2.6,6.5,2.9z"/>
	<path id="path-3" d="M38.7,21.8c-0.4,0.3-1.1,0.2-1.4-0.2c-0.3-0.5-0.2-1.1,0.2-1.4c2.9-2.2,4.6-5.3,4.6-8.6c0-3.3-1.7-6.5-4.6-8.6
		c-0.4-0.3-0.5-1-0.2-1.4C37.5,1.2,37.8,1,38.1,1c0.2,0,0.4,0.1,0.6,0.2c3.4,2.5,5.4,6.3,5.4,10.3S42.1,19.3,38.7,21.8z M39.1,11.5
		c0,2.5-1.2,4.9-3.4,6.5c-0.4,0.3-1.1,0.2-1.4-0.2c-0.3-0.5-0.2-1.1,0.2-1.4c1.6-1.2,2.6-3,2.6-4.8c0-1.9-0.9-3.6-2.6-4.8
		c-0.4-0.3-0.5-1-0.2-1.4c0.2-0.3,0.5-0.4,0.8-0.4c0.2,0,0.4,0.1,0.6,0.2C37.8,6.6,39.1,9,39.1,11.5z"/>
</g>
</svg>
