<?xml version="1.0" encoding="utf-8"?>
<!-- Generator: Adobe Illustrator 18.0.0, SVG Export Plug-In . SVG Version: 6.00 Build 0)  -->
<!DOCTYPE svg PUBLIC "-//W3C//DTD SVG 1.1//EN" "http://www.w3.org/Graphics/SVG/1.1/DTD/svg11.dtd">
<svg version="1.1" id="Layer_1" xmlns="http://www.w3.org/2000/svg" xmlns:xlink="http://www.w3.org/1999/xlink" x="0px" y="0px"
	 viewBox="0 0 43 34" enable-background="new 0 0 43 34" xml:space="preserve">
<g id="continuous-shootingsvg">
	<path id="path-1" d="M41,34H16c-1.1,0-2-0.9-2-2v-2H9c-1.1,0-2-0.9-2-2v-2H2c-1.1,0-2-0.9-2-2V2c0-1.1,0.9-2,2-2h31
		c1.1,0,2,0.9,2,2v2v2v18c0,1.1-0.9,2-2,2H9v2h28V6V4c1.1,0,2,0.9,2,2v2v2v18c0,1.1-0.9,2-2,2H16v2h25V10V8c1.1,0,2,0.9,2,2v22
		C43,33.1,42.1,34,41,34z M33,24V2H2v22H33z"/>
	<rect id="rect-1" x="2" y="2" opacity="0.25" width="31" height="22"/>
</g>
</svg>
