<?xml version="1.0" encoding="utf-8"?>
<!-- Generator: Adobe Illustrator 18.0.0, SVG Export Plug-In . SVG Version: 6.00 Build 0)  -->
<!DOCTYPE svg PUBLIC "-//W3C//DTD SVG 1.1//EN" "http://www.w3.org/Graphics/SVG/1.1/DTD/svg11.dtd">
<svg version="1.1" id="Layer_1" xmlns="http://www.w3.org/2000/svg" xmlns:xlink="http://www.w3.org/1999/xlink" x="0px" y="0px"
	 viewBox="0 0 44 41" enable-background="new 0 0 44 41" xml:space="preserve">
<g id="effectssvg">
	<path id="path-1" d="M44,28c0,7.2-5.8,13-13,13c-3.5,0-6.7-1.4-9-3.6c-2.3,2.2-5.5,3.6-9,3.6C5.8,41,0,35.2,0,28
		c0-5.9,3.9-10.8,9.3-12.4C9.1,14.7,9,13.9,9,13C9,5.8,14.8,0,22,0s13,5.8,13,13c0,0.9-0.1,1.7-0.3,2.6C40.1,17.2,44,22.1,44,28z
		 M2,28c0,6.1,4.9,11,11,11c3,0,5.7-1.2,7.7-3.1C19,33.7,18,31,18,28c0-0.9,0.1-1.7,0.3-2.6c-3.9-1.2-7-4.2-8.4-8
		C5.3,18.8,2,23,2,28z M22,2c-6.1,0-11,4.9-11,11c0,5,3.3,9.2,7.8,10.5c1.8-5,6.6-8.5,12.2-8.5c0.6,0,1.2,0.1,1.8,0.1
		c0.1-0.7,0.2-1.4,0.2-2.1C33,6.9,28.1,2,22,2z M31,17c-6.1,0-11,4.9-11,11s4.9,11,11,11s11-4.9,11-11S37.1,17,31,17z"/>
	<circle id="circle-1" opacity="0.15" cx="31" cy="28" r="13"/>
	<circle id="circle-2" opacity="0.15" cx="22" cy="13" r="13"/>
	<circle id="circle-3" opacity="0.15" cx="13" cy="28" r="13"/>
</g>
</svg>
