<?xml version="1.0" encoding="utf-8"?>
<!-- Generator: Adobe Illustrator 18.0.0, SVG Export Plug-In . SVG Version: 6.00 Build 0)  -->
<!DOCTYPE svg PUBLIC "-//W3C//DTD SVG 1.1//EN" "http://www.w3.org/Graphics/SVG/1.1/DTD/svg11.dtd">
<svg version="1.1" id="Layer_1" xmlns="http://www.w3.org/2000/svg" xmlns:xlink="http://www.w3.org/1999/xlink" x="0px" y="0px"
	 viewBox="0 0 40 40" enable-background="new 0 0 40 40" xml:space="preserve">
<g id="exposuresvg">
	<path id="path-1" d="M36,40H4c-2.2,0-4-1.8-4-4V4c0-2.2,1.8-4,4-4h32c2.2,0,4,1.8,4,4v32C40,38.2,38.2,40,36,40z M38,4
		c0-1.1-0.9-2-2-2H4C2.9,2,2,2.9,2,4v32c0,1.1,0.9,2,2,2h32c1.1,0,2-0.9,2-2V4z M34,31h-9c-0.6,0-1-0.4-1-1v-1c0-0.6,0.4-1,1-1h9
		c0.6,0,1,0.4,1,1v1C35,30.6,34.6,31,34,31z"/>
	<path id="path-2" opacity="0.25" d="M2,38L38,2v36H2z M35,29c0-0.6-0.4-1-1-1h-9c-0.6,0-1,0.4-1,1v1c0,0.6,0.4,1,1,1h9
		c0.6,0,1-0.4,1-1V29z"/>
	<path id="path-3" d="M16,13h-3v3c0,0.6-0.4,1-1,1h-1c-0.6,0-1-0.4-1-1v-3H7c-0.6,0-1-0.4-1-1v-1c0-0.6,0.4-1,1-1h3V7
		c0-0.6,0.4-1,1-1h1c0.6,0,1,0.4,1,1v3h3c0.6,0,1,0.4,1,1v1C17,12.6,16.6,13,16,13z"/>
</g>
</svg>
