<?xml version="1.0" encoding="utf-8"?>
<!-- Generator: Adobe Illustrator 18.0.0, SVG Export Plug-In . SVG Version: 6.00 Build 0)  -->
<!DOCTYPE svg PUBLIC "-//W3C//DTD SVG 1.1//EN" "http://www.w3.org/Graphics/SVG/1.1/DTD/svg11.dtd">
<svg version="1.1" id="Layer_1" xmlns="http://www.w3.org/2000/svg" xmlns:xlink="http://www.w3.org/1999/xlink" x="0px" y="0px"
	 viewBox="0 0 27 44" enable-background="new 0 0 27 44" xml:space="preserve">
<g id="flashsvg">
	<path id="path-1" d="M23.1,2l-6.3,11l-1.7,3h3.4h5L6.7,38.2l3.8-13.6l0.7-2.5H8.6H2.5L11,2H23.1 M24.9,0H10.3c-0.4,0-0.8,0.3-1,0.7
		L0,22.7C-0.2,23.4,0.3,24,1,24h7.6L3.3,42.8c-0.1,0.7,0.4,1.2,1,1.2c0.3,0,0.6-0.1,0.8-0.4l21.3-28c0.5-0.7,0-1.6-0.8-1.6h-7
		l7.2-12.5C26.1,0.8,25.6,0,24.9,0L24.9,0z"/>
</g>
</svg>
