<?xml version="1.0" encoding="utf-8"?>
<!-- Generator: Adobe Illustrator 18.0.0, SVG Export Plug-In . SVG Version: 6.00 Build 0)  -->
<!DOCTYPE svg PUBLIC "-//W3C//DTD SVG 1.1//EN" "http://www.w3.org/Graphics/SVG/1.1/DTD/svg11.dtd">
<svg version="1.1" id="Layer_1" xmlns="http://www.w3.org/2000/svg" xmlns:xlink="http://www.w3.org/1999/xlink" x="0px" y="0px"
	 viewBox="0 0 33 44" enable-background="new 0 0 33 44" xml:space="preserve">
<g id="flash-offsvg">
	<path id="path-1" d="M23.8,40c-5,0-9-4-9-9s4-9,9-9c5,0,9,4,9,9S28.8,40,23.8,40z M16.8,31c0,1.6,0.5,3,1.4,4.2l9.8-9.8
		c-1.2-0.9-2.6-1.4-4.2-1.4C20,24,16.8,27.1,16.8,31z M29.4,26.8l-9.8,9.8c1.2,0.9,2.6,1.4,4.2,1.4c3.9,0,7-3.1,7-7
		C30.8,29.4,30.3,28,29.4,26.8z M23,20c-1.1,0.1-2.1,0.3-3,0.7l3.6-4.7h-5h-3.4l1.7-3l6.3-11H11L2.5,22h6.1h2.6l-0.7,2.5L6.7,38.2
		l6.2-8.2c0,0.3,0,0.6,0,1c0,0.7,0.1,1.4,0.2,2.1l-8,10.5C4.9,43.9,4.6,44,4.3,44c-0.6,0-1.1-0.5-1-1.2L8.6,24H1
		c-0.7,0-1.1-0.7-1-1.3l9.3-22C9.5,0.3,9.9,0,10.3,0h14.5c0.8,0,1.2,0.8,0.9,1.5L18.5,14h7c0.8,0,1.3,0.9,0.8,1.6L23,20z"/>
</g>
</svg>
