<?xml version="1.0" encoding="utf-8"?>
<!-- Generator: Adobe Illustrator 18.0.0, SVG Export Plug-In . SVG Version: 6.00 Build 0)  -->
<!DOCTYPE svg PUBLIC "-//W3C//DTD SVG 1.1//EN" "http://www.w3.org/Graphics/SVG/1.1/DTD/svg11.dtd">
<svg version="1.1" id="Layer_1" xmlns="http://www.w3.org/2000/svg" xmlns:xlink="http://www.w3.org/1999/xlink" x="0px" y="0px"
	 viewBox="0 0 29 44" enable-background="new 0 0 29 44" xml:space="preserve">
<g id="flash-autosvg">
	<path id="path-1" d="M23,20c-1.1,0.1-2.1,0.3-3,0.7l3.6-4.7h-5h-3.4l1.7-3l6.3-11H11L2.5,22h6.1h2.6l-0.7,2.5L6.7,38.2l6.2-8.2
		c0,0.3,0,0.6,0,1c0,0.7,0.1,1.4,0.2,2.1l-8,10.5C4.9,43.9,4.6,44,4.3,44c-0.6,0-1.1-0.5-1-1.2L8.6,24H1c-0.7,0-1.1-0.7-1-1.3
		l9.3-22C9.5,0.3,9.9,0,10.3,0h14.5c0.8,0,1.2,0.8,0.9,1.5L18.5,14h7c0.8,0,1.3,0.9,0.8,1.6L23,20z"/>
	<path id="path-2" d="M24,32l-1.7-4.8h0L20.6,32H24z M23.9,24l5,13h-3l-1-2.9h-5l-1,2.9h-2.9l5-13H23.9z"/>
</g>
</svg>
