<?xml version="1.0" encoding="utf-8"?>
<!-- Generator: Adobe Illustrator 18.0.0, SVG Export Plug-In . SVG Version: 6.00 Build 0)  -->
<!DOCTYPE svg PUBLIC "-//W3C//DTD SVG 1.1//EN" "http://www.w3.org/Graphics/SVG/1.1/DTD/svg11.dtd">
<svg version="1.1" id="Layer_1" xmlns="http://www.w3.org/2000/svg" xmlns:xlink="http://www.w3.org/1999/xlink" x="0px" y="0px"
	 viewBox="0 0 44 39" enable-background="new 0 0 44 39" xml:space="preserve">
<g id="flip-verticalsvg">
	<path id="path-1" d="M42,20v-1h2v1H42z M39,19h2v1h-2V19z M36,19h2v1h-2V19z M37,16H6c-0.6,0-1-0.5-1-1V1c0-0.7,0.8-1.2,1.4-0.9
		L37.4,14C38.4,14.5,38.1,16,37,16z M7,3v11h25L7,3z M3,19h2v1H3V19z M0,19h2v1H0V19z M8,20H6v-1h2V20z M11,20H9v-1h2V20z M14,20h-2
		v-1h2V20z M17,20h-2v-1h2V20z M20,20h-2v-1h2V20z M23,20h-2v-1h2V20z M26,20h-2v-1h2V20z M29,20h-2v-1h2V20z M32,20h-2v-1h2V20z
		 M35,20h-2v-1h2V20z"/>
	<path id="path-2" opacity="0.25" d="M37,23H6c-0.6,0-1,0.5-1,1V38c0,0.7,0.8,1.2,1.4,0.9L37.4,25C38.4,24.5,38.1,23,37,23z"/>
	<path id="path-3" d="M37.4,25L6.4,38.9C5.8,39.2,5,38.7,5,38V24c0-0.6,0.5-1,1-1H37C38.1,23,38.4,24.5,37.4,25z M7,25v11l25-11H7z"
		/>
</g>
</svg>
