<?xml version="1.0" encoding="utf-8"?>
<!-- Generator: Adobe Illustrator 18.0.0, SVG Export Plug-In . SVG Version: 6.00 Build 0)  -->
<!DOCTYPE svg PUBLIC "-//W3C//DTD SVG 1.1//EN" "http://www.w3.org/Graphics/SVG/1.1/DTD/svg11.dtd">
<svg version="1.1" id="Layer_1" xmlns="http://www.w3.org/2000/svg" xmlns:xlink="http://www.w3.org/1999/xlink" x="0px" y="0px"
	 viewBox="0 0 31 44" enable-background="new 0 0 31 44" xml:space="preserve">
<g id="macrosvg">
	<path id="path-1" d="M2,30L2,30c4.4,0,7.8,0.9,9.3,2.4c2,2,2.4,6.6,2.4,9.6c0,0-0.1,0-0.1,0c-4.4,0-7.7-0.9-9.3-2.4
		C2.3,37.6,1.9,32.9,2,30C2,30,2,30,2,30 M2,28c-1.2,0-2,0.1-2,0.1S-0.7,37.3,2.9,41c2.6,2.6,7.8,3,10.6,3c1.2,0,2-0.1,2-0.1
		s0.8-9.2-2.9-12.9C10.1,28.4,4.9,28,2,28L2,28z"/>
	<path id="path-2" d="M29,30L29,30c-4.4,0-7.8,0.9-9.3,2.4c-2,2-2.4,6.6-2.4,9.6c0,0,0.1,0,0.1,0c4.4,0,7.7-0.9,9.3-2.4
		C28.7,37.6,29.1,32.9,29,30C29,30,29,30,29,30 M29,28c1.2,0,2,0.1,2,0.1s0.8,9.2-2.9,12.9c-2.6,2.6-7.8,3-10.6,3
		c-1.2,0-2-0.1-2-0.1s-0.8-9.2,2.9-12.9C20.9,28.4,26.1,28,29,28L29,28z"/>
	<path id="path-3" d="M23.4,20.6L23.4,20.6c-1.9,2.1-4.8,3.4-7.9,3.4c0,0,0,0-0.1,0s0,0-0.1,0c-3.1,0-5.9-1.3-7.9-3.4l0.1-0.1
		c-1.9-2-3-4.6-3-7.6V0l11,11.9L26.5,0v13C26.5,15.9,25.3,18.6,23.4,20.6z M6.5,5.1V13c0,2.3,0.9,4.5,2.4,6.1l5.2-5.7L6.5,5.1z
		 M24.5,5.1l-7.6,8.3l0,0l-6.5,7c1.3,0.9,2.9,1.4,4.5,1.5c0.1,0,0.2,0,0.3,0l0,0c0.1,0,0.2,0,0.3,0c0,0,0,0,0.1,0l0,0
		c0.1,0,0.2,0,0.3,0l0,0c0.6,0,1.2-0.1,1.8-0.2c0,0,0.1,0,0.1,0c0.3-0.1,0.6-0.2,0.9-0.3c0,0,0.1,0,0.1-0.1c0.3-0.1,0.6-0.3,0.9-0.4
		h0c1.2-0.6,2.2-1.5,3-2.5c0,0,0,0,0,0c0.2-0.2,0.3-0.4,0.5-0.7c0,0,0,0,0,0c0.1-0.2,0.3-0.4,0.4-0.7c0,0,0-0.1,0-0.1
		c0.1-0.2,0.2-0.4,0.3-0.6c0-0.1,0-0.1,0.1-0.2c0.1-0.2,0.1-0.4,0.2-0.6c0-0.1,0.1-0.2,0.1-0.3c0-0.2,0.1-0.3,0.1-0.5
		c0-0.2,0-0.3,0.1-0.5c0-0.1,0-0.3,0.1-0.4c0-0.3,0-0.6,0-0.9V5.1z"/>
	<path id="path-4" opacity="0.25" d="M15.5,0l-6,8l6,6l6-6L15.5,0z"/>
	<path id="path-5" d="M15.5,3.3l3.4,4.5l-3.4,3.4l-3.4-3.4L15.5,3.3 M15.5,0l-6,8l6,6l6-6L15.5,0L15.5,0z"/>
	<rect id="rect-1" x="14" y="22" width="2" height="22"/>
</g>
</svg>
