<?xml version="1.0" encoding="utf-8"?>
<!-- Generator: Adobe Illustrator 18.0.0, SVG Export Plug-In . SVG Version: 6.00 Build 0)  -->
<!DOCTYPE svg PUBLIC "-//W3C//DTD SVG 1.1//EN" "http://www.w3.org/Graphics/SVG/1.1/DTD/svg11.dtd">
<svg version="1.1" id="Layer_1" xmlns="http://www.w3.org/2000/svg" xmlns:xlink="http://www.w3.org/1999/xlink" x="0px" y="0px"
	 viewBox="0 0 44 26" enable-background="new 0 0 44 26" xml:space="preserve">
<g id="red-eyesvg">
	<path id="path-1" d="M43.5,14.3C40.5,17.6,32,26,22,26S3.5,17.6,0.5,14.3c-0.7-0.8-0.7-1.9,0-2.6C3.5,8.4,12,0,22,0
		s18.5,8.4,21.5,11.7C44.2,12.4,44.2,13.6,43.5,14.3z M42,13c-3-3.3-10.9-11-20-11c-9.1,0-17,7.7-20,11C2,13,2,13,2,13
		c3,3.3,10.9,11,20,11C31.1,24.1,39,16.3,42,13C42,13,42,13,42,13z M22,22c-5,0-9-4-9-9s4-9,9-9s9,4,9,9S27,22,22,22z M22,6
		c-3.9,0-7,3.1-7,7s3.1,7,7,7s7-3.1,7-7S25.9,6,22,6z"/>
	<circle id="circle-1" opacity="0.25" cx="22" cy="13" r="5"/>
</g>
</svg>
