<?xml version="1.0" encoding="utf-8"?>
<!-- Generator: Adobe Illustrator 18.0.0, SVG Export Plug-In . SVG Version: 6.00 Build 0)  -->
<!DOCTYPE svg PUBLIC "-//W3C//DTD SVG 1.1//EN" "http://www.w3.org/Graphics/SVG/1.1/DTD/svg11.dtd">
<svg version="1.1" id="Layer_1" xmlns="http://www.w3.org/2000/svg" xmlns:xlink="http://www.w3.org/1999/xlink" x="0px" y="0px"
	 viewBox="0 0 44 31" enable-background="new 0 0 44 31" xml:space="preserve">
<g id="rotate-camerasvg">
	<path id="path-1" d="M40,31H4c-2.2,0-4-1.8-4-4V5c0-2.2,1.8-4,4-4h2c0-0.6,0.4-1,1-1h2c0.6,0,1,0.4,1,1h30c2.2,0,4,1.8,4,4v22
		C44,29.2,42.2,31,40,31z M42,5c0-1.1-0.9-2-2-2H4C2.9,3,2,3.9,2,5v22c0,1.1,0.9,2,2,2h36c1.1,0,2-0.9,2-2V5z M33,16h2
		c0-3.9-3.1-7-7-7s-7,3.1-7,7s3.1,7,7,7v2c-5,0-9-4-9-9s4-9,9-9s9,4,9,9h2l-3,4L33,16z M15.5,8C14.7,8,14,7.3,14,6.5S14.7,5,15.5,5
		C16.3,5,17,5.7,17,6.5S16.3,8,15.5,8z M9,27c-0.6,0-1-0.4-1-1V6c0-0.6,0.4-1,1-1s1,0.4,1,1v20C10,26.6,9.6,27,9,27z"/>
</g>
</svg>
