<?xml version="1.0" encoding="utf-8"?>
<!-- Generator: Adobe Illustrator 18.0.0, SVG Export Plug-In . SVG Version: 6.00 Build 0)  -->
<!DOCTYPE svg PUBLIC "-//W3C//DTD SVG 1.1//EN" "http://www.w3.org/Graphics/SVG/1.1/DTD/svg11.dtd">
<svg version="1.1" id="Layer_1" xmlns="http://www.w3.org/2000/svg" xmlns:xlink="http://www.w3.org/1999/xlink" x="0px" y="0px"
	 viewBox="0 0 32 44" enable-background="new 0 0 32 44" xml:space="preserve">
<g id="saturationsvg">
	<path id="path-1" d="M30,44h-6c-1.1,0-2-0.9-2-2v-4v-1v-1v-1V18v-1v-1v-1v-3v-1.2V10h0.1c0.1-0.3,0.1-0.6,0.3-0.8l3.8-8.7
		C26.3,0.2,26.7,0,27,0s0.7,0.2,0.9,0.5l3.8,8.7c0.1,0.3,0.2,0.5,0.3,0.8H32v0.8V12v3v1v1v1v17v1v1v1v4C32,43.1,31.1,44,30,44z
		 M29.8,10L27,3.5L24.2,10c0,0,0,0,0,0L29.8,10C29.8,10,29.8,10,29.8,10z M30,12h-6v3h6V12z M30,16h-6v1h6V16z M30,18h-6v17h6V18z
		 M30,36h-6v1h6V36z M24,38v4h6v-4H24z M19,44h-6c-1.1,0-2-0.9-2-2v-4v-1v-1v-1V18v-1v-1v-1v-3v-1.2V10h0.1c0.1-0.3,0.1-0.6,0.3-0.8
		l3.8-8.7C15.3,0.2,15.7,0,16,0c0.3,0,0.7,0.2,0.9,0.5l3.8,8.7c0.1,0.3,0.2,0.5,0.3,0.8H21v0.8V12v3v1v1v1v17v1v1v1v4
		C21,43.1,20.1,44,19,44z M18.8,10L16,3.5L13.2,10c0,0,0,0,0,0L18.8,10C18.8,10,18.8,10,18.8,10z M19,12h-6v3h6V12z M19,16h-6v1h6
		V16z M19,18h-6v17h6V18z M19,36h-6v1h6V36z M19,38h-6v4h6V38z M8,44H2c-1.1,0-2-0.9-2-2v-4v-1v-1v-1V18v-1v-1v-1v-3v-1.2V10h0.1
		c0.1-0.3,0.1-0.6,0.3-0.8l3.8-8.7C4.3,0.2,4.7,0,5,0s0.7,0.2,0.9,0.5l3.8,8.7C9.8,9.4,9.9,9.7,9.9,10H10v0.8V12v3v1v1v1v17v1v1v1v4
		C10,43.1,9.1,44,8,44z M7.8,10L5,3.5L2.2,10c0,0,0,0,0,0L7.8,10C7.8,10,7.8,10,7.8,10z M8,12H2v3h6V12z M8,16H2v1h6V16z M8,18H2v17
		h6V18z M8,36H2v1h6V36z M8,38H2v4h6V38z"/>
	<path id="path-2" opacity="0.25" d="M23,11l4-9l4,9H23z M16,2l4,9h-8L16,2z M5,2l4,9H1L5,2z"/>
</g>
</svg>
