<?xml version="1.0" encoding="utf-8"?>
<!-- Generator: Adobe Illustrator 18.0.0, SVG Export Plug-In . SVG Version: 6.00 Build 0)  -->
<!DOCTYPE svg PUBLIC "-//W3C//DTD SVG 1.1//EN" "http://www.w3.org/Graphics/SVG/1.1/DTD/svg11.dtd">
<svg version="1.1" id="Layer_1" xmlns="http://www.w3.org/2000/svg" xmlns:xlink="http://www.w3.org/1999/xlink" x="0px" y="0px"
	 viewBox="0 0 24 44" enable-background="new 0 0 24 44" xml:space="preserve">
<g id="temperaturesvg">
	<path id="path-1" d="M23,20h-2c-0.6,0-1-0.4-1-1s0.4-1,1-1h2c0.6,0,1,0.4,1,1S23.6,20,23,20z M23,16h-2c-0.6,0-1-0.4-1-1s0.4-1,1-1
		h2c0.6,0,1,0.4,1,1S23.6,16,23,16z M23,12h-2c-0.6,0-1-0.4-1-1s0.4-1,1-1h2c0.6,0,1,0.4,1,1S23.6,12,23,12z M23,8h-2
		c-0.6,0-1-0.4-1-1s0.4-1,1-1h2c0.6,0,1,0.4,1,1S23.6,8,23,8z M24,32c0,6.6-5.4,12-12,12S0,38.6,0,32c0-4,2-7.6,5-9.7V7
		c0-3.9,3.1-7,7-7s7,3.1,7,7v15.3C22,24.4,24,28,24,32z M17,23.3V7c0-2.8-2.2-5-5-5S7,4.2,7,7v16.3c-3,1.7-5,5-5,8.7
		c0,5.5,4.5,10,10,10s10-4.5,10-10C22,28.3,20,25.1,17,23.3z"/>
	<path id="path-2" opacity="0.25" d="M20,32c0,4.4-3.6,8-8,8s-8-3.6-8-8c0-3.4,2.1-6.2,5-7.4V13c0-1.7,1.3-3,3-3s3,1.3,3,3v11.6
		C17.9,25.8,20,28.6,20,32z"/>
</g>
</svg>
