<?xml version="1.0" encoding="utf-8"?>
<!-- Generator: Adobe Illustrator 18.0.0, SVG Export Plug-In . SVG Version: 6.00 Build 0)  -->
<!DOCTYPE svg PUBLIC "-//W3C//DTD SVG 1.1//EN" "http://www.w3.org/Graphics/SVG/1.1/DTD/svg11.dtd">
<svg version="1.1" id="Layer_1" xmlns="http://www.w3.org/2000/svg" xmlns:xlink="http://www.w3.org/1999/xlink" x="0px" y="0px"
	 viewBox="0 0 40 41" enable-background="new 0 0 40 41" xml:space="preserve">
<g id="timersvg">
	<path id="path-1" d="M40,21c0,11-9,20-20,20S0,32,0,21c0-3.1,0.7-6,2-8.6l1.7,1C2.6,15.7,2,18.3,2,21c0,9.9,8.1,18,18,18
		s18-8.1,18-18c0-9.4-7.2-17.1-16.3-17.9C21.3,3.6,20.7,4,20,4c-1.1,0-2-0.9-2-2s0.9-2,2-2c0.8,0,1.4,0.4,1.8,1.1
		C32,2,40,10.6,40,21z"/>
	<path id="path-2" d="M20,25c-1.7,0-3-1.3-3-3c0-0.2,0-0.4,0.1-0.5L6.5,15.4C6,15.1,5.9,14.5,6.1,14c0.3-0.5,0.9-0.6,1.4-0.4
		l10.6,6.1c0.5-0.4,1.2-0.7,1.9-0.7c1.7,0,3,1.3,3,3S21.7,25,20,25z"/>
	<path id="path-3" opacity="0.25" d="M20,37c-8.8,0-16-7.2-16-16c0-2.4,0.6-4.7,1.5-6.8L20,22.8V5c8.8,0,16,7.2,16,16S28.8,37,20,37
		z"/>
</g>
</svg>
