<?xml version="1.0" encoding="utf-8"?>
<!-- Generator: Adobe Illustrator 17.0.0, SVG Export Plug-In . SVG Version: 6.00 Build 0)  -->
<!DOCTYPE svg PUBLIC "-//W3C//DTD SVG 1.1//EN" "http://www.w3.org/Graphics/SVG/1.1/DTD/svg11.dtd">
<svg version="1.1" xmlns="http://www.w3.org/2000/svg" xmlns:xlink="http://www.w3.org/1999/xlink" x="0px" y="0px" width="64px"
	 height="64px" viewBox="0 0 64 64" enable-background="new 0 0 64 64" xml:space="preserve">
<g id="Layer_4">
</g>
<g id="Layer_3">
</g>
<g id="Layer_2">
</g>
<g id="Layer_1">
</g>
<g id="Layer_5">
	<g>
		<g>
			<g>
				<g>
					<g>
						<path fill="#FBFFFF" d="M59.5,31.287c0-15.188-12.312-27.5-27.5-27.5S4.5,16.099,4.5,31.287
							c0,9.396,4.715,17.687,11.905,22.647h31.191C54.785,48.973,59.5,40.682,59.5,31.287z"/>
					</g>
				</g>
				<g>
					<path fill="#2D346A" d="M49.794,54.684H14.206c-0.414,0-0.75-0.336-0.75-0.75s0.336-0.75,0.75-0.75h35.588
						c0.414,0,0.75,0.336,0.75,0.75S50.208,54.684,49.794,54.684z"/>
				</g>
				<g>
					<path fill="#FFFFFF" d="M43.625,57.919h-23.25c-0.414,0-0.75-0.336-0.75-0.75s0.336-0.75,0.75-0.75h23.25
						c0.414,0,0.75,0.336,0.75,0.75S44.039,57.919,43.625,57.919z"/>
				</g>
				<g>
					<path fill="#FFFFFF" d="M32.313,61.154h-4.672c-0.414,0-0.75-0.336-0.75-0.75s0.336-0.75,0.75-0.75h4.672
						c0.414,0,0.75,0.336,0.75,0.75S32.728,61.154,32.313,61.154z"/>
				</g>
				<g>
					<path fill="#FFFFFF" d="M36.415,61.154h-1.249c-0.414,0-0.75-0.336-0.75-0.75s0.336-0.75,0.75-0.75h1.249
						c0.414,0,0.75,0.336,0.75,0.75S36.829,61.154,36.415,61.154z"/>
				</g>
			</g>
			<g>
				<g>
					<polyline fill="#E8F3FF" points="45,22.096 45,53.934 19,53.934 19,22.096 					"/>
				</g>
				<g>
					<ellipse fill="#C3CCE9" cx="32" cy="22.096" rx="13" ry="5.25"/>
				</g>
				<g>
					<path fill="#2D346A" d="M45,22.846c-0.414,0-0.75-0.336-0.75-0.75c0-2.129-5.031-4.5-12.25-4.5s-12.25,2.371-12.25,4.5
						c0,0.414-0.336,0.75-0.75,0.75s-0.75-0.336-0.75-0.75c0-3.421,5.911-6,13.75-6s13.75,2.579,13.75,6
						C45.75,22.51,45.414,22.846,45,22.846z"/>
				</g>
				<g>
					<path fill="#2D346A" d="M33.006,28.08c-0.403,0-0.737-0.321-0.749-0.727c-0.013-0.414,0.313-0.761,0.727-0.773
						c1.341-0.041,2.646-0.167,3.878-0.374c0.403-0.078,0.795,0.205,0.864,0.614c0.069,0.409-0.207,0.796-0.615,0.864
						c-1.299,0.219-2.672,0.352-4.081,0.396C33.022,28.08,33.014,28.08,33.006,28.08z M29.011,27.956
						c-0.024,0-0.048-0.001-0.072-0.003c-1.435-0.137-2.799-0.368-4.055-0.688c-0.401-0.102-0.644-0.511-0.542-0.912
						c0.102-0.4,0.509-0.643,0.912-0.541c1.182,0.301,2.469,0.519,3.827,0.647c0.413,0.04,0.715,0.405,0.676,0.818
						C29.72,27.665,29.394,27.956,29.011,27.956z M40.853,26.69c-0.303,0-0.589-0.186-0.702-0.486
						c-0.146-0.388,0.051-0.82,0.438-0.966c1.402-0.526,2.47-1.171,3.086-1.863c0.276-0.309,0.75-0.338,1.059-0.061
						c0.309,0.275,0.336,0.749,0.061,1.059c-0.789,0.885-2.026,1.648-3.679,2.27C41.03,26.675,40.941,26.69,40.853,26.69z
						 M21.346,25.855c-0.127,0-0.256-0.032-0.374-0.101c-2.25-1.297-2.722-2.705-2.722-3.659c0-0.414,0.336-0.75,0.75-0.75
						s0.75,0.336,0.75,0.75c0,0.789,0.7,1.627,1.971,2.36c0.359,0.206,0.482,0.665,0.275,1.024
						C21.857,25.721,21.605,25.855,21.346,25.855z"/>
				</g>
				<g>
					<path fill="#2D346A" d="M45,54.684H19c-0.414,0-0.75-0.336-0.75-0.75V22.096c0-0.414,0.336-0.75,0.75-0.75
						s0.75,0.336,0.75,0.75v31.088h24.5V37.679c0-0.414,0.336-0.75,0.75-0.75s0.75,0.336,0.75,0.75v16.255
						C45.75,54.348,45.414,54.684,45,54.684z"/>
				</g>
				<g>
					<path fill="#2D346A" d="M45,35.429c-0.414,0-0.75-0.336-0.75-0.75V22.096c0-0.414,0.336-0.75,0.75-0.75s0.75,0.336,0.75,0.75
						v12.583C45.75,35.093,45.414,35.429,45,35.429z"/>
				</g>
			</g>
			<g>
				<path fill="#E4C95C" d="M52.194,33.698c0.002-0.201,0.071-1.202,1.2-1.202c0.002,0,0.002,0,0.003,0c0.001,0,0.003,0,0.005,0h0
					c0.001,0,0.001,0,0.001,0h0.001c0,0,0.001,0,0.002,0c0.215-0.006,0.388-0.183,0.388-0.4c0-0.22-0.178-0.399-0.398-0.4
					c-0.201-0.002-1.202-0.072-1.202-1.2c0-0.221-0.179-0.4-0.4-0.4c-0.221,0-0.4,0.179-0.4,0.4c0,1.128-1.001,1.198-1.202,1.2
					c-0.22,0.001-0.398,0.18-0.398,0.4c0,0.221,0.179,0.4,0.4,0.4c1.129,0,1.198,1.001,1.2,1.2c0,0.002,0,0.002,0,0.002
					c0,0.003,0.001,0.006,0,0.006v0.001v0.001c0,0,0,0.001,0,0.002c0.006,0.215,0.183,0.388,0.4,0.388
					C52.014,34.096,52.193,33.918,52.194,33.698z"/>
			</g>
			<g>
				<path fill="#FFFFFF" d="M4.9,49.318c0.002-0.201,0.072-1.202,1.2-1.202c0.002,0,0.002,0,0.003,0c0.002,0,0.003,0,0.005,0h0
					c0.001,0,0.001,0,0.001,0H6.11c0,0,0.001,0,0.002,0c0.215-0.006,0.388-0.183,0.388-0.4c0-0.22-0.178-0.399-0.398-0.4
					c-0.201-0.002-1.202-0.071-1.202-1.2c0-0.221-0.179-0.4-0.4-0.4c-0.221,0-0.4,0.179-0.4,0.4c0,1.129-1.001,1.198-1.202,1.2
					c-0.22,0.001-0.398,0.18-0.398,0.4c0,0.221,0.179,0.4,0.4,0.4c1.129,0,1.198,1.002,1.2,1.2c0,0.002,0,0.002,0,0.002
					c0,0.003,0.001,0.006,0,0.006v0.001v0.001v0.002c0.006,0.215,0.183,0.388,0.4,0.388C4.72,49.716,4.899,49.538,4.9,49.318z"/>
			</g>
			<g>
				<path fill="#E4C95C" d="M23.398,13.198c0.002-0.201,0.071-1.202,1.2-1.202c0.002,0,0.002,0,0.003,0c0.001,0,0.003,0,0.005,0h0
					c0.001,0,0.001,0,0.001,0h0.001c0,0,0.001,0,0.002,0c0.215-0.006,0.388-0.183,0.388-0.4c0-0.22-0.178-0.399-0.398-0.4
					c-0.201-0.002-1.202-0.071-1.202-1.2c0-0.221-0.179-0.4-0.4-0.4c-0.221,0-0.4,0.179-0.4,0.4c0,1.129-1.001,1.198-1.202,1.2
					c-0.22,0.001-0.398,0.18-0.398,0.4c0,0.221,0.179,0.4,0.4,0.4c1.129,0,1.198,1.002,1.2,1.2c0,0.002,0,0.002,0,0.002
					c0,0.003,0.001,0.006,0,0.006v0.001v0.001c0,0,0,0.001,0,0.002c0.006,0.215,0.183,0.388,0.4,0.388
					C23.219,13.596,23.397,13.417,23.398,13.198z"/>
			</g>
			<g>
				<path fill="#FFFFFF" d="M1.2,20.152c0.001-0.101,0.036-0.601,0.6-0.601h0.001h0.002h0h0.001h0.001h0
					C1.914,19.548,2,19.46,2,19.351c0-0.11-0.089-0.199-0.199-0.2C1.7,19.15,1.2,19.115,1.2,18.551c0-0.11-0.089-0.2-0.2-0.2
					c-0.11,0-0.2,0.09-0.2,0.2c0,0.564-0.5,0.599-0.601,0.6C0.089,19.152,0,19.241,0,19.351c0,0.111,0.089,0.2,0.2,0.2
					c0.565,0,0.599,0.501,0.6,0.6v0.001c0,0.001,0.001,0.003,0.001,0.003c-0.001,0-0.001,0-0.001,0v0.001v0.001
					c0.003,0.108,0.091,0.194,0.2,0.194C1.11,20.351,1.199,20.262,1.2,20.152z"/>
			</g>
			<g>
				<path fill="#E4C95C" d="M12.839,36.816c0.001-0.101,0.036-0.601,0.6-0.601h0.001h0.002h0h0.001h0.001h0
					c0.108-0.003,0.195-0.091,0.195-0.2c0-0.11-0.089-0.199-0.199-0.2c-0.101-0.001-0.601-0.036-0.601-0.6
					c0-0.111-0.089-0.2-0.2-0.2c-0.111,0-0.2,0.089-0.2,0.2c0,0.564-0.5,0.599-0.601,0.6c-0.11,0.001-0.199,0.09-0.199,0.2
					c0,0.111,0.089,0.2,0.2,0.2c0.565,0,0.599,0.501,0.6,0.6v0.001c0,0.001,0.001,0.003,0.001,0.003c-0.001,0-0.001,0-0.001,0v0.001
					v0.001c0.003,0.108,0.091,0.194,0.2,0.194C12.749,37.015,12.839,36.926,12.839,36.816z"/>
			</g>
			<g>
				<path fill="#FFFFFF" d="M55.994,10.397c0.001-0.101,0.036-0.601,0.6-0.601h0.001h0.002h0h0.001h0.001h0
					c0.108-0.003,0.195-0.091,0.195-0.2c0-0.11-0.089-0.199-0.199-0.2c-0.101-0.001-0.601-0.036-0.601-0.6
					c0-0.111-0.089-0.2-0.2-0.2c-0.111,0-0.2,0.09-0.2,0.2c0,0.564-0.5,0.599-0.601,0.6c-0.11,0.001-0.199,0.09-0.199,0.2
					c0,0.111,0.089,0.2,0.2,0.2c0.565,0,0.599,0.501,0.6,0.6c0,0.001,0,0.001,0,0.001c0,0.001,0.001,0.003,0.001,0.003
					c-0.001,0-0.001,0-0.001,0v0.001v0.001c0.003,0.108,0.091,0.194,0.2,0.194C55.904,10.596,55.994,10.507,55.994,10.397z"/>
			</g>
			<g>
				<path fill="#FFFFFF" d="M63.2,43.397c0.001-0.101,0.036-0.601,0.6-0.601h0.001h0.002h0h0.001h0.001h0
					c0.108-0.003,0.194-0.091,0.194-0.2c0-0.11-0.089-0.199-0.199-0.2c-0.101-0.001-0.601-0.036-0.601-0.6
					c0-0.111-0.089-0.2-0.2-0.2c-0.111,0-0.2,0.09-0.2,0.2c0,0.564-0.5,0.599-0.601,0.6c-0.11,0.001-0.199,0.09-0.199,0.2
					c0,0.111,0.09,0.2,0.2,0.2c0.565,0,0.599,0.501,0.6,0.6c0,0.001,0,0.001,0,0.001c0,0.001,0.001,0.003,0.001,0.003
					c-0.001,0-0.001,0-0.001,0v0.001v0.001c0.003,0.108,0.091,0.194,0.2,0.194C63.11,43.596,63.199,43.507,63.2,43.397z"/>
			</g>
		</g>
	</g>
</g>
</svg>
