<?xml version="1.0" encoding="utf-8"?>
<!-- Generator: Adobe Illustrator 17.0.0, SVG Export Plug-In . SVG Version: 6.00 Build 0)  -->
<!DOCTYPE svg PUBLIC "-//W3C//DTD SVG 1.1//EN" "http://www.w3.org/Graphics/SVG/1.1/DTD/svg11.dtd">
<svg version="1.1" xmlns="http://www.w3.org/2000/svg" xmlns:xlink="http://www.w3.org/1999/xlink" x="0px" y="0px" width="64px"
	 height="64px" viewBox="0 0 64 64" enable-background="new 0 0 64 64" xml:space="preserve">
<g id="Layer_4">
</g>
<g id="Layer_3">
</g>
<g id="Layer_2">
</g>
<g id="Layer_1">
</g>
<g id="Layer_5">
	<g>
		<g>
			<g>
				<path fill="#FBE2CB" d="M59.5,31.191c0-15.188-12.312-27.5-27.5-27.5S4.5,16.003,4.5,31.191c0,9.396,4.715,17.687,11.905,22.647
					h31.191C54.785,48.878,59.5,40.587,59.5,31.191z"/>
			</g>
			
				<line fill="none" stroke="#2D346A" stroke-width="1.5" stroke-linecap="round" stroke-miterlimit="10" x1="14.206" y1="53.838" x2="49.794" y2="53.838"/>
			
				<line fill="none" stroke="#C3CCE9" stroke-width="1.5" stroke-linecap="round" stroke-linejoin="round" stroke-miterlimit="10" x1="20.375" y1="57.074" x2="43.625" y2="57.074"/>
			
				<line fill="none" stroke="#C3CCE9" stroke-width="1.5" stroke-linecap="round" stroke-linejoin="round" stroke-miterlimit="10" x1="27.641" y1="60.309" x2="32.314" y2="60.309"/>
			
				<line fill="none" stroke="#C3CCE9" stroke-width="1.5" stroke-linecap="round" stroke-linejoin="round" stroke-miterlimit="10" x1="35.166" y1="60.309" x2="36.415" y2="60.309"/>
		</g>
		<g>
			<circle fill="#E8F3FF" cx="32" cy="18.431" r="4.633"/>
			<polyline fill="#E8F3FF" points="34.059,14.281 34.059,8.407 29.941,8.407 29.941,14.285 			"/>
			<g>
				<polygon fill="#E8F3FF" points="20.998,53.604 32,23.064 27.418,17.763 				"/>
				<polygon fill="#E8F3FF" points="36.582,17.763 32,23.064 43.002,53.604 				"/>
			</g>
			<g>
				
					<circle fill="none" stroke="#2D346A" stroke-width="1.5" stroke-linecap="round" stroke-miterlimit="10" cx="32" cy="18.34" r="4.633"/>
				
					<polyline fill="none" stroke="#2D346A" stroke-width="1.5" stroke-linecap="round" stroke-linejoin="round" stroke-miterlimit="10" points="
					34.059,14.19 34.059,8.317 29.941,8.317 29.941,14.195 				"/>
				
					<line fill="none" stroke="#2D346A" stroke-width="1.5" stroke-linecap="round" stroke-linejoin="round" stroke-miterlimit="10" x1="26.284" y1="24.001" x2="27.418" y2="17.672"/>
				
					<polyline fill="none" stroke="#2D346A" stroke-width="1.5" stroke-linecap="round" stroke-linejoin="round" stroke-miterlimit="10" points="
					32,22.973 20.998,53.514 25.755,26.954 				"/>
				
					<polyline fill="none" stroke="#2D346A" stroke-width="1.5" stroke-linecap="round" stroke-linejoin="round" stroke-miterlimit="10" points="
					32,22.973 43.002,53.514 36.582,17.672 				"/>
			</g>
			<path fill="none" stroke="#2D346A" stroke-width="1.5" stroke-linecap="round" stroke-miterlimit="10" d="M45.784,32.124
				c-7.613,7.613-19.955,7.613-27.567,0"/>
			
				<line fill="none" stroke="#2D346A" stroke-width="1.5" stroke-linecap="round" stroke-miterlimit="10" x1="32" y1="39.688" x2="32" y2="35.979"/>
		</g>
		<path fill="#E4C95C" d="M1.6,17.148c-0.002-0.201-0.071-1.202-1.2-1.202c-0.002,0-0.002,0-0.003,0c-0.002,0-0.003,0-0.005,0h0
			c-0.001,0-0.001,0-0.001,0H0.39c0,0-0.001,0-0.002,0C0.173,15.94,0,15.763,0,15.546c0-0.22,0.178-0.399,0.398-0.4
			c0.201-0.002,1.202-0.071,1.202-1.2c0-0.221,0.179-0.4,0.4-0.4s0.4,0.179,0.4,0.4c0,1.129,1.001,1.198,1.202,1.2
			C3.822,15.147,4,15.326,4,15.546c0,0.221-0.179,0.4-0.4,0.4c-1.129,0-1.198,1.002-1.2,1.2c0,0.002,0,0.002,0,0.002
			c0,0.003-0.001,0.006,0,0.006v0.001c0,0,0,0.001,0,0.001c0,0.001,0,0.001,0,0.002c-0.006,0.215-0.183,0.388-0.4,0.388
			C1.78,17.546,1.601,17.368,1.6,17.148z"/>
		<path fill="#E4C95C" d="M62.8,42.761c-0.001-0.101-0.036-0.601-0.6-0.601h-0.001h-0.002h0h-0.001h-0.001h0
			C62.087,42.156,62,42.068,62,41.96c0-0.11,0.089-0.199,0.199-0.2c0.101-0.001,0.601-0.036,0.601-0.6c0-0.111,0.089-0.2,0.2-0.2
			s0.2,0.089,0.2,0.2c0,0.564,0.5,0.599,0.601,0.6c0.11,0.001,0.199,0.09,0.199,0.2c0,0.111-0.089,0.2-0.2,0.2
			c-0.565,0-0.599,0.501-0.6,0.6v0.001c0,0.001-0.001,0.003-0.001,0.003c0.001,0,0.001,0,0.001,0s0,0,0,0.001v0.001
			c-0.003,0.108-0.091,0.194-0.2,0.194C62.89,42.96,62.801,42.87,62.8,42.761z"/>
		<path fill="#E4C95C" d="M14.439,40.486c-0.001-0.101-0.036-0.601-0.6-0.601c-0.001,0-0.001,0-0.001,0c-0.001,0-0.002,0-0.003,0h0
			h-0.001h-0.001c0,0,0,0-0.001,0c-0.108-0.003-0.194-0.091-0.194-0.2c0-0.11,0.089-0.199,0.199-0.2
			c0.101-0.001,0.601-0.036,0.601-0.6c0-0.111,0.089-0.2,0.2-0.2c0.111,0,0.2,0.089,0.2,0.2c0,0.564,0.5,0.599,0.601,0.6
			c0.11,0.001,0.199,0.09,0.199,0.2c0,0.111-0.089,0.2-0.2,0.2c-0.565,0-0.599,0.501-0.6,0.6c0,0.001,0,0.001,0,0.001
			c0,0.001-0.001,0.003-0.001,0.003l0.001,0v0v0.001c-0.003,0.108-0.091,0.194-0.2,0.194C14.529,40.685,14.44,40.596,14.439,40.486z
			"/>
		<path fill="#E4C95C" d="M16.291,21.641c-0.001-0.101-0.036-0.601-0.6-0.601c-0.001,0-0.001,0-0.001,0c-0.001,0-0.002,0-0.003,0h0
			h-0.001h-0.001h-0.001c-0.108-0.003-0.194-0.091-0.194-0.2c0-0.11,0.089-0.199,0.199-0.2c0.101-0.001,0.601-0.036,0.601-0.6
			c0-0.111,0.089-0.2,0.2-0.2c0.111,0,0.2,0.089,0.2,0.2c0,0.564,0.5,0.599,0.601,0.6c0.11,0.001,0.199,0.09,0.199,0.2
			c0,0.111-0.089,0.2-0.2,0.2c-0.565,0-0.599,0.501-0.6,0.6c0,0.001,0,0.001,0,0.001c0,0.001-0.001,0.003,0,0.003v0.001v0v0.001
			c-0.003,0.108-0.091,0.194-0.2,0.194C16.381,21.84,16.291,21.751,16.291,21.641z"/>
		<path fill="#E4C95C" d="M57.092,10.102C57.09,9.901,57.02,8.9,55.892,8.9c-0.002,0-0.002,0-0.002,0c-0.002,0-0.004,0-0.005,0h0
			c-0.001,0-0.001,0-0.001,0h-0.001c0,0-0.001,0-0.002,0c-0.215-0.006-0.388-0.183-0.388-0.4c0-0.22,0.178-0.399,0.398-0.4
			c0.201-0.002,1.202-0.071,1.202-1.2c0-0.221,0.179-0.4,0.4-0.4c0.221,0,0.4,0.179,0.4,0.4c0,1.129,1.001,1.198,1.202,1.2
			c0.22,0.001,0.398,0.18,0.398,0.4c0,0.221-0.179,0.4-0.4,0.4c-1.129,0-1.198,1.002-1.2,1.2c0,0.002,0,0.002,0,0.003
			c0,0.002-0.001,0.005,0,0.005c0,0.001,0,0.001,0,0.001v0.001c0,0,0,0.001,0,0.002c-0.006,0.215-0.183,0.388-0.4,0.388
			C57.272,10.5,57.093,10.322,57.092,10.102z"/>
		<path fill="#E4C95C" d="M46.657,23.102c-0.002-0.201-0.071-1.202-1.2-1.202c-0.002,0-0.002,0-0.002,0c-0.002,0-0.004,0-0.005,0h0
			c-0.001,0-0.001,0-0.001,0h-0.001c0,0-0.001,0-0.002,0c-0.215-0.006-0.388-0.183-0.388-0.4c0-0.22,0.178-0.399,0.398-0.4
			c0.201-0.002,1.202-0.071,1.202-1.2c0-0.221,0.179-0.4,0.4-0.4c0.221,0,0.4,0.179,0.4,0.4c0,1.129,1.001,1.198,1.202,1.2
			c0.22,0.001,0.398,0.18,0.398,0.4c0,0.221-0.179,0.4-0.4,0.4c-1.129,0-1.198,1.002-1.2,1.2c0,0.002,0,0.002,0,0.003
			c0,0.002-0.001,0.005,0,0.005c0,0.001,0,0.001,0,0.001v0.001c0,0,0,0.001,0,0.002c-0.006,0.215-0.183,0.388-0.4,0.388
			C46.836,23.5,46.658,23.322,46.657,23.102z"/>
		<path fill="#E4C95C" d="M31.6,48.125c-0.002-0.201-0.071-1.202-1.2-1.202c-0.002,0-0.002,0-0.002,0c-0.002,0-0.004,0-0.005,0h0
			c-0.001,0-0.001,0-0.001,0H30.39c0,0-0.001,0-0.002,0C30.173,46.917,30,46.74,30,46.523c0-0.22,0.178-0.399,0.398-0.4
			c0.201-0.002,1.202-0.071,1.202-1.2c0-0.221,0.179-0.4,0.4-0.4c0.221,0,0.4,0.179,0.4,0.4c0,1.129,1.001,1.198,1.202,1.2
			c0.22,0.001,0.398,0.18,0.398,0.4c0,0.221-0.179,0.4-0.4,0.4c-1.129,0-1.198,1.002-1.2,1.2c0,0.002,0,0.002,0,0.003
			c0,0.002-0.001,0.005,0,0.005v0.001v0.001c0,0,0,0.001,0,0.002c-0.006,0.215-0.183,0.388-0.4,0.388
			C31.78,48.523,31.601,48.345,31.6,48.125z"/>
		<circle fill="#C3CCE9" cx="32" cy="18.34" r="1.5"/>
	</g>
</g>
</svg>
