<?xml version="1.0" encoding="utf-8"?>
<!-- Generator: Adobe Illustrator 17.0.0, SVG Export Plug-In . SVG Version: 6.00 Build 0)  -->
<!DOCTYPE svg PUBLIC "-//W3C//DTD SVG 1.1//EN" "http://www.w3.org/Graphics/SVG/1.1/DTD/svg11.dtd">
<svg version="1.1" xmlns="http://www.w3.org/2000/svg" xmlns:xlink="http://www.w3.org/1999/xlink" x="0px" y="0px" width="64px"
	 height="64px" viewBox="0 0 64 64" enable-background="new 0 0 64 64" xml:space="preserve">
<g id="Layer_4">
</g>
<g id="Layer_3">
</g>
<g id="Layer_2">
</g>
<g id="Layer_1">
</g>
<g id="Layer_5">
	<g>
		<g>
			<g>
				<g>
					<g>
						<path fill="#FBFFFF" d="M59.5,31.287c0-15.188-12.312-27.5-27.5-27.5S4.5,16.099,4.5,31.287
							c0,9.396,4.715,17.687,11.905,22.647h31.191C54.785,48.973,59.5,40.682,59.5,31.287z"/>
					</g>
				</g>
				<g>
					<path fill="#2D346A" d="M52.794,54.684H11.206c-0.414,0-0.75-0.336-0.75-0.75s0.336-0.75,0.75-0.75h41.588
						c0.414,0,0.75,0.336,0.75,0.75S53.208,54.684,52.794,54.684z"/>
				</g>
				<g>
					<path fill="#FFFFFF" d="M46.625,57.919h-29.25c-0.414,0-0.75-0.336-0.75-0.75s0.336-0.75,0.75-0.75h29.25
						c0.414,0,0.75,0.336,0.75,0.75S47.039,57.919,46.625,57.919z"/>
				</g>
				<g>
					<path fill="#FFFFFF" d="M32.313,61.154h-6.672c-0.414,0-0.75-0.336-0.75-0.75s0.336-0.75,0.75-0.75h6.672
						c0.414,0,0.75,0.336,0.75,0.75S32.728,61.154,32.313,61.154z"/>
				</g>
				<g>
					<path fill="#FFFFFF" d="M38.415,61.154h-3.249c-0.414,0-0.75-0.336-0.75-0.75s0.336-0.75,0.75-0.75h3.249
						c0.414,0,0.75,0.336,0.75,0.75S38.829,61.154,38.415,61.154z"/>
				</g>
			</g>
			<g>
				<g>
					<polygon fill="#E8F3FF" points="32.628,16.846 15.65,53.934 49.606,53.934 					"/>
				</g>
				<g>
					<polygon fill="#C3CCE9" points="32.628,16.846 36.415,53.934 49.606,53.934 					"/>
				</g>
				<g>
					<g>
						<path fill="#2D346A" d="M32.831,19.585c-0.38,0-0.706-0.287-0.745-0.674l-0.204-1.989c-0.042-0.412,0.258-0.78,0.67-0.822
							c0.411-0.041,0.78,0.258,0.822,0.67l0.204,1.989c0.042,0.412-0.258,0.78-0.67,0.822
							C32.882,19.584,32.856,19.585,32.831,19.585z"/>
					</g>
					<g>
						<path fill="#2D346A" d="M35.835,49.015c-0.38,0-0.706-0.287-0.745-0.674l-0.376-3.679c-0.042-0.412,0.258-0.78,0.67-0.822
							c0.408-0.044,0.781,0.257,0.822,0.67l0.376,3.679c0.042,0.412-0.258,0.78-0.67,0.822
							C35.887,49.014,35.86,49.015,35.835,49.015z M35.084,41.657c-0.38,0-0.706-0.287-0.745-0.674l-0.376-3.679
							c-0.042-0.412,0.258-0.78,0.67-0.822c0.411-0.044,0.78,0.257,0.822,0.67l0.376,3.679c0.042,0.412-0.258,0.78-0.67,0.822
							C35.136,41.656,35.109,41.657,35.084,41.657z M34.333,34.3c-0.38,0-0.706-0.287-0.745-0.674l-0.376-3.679
							c-0.042-0.412,0.258-0.78,0.67-0.822c0.406-0.044,0.781,0.258,0.822,0.67l0.376,3.679c0.042,0.412-0.258,0.78-0.67,0.822
							C34.385,34.299,34.358,34.3,34.333,34.3z M33.582,26.942c-0.38,0-0.706-0.287-0.745-0.674l-0.376-3.679
							c-0.042-0.412,0.258-0.78,0.67-0.822c0.409-0.043,0.78,0.258,0.822,0.67l0.376,3.679c0.042,0.412-0.258,0.78-0.67,0.822
							C33.634,26.941,33.607,26.942,33.582,26.942z"/>
					</g>
					<g>
						<path fill="#2D346A" d="M36.414,54.684c-0.38,0-0.706-0.288-0.745-0.674l-0.203-1.989c-0.042-0.412,0.258-0.78,0.67-0.822
							c0.404-0.045,0.78,0.259,0.822,0.67l0.203,1.989c0.042,0.412-0.258,0.78-0.67,0.822
							C36.466,54.683,36.439,54.684,36.414,54.684z"/>
					</g>
				</g>
				<g>
					<path fill="#2D346A" d="M49.606,54.684H15.65c-0.255,0-0.493-0.13-0.631-0.345c-0.138-0.215-0.157-0.485-0.051-0.718
						l16.978-37.088c0.244-0.533,1.12-0.533,1.364,0l8.95,19.552c0.173,0.377,0.007,0.822-0.369,0.994
						c-0.377,0.176-0.821,0.008-0.994-0.369l-8.269-18.063l-15.81,34.536h31.621l-6.096-13.316
						c-0.173-0.377-0.007-0.822,0.369-0.994c0.378-0.174,0.822-0.007,0.994,0.369l6.582,14.379c0.106,0.232,0.088,0.503-0.051,0.718
						C50.1,54.554,49.861,54.684,49.606,54.684z"/>
				</g>
			</g>
			<g>
				<path fill="#FFFFFF" d="M62.4,47.22c0.002-0.201,0.072-1.202,1.2-1.202c0.002,0,0.002,0,0.003,0c0.001,0,0.003,0,0.005,0h0
					c0.001,0,0.001,0,0.001,0h0.001c0,0,0.001,0,0.001,0c0.215-0.006,0.388-0.183,0.388-0.4c0-0.22-0.178-0.399-0.398-0.4
					c-0.201-0.002-1.202-0.071-1.202-1.2c0-0.221-0.179-0.4-0.4-0.4c-0.221,0-0.4,0.179-0.4,0.4c0,1.128-1.001,1.198-1.202,1.2
					c-0.22,0.001-0.398,0.18-0.398,0.4c0,0.221,0.179,0.4,0.4,0.4c1.129,0,1.198,1.002,1.2,1.2c0,0.002,0,0.002,0,0.002
					c0,0.003,0.001,0.006,0,0.006v0.001v0.001c0,0,0,0.001,0,0.001c0.006,0.215,0.183,0.388,0.4,0.388
					C62.22,47.618,62.399,47.44,62.4,47.22z"/>
			</g>
			<g>
				<path fill="#E4C95C" d="M45.914,22.839c0.002-0.201,0.071-1.202,1.2-1.202c0.002,0,0.002,0,0.003,0c0.002,0,0.003,0,0.005,0h0
					c0.001,0,0.001,0,0.001,0h0.001c0,0,0.001,0,0.002,0c0.215-0.006,0.388-0.183,0.388-0.4c0-0.22-0.178-0.399-0.398-0.4
					c-0.201-0.002-1.202-0.071-1.202-1.2c0-0.221-0.179-0.4-0.4-0.4c-0.221,0-0.4,0.179-0.4,0.4c0,1.129-1.001,1.198-1.202,1.2
					c-0.22,0.001-0.398,0.18-0.398,0.4c0,0.221,0.179,0.4,0.4,0.4c1.129,0,1.198,1.002,1.2,1.2c0,0.002,0,0.002,0,0.002
					c0,0.003,0.001,0.006,0,0.006v0.001v0.001v0.002c0.006,0.215,0.183,0.388,0.4,0.388C45.734,23.237,45.913,23.059,45.914,22.839z
					"/>
			</g>
			<g>
				<path fill="#FFFFFF" d="M1.2,39.443c0.001-0.101,0.036-0.601,0.6-0.601h0.001h0.002h0h0.001h0.001h0
					C1.914,38.839,2,38.75,2,38.642c0-0.11-0.089-0.2-0.199-0.2C1.7,38.441,1.2,38.406,1.2,37.842c0-0.111-0.089-0.2-0.2-0.2
					c-0.111,0-0.2,0.089-0.2,0.2c0,0.564-0.5,0.599-0.601,0.6c-0.11,0-0.199,0.09-0.199,0.2c0,0.111,0.089,0.2,0.2,0.2
					c0.565,0,0.599,0.501,0.6,0.6c0,0.001,0,0.001,0,0.001c0,0.001,0.001,0.003,0.001,0.003c-0.001,0-0.001,0-0.001,0v0.001v0.001
					c0.003,0.108,0.091,0.194,0.2,0.194C1.11,39.642,1.199,39.553,1.2,39.443z"/>
			</g>
			<g>
				<path fill="#FFFFFF" d="M7.101,12.796c0.002-0.201,0.071-1.202,1.2-1.202c0.002,0,0.002,0,0.003,0c0.002,0,0.003,0,0.005,0h0
					c0.001,0,0.001,0,0.001,0h0.001c0,0,0.001,0,0.002,0c0.215-0.006,0.388-0.183,0.388-0.4c0-0.22-0.178-0.399-0.398-0.4
					c-0.201-0.002-1.202-0.071-1.202-1.2c0-0.221-0.179-0.4-0.4-0.4c-0.221,0-0.4,0.179-0.4,0.4c0,1.128-1.001,1.198-1.202,1.2
					c-0.22,0.001-0.398,0.18-0.398,0.4c0,0.221,0.179,0.4,0.4,0.4c1.129,0,1.198,1.002,1.2,1.2c0,0.002,0,0.002,0,0.002
					c0,0.003,0.001,0.006,0,0.006v0.001v0.001v0.002c0.006,0.215,0.183,0.388,0.4,0.388C6.922,13.194,7.1,13.016,7.101,12.796z"/>
			</g>
			<g>
				<path fill="#E4C95C" d="M15.05,33.992c0.002-0.201,0.071-1.202,1.2-1.202c0.001,0,0.002,0,0.002,0c0.002,0,0.004,0,0.006,0h0
					h0.001h0.001h0.002c0.215-0.006,0.388-0.183,0.388-0.4c0-0.22-0.178-0.399-0.398-0.4c-0.201-0.002-1.202-0.072-1.202-1.2
					c0-0.221-0.179-0.4-0.4-0.4s-0.4,0.179-0.4,0.4c0,1.128-1.001,1.198-1.202,1.2c-0.22,0.001-0.398,0.18-0.398,0.4
					c0,0.221,0.179,0.4,0.4,0.4c1.129,0,1.198,1.002,1.2,1.2c0,0.002,0,0.002,0,0.002c0,0.003,0.001,0.006,0,0.006v0.001V34v0.002
					c0.006,0.215,0.183,0.388,0.4,0.388C14.87,34.39,15.049,34.212,15.05,33.992z"/>
			</g>
			<g>
				<path fill="#FFFFFF" d="M58.2,11.397c0.001-0.101,0.036-0.601,0.6-0.601h0.001h0.002h0h0.001h0.001h0
					c0.108-0.003,0.194-0.091,0.194-0.2c0-0.11-0.089-0.199-0.199-0.2C58.7,10.394,58.2,10.36,58.2,9.796c0-0.111-0.089-0.2-0.2-0.2
					c-0.111,0-0.2,0.09-0.2,0.2c0,0.564-0.5,0.599-0.601,0.6c-0.11,0.001-0.199,0.09-0.199,0.2c0,0.111,0.09,0.2,0.2,0.2
					c0.565,0,0.599,0.501,0.6,0.6c0,0.001,0,0.001,0,0.001c0,0.001,0.001,0.003,0.001,0.003c-0.001,0-0.001,0-0.001,0v0.001v0.001
					c0.003,0.108,0.091,0.194,0.2,0.194C58.11,11.596,58.199,11.507,58.2,11.397z"/>
			</g>
			<g>
				<path fill="#E4C95C" d="M22,19.038c0.001-0.101,0.036-0.601,0.6-0.601h0.001h0.002h0h0.001h0.001h0
					c0.108-0.003,0.194-0.091,0.194-0.2c0-0.11-0.089-0.199-0.199-0.2C22.5,18.036,22,18.002,22,17.437c0-0.111-0.089-0.2-0.2-0.2
					c-0.111,0-0.2,0.09-0.2,0.2c0,0.564-0.5,0.599-0.601,0.6c-0.11,0.001-0.199,0.09-0.199,0.2c0,0.111,0.089,0.2,0.2,0.2
					c0.565,0,0.599,0.501,0.6,0.6v0.001c0,0.001,0.001,0.003,0.001,0.003c-0.001,0-0.001,0-0.001,0v0.001v0.001
					c0.003,0.108,0.091,0.194,0.2,0.194C21.91,19.237,21.999,19.148,22,19.038z"/>
			</g>
		</g>
	</g>
</g>
</svg>
