<?xml version="1.0" encoding="utf-8"?>
<!-- Generator: Adobe Illustrator 17.0.0, SVG Export Plug-In . SVG Version: 6.00 Build 0)  -->
<!DOCTYPE svg PUBLIC "-//W3C//DTD SVG 1.1//EN" "http://www.w3.org/Graphics/SVG/1.1/DTD/svg11.dtd">
<svg version="1.1" xmlns="http://www.w3.org/2000/svg" xmlns:xlink="http://www.w3.org/1999/xlink" x="0px" y="0px" width="64px"
	 height="64px" viewBox="0 0 64 64" enable-background="new 0 0 64 64" xml:space="preserve">
<g id="Layer_4">
</g>
<g id="Layer_3">
</g>
<g id="Layer_2">
</g>
<g id="Layer_1">
</g>
<g id="Layer_5">
	<g>
		<g>
			<g>
				<g>
					<g>
						<path fill="#FBFFFF" d="M59.5,31.287c0-15.188-12.312-27.5-27.5-27.5S4.5,16.099,4.5,31.287
							c0,9.396,4.715,17.687,11.905,22.647h31.191C54.785,48.973,59.5,40.682,59.5,31.287z"/>
					</g>
				</g>
				<g>
					<path fill="#2D346A" d="M49.794,54.684H14.206c-0.414,0-0.75-0.336-0.75-0.75s0.336-0.75,0.75-0.75h35.588
						c0.414,0,0.75,0.336,0.75,0.75S50.208,54.684,49.794,54.684z"/>
				</g>
				<g>
					<path fill="#FFFFFF" d="M43.625,57.919h-23.25c-0.414,0-0.75-0.336-0.75-0.75s0.336-0.75,0.75-0.75h23.25
						c0.414,0,0.75,0.336,0.75,0.75S44.039,57.919,43.625,57.919z"/>
				</g>
				<g>
					<path fill="#FFFFFF" d="M32.313,61.154h-4.672c-0.414,0-0.75-0.336-0.75-0.75s0.336-0.75,0.75-0.75h4.672
						c0.414,0,0.75,0.336,0.75,0.75S32.728,61.154,32.313,61.154z"/>
				</g>
				<g>
					<path fill="#FFFFFF" d="M36.415,61.154h-1.249c-0.414,0-0.75-0.336-0.75-0.75s0.336-0.75,0.75-0.75h1.249
						c0.414,0,0.75,0.336,0.75,0.75S36.829,61.154,36.415,61.154z"/>
				</g>
			</g>
			<g>
				<g>
					<g>
						
							<rect x="25.565" y="11.16" transform="matrix(-0.7071 0.7071 -0.7071 -0.7071 78.2404 34.2497)" fill="#C3CCE9" width="12.923" height="44.338"/>
					</g>
					<g>
						<g>
							<path fill="#FFFFFF" d="M29.02,24.628c-0.192,0-0.384-0.073-0.53-0.22c-0.293-0.293-0.293-0.768,0-1.061l1.19-1.189
								c0.294-0.294,0.769-0.292,1.061,0c0.293,0.293,0.293,0.768,0,1.061l-1.19,1.189C29.403,24.555,29.211,24.628,29.02,24.628z"
								/>
						</g>
						<g>
							<path fill="#FFFFFF" d="M22.79,18.399c-0.192,0-0.384-0.073-0.53-0.22c-0.293-0.293-0.293-0.768,0-1.061l1.19-1.19
								c0.293-0.293,0.768-0.293,1.061,0s0.293,0.768,0,1.061l-1.19,1.19C23.174,18.326,22.982,18.399,22.79,18.399z"/>
						</g>
						<g>
							<path fill="#FFFFFF" d="M35.249,30.857c-0.191,0-0.384-0.073-0.53-0.22c-0.293-0.293-0.293-0.768,0-1.061l1.189-1.19
								c0.292-0.292,0.767-0.294,1.061,0c0.293,0.293,0.293,0.768,0,1.061l-1.189,1.19C35.633,30.784,35.441,30.857,35.249,30.857z"
								/>
						</g>
						<g>
							<path fill="#FFFFFF" d="M41.478,37.086c-0.192,0-0.384-0.073-0.53-0.22c-0.293-0.293-0.293-0.768,0-1.061l1.19-1.189
								c0.293-0.294,0.768-0.292,1.061,0c0.293,0.293,0.293,0.768,0,1.061l-1.19,1.189C41.861,37.013,41.669,37.086,41.478,37.086z"
								/>
						</g>
						<g>
							<path fill="#2D346A" d="M31.424,28.453c-0.192,0-0.384-0.073-0.53-0.22c-0.293-0.293-0.293-0.768,0-1.061l1.9-1.9
								c0.293-0.293,0.768-0.293,1.061,0s0.293,0.768,0,1.061l-1.9,1.9C31.808,28.38,31.616,28.453,31.424,28.453z"/>
						</g>
						<g>
							<path fill="#2D346A" d="M25.194,22.224c-0.192,0-0.384-0.073-0.53-0.22c-0.293-0.293-0.293-0.768,0-1.061l1.9-1.9
								c0.293-0.293,0.768-0.293,1.061,0s0.293,0.768,0,1.061l-1.9,1.9C25.578,22.15,25.387,22.224,25.194,22.224z"/>
						</g>
						<g>
							<path fill="#2D346A" d="M37.653,34.683c-0.192,0-0.384-0.073-0.53-0.22c-0.293-0.293-0.293-0.768,0-1.061l1.9-1.9
								c0.293-0.293,0.768-0.293,1.061,0s0.293,0.768,0,1.061l-1.9,1.9C38.037,34.609,37.846,34.683,37.653,34.683z"/>
						</g>
						<g>
							<path fill="#2D346A" d="M43.882,40.911c-0.192,0-0.384-0.073-0.53-0.22c-0.293-0.293-0.293-0.768,0-1.061l1.9-1.9
								c0.293-0.293,0.768-0.293,1.061,0s0.293,0.768,0,1.061l-1.9,1.9C44.266,40.838,44.074,40.911,43.882,40.911z"/>
						</g>
						<g>
							<path fill="#FFFFFF" d="M47.707,43.315c-0.192,0-0.384-0.073-0.53-0.22c-0.293-0.293-0.293-0.768,0-1.061l1.19-1.19
								c0.293-0.293,0.768-0.293,1.061,0s0.293,0.768,0,1.061l-1.19,1.19C48.091,43.242,47.899,43.315,47.707,43.315z"/>
						</g>
					</g>
					<g>
						<path fill="#2D346A" d="M43.134,54.324c-0.199,0-0.39-0.079-0.53-0.22L11.252,22.752c-0.293-0.293-0.293-0.768,0-1.061
							l4.502-4.502c0.293-0.293,0.768-0.293,1.061,0s0.293,0.768,0,1.061l-3.972,3.972l30.291,30.292l8.077-8.077L20.92,14.145
							l-1.787,1.788c-0.292,0.293-0.767,0.293-1.061,0c-0.293-0.293-0.293-0.768,0-1.061l2.317-2.318
							c0.281-0.281,0.779-0.281,1.061,0l31.352,31.353c0.293,0.293,0.293,0.768,0,1.061l-9.138,9.138
							C43.523,54.245,43.333,54.324,43.134,54.324z"/>
					</g>
					<g>
						<circle fill="#FBFFFF" cx="18.625" cy="22.178" r="2"/>
						<path fill="#2D346A" d="M18.625,24.928c-1.517,0-2.75-1.233-2.75-2.75s1.233-2.75,2.75-2.75s2.75,1.233,2.75,2.75
							S20.142,24.928,18.625,24.928z M18.625,20.928c-0.689,0-1.25,0.561-1.25,1.25s0.561,1.25,1.25,1.25s1.25-0.561,1.25-1.25
							S19.314,20.928,18.625,20.928z"/>
					</g>
				</g>
				<g>
					<g>
						<polygon fill="#E8F3FF" points="45.012,16.386 37.387,18.119 37.387,18.119 11.728,43.777 21.579,53.627 30.399,44.807 
							32.383,42.823 47.237,27.969 47.237,27.969 48.97,20.344 50.134,15.222 						"/>
					</g>
					<g>
						<g>
							<polyline fill="#FFFFFF" points="45.012,16.386 37.387,18.119 47.237,27.969 48.97,20.344 							"/>
						</g>
						<g>
							<path fill="#E4C95C" d="M48.97,20.344l1.164-5.123l-5.123,1.164c0.212,0.935,0.676,1.825,1.405,2.554
								C47.145,19.668,48.035,20.133,48.97,20.344z"/>
						</g>
					</g>
					<g>
						<path fill="#2D346A" d="M15.012,47.811c-0.192,0-0.384-0.073-0.53-0.22c-0.293-0.293-0.293-0.768,0-1.061l23.183-23.183
							c0.293-0.293,0.768-0.293,1.061,0s0.293,0.768,0,1.061L15.542,47.591C15.396,47.737,15.204,47.811,15.012,47.811z"/>
					</g>
					<g>
						
							<rect x="30.375" y="19.371" transform="matrix(0.7071 0.7071 -0.7071 0.7071 35.643 -11.0206)" fill="#2D346A" width="1.5" height="36.287"/>
					</g>
					<g>
						<g>
							<line fill="#FFFFFF" x1="37.387" y1="18.119" x2="47.237" y2="27.969"/>
							
								<rect x="35.347" y="22.295" transform="matrix(0.7071 0.7071 -0.7071 0.7071 28.6878 -23.1696)" fill="#2D346A" width="13.931" height="1.5"/>
						</g>
						<g>
							<path fill="#E4C95C" d="M45.012,16.386c0.212,0.935,0.676,1.825,1.405,2.554c0.728,0.728,1.618,1.193,2.554,1.405"/>
							<path fill="#2D346A" d="M48.804,21.076c-1.109-0.251-2.118-0.807-2.918-1.606c-0.799-0.799-1.354-1.808-1.605-2.918
								l1.463-0.332c0.188,0.834,0.604,1.591,1.203,2.189s1.356,1.016,2.189,1.204L48.804,21.076z"/>
						</g>
					</g>
					<g>
						<path fill="#2D346A" d="M21.579,54.378c-0.199,0-0.39-0.079-0.53-0.22l-9.851-9.851c-0.293-0.293-0.293-0.768,0-1.061
							l25.658-25.658c0.1-0.1,0.227-0.17,0.364-0.201l12.748-2.897c0.247-0.059,0.514,0.019,0.696,0.201s0.258,0.445,0.201,0.696
							l-2.897,12.748c-0.031,0.138-0.102,0.265-0.201,0.364L22.109,54.158C21.969,54.299,21.778,54.378,21.579,54.378z
							 M12.789,43.777l8.79,8.79l24.975-24.975l2.586-11.376l-11.376,2.586L12.789,43.777z"/>
					</g>
				</g>
			</g>
			<g>
				<path fill="#E4C95C" d="M12.233,35.98c-0.002-0.201-0.071-1.202-1.2-1.202c-0.002,0-0.002,0-0.003,0c-0.002,0-0.003,0-0.005,0h0
					c-0.001,0-0.001,0-0.001,0h-0.001c0,0-0.001,0-0.002,0c-0.215-0.006-0.388-0.183-0.388-0.4c0-0.22,0.178-0.399,0.398-0.4
					c0.201-0.002,1.202-0.071,1.202-1.2c0-0.221,0.179-0.4,0.4-0.4c0.221,0,0.4,0.179,0.4,0.4c0,1.128,1.001,1.198,1.202,1.2
					c0.22,0.001,0.398,0.18,0.398,0.4c0,0.221-0.179,0.4-0.4,0.4c-1.129,0-1.198,1.002-1.2,1.2c0,0.002,0,0.002,0,0.002
					c0,0.003-0.001,0.006,0,0.006v0.001c0,0,0,0.001,0,0.001v0.001c-0.006,0.215-0.183,0.388-0.4,0.388
					C12.413,36.378,12.234,36.2,12.233,35.98z"/>
			</g>
			<g>
				<path fill="#E4C95C" d="M52.594,30.285c-0.001-0.101-0.036-0.601-0.6-0.601h-0.001H51.99h0H51.99h0h0
					c-0.108-0.003-0.195-0.091-0.195-0.2c0-0.11,0.089-0.199,0.199-0.2c0.101-0.001,0.601-0.036,0.601-0.6
					c0-0.111,0.089-0.2,0.2-0.2c0.111,0,0.2,0.09,0.2,0.2c0,0.564,0.5,0.599,0.601,0.6c0.11,0.001,0.199,0.09,0.199,0.2
					c0,0.111-0.089,0.2-0.2,0.2c-0.565,0-0.599,0.501-0.6,0.6v0.001c0,0.001-0.001,0.003-0.001,0.003c0.001,0,0.001,0,0.001,0v0.001
					v0.001c-0.003,0.108-0.091,0.194-0.2,0.194C52.684,30.484,52.595,30.395,52.594,30.285z"/>
			</g>
			<g>
				<path fill="#FFFFFF" d="M58.8,48.919c-0.001-0.101-0.036-0.601-0.6-0.601h-0.001h-0.002h0h-0.001h-0.001h0
					C58.086,48.315,58,48.227,58,48.118c0-0.11,0.089-0.199,0.199-0.2c0.101-0.001,0.601-0.036,0.601-0.6c0-0.111,0.09-0.2,0.2-0.2
					c0.111,0,0.2,0.09,0.2,0.2c0,0.564,0.5,0.599,0.601,0.6c0.11,0.001,0.199,0.09,0.199,0.2c0,0.111-0.089,0.2-0.2,0.2
					c-0.565,0-0.599,0.501-0.6,0.6c0,0.001,0,0.001,0,0.001c0,0.001-0.001,0.003-0.001,0.003c0.001,0,0.001,0,0.001,0v0.001v0.001
					c-0.003,0.108-0.091,0.194-0.2,0.194C58.89,49.118,58.801,49.029,58.8,48.919z"/>
			</g>
			<g>
				<path fill="#FFFFFF" d="M5.8,50.919c-0.001-0.101-0.036-0.601-0.6-0.601H5.199H5.196h0H5.195H5.195h0
					C5.086,50.315,5,50.227,5,50.118c0-0.11,0.089-0.199,0.199-0.2C5.3,49.917,5.8,49.882,5.8,49.318c0-0.111,0.089-0.2,0.2-0.2
					c0.111,0,0.2,0.09,0.2,0.2c0,0.564,0.5,0.599,0.601,0.6C6.911,49.919,7,50.008,7,50.118c0,0.111-0.089,0.2-0.2,0.2
					c-0.565,0-0.599,0.501-0.6,0.6c0,0.001,0,0.001,0,0.001c0,0.001-0.001,0.003-0.001,0.003c0.001,0,0.001,0,0.001,0v0.001v0.001
					c-0.003,0.108-0.091,0.194-0.2,0.194C5.89,51.118,5.801,51.029,5.8,50.919z"/>
			</g>
			<g>
				<path fill="#FFFFFF" d="M61.6,18.198c-0.002-0.201-0.071-1.202-1.2-1.202c-0.001,0-0.002,0-0.003,0c-0.002,0-0.003,0-0.005,0h0
					c-0.001,0-0.001,0-0.001,0H60.39c0,0-0.001,0-0.002,0C60.173,16.989,60,16.813,60,16.596c0-0.22,0.178-0.399,0.398-0.4
					c0.201-0.002,1.202-0.071,1.202-1.2c0-0.221,0.179-0.4,0.4-0.4c0.221,0,0.4,0.179,0.4,0.4c0,1.129,1.001,1.198,1.202,1.2
					c0.22,0.001,0.398,0.18,0.398,0.4c0,0.221-0.179,0.4-0.4,0.4c-1.129,0-1.198,1.002-1.2,1.2c0,0.002,0,0.002,0,0.002
					c0,0.003-0.001,0.006,0,0.006v0.001v0.001v0.002c-0.006,0.215-0.183,0.388-0.4,0.388C61.78,18.596,61.601,18.417,61.6,18.198z"
					/>
			</g>
			<g>
				<path fill="#FFFFFF" d="M0.8,15.397c-0.001-0.101-0.036-0.601-0.6-0.601H0.199H0.196h0H0.195H0.195h0
					C0.086,14.792,0,14.704,0,14.596c0-0.11,0.089-0.199,0.199-0.2C0.3,14.394,0.8,14.36,0.8,13.796c0-0.111,0.09-0.2,0.2-0.2
					c0.111,0,0.2,0.09,0.2,0.2c0,0.564,0.5,0.599,0.601,0.6C1.911,14.396,2,14.485,2,14.596c0,0.111-0.089,0.2-0.2,0.2
					c-0.565,0-0.599,0.501-0.6,0.6c0,0.001,0,0.001,0,0.001c0,0.001-0.001,0.003-0.001,0.003c0.001,0,0.001,0,0.001,0v0.001v0.001
					c-0.003,0.108-0.091,0.194-0.2,0.194C0.89,15.596,0.801,15.507,0.8,15.397z"/>
			</g>
			<g>
				<path fill="#E4C95C" d="M29.766,13.198c-0.002-0.201-0.071-1.202-1.2-1.202c-0.002,0-0.002,0-0.003,0c-0.002,0-0.003,0-0.005,0
					h0h-0.001h-0.001c0,0-0.001,0-0.001,0c-0.215-0.006-0.388-0.183-0.388-0.4c0-0.22,0.178-0.399,0.398-0.4
					c0.201-0.002,1.202-0.071,1.202-1.2c0-0.221,0.179-0.4,0.4-0.4c0.221,0,0.4,0.179,0.4,0.4c0,1.129,1.001,1.198,1.202,1.2
					c0.22,0.001,0.398,0.18,0.398,0.4c0,0.221-0.179,0.4-0.4,0.4c-1.129,0-1.198,1.002-1.2,1.2c0,0.002,0,0.002,0,0.002
					c0,0.003-0.001,0.006,0,0.006v0.001v0.001c0,0,0,0.001,0,0.002c-0.006,0.215-0.183,0.388-0.4,0.388
					C29.946,13.596,29.767,13.417,29.766,13.198z"/>
			</g>
		</g>
	</g>
</g>
</svg>
