<?xml version="1.0" encoding="utf-8"?>
<!-- Generator: Adobe Illustrator 17.0.0, SVG Export Plug-In . SVG Version: 6.00 Build 0)  -->
<!DOCTYPE svg PUBLIC "-//W3C//DTD SVG 1.1//EN" "http://www.w3.org/Graphics/SVG/1.1/DTD/svg11.dtd">
<svg version="1.1" xmlns="http://www.w3.org/2000/svg" xmlns:xlink="http://www.w3.org/1999/xlink" x="0px" y="0px" width="64px"
	 height="64px" viewBox="0 0 64 64" enable-background="new 0 0 64 64" xml:space="preserve">
<g id="Layer_4">
</g>
<g id="Layer_3">
</g>
<g id="Layer_2">
</g>
<g id="Layer_1">
</g>
<g id="Layer_5">
	<g>
		<g>
			<g>
				<path fill="#FBE2CB" d="M59.5,31.191c0-15.188-12.312-27.5-27.5-27.5S4.5,16.003,4.5,31.191c0,9.396,4.715,17.687,11.905,22.647
					h31.191C54.785,48.878,59.5,40.587,59.5,31.191z"/>
			</g>
			
				<line fill="none" stroke="#2D346A" stroke-width="1.5" stroke-linecap="round" stroke-miterlimit="10" x1="9.206" y1="53.838" x2="54.794" y2="53.838"/>
			
				<line fill="none" stroke="#C3CCE9" stroke-width="1.5" stroke-linecap="round" stroke-linejoin="round" stroke-miterlimit="10" x1="18" y1="57.074" x2="46" y2="57.074"/>
			<g>
				
					<line fill="none" stroke="#C3CCE9" stroke-width="1.5" stroke-linecap="round" stroke-linejoin="round" stroke-miterlimit="10" x1="35.279" y1="60.309" x2="38.766" y2="60.309"/>
				
					<line fill="none" stroke="#C3CCE9" stroke-width="1.5" stroke-linecap="round" stroke-linejoin="round" stroke-miterlimit="10" x1="21.538" y1="60.309" x2="32.52" y2="60.309"/>
				
					<line fill="none" stroke="#C3CCE9" stroke-width="1.5" stroke-linecap="round" stroke-linejoin="round" stroke-miterlimit="10" x1="41.524" y1="60.309" x2="42.462" y2="60.309"/>
			</g>
		</g>
		<g>
			<g>
				<rect x="22.375" y="23.669" fill="#E8F3FF" width="30.169" height="30.169"/>
				<rect x="45.484" y="23.669" fill="#C3CCE9" width="7.06" height="30.169"/>
				<g>
					<g>
						
							<line fill="none" stroke="#2D346A" stroke-width="1.5" stroke-linecap="round" stroke-linejoin="round" x1="45.484" y1="24.669" x2="45.484" y2="26.669"/>
						
							<line fill="none" stroke="#2D346A" stroke-width="1.5" stroke-linecap="round" stroke-linejoin="round" stroke-dasharray="3.5956,3.5956" x1="45.484" y1="30.265" x2="45.484" y2="50.04"/>
						
							<line fill="none" stroke="#2D346A" stroke-width="1.5" stroke-linecap="round" stroke-linejoin="round" x1="45.484" y1="51.838" x2="45.484" y2="53.838"/>
					</g>
				</g>
				
					<polyline fill="none" stroke="#2D346A" stroke-width="1.5" stroke-linecap="round" stroke-linejoin="round" stroke-miterlimit="10" points="
					52.544,23.669 52.544,53.838 22.375,53.838 22.375,23.669 49.544,23.669 				"/>
			</g>
			<g>
				<polygon fill="#E8F3FF" points="31.628,16.75 14.65,53.838 48.606,53.838 				"/>
				<polygon fill="#C3CCE9" points="31.628,16.75 35.415,53.838 48.606,53.838 				"/>
				<g>
					<g>
						
							<line fill="none" stroke="#2D346A" stroke-width="1.5" stroke-linecap="round" stroke-linejoin="round" x1="31.628" y1="16.75" x2="31.831" y2="18.74"/>
						
							<line fill="none" stroke="#2D346A" stroke-width="1.5" stroke-linecap="round" stroke-linejoin="round" stroke-dasharray="3.6979,3.6979" x1="32.207" y1="22.418" x2="35.024" y2="50.009"/>
						
							<line fill="none" stroke="#2D346A" stroke-width="1.5" stroke-linecap="round" stroke-linejoin="round" x1="35.212" y1="51.849" x2="35.415" y2="53.838"/>
					</g>
				</g>
				
					<polyline fill="none" stroke="#2D346A" stroke-width="1.5" stroke-linecap="round" stroke-linejoin="round" stroke-miterlimit="10" points="
					40.578,36.302 31.628,16.75 14.65,53.838 48.606,53.838 42.024,39.459 				"/>
			</g>
			<g>
				<circle fill="#E8F3FF" cx="17.577" cy="41.457" r="12.381"/>
				
					<path fill="none" stroke="#2D346A" stroke-width="1.5" stroke-linecap="round" stroke-linejoin="round" stroke-miterlimit="10" d="
					M28.483,35.589c2.729,5.059,1.632,11.505-2.942,15.348c-5.236,4.398-13.046,3.719-17.444-1.517S4.378,36.375,9.614,31.976
					s13.046-3.719,17.444,1.517"/>
				
					<path fill="none" stroke="#2D346A" stroke-width="1.5" stroke-linecap="round" stroke-linejoin="round" stroke-miterlimit="10" d="
					M27.058,33.493"/>
			</g>
		</g>
		<path fill="#E4C95C" d="M62.4,47.148c0.002-0.201,0.071-1.202,1.2-1.202c0.002,0,0.002,0,0.003,0c0.002,0,0.003,0,0.005,0h0
			c0.001,0,0.001,0,0.001,0h0.001c0,0,0.001,0,0.002,0C63.827,45.94,64,45.763,64,45.546c0-0.22-0.178-0.399-0.398-0.4
			c-0.201-0.002-1.202-0.071-1.202-1.2c0-0.221-0.179-0.4-0.4-0.4s-0.4,0.179-0.4,0.4c0,1.129-1.001,1.198-1.202,1.2
			c-0.22,0.001-0.398,0.18-0.398,0.4c0,0.221,0.179,0.4,0.4,0.4c1.129,0,1.198,1.002,1.2,1.2c0,0.002,0,0.002,0,0.002
			c0,0.003,0.001,0.006,0,0.006v0.001c0,0,0,0.001,0,0.001c0,0.001,0,0.001,0,0.002c0.006,0.215,0.183,0.388,0.4,0.388
			C62.22,47.546,62.399,47.368,62.4,47.148z"/>
		<path fill="#E4C95C" d="M41.096,18.102c0.002-0.201,0.071-1.202,1.2-1.202c0.002,0,0.002,0,0.003,0c0.002,0,0.003,0,0.005,0h0
			c0.001,0,0.001,0,0.001,0h0.001c0,0,0.001,0,0.002,0c0.215-0.006,0.388-0.183,0.388-0.4c0-0.22-0.178-0.399-0.398-0.4
			c-0.201-0.002-1.202-0.071-1.202-1.2c0-0.221-0.179-0.4-0.4-0.4s-0.4,0.179-0.4,0.4c0,1.129-1.001,1.198-1.202,1.2
			c-0.22,0.001-0.398,0.18-0.398,0.4c0,0.221,0.179,0.4,0.4,0.4c1.129,0,1.198,1.002,1.2,1.2c0,0.002,0,0.002,0,0.002
			c0,0.003,0.001,0.006,0,0.006v0.001v0.001c0,0.001,0,0.001,0,0.002c0.006,0.215,0.183,0.388,0.4,0.388
			C40.917,18.5,41.095,18.322,41.096,18.102z"/>
		<path fill="#E4C95C" d="M2.4,16.102C2.402,15.901,2.471,14.9,3.6,14.9c0.002,0,0.002,0,0.002,0c0.002,0,0.004,0,0.005,0h0
			c0.001,0,0.001,0,0.001,0H3.61c0,0,0.001,0,0.002,0C3.827,14.894,4,14.717,4,14.5c0-0.22-0.178-0.399-0.398-0.4
			C3.401,14.098,2.4,14.028,2.4,12.9c0-0.221-0.179-0.4-0.4-0.4s-0.4,0.179-0.4,0.4c0,1.129-1.001,1.198-1.202,1.2
			C0.178,14.101,0,14.28,0,14.5c0,0.221,0.179,0.4,0.4,0.4c1.129,0,1.198,1.002,1.2,1.2c0,0.002,0,0.002,0,0.003
			c0,0.002,0.001,0.005,0,0.005c0,0.001,0,0.001,0,0.001v0.001c0,0,0,0.001,0,0.002C1.606,16.327,1.783,16.5,2,16.5
			C2.22,16.5,2.399,16.322,2.4,16.102z"/>
		<path fill="#E4C95C" d="M4.2,50.761c0.001-0.101,0.036-0.601,0.6-0.601h0.001h0.002h0h0.001h0.001h0
			C4.913,50.156,5,50.068,5,49.96c0-0.11-0.089-0.199-0.199-0.2C4.7,49.758,4.2,49.724,4.2,49.16c0-0.111-0.089-0.2-0.2-0.2
			c-0.111,0-0.2,0.089-0.2,0.2c0,0.564-0.5,0.599-0.601,0.6C3.089,49.76,3,49.849,3,49.96c0,0.111,0.089,0.2,0.2,0.2
			c0.565,0,0.599,0.501,0.6,0.6v0.001c0,0.001,0.001,0.003,0.001,0.003c-0.001,0-0.001,0-0.001,0s0,0,0,0.001v0.001
			C3.803,50.873,3.891,50.96,4,50.96C4.11,50.96,4.199,50.87,4.2,50.761z"/>
		<path fill="#E4C95C" d="M60.2,20.324c0.001-0.101,0.036-0.601,0.6-0.601c0.001,0,0.001,0,0.001,0c0.001,0,0.002,0,0.003,0h0h0.001
			h0.001c0,0,0,0,0.001,0C60.913,19.72,61,19.631,61,19.523c0-0.11-0.089-0.199-0.199-0.2c-0.101-0.001-0.601-0.036-0.601-0.6
			c0-0.111-0.089-0.2-0.2-0.2s-0.2,0.089-0.2,0.2c0,0.564-0.5,0.599-0.601,0.6c-0.11,0.001-0.199,0.09-0.199,0.2
			c0,0.111,0.089,0.2,0.2,0.2c0.565,0,0.599,0.501,0.6,0.6c0,0.001,0,0.001,0,0.001c0,0.001,0.001,0.003,0,0.003v0.001c0,0,0,0,0,0
			v0.001c0.003,0.108,0.091,0.194,0.2,0.194C60.11,20.523,60.199,20.434,60.2,20.324z"/>
		<path fill="#E4C95C" d="M14.85,23.943c0.001-0.101,0.036-0.601,0.6-0.601c0.001,0,0.001,0,0.001,0c0.001,0,0.002,0,0.003,0h0
			h0.001h0.001c0,0,0,0,0.001,0c0.108-0.003,0.194-0.091,0.194-0.2c0-0.11-0.089-0.199-0.199-0.2
			c-0.101-0.001-0.601-0.036-0.601-0.6c0-0.111-0.089-0.2-0.2-0.2c-0.111,0-0.2,0.089-0.2,0.2c0,0.564-0.5,0.599-0.601,0.6
			c-0.11,0.001-0.199,0.09-0.199,0.2c0,0.111,0.089,0.2,0.2,0.2c0.565,0,0.599,0.501,0.6,0.6v0.001c0,0.001,0.001,0.003,0.001,0.003
			l-0.001,0v0v0.001c0.003,0.108,0.091,0.194,0.2,0.194C14.76,24.142,14.849,24.053,14.85,23.943z"/>
	</g>
</g>
</svg>
