<?xml version="1.0" encoding="utf-8"?>
<!-- Generator: Adobe Illustrator 17.0.0, SVG Export Plug-In . SVG Version: 6.00 Build 0)  -->
<!DOCTYPE svg PUBLIC "-//W3C//DTD SVG 1.1//EN" "http://www.w3.org/Graphics/SVG/1.1/DTD/svg11.dtd">
<svg version="1.1" xmlns="http://www.w3.org/2000/svg" xmlns:xlink="http://www.w3.org/1999/xlink" x="0px" y="0px" width="64px"
	 height="64px" viewBox="0 0 64 64" enable-background="new 0 0 64 64" xml:space="preserve">
<g id="Layer_4">
</g>
<g id="Layer_3">
</g>
<g id="Layer_2">
</g>
<g id="Layer_1">
</g>
<g id="Layer_5">
	<g>
		<g>
			<g>
				<g>
					<g>
						<path fill="#FBFFFF" d="M59.5,31.287c0-15.188-12.312-27.5-27.5-27.5S4.5,16.099,4.5,31.287
							c0,9.396,4.715,17.687,11.905,22.647h31.191C54.785,48.973,59.5,40.682,59.5,31.287z"/>
					</g>
				</g>
				<g>
					<path fill="#2D346A" d="M54.794,54.684H9.206c-0.414,0-0.75-0.336-0.75-0.75s0.336-0.75,0.75-0.75h45.588
						c0.414,0,0.75,0.336,0.75,0.75S55.208,54.684,54.794,54.684z"/>
				</g>
				<g>
					<path fill="#FFFFFF" d="M46,57.919H18c-0.414,0-0.75-0.336-0.75-0.75s0.336-0.75,0.75-0.75h28c0.414,0,0.75,0.336,0.75,0.75
						S46.414,57.919,46,57.919z"/>
				</g>
				<g>
					<g>
						<path fill="#FFFFFF" d="M38.766,61.154h-3.487c-0.414,0-0.75-0.336-0.75-0.75s0.336-0.75,0.75-0.75h3.487
							c0.414,0,0.75,0.336,0.75,0.75S39.18,61.154,38.766,61.154z"/>
					</g>
					<g>
						<path fill="#FFFFFF" d="M32.521,61.154H21.538c-0.414,0-0.75-0.336-0.75-0.75s0.336-0.75,0.75-0.75h10.982
							c0.414,0,0.75,0.336,0.75,0.75S32.935,61.154,32.521,61.154z"/>
					</g>
					<g>
						<path fill="#FFFFFF" d="M42.462,61.154h-0.938c-0.414,0-0.75-0.336-0.75-0.75s0.336-0.75,0.75-0.75h0.938
							c0.414,0,0.75,0.336,0.75,0.75S42.876,61.154,42.462,61.154z"/>
					</g>
				</g>
			</g>
			<g>
				<g>
					<g>
						<rect x="22.375" y="23.765" fill="#E8F3FF" width="30.169" height="30.169"/>
					</g>
					<g>
						<rect x="45.484" y="23.765" fill="#C3CCE9" width="7.06" height="30.169"/>
					</g>
					<g>
						<g>
							<path fill="#2D346A" d="M45.484,27.515c-0.414,0-0.75-0.336-0.75-0.75v-2c0-0.414,0.336-0.75,0.75-0.75s0.75,0.336,0.75,0.75
								v2C46.234,27.179,45.898,27.515,45.484,27.515z"/>
						</g>
						<g>
							<path fill="#2D346A" d="M45.484,49.088c-0.414,0-0.75-0.336-0.75-0.75v-3.595c0-0.414,0.336-0.75,0.75-0.75
								s0.75,0.336,0.75,0.75v3.595C46.234,48.752,45.898,49.088,45.484,49.088z M45.484,41.897c-0.414,0-0.75-0.336-0.75-0.75
								v-3.596c0-0.414,0.336-0.75,0.75-0.75s0.75,0.336,0.75,0.75v3.596C46.234,41.562,45.898,41.897,45.484,41.897z
								 M45.484,34.706c-0.414,0-0.75-0.336-0.75-0.75V30.36c0-0.414,0.336-0.75,0.75-0.75s0.75,0.336,0.75,0.75v3.596
								C46.234,34.37,45.898,34.706,45.484,34.706z"/>
						</g>
						<g>
							<path fill="#2D346A" d="M45.484,54.684c-0.414,0-0.75-0.336-0.75-0.75v-2c0-0.414,0.336-0.75,0.75-0.75s0.75,0.336,0.75,0.75
								v2C46.234,54.348,45.898,54.684,45.484,54.684z"/>
						</g>
					</g>
					<g>
						<path fill="#2D346A" d="M52.544,54.684H22.375c-0.414,0-0.75-0.336-0.75-0.75V23.765c0-0.414,0.336-0.75,0.75-0.75h27.169
							c0.414,0,0.75,0.336,0.75,0.75s-0.336,0.75-0.75,0.75H23.125v28.669h28.669V23.765c0-0.414,0.336-0.75,0.75-0.75
							s0.75,0.336,0.75,0.75v30.169C53.294,54.348,52.958,54.684,52.544,54.684z"/>
					</g>
				</g>
				<g>
					<g>
						<polygon fill="#E8F3FF" points="31.628,16.846 14.65,53.934 48.606,53.934 						"/>
					</g>
					<g>
						<polygon fill="#C3CCE9" points="31.628,16.846 35.415,53.934 48.606,53.934 						"/>
					</g>
					<g>
						<g>
							<path fill="#2D346A" d="M31.83,19.585c-0.38,0-0.706-0.288-0.745-0.674l-0.203-1.989c-0.042-0.412,0.258-0.78,0.67-0.822
								c0.406-0.041,0.781,0.259,0.822,0.67l0.203,1.989c0.042,0.412-0.258,0.78-0.67,0.822
								C31.882,19.584,31.855,19.585,31.83,19.585z"/>
						</g>
						<g>
							<path fill="#2D346A" d="M34.835,49.015c-0.38,0-0.706-0.287-0.745-0.674l-0.376-3.679c-0.042-0.412,0.258-0.78,0.67-0.822
								c0.403-0.044,0.78,0.257,0.822,0.67l0.376,3.679c0.042,0.412-0.258,0.78-0.67,0.822
								C34.887,49.014,34.86,49.015,34.835,49.015z M34.084,41.657c-0.38,0-0.706-0.287-0.745-0.674l-0.376-3.679
								c-0.042-0.412,0.258-0.78,0.67-0.822c0.406-0.044,0.781,0.257,0.822,0.67l0.376,3.679c0.042,0.412-0.258,0.78-0.67,0.822
								C34.136,41.656,34.109,41.657,34.084,41.657z M33.333,34.3c-0.38,0-0.706-0.287-0.745-0.674l-0.376-3.679
								c-0.042-0.412,0.258-0.78,0.67-0.822c0.409-0.044,0.78,0.258,0.822,0.67l0.376,3.679c0.042,0.412-0.258,0.78-0.67,0.822
								C33.385,34.299,33.358,34.3,33.333,34.3z M32.582,26.942c-0.38,0-0.706-0.287-0.745-0.674l-0.376-3.679
								c-0.042-0.412,0.258-0.78,0.67-0.822c0.404-0.043,0.78,0.258,0.822,0.67l0.376,3.679c0.042,0.412-0.258,0.78-0.67,0.822
								C32.634,26.941,32.607,26.942,32.582,26.942z"/>
						</g>
						<g>
							<path fill="#2D346A" d="M35.414,54.684c-0.38,0-0.706-0.288-0.745-0.674l-0.203-1.989c-0.042-0.412,0.258-0.78,0.67-0.822
								c0.407-0.045,0.781,0.259,0.822,0.67l0.203,1.989c0.042,0.412-0.258,0.78-0.67,0.822
								C35.466,54.683,35.439,54.684,35.414,54.684z"/>
						</g>
					</g>
					<g>
						<path fill="#2D346A" d="M48.606,54.684H14.649c-0.255,0-0.493-0.13-0.631-0.345c-0.139-0.215-0.157-0.485-0.051-0.718
							l16.979-37.088c0.244-0.533,1.119-0.533,1.363,0l8.95,19.552c0.173,0.377,0.007,0.822-0.369,0.994
							c-0.378,0.176-0.821,0.008-0.994-0.369l-8.269-18.063L15.817,53.184h31.621l-6.096-13.316
							c-0.173-0.377-0.007-0.822,0.369-0.994c0.38-0.174,0.821-0.007,0.994,0.369l6.582,14.379c0.106,0.232,0.088,0.503-0.051,0.718
							C49.1,54.554,48.861,54.684,48.606,54.684z"/>
					</g>
				</g>
				<g>
					<g>
						<circle fill="#E8F3FF" cx="17.577" cy="41.552" r="12.381"/>
					</g>
					<g>
						<path fill="#2D346A" d="M17.6,54.685c-0.385,0-0.771-0.017-1.159-0.051c-3.495-0.304-6.662-1.95-8.918-4.636
							c-4.656-5.544-3.935-13.843,1.608-18.5c5.545-4.658,13.845-3.936,18.501,1.608c0.267,0.317,0.226,0.79-0.092,1.057
							c-0.316,0.266-0.79,0.226-1.057-0.092c-4.126-4.911-11.479-5.551-16.388-1.425c-4.91,4.125-5.549,11.477-1.425,16.387
							c1.998,2.379,4.804,3.838,7.899,4.106c3.095,0.274,6.109-0.685,8.488-2.682c4.203-3.53,5.365-9.594,2.764-14.417
							c-0.196-0.365-0.061-0.82,0.304-1.017c0.366-0.196,0.82-0.06,1.017,0.304c2.938,5.447,1.626,12.293-3.119,16.278
							C23.636,53.612,20.682,54.685,17.6,54.685z"/>
					</g>
					<g>
						
							<path fill="none" stroke="#2D346A" stroke-width="1.5" stroke-linecap="round" stroke-linejoin="round" stroke-miterlimit="10" d="
							M27.057,33.589"/>
					</g>
				</g>
			</g>
			<g>
				<path fill="#FFFFFF" d="M62.4,47.244c0.002-0.201,0.071-1.202,1.2-1.202c0.002,0,0.002,0,0.003,0c0.001,0,0.003,0,0.005,0h0
					c0.001,0,0.001,0,0.001,0h0.001c0,0,0.001,0,0.001,0c0.215-0.006,0.388-0.183,0.388-0.4c0-0.22-0.178-0.399-0.398-0.4
					c-0.201-0.002-1.202-0.072-1.202-1.2c0-0.221-0.179-0.4-0.4-0.4c-0.221,0-0.4,0.179-0.4,0.4c0,1.128-1.001,1.198-1.202,1.2
					c-0.22,0.001-0.398,0.18-0.398,0.4c0,0.221,0.179,0.4,0.4,0.4c1.129,0,1.198,1.001,1.2,1.2c0,0.001,0,0.002,0,0.002
					c0,0.003,0.001,0.006,0,0.006v0.001c0,0,0,0.001,0,0.001c0,0.001,0,0.001,0,0.002c0.006,0.215,0.183,0.388,0.4,0.388
					C62.22,47.642,62.399,47.464,62.4,47.244z"/>
			</g>
			<g>
				<path fill="#E4C95C" d="M41.096,18.198c0.002-0.201,0.071-1.202,1.2-1.202c0.002,0,0.002,0,0.003,0c0.002,0,0.003,0,0.005,0h0
					c0.001,0,0.001,0,0.001,0h0.001c0,0,0.001,0,0.002,0c0.215-0.006,0.388-0.183,0.388-0.4c0-0.22-0.178-0.399-0.398-0.4
					c-0.201-0.002-1.202-0.071-1.202-1.2c0-0.221-0.179-0.4-0.4-0.4c-0.221,0-0.4,0.179-0.4,0.4c0,1.129-1.001,1.198-1.202,1.2
					c-0.22,0.001-0.398,0.18-0.398,0.4c0,0.221,0.179,0.4,0.4,0.4c1.129,0,1.198,1.002,1.2,1.2c0,0.002,0,0.002,0,0.002
					c0,0.003,0.001,0.006,0,0.006v0.001v0.001c0,0.001,0,0.001,0,0.002c0.006,0.215,0.183,0.388,0.4,0.388
					C40.917,18.596,41.095,18.417,41.096,18.198z"/>
			</g>
			<g>
				<path fill="#FFFFFF" d="M2.4,16.198c0.002-0.201,0.072-1.202,1.2-1.202c0.002,0,0.002,0,0.002,0c0.002,0,0.004,0,0.005,0h0
					c0.001,0,0.001,0,0.001,0H3.61c0,0,0.001,0,0.002,0C3.827,14.989,4,14.813,4,14.596c0-0.22-0.178-0.399-0.398-0.4
					c-0.201-0.002-1.202-0.071-1.202-1.2c0-0.221-0.179-0.4-0.4-0.4c-0.221,0-0.4,0.179-0.4,0.4c0,1.129-1.001,1.198-1.202,1.2
					C0.178,14.197,0,14.375,0,14.596c0,0.221,0.179,0.4,0.4,0.4c1.129,0,1.198,1.002,1.2,1.2c0,0.002,0,0.002,0,0.003
					c0,0.002,0.001,0.005,0,0.005c0,0.001,0,0.001,0,0.001v0.001c0,0,0,0.001,0,0.002c0.006,0.215,0.183,0.388,0.4,0.388
					C2.22,16.596,2.399,16.417,2.4,16.198z"/>
			</g>
			<g>
				<path fill="#FFFFFF" d="M4.2,50.856c0.001-0.101,0.036-0.601,0.6-0.601h0.001h0.002h0h0.001h0.001h0
					C4.913,50.252,5,50.164,5,50.055c0-0.11-0.089-0.199-0.199-0.2C4.7,49.854,4.2,49.819,4.2,49.255c0-0.111-0.089-0.2-0.2-0.2
					c-0.111,0-0.2,0.09-0.2,0.2c0,0.564-0.5,0.599-0.601,0.6C3.089,49.856,3,49.945,3,50.055c0,0.111,0.089,0.2,0.2,0.2
					c0.565,0,0.599,0.501,0.6,0.6v0.001c0,0.001,0.001,0.003,0.001,0.003c-0.001,0-0.001,0-0.001,0v0.001v0.001
					c0.003,0.108,0.091,0.194,0.2,0.194C4.11,51.055,4.199,50.966,4.2,50.856z"/>
			</g>
			<g>
				<path fill="#FFFFFF" d="M60.2,20.419c0.001-0.101,0.036-0.601,0.6-0.601c0.001,0,0.001,0,0.001,0c0.001,0,0.002,0,0.003,0h0
					h0.001h0.001c0,0,0,0,0.001,0c0.108-0.003,0.194-0.091,0.194-0.2c0-0.11-0.089-0.199-0.199-0.2
					c-0.101-0.001-0.601-0.036-0.601-0.6c0-0.111-0.089-0.2-0.2-0.2c-0.111,0-0.2,0.09-0.2,0.2c0,0.564-0.5,0.599-0.601,0.6
					c-0.11,0.001-0.199,0.09-0.199,0.2c0,0.111,0.09,0.2,0.2,0.2c0.565,0,0.599,0.501,0.6,0.6c0,0.001,0,0.001,0,0.001
					c0,0.001,0.001,0.003,0,0.003v0.001c0,0,0,0,0,0v0.001c0.003,0.108,0.091,0.194,0.2,0.194
					C60.11,20.618,60.199,20.529,60.2,20.419z"/>
			</g>
			<g>
				<path fill="#E4C95C" d="M14.85,24.038c0.001-0.101,0.036-0.601,0.6-0.601c0.001,0,0.001,0,0.001,0c0.001,0,0.002,0,0.002,0
					h0.001h0.001h0c0,0,0,0,0.001,0c0.108-0.003,0.194-0.091,0.194-0.2c0-0.11-0.089-0.199-0.199-0.2
					c-0.101-0.001-0.601-0.036-0.601-0.6c0-0.111-0.09-0.2-0.2-0.2c-0.111,0-0.2,0.09-0.2,0.2c0,0.564-0.5,0.599-0.601,0.6
					c-0.11,0.001-0.199,0.09-0.199,0.2c0,0.111,0.089,0.2,0.2,0.2c0.565,0,0.599,0.501,0.6,0.6v0.001c0,0.001,0,0.003,0,0.003l0,0v0
					v0.001c0.003,0.108,0.091,0.194,0.2,0.194C14.76,24.237,14.849,24.148,14.85,24.038z"/>
			</g>
		</g>
	</g>
</g>
</svg>
