<?xml version="1.0" encoding="utf-8"?>
<!-- Generator: Adobe Illustrator 17.0.0, SVG Export Plug-In . SVG Version: 6.00 Build 0)  -->
<!DOCTYPE svg PUBLIC "-//W3C//DTD SVG 1.1//EN" "http://www.w3.org/Graphics/SVG/1.1/DTD/svg11.dtd">
<svg version="1.1" xmlns="http://www.w3.org/2000/svg" xmlns:xlink="http://www.w3.org/1999/xlink" x="0px" y="0px" width="64px"
	 height="64px" viewBox="0 0 64 64" enable-background="new 0 0 64 64" xml:space="preserve">
<g id="Layer_4">
</g>
<g id="Layer_3">
</g>
<g id="Layer_2">
</g>
<g id="Layer_1">
</g>
<g id="Layer_5">
	<g>
		<g>
			<g>
				<g>
					<g>
						<path fill="#FBFFFF" d="M59.5,31.287c0-15.188-12.312-27.5-27.5-27.5S4.5,16.099,4.5,31.287
							c0,9.396,4.715,17.687,11.905,22.647h31.191C54.785,48.973,59.5,40.682,59.5,31.287z"/>
					</g>
				</g>
				<g>
					<path fill="#2D346A" d="M49.794,54.684H14.206c-0.414,0-0.75-0.336-0.75-0.75s0.336-0.75,0.75-0.75h35.588
						c0.414,0,0.75,0.336,0.75,0.75S50.208,54.684,49.794,54.684z"/>
				</g>
				<g>
					<path fill="#FFFFFF" d="M43.625,57.919h-23.25c-0.414,0-0.75-0.336-0.75-0.75s0.336-0.75,0.75-0.75h23.25
						c0.414,0,0.75,0.336,0.75,0.75S44.039,57.919,43.625,57.919z"/>
				</g>
				<g>
					<path fill="#FFFFFF" d="M32.313,61.154h-4.672c-0.414,0-0.75-0.336-0.75-0.75s0.336-0.75,0.75-0.75h4.672
						c0.414,0,0.75,0.336,0.75,0.75S32.728,61.154,32.313,61.154z"/>
				</g>
				<g>
					<path fill="#FFFFFF" d="M36.415,61.154h-1.249c-0.414,0-0.75-0.336-0.75-0.75s0.336-0.75,0.75-0.75h1.249
						c0.414,0,0.75,0.336,0.75,0.75S36.829,61.154,36.415,61.154z"/>
				</g>
			</g>
			<g>
				<g>
					<path fill="#E8F3FF" d="M56.506,33.808c-2.075-11.49-12.105-20.212-24.193-20.212c-12.087,0-22.118,8.722-24.192,20.212H4.707
						v9.788h55.214v-9.788H56.506z M17.127,33.808c1.906-6.596,7.977-11.424,15.187-11.424c7.21,0,13.281,4.828,15.187,11.424
						H17.127z"/>
				</g>
				<g>
					<path fill="#C3CCE9" d="M16.185,44.346c-0.414,0-0.75-0.336-0.75-0.75v-1.541c0-0.414,0.336-0.75,0.75-0.75
						s0.75,0.336,0.75,0.75v1.541C16.935,44.01,16.599,44.346,16.185,44.346z"/>
				</g>
				<g>
					<path fill="#C3CCE9" d="M8.121,44.346c-0.414,0-0.75-0.336-0.75-0.75v-1.541c0-0.414,0.336-0.75,0.75-0.75
						s0.75,0.336,0.75,0.75v1.541C8.871,44.01,8.535,44.346,8.121,44.346z"/>
				</g>
				<g>
					<path fill="#C3CCE9" d="M24.248,44.346c-0.414,0-0.75-0.336-0.75-0.75v-1.541c0-0.414,0.336-0.75,0.75-0.75
						s0.75,0.336,0.75,0.75v1.541C24.998,44.01,24.662,44.346,24.248,44.346z"/>
				</g>
				<g>
					<path fill="#C3CCE9" d="M48.437,44.346c-0.414,0-0.75-0.336-0.75-0.75v-1.541c0-0.414,0.336-0.75,0.75-0.75
						s0.75,0.336,0.75,0.75v1.541C49.187,44.01,48.851,44.346,48.437,44.346z"/>
				</g>
				<g>
					<path fill="#C3CCE9" d="M56.5,44.346c-0.414,0-0.75-0.336-0.75-0.75v-1.541c0-0.414,0.336-0.75,0.75-0.75s0.75,0.336,0.75,0.75
						v1.541C57.25,44.01,56.914,44.346,56.5,44.346z"/>
				</g>
				<g>
					<path fill="#C3CCE9" d="M40.374,44.346c-0.414,0-0.75-0.336-0.75-0.75v-1.541c0-0.414,0.336-0.75,0.75-0.75
						s0.75,0.336,0.75,0.75v1.541C41.124,44.01,40.788,44.346,40.374,44.346z"/>
				</g>
				<g>
					<path fill="#C3CCE9" d="M32.311,44.346c-0.414,0-0.75-0.336-0.75-0.75v-1.541c0-0.414,0.336-0.75,0.75-0.75
						s0.75,0.336,0.75,0.75v1.541C33.061,44.01,32.725,44.346,32.311,44.346z"/>
				</g>
				<g>
					<path fill="#2D346A" d="M59.921,44.346H4.707c-0.414,0-0.75-0.336-0.75-0.75v-9.788c0-0.414,0.336-0.75,0.75-0.75h2.796
						c1.422-6.891,5.667-12.905,11.722-16.57c0.354-0.213,0.815-0.102,1.03,0.253c0.214,0.354,0.101,0.815-0.253,1.03
						c-5.866,3.552-9.927,9.445-11.142,16.171c-0.065,0.356-0.375,0.616-0.738,0.616H5.457v8.288h53.714v-8.288h-2.665
						c-0.363,0-0.674-0.26-0.738-0.617c-2.05-11.354-11.914-19.595-23.455-19.595c-3.179,0-6.264,0.615-9.169,1.829
						c-0.382,0.159-0.821-0.021-0.981-0.403c-0.16-0.382,0.021-0.821,0.403-0.981c3.089-1.29,6.369-1.944,9.747-1.944
						c12.057,0,22.393,8.462,24.812,20.212h2.796c0.414,0,0.75,0.336,0.75,0.75v9.788C60.671,44.01,60.335,44.346,59.921,44.346z
						 M47.5,34.558c-0.325,0-0.625-0.214-0.72-0.542c-1.851-6.407-7.8-10.882-14.466-10.882c-6.329,0-12.01,4.033-14.154,9.924H44.5
						c0.414,0,0.75,0.336,0.75,0.75s-0.336,0.75-0.75,0.75H17.127c-0.236,0-0.458-0.11-0.6-0.299
						c-0.142-0.188-0.187-0.433-0.121-0.659c2.036-7.045,8.577-11.966,15.907-11.966c7.331,0,13.872,4.921,15.908,11.966
						c0.115,0.397-0.115,0.813-0.513,0.929C47.639,34.548,47.569,34.558,47.5,34.558z"/>
				</g>
				<g>
					<path fill="#2D346A" d="M10.625,34.558H8.121c-0.414,0-0.75-0.336-0.75-0.75s0.336-0.75,0.75-0.75h2.504
						c0.414,0,0.75,0.336,0.75,0.75S11.039,34.558,10.625,34.558z"/>
				</g>
				<g>
					<path fill="#2D346A" d="M52.794,34.558H50.5c-0.414,0-0.75-0.336-0.75-0.75s0.336-0.75,0.75-0.75h2.293
						c0.414,0,0.75,0.336,0.75,0.75S53.208,34.558,52.794,34.558z"/>
				</g>
				<g>
					<path fill="#2D346A" d="M44.405,44.346c-0.414,0-0.75-0.336-0.75-0.75v-2.46c0-0.414,0.336-0.75,0.75-0.75
						s0.75,0.336,0.75,0.75v2.46C45.155,44.01,44.819,44.346,44.405,44.346z"/>
				</g>
				<g>
					<path fill="#2D346A" d="M52.468,44.346c-0.414,0-0.75-0.336-0.75-0.75v-2.46c0-0.414,0.336-0.75,0.75-0.75
						s0.75,0.336,0.75,0.75v2.46C53.218,44.01,52.882,44.346,52.468,44.346z"/>
				</g>
				<g>
					<path fill="#2D346A" d="M36.342,44.346c-0.414,0-0.75-0.336-0.75-0.75v-2.46c0-0.414,0.336-0.75,0.75-0.75
						s0.75,0.336,0.75,0.75v2.46C37.092,44.01,36.756,44.346,36.342,44.346z"/>
				</g>
				<g>
					<path fill="#2D346A" d="M28.279,44.346c-0.414,0-0.75-0.336-0.75-0.75v-2.46c0-0.414,0.336-0.75,0.75-0.75
						s0.75,0.336,0.75,0.75v2.46C29.029,44.01,28.693,44.346,28.279,44.346z"/>
				</g>
				<g>
					<path fill="#2D346A" d="M20.216,44.346c-0.414,0-0.75-0.336-0.75-0.75v-2.46c0-0.414,0.336-0.75,0.75-0.75
						s0.75,0.336,0.75,0.75v2.46C20.966,44.01,20.63,44.346,20.216,44.346z"/>
				</g>
				<g>
					<path fill="#2D346A" d="M12.153,44.346c-0.414,0-0.75-0.336-0.75-0.75v-2.46c0-0.414,0.336-0.75,0.75-0.75
						s0.75,0.336,0.75,0.75v2.46C12.903,44.01,12.567,44.346,12.153,44.346z"/>
				</g>
				<g>
					<path fill="#C3CCE9" d="M48.913,27.757c-0.241,0-0.477-0.115-0.622-0.33c-3.59-5.315-9.558-8.488-15.963-8.488
						c-0.414,0-0.75-0.336-0.75-0.75s0.336-0.75,0.75-0.75c6.904,0,13.336,3.42,17.206,9.148c0.232,0.344,0.142,0.81-0.202,1.041
						C49.203,27.715,49.057,27.757,48.913,27.757z"/>
				</g>
			</g>
			<g>
				<path fill="#FFFFFF" d="M1.2,47.856c0.001-0.101,0.036-0.601,0.6-0.601h0.001h0.002h0h0.001h0.001h0
					C1.914,47.252,2,47.164,2,47.055c0-0.11-0.089-0.199-0.199-0.2C1.7,46.854,1.2,46.819,1.2,46.255c0-0.111-0.089-0.2-0.2-0.2
					c-0.11,0-0.2,0.09-0.2,0.2c0,0.564-0.5,0.599-0.601,0.6C0.089,46.856,0,46.945,0,47.055c0,0.111,0.09,0.2,0.2,0.2
					c0.565,0,0.599,0.501,0.6,0.6v0.001c0,0.001,0.001,0.003,0.001,0.003c-0.001,0-0.001,0-0.001,0v0.001v0.001
					c0.003,0.108,0.091,0.194,0.2,0.194C1.11,48.055,1.199,47.966,1.2,47.856z"/>
			</g>
			<g>
				<path fill="#E4C95C" d="M21.448,50.419c0.001-0.101,0.036-0.601,0.6-0.601h0.001h0.002h0h0h0.001h0
					c0.108-0.003,0.195-0.091,0.195-0.2c0-0.11-0.089-0.199-0.199-0.2c-0.101-0.001-0.601-0.036-0.601-0.6
					c0-0.111-0.089-0.2-0.2-0.2c-0.111,0-0.2,0.09-0.2,0.2c0,0.564-0.5,0.599-0.601,0.6c-0.11,0.001-0.199,0.09-0.199,0.2
					c0,0.111,0.089,0.2,0.2,0.2c0.565,0,0.599,0.501,0.6,0.6v0.001c0,0.001,0.001,0.003,0.001,0.003l-0.001,0v0.001v0.001
					c0.003,0.108,0.091,0.194,0.2,0.194C21.358,50.618,21.447,50.529,21.448,50.419z"/>
			</g>
			<g>
				<path fill="#E4C95C" d="M43.825,12.152c0.001-0.101,0.036-0.601,0.6-0.601h0.001h0.002h0h0.001h0.001h0
					c0.108-0.003,0.194-0.091,0.194-0.2c0-0.11-0.089-0.199-0.199-0.2c-0.101-0.001-0.601-0.036-0.601-0.6
					c0-0.111-0.089-0.2-0.2-0.2c-0.11,0-0.2,0.09-0.2,0.2c0,0.564-0.5,0.599-0.601,0.6c-0.11,0.001-0.199,0.09-0.199,0.2
					c0,0.111,0.09,0.2,0.2,0.2c0.565,0,0.599,0.501,0.6,0.6v0.001c0,0.001,0.001,0.003,0.001,0.003c-0.001,0-0.001,0-0.001,0v0.001
					v0.001c0.003,0.108,0.091,0.194,0.2,0.194C43.735,12.351,43.824,12.262,43.825,12.152z"/>
			</g>
			<g>
				<path fill="#FFFFFF" d="M63.2,19.213c0.001-0.101,0.036-0.601,0.6-0.601h0.001h0.002h0h0.001h0.001h0
					c0.108-0.003,0.194-0.091,0.194-0.2c0-0.11-0.089-0.199-0.199-0.2c-0.101-0.001-0.601-0.036-0.601-0.6
					c0-0.111-0.089-0.2-0.2-0.2c-0.111,0-0.2,0.089-0.2,0.2c0,0.564-0.5,0.599-0.601,0.6c-0.11,0.001-0.199,0.09-0.199,0.2
					c0,0.111,0.09,0.2,0.2,0.2c0.565,0,0.599,0.501,0.6,0.6v0.001c0,0.001,0.001,0.003,0.001,0.003c-0.001,0-0.001,0-0.001,0
					s0,0,0,0.001v0.001c0.003,0.108,0.091,0.194,0.2,0.194C63.11,19.412,63.199,19.323,63.2,19.213z"/>
			</g>
			<g>
				<path fill="#FFFFFF" d="M5.908,11.198c0.002-0.201,0.071-1.202,1.2-1.202c0.001,0,0.002,0,0.002,0c0.002,0,0.004,0,0.005,0h0
					c0.001,0,0.001,0,0.001,0h0.001c0,0,0.001,0,0.002,0c0.215-0.006,0.388-0.183,0.388-0.4c0-0.22-0.178-0.399-0.398-0.4
					c-0.201-0.002-1.202-0.071-1.202-1.2c0-0.221-0.179-0.4-0.4-0.4c-0.221,0-0.4,0.179-0.4,0.4c0,1.129-1.001,1.198-1.202,1.2
					c-0.22,0.001-0.398,0.18-0.398,0.4c0,0.221,0.179,0.4,0.4,0.4c1.129,0,1.198,1.002,1.2,1.2c0,0.002,0,0.002,0,0.003
					c0,0.002,0.001,0.005,0,0.005c0,0.001,0,0.001,0,0.001v0.001c0,0,0,0.001,0,0.002c0.006,0.215,0.183,0.388,0.4,0.388
					C5.729,11.596,5.907,11.417,5.908,11.198z"/>
			</g>
			<g>
				<path fill="#FFFFFF" d="M59.9,55.536c0.002-0.201,0.071-1.202,1.2-1.202c0.002,0,0.002,0,0.002,0c0.002,0,0.004,0,0.005,0h0
					c0.001,0,0.001,0,0.001,0h0.001c0,0,0.001,0,0.001,0c0.215-0.006,0.388-0.183,0.388-0.4c0-0.22-0.178-0.399-0.398-0.4
					c-0.201-0.002-1.202-0.072-1.202-1.2c0-0.221-0.179-0.4-0.4-0.4c-0.221,0-0.4,0.179-0.4,0.4c0,1.128-1.001,1.198-1.202,1.2
					c-0.22,0.001-0.398,0.18-0.398,0.4c0,0.221,0.179,0.4,0.4,0.4c1.129,0,1.198,1.002,1.2,1.2c0,0.002,0,0.002,0,0.003
					c0,0.002,0.001,0.006,0,0.005c0,0.001,0,0.001,0,0.001v0.001c0,0,0,0.001,0,0.002c0.006,0.215,0.183,0.388,0.4,0.388
					C59.72,55.934,59.899,55.756,59.9,55.536z"/>
			</g>
		</g>
	</g>
</g>
</svg>
