<?xml version="1.0" encoding="utf-8"?>
<!-- Generator: Adobe Illustrator 17.0.0, SVG Export Plug-In . SVG Version: 6.00 Build 0)  -->
<!DOCTYPE svg PUBLIC "-//W3C//DTD SVG 1.1//EN" "http://www.w3.org/Graphics/SVG/1.1/DTD/svg11.dtd">
<svg version="1.1" xmlns="http://www.w3.org/2000/svg" xmlns:xlink="http://www.w3.org/1999/xlink" x="0px" y="0px" width="64px"
	 height="64px" viewBox="0 0 64 64" enable-background="new 0 0 64 64" xml:space="preserve">
<g id="Layer_4">
</g>
<g id="Layer_3">
</g>
<g id="Layer_2">
</g>
<g id="Layer_1">
</g>
<g id="Layer_5">
	<g>
		<g>
			<g>
				<path fill="#FBE2CB" d="M59.5,31.191c0-15.188-12.312-27.5-27.5-27.5S4.5,16.003,4.5,31.191c0,9.396,4.715,17.687,11.905,22.647
					h31.191C54.785,48.878,59.5,40.587,59.5,31.191z"/>
			</g>
			
				<line fill="none" stroke="#2D346A" stroke-width="1.5" stroke-linecap="round" stroke-miterlimit="10" x1="14.206" y1="53.838" x2="49.794" y2="53.838"/>
			
				<line fill="none" stroke="#C3CCE9" stroke-width="1.5" stroke-linecap="round" stroke-linejoin="round" stroke-miterlimit="10" x1="20.375" y1="57.074" x2="43.625" y2="57.074"/>
			
				<line fill="none" stroke="#C3CCE9" stroke-width="1.5" stroke-linecap="round" stroke-linejoin="round" stroke-miterlimit="10" x1="27.641" y1="60.309" x2="32.314" y2="60.309"/>
			
				<line fill="none" stroke="#C3CCE9" stroke-width="1.5" stroke-linecap="round" stroke-linejoin="round" stroke-miterlimit="10" x1="35.166" y1="60.309" x2="36.415" y2="60.309"/>
		</g>
		<g>
			<path fill="#C3CCE9" d="M48.936,24.064c0-1.657-1.343-3-3-3H25.064c-1.657,0-3,1.343-3,3v20.873c0,1.657,1.343,3,3,3h20.873
				c1.657,0,3-1.343,3-3V24.064z"/>
			<path fill="#E8F3FF" d="M41.936,17.064c0-1.657-1.343-3-3-3H18.064c-1.657,0-3,1.343-3,3v20.873c0,1.657,1.343,3,3,3h20.873
				c1.657,0,3-1.343,3-3V17.064z"/>
			<path fill="none" stroke="#2D346A" stroke-width="1.5" stroke-linecap="round" stroke-miterlimit="10" d="M45.936,47.936
				c1.657,0,3-1.343,3-3V24.064c0-1.657-1.343-3-3-3h-4"/>
			<path fill="none" stroke="#2D346A" stroke-width="1.5" stroke-linecap="round" stroke-miterlimit="10" d="M22.064,40.936v4
				c0,1.657,1.343,3,3,3h17.873"/>
			
				<path fill="none" stroke="#2D346A" stroke-width="1.5" stroke-linecap="round" stroke-linejoin="round" stroke-miterlimit="10" d="
				M35.936,14.064H18.064c-1.657,0-3,1.343-3,3v20.873c0,1.657,1.343,3,3,3h20.873c1.657,0,3-1.343,3-3V17.064c0-1.657-1.343-3-3-3"
				/>
			
				<polygon fill="#FFFFFF" stroke="#2D346A" stroke-width="1.5" stroke-linecap="round" stroke-linejoin="round" stroke-miterlimit="10" points="
				33.5,25.891 30.109,25.891 30.109,22.5 26.891,22.5 26.891,25.891 23.5,25.891 23.5,29.109 26.891,29.109 26.891,32.5 
				30.109,32.5 30.109,29.109 33.5,29.109 			"/>
		</g>
		<path fill="#E4C95C" d="M57.672,11.577c0.002-0.201,0.071-1.202,1.2-1.202c0.002,0,0.002,0,0.003,0c0.002,0,0.003,0,0.005,0h0
			c0.001,0,0.001,0,0.001,0h0.001c0,0,0.001,0,0.002,0c0.215-0.006,0.388-0.183,0.388-0.4c0-0.22-0.178-0.399-0.398-0.4
			c-0.201-0.002-1.202-0.071-1.202-1.2c0-0.221-0.179-0.4-0.4-0.4c-0.221,0-0.4,0.179-0.4,0.4c0,1.129-1.001,1.198-1.202,1.2
			c-0.22,0.001-0.398,0.18-0.398,0.4c0,0.221,0.179,0.4,0.4,0.4c1.129,0,1.198,1.002,1.2,1.2c0,0.002,0,0.002,0,0.002
			c0,0.003,0.001,0.006,0,0.006v0.001v0.001c0,0,0,0.001,0,0.002c0.006,0.215,0.183,0.388,0.4,0.388
			C57.492,11.975,57.67,11.797,57.672,11.577z"/>
		<path fill="#E4C95C" d="M54.672,33.602c0.002-0.201,0.071-1.202,1.2-1.202c0.002,0,0.002,0,0.003,0c0.002,0,0.003,0,0.005,0h0
			c0.001,0,0.001,0,0.001,0h0.001c0,0,0.001,0,0.002,0c0.215-0.006,0.388-0.183,0.388-0.4c0-0.22-0.178-0.399-0.398-0.4
			c-0.201-0.002-1.202-0.071-1.202-1.2c0-0.221-0.179-0.4-0.4-0.4s-0.4,0.179-0.4,0.4c0,1.129-1.001,1.198-1.202,1.2
			c-0.22,0.001-0.398,0.18-0.398,0.4c0,0.221,0.179,0.4,0.4,0.4c1.129,0,1.198,1.002,1.2,1.2c0,0.002,0,0.002,0,0.002
			c0,0.003,0.001,0.006,0,0.006v0.001v0.001c0,0,0,0.001,0,0.002c0.006,0.215,0.183,0.388,0.4,0.388
			C54.492,34,54.67,33.822,54.672,33.602z"/>
		<path fill="#E4C95C" d="M27.041,10.577c0.002-0.201,0.071-1.202,1.2-1.202c0.002,0,0.002,0,0.003,0c0.002,0,0.003,0,0.005,0h0
			c0.001,0,0.001,0,0.001,0h0.001c0,0,0.001,0,0.002,0c0.215-0.006,0.388-0.183,0.388-0.4c0-0.22-0.178-0.399-0.398-0.4
			c-0.201-0.002-1.202-0.071-1.202-1.2c0-0.221-0.179-0.4-0.4-0.4s-0.4,0.179-0.4,0.4c0,1.129-1.001,1.198-1.202,1.2
			c-0.22,0.001-0.398,0.18-0.398,0.4c0,0.221,0.179,0.4,0.4,0.4c1.129,0,1.198,1.002,1.2,1.2c0,0.002,0,0.002,0,0.002
			c0,0.003,0.001,0.006,0,0.006v0.001v0.001c0,0,0,0.001,0,0.002c0.006,0.215,0.183,0.388,0.4,0.388
			C26.862,10.975,27.04,10.797,27.041,10.577z"/>
		<path fill="#E4C95C" d="M63.2,27.224c0.001-0.101,0.036-0.601,0.6-0.601h0.001h0.002h0h0.001h0.001h0
			C63.913,26.62,64,26.531,64,26.423c0-0.11-0.089-0.199-0.199-0.2c-0.101-0.001-0.601-0.036-0.601-0.6c0-0.111-0.089-0.2-0.2-0.2
			s-0.2,0.089-0.2,0.2c0,0.564-0.5,0.599-0.601,0.6c-0.11,0.001-0.199,0.09-0.199,0.2c0,0.111,0.089,0.2,0.2,0.2
			c0.565,0,0.599,0.501,0.6,0.6c0,0.001,0,0.001,0,0.001c0,0.001,0.001,0.003,0.001,0.003c-0.001,0-0.001,0-0.001,0v0.001v0.001
			c0.003,0.108,0.091,0.194,0.2,0.194C63.11,27.423,63.199,27.334,63.2,27.224z"/>
		<path fill="#E4C95C" d="M10.2,32.909c0.001-0.101,0.036-0.601,0.6-0.601h0.001h0.002h0h0.001h0.001h0
			c0.108-0.003,0.195-0.091,0.195-0.2c0-0.11-0.089-0.199-0.199-0.2c-0.101-0.001-0.601-0.036-0.601-0.6c0-0.111-0.089-0.2-0.2-0.2
			s-0.2,0.089-0.2,0.2c0,0.564-0.5,0.599-0.601,0.6C9.089,31.909,9,31.998,9,32.108c0,0.111,0.089,0.2,0.2,0.2
			c0.565,0,0.599,0.501,0.6,0.6c0,0.001,0,0.001,0,0.001c0,0.001,0.001,0.003,0.001,0.003c-0.001,0-0.001,0-0.001,0v0.001v0.001
			c0.003,0.108,0.091,0.194,0.2,0.194C10.11,33.108,10.199,33.019,10.2,32.909z"/>
		<path fill="#E4C95C" d="M1.2,15.502c0.001-0.101,0.036-0.601,0.6-0.601h0.001h0.002h0h0.001h0.001h0
			C1.913,14.898,2,14.81,2,14.701c0-0.11-0.089-0.199-0.199-0.2C1.7,14.5,1.2,14.466,1.2,13.901c0-0.111-0.089-0.2-0.2-0.2
			s-0.2,0.089-0.2,0.2c0,0.564-0.5,0.599-0.601,0.6C0.089,14.502,0,14.591,0,14.701c0,0.111,0.089,0.2,0.2,0.2
			c0.565,0,0.599,0.501,0.6,0.6c0,0.001,0,0.001,0,0.001c0,0.001,0.001,0.003,0.001,0.003c-0.001,0-0.001,0-0.001,0v0.001v0.001
			c0.003,0.108,0.091,0.194,0.2,0.194C1.11,15.701,1.199,15.612,1.2,15.502z"/>
		<path fill="#E4C95C" d="M4.9,50.852c0.002-0.201,0.071-1.202,1.2-1.202c0.002,0,0.002,0,0.003,0c0.002,0,0.003,0,0.005,0h0
			c0.001,0,0.001,0,0.001,0H6.11c0,0,0.001,0,0.002,0c0.215-0.006,0.388-0.183,0.388-0.4c0-0.22-0.178-0.399-0.398-0.4
			C5.901,48.848,4.9,48.779,4.9,47.65c0-0.221-0.179-0.4-0.4-0.4s-0.4,0.179-0.4,0.4c0,1.129-1.001,1.198-1.202,1.2
			c-0.22,0.001-0.398,0.18-0.398,0.4c0,0.221,0.179,0.4,0.4,0.4c1.129,0,1.198,1.002,1.2,1.2c0,0.002,0,0.002,0,0.002
			c0,0.003,0.001,0.006,0,0.006v0.001v0.001c0,0,0,0.001,0,0.002c0.006,0.215,0.183,0.388,0.4,0.388
			C4.72,51.25,4.899,51.072,4.9,50.852z"/>
	</g>
</g>
</svg>
