<?xml version="1.0" encoding="utf-8"?>
<!-- Generator: Adobe Illustrator 17.0.0, SVG Export Plug-In . SVG Version: 6.00 Build 0)  -->
<!DOCTYPE svg PUBLIC "-//W3C//DTD SVG 1.1//EN" "http://www.w3.org/Graphics/SVG/1.1/DTD/svg11.dtd">
<svg version="1.1" xmlns="http://www.w3.org/2000/svg" xmlns:xlink="http://www.w3.org/1999/xlink" x="0px" y="0px" width="64px"
	 height="64px" viewBox="0 0 64 64" enable-background="new 0 0 64 64" xml:space="preserve">
<g id="Layer_4">
</g>
<g id="Layer_3">
</g>
<g id="Layer_2">
</g>
<g id="Layer_1">
</g>
<g id="Layer_5">
	<g>
		<g>
			<g>
				<g>
					<g>
						<path fill="#FBFFFF" d="M59.5,31.287c0-15.188-12.312-27.5-27.5-27.5S4.5,16.099,4.5,31.287
							c0,9.396,4.715,17.687,11.905,22.647h31.191C54.785,48.973,59.5,40.682,59.5,31.287z"/>
					</g>
				</g>
				<g>
					<path fill="#2D346A" d="M49.794,54.684H14.206c-0.414,0-0.75-0.336-0.75-0.75s0.336-0.75,0.75-0.75h35.588
						c0.414,0,0.75,0.336,0.75,0.75S50.208,54.684,49.794,54.684z"/>
				</g>
				<g>
					<path fill="#FFFFFF" d="M43.625,57.919h-23.25c-0.414,0-0.75-0.336-0.75-0.75s0.336-0.75,0.75-0.75h23.25
						c0.414,0,0.75,0.336,0.75,0.75S44.039,57.919,43.625,57.919z"/>
				</g>
				<g>
					<path fill="#FFFFFF" d="M32.313,61.154h-4.672c-0.414,0-0.75-0.336-0.75-0.75s0.336-0.75,0.75-0.75h4.672
						c0.414,0,0.75,0.336,0.75,0.75S32.728,61.154,32.313,61.154z"/>
				</g>
				<g>
					<path fill="#FFFFFF" d="M36.415,61.154h-1.249c-0.414,0-0.75-0.336-0.75-0.75s0.336-0.75,0.75-0.75h1.249
						c0.414,0,0.75,0.336,0.75,0.75S36.829,61.154,36.415,61.154z"/>
				</g>
			</g>
			<g>
				<g>
					<path fill="#E8F3FF" d="M26.113,33.335v11.783c0,1.657,1.343,3,3,3h13.553c1.657,0,3-1.343,3-3V33.335H26.113z"/>
					<path fill="#2D346A" d="M42.666,48.868H29.113c-2.068,0-3.75-1.683-3.75-3.75V33.335c0-0.414,0.336-0.75,0.75-0.75h19.553
						c0.414,0,0.75,0.336,0.75,0.75v11.783C46.416,47.186,44.733,48.868,42.666,48.868z M26.863,34.085v11.033
						c0,1.24,1.009,2.25,2.25,2.25h13.553c1.24,0,2.25-1.01,2.25-2.25V34.085H26.863z"/>
				</g>
				<g>
					<path fill="#C3CCE9" d="M45.666,11.553c0-1.657-1.343-3-3-3H29.113c-1.657,0-3,1.343-3,3v21.783h19.553V11.553z"/>
					<path fill="#2D346A" d="M45.666,34.085H26.113c-0.414,0-0.75-0.336-0.75-0.75V11.553c0-2.067,1.682-3.75,3.75-3.75h13.553
						c2.067,0,3.75,1.683,3.75,3.75v21.782C46.416,33.749,46.08,34.085,45.666,34.085z M26.863,32.585h18.053V11.553
						c0-1.24-1.01-2.25-2.25-2.25H29.113c-1.241,0-2.25,1.01-2.25,2.25V32.585z"/>
				</g>
				<g>
					<path fill="#C3CCE9" d="M41.065,38.873H30.713c-0.414,0-0.75-0.336-0.75-0.75s0.336-0.75,0.75-0.75h10.352
						c0.414,0,0.75,0.336,0.75,0.75S41.479,38.873,41.065,38.873z"/>
				</g>
				<g>
					<path fill="#C3CCE9" d="M34.065,42.873h-3.352c-0.414,0-0.75-0.336-0.75-0.75s0.336-0.75,0.75-0.75h3.352
						c0.414,0,0.75,0.336,0.75,0.75S34.479,42.873,34.065,42.873z"/>
				</g>
				<g>
					<path fill="#2D346A" d="M40.666,45.868c-1.517,0-2.75-1.233-2.75-2.75s1.233-2.75,2.75-2.75s2.75,1.233,2.75,2.75
						S42.183,45.868,40.666,45.868z M40.666,41.868c-0.689,0-1.25,0.561-1.25,1.25s0.561,1.25,1.25,1.25s1.25-0.561,1.25-1.25
						S41.355,41.868,40.666,41.868z"/>
				</g>
			</g>
			<g>
				<g>
					<path fill="#E8F3FF" d="M23.171,41.922l5.891,10.204c0.829,1.435,2.663,1.926,4.098,1.098l11.737-6.776
						c1.435-0.828,1.926-2.663,1.098-4.098l-5.891-10.204L23.171,41.922z"/>
					<path fill="#2D346A" d="M31.664,54.377L31.664,54.377c-1.337,0-2.583-0.719-3.25-1.876l-5.891-10.204
						c-0.207-0.358-0.084-0.817,0.274-1.024l16.933-9.776c0.359-0.208,0.818-0.083,1.024,0.274l5.892,10.204
						c1.034,1.792,0.418,4.09-1.373,5.123l-11.736,6.776C32.966,54.203,32.318,54.377,31.664,54.377z M24.196,42.196l5.516,9.555
						c0.401,0.694,1.149,1.126,1.952,1.126l0,0c0.392,0,0.78-0.104,1.123-0.302l11.736-6.776c1.075-0.62,1.444-1.999,0.824-3.074
						L39.83,33.17L24.196,42.196z"/>
				</g>
				<g>
					<path fill="#E4C95C" d="M29.213,13.282c-0.828-1.435-2.663-1.927-4.098-1.098L13.378,18.96
						c-1.435,0.828-1.927,2.663-1.098,4.098l10.891,18.864l16.933-9.776L29.213,13.282z"/>
					<path fill="#2D346A" d="M23.172,42.672c-0.259,0-0.511-0.135-0.65-0.375L11.63,23.433c-0.501-0.867-0.634-1.878-0.375-2.846
						c0.259-0.967,0.88-1.775,1.747-2.276l11.737-6.776c0.57-0.329,1.217-0.503,1.872-0.503c1.337,0,2.583,0.719,3.25,1.875
						l10.892,18.864c0.1,0.172,0.127,0.377,0.075,0.569s-0.178,0.355-0.35,0.455l-16.933,9.776
						C23.428,42.64,23.299,42.672,23.172,42.672z M26.612,12.531c-0.392,0-0.78,0.104-1.122,0.302l-11.737,6.776
						c-0.521,0.301-0.893,0.785-1.048,1.366c-0.155,0.58-0.076,1.187,0.225,1.707l10.517,18.215l15.634-9.026L28.563,13.656
						C28.163,12.962,27.415,12.531,26.612,12.531z"/>
				</g>
				<g>
					<path fill="#C3CCE9" d="M29.55,44.518c-0.259,0-0.511-0.135-0.65-0.375c-0.207-0.358-0.084-0.817,0.274-1.024l8.964-5.176
						c0.36-0.208,0.817-0.083,1.024,0.274c0.207,0.358,0.084,0.817-0.274,1.024l-8.964,5.176
						C29.806,44.485,29.677,44.518,29.55,44.518z"/>
				</g>
				<g>
					<path fill="#C3CCE9" d="M31.55,47.982c-0.259,0-0.511-0.135-0.65-0.375c-0.207-0.358-0.084-0.817,0.274-1.024l2.903-1.676
						c0.359-0.208,0.818-0.083,1.024,0.274c0.207,0.358,0.084,0.817-0.274,1.024l-2.903,1.676
						C31.806,47.95,31.677,47.982,31.55,47.982z"/>
				</g>
				<g>
					<path fill="#2D346A" d="M40.668,45.868C40.668,45.868,40.668,45.868,40.668,45.868c-0.98,0-1.894-0.526-2.384-1.375
						c-0.367-0.637-0.465-1.378-0.275-2.087c0.19-0.709,0.646-1.303,1.282-1.67c0.418-0.241,0.893-0.368,1.373-0.368
						c0.98,0,1.894,0.526,2.383,1.375c0.367,0.636,0.465,1.377,0.275,2.086c-0.19,0.71-0.646,1.303-1.281,1.67
						C41.623,45.74,41.148,45.868,40.668,45.868z M40.664,41.868c-0.218,0-0.434,0.058-0.623,0.167
						c-0.289,0.167-0.496,0.437-0.583,0.76c-0.086,0.322-0.042,0.659,0.125,0.948c0.223,0.386,0.639,0.625,1.085,0.625l0,0
						c0.217,0,0.433-0.059,0.623-0.168c0.289-0.167,0.496-0.437,0.582-0.759c0.087-0.322,0.042-0.659-0.125-0.948
						C41.525,42.107,41.11,41.868,40.664,41.868z"/>
				</g>
			</g>
			<g>
				<path fill="#E4C95C" d="M15.555,44.329c0.002-0.201,0.071-1.202,1.2-1.202c0.001,0,0.002,0,0.003,0c0.002,0,0.003,0,0.005,0h0
					c0.001,0,0.001,0,0.001,0h0.001c0,0,0.001,0,0.002,0c0.215-0.006,0.388-0.183,0.388-0.4c0-0.22-0.178-0.399-0.398-0.4
					c-0.201-0.002-1.202-0.071-1.202-1.2c0-0.221-0.179-0.4-0.4-0.4c-0.221,0-0.4,0.179-0.4,0.4c0,1.128-1.001,1.198-1.202,1.2
					c-0.22,0.001-0.398,0.18-0.398,0.4c0,0.221,0.179,0.4,0.4,0.4c1.129,0,1.198,1.001,1.2,1.2c0,0.002,0,0.002,0,0.002
					c0,0.003,0.001,0.006,0,0.006v0.001v0.001c0,0,0,0.001,0,0.002c0.006,0.215,0.183,0.388,0.4,0.388
					C15.375,44.727,15.554,44.549,15.555,44.329z"/>
			</g>
			<g>
				<path fill="#FFFFFF" d="M62.4,50.658c0.002-0.201,0.072-1.202,1.2-1.202c0.002,0,0.002,0,0.003,0c0.001,0,0.003,0,0.005,0h0
					c0.001,0,0.001,0,0.001,0h0.001c0,0,0.001,0,0.001,0C63.827,49.45,64,49.273,64,49.056c0-0.22-0.178-0.399-0.398-0.4
					c-0.201-0.002-1.202-0.072-1.202-1.2c0-0.221-0.179-0.4-0.4-0.4c-0.221,0-0.4,0.179-0.4,0.4c0,1.128-1.001,1.198-1.202,1.2
					c-0.22,0.001-0.398,0.18-0.398,0.4c0,0.221,0.179,0.4,0.4,0.4c1.129,0,1.198,1.002,1.2,1.2c0,0.002,0,0.002,0,0.002
					c0,0.003,0.001,0.006,0,0.006v0.001v0.001v0.001c0.006,0.215,0.183,0.388,0.4,0.388C62.22,51.056,62.399,50.878,62.4,50.658z"/>
			</g>
			<g>
				<path fill="#FFFFFF" d="M6.908,10.198c0.002-0.201,0.071-1.202,1.2-1.202c0.001,0,0.002,0,0.003,0c0.002,0,0.003,0,0.005,0h0
					c0.001,0,0.001,0,0.001,0h0.001c0,0,0.001,0,0.002,0c0.215-0.006,0.388-0.183,0.388-0.4c0-0.22-0.178-0.399-0.398-0.4
					c-0.201-0.002-1.202-0.071-1.202-1.2c0-0.221-0.179-0.4-0.4-0.4c-0.221,0-0.4,0.179-0.4,0.4c0,1.129-1.001,1.198-1.202,1.2
					c-0.22,0.001-0.398,0.18-0.398,0.4c0,0.221,0.179,0.4,0.4,0.4c1.129,0,1.198,1.002,1.2,1.2c0,0.002,0,0.002,0,0.002
					c0,0.003,0.001,0.006,0,0.006v0.001v0.001c0,0,0,0.001,0,0.002c0.006,0.215,0.183,0.388,0.4,0.388
					C6.729,10.596,6.907,10.417,6.908,10.198z"/>
			</g>
			<g>
				<path fill="#FFFFFF" d="M1.2,45.919c0.001-0.101,0.036-0.601,0.6-0.601h0.001h0.002h0h0.001h0.001h0
					C1.914,45.315,2,45.227,2,45.118c0-0.11-0.089-0.199-0.199-0.2C1.7,44.917,1.2,44.883,1.2,44.318c0-0.111-0.089-0.2-0.2-0.2
					c-0.111,0-0.2,0.089-0.2,0.2c0,0.564-0.5,0.599-0.601,0.6C0.089,44.919,0,45.008,0,45.118c0,0.111,0.089,0.2,0.2,0.2
					c0.565,0,0.599,0.501,0.6,0.6c0,0.001,0,0.001,0,0.001c0,0.001,0.001,0.003,0.001,0.003c-0.001,0-0.001,0-0.001,0v0.001v0.001
					c0.003,0.108,0.091,0.194,0.2,0.194C1.11,46.118,1.199,46.029,1.2,45.919z"/>
			</g>
			<g>
				<path fill="#E4C95C" d="M51.125,36.555c0.001-0.101,0.036-0.601,0.6-0.601h0.001h0.002h0h0.001h0.001h0
					c0.108-0.003,0.194-0.091,0.194-0.2c0-0.11-0.089-0.199-0.199-0.2c-0.101-0.001-0.601-0.036-0.601-0.6c0-0.11-0.089-0.2-0.2-0.2
					c-0.11,0-0.2,0.09-0.2,0.2c0,0.564-0.5,0.599-0.601,0.6c-0.11,0.001-0.199,0.09-0.199,0.2c0,0.111,0.09,0.2,0.2,0.2
					c0.565,0,0.599,0.501,0.6,0.6c0,0,0,0.001,0,0.001c0,0.001,0.001,0.003,0.001,0.003l-0.001,0v0.001v0.001
					c0.003,0.108,0.091,0.194,0.2,0.194C51.035,36.754,51.124,36.665,51.125,36.555z"/>
			</g>
			<g>
				<path fill="#E4C95C" d="M8.708,32.897c0.001-0.101,0.036-0.601,0.6-0.601H9.31h0.002h0h0h0.001h0
					c0.108-0.003,0.195-0.091,0.195-0.2c0-0.11-0.089-0.199-0.199-0.2c-0.101-0.001-0.601-0.036-0.601-0.6
					c0-0.111-0.089-0.2-0.2-0.2c-0.111,0-0.2,0.089-0.2,0.2c0,0.564-0.5,0.599-0.601,0.6c-0.11,0.001-0.199,0.09-0.199,0.2
					c0,0.111,0.089,0.2,0.2,0.2c0.565,0,0.599,0.501,0.6,0.6c0,0.001,0,0.001,0,0.001c0,0.001,0,0.003,0,0.003c0,0,0,0,0,0v0.001
					v0.001c0.003,0.108,0.091,0.194,0.2,0.194C8.618,33.096,8.708,33.007,8.708,32.897z"/>
			</g>
			<g>
				<path fill="#FFFFFF" d="M59.2,12.397c0.001-0.101,0.036-0.601,0.6-0.601h0.001h0.002h0h0.001h0.001h0
					c0.108-0.003,0.194-0.091,0.194-0.2c0-0.11-0.089-0.199-0.199-0.2c-0.101-0.001-0.601-0.036-0.601-0.6
					c0-0.111-0.089-0.2-0.2-0.2c-0.111,0-0.2,0.09-0.2,0.2c0,0.564-0.5,0.599-0.601,0.6c-0.11,0.001-0.199,0.09-0.199,0.2
					c0,0.111,0.09,0.2,0.2,0.2c0.565,0,0.599,0.501,0.6,0.6c0,0.001,0,0.001,0,0.001c0,0.001,0.001,0.003,0.001,0.003
					c-0.001,0-0.001,0-0.001,0v0.001v0.001c0.003,0.108,0.091,0.194,0.2,0.194C59.11,12.596,59.199,12.507,59.2,12.397z"/>
			</g>
		</g>
	</g>
</g>
</svg>
