<?xml version="1.0" encoding="utf-8"?>
<!-- Generator: Adobe Illustrator 17.0.0, SVG Export Plug-In . SVG Version: 6.00 Build 0)  -->
<!DOCTYPE svg PUBLIC "-//W3C//DTD SVG 1.1//EN" "http://www.w3.org/Graphics/SVG/1.1/DTD/svg11.dtd">
<svg version="1.1" xmlns="http://www.w3.org/2000/svg" xmlns:xlink="http://www.w3.org/1999/xlink" x="0px" y="0px" width="64px"
	 height="64px" viewBox="0 0 64 64" enable-background="new 0 0 64 64" xml:space="preserve">
<g id="Layer_4">
</g>
<g id="Layer_3">
</g>
<g id="Layer_2">
</g>
<g id="Layer_1">
</g>
<g id="Layer_5">
	<g>
		<g>
			<g>
				<g>
					<g>
						<path fill="#FBFFFF" d="M59.5,31.287c0-15.188-12.312-27.5-27.5-27.5S4.5,16.099,4.5,31.287
							c0,9.396,4.715,17.687,11.905,22.647h31.191C54.785,48.973,59.5,40.682,59.5,31.287z"/>
					</g>
				</g>
				<g>
					<path fill="#2D346A" d="M52.794,54.684H11.206c-0.414,0-0.75-0.336-0.75-0.75s0.336-0.75,0.75-0.75h41.588
						c0.414,0,0.75,0.336,0.75,0.75S53.208,54.684,52.794,54.684z"/>
				</g>
				<g>
					<path fill="#FFFFFF" d="M43.625,57.919h-23.25c-0.414,0-0.75-0.336-0.75-0.75s0.336-0.75,0.75-0.75h23.25
						c0.414,0,0.75,0.336,0.75,0.75S44.039,57.919,43.625,57.919z"/>
				</g>
				<g>
					<path fill="#FFFFFF" d="M32.313,61.154h-4.672c-0.414,0-0.75-0.336-0.75-0.75s0.336-0.75,0.75-0.75h4.672
						c0.414,0,0.75,0.336,0.75,0.75S32.728,61.154,32.313,61.154z"/>
				</g>
				<g>
					<path fill="#FFFFFF" d="M36.415,61.154h-1.249c-0.414,0-0.75-0.336-0.75-0.75s0.336-0.75,0.75-0.75h1.249
						c0.414,0,0.75,0.336,0.75,0.75S36.829,61.154,36.415,61.154z"/>
				</g>
			</g>
			<g>
				<g>
					<g>
						<g>
							<path fill="#E8F3FF" d="M24.775,36.798"/>
						</g>
						<g>
							<path fill="#E8F3FF" d="M37.323,14.895L23.425,28.793c-1.549,1.549-1.848,3.853-0.938,5.717l-1.58,1.579
								c-0.632,0.632-0.632,1.656,0,2.288c0.632,0.632,1.656,0.632,2.288,0l1.58-1.579c1.864,0.909,4.168,0.611,5.717-0.938
								l13.898-13.898L37.323,14.895z"/>
						</g>
						<g>
							<path fill="#C3CCE9" d="M30.262,21.957l-6.836,6.837c-1.549,1.549-1.848,3.853-0.938,5.717l-1.58,1.579
								c-0.632,0.632-0.632,1.656,0,2.288c0.632,0.632,1.656,0.632,2.288,0l1.58-1.579c1.864,0.909,4.168,0.611,5.717-0.938
								l13.898-13.898L30.262,21.957z"/>
						</g>
					</g>
					<g>
						<path fill="#E4C95C" d="M47.441,18.911l3.697-3.697c1.952-1.952,1.952-5.116,0-7.067s-5.116-1.951-7.067,0l-3.697,3.697"/>
						<path fill="#2D346A" d="M47.441,19.661c-0.192,0-0.384-0.073-0.53-0.22c-0.293-0.293-0.293-0.768,0-1.061l3.697-3.697
							c1.656-1.655,1.656-4.351,0-6.007c-1.657-1.656-4.351-1.656-6.007,0l-3.697,3.697c-0.293,0.293-0.768,0.293-1.061,0
							s-0.293-0.768,0-1.061l3.697-3.697c2.241-2.24,5.887-2.24,8.128,0c2.241,2.241,2.24,5.888,0,8.128l-3.697,3.697
							C47.825,19.588,47.633,19.661,47.441,19.661z"/>
					</g>
					<g>
						<path fill="#C3CCE9" d="M40.375,11.844l-1.526-1.526c-0.842-0.842-2.208-0.842-3.051,0l0,0c-0.842,0.842-0.842,2.208,0,3.051
							l10.118,10.118c0.842,0.843,2.208,0.843,3.051,0l0,0c0.842-0.842,0.842-2.208,0-3.051l-6.755-6.755"/>
						<path fill="#2D346A" d="M47.441,24.869c-0.777,0-1.507-0.303-2.056-0.852L35.268,13.899c-0.549-0.549-0.852-1.278-0.852-2.056
							c0-0.776,0.302-1.506,0.852-2.056c1.099-1.099,3.014-1.097,4.112,0l1.525,1.526c0.293,0.293,0.293,0.768,0,1.061
							s-0.768,0.293-1.061,0l-1.525-1.526c-0.532-0.532-1.458-0.532-1.991,0c-0.266,0.266-0.412,0.619-0.412,0.995
							s0.146,0.729,0.412,0.995l10.118,10.118c0.532,0.531,1.458,0.531,1.99,0c0.548-0.549,0.548-1.441,0-1.99l-6.755-6.756
							c-0.293-0.293-0.293-0.768,0-1.061s0.768-0.293,1.061,0l6.755,6.756c1.133,1.134,1.133,2.978,0,4.111
							C48.948,24.566,48.218,24.869,47.441,24.869z"/>
					</g>
					<g>
						<g>
							
								<path fill="none" stroke="#2D346A" stroke-width="1.5" stroke-linecap="round" stroke-linejoin="round" stroke-miterlimit="10" d="
								M24.775,36.798"/>
						</g>
						<g>
							<path fill="#2D346A" d="M22.051,39.602c-0.632,0-1.227-0.246-1.674-0.693s-0.694-1.042-0.694-1.674
								c0-0.633,0.247-1.228,0.694-1.675l1.22-1.22c-0.79-2.098-0.298-4.48,1.298-6.077l13.898-13.898
								c0.281-0.281,0.779-0.281,1.061,0l7.067,7.067c0.141,0.141,0.22,0.331,0.22,0.53s-0.079,0.39-0.22,0.53L32.784,34.629
								c-0.293,0.293-0.768,0.293-1.061,0s-0.293-0.768,0-1.061L43.33,21.962l-6.007-6.007L23.956,29.323
								c-1.272,1.272-1.591,3.225-0.794,4.858c0.14,0.288,0.083,0.633-0.144,0.859l-1.58,1.579c-0.338,0.339-0.338,0.889,0,1.228
								c0.339,0.338,0.889,0.338,1.228,0l1.58-1.579c0.227-0.227,0.574-0.285,0.859-0.144c1.635,0.798,3.587,0.478,4.858-0.795
								c0.293-0.293,0.768-0.293,1.061,0s0.293,0.768,0,1.061c-1.595,1.598-3.977,2.089-6.077,1.298l-1.22,1.22
								C23.278,39.355,22.684,39.602,22.051,39.602z"/>
						</g>
					</g>
				</g>
				<g>
					<path fill="#C3CCE9" d="M24.209,46.987c0-1.489-2.697-4.854-2.697-4.854s-2.697,3.365-2.697,4.854
						c0,1.489,1.207,2.697,2.697,2.697C23.001,49.683,24.209,48.476,24.209,46.987z"/>
					<path fill="#2D346A" d="M21.512,50.434c-1.9,0-3.447-1.547-3.447-3.447c0-1.668,2.384-4.727,2.862-5.322
						c0.142-0.178,0.357-0.281,0.585-0.281l0,0c0.228,0,0.443,0.104,0.585,0.281c0.478,0.596,2.861,3.654,2.861,5.322
						C24.958,48.887,23.413,50.434,21.512,50.434z M21.512,43.368c-0.942,1.288-1.947,2.923-1.947,3.618
						c0,1.073,0.874,1.947,1.947,1.947s1.946-0.874,1.946-1.947C23.458,46.29,22.454,44.655,21.512,43.368z"/>
				</g>
				<g>
					<rect x="30.262" y="21.212" fill="#2D346A" width="14.129" height="1.5"/>
				</g>
			</g>
			<g>
				<path fill="#FFFFFF" d="M62.4,20.658c0.002-0.201,0.071-1.202,1.2-1.202c0.002,0,0.002,0,0.003,0c0.002,0,0.003,0,0.005,0h0
					c0.001,0,0.001,0,0.001,0h0.001c0,0,0.001,0,0.001,0C63.827,19.45,64,19.273,64,19.056c0-0.22-0.178-0.399-0.398-0.4
					c-0.201-0.002-1.202-0.072-1.202-1.2c0-0.221-0.179-0.4-0.4-0.4c-0.221,0-0.4,0.179-0.4,0.4c0,1.128-1.001,1.198-1.202,1.2
					c-0.22,0.001-0.398,0.18-0.398,0.4c0,0.221,0.179,0.4,0.4,0.4c1.129,0,1.198,1.002,1.2,1.2c0,0.002,0,0.002,0,0.002
					c0,0.003,0.001,0.006,0,0.006v0.001v0.001v0.002c0.006,0.215,0.183,0.388,0.4,0.388C62.22,21.056,62.399,20.878,62.4,20.658z"/>
			</g>
			<g>
				<path fill="#E4C95C" d="M40.774,45.72c0.002-0.201,0.071-1.202,1.2-1.202c0.001,0,0.002,0,0.003,0c0.002,0,0.003,0,0.005,0h0
					c0.001,0,0.001,0,0.001,0h0.001c0,0,0.001,0,0.002,0c0.215-0.006,0.388-0.183,0.388-0.4c0-0.22-0.178-0.399-0.398-0.4
					c-0.201-0.002-1.202-0.071-1.202-1.2c0-0.221-0.179-0.4-0.4-0.4s-0.4,0.179-0.4,0.4c0,1.129-1.001,1.198-1.202,1.2
					c-0.22,0.001-0.398,0.18-0.398,0.4c0,0.221,0.179,0.4,0.4,0.4c1.129,0,1.198,1.002,1.2,1.2c0,0.002,0,0.002,0,0.002
					c0,0.003,0.001,0.006,0,0.006v0.001v0.001v0.002c0.006,0.215,0.183,0.388,0.4,0.388C40.595,46.118,40.773,45.94,40.774,45.72z"
					/>
			</g>
			<g>
				<path fill="#FFFFFF" d="M6.9,14.399c0.002-0.201,0.071-1.202,1.2-1.202c0.002,0,0.002,0,0.003,0c0.002,0,0.003,0,0.005,0h0
					c0.001,0,0.001,0,0.001,0H8.11c0,0,0.001,0,0.002,0c0.215-0.006,0.388-0.183,0.388-0.4c0-0.22-0.178-0.399-0.398-0.4
					c-0.201-0.002-1.202-0.071-1.202-1.2c0-0.221-0.179-0.4-0.4-0.4c-0.221,0-0.4,0.179-0.4,0.4c0,1.128-1.001,1.198-1.202,1.2
					c-0.22,0.001-0.398,0.18-0.398,0.4c0,0.221,0.179,0.4,0.4,0.4c1.129,0,1.198,1.002,1.2,1.2c0,0.002,0,0.002,0,0.002
					c0,0.003,0.001,0.006,0,0.006v0.001v0.001v0.002c0.006,0.215,0.183,0.388,0.4,0.388C6.72,14.797,6.899,14.619,6.9,14.399z"/>
			</g>
			<g>
				<path fill="#FFFFFF" d="M1.2,45.919c0.001-0.101,0.036-0.601,0.6-0.601h0.001h0.002h0h0.001h0.001h0
					C1.914,45.315,2,45.227,2,45.118c0-0.11-0.089-0.199-0.199-0.2C1.7,44.917,1.2,44.883,1.2,44.318c0-0.111-0.089-0.2-0.2-0.2
					c-0.11,0-0.2,0.089-0.2,0.2c0,0.564-0.5,0.599-0.601,0.6C0.089,44.919,0,45.008,0,45.118c0,0.111,0.089,0.2,0.2,0.2
					c0.565,0,0.599,0.501,0.6,0.6c0,0.001,0,0.001,0,0.001c0,0.001,0.001,0.003,0.001,0.003c-0.001,0-0.001,0-0.001,0v0.001v0.001
					c0.003,0.108,0.091,0.194,0.2,0.194C1.11,46.118,1.199,46.029,1.2,45.919z"/>
			</g>
			<g>
				<path fill="#E4C95C" d="M46.688,32.897c0.001-0.101,0.036-0.601,0.6-0.601h0.001h0.002h0h0.001h0.001h0
					c0.108-0.003,0.194-0.091,0.194-0.2c0-0.11-0.089-0.199-0.199-0.2c-0.101-0.001-0.601-0.036-0.601-0.6c0-0.111-0.09-0.2-0.2-0.2
					s-0.2,0.089-0.2,0.2c0,0.564-0.5,0.599-0.601,0.6c-0.11,0.001-0.199,0.09-0.199,0.2c0,0.111,0.09,0.2,0.2,0.2
					c0.565,0,0.599,0.501,0.6,0.6c0,0.001,0,0.001,0,0.001c0,0.001,0.001,0.003,0.001,0.003c-0.001,0-0.001,0-0.001,0v0.001v0.001
					c0.003,0.108,0.091,0.194,0.2,0.194C46.598,33.096,46.688,33.007,46.688,32.897z"/>
			</g>
			<g>
				<path fill="#FFFFFF" d="M60.2,49.946c0.001-0.101,0.036-0.601,0.6-0.601h0.001h0.002h0h0.001h0.001h0
					c0.108-0.003,0.194-0.091,0.194-0.2c0-0.11-0.089-0.199-0.199-0.2c-0.101-0.001-0.601-0.036-0.601-0.6
					c0-0.111-0.089-0.2-0.2-0.2c-0.111,0-0.2,0.089-0.2,0.2c0,0.564-0.5,0.599-0.601,0.6c-0.11,0.001-0.199,0.09-0.199,0.2
					c0,0.111,0.09,0.2,0.2,0.2c0.565,0,0.599,0.501,0.6,0.6c0,0.001,0,0.001,0,0.001c0,0.001,0.001,0.003,0.001,0.003
					c-0.001,0-0.001,0-0.001,0v0.001v0.001c0.003,0.108,0.091,0.194,0.2,0.194C60.11,50.145,60.199,50.056,60.2,49.946z"/>
			</g>
			<g>
				<path fill="#E4C95C" d="M14.406,30.661c0.001-0.101,0.036-0.601,0.6-0.601h0.001h0.002h0h0.001h0.001h0
					c0.108-0.003,0.194-0.091,0.194-0.2c0-0.11-0.089-0.199-0.199-0.2c-0.101-0.001-0.601-0.036-0.601-0.6c0-0.111-0.09-0.2-0.2-0.2
					c-0.111,0-0.2,0.089-0.2,0.2c0,0.564-0.5,0.599-0.601,0.6c-0.11,0.001-0.199,0.09-0.199,0.2c0,0.111,0.089,0.2,0.2,0.2
					c0.565,0,0.599,0.501,0.6,0.6c0,0.001,0,0.001,0,0.001c0,0.001,0.001,0.003,0.001,0.003l-0.001,0v0.001v0.001
					c0.003,0.108,0.091,0.194,0.2,0.194C14.316,30.86,14.405,30.771,14.406,30.661z"/>
			</g>
		</g>
	</g>
</g>
</svg>
