<?xml version="1.0" encoding="utf-8"?>
<!-- Generator: Adobe Illustrator 17.0.0, SVG Export Plug-In . SVG Version: 6.00 Build 0)  -->
<!DOCTYPE svg PUBLIC "-//W3C//DTD SVG 1.1//EN" "http://www.w3.org/Graphics/SVG/1.1/DTD/svg11.dtd">
<svg version="1.1" xmlns="http://www.w3.org/2000/svg" xmlns:xlink="http://www.w3.org/1999/xlink" x="0px" y="0px" width="64px"
	 height="64px" viewBox="0 0 64 64" enable-background="new 0 0 64 64" xml:space="preserve">
<g id="Layer_4">
</g>
<g id="Layer_3">
</g>
<g id="Layer_2">
</g>
<g id="Layer_1">
</g>
<g id="Layer_5">
	<g>
		<g>
			<g>
				<g>
					<g>
						<path fill="#FBFFFF" d="M59.5,31.287c0-15.188-12.312-27.5-27.5-27.5S4.5,16.099,4.5,31.287
							c0,9.396,4.715,17.687,11.905,22.647h31.191C54.785,48.973,59.5,40.682,59.5,31.287z"/>
					</g>
				</g>
				<g>
					<path fill="#2D346A" d="M49.794,54.684H14.206c-0.414,0-0.75-0.336-0.75-0.75s0.336-0.75,0.75-0.75h35.588
						c0.414,0,0.75,0.336,0.75,0.75S50.208,54.684,49.794,54.684z"/>
				</g>
				<g>
					<path fill="#FFFFFF" d="M43.625,57.919h-23.25c-0.414,0-0.75-0.336-0.75-0.75s0.336-0.75,0.75-0.75h23.25
						c0.414,0,0.75,0.336,0.75,0.75S44.039,57.919,43.625,57.919z"/>
				</g>
				<g>
					<path fill="#FFFFFF" d="M32.313,61.154h-4.672c-0.414,0-0.75-0.336-0.75-0.75s0.336-0.75,0.75-0.75h4.672
						c0.414,0,0.75,0.336,0.75,0.75S32.728,61.154,32.313,61.154z"/>
				</g>
				<g>
					<path fill="#FFFFFF" d="M36.415,61.154h-1.249c-0.414,0-0.75-0.336-0.75-0.75s0.336-0.75,0.75-0.75h1.249
						c0.414,0,0.75,0.336,0.75,0.75S36.829,61.154,36.415,61.154z"/>
				</g>
			</g>
			<g>
				<g>
					<polyline fill="#C3CCE9" points="21.418,48.24 32,53.679 51.074,43.875 32,34.071 12.926,43.875 17.931,46.448 					"/>
					<path fill="#2D346A" d="M32,54.43c-0.118,0-0.235-0.027-0.343-0.083l-10.582-5.439c-0.369-0.189-0.514-0.642-0.324-1.01
						c0.189-0.369,0.641-0.514,1.01-0.324L32,52.836l17.434-8.961L32,34.915l-17.434,8.96l3.708,1.906
						c0.369,0.189,0.514,0.642,0.324,1.01c-0.189,0.369-0.643,0.515-1.01,0.324l-5.005-2.573c-0.25-0.129-0.407-0.386-0.407-0.667
						s0.157-0.538,0.407-0.667l19.074-9.804c0.215-0.111,0.471-0.111,0.686,0l19.074,9.804c0.25,0.129,0.407,0.386,0.407,0.667
						s-0.157,0.538-0.407,0.667l-19.074,9.805C32.235,54.402,32.118,54.43,32,54.43z"/>
				</g>
				<g>
					<g>
						<polygon fill="#E8F3FF" points="32,22.071 12.926,31.875 22.652,36.874 32,41.679 51.074,31.875 						"/>
					</g>
					<g>
						<polygon fill="#FFFFFF" points="32,32.071 41.347,36.875 32,41.679 22.652,36.874 						"/>
					</g>
					<g>
						<g>
							<path fill="#2D346A" d="M41.35,37.62c-0.2,0-0.39-0.08-0.53-0.221c-0.14-0.13-0.22-0.33-0.22-0.52c0-0.2,0.08-0.4,0.22-0.54
								c0.28-0.28,0.78-0.28,1.061,0c0.14,0.15,0.22,0.34,0.22,0.54c0,0.189-0.08,0.38-0.22,0.52
								C41.74,37.54,41.54,37.62,41.35,37.62z"/>
						</g>
						<g>
							<path fill="#2D346A" d="M38.67,36.34c-0.37-0.19-0.521-0.64-0.33-1.01l0,0c0.19-0.37,0.64-0.511,1.01-0.32l0,0
								c0.37,0.18,0.51,0.64,0.33,1.01l0,0c-0.14,0.25-0.399,0.4-0.67,0.4l0,0C38.89,36.42,38.78,36.399,38.67,36.34z M36.33,35.14
								c-0.37-0.189-0.511-0.64-0.32-1.01l0,0c0.18-0.37,0.64-0.51,1.01-0.33l0,0c0.36,0.19,0.511,0.65,0.32,1.02l0,0
								c-0.13,0.25-0.4,0.4-0.67,0.4l0,0C36.56,35.22,36.439,35.189,36.33,35.14z M33.99,33.939c-0.36-0.189-0.511-0.64-0.32-1.01
								l0,0c0.189-0.37,0.64-0.52,1.01-0.33l0,0c0.37,0.19,0.51,0.65,0.32,1.01l0,0c-0.13,0.261-0.391,0.41-0.67,0.41l0,0
								C34.22,34.02,34.1,33.99,33.99,33.939z"/>
						</g>
						<g>
							<path fill="#2D346A" d="M32,32.819c-0.2,0-0.39-0.079-0.53-0.22c-0.14-0.14-0.22-0.33-0.22-0.53
								c0-0.189,0.08-0.39,0.22-0.529c0.28-0.28,0.78-0.28,1.06,0c0.14,0.14,0.22,0.34,0.22,0.529c0,0.2-0.08,0.391-0.22,0.53
								C32.39,32.74,32.2,32.819,32,32.819z"/>
						</g>
						<g>
							<path fill="#2D346A" d="M24.32,36.02c-0.19-0.37-0.04-0.83,0.33-1.01l0,0c0.36-0.19,0.82-0.05,1.01,0.32l0,0
								c0.19,0.37,0.04,0.819-0.33,1.01l0,0c-0.11,0.06-0.22,0.08-0.34,0.08l0,0C24.72,36.42,24.46,36.27,24.32,36.02z
								 M26.66,34.819c-0.19-0.369-0.04-0.829,0.32-1.02l0,0c0.37-0.18,0.82-0.04,1.01,0.33l0,0c0.19,0.37,0.05,0.82-0.32,1.01l0,0
								c-0.11,0.05-0.23,0.08-0.34,0.08l0,0C27.05,35.22,26.79,35.069,26.66,34.819z M29,33.609c-0.19-0.359-0.05-0.819,0.32-1.01
								l0,0c0.37-0.18,0.82-0.04,1.01,0.33l0,0c0.19,0.37,0.04,0.82-0.32,1.01l0,0c-0.11,0.061-0.23,0.08-0.35,0.08l0,0
								C29.39,34.02,29.13,33.87,29,33.609z"/>
						</g>
						<g>
							<path fill="#2D346A" d="M22.65,37.62c-0.19,0-0.39-0.08-0.53-0.221c-0.14-0.14-0.22-0.33-0.22-0.52
								c0-0.2,0.08-0.39,0.22-0.53c0.29-0.29,0.78-0.29,1.06-0.01c0.14,0.14,0.22,0.34,0.22,0.54c0,0.189-0.08,0.39-0.22,0.52
								C23.04,37.54,22.85,37.62,22.65,37.62z"/>
						</g>
					</g>
					<g>
						<path fill="#2D346A" d="M32,42.43c-0.118,0-0.235-0.027-0.343-0.083l-19.074-9.805c-0.25-0.129-0.407-0.386-0.407-0.667
							s0.157-0.538,0.407-0.667l19.074-9.804c0.215-0.111,0.471-0.111,0.686,0l19.074,9.804c0.25,0.129,0.407,0.386,0.407,0.667
							s-0.157,0.538-0.407,0.667l-19.074,9.805C32.235,42.402,32.118,42.43,32,42.43z M14.566,31.875L32,40.836l17.434-8.961
							L32,22.915L14.566,31.875z"/>
					</g>
				</g>
				<g>
					<g>
						<polygon fill="#E8F3FF" points="32,10.071 12.926,19.875 22.652,24.874 32,29.679 51.074,19.875 						"/>
					</g>
					<g>
						<polygon fill="#FFFFFF" points="32,20.071 41.347,24.875 32,29.679 22.652,24.874 						"/>
					</g>
					<g>
						<g>
							<path fill="#2D346A" d="M41.35,25.63c-0.2,0-0.39-0.08-0.54-0.23c-0.13-0.13-0.21-0.33-0.21-0.52c0-0.2,0.08-0.4,0.21-0.54
								c0.28-0.28,0.79-0.271,1.07,0.01c0.14,0.141,0.22,0.33,0.22,0.53c0,0.189-0.08,0.38-0.22,0.52
								C41.74,25.55,41.54,25.63,41.35,25.63z"/>
						</g>
						<g>
							<path fill="#2D346A" d="M38.67,24.34c-0.37-0.19-0.521-0.64-0.33-1.01l0,0c0.19-0.37,0.64-0.511,1.01-0.32l0,0
								c0.37,0.18,0.51,0.64,0.33,1.01l0,0c-0.14,0.25-0.399,0.4-0.67,0.4l0,0C38.89,24.42,38.78,24.399,38.67,24.34z M36.33,23.14
								c-0.37-0.189-0.511-0.64-0.32-1.01l0,0c0.18-0.37,0.64-0.51,1.01-0.32l0,0c0.36,0.181,0.511,0.641,0.32,1.01l0,0
								c-0.13,0.25-0.4,0.4-0.67,0.4l0,0C36.56,23.22,36.439,23.2,36.33,23.14z M33.99,21.939c-0.37-0.189-0.511-0.64-0.32-1.01l0,0
								c0.189-0.37,0.64-0.51,1.01-0.33l0,0c0.37,0.19,0.51,0.65,0.32,1.01l0,0c-0.13,0.261-0.391,0.41-0.66,0.41l0,0
								C34.22,22.02,34.1,21.99,33.99,21.939z"/>
						</g>
						<g>
							<path fill="#2D346A" d="M32,20.819c-0.2,0-0.39-0.079-0.53-0.22c-0.14-0.14-0.22-0.33-0.22-0.53
								c0-0.189,0.08-0.39,0.22-0.529c0.28-0.28,0.78-0.28,1.06,0c0.14,0.14,0.22,0.33,0.22,0.529c0,0.2-0.08,0.391-0.22,0.53
								C32.39,20.74,32.2,20.819,32,20.819z"/>
						</g>
						<g>
							<path fill="#2D346A" d="M24.32,24.02c-0.19-0.37-0.04-0.83,0.33-1.01l0,0c0.37-0.19,0.82-0.05,1.01,0.32l0,0
								c0.19,0.37,0.04,0.819-0.33,1.01l0,0c-0.11,0.06-0.22,0.08-0.34,0.08l0,0C24.72,24.42,24.46,24.27,24.32,24.02z
								 M26.66,22.819c-0.19-0.369-0.05-0.829,0.32-1.01l0,0c0.37-0.189,0.82-0.05,1.01,0.32l0,0c0.19,0.37,0.05,0.82-0.32,1.01l0,0
								c-0.11,0.061-0.23,0.08-0.34,0.08l0,0C27.06,23.22,26.79,23.069,26.66,22.819z M29,21.62c-0.19-0.37-0.05-0.83,0.32-1.021
								l0,0c0.37-0.18,0.82-0.04,1.01,0.33l0,0c0.19,0.37,0.05,0.82-0.32,1.01l0,0c-0.11,0.061-0.23,0.08-0.35,0.08l0,0
								C29.39,22.02,29.13,21.87,29,21.62z"/>
						</g>
						<g>
							<path fill="#2D346A" d="M22.65,25.63c-0.2,0-0.39-0.09-0.53-0.23c-0.14-0.14-0.22-0.33-0.22-0.52c0-0.2,0.08-0.39,0.22-0.54
								c0.27-0.271,0.78-0.28,1.06,0c0.14,0.14,0.22,0.34,0.22,0.54c0,0.189-0.08,0.39-0.22,0.52
								C23.04,25.55,22.85,25.63,22.65,25.63z"/>
						</g>
					</g>
					<g>
						<path fill="#2D346A" d="M32,30.43c-0.118,0-0.235-0.027-0.343-0.083l-19.074-9.805c-0.25-0.129-0.407-0.386-0.407-0.667
							s0.157-0.538,0.407-0.667l19.074-9.804c0.215-0.111,0.471-0.111,0.686,0l12.343,6.344c0.368,0.189,0.514,0.642,0.324,1.01
							s-0.642,0.515-1.01,0.324l-12-6.167l-17.434,8.96L32,28.836l17.434-8.961l-1.693-0.87c-0.368-0.189-0.514-0.642-0.324-1.01
							s0.642-0.516,1.01-0.324l2.991,1.537c0.25,0.128,0.407,0.386,0.407,0.667s-0.157,0.538-0.407,0.667l-19.074,9.805
							C32.235,30.402,32.118,30.43,32,30.43z"/>
					</g>
				</g>
			</g>
			<g>
				<path fill="#FFFFFF" d="M61.6,14.399c-0.002-0.201-0.071-1.202-1.2-1.202c-0.001,0-0.002,0-0.003,0c-0.002,0-0.003,0-0.005,0h0
					c-0.001,0-0.001,0-0.001,0H60.39c0,0-0.001,0-0.002,0C60.173,13.191,60,13.014,60,12.797c0-0.22,0.178-0.399,0.398-0.4
					c0.201-0.002,1.202-0.071,1.202-1.2c0-0.221,0.179-0.4,0.4-0.4c0.221,0,0.4,0.179,0.4,0.4c0,1.128,1.001,1.198,1.202,1.2
					c0.22,0.001,0.398,0.18,0.398,0.4c0,0.221-0.179,0.4-0.4,0.4c-1.129,0-1.198,1.002-1.2,1.2c0,0.002,0,0.002,0,0.002
					c0,0.003-0.001,0.006,0,0.006v0.001v0.001v0.002c-0.006,0.215-0.183,0.388-0.4,0.388C61.78,14.797,61.601,14.619,61.6,14.399z"
					/>
			</g>
			<g>
				<path fill="#FFFFFF" d="M59.3,49.946c-0.001-0.101-0.036-0.601-0.6-0.601h-0.001h-0.002h0h-0.001h-0.001h0
					c-0.108-0.003-0.195-0.091-0.195-0.2c0-0.11,0.089-0.199,0.199-0.2c0.101-0.001,0.601-0.036,0.601-0.6c0-0.111,0.09-0.2,0.2-0.2
					c0.111,0,0.2,0.089,0.2,0.2c0,0.564,0.5,0.599,0.601,0.6c0.11,0.001,0.199,0.09,0.199,0.2c0,0.111-0.089,0.2-0.2,0.2
					c-0.565,0-0.599,0.501-0.6,0.6c0,0.001,0,0.001,0,0.001c0,0.001-0.001,0.003-0.001,0.003c0.001,0,0.001,0,0.001,0v0.001v0.001
					c-0.003,0.108-0.091,0.194-0.2,0.194C59.39,50.145,59.301,50.056,59.3,49.946z"/>
			</g>
			<g>
				<path fill="#FFFFFF" d="M6.3,14.319c-0.001-0.101-0.036-0.601-0.6-0.601H5.699H5.696h0H5.696H5.695h0
					c-0.108-0.003-0.195-0.091-0.195-0.2c0-0.11,0.089-0.199,0.199-0.2C5.8,13.317,6.3,13.283,6.3,12.718c0-0.111,0.089-0.2,0.2-0.2
					c0.111,0,0.2,0.09,0.2,0.2c0,0.564,0.5,0.599,0.601,0.6c0.11,0.001,0.199,0.09,0.199,0.2c0,0.111-0.089,0.2-0.2,0.2
					c-0.565,0-0.599,0.501-0.6,0.6c0,0.001,0,0.001,0,0.001c0,0.001-0.001,0.003-0.001,0.003c0.001,0,0.001,0,0.001,0v0.001v0.001
					c-0.003,0.108-0.091,0.194-0.2,0.194C6.39,14.518,6.301,14.429,6.3,14.319z"/>
			</g>
			<g>
				<path fill="#E4C95C" d="M11.3,26.076c-0.001-0.101-0.036-0.601-0.6-0.601h-0.001h-0.002h0h-0.001h-0.001h0
					c-0.108-0.003-0.195-0.091-0.195-0.2c0-0.11,0.089-0.199,0.199-0.2c0.101-0.001,0.601-0.036,0.601-0.6c0-0.111,0.09-0.2,0.2-0.2
					c0.111,0,0.2,0.089,0.2,0.2c0,0.564,0.5,0.599,0.601,0.6c0.11,0.001,0.199,0.09,0.199,0.2c0,0.111-0.089,0.2-0.2,0.2
					c-0.565,0-0.599,0.501-0.6,0.6c0,0.001,0,0.001,0,0.001c0,0.001-0.001,0.003-0.001,0.003c0.001,0,0.001,0,0.001,0v0.001v0.001
					c-0.003,0.108-0.091,0.194-0.2,0.194C11.39,26.275,11.301,26.186,11.3,26.076z"/>
			</g>
			<g>
				<path fill="#FFFFFF" d="M1.6,45.721C1.598,45.52,1.529,44.52,0.4,44.52c-0.001,0-0.002,0-0.003,0c-0.002,0-0.003,0-0.005,0h0
					c-0.001,0-0.001,0-0.001,0H0.39c0,0-0.001,0-0.002,0C0.173,44.513,0,44.337,0,44.12c0-0.22,0.178-0.399,0.398-0.4
					c0.201-0.002,1.202-0.072,1.202-1.2c0-0.221,0.179-0.4,0.4-0.4c0.221,0,0.4,0.179,0.4,0.4c0,1.128,1.001,1.198,1.202,1.2
					C3.822,43.721,4,43.899,4,44.12c0,0.221-0.179,0.4-0.4,0.4c-1.129,0-1.198,1.002-1.2,1.2c0,0.002,0,0.002,0,0.002
					c0,0.003-0.001,0.006,0,0.006v0.001v0.001c0,0,0,0.001,0,0.002C2.394,45.946,2.217,46.12,2,46.12
					C1.78,46.12,1.601,45.941,1.6,45.721z"/>
			</g>
			<g>
				<path fill="#E4C95C" d="M54.4,26.948c0.002-0.201,0.072-1.202,1.2-1.202c0.002,0,0.002,0,0.003,0c0.001,0,0.003,0,0.005,0h0
					c0.001,0,0.001,0,0.001,0h0.001c0,0,0.001,0,0.001,0c0.215-0.006,0.388-0.183,0.388-0.4c0-0.22-0.178-0.399-0.398-0.4
					c-0.201-0.002-1.202-0.072-1.202-1.2c0-0.221-0.179-0.4-0.4-0.4c-0.221,0-0.4,0.179-0.4,0.4c0,1.128-1.001,1.198-1.202,1.2
					c-0.22,0.001-0.398,0.18-0.398,0.4c0,0.221,0.179,0.4,0.4,0.4c1.129,0,1.198,1.002,1.2,1.2c0,0.001,0,0.002,0,0.002
					c0,0.003,0.001,0.006,0,0.006v0.001v0.001c0,0,0,0.001,0,0.002c0.006,0.215,0.183,0.388,0.4,0.388
					C54.22,27.346,54.399,27.168,54.4,26.948z"/>
			</g>
		</g>
	</g>
</g>
</svg>
