<?xml version="1.0" encoding="utf-8"?>
<!-- Generator: Adobe Illustrator 17.0.0, SVG Export Plug-In . SVG Version: 6.00 Build 0)  -->
<!DOCTYPE svg PUBLIC "-//W3C//DTD SVG 1.1//EN" "http://www.w3.org/Graphics/SVG/1.1/DTD/svg11.dtd">
<svg version="1.1" xmlns="http://www.w3.org/2000/svg" xmlns:xlink="http://www.w3.org/1999/xlink" x="0px" y="0px" width="64px"
	 height="64px" viewBox="0 0 64 64" enable-background="new 0 0 64 64" xml:space="preserve">
<g id="Layer_4">
</g>
<g id="Layer_3">
</g>
<g id="Layer_2">
</g>
<g id="Layer_1">
</g>
<g id="Layer_5">
	<g>
		<g>
			<g>
				<g>
					<g>
						<path fill="#FBFFFF" d="M59.5,31.287c0-15.188-12.312-27.5-27.5-27.5S4.5,16.099,4.5,31.287
							c0,9.396,4.715,17.687,11.905,22.647h31.191C54.785,48.973,59.5,40.682,59.5,31.287z"/>
					</g>
				</g>
				<g>
					<path fill="#2D346A" d="M52.794,54.684H11.206c-0.414,0-0.75-0.336-0.75-0.75s0.336-0.75,0.75-0.75h41.588
						c0.414,0,0.75,0.336,0.75,0.75S53.208,54.684,52.794,54.684z"/>
				</g>
			</g>
			<g>
				<g>
					<path fill="#E8F3FF" d="M9.3,30.92c0,12.71,10.303,23.013,23.013,23.013c12.71,0,23.013-10.303,23.013-23.013"/>
				</g>
				<g>
					<ellipse fill="#C3CCE9" cx="32.314" cy="30.92" rx="23.013" ry="7.043"/>
				</g>
				<g>
					<path fill="#2D346A" d="M32.313,54.684c-13.103,0-23.763-10.66-23.763-23.763c0-0.414,0.336-0.75,0.75-0.75
						s0.75,0.336,0.75,0.75c0,12.275,9.987,22.263,22.263,22.263c12.276,0,22.264-9.987,22.264-22.263c0-0.414,0.336-0.75,0.75-0.75
						s0.75,0.336,0.75,0.75C56.077,44.023,45.417,54.684,32.313,54.684z"/>
				</g>
				<g>
					<path fill="#2D346A" d="M48.076,36.802c-0.326,0-0.626-0.214-0.721-0.543c-0.114-0.397,0.115-0.813,0.514-0.928
						c4.2-1.208,6.708-2.857,6.708-4.41c0-2.977-9.144-6.293-22.264-6.293c-3.269,0-6.419,0.207-9.365,0.614
						c-0.401,0.06-0.789-0.229-0.846-0.641c-0.057-0.41,0.23-0.789,0.641-0.846c3.014-0.417,6.233-0.628,9.57-0.628
						c11.521,0,23.764,2.731,23.764,7.793c0,2.361-2.695,4.385-7.794,5.852C48.214,36.792,48.145,36.802,48.076,36.802z"/>
				</g>
				<g>
					<path fill="#2D346A" d="M32.313,38.714c-11.52,0-23.763-2.731-23.763-7.793c0-2.88,4.182-5.329,11.472-6.719
						c0.407-0.086,0.8,0.188,0.877,0.596c0.078,0.407-0.189,0.8-0.596,0.877c-6.229,1.188-10.253,3.247-10.253,5.246
						c0,2.977,9.143,6.293,22.263,6.293c4.753,0,9.303-0.443,13.16-1.281c0.405-0.086,0.804,0.168,0.892,0.573
						c0.089,0.404-0.168,0.804-0.573,0.892C41.832,38.259,37.171,38.714,32.313,38.714z"/>
				</g>
			</g>
			<g>
				<path fill="#FFFFFF" d="M1.6,47.22c-0.002-0.201-0.072-1.202-1.2-1.202c-0.001,0-0.002,0-0.003,0c-0.002,0-0.003,0-0.005,0h0
					c-0.001,0-0.001,0-0.001,0H0.39c0,0-0.001,0-0.002,0C0.173,46.012,0,45.836,0,45.618c0-0.22,0.178-0.399,0.398-0.4
					c0.201-0.002,1.202-0.071,1.202-1.2c0-0.221,0.179-0.4,0.4-0.4c0.221,0,0.4,0.179,0.4,0.4c0,1.128,1.001,1.198,1.202,1.2
					C3.822,45.22,4,45.398,4,45.618c0,0.221-0.179,0.4-0.4,0.4c-1.129,0-1.198,1.002-1.2,1.2c0,0.002,0,0.002,0,0.002
					c0,0.003-0.001,0.006,0,0.006v0.001v0.001c0,0,0,0.001,0,0.001c-0.006,0.215-0.183,0.388-0.4,0.388
					C1.78,47.618,1.601,47.44,1.6,47.22z"/>
			</g>
			<g>
				<path fill="#FFFFFF" d="M62.8,39.443c-0.001-0.101-0.036-0.601-0.6-0.601h-0.001h-0.002h0h-0.001h-0.001h0
					C62.086,38.839,62,38.75,62,38.642c0-0.11,0.089-0.2,0.199-0.2c0.101-0.001,0.601-0.036,0.601-0.6c0-0.111,0.09-0.2,0.2-0.2
					c0.111,0,0.2,0.089,0.2,0.2c0,0.564,0.5,0.599,0.601,0.6c0.11,0,0.199,0.09,0.199,0.2c0,0.111-0.089,0.2-0.2,0.2
					c-0.565,0-0.599,0.501-0.6,0.6c0,0.001,0,0.001,0,0.001c0,0.001-0.001,0.003-0.001,0.003c0.001,0,0.001,0,0.001,0v0.001v0.001
					c-0.003,0.108-0.091,0.194-0.2,0.194C62.89,39.642,62.801,39.553,62.8,39.443z"/>
			</g>
			<g>
				<path fill="#E4C95C" d="M24.134,16.244c0.002-0.201,0.072-1.202,1.2-1.202c0.001,0,0.002,0,0.003,0c0.002,0,0.003,0,0.005,0h0
					c0.001,0,0.001,0,0.001,0h0.001c0,0,0.001,0,0.002,0c0.215-0.006,0.388-0.183,0.388-0.4c0-0.22-0.178-0.399-0.398-0.4
					c-0.201-0.002-1.202-0.071-1.202-1.2c0-0.221-0.179-0.4-0.4-0.4s-0.4,0.179-0.4,0.4c0,1.128-1.001,1.198-1.202,1.2
					c-0.22,0.001-0.398,0.18-0.398,0.4c0,0.221,0.179,0.4,0.4,0.4c1.129,0,1.198,1.002,1.2,1.2c0,0.001,0,0.002,0,0.002
					c0,0.003,0.001,0.006,0,0.006v0.001c0,0,0,0.001,0,0.001c0,0.001,0,0.001,0,0.002c0.006,0.215,0.183,0.388,0.4,0.388
					C23.955,16.642,24.133,16.464,24.134,16.244z"/>
			</g>
			<g>
				<path fill="#FFFFFF" d="M57.899,12.796c-0.002-0.201-0.072-1.202-1.2-1.202c-0.002,0-0.002,0-0.003,0c-0.001,0-0.003,0-0.005,0
					h0c-0.001,0-0.001,0-0.001,0s-0.001,0-0.001,0c0,0-0.001,0-0.002,0c-0.215-0.006-0.388-0.183-0.388-0.4
					c0-0.22,0.178-0.399,0.398-0.4c0.201-0.002,1.202-0.071,1.202-1.2c0-0.221,0.179-0.4,0.4-0.4s0.4,0.179,0.4,0.4
					c0,1.128,1.001,1.198,1.202,1.2c0.22,0.001,0.398,0.18,0.398,0.4c0,0.221-0.179,0.4-0.4,0.4c-1.129,0-1.198,1.002-1.2,1.2
					c0,0.002,0,0.002,0,0.002c0,0.003-0.001,0.006,0,0.006v0.001v0.001v0.002c-0.006,0.215-0.183,0.388-0.4,0.388
					C58.078,13.194,57.9,13.016,57.899,12.796z"/>
			</g>
			<g>
				<path fill="#E4C95C" d="M36.99,17.737c0.001-0.101,0.036-0.601,0.6-0.601h0.001h0.002h0c0,0,0.001,0,0.001,0h0h0
					c0.108-0.003,0.195-0.091,0.195-0.2c0-0.11-0.089-0.199-0.199-0.2c-0.101-0.001-0.601-0.036-0.601-0.6
					c0-0.111-0.089-0.2-0.2-0.2c-0.111,0-0.2,0.089-0.2,0.2c0,0.564-0.5,0.599-0.601,0.6c-0.11,0.001-0.199,0.09-0.199,0.2
					c0,0.111,0.089,0.2,0.2,0.2c0.565,0,0.599,0.501,0.6,0.6c0,0.001,0,0.001,0,0.001c0,0.001,0,0.003,0,0.003c0,0,0,0,0,0v0.001
					v0.001c0.003,0.108,0.091,0.194,0.2,0.194C36.901,17.936,36.99,17.847,36.99,17.737z"/>
			</g>
			<g>
				<path fill="#FFFFFF" d="M5.8,11.397c-0.001-0.101-0.036-0.601-0.6-0.601H5.199H5.196h0H5.195H5.195h0
					C5.086,10.792,5,10.704,5,10.596c0-0.11,0.089-0.199,0.199-0.2C5.3,10.394,5.8,10.36,5.8,9.796c0-0.111,0.089-0.2,0.2-0.2
					c0.111,0,0.2,0.09,0.2,0.2c0,0.564,0.5,0.599,0.601,0.6C6.911,10.396,7,10.485,7,10.596c0,0.111-0.089,0.2-0.2,0.2
					c-0.565,0-0.599,0.501-0.6,0.6c0,0.001,0,0.001,0,0.001c0,0.001-0.001,0.003-0.001,0.003c0.001,0,0.001,0,0.001,0v0.001v0.001
					c-0.003,0.108-0.091,0.194-0.2,0.194C5.89,11.596,5.801,11.507,5.8,11.397z"/>
			</g>
			<g>
				<path fill="#FFFFFF" d="M43.625,57.919h-23.25c-0.414,0-0.75-0.336-0.75-0.75s0.336-0.75,0.75-0.75h23.25
					c0.414,0,0.75,0.336,0.75,0.75S44.039,57.919,43.625,57.919z"/>
			</g>
			<g>
				<path fill="#FFFFFF" d="M32.313,61.154h-4.672c-0.414,0-0.75-0.336-0.75-0.75s0.336-0.75,0.75-0.75h4.672
					c0.414,0,0.75,0.336,0.75,0.75S32.728,61.154,32.313,61.154z"/>
			</g>
			<g>
				<path fill="#FFFFFF" d="M36.415,61.154h-1.249c-0.414,0-0.75-0.336-0.75-0.75s0.336-0.75,0.75-0.75h1.249
					c0.414,0,0.75,0.336,0.75,0.75S36.829,61.154,36.415,61.154z"/>
			</g>
		</g>
	</g>
</g>
</svg>
