<?xml version="1.0" encoding="utf-8"?>
<!-- Generator: Adobe Illustrator 17.0.0, SVG Export Plug-In . SVG Version: 6.00 Build 0)  -->
<!DOCTYPE svg PUBLIC "-//W3C//DTD SVG 1.1//EN" "http://www.w3.org/Graphics/SVG/1.1/DTD/svg11.dtd">
<svg version="1.1" xmlns="http://www.w3.org/2000/svg" xmlns:xlink="http://www.w3.org/1999/xlink" x="0px" y="0px" width="64px"
	 height="64px" viewBox="0 0 64 64" enable-background="new 0 0 64 64" xml:space="preserve">
<g id="Layer_4">
</g>
<g id="Layer_3">
</g>
<g id="Layer_2">
</g>
<g id="Layer_1">
</g>
<g id="Layer_5">
	<g>
		<g>
			<g>
				<g>
					<g>
						<path fill="#FBFFFF" d="M59.5,31.287c0-15.188-12.312-27.5-27.5-27.5S4.5,16.099,4.5,31.287
							c0,9.396,4.715,17.687,11.905,22.647h31.191C54.785,48.973,59.5,40.682,59.5,31.287z"/>
					</g>
				</g>
				<g>
					<path fill="#2D346A" d="M53.794,54.684H10.206c-0.414,0-0.75-0.336-0.75-0.75s0.336-0.75,0.75-0.75h43.588
						c0.414,0,0.75,0.336,0.75,0.75S54.208,54.684,53.794,54.684z"/>
				</g>
				<g>
					<path fill="#FFFFFF" d="M43.625,57.919h-23.25c-0.414,0-0.75-0.336-0.75-0.75s0.336-0.75,0.75-0.75h23.25
						c0.414,0,0.75,0.336,0.75,0.75S44.039,57.919,43.625,57.919z"/>
				</g>
				<g>
					<path fill="#FFFFFF" d="M32.313,61.154h-4.672c-0.414,0-0.75-0.336-0.75-0.75s0.336-0.75,0.75-0.75h4.672
						c0.414,0,0.75,0.336,0.75,0.75S32.728,61.154,32.313,61.154z"/>
				</g>
				<g>
					<path fill="#FFFFFF" d="M36.415,61.154h-1.249c-0.414,0-0.75-0.336-0.75-0.75s0.336-0.75,0.75-0.75h1.249
						c0.414,0,0.75,0.336,0.75,0.75S36.829,61.154,36.415,61.154z"/>
				</g>
			</g>
			<g>
				<g>
					<rect x="13.456" y="16.846" fill="#E8F3FF" width="37.088" height="37.088"/>
				</g>
				<g>
					<rect x="41.865" y="16.846" fill="#C3CCE9" width="8.679" height="37.088"/>
				</g>
				<g>
					<g>
						<path fill="#2D346A" d="M41.865,19.596c-0.414,0-0.75-0.336-0.75-0.75v-2c0-0.414,0.336-0.75,0.75-0.75s0.75,0.336,0.75,0.75
							v2C42.615,19.26,42.279,19.596,41.865,19.596z"/>
					</g>
					<g>
						<path fill="#2D346A" d="M41.865,49.008c-0.414,0-0.75-0.336-0.75-0.75v-3.677c0-0.414,0.336-0.75,0.75-0.75
							s0.75,0.336,0.75,0.75v3.677C42.615,48.672,42.279,49.008,41.865,49.008z M41.865,41.655c-0.414,0-0.75-0.336-0.75-0.75
							v-3.677c0-0.414,0.336-0.75,0.75-0.75s0.75,0.336,0.75,0.75v3.677C42.615,41.319,42.279,41.655,41.865,41.655z M41.865,34.302
							c-0.414,0-0.75-0.336-0.75-0.75v-3.677c0-0.414,0.336-0.75,0.75-0.75s0.75,0.336,0.75,0.75v3.677
							C42.615,33.966,42.279,34.302,41.865,34.302z M41.865,26.949c-0.414,0-0.75-0.336-0.75-0.75v-3.677
							c0-0.414,0.336-0.75,0.75-0.75s0.75,0.336,0.75,0.75v3.677C42.615,26.613,42.279,26.949,41.865,26.949z"/>
					</g>
					<g>
						<path fill="#2D346A" d="M41.865,54.684c-0.414,0-0.75-0.336-0.75-0.75v-2c0-0.414,0.336-0.75,0.75-0.75s0.75,0.336,0.75,0.75
							v2C42.615,54.348,42.279,54.684,41.865,54.684z"/>
					</g>
				</g>
				<g>
					<path fill="#2D346A" d="M13.456,43.596c-0.414,0-0.75-0.336-0.75-0.75v-26c0-0.414,0.336-0.75,0.75-0.75h34.088
						c0.414,0,0.75,0.336,0.75,0.75s-0.336,0.75-0.75,0.75H14.206v25.25C14.206,43.26,13.87,43.596,13.456,43.596z"/>
				</g>
				<g>
					<path fill="#2D346A" d="M50.544,54.684H13.456c-0.414,0-0.75-0.336-0.75-0.75v-8.088c0-0.414,0.336-0.75,0.75-0.75
						s0.75,0.336,0.75,0.75v7.338h35.588V16.846c0-0.414,0.336-0.75,0.75-0.75s0.75,0.336,0.75,0.75v37.088
						C51.294,54.348,50.958,54.684,50.544,54.684z"/>
				</g>
			</g>
			<g>
				<path fill="#FFFFFF" d="M1.6,17.244c-0.002-0.201-0.071-1.202-1.2-1.202c-0.002,0-0.002,0-0.003,0c-0.002,0-0.003,0-0.005,0h0
					c-0.001,0-0.001,0-0.001,0H0.39c0,0-0.001,0-0.002,0C0.173,16.036,0,15.859,0,15.642c0-0.22,0.178-0.399,0.398-0.4
					c0.201-0.002,1.202-0.071,1.202-1.2c0-0.221,0.179-0.4,0.4-0.4c0.221,0,0.4,0.179,0.4,0.4c0,1.128,1.001,1.198,1.202,1.2
					C3.822,15.243,4,15.421,4,15.642c0,0.221-0.179,0.4-0.4,0.4c-1.129,0-1.198,1.002-1.2,1.2c0,0.001,0,0.002,0,0.002
					c0,0.003-0.001,0.006,0,0.006v0.001c0,0,0,0.001,0,0.001c0,0.001,0,0.001,0,0.002c-0.006,0.215-0.183,0.388-0.4,0.388
					C1.78,17.642,1.601,17.464,1.6,17.244z"/>
			</g>
			<g>
				<path fill="#FFFFFF" d="M61.6,49.536c-0.002-0.201-0.072-1.202-1.2-1.202c-0.001,0-0.002,0-0.003,0c-0.002,0-0.003,0-0.005,0h0
					c-0.001,0-0.001,0-0.001,0H60.39c0,0-0.001,0-0.002,0C60.173,48.328,60,48.151,60,47.934c0-0.22,0.178-0.399,0.398-0.4
					c0.201-0.002,1.202-0.072,1.202-1.2c0-0.221,0.179-0.4,0.4-0.4c0.221,0,0.4,0.179,0.4,0.4c0,1.128,1.001,1.198,1.202,1.2
					c0.22,0.001,0.398,0.18,0.398,0.4c0,0.221-0.179,0.4-0.4,0.4c-1.129,0-1.198,1.002-1.2,1.2c0,0.002,0,0.002,0,0.002
					c0,0.003-0.001,0.006,0,0.006v0.001c0,0,0,0.001,0,0.001c0,0.001,0,0.001,0,0.002c-0.006,0.215-0.183,0.388-0.4,0.388
					C61.78,49.934,61.601,49.756,61.6,49.536z"/>
			</g>
			<g>
				<path fill="#E4C95C" d="M35.124,11.539c-0.002-0.201-0.071-1.202-1.2-1.202c-0.001,0-0.002,0-0.002,0c-0.002,0-0.004,0-0.006,0
					h0h-0.001h-0.001h-0.002c-0.215-0.006-0.388-0.183-0.388-0.4c0-0.22,0.178-0.399,0.398-0.4c0.201-0.002,1.202-0.071,1.202-1.2
					c0-0.221,0.179-0.4,0.4-0.4s0.4,0.179,0.4,0.4c0,1.128,1.001,1.198,1.202,1.2c0.22,0.001,0.398,0.18,0.398,0.4
					c0,0.221-0.179,0.4-0.4,0.4c-1.129,0-1.198,1.002-1.2,1.2c0,0.002,0,0.002,0,0.002c0,0.003-0.001,0.006,0,0.006v0.001
					c0,0,0,0.001,0,0.001c0,0.001,0,0.001,0,0.002c-0.006,0.215-0.183,0.388-0.4,0.388C35.304,11.937,35.126,11.759,35.124,11.539z"
					/>
			</g>
			<g>
				<path fill="#FFFFFF" d="M62.8,10.738c-0.001-0.101-0.036-0.601-0.6-0.601h-0.001h-0.002h0h-0.001h-0.001h0
					C62.087,10.134,62,10.045,62,9.937c0-0.11,0.089-0.199,0.199-0.2C62.3,9.736,62.8,9.701,62.8,9.137c0-0.111,0.089-0.2,0.2-0.2
					c0.111,0,0.2,0.09,0.2,0.2c0,0.564,0.5,0.599,0.601,0.6C63.911,9.737,64,9.827,64,9.937c0,0.111-0.089,0.2-0.2,0.2
					c-0.565,0-0.599,0.501-0.6,0.6c0,0.001,0,0.001,0,0.001c0,0.001-0.001,0.003-0.001,0.003c0.001,0,0.001,0,0.001,0v0.001v0.001
					c-0.003,0.108-0.091,0.194-0.2,0.194C62.89,10.937,62.801,10.848,62.8,10.738z"/>
			</g>
			<g>
				<path fill="#FFFFFF" d="M6.8,51.419c-0.001-0.101-0.036-0.601-0.6-0.601c-0.001,0-0.001,0-0.001,0c-0.001,0-0.002,0-0.003,0h0
					H6.196H6.195H6.194C6.087,50.815,6,50.727,6,50.618c0-0.11,0.089-0.199,0.199-0.2C6.3,50.417,6.8,50.383,6.8,49.818
					c0-0.111,0.089-0.2,0.2-0.2c0.111,0,0.2,0.09,0.2,0.2c0,0.564,0.5,0.599,0.601,0.6C7.911,50.419,8,50.508,8,50.618
					c0,0.111-0.089,0.2-0.2,0.2c-0.565,0-0.599,0.501-0.6,0.6c0,0.001,0,0.001,0,0.001c0,0.001-0.001,0.003,0,0.003v0.001
					c0,0,0,0,0,0v0.001c-0.003,0.108-0.091,0.194-0.2,0.194C6.89,51.618,6.801,51.529,6.8,51.419z"/>
			</g>
		</g>
	</g>
</g>
</svg>
