<?xml version="1.0" encoding="utf-8"?>
<!-- Generator: Adobe Illustrator 17.0.0, SVG Export Plug-In . SVG Version: 6.00 Build 0)  -->
<!DOCTYPE svg PUBLIC "-//W3C//DTD SVG 1.1//EN" "http://www.w3.org/Graphics/SVG/1.1/DTD/svg11.dtd">
<svg version="1.1" xmlns="http://www.w3.org/2000/svg" xmlns:xlink="http://www.w3.org/1999/xlink" x="0px" y="0px" width="64px"
	 height="64px" viewBox="0 0 64 64" enable-background="new 0 0 64 64" xml:space="preserve">
<g id="Layer_4">
</g>
<g id="Layer_3">
</g>
<g id="Layer_2">
</g>
<g id="Layer_1">
</g>
<g id="Layer_5">
	<g>
		<g>
			<g>
				<path fill="#FBE2CB" d="M59.5,31.191c0-15.188-12.312-27.5-27.5-27.5S4.5,16.003,4.5,31.191c0,9.396,4.715,17.687,11.905,22.647
					h31.191C54.785,48.878,59.5,40.587,59.5,31.191z"/>
			</g>
			
				<line fill="none" stroke="#2D346A" stroke-width="1.5" stroke-linecap="round" stroke-miterlimit="10" x1="14.206" y1="53.838" x2="49.794" y2="53.838"/>
			
				<line fill="none" stroke="#C3CCE9" stroke-width="1.5" stroke-linecap="round" stroke-linejoin="round" stroke-miterlimit="10" x1="20.375" y1="57.074" x2="43.625" y2="57.074"/>
			
				<line fill="none" stroke="#C3CCE9" stroke-width="1.5" stroke-linecap="round" stroke-linejoin="round" stroke-miterlimit="10" x1="27.641" y1="60.309" x2="32.314" y2="60.309"/>
			
				<line fill="none" stroke="#C3CCE9" stroke-width="1.5" stroke-linecap="round" stroke-linejoin="round" stroke-miterlimit="10" x1="35.166" y1="60.309" x2="36.415" y2="60.309"/>
		</g>
		<path fill="#E4C95C" d="M62.4,47.125c0.002-0.201,0.071-1.202,1.2-1.202c0.002,0,0.002,0,0.003,0c0.002,0,0.003,0,0.005,0h0
			c0.001,0,0.001,0,0.001,0h0.001c0,0,0.001,0,0.002,0C63.827,45.917,64,45.74,64,45.523c0-0.22-0.178-0.399-0.398-0.4
			c-0.201-0.002-1.202-0.071-1.202-1.2c0-0.221-0.179-0.4-0.4-0.4s-0.4,0.179-0.4,0.4c0,1.129-1.001,1.198-1.202,1.2
			c-0.22,0.001-0.398,0.18-0.398,0.4c0,0.221,0.179,0.4,0.4,0.4c1.129,0,1.198,1.002,1.2,1.2c0,0.002,0,0.002,0,0.002
			c0,0.003,0.001,0.006,0,0.006v0.001v0.001c0,0,0,0.001,0,0.002c0.006,0.215,0.183,0.388,0.4,0.388
			C62.22,47.523,62.399,47.345,62.4,47.125z"/>
		<path fill="#E4C95C" d="M51.353,24.795c0.002-0.201,0.071-1.202,1.2-1.202c0.002,0,0.002,0,0.003,0c0.002,0,0.003,0,0.005,0h0
			c0.001,0,0.001,0,0.001,0h0.001c0,0,0.001,0,0.002,0c0.215-0.006,0.388-0.183,0.388-0.4c0-0.22-0.178-0.399-0.398-0.4
			c-0.201-0.002-1.202-0.071-1.202-1.2c0-0.221-0.179-0.4-0.4-0.4c-0.221,0-0.4,0.179-0.4,0.4c0,1.129-1.001,1.198-1.202,1.2
			c-0.22,0.001-0.398,0.18-0.398,0.4c0,0.221,0.179,0.4,0.4,0.4c1.129,0,1.198,1.002,1.2,1.2c0,0.002,0,0.002,0,0.002
			c0,0.003,0.001,0.006,0,0.006v0.001v0.001c0,0,0,0.001,0,0.002c0.006,0.215,0.183,0.388,0.4,0.388
			C51.173,25.193,51.351,25.015,51.353,24.795z"/>
		<path fill="#E4C95C" d="M6.9,11.102C6.902,10.901,6.971,9.9,8.1,9.9c0.002,0,0.002,0,0.003,0c0.002,0,0.003,0,0.005,0h0
			c0.001,0,0.001,0,0.001,0H8.11c0,0,0.001,0,0.002,0C8.327,9.894,8.5,9.717,8.5,9.5c0-0.22-0.178-0.399-0.398-0.4
			C7.901,9.098,6.9,9.028,6.9,7.9c0-0.221-0.179-0.4-0.4-0.4S6.1,7.679,6.1,7.9c0,1.129-1.001,1.198-1.202,1.2
			C4.678,9.101,4.5,9.28,4.5,9.5c0,0.221,0.179,0.4,0.4,0.4c1.129,0,1.198,1.002,1.2,1.2c0,0.002,0,0.002,0,0.002
			c0,0.003,0.001,0.006,0,0.006v0.001v0.001c0,0,0,0.001,0,0.002C6.106,11.327,6.283,11.5,6.5,11.5
			C6.72,11.5,6.899,11.322,6.9,11.102z"/>
		<path fill="#E4C95C" d="M1.2,48.762c0.001-0.101,0.036-0.601,0.6-0.601h0.001h0.002h0h0.001h0.001h0
			C1.913,48.157,2,48.069,2,47.961c0-0.11-0.089-0.199-0.199-0.2C1.7,47.759,1.2,47.725,1.2,47.161c0-0.111-0.089-0.2-0.2-0.2
			s-0.2,0.089-0.2,0.2c0,0.564-0.5,0.599-0.601,0.6C0.089,47.761,0,47.85,0,47.961c0,0.111,0.089,0.2,0.2,0.2
			c0.565,0,0.599,0.501,0.6,0.6v0.001c0,0.001,0.001,0.003,0.001,0.003c-0.001,0-0.001,0-0.001,0v0.001v0.001
			c0.003,0.108,0.091,0.194,0.2,0.194C1.11,48.961,1.199,48.871,1.2,48.762z"/>
		<path fill="#E4C95C" d="M55.994,10.301C55.995,10.2,56.03,9.7,56.594,9.7h0.001h0.002h0h0.001h0.001h0
			c0.108-0.003,0.195-0.091,0.195-0.2c0-0.11-0.089-0.199-0.199-0.2c-0.101-0.001-0.601-0.036-0.601-0.6c0-0.111-0.089-0.2-0.2-0.2
			s-0.2,0.089-0.2,0.2c0,0.564-0.5,0.599-0.601,0.6c-0.11,0.001-0.199,0.09-0.199,0.2c0,0.111,0.089,0.2,0.2,0.2
			c0.565,0,0.599,0.501,0.6,0.6c0,0.001,0,0.001,0,0.001c0,0.001,0.001,0.003,0.001,0.003c-0.001,0-0.001,0-0.001,0v0.001v0.001
			c0.003,0.108,0.091,0.194,0.2,0.194C55.904,10.5,55.994,10.411,55.994,10.301z"/>
		<path fill="#E4C95C" d="M37.042,12.095c0.001-0.101,0.036-0.601,0.6-0.601h0.001h0.002h0h0.001h0.001h0
			c0.108-0.003,0.195-0.091,0.195-0.2c0-0.11-0.089-0.199-0.199-0.2c-0.101-0.001-0.601-0.036-0.601-0.6c0-0.111-0.089-0.2-0.2-0.2
			s-0.2,0.089-0.2,0.2c0,0.564-0.5,0.599-0.601,0.6c-0.11,0.001-0.199,0.09-0.199,0.2c0,0.111,0.089,0.2,0.2,0.2
			c0.565,0,0.599,0.501,0.6,0.6c0,0.001,0,0.001,0,0.001c0,0.001,0.001,0.003,0.001,0.003c-0.001,0-0.001,0-0.001,0v0.001v0.001
			c0.003,0.108,0.091,0.194,0.2,0.194C36.952,12.294,37.041,12.205,37.042,12.095z"/>
		<path fill="#E4C95C" d="M11.606,33.691c0.002-0.201,0.071-1.202,1.2-1.202c0.002,0,0.002,0,0.003,0c0.002,0,0.003,0,0.005,0h0
			c0.001,0,0.001,0,0.001,0h0.001c0,0,0.001,0,0.002,0c0.215-0.006,0.388-0.183,0.388-0.4c0-0.22-0.178-0.399-0.398-0.4
			c-0.201-0.002-1.202-0.071-1.202-1.2c0-0.221-0.179-0.4-0.4-0.4s-0.4,0.179-0.4,0.4c0,1.129-1.001,1.198-1.202,1.2
			c-0.22,0.001-0.398,0.18-0.398,0.4c0,0.221,0.179,0.4,0.4,0.4c1.129,0,1.198,1.002,1.2,1.2c0,0.002,0,0.002,0,0.002
			c0,0.003,0.001,0.006,0,0.006v0.001v0.001c0,0,0,0.001,0,0.002c0.006,0.215,0.183,0.388,0.4,0.388
			C11.426,34.089,11.605,33.911,11.606,33.691z"/>
		<g>
			<g>
				
					<polyline fill="#C3CCE9" stroke="#2D346A" stroke-width="1.5" stroke-linecap="round" stroke-linejoin="round" stroke-miterlimit="10" points="
					17.802,20.563 17.802,53.75 31.733,53.75 31.733,20.563 				"/>
				<g>
					
						<path fill="#E8F3FF" stroke="#2D346A" stroke-width="1.5" stroke-linecap="round" stroke-linejoin="round" stroke-miterlimit="10" d="
						M21.969,13.946l-4.166,6.617h13.931l-4.166-6.617"/>
					
						<path fill="#E4C95C" stroke="#2D346A" stroke-width="1.5" stroke-linecap="round" stroke-linejoin="round" stroke-miterlimit="10" d="
						M27.567,13.946L24.768,9.5l-2.799,4.446c0.811,0.512,1.769,0.813,2.799,0.813C25.798,14.758,26.756,14.457,27.567,13.946z"/>
				</g>
				
					<line fill="none" stroke="#2D346A" stroke-width="1.5" stroke-linecap="round" stroke-miterlimit="10" x1="22.446" y1="23.563" x2="22.446" y2="53.75"/>
				
					<line fill="none" stroke="#2D346A" stroke-width="1.5" stroke-miterlimit="10" x1="27.089" y1="20.563" x2="27.089" y2="53.75"/>
			</g>
			<g>
				
					<rect x="28.81" y="26.04" transform="matrix(0.681 0.7323 -0.7323 0.681 37.8065 -19.2448)" fill="#E4C95C" width="24.366" height="15.466"/>
				
					<line fill="none" stroke="#2D346A" stroke-width="1.5" stroke-linecap="round" stroke-linejoin="round" stroke-miterlimit="10" x1="37.811" y1="26.75" x2="41.678" y2="23.154"/>
				
					<line fill="none" stroke="#2D346A" stroke-width="1.5" stroke-linecap="round" stroke-linejoin="round" stroke-miterlimit="10" x1="39.334" y1="31.989" x2="44.996" y2="26.723"/>
				
					<line fill="none" stroke="#2D346A" stroke-width="1.5" stroke-linecap="round" stroke-linejoin="round" stroke-miterlimit="10" x1="49.563" y1="35.786" x2="51.634" y2="33.859"/>
				
					<line fill="none" stroke="#2D346A" stroke-width="1.5" stroke-linecap="round" stroke-linejoin="round" stroke-miterlimit="10" x1="44.448" y1="33.887" x2="48.315" y2="30.291"/>
				
					<polyline fill="none" stroke="#2D346A" stroke-width="1.5" stroke-linecap="round" stroke-linejoin="round" stroke-miterlimit="10" points="
					46.321,45.456 55.224,37.175 38.63,19.333 27.034,30.118 43.627,47.961 				"/>
				
					<path fill="#E8F3FF" stroke="#2D346A" stroke-width="1.5" stroke-linecap="round" stroke-linejoin="round" stroke-miterlimit="10" d="
					M27.251,41.387l-5.836,5.428c-1.488,1.383-1.572,3.711-0.188,5.199l0.143,0.154c1.383,1.488,3.711,1.572,5.199,0.188
					l5.836-5.428l4.885,5.253c1.383,1.488,3.711,1.572,5.199,0.188l2.81-2.613L25.364,28.323l-2.81,2.613
					c-1.488,1.383-1.572,3.711-0.188,5.199L27.251,41.387z"/>
				<circle fill="#C3CCE9" cx="23.934" cy="49.638" r="1.226"/>
			</g>
		</g>
	</g>
</g>
</svg>
