<?xml version="1.0" encoding="utf-8"?>
<!-- Generator: Adobe Illustrator 17.0.0, SVG Export Plug-In . SVG Version: 6.00 Build 0)  -->
<!DOCTYPE svg PUBLIC "-//W3C//DTD SVG 1.1//EN" "http://www.w3.org/Graphics/SVG/1.1/DTD/svg11.dtd">
<svg version="1.1" xmlns="http://www.w3.org/2000/svg" xmlns:xlink="http://www.w3.org/1999/xlink" x="0px" y="0px" width="64px"
	 height="64px" viewBox="0 0 64 64" enable-background="new 0 0 64 64" xml:space="preserve">
<g id="Layer_4">
</g>
<g id="Layer_3">
</g>
<g id="Layer_2">
</g>
<g id="Layer_1">
</g>
<g id="Layer_5">
	<g>
		<g>
			<g>
				<path fill="#FBE2CB" d="M59.5,31.191c0-15.188-12.312-27.5-27.5-27.5S4.5,16.003,4.5,31.191c0,9.396,4.715,17.687,11.905,22.647
					h31.191C54.785,48.878,59.5,40.587,59.5,31.191z"/>
			</g>
			
				<line fill="none" stroke="#2D346A" stroke-width="1.5" stroke-linecap="round" stroke-miterlimit="10" x1="14.206" y1="53.838" x2="49.794" y2="53.838"/>
			
				<line fill="none" stroke="#C3CCE9" stroke-width="1.5" stroke-linecap="round" stroke-linejoin="round" stroke-miterlimit="10" x1="20.375" y1="57.074" x2="43.625" y2="57.074"/>
			
				<line fill="none" stroke="#C3CCE9" stroke-width="1.5" stroke-linecap="round" stroke-linejoin="round" stroke-miterlimit="10" x1="27.641" y1="60.309" x2="32.314" y2="60.309"/>
			
				<line fill="none" stroke="#C3CCE9" stroke-width="1.5" stroke-linecap="round" stroke-linejoin="round" stroke-miterlimit="10" x1="35.166" y1="60.309" x2="36.415" y2="60.309"/>
		</g>
		<g>
			<polyline fill="#E8F3FF" points="47.5,43.667 47.5,23.154 20.314,23.154 20.314,53.838 47.5,53.838 47.5,46.667 			"/>
			
				<path fill="none" stroke="#2D346A" stroke-width="1.5" stroke-linecap="round" stroke-linejoin="round" stroke-miterlimit="10" d="
				M47.5,21.193C47.5,13.686,41.414,7.6,33.907,7.6s-13.593,6.086-13.593,13.593"/>
			<path fill="#C3CCE9" d="M47.5,24.952h-2.523h-3.104h-3.104h-3.104H20.314v2.305h15.351v3.784c0,0.857,0.695,1.552,1.552,1.552
				s1.552-0.695,1.552-1.552v-1.696c0-0.857,0.695-1.552,1.552-1.552s1.552,0.695,1.552,1.552v5.192
				c0,0.857,0.695,1.552,1.552,1.552s1.552-0.695,1.552-1.552v-7.28H47.5V24.952z"/>
			
				<polyline fill="none" stroke="#2D346A" stroke-width="1.5" stroke-linecap="round" stroke-linejoin="round" stroke-miterlimit="10" points="
				47.5,43.667 47.5,23.154 20.314,23.154 20.314,53.838 47.5,53.838 47.5,46.667 			"/>
			
				<polyline fill="#E8F3FF" stroke="#2D346A" stroke-width="1.5" stroke-linecap="round" stroke-linejoin="round" stroke-miterlimit="10" points="
				26.625,24.952 18.02,24.952 18.02,21.434 49.794,21.434 49.794,24.952 29.625,24.952 			"/>
		</g>
		<g>
			
				<rect x="12.351" y="29.475" transform="matrix(1 0.0011 -0.0011 1 0.0379 -0.0226)" fill="#E4C95C" width="16.987" height="10.782"/>
			
				<line fill="none" stroke="#2D346A" stroke-width="1.5" stroke-linecap="round" stroke-linejoin="round" stroke-miterlimit="10" x1="15.751" y1="33.151" x2="15.755" y2="29.469"/>
			
				<line fill="none" stroke="#2D346A" stroke-width="1.5" stroke-linecap="round" stroke-linejoin="round" stroke-miterlimit="10" x1="19.146" y1="34.864" x2="19.152" y2="29.473"/>
			
				<line fill="none" stroke="#2D346A" stroke-width="1.5" stroke-linecap="round" stroke-linejoin="round" stroke-miterlimit="10" x1="25.945" y1="31.452" x2="25.947" y2="29.48"/>
			
				<line fill="none" stroke="#2D346A" stroke-width="1.5" stroke-linecap="round" stroke-linejoin="round" stroke-miterlimit="10" x1="22.545" y1="33.158" x2="22.549" y2="29.476"/>
			
				<polyline fill="none" stroke="#2D346A" stroke-width="1.5" stroke-linecap="round" stroke-linejoin="round" stroke-miterlimit="10" points="
				29.335,37.702 29.344,29.225 12.357,29.207 12.345,40.248 29.332,40.266 			"/>
			
				<path fill="#E8F3FF" stroke="#2D346A" stroke-width="1.5" stroke-linecap="round" stroke-linejoin="round" stroke-miterlimit="10" d="
				M10.636,40.246l-0.003,2.675c-0.002,1.416,1.145,2.566,2.562,2.567l5.001,0.005l-0.006,5.556
				c-0.002,1.416,1.145,2.566,2.562,2.567l0.147,0c1.416,0.002,2.566-1.145,2.567-2.562l0.006-5.556l5.001,0.005
				c1.416,0.002,2.566-1.145,2.567-2.562l0.003-2.675L10.636,40.246z"/>
			<circle fill="#C3CCE9" cx="20.827" cy="51.107" r="0.855"/>
		</g>
		<path fill="#E4C95C" d="M3.6,50.125c-0.002-0.201-0.071-1.202-1.2-1.202c-0.002,0-0.002,0-0.003,0c-0.002,0-0.003,0-0.005,0h0
			c-0.001,0-0.001,0-0.001,0H2.39c0,0-0.001,0-0.002,0C2.173,48.917,2,48.74,2,48.523c0-0.22,0.178-0.399,0.398-0.4
			c0.201-0.002,1.202-0.071,1.202-1.2c0-0.221,0.179-0.4,0.4-0.4s0.4,0.179,0.4,0.4c0,1.129,1.001,1.198,1.202,1.2
			C5.822,48.124,6,48.303,6,48.523c0,0.221-0.179,0.4-0.4,0.4c-1.129,0-1.198,1.002-1.2,1.2c0,0.002,0,0.002,0,0.002
			c0,0.003-0.001,0.006,0,0.006v0.001v0.001c0,0,0,0.001,0,0.002C4.394,50.35,4.217,50.523,4,50.523
			C3.78,50.523,3.601,50.345,3.6,50.125z"/>
		<path fill="#E4C95C" d="M62.8,43.347c-0.001-0.101-0.036-0.601-0.6-0.601h-0.001h-0.002h0h-0.001h-0.001h0
			C62.087,42.743,62,42.655,62,42.546c0-0.11,0.089-0.199,0.199-0.2c0.101-0.001,0.601-0.036,0.601-0.6c0-0.111,0.089-0.2,0.2-0.2
			s0.2,0.089,0.2,0.2c0,0.564,0.5,0.599,0.601,0.6c0.11,0.001,0.199,0.09,0.199,0.2c0,0.111-0.089,0.2-0.2,0.2
			c-0.565,0-0.599,0.501-0.6,0.6c0,0.001,0,0.001,0,0.001c0,0.001-0.001,0.003-0.001,0.003c0.001,0,0.001,0,0.001,0v0.001v0.001
			c-0.003,0.108-0.091,0.194-0.2,0.194C62.89,43.546,62.801,43.457,62.8,43.347z"/>
		<path fill="#E4C95C" d="M55.127,8.401C55.126,8.3,55.091,7.8,54.527,7.8h-0.001h-0.002h0h-0.001h-0.001h0
			c-0.108-0.003-0.195-0.091-0.195-0.2c0-0.11,0.089-0.199,0.199-0.2c0.101-0.001,0.601-0.036,0.601-0.6c0-0.111,0.089-0.2,0.2-0.2
			c0.111,0,0.2,0.089,0.2,0.2c0,0.564,0.5,0.599,0.601,0.6c0.11,0.001,0.199,0.09,0.199,0.2c0,0.111-0.089,0.2-0.2,0.2
			c-0.565,0-0.599,0.501-0.6,0.6c0,0.001,0,0.001,0,0.001c0,0.001-0.001,0.003-0.001,0.003c0.001,0,0.001,0,0.001,0v0.001v0.001
			c-0.003,0.108-0.091,0.194-0.2,0.194C55.217,8.6,55.128,8.511,55.127,8.401z"/>
		<path fill="#E4C95C" d="M32.114,15.095c-0.001-0.101-0.036-0.601-0.6-0.601h-0.001H31.51h0h-0.001h-0.001h0
			c-0.108-0.003-0.195-0.091-0.195-0.2c0-0.11,0.089-0.199,0.199-0.2c0.101-0.001,0.601-0.036,0.601-0.6c0-0.111,0.089-0.2,0.2-0.2
			s0.2,0.089,0.2,0.2c0,0.564,0.5,0.599,0.601,0.6c0.11,0.001,0.199,0.09,0.199,0.2c0,0.111-0.089,0.2-0.2,0.2
			c-0.565,0-0.599,0.501-0.6,0.6c0,0.001,0,0.001,0,0.001c0,0.001-0.001,0.003-0.001,0.003c0.001,0,0.001,0,0.001,0v0.001v0.001
			c-0.003,0.108-0.091,0.194-0.2,0.194C32.204,15.294,32.114,15.205,32.114,15.095z"/>
		<path fill="#E4C95C" d="M52.927,32.992c-0.002-0.201-0.071-1.202-1.2-1.202c-0.002,0-0.002,0-0.003,0c-0.002,0-0.003,0-0.005,0h0
			c-0.001,0-0.001,0-0.001,0s-0.001,0-0.001,0c0,0-0.001,0-0.002,0c-0.215-0.006-0.388-0.183-0.388-0.4
			c0-0.22,0.178-0.399,0.398-0.4c0.201-0.002,1.202-0.071,1.202-1.2c0-0.221,0.179-0.4,0.4-0.4c0.221,0,0.4,0.179,0.4,0.4
			c0,1.129,1.001,1.198,1.202,1.2c0.22,0.001,0.398,0.18,0.398,0.4c0,0.221-0.179,0.4-0.4,0.4c-1.129,0-1.198,1.002-1.2,1.2
			c0,0.002,0,0.002,0,0.002c0,0.003-0.001,0.006,0,0.006v0.001c0,0,0,0.001,0,0.001v0.002c-0.006,0.215-0.183,0.388-0.4,0.388
			C53.107,33.39,52.928,33.212,52.927,32.992z"/>
		<path fill="#E4C95C" d="M11.806,23.795c-0.002-0.201-0.071-1.202-1.2-1.202c-0.002,0-0.002,0-0.003,0c-0.002,0-0.003,0-0.005,0h0
			c-0.001,0-0.001,0-0.001,0s-0.001,0-0.001,0c0,0-0.001,0-0.002,0c-0.215-0.006-0.388-0.183-0.388-0.4
			c0-0.22,0.178-0.399,0.398-0.4c0.201-0.002,1.202-0.071,1.202-1.2c0-0.221,0.179-0.4,0.4-0.4c0.221,0,0.4,0.179,0.4,0.4
			c0,1.129,1.001,1.198,1.202,1.2c0.22,0.001,0.398,0.18,0.398,0.4c0,0.221-0.179,0.4-0.4,0.4c-1.129,0-1.198,1.002-1.2,1.2
			c0,0.002,0,0.002,0,0.002c0,0.003-0.001,0.006,0,0.006v0.001c0,0,0,0.001,0,0.001v0.002c-0.006,0.215-0.183,0.388-0.4,0.388
			C11.986,24.193,11.807,24.015,11.806,23.795z"/>
		<path fill="#E4C95C" d="M0.8,15.301C0.799,15.2,0.764,14.7,0.2,14.7H0.199H0.196h0H0.196H0.195h0C0.087,14.697,0,14.609,0,14.5
			c0-0.11,0.089-0.199,0.199-0.2C0.3,14.299,0.8,14.264,0.8,13.7c0-0.111,0.089-0.2,0.2-0.2s0.2,0.089,0.2,0.2
			c0,0.564,0.5,0.599,0.601,0.6C1.911,14.301,2,14.39,2,14.5c0,0.111-0.089,0.2-0.2,0.2c-0.565,0-0.599,0.501-0.6,0.6
			c0,0.001,0,0.001,0,0.001c0,0.001-0.001,0.003-0.001,0.003c0.001,0,0.001,0,0.001,0v0.001v0.001C1.197,15.413,1.109,15.5,1,15.5
			C0.89,15.5,0.801,15.411,0.8,15.301z"/>
	</g>
</g>
</svg>
