<?xml version="1.0" encoding="utf-8"?>
<!-- Generator: Adobe Illustrator 17.0.0, SVG Export Plug-In . SVG Version: 6.00 Build 0)  -->
<!DOCTYPE svg PUBLIC "-//W3C//DTD SVG 1.1//EN" "http://www.w3.org/Graphics/SVG/1.1/DTD/svg11.dtd">
<svg version="1.1" xmlns="http://www.w3.org/2000/svg" xmlns:xlink="http://www.w3.org/1999/xlink" x="0px" y="0px" width="64px"
	 height="64px" viewBox="0 0 64 64" enable-background="new 0 0 64 64" xml:space="preserve">
<g id="Layer_4">
</g>
<g id="Layer_3">
</g>
<g id="Layer_2">
</g>
<g id="Layer_1">
</g>
<g id="Layer_5">
	<g>
		<g>
			<g>
				<g>
					<g>
						<path fill="#FBFFFF" d="M59.5,31.287c0-15.188-12.312-27.5-27.5-27.5S4.5,16.099,4.5,31.287
							c0,9.396,4.715,17.687,11.905,22.647h31.191C54.785,48.973,59.5,40.682,59.5,31.287z"/>
					</g>
				</g>
				<g>
					<path fill="#2D346A" d="M52.794,54.684H11.206c-0.414,0-0.75-0.336-0.75-0.75s0.336-0.75,0.75-0.75h41.588
						c0.414,0,0.75,0.336,0.75,0.75S53.208,54.684,52.794,54.684z"/>
				</g>
				<g>
					<path fill="#FFFFFF" d="M43.625,57.919h-23.25c-0.414,0-0.75-0.336-0.75-0.75s0.336-0.75,0.75-0.75h23.25
						c0.414,0,0.75,0.336,0.75,0.75S44.039,57.919,43.625,57.919z"/>
				</g>
				<g>
					<path fill="#FFFFFF" d="M32.313,61.154h-4.672c-0.414,0-0.75-0.336-0.75-0.75s0.336-0.75,0.75-0.75h4.672
						c0.414,0,0.75,0.336,0.75,0.75S32.728,61.154,32.313,61.154z"/>
				</g>
				<g>
					<path fill="#FFFFFF" d="M36.415,61.154h-1.249c-0.414,0-0.75-0.336-0.75-0.75s0.336-0.75,0.75-0.75h1.249
						c0.414,0,0.75,0.336,0.75,0.75S36.829,61.154,36.415,61.154z"/>
				</g>
			</g>
			<g>
				<path fill="#FFFFFF" d="M62.4,13.198c0.002-0.201,0.071-1.202,1.2-1.202c0.002,0,0.002,0,0.003,0c0.002,0,0.003,0,0.005,0h0
					c0.001,0,0.001,0,0.001,0h0.001c0,0,0.001,0,0.001,0c0.215-0.006,0.388-0.183,0.388-0.4c0-0.22-0.178-0.399-0.398-0.4
					c-0.201-0.002-1.202-0.071-1.202-1.2c0-0.221-0.179-0.4-0.4-0.4c-0.221,0-0.4,0.179-0.4,0.4c0,1.129-1.001,1.198-1.202,1.2
					c-0.22,0.001-0.398,0.18-0.398,0.4c0,0.221,0.179,0.4,0.4,0.4c1.129,0,1.198,1.002,1.2,1.2c0,0.002,0,0.002,0,0.002
					c0,0.003,0.001,0.006,0,0.006v0.001v0.001c0,0,0,0.001,0,0.002c0.006,0.215,0.183,0.388,0.4,0.388
					C62.22,13.596,62.399,13.417,62.4,13.198z"/>
			</g>
			<g>
				<path fill="#E4C95C" d="M55.194,35.462c0.002-0.201,0.071-1.202,1.2-1.202c0.002,0,0.002,0,0.003,0c0.001,0,0.003,0,0.005,0h0
					c0.001,0,0.001,0,0.001,0h0.001c0,0,0.001,0,0.002,0c0.215-0.006,0.388-0.183,0.388-0.4c0-0.22-0.178-0.399-0.398-0.4
					c-0.201-0.002-1.202-0.071-1.202-1.2c0-0.221-0.179-0.4-0.4-0.4c-0.221,0-0.4,0.179-0.4,0.4c0,1.129-1.001,1.198-1.202,1.2
					c-0.22,0.001-0.398,0.18-0.398,0.4c0,0.221,0.179,0.4,0.4,0.4c1.129,0,1.198,1.001,1.2,1.2c0,0.001,0,0.002,0,0.002
					c0,0.003,0.001,0.006,0,0.006v0.001v0.001c0,0,0,0.001,0,0.002c0.006,0.215,0.183,0.388,0.4,0.388
					C55.014,35.86,55.193,35.682,55.194,35.462z"/>
			</g>
			<g>
				<path fill="#FFFFFF" d="M6.9,11.198c0.002-0.201,0.071-1.202,1.2-1.202c0.002,0,0.002,0,0.003,0c0.002,0,0.003,0,0.005,0h0
					c0.001,0,0.001,0,0.001,0H8.11c0,0,0.001,0,0.002,0C8.327,9.989,8.5,9.813,8.5,9.596c0-0.22-0.178-0.399-0.398-0.4
					C7.901,9.193,6.9,9.124,6.9,7.996c0-0.221-0.179-0.4-0.4-0.4c-0.221,0-0.4,0.179-0.4,0.4c0,1.129-1.001,1.198-1.202,1.2
					C4.678,9.197,4.5,9.375,4.5,9.596c0,0.221,0.179,0.4,0.4,0.4c1.129,0,1.198,1.002,1.2,1.2c0,0.002,0,0.002,0,0.002
					c0,0.003,0.001,0.006,0,0.006v0.001v0.001c0,0,0,0.001,0,0.002c0.006,0.215,0.183,0.388,0.4,0.388
					C6.72,11.596,6.899,11.417,6.9,11.198z"/>
			</g>
			<g>
				<path fill="#FFFFFF" d="M1.2,48.857c0.001-0.101,0.036-0.601,0.6-0.601h0.001h0.002h0h0.001h0.001h0
					C1.914,48.253,2,48.165,2,48.056c0-0.11-0.089-0.199-0.199-0.2C1.7,47.855,1.2,47.82,1.2,47.256c0-0.111-0.089-0.2-0.2-0.2
					c-0.11,0-0.2,0.09-0.2,0.2c0,0.564-0.5,0.599-0.601,0.6C0.089,47.857,0,47.946,0,48.056c0,0.111,0.089,0.2,0.2,0.2
					c0.565,0,0.599,0.501,0.6,0.6v0.001c0,0.001,0.001,0.003,0.001,0.003c-0.001,0-0.001,0-0.001,0v0.001v0.001
					c0.003,0.108,0.091,0.194,0.2,0.194C1.11,49.056,1.199,48.967,1.2,48.857z"/>
			</g>
			<g>
				<path fill="#FFFFFF" d="M59.7,47.857c0.001-0.101,0.036-0.601,0.6-0.601h0.001h0.002h0h0.001h0.001h0
					c0.108-0.003,0.194-0.091,0.194-0.2c0-0.11-0.089-0.199-0.199-0.2c-0.101-0.001-0.601-0.036-0.601-0.6
					c0-0.111-0.089-0.2-0.2-0.2c-0.111,0-0.2,0.09-0.2,0.2c0,0.564-0.5,0.599-0.601,0.6c-0.11,0.001-0.199,0.09-0.199,0.2
					c0,0.111,0.09,0.2,0.2,0.2c0.565,0,0.599,0.501,0.6,0.6v0.001c0,0.001,0.001,0.003,0.001,0.003c-0.001,0-0.001,0-0.001,0v0.001
					v0.001c0.003,0.108,0.091,0.194,0.2,0.194C59.61,48.056,59.699,47.967,59.7,47.857z"/>
			</g>
			<g>
				<path fill="#E4C95C" d="M9.7,28.661c0.001-0.101,0.036-0.601,0.6-0.601h0.001h0.002h0h0.001h0.001h0
					c0.108-0.003,0.194-0.091,0.194-0.2c0-0.11-0.089-0.199-0.199-0.2C10.2,27.659,9.7,27.625,9.7,27.06c0-0.111-0.089-0.2-0.2-0.2
					c-0.111,0-0.2,0.089-0.2,0.2c0,0.564-0.5,0.599-0.601,0.6c-0.11,0.001-0.199,0.09-0.199,0.2c0,0.111,0.09,0.2,0.2,0.2
					c0.565,0,0.599,0.501,0.6,0.6c0,0.001,0,0.001,0,0.001c0,0.001,0.001,0.003,0.001,0.003c-0.001,0-0.001,0-0.001,0v0.001v0.001
					c0.003,0.108,0.091,0.194,0.2,0.194C9.61,28.86,9.699,28.771,9.7,28.661z"/>
			</g>
			<g>
				<g>
					<polyline fill="#E4C95C" points="43.25,10.389 20.087,10.389 20.087,53.846 50.053,53.846 50.053,10.389 46.25,10.389 					"/>
					<path fill="#2D346A" d="M50.053,54.596H20.087c-0.414,0-0.75-0.336-0.75-0.75V10.389c0-0.414,0.336-0.75,0.75-0.75H43.25
						c0.414,0,0.75,0.336,0.75,0.75s-0.336,0.75-0.75,0.75H20.837v41.957h28.466V11.139H46.25c-0.414,0-0.75-0.336-0.75-0.75
						s0.336-0.75,0.75-0.75h3.803c0.414,0,0.75,0.336,0.75,0.75v43.457C50.803,54.26,50.467,54.596,50.053,54.596z"/>
				</g>
				<g>
					<rect x="20.087" y="22.346" fill="#FFFFFF" width="29.966" height="19.544"/>
					<path fill="#2D346A" d="M50.053,42.64H20.087c-0.414,0-0.75-0.336-0.75-0.75V22.346c0-0.414,0.336-0.75,0.75-0.75h29.966
						c0.414,0,0.75,0.336,0.75,0.75V41.89C50.803,42.304,50.467,42.64,50.053,42.64z M20.837,41.14h28.466V23.096H20.837V41.14z"/>
				</g>
				<g>
					<path fill="#C3CCE9" d="M44.601,37.867H25.539c-0.414,0-0.75-0.336-0.75-0.75s0.336-0.75,0.75-0.75h19.062
						c0.414,0,0.75,0.336,0.75,0.75S45.015,37.867,44.601,37.867z"/>
				</g>
				<g>
					<path fill="#C3CCE9" d="M44.601,27.867h-2.476c-0.414,0-0.75-0.336-0.75-0.75s0.336-0.75,0.75-0.75h2.476
						c0.414,0,0.75,0.336,0.75,0.75S45.015,27.867,44.601,27.867z"/>
				</g>
				<g>
					<path fill="#C3CCE9" d="M39.125,27.867H25.539c-0.414,0-0.75-0.336-0.75-0.75s0.336-0.75,0.75-0.75h13.586
						c0.414,0,0.75,0.336,0.75,0.75S39.539,27.867,39.125,27.867z"/>
				</g>
				<g>
					<path fill="#C3CCE9" d="M44.601,32.867H25.539c-0.414,0-0.75-0.336-0.75-0.75s0.336-0.75,0.75-0.75h19.062
						c0.414,0,0.75,0.336,0.75,0.75S45.015,32.867,44.601,32.867z"/>
				</g>
				<g>
					<g>
						<polyline fill="#C3CCE9" points="13.947,24.602 13.947,53.846 26.223,53.846 26.223,24.602 						"/>
						<path fill="#2D346A" d="M26.223,54.596H13.947c-0.414,0-0.75-0.336-0.75-0.75V24.602c0-0.414,0.336-0.75,0.75-0.75
							s0.75,0.336,0.75,0.75v28.494h10.775V24.602c0-0.414,0.336-0.75,0.75-0.75s0.75,0.336,0.75,0.75v29.244
							C26.973,54.26,26.637,54.596,26.223,54.596z"/>
					</g>
					<g>
						<g>
							<polyline fill="#E8F3FF" points="17.618,18.771 13.947,24.602 26.223,24.602 22.551,18.771 							"/>
							<path fill="#2D346A" d="M26.223,25.352H13.947c-0.273,0-0.524-0.148-0.657-0.388c-0.132-0.239-0.124-0.531,0.022-0.762
								l3.671-5.83c0.221-0.351,0.685-0.455,1.034-0.235c0.351,0.221,0.456,0.684,0.235,1.034l-2.947,4.681h9.559l-2.948-4.681
								c-0.221-0.351-0.115-0.813,0.235-1.034c0.352-0.22,0.813-0.115,1.035,0.235l3.671,5.83c0.146,0.23,0.154,0.522,0.022,0.762
								C26.747,25.203,26.496,25.352,26.223,25.352z"/>
						</g>
						<g>
							<path fill="#E4C95C" d="M22.551,18.771l-2.466-3.917l-2.466,3.917c0.715,0.451,1.559,0.716,2.466,0.716
								C20.993,19.487,21.837,19.222,22.551,18.771z"/>
							<path fill="#2D346A" d="M20.085,20.237c-1.012,0-2.003-0.287-2.867-0.831c-0.35-0.221-0.456-0.684-0.235-1.034l2.467-3.918
								c0.137-0.219,0.377-0.351,0.635-0.351l0,0c0.258,0,0.498,0.133,0.635,0.351l2.466,3.918c0.221,0.351,0.115,0.813-0.235,1.034
								C22.087,19.95,21.097,20.237,20.085,20.237z M18.691,18.476c0.888,0.346,1.899,0.346,2.788,0l-1.394-2.214L18.691,18.476z"/>
						</g>
					</g>
					<g>
						<path fill="#2D346A" d="M18.039,54.596c-0.414,0-0.75-0.336-0.75-0.75V27.602c0-0.414,0.336-0.75,0.75-0.75
							s0.75,0.336,0.75,0.75v26.244C18.789,54.26,18.453,54.596,18.039,54.596z"/>
					</g>
					<g>
						<rect x="21.381" y="24.602" fill="#2D346A" width="1.5" height="29.244"/>
					</g>
				</g>
				<g>
					<g>
						<polygon fill="#FFFFFF" points="34.958,37.185 33.958,30.185 22.131,30.185 21.131,37.185 21.131,37.252 34.958,37.252 						
							"/>
					</g>
					<g>
						<rect x="21.131" y="37.252" fill="#C3CCE9" width="13.827" height="16.594"/>
					</g>
				</g>
				<g>
					<path fill="#2D346A" d="M34.958,54.596H21.131c-0.414,0-0.75-0.336-0.75-0.75V37.185c0-0.035,0.002-0.071,0.007-0.106l1-7
						c0.053-0.369,0.37-0.644,0.743-0.644h11.827c0.373,0,0.689,0.274,0.743,0.644l1,7c0.005,0.035,0.007,0.071,0.007,0.106v16.661
						C35.708,54.26,35.372,54.596,34.958,54.596z M21.881,53.096h12.327V37.238l-0.9-6.304H22.781l-0.9,6.304V53.096z"/>
				</g>
				<g>
					<rect x="21.131" y="36.435" fill="#2D346A" width="13.827" height="1.5"/>
				</g>
				<g>
					<rect x="21.131" y="42.015" fill="#FFFFFF" width="13.827" height="7.206"/>
					<path fill="#2D346A" d="M34.958,49.972H21.131c-0.414,0-0.75-0.336-0.75-0.75v-7.206c0-0.414,0.336-0.75,0.75-0.75h13.827
						c0.414,0,0.75,0.336,0.75,0.75v7.206C35.708,49.636,35.372,49.972,34.958,49.972z M21.881,48.472h12.327v-5.706H21.881V48.472z
						"/>
				</g>
			</g>
		</g>
	</g>
</g>
</svg>
