<?xml version="1.0" encoding="utf-8"?>
<!-- Generator: Adobe Illustrator 17.0.0, SVG Export Plug-In . SVG Version: 6.00 Build 0)  -->
<!DOCTYPE svg PUBLIC "-//W3C//DTD SVG 1.1//EN" "http://www.w3.org/Graphics/SVG/1.1/DTD/svg11.dtd">
<svg version="1.1" xmlns="http://www.w3.org/2000/svg" xmlns:xlink="http://www.w3.org/1999/xlink" x="0px" y="0px" width="64px"
	 height="64px" viewBox="0 0 64 64" enable-background="new 0 0 64 64" xml:space="preserve">
<g id="Layer_4">
</g>
<g id="Layer_3">
</g>
<g id="Layer_2">
</g>
<g id="Layer_1">
</g>
<g id="Layer_5">
	<g>
		<g>
			<g>
				<g>
					<g>
						<path fill="#FBFFFF" d="M59.5,31.287c0-15.188-12.312-27.5-27.5-27.5S4.5,16.099,4.5,31.287
							c0,9.396,4.715,17.687,11.905,22.647h31.191C54.785,48.973,59.5,40.682,59.5,31.287z"/>
					</g>
				</g>
				<g>
					<path fill="#2D346A" d="M49.794,54.684H14.206c-0.414,0-0.75-0.336-0.75-0.75s0.336-0.75,0.75-0.75h35.588
						c0.414,0,0.75,0.336,0.75,0.75S50.208,54.684,49.794,54.684z"/>
				</g>
				<g>
					<path fill="#FFFFFF" d="M43.625,57.919h-23.25c-0.414,0-0.75-0.336-0.75-0.75s0.336-0.75,0.75-0.75h23.25
						c0.414,0,0.75,0.336,0.75,0.75S44.039,57.919,43.625,57.919z"/>
				</g>
				<g>
					<path fill="#FFFFFF" d="M32.313,61.154h-4.672c-0.414,0-0.75-0.336-0.75-0.75s0.336-0.75,0.75-0.75h4.672
						c0.414,0,0.75,0.336,0.75,0.75S32.728,61.154,32.313,61.154z"/>
				</g>
				<g>
					<path fill="#FFFFFF" d="M36.415,61.154h-1.249c-0.414,0-0.75-0.336-0.75-0.75s0.336-0.75,0.75-0.75h1.249
						c0.414,0,0.75,0.336,0.75,0.75S36.829,61.154,36.415,61.154z"/>
				</g>
			</g>
			<g>
				<g>
					<path fill="#2D346A" d="M16.453,25.587l-1.061-1.061c5.978-5.979,15.612-6.713,22.408-1.708l-0.889,1.207
						C30.704,19.457,21.91,20.128,16.453,25.587z"/>
				</g>
				<g>
					<path fill="#2D346A" d="M42.039,46.152l-1.256-0.82c3.572-5.462,3.376-12.663-0.488-17.92l1.209-0.889
						C45.736,32.282,45.951,40.171,42.039,46.152z"/>
				</g>
				<g>
					<path fill="#2D346A" d="M39.788,48.921l-1.061-1.061c0.775-0.776,1.467-1.627,2.056-2.528l1.256,0.82
						C41.395,47.14,40.637,48.071,39.788,48.921z"/>
				</g>
				<g>
					
						<rect x="39.352" y="30.145" transform="matrix(0.7071 0.7071 -0.7071 0.7071 35.054 -22.8387)" fill="#2D346A" width="11.488" height="1.5"/>
				</g>
				<g>
					
						<rect x="27.674" y="18.473" transform="matrix(0.7071 0.7071 -0.7071 0.7071 23.3835 -18.004)" fill="#2D346A" width="11.5" height="1.5"/>
				</g>
				<g>
					<circle fill="#E4C95C" cx="27.59" cy="13.389" r="2.5"/>
					<path fill="#2D346A" d="M27.59,16.639c-0.868,0-1.684-0.338-2.298-0.951c-1.267-1.268-1.267-3.329,0-4.597
						c1.229-1.227,3.369-1.227,4.596,0c1.267,1.268,1.267,3.329,0,4.597C29.274,16.301,28.458,16.639,27.59,16.639z M27.59,11.64
						c-0.468,0-0.907,0.182-1.238,0.512c-0.682,0.683-0.682,1.793,0,2.476c0.661,0.661,1.814,0.661,2.475,0
						c0.682-0.683,0.682-1.793,0-2.476C28.497,11.821,28.058,11.64,27.59,11.64z"/>
				</g>
				<g>
					<circle fill="#E4C95C" cx="50.925" cy="36.724" r="2.5"/>
					<path fill="#2D346A" d="M50.925,39.974c-0.868,0-1.685-0.338-2.298-0.952c-0.614-0.613-0.952-1.43-0.952-2.298
						s0.338-1.684,0.952-2.298c1.227-1.229,3.367-1.229,4.596,0c0.614,0.614,0.952,1.43,0.952,2.298s-0.338,1.685-0.952,2.298
						C52.608,39.636,51.793,39.974,50.925,39.974z M50.925,34.974c-0.468,0-0.907,0.182-1.237,0.513
						c-0.331,0.331-0.513,0.771-0.513,1.237c0,0.468,0.182,0.907,0.513,1.237c0.658,0.661,1.811,0.662,2.475,0
						c0.331-0.33,0.513-0.77,0.513-1.237c0-0.467-0.182-0.906-0.513-1.237S51.392,34.974,50.925,34.974z"/>
				</g>
				<g>
					
						<rect x="11.655" y="24.324" transform="matrix(0.7071 0.7071 -0.7071 0.7071 23.114 -2.1523)" fill="#E8F3FF" width="5" height="5"/>
					<path fill="#2D346A" d="M14.155,31.109c-0.192,0-0.384-0.073-0.53-0.22l-3.536-3.535c-0.141-0.141-0.22-0.331-0.22-0.53
						s0.079-0.39,0.22-0.53l3.536-3.535c0.293-0.293,0.768-0.293,1.061,0l3.535,3.535c0.293,0.293,0.293,0.768,0,1.061l-3.535,3.535
						C14.539,31.036,14.347,31.109,14.155,31.109z M11.68,26.824l2.475,2.475l2.475-2.475l-2.475-2.475L11.68,26.824z"/>
				</g>
				<g>
					
						<rect x="34.99" y="47.659" transform="matrix(0.7071 0.7071 -0.7071 0.7071 46.4479 -11.818)" fill="#E8F3FF" width="5" height="5"/>
					<path fill="#2D346A" d="M37.489,54.444c-0.192,0-0.384-0.073-0.53-0.22l-3.535-3.535c-0.293-0.293-0.293-0.768,0-1.061
						l3.535-3.536c0.281-0.281,0.779-0.281,1.061,0l3.536,3.536c0.141,0.141,0.22,0.331,0.22,0.53s-0.079,0.39-0.22,0.53
						l-3.536,3.535C37.873,54.371,37.682,54.444,37.489,54.444z M35.015,50.159l2.475,2.475l2.476-2.475l-2.476-2.476L35.015,50.159
						z"/>
				</g>
				<g>
					
						<rect x="36.757" y="22.556" transform="matrix(0.7071 0.7071 -0.7071 0.7071 29.2158 -20.4203)" fill="#E8F3FF" width="5" height="5"/>
					<path fill="#2D346A" d="M39.258,29.342c-0.192,0-0.384-0.073-0.53-0.22l-3.536-3.535c-0.141-0.141-0.22-0.331-0.22-0.53
						s0.079-0.39,0.22-0.53l3.536-3.536c0.141-0.141,0.331-0.22,0.53-0.22l0,0c0.199,0,0.39,0.079,0.53,0.22l3.535,3.536
						c0.293,0.293,0.293,0.768,0,1.061l-3.535,3.535C39.642,29.269,39.45,29.342,39.258,29.342z M36.782,25.057l2.476,2.475
						l2.475-2.475l-2.475-2.476L36.782,25.057z"/>
				</g>
			</g>
			<g>
				<path fill="#FFFFFF" d="M62.4,47.22c0.002-0.201,0.072-1.202,1.2-1.202c0.002,0,0.002,0,0.003,0c0.001,0,0.003,0,0.005,0h0
					c0.001,0,0.001,0,0.001,0h0.001c0,0,0.001,0,0.001,0c0.215-0.006,0.388-0.183,0.388-0.4c0-0.22-0.178-0.399-0.398-0.4
					c-0.201-0.002-1.202-0.071-1.202-1.2c0-0.221-0.179-0.4-0.4-0.4c-0.221,0-0.4,0.179-0.4,0.4c0,1.128-1.001,1.198-1.202,1.2
					c-0.22,0.001-0.398,0.18-0.398,0.4c0,0.221,0.179,0.4,0.4,0.4c1.129,0,1.198,1.002,1.2,1.2c0,0.002,0,0.002,0,0.002
					c0,0.003,0.001,0.006,0,0.006v0.001v0.001c0,0,0,0.001,0,0.001c0.006,0.215,0.183,0.388,0.4,0.388
					C62.22,47.618,62.399,47.44,62.4,47.22z"/>
			</g>
			<g>
				<path fill="#E4C95C" d="M43.193,15.198c0.002-0.201,0.071-1.202,1.2-1.202c0.002,0,0.002,0,0.003,0c0.002,0,0.003,0,0.005,0h0
					h0.001h0.001c0,0,0.001,0,0.001,0c0.215-0.006,0.388-0.183,0.388-0.4c0-0.22-0.178-0.399-0.398-0.4
					c-0.201-0.002-1.202-0.071-1.202-1.2c0-0.221-0.179-0.4-0.4-0.4s-0.4,0.179-0.4,0.4c0,1.129-1.001,1.198-1.202,1.2
					c-0.22,0.001-0.398,0.18-0.398,0.4c0,0.221,0.179,0.4,0.4,0.4c1.129,0,1.198,1.002,1.2,1.2c0,0.002,0,0.002,0,0.002
					c0,0.003,0.001,0.006,0,0.006v0.001v0.001c0,0,0,0.001,0,0.002c0.006,0.215,0.183,0.388,0.4,0.388
					C43.013,15.596,43.192,15.417,43.193,15.198z"/>
			</g>
			<g>
				<path fill="#FFFFFF" d="M1.2,35.443c0.001-0.101,0.036-0.601,0.6-0.601h0.001h0.002h0h0.001h0.001h0
					C1.914,34.839,2,34.75,2,34.642c0-0.11-0.089-0.2-0.199-0.2C1.7,34.441,1.2,34.406,1.2,33.842c0-0.111-0.089-0.2-0.2-0.2
					c-0.111,0-0.2,0.089-0.2,0.2c0,0.564-0.5,0.599-0.601,0.6c-0.11,0-0.199,0.09-0.199,0.2c0,0.111,0.089,0.2,0.2,0.2
					c0.565,0,0.599,0.501,0.6,0.6c0,0.001,0,0.001,0,0.001c0,0.001,0.001,0.003,0.001,0.003c-0.001,0-0.001,0-0.001,0v0.001v0.001
					c0.003,0.108,0.091,0.194,0.2,0.194C1.11,35.642,1.199,35.553,1.2,35.443z"/>
			</g>
			<g>
				<path fill="#E4C95C" d="M17.891,43.397c0.001-0.101,0.036-0.601,0.6-0.601h0.001h0.002h0h0.001h0.001h0
					c0.108-0.003,0.194-0.091,0.194-0.2c0-0.11-0.089-0.199-0.199-0.2c-0.101-0.001-0.601-0.036-0.601-0.6
					c0-0.111-0.089-0.2-0.2-0.2c-0.11,0-0.2,0.09-0.2,0.2c0,0.564-0.5,0.599-0.601,0.6c-0.11,0.001-0.199,0.09-0.199,0.2
					c0,0.111,0.09,0.2,0.2,0.2c0.565,0,0.599,0.501,0.6,0.6c0,0.001,0,0.001,0,0.001c0,0.001,0.001,0.003,0.001,0.003l-0.001,0
					v0.001v0.001c0.003,0.108,0.091,0.194,0.2,0.194C17.801,43.596,17.89,43.507,17.891,43.397z"/>
			</g>
			<g>
				<path fill="#E4C95C" d="M30.486,38.244c0.002-0.201,0.071-1.202,1.2-1.202c0.002,0,0.002,0,0.003,0c0.002,0,0.003,0,0.005,0h0
					h0.001h0.001c0,0,0.001,0,0.002,0c0.215-0.006,0.388-0.183,0.388-0.4c0-0.22-0.178-0.399-0.398-0.4
					c-0.201-0.002-1.202-0.072-1.202-1.2c0-0.221-0.179-0.4-0.4-0.4c-0.221,0-0.4,0.179-0.4,0.4c0,1.128-1.001,1.198-1.202,1.2
					c-0.22,0.001-0.398,0.18-0.398,0.4c0,0.221,0.179,0.4,0.4,0.4c1.129,0,1.198,1.001,1.2,1.2c0,0.001,0,0.002,0,0.002
					c0,0.003,0.001,0.006,0,0.006v0.001v0.001v0.002c0.006,0.215,0.183,0.388,0.4,0.388C30.307,38.642,30.485,38.464,30.486,38.244z
					"/>
			</g>
			<g>
				<path fill="#FFFFFF" d="M58.2,11.397c0.001-0.101,0.036-0.601,0.6-0.601h0.001h0.002h0h0.001h0.001h0
					c0.108-0.003,0.194-0.091,0.194-0.2c0-0.11-0.089-0.199-0.199-0.2C58.7,10.394,58.2,10.36,58.2,9.796c0-0.111-0.089-0.2-0.2-0.2
					c-0.111,0-0.2,0.09-0.2,0.2c0,0.564-0.5,0.599-0.601,0.6c-0.11,0.001-0.199,0.09-0.199,0.2c0,0.111,0.09,0.2,0.2,0.2
					c0.565,0,0.599,0.501,0.6,0.6c0,0.001,0,0.001,0,0.001c0,0.001,0.001,0.003,0.001,0.003c-0.001,0-0.001,0-0.001,0v0.001v0.001
					c0.003,0.108,0.091,0.194,0.2,0.194C58.11,11.596,58.199,11.507,58.2,11.397z"/>
			</g>
			<g>
				<path fill="#FFFFFF" d="M6.708,11.397c0.001-0.101,0.036-0.601,0.6-0.601H7.31h0.002h0h0h0.001h0
					c0.108-0.003,0.195-0.091,0.195-0.2c0-0.11-0.089-0.199-0.199-0.2c-0.101-0.001-0.601-0.036-0.601-0.6
					c0-0.111-0.089-0.2-0.2-0.2c-0.111,0-0.2,0.09-0.2,0.2c0,0.564-0.5,0.599-0.601,0.6c-0.11,0.001-0.199,0.09-0.199,0.2
					c0,0.111,0.089,0.2,0.2,0.2c0.565,0,0.599,0.501,0.6,0.6c0,0.001,0,0.001,0,0.001c0,0.001,0,0.003,0,0.003c0,0,0,0,0,0v0.001
					v0.001c0.003,0.108,0.091,0.194,0.2,0.194C6.618,11.596,6.708,11.507,6.708,11.397z"/>
			</g>
		</g>
	</g>
</g>
</svg>
