<?xml version="1.0" encoding="utf-8"?>
<!-- Generator: Adobe Illustrator 17.0.0, SVG Export Plug-In . SVG Version: 6.00 Build 0)  -->
<!DOCTYPE svg PUBLIC "-//W3C//DTD SVG 1.1//EN" "http://www.w3.org/Graphics/SVG/1.1/DTD/svg11.dtd">
<svg version="1.1" xmlns="http://www.w3.org/2000/svg" xmlns:xlink="http://www.w3.org/1999/xlink" x="0px" y="0px" width="64px"
	 height="64px" viewBox="0 0 64 64" enable-background="new 0 0 64 64" xml:space="preserve">
<g id="Layer_4">
</g>
<g id="Layer_3">
</g>
<g id="Layer_2">
</g>
<g id="Layer_1">
</g>
<g id="Layer_5">
	<g>
		<g>
			<g>
				<path fill="#FBE2CB" d="M59.5,31.191c0-15.188-12.312-27.5-27.5-27.5S4.5,16.003,4.5,31.191c0,9.396,4.715,17.687,11.905,22.647
					h31.191C54.785,48.878,59.5,40.587,59.5,31.191z"/>
			</g>
			
				<line fill="none" stroke="#2D346A" stroke-width="1.5" stroke-linecap="round" stroke-miterlimit="10" x1="14.206" y1="53.838" x2="49.794" y2="53.838"/>
			
				<line fill="none" stroke="#C3CCE9" stroke-width="1.5" stroke-linecap="round" stroke-linejoin="round" stroke-miterlimit="10" x1="20.375" y1="57.074" x2="43.625" y2="57.074"/>
			
				<line fill="none" stroke="#C3CCE9" stroke-width="1.5" stroke-linecap="round" stroke-linejoin="round" stroke-miterlimit="10" x1="27.641" y1="60.309" x2="32.314" y2="60.309"/>
			
				<line fill="none" stroke="#C3CCE9" stroke-width="1.5" stroke-linecap="round" stroke-linejoin="round" stroke-miterlimit="10" x1="35.166" y1="60.309" x2="36.415" y2="60.309"/>
		</g>
		<g>
			<path fill="none" stroke="#2D346A" stroke-width="1.5" stroke-miterlimit="10" d="M37.357,23.326
				c-6.457-4.753-15.591-4.208-21.434,1.635"/>
			<path fill="none" stroke="#2D346A" stroke-width="1.5" stroke-miterlimit="10" d="M41.411,45.647
				c3.735-5.711,3.564-13.229-0.512-18.775"/>
			<path fill="none" stroke="#2D346A" stroke-width="1.5" stroke-miterlimit="10" d="M39.257,48.295
				c0.823-0.823,1.541-1.712,2.154-2.649"/>
			<line fill="none" stroke="#2D346A" stroke-width="1.5" stroke-miterlimit="10" x1="41.034" y1="26.738" x2="49.157" y2="34.86"/>
			<line fill="none" stroke="#2D346A" stroke-width="1.5" stroke-miterlimit="10" x1="29.358" y1="15.061" x2="37.49" y2="23.193"/>
			
				<circle fill="#E4C95C" stroke="#2D346A" stroke-width="1.5" stroke-linecap="round" stroke-linejoin="round" stroke-miterlimit="10" cx="27.59" cy="13.294" r="2.5"/>
			
				<circle fill="#E4C95C" stroke="#2D346A" stroke-width="1.5" stroke-linecap="round" stroke-linejoin="round" stroke-miterlimit="10" cx="50.925" cy="36.628" r="2.5"/>
			
				<rect x="11.655" y="24.229" transform="matrix(0.7071 0.7071 -0.7071 0.7071 23.0459 -2.1805)" fill="#E8F3FF" stroke="#2D346A" stroke-width="1.5" stroke-linecap="round" stroke-linejoin="round" stroke-miterlimit="10" width="5" height="5"/>
			
				<rect x="34.99" y="47.563" transform="matrix(0.7071 0.7071 -0.7071 0.7071 46.3804 -11.846)" fill="#E8F3FF" stroke="#2D346A" stroke-width="1.5" stroke-linecap="round" stroke-linejoin="round" stroke-miterlimit="10" width="5" height="5"/>
			
				<rect x="36.757" y="22.461" transform="matrix(0.7071 0.7071 -0.7071 0.7071 29.1482 -20.4483)" fill="#E8F3FF" stroke="#2D346A" stroke-width="1.5" stroke-linecap="round" stroke-linejoin="round" stroke-miterlimit="10" width="5" height="5"/>
		</g>
		<path fill="#E4C95C" d="M62.4,47.125c0.002-0.201,0.071-1.202,1.2-1.202c0.002,0,0.002,0,0.003,0c0.002,0,0.003,0,0.005,0h0
			c0.001,0,0.001,0,0.001,0h0.001c0,0,0.001,0,0.002,0C63.827,45.917,64,45.74,64,45.523c0-0.22-0.178-0.399-0.398-0.4
			c-0.201-0.002-1.202-0.071-1.202-1.2c0-0.221-0.179-0.4-0.4-0.4s-0.4,0.179-0.4,0.4c0,1.129-1.001,1.198-1.202,1.2
			c-0.22,0.001-0.398,0.18-0.398,0.4c0,0.221,0.179,0.4,0.4,0.4c1.129,0,1.198,1.002,1.2,1.2c0,0.002,0,0.002,0,0.002
			c0,0.003,0.001,0.006,0,0.006v0.001v0.001c0,0,0,0.001,0,0.002c0.006,0.215,0.183,0.388,0.4,0.388
			C62.22,47.523,62.399,47.345,62.4,47.125z"/>
		<path fill="#E4C95C" d="M43.193,15.102c0.002-0.201,0.071-1.202,1.2-1.202c0.002,0,0.002,0,0.003,0c0.002,0,0.003,0,0.005,0h0
			c0.001,0,0.001,0,0.001,0h0.001c0,0,0.001,0,0.002,0c0.215-0.006,0.388-0.183,0.388-0.4c0-0.22-0.178-0.399-0.398-0.4
			c-0.201-0.002-1.202-0.071-1.202-1.2c0-0.221-0.179-0.4-0.4-0.4s-0.4,0.179-0.4,0.4c0,1.129-1.001,1.198-1.202,1.2
			c-0.22,0.001-0.398,0.18-0.398,0.4c0,0.221,0.179,0.4,0.4,0.4c1.129,0,1.198,1.002,1.2,1.2c0,0.002,0,0.002,0,0.002
			c0,0.003,0.001,0.006,0,0.006v0.001v0.001c0,0,0,0.001,0,0.002c0.006,0.215,0.183,0.388,0.4,0.388
			C43.013,15.5,43.192,15.322,43.193,15.102z"/>
		<path fill="#E4C95C" d="M1.2,35.347c0.001-0.101,0.036-0.601,0.6-0.601h0.001h0.002h0h0.001h0.001h0
			C1.913,34.743,2,34.655,2,34.546c0-0.11-0.089-0.199-0.199-0.2C1.7,34.345,1.2,34.31,1.2,33.746c0-0.111-0.089-0.2-0.2-0.2
			s-0.2,0.089-0.2,0.2c0,0.564-0.5,0.599-0.601,0.6C0.089,34.347,0,34.436,0,34.546c0,0.111,0.089,0.2,0.2,0.2
			c0.565,0,0.599,0.501,0.6,0.6c0,0.001,0,0.001,0,0.001c0,0.001,0.001,0.003,0.001,0.003c-0.001,0-0.001,0-0.001,0v0.001v0.001
			c0.003,0.108,0.091,0.194,0.2,0.194C1.11,35.546,1.199,35.457,1.2,35.347z"/>
		<path fill="#E4C95C" d="M17.891,43.301c0.001-0.101,0.036-0.601,0.6-0.601h0.001h0.002h0h0.001h0.001h0
			c0.108-0.003,0.195-0.091,0.195-0.2c0-0.11-0.089-0.199-0.199-0.2c-0.101-0.001-0.601-0.036-0.601-0.6c0-0.111-0.089-0.2-0.2-0.2
			s-0.2,0.089-0.2,0.2c0,0.564-0.5,0.599-0.601,0.6c-0.11,0.001-0.199,0.09-0.199,0.2c0,0.111,0.089,0.2,0.2,0.2
			c0.565,0,0.599,0.501,0.6,0.6c0,0.001,0,0.001,0,0.001c0,0.001,0.001,0.003,0.001,0.003c-0.001,0-0.001,0-0.001,0v0.001v0.001
			c0.003,0.108,0.091,0.194,0.2,0.194C17.801,43.5,17.89,43.411,17.891,43.301z"/>
		<path fill="#E4C95C" d="M30.486,38.148c0.002-0.201,0.071-1.202,1.2-1.202c0.002,0,0.002,0,0.003,0c0.002,0,0.003,0,0.005,0h0
			h0.001h0.001c0,0,0.001,0,0.002,0c0.215-0.006,0.388-0.183,0.388-0.4c0-0.22-0.178-0.399-0.398-0.4
			c-0.201-0.002-1.202-0.071-1.202-1.2c0-0.221-0.179-0.4-0.4-0.4c-0.221,0-0.4,0.179-0.4,0.4c0,1.129-1.001,1.198-1.202,1.2
			c-0.22,0.001-0.398,0.18-0.398,0.4c0,0.221,0.179,0.4,0.4,0.4c1.129,0,1.198,1.002,1.2,1.2c0,0.002,0,0.002,0,0.002
			c0,0.003,0.001,0.006,0,0.006v0.001v0.001v0.002c0.006,0.215,0.183,0.388,0.4,0.388C30.307,38.546,30.485,38.368,30.486,38.148z"
			/>
		<path fill="#E4C95C" d="M58.2,11.301c0.001-0.101,0.036-0.601,0.6-0.601h0.001h0.002h0h0.001h0.001h0
			C58.913,10.697,59,10.609,59,10.5c0-0.11-0.089-0.199-0.199-0.2C58.7,10.299,58.2,10.264,58.2,9.7c0-0.111-0.089-0.2-0.2-0.2
			s-0.2,0.089-0.2,0.2c0,0.564-0.5,0.599-0.601,0.6C57.089,10.301,57,10.39,57,10.5c0,0.111,0.089,0.2,0.2,0.2
			c0.565,0,0.599,0.501,0.6,0.6c0,0.001,0,0.001,0,0.001c0,0.001,0.001,0.003,0.001,0.003c-0.001,0-0.001,0-0.001,0v0.001v0.001
			c0.003,0.108,0.091,0.194,0.2,0.194C58.11,11.5,58.199,11.411,58.2,11.301z"/>
		<path fill="#E4C95C" d="M6.708,11.301C6.709,11.2,6.744,10.7,7.308,10.7H7.31h0.002h0h0.001h0.001h0
			c0.108-0.003,0.195-0.091,0.195-0.2c0-0.11-0.089-0.199-0.199-0.2c-0.101-0.001-0.601-0.036-0.601-0.6c0-0.111-0.089-0.2-0.2-0.2
			s-0.2,0.089-0.2,0.2c0,0.564-0.5,0.599-0.601,0.6c-0.11,0.001-0.199,0.09-0.199,0.2c0,0.111,0.089,0.2,0.2,0.2
			c0.565,0,0.599,0.501,0.6,0.6c0,0.001,0,0.001,0,0.001c0,0.001,0.001,0.003,0.001,0.003c-0.001,0-0.001,0-0.001,0v0.001v0.001
			C6.311,11.413,6.4,11.5,6.508,11.5C6.618,11.5,6.708,11.411,6.708,11.301z"/>
	</g>
</g>
</svg>
