<?xml version="1.0" encoding="utf-8"?>
<!-- Generator: Adobe Illustrator 17.0.0, SVG Export Plug-In . SVG Version: 6.00 Build 0)  -->
<!DOCTYPE svg PUBLIC "-//W3C//DTD SVG 1.1//EN" "http://www.w3.org/Graphics/SVG/1.1/DTD/svg11.dtd">
<svg version="1.1" xmlns="http://www.w3.org/2000/svg" xmlns:xlink="http://www.w3.org/1999/xlink" x="0px" y="0px" width="64px"
	 height="64px" viewBox="0 0 64 64" enable-background="new 0 0 64 64" xml:space="preserve">
<g id="Layer_4">
</g>
<g id="Layer_3">
</g>
<g id="Layer_2">
</g>
<g id="Layer_1">
</g>
<g id="Layer_5">
	<g>
		<g>
			<g>
				<path fill="#FBE2CB" d="M59.5,31.191c0-15.188-12.312-27.5-27.5-27.5S4.5,16.003,4.5,31.191c0,9.396,4.715,17.687,11.905,22.647
					h31.191C54.785,48.878,59.5,40.587,59.5,31.191z"/>
			</g>
			
				<line fill="none" stroke="#2D346A" stroke-width="1.5" stroke-linecap="round" stroke-miterlimit="10" x1="14.206" y1="53.838" x2="49.794" y2="53.838"/>
			
				<line fill="none" stroke="#C3CCE9" stroke-width="1.5" stroke-linecap="round" stroke-linejoin="round" stroke-miterlimit="10" x1="20.375" y1="57.074" x2="43.625" y2="57.074"/>
			
				<line fill="none" stroke="#C3CCE9" stroke-width="1.5" stroke-linecap="round" stroke-linejoin="round" stroke-miterlimit="10" x1="27.641" y1="60.309" x2="32.314" y2="60.309"/>
			
				<line fill="none" stroke="#C3CCE9" stroke-width="1.5" stroke-linecap="round" stroke-linejoin="round" stroke-miterlimit="10" x1="35.166" y1="60.309" x2="36.415" y2="60.309"/>
		</g>
		<g>
			<g>
				
					<rect x="25.565" y="11.064" transform="matrix(-0.7071 0.7071 -0.7071 -0.7071 78.1728 34.0867)" fill="#C3CCE9" width="12.923" height="44.338"/>
				<g>
					
						<line fill="none" stroke="#FFFFFF" stroke-width="1.5" stroke-linecap="round" stroke-linejoin="round" stroke-miterlimit="10" x1="30.21" y1="22.592" x2="29.02" y2="23.782"/>
					
						<line fill="none" stroke="#FFFFFF" stroke-width="1.5" stroke-linecap="round" stroke-linejoin="round" stroke-miterlimit="10" x1="23.981" y1="16.363" x2="22.79" y2="17.553"/>
					
						<line fill="none" stroke="#FFFFFF" stroke-width="1.5" stroke-linecap="round" stroke-linejoin="round" stroke-miterlimit="10" x1="36.439" y1="28.822" x2="35.249" y2="30.012"/>
					
						<line fill="none" stroke="#FFFFFF" stroke-width="1.5" stroke-linecap="round" stroke-linejoin="round" stroke-miterlimit="10" x1="42.668" y1="35.051" x2="41.478" y2="36.241"/>
					
						<line fill="none" stroke="#2D346A" stroke-width="1.5" stroke-linecap="round" stroke-linejoin="round" stroke-miterlimit="10" x1="33.324" y1="25.707" x2="31.424" y2="27.607"/>
					
						<line fill="none" stroke="#2D346A" stroke-width="1.5" stroke-linecap="round" stroke-linejoin="round" stroke-miterlimit="10" x1="27.095" y1="19.478" x2="25.195" y2="21.378"/>
					
						<line fill="none" stroke="#2D346A" stroke-width="1.5" stroke-linecap="round" stroke-linejoin="round" stroke-miterlimit="10" x1="39.553" y1="31.936" x2="37.653" y2="33.837"/>
					
						<line fill="none" stroke="#2D346A" stroke-width="1.5" stroke-linecap="round" stroke-linejoin="round" stroke-miterlimit="10" x1="45.782" y1="38.165" x2="43.882" y2="40.066"/>
					
						<line fill="none" stroke="#FFFFFF" stroke-width="1.5" stroke-linecap="round" stroke-linejoin="round" stroke-miterlimit="10" x1="48.897" y1="41.28" x2="47.707" y2="42.47"/>
				</g>
				
					<polyline fill="none" stroke="#2D346A" stroke-width="1.5" stroke-linecap="round" stroke-linejoin="round" stroke-miterlimit="10" points="
					16.284,17.624 11.782,22.126 43.134,53.478 52.272,44.341 20.92,12.989 18.602,15.306 				"/>
				
					<circle fill="#FBE2CB" stroke="#2D346A" stroke-width="1.5" stroke-linecap="round" stroke-miterlimit="10" cx="18.625" cy="22.082" r="2"/>
			</g>
			<g>
				<polygon fill="#E8F3FF" points="45.012,16.29 37.387,18.023 37.387,18.023 11.728,43.681 21.579,53.532 30.399,44.712 
					32.383,42.728 47.237,27.874 47.237,27.874 48.97,20.249 50.134,15.126 				"/>
				<g>
					<path fill="#FFFFFF" d="M45.012,16.29l-7.625,1.733l9.85,9.85l1.733-7.625"/>
					<path fill="#E4C95C" d="M48.97,20.249l1.164-5.123l-5.123,1.164c0.212,0.936,0.676,1.825,1.405,2.554
						C47.145,19.572,48.035,20.037,48.97,20.249z"/>
				</g>
				
					<line fill="none" stroke="#2D346A" stroke-width="1.5" stroke-linecap="round" stroke-miterlimit="10" x1="38.194" y1="23.782" x2="15.012" y2="46.965"/>
				
					<line fill="none" stroke="#2D346A" stroke-width="1.5" stroke-miterlimit="10" x1="43.954" y1="24.59" x2="18.295" y2="50.248"/>
				<g>
					
						<line fill="#FFFFFF" stroke="#2D346A" stroke-width="1.5" stroke-miterlimit="10" x1="37.387" y1="18.023" x2="47.237" y2="27.874"/>
					<path fill="#E4C95C" stroke="#2D346A" stroke-width="1.5" stroke-miterlimit="10" d="M45.012,16.29
						c0.212,0.936,0.676,1.825,1.405,2.554c0.728,0.728,1.618,1.193,2.554,1.405"/>
				</g>
				
					<polygon fill="none" stroke="#2D346A" stroke-width="1.5" stroke-linecap="round" stroke-linejoin="round" stroke-miterlimit="10" points="
					45.012,16.29 37.387,18.023 37.387,18.023 11.728,43.681 21.579,53.532 30.399,44.712 32.383,42.728 47.237,27.874 
					47.237,27.874 48.97,20.249 50.134,15.126 				"/>
			</g>
		</g>
		<path fill="#E4C95C" d="M12.233,35.885c-0.002-0.201-0.071-1.202-1.2-1.202c-0.002,0-0.002,0-0.003,0c-0.002,0-0.003,0-0.005,0h0
			c-0.001,0-0.001,0-0.001,0s-0.001,0-0.001,0c0,0-0.001,0-0.002,0c-0.215-0.006-0.388-0.183-0.388-0.4
			c0-0.22,0.178-0.399,0.398-0.4c0.201-0.002,1.202-0.071,1.202-1.2c0-0.221,0.179-0.4,0.4-0.4c0.221,0,0.4,0.179,0.4,0.4
			c0,1.129,1.001,1.198,1.202,1.2c0.22,0.001,0.398,0.18,0.398,0.4c0,0.221-0.179,0.4-0.4,0.4c-1.129,0-1.198,1.002-1.2,1.2
			c0,0.002,0,0.002,0,0.002c0,0.003-0.001,0.006,0,0.006v0.001c0,0,0,0.001,0,0.001v0.002c-0.006,0.215-0.183,0.388-0.4,0.388
			C12.413,36.283,12.234,36.104,12.233,35.885z"/>
		<path fill="#E4C95C" d="M52.594,30.19c-0.001-0.101-0.036-0.601-0.6-0.601h-0.001H51.99h0H51.99h-0.001h0
			c-0.108-0.003-0.195-0.091-0.195-0.2c0-0.11,0.089-0.199,0.199-0.2c0.101-0.001,0.601-0.036,0.601-0.6c0-0.111,0.089-0.2,0.2-0.2
			s0.2,0.089,0.2,0.2c0,0.564,0.5,0.599,0.601,0.6c0.11,0.001,0.199,0.09,0.199,0.2c0,0.111-0.089,0.2-0.2,0.2
			c-0.565,0-0.599,0.501-0.6,0.6c0,0.001,0,0.001,0,0.001c0,0.001-0.001,0.003-0.001,0.003c0.001,0,0.001,0,0.001,0v0.001v0.001
			c-0.003,0.108-0.091,0.194-0.2,0.194C52.684,30.389,52.595,30.299,52.594,30.19z"/>
		<path fill="#E4C95C" d="M58.8,48.823c-0.001-0.101-0.036-0.601-0.6-0.601h-0.001h-0.002h0h-0.001h-0.001h0
			C58.087,48.219,58,48.131,58,48.022c0-0.11,0.089-0.199,0.199-0.2c0.101-0.001,0.601-0.036,0.601-0.6c0-0.111,0.089-0.2,0.2-0.2
			s0.2,0.089,0.2,0.2c0,0.564,0.5,0.599,0.601,0.6c0.11,0.001,0.199,0.09,0.199,0.2c0,0.111-0.089,0.2-0.2,0.2
			c-0.565,0-0.599,0.501-0.6,0.6c0,0.001,0,0.001,0,0.001c0,0.001-0.001,0.003-0.001,0.003c0.001,0,0.001,0,0.001,0v0.001v0.001
			c-0.003,0.108-0.091,0.194-0.2,0.194C58.89,49.022,58.801,48.933,58.8,48.823z"/>
		<path fill="#E4C95C" d="M5.8,50.823c-0.001-0.101-0.036-0.601-0.6-0.601H5.199H5.196h0H5.196H5.195h0
			C5.087,50.219,5,50.131,5,50.022c0-0.11,0.089-0.199,0.199-0.2C5.3,49.821,5.8,49.787,5.8,49.222c0-0.111,0.089-0.2,0.2-0.2
			s0.2,0.089,0.2,0.2c0,0.564,0.5,0.599,0.601,0.6C6.911,49.823,7,49.912,7,50.022c0,0.111-0.089,0.2-0.2,0.2
			c-0.565,0-0.599,0.501-0.6,0.6c0,0.001,0,0.001,0,0.001c0,0.001-0.001,0.003-0.001,0.003c0.001,0,0.001,0,0.001,0v0.001v0.001
			c-0.003,0.108-0.091,0.194-0.2,0.194C5.89,51.022,5.801,50.933,5.8,50.823z"/>
		<path fill="#E4C95C" d="M61.6,18.102c-0.002-0.201-0.071-1.202-1.2-1.202c-0.002,0-0.002,0-0.003,0c-0.002,0-0.003,0-0.005,0h0
			c-0.001,0-0.001,0-0.001,0s-0.001,0-0.001,0c0,0-0.001,0-0.002,0C60.173,16.894,60,16.717,60,16.5c0-0.22,0.178-0.399,0.398-0.4
			c0.201-0.002,1.202-0.071,1.202-1.2c0-0.221,0.179-0.4,0.4-0.4s0.4,0.179,0.4,0.4c0,1.129,1.001,1.198,1.202,1.2
			C63.822,16.101,64,16.28,64,16.5c0,0.221-0.179,0.4-0.4,0.4c-1.129,0-1.198,1.002-1.2,1.2c0,0.002,0,0.002,0,0.002
			c0,0.003-0.001,0.006,0,0.006v0.001c0,0,0,0.001,0,0.001v0.002C62.394,18.327,62.217,18.5,62,18.5
			C61.78,18.5,61.601,18.322,61.6,18.102z"/>
		<path fill="#E4C95C" d="M0.8,15.301C0.799,15.2,0.764,14.7,0.2,14.7H0.199H0.196h0H0.196H0.195h0C0.087,14.697,0,14.609,0,14.5
			c0-0.11,0.089-0.199,0.199-0.2C0.3,14.299,0.8,14.264,0.8,13.7c0-0.111,0.089-0.2,0.2-0.2s0.2,0.089,0.2,0.2
			c0,0.564,0.5,0.599,0.601,0.6C1.911,14.301,2,14.39,2,14.5c0,0.111-0.089,0.2-0.2,0.2c-0.565,0-0.599,0.501-0.6,0.6
			c0,0.001,0,0.001,0,0.001c0,0.001-0.001,0.003-0.001,0.003c0.001,0,0.001,0,0.001,0v0.001v0.001C1.197,15.413,1.109,15.5,1,15.5
			C0.89,15.5,0.801,15.411,0.8,15.301z"/>
		<path fill="#E4C95C" d="M29.766,13.102c-0.002-0.201-0.071-1.202-1.2-1.202c-0.002,0-0.002,0-0.003,0c-0.002,0-0.003,0-0.005,0h0
			c-0.001,0-0.001,0-0.001,0h-0.001c0,0-0.001,0-0.002,0c-0.215-0.006-0.388-0.183-0.388-0.4c0-0.22,0.178-0.399,0.398-0.4
			c0.201-0.002,1.202-0.071,1.202-1.2c0-0.221,0.179-0.4,0.4-0.4s0.4,0.179,0.4,0.4c0,1.129,1.001,1.198,1.202,1.2
			c0.22,0.001,0.398,0.18,0.398,0.4c0,0.221-0.179,0.4-0.4,0.4c-1.129,0-1.198,1.002-1.2,1.2c0,0.002,0,0.002,0,0.002
			c0,0.003-0.001,0.006,0,0.006v0.001v0.001c0,0,0,0.001,0,0.002c-0.006,0.215-0.183,0.388-0.4,0.388
			C29.946,13.5,29.767,13.322,29.766,13.102z"/>
	</g>
</g>
</svg>
