<?xml version="1.0" encoding="utf-8"?>
<!-- Generator: Adobe Illustrator 17.0.0, SVG Export Plug-In . SVG Version: 6.00 Build 0)  -->
<!DOCTYPE svg PUBLIC "-//W3C//DTD SVG 1.1//EN" "http://www.w3.org/Graphics/SVG/1.1/DTD/svg11.dtd">
<svg version="1.1" xmlns="http://www.w3.org/2000/svg" xmlns:xlink="http://www.w3.org/1999/xlink" x="0px" y="0px" width="64px"
	 height="64px" viewBox="0 0 64 64" enable-background="new 0 0 64 64" xml:space="preserve">
<g id="Layer_4">
</g>
<g id="Layer_3">
</g>
<g id="Layer_2">
</g>
<g id="Layer_1">
</g>
<g id="Layer_5">
	<g>
		<g>
			<g>
				<g>
					<g>
						<path fill="#FBFFFF" d="M59.5,31.287c0-15.188-12.312-27.5-27.5-27.5S4.5,16.099,4.5,31.287
							c0,9.396,4.715,17.687,11.905,22.647h31.191C54.785,48.973,59.5,40.682,59.5,31.287z"/>
					</g>
				</g>
				<g>
					<path fill="#2D346A" d="M53.794,54.684H10.206c-0.414,0-0.75-0.336-0.75-0.75s0.336-0.75,0.75-0.75h43.588
						c0.414,0,0.75,0.336,0.75,0.75S54.208,54.684,53.794,54.684z"/>
				</g>
				<g>
					<path fill="#FFFFFF" d="M43.625,57.919h-23.25c-0.414,0-0.75-0.336-0.75-0.75s0.336-0.75,0.75-0.75h23.25
						c0.414,0,0.75,0.336,0.75,0.75S44.039,57.919,43.625,57.919z"/>
				</g>
				<g>
					<path fill="#FFFFFF" d="M32.313,61.154h-4.672c-0.414,0-0.75-0.336-0.75-0.75s0.336-0.75,0.75-0.75h4.672
						c0.414,0,0.75,0.336,0.75,0.75S32.728,61.154,32.313,61.154z"/>
				</g>
				<g>
					<path fill="#FFFFFF" d="M36.415,61.154h-1.249c-0.414,0-0.75-0.336-0.75-0.75s0.336-0.75,0.75-0.75h1.249
						c0.414,0,0.75,0.336,0.75,0.75S36.829,61.154,36.415,61.154z"/>
				</g>
			</g>
			<g>
				<g>
					<g>
						<path fill="#E8F3FF" d="M39.5,15.812c-2.735,0-5.292,0.744-7.5,2.023c4.479,2.595,7.5,7.428,7.5,12.977
							c0,5.549-3.021,10.382-7.5,12.977c2.208,1.279,4.765,2.023,7.5,2.023c8.284,0,15-6.716,15-15
							C54.5,22.527,47.784,15.812,39.5,15.812z"/>
					</g>
					<g>
						<path fill="#E8F3FF" d="M24.5,30.812c0-5.549,3.021-10.382,7.5-12.977c-2.208-1.279-4.765-2.023-7.5-2.023
							c-8.284,0-15,6.716-15,15c0,8.284,6.716,15,15,15c2.735,0,5.292-0.744,7.5-2.023C27.521,41.194,24.5,36.36,24.5,30.812z"/>
					</g>
					<g>
						<path fill="#C3CCE9" d="M39.5,30.812c0-5.549-3.021-10.382-7.5-12.977c-4.479,2.595-7.5,7.428-7.5,12.977
							c0,5.549,3.021,10.382,7.5,12.977C36.479,41.194,39.5,36.36,39.5,30.812z"/>
					</g>
				</g>
				<g>
					<g>
						<path fill="#2D346A" d="M39.5,46.562c-4.207,0-8.162-1.639-11.137-4.613s-4.613-6.93-4.613-11.137s1.639-8.162,4.613-11.137
							s6.93-4.613,11.137-4.613s8.162,1.639,11.137,4.613c0.293,0.293,0.293,0.768,0,1.061s-0.768,0.293-1.061,0
							c-2.691-2.691-6.27-4.174-10.076-4.174s-7.385,1.482-10.076,4.174s-4.174,6.27-4.174,10.076s1.482,7.385,4.174,10.076
							s6.27,4.174,10.076,4.174s7.385-1.482,10.076-4.174c4.367-4.367,5.43-11.002,2.645-16.508c-0.188-0.37-0.039-0.821,0.33-1.008
							c0.372-0.191,0.821-0.038,1.008,0.33c3.079,6.087,1.905,13.419-2.922,18.246C47.662,44.923,43.707,46.562,39.5,46.562z"/>
					</g>
					<g>
						<path fill="#2D346A" d="M24.5,46.562c-0.414,0-0.75-0.336-0.75-0.75s0.336-0.75,0.75-0.75c7.857,0,14.25-6.393,14.25-14.25
							s-6.393-14.25-14.25-14.25s-14.25,6.393-14.25,14.25c0,5.98,3.776,11.366,9.396,13.402c0.389,0.141,0.591,0.571,0.449,0.961
							c-0.141,0.39-0.568,0.59-0.961,0.449C12.924,43.374,8.75,37.421,8.75,30.812c0-8.685,7.065-15.75,15.75-15.75
							s15.75,7.065,15.75,15.75S33.185,46.562,24.5,46.562z"/>
					</g>
					<g>
						
							<rect x="26.729" y="24.723" transform="matrix(0.7071 0.7071 -0.7071 0.7071 28.0318 -16.7293)" fill="#2D346A" width="14.962" height="1.5"/>
					</g>
					<g>
						
							<rect x="23.285" y="30.028" transform="matrix(0.7071 0.7071 -0.7071 0.7071 31.1402 -13.6235)" fill="#2D346A" width="17.461" height="1.5"/>
					</g>
					<g>
						
							<rect x="22.316" y="35.352" transform="matrix(0.7087 0.7055 -0.7055 0.7087 34.1533 -10.5184)" fill="#2D346A" width="14.998" height="1.5"/>
					</g>
				</g>
			</g>
			<g>
				<path fill="#FFFFFF" d="M62.4,45.22c0.002-0.201,0.071-1.202,1.2-1.202c0.002,0,0.002,0,0.003,0c0.001,0,0.003,0,0.005,0h0
					c0.001,0,0.001,0,0.001,0h0.001c0,0,0.001,0,0.001,0c0.215-0.006,0.388-0.183,0.388-0.4c0-0.22-0.178-0.399-0.398-0.4
					c-0.201-0.002-1.202-0.071-1.202-1.2c0-0.221-0.179-0.4-0.4-0.4c-0.221,0-0.4,0.179-0.4,0.4c0,1.128-1.001,1.198-1.202,1.2
					c-0.22,0.001-0.398,0.18-0.398,0.4c0,0.221,0.179,0.4,0.4,0.4c1.129,0,1.198,1.002,1.2,1.2c0,0.002,0,0.002,0,0.002
					c0,0.003,0.001,0.006,0,0.006v0.001v0.001c0,0,0,0.001,0,0.001c0.006,0.215,0.183,0.388,0.4,0.388
					C62.22,45.618,62.399,45.44,62.4,45.22z"/>
			</g>
			<g>
				<path fill="#FFFFFF" d="M4.9,49.318c0.002-0.201,0.071-1.202,1.2-1.202c0.002,0,0.002,0,0.003,0c0.002,0,0.003,0,0.005,0h0
					c0.001,0,0.001,0,0.001,0H6.11c0,0,0.001,0,0.002,0c0.215-0.006,0.388-0.183,0.388-0.4c0-0.22-0.178-0.399-0.398-0.4
					c-0.201-0.002-1.202-0.071-1.202-1.2c0-0.221-0.179-0.4-0.4-0.4c-0.221,0-0.4,0.179-0.4,0.4c0,1.129-1.001,1.198-1.202,1.2
					c-0.22,0.001-0.398,0.18-0.398,0.4c0,0.221,0.179,0.4,0.4,0.4c1.129,0,1.198,1.002,1.2,1.2c0,0.002,0,0.002,0,0.002
					c0,0.003,0.001,0.006,0,0.006v0.001v0.001v0.002c0.006,0.215,0.183,0.388,0.4,0.388C4.72,49.716,4.899,49.538,4.9,49.318z"/>
			</g>
			<g>
				<path fill="#FFFFFF" d="M1.2,20.152c0.001-0.101,0.036-0.601,0.6-0.601h0.001h0.002h0h0.001h0.001h0
					C1.913,19.548,2,19.46,2,19.351c0-0.11-0.089-0.199-0.199-0.2C1.7,19.15,1.2,19.115,1.2,18.551c0-0.11-0.089-0.2-0.2-0.2
					c-0.111,0-0.2,0.09-0.2,0.2c0,0.564-0.5,0.599-0.601,0.6C0.089,19.152,0,19.241,0,19.351c0,0.111,0.089,0.2,0.2,0.2
					c0.565,0,0.599,0.501,0.6,0.6v0.001c0,0.001,0.001,0.003,0.001,0.003c-0.001,0-0.001,0-0.001,0v0.001v0.001
					c0.003,0.108,0.091,0.194,0.2,0.194C1.11,20.351,1.199,20.262,1.2,20.152z"/>
			</g>
			<g>
				<path fill="#E4C95C" d="M30.12,50.517c0.001-0.101,0.036-0.601,0.6-0.601h0.001h0.002h0h0.001h0.001h0
					c0.108-0.003,0.194-0.091,0.194-0.2c0-0.11-0.089-0.199-0.199-0.2c-0.101-0.001-0.601-0.036-0.601-0.6
					c0-0.111-0.089-0.2-0.2-0.2c-0.11,0-0.2,0.09-0.2,0.2c0,0.564-0.5,0.599-0.601,0.6c-0.11,0.001-0.199,0.09-0.199,0.2
					c0,0.111,0.09,0.2,0.2,0.2c0.565,0,0.599,0.501,0.6,0.6v0.001c0,0.001,0.001,0.003,0.001,0.003l-0.001,0v0.001v0.001
					c0.003,0.108,0.091,0.194,0.2,0.194C30.03,50.716,30.119,50.627,30.12,50.517z"/>
			</g>
			<g>
				<path fill="#FFFFFF" d="M55.994,10.397c0.001-0.101,0.036-0.601,0.6-0.601h0.001h0.002h0h0.001h0.001h0
					c0.108-0.003,0.195-0.091,0.195-0.2c0-0.11-0.089-0.199-0.199-0.2c-0.101-0.001-0.601-0.036-0.601-0.6
					c0-0.111-0.089-0.2-0.2-0.2c-0.111,0-0.2,0.09-0.2,0.2c0,0.564-0.5,0.599-0.601,0.6c-0.11,0.001-0.199,0.09-0.199,0.2
					c0,0.111,0.089,0.2,0.2,0.2c0.565,0,0.599,0.501,0.6,0.6c0,0.001,0,0.001,0,0.001c0,0.001,0.001,0.003,0.001,0.003
					c-0.001,0-0.001,0-0.001,0v0.001v0.001c0.003,0.108,0.091,0.194,0.2,0.194C55.904,10.596,55.993,10.507,55.994,10.397z"/>
			</g>
			<g>
				<path fill="#E4C95C" d="M36.598,11.942c0.002-0.201,0.071-1.202,1.2-1.202c0.002,0,0.002,0,0.003,0c0.002,0,0.003,0,0.005,0h0
					c0.001,0,0.001,0,0.001,0h0.001c0,0,0.001,0,0.001,0c0.215-0.006,0.388-0.183,0.388-0.4c0-0.22-0.178-0.399-0.398-0.4
					c-0.201-0.002-1.202-0.071-1.202-1.2c0-0.221-0.179-0.4-0.4-0.4c-0.221,0-0.4,0.179-0.4,0.4c0,1.128-1.001,1.198-1.202,1.2
					c-0.22,0.001-0.398,0.18-0.398,0.4c0,0.221,0.179,0.4,0.4,0.4c1.129,0,1.198,1.002,1.2,1.2c0,0.002,0,0.002,0,0.002
					c0,0.003,0.001,0.006,0,0.006v0.001v0.001c0,0,0,0.001,0,0.002c0.006,0.215,0.183,0.388,0.4,0.388
					C36.418,12.34,36.597,12.162,36.598,11.942z"/>
			</g>
		</g>
	</g>
</g>
</svg>
