<?xml version="1.0" encoding="utf-8"?>
<!-- Generator: Adobe Illustrator 17.0.0, SVG Export Plug-In . SVG Version: 6.00 Build 0)  -->
<!DOCTYPE svg PUBLIC "-//W3C//DTD SVG 1.1//EN" "http://www.w3.org/Graphics/SVG/1.1/DTD/svg11.dtd">
<svg version="1.1" xmlns="http://www.w3.org/2000/svg" xmlns:xlink="http://www.w3.org/1999/xlink" x="0px" y="0px" width="64px"
	 height="64px" viewBox="0 0 64 64" enable-background="new 0 0 64 64" xml:space="preserve">
<g id="Layer_4">
</g>
<g id="Layer_3">
</g>
<g id="Layer_2">
</g>
<g id="Layer_1">
</g>
<g id="Layer_5">
	<g>
		<g>
			<g>
				<path fill="#FBE2CB" d="M59.5,31.191c0-15.188-12.312-27.5-27.5-27.5S4.5,16.003,4.5,31.191c0,9.396,4.715,17.687,11.905,22.647
					h31.191C54.785,48.878,59.5,40.587,59.5,31.191z"/>
			</g>
			
				<line fill="none" stroke="#2D346A" stroke-width="1.5" stroke-linecap="round" stroke-miterlimit="10" x1="14.206" y1="53.838" x2="49.794" y2="53.838"/>
			
				<line fill="none" stroke="#C3CCE9" stroke-width="1.5" stroke-linecap="round" stroke-linejoin="round" stroke-miterlimit="10" x1="20.375" y1="57.074" x2="43.625" y2="57.074"/>
			
				<line fill="none" stroke="#C3CCE9" stroke-width="1.5" stroke-linecap="round" stroke-linejoin="round" stroke-miterlimit="10" x1="27.641" y1="60.309" x2="32.314" y2="60.309"/>
			
				<line fill="none" stroke="#C3CCE9" stroke-width="1.5" stroke-linecap="round" stroke-linejoin="round" stroke-miterlimit="10" x1="35.166" y1="60.309" x2="36.415" y2="60.309"/>
		</g>
		<g>
			<g>
				<path fill="#FFFFFF" d="M28,36.75c0-0.242,0.021-0.478,0.036-0.716c-4.181-1.538-7.213-5.426-7.5-10.068
					C16.141,27.583,13,31.794,13,36.75c0,6.351,5.149,11.5,11.5,11.5c2.869,0,5.486-1.057,7.5-2.794
					C29.554,43.347,28,40.233,28,36.75z"/>
				<path fill="#FFFFFF" d="M43.464,25.966c-0.287,4.642-3.319,8.53-7.5,10.068C35.979,36.272,36,36.508,36,36.75
					c0,3.483-1.554,6.597-4,8.706c2.014,1.737,4.631,2.794,7.5,2.794c6.351,0,11.5-5.149,11.5-11.5
					C51,31.794,47.859,27.583,43.464,25.966z"/>
				<path fill="#E8F3FF" d="M36,36.75c0-0.242-0.021-0.478-0.036-0.716C34.726,36.489,33.395,36.75,32,36.75
					s-2.726-0.261-3.964-0.716C28.021,36.272,28,36.508,28,36.75c0,3.483,1.554,6.597,4,8.706C34.446,43.347,36,40.233,36,36.75z"/>
				<path fill="#FFFFFF" d="M32,28.044c2.014-1.737,4.631-2.794,7.5-2.794c1.395,0,2.726,0.261,3.964,0.716
					c0.015-0.238,0.036-0.474,0.036-0.716c0-6.351-5.149-11.5-11.5-11.5s-11.5,5.149-11.5,11.5c0,0.242,0.021,0.478,0.036,0.716
					c1.237-0.455,2.569-0.716,3.964-0.716C27.369,25.25,29.986,26.307,32,28.044z"/>
				<path fill="#E8F3FF" d="M28.036,36.034c0.197-3.191,1.688-6.027,3.964-7.99c-2.014-1.737-4.631-2.794-7.5-2.794
					c-1.395,0-2.726,0.261-3.964,0.716C20.823,30.608,23.855,34.496,28.036,36.034z"/>
				<path fill="#E8F3FF" d="M32,28.044c2.276,1.962,3.767,4.798,3.964,7.99c4.181-1.538,7.213-5.426,7.5-10.068
					c-1.237-0.455-2.569-0.716-3.964-0.716C36.631,25.25,34.014,26.307,32,28.044z"/>
				<path fill="#C3CCE9" d="M32,28.044c-2.276,1.962-3.767,4.798-3.964,7.99c1.237,0.455,2.569,0.716,3.964,0.716
					s2.726-0.261,3.964-0.716C35.767,32.843,34.276,30.007,32,28.044z"/>
			</g>
			<g>
				
					<path fill="none" stroke="#2D346A" stroke-width="1.5" stroke-linecap="round" stroke-linejoin="round" stroke-miterlimit="10" d="
					M20.536,25.966C16.141,27.583,13,31.794,13,36.75c0,6.351,5.149,11.5,11.5,11.5c2.869,0,5.486-1.057,7.5-2.794"/>
				
					<path fill="none" stroke="#2D346A" stroke-width="1.5" stroke-linecap="round" stroke-linejoin="round" stroke-miterlimit="10" d="
					M51,36.75c0-4.956-3.141-9.167-7.536-10.784"/>
				
					<path fill="none" stroke="#2D346A" stroke-width="1.5" stroke-linecap="round" stroke-linejoin="round" stroke-miterlimit="10" d="
					M32,45.456c2.014,1.737,4.631,2.794,7.5,2.794c5.089,0,9.405-3.305,10.921-7.886"/>
				<g>
					<g>
						
							<line fill="none" stroke="#2D346A" stroke-width="1.5" stroke-linecap="round" stroke-linejoin="round" x1="35.964" y1="36.034" x2="35.964" y2="36.034"/>
						
							<path fill="none" stroke="#2D346A" stroke-width="1.5" stroke-linecap="round" stroke-linejoin="round" stroke-dasharray="0,2.6973" d="
							M33.347,36.669C32.905,36.722,32.456,36.75,32,36.75c-0.922,0-1.817-0.114-2.674-0.323"/>
						
							<line fill="none" stroke="#2D346A" stroke-width="1.5" stroke-linecap="round" stroke-linejoin="round" x1="28.036" y1="36.034" x2="28.036" y2="36.034"/>
						
							<path fill="none" stroke="#2D346A" stroke-width="1.5" stroke-linecap="round" stroke-linejoin="round" stroke-dasharray="0,2.649" d="
							M28.161,38.675c0.379,2.241,1.41,4.26,2.887,5.861"/>
						
							<line fill="none" stroke="#2D346A" stroke-width="1.5" stroke-linecap="round" stroke-linejoin="round" x1="32" y1="45.456" x2="32" y2="45.456"/>
						
							<path fill="none" stroke="#2D346A" stroke-width="1.5" stroke-linecap="round" stroke-linejoin="round" stroke-dasharray="0,2.649" d="
							M33.793,43.513c1.275-1.744,2.071-3.86,2.191-6.156"/>
					</g>
				</g>
				
					<path fill="none" stroke="#2D346A" stroke-width="1.5" stroke-linecap="round" stroke-linejoin="round" stroke-miterlimit="10" d="
					M43.464,25.966c0.015-0.238,0.036-0.474,0.036-0.716c0-6.351-5.149-11.5-11.5-11.5s-11.5,5.149-11.5,11.5
					c0,0.242,0.021,0.478,0.036,0.716"/>
				<g>
					<g>
						
							<line fill="none" stroke="#2D346A" stroke-width="1.5" stroke-linecap="round" stroke-linejoin="round" x1="28.036" y1="36.034" x2="28.036" y2="36.034"/>
						
							<path fill="none" stroke="#2D346A" stroke-width="1.5" stroke-linecap="round" stroke-linejoin="round" stroke-dasharray="0,3.0523" d="
							M28.624,33.044c0.498-1.465,1.282-2.797,2.289-3.929"/>
						
							<line fill="none" stroke="#2D346A" stroke-width="1.5" stroke-linecap="round" stroke-linejoin="round" x1="32" y1="28.044" x2="32" y2="28.044"/>
						
							<path fill="none" stroke="#2D346A" stroke-width="1.5" stroke-linecap="round" stroke-linejoin="round" stroke-dasharray="0,3.0544" d="
							M29.452,26.375c-1.499-0.72-3.177-1.125-4.952-1.125c-0.86,0-1.696,0.099-2.5,0.282"/>
						
							<line fill="none" stroke="#2D346A" stroke-width="1.5" stroke-linecap="round" stroke-linejoin="round" x1="20.536" y1="25.966" x2="20.536" y2="25.966"/>
						
							<path fill="none" stroke="#2D346A" stroke-width="1.5" stroke-linecap="round" stroke-linejoin="round" stroke-dasharray="0,3.3176" d="
							M21.214,29.207c0.966,2.636,2.871,4.818,5.311,6.143"/>
					</g>
				</g>
				<g>
					<g>
						
							<line fill="none" stroke="#2D346A" stroke-width="1.5" stroke-linecap="round" stroke-linejoin="round" x1="32" y1="28.044" x2="32" y2="28.044"/>
						
							<path fill="none" stroke="#2D346A" stroke-width="1.5" stroke-linecap="round" stroke-linejoin="round" stroke-dasharray="0,3.0523" d="
							M34.023,30.319c0.843,1.247,1.446,2.669,1.747,4.2"/>
						
							<line fill="none" stroke="#2D346A" stroke-width="1.5" stroke-linecap="round" stroke-linejoin="round" x1="35.964" y1="36.034" x2="35.964" y2="36.034"/>
						
							<path fill="none" stroke="#2D346A" stroke-width="1.5" stroke-linecap="round" stroke-linejoin="round" stroke-dasharray="0,3.3176" d="
							M38.872,34.455c2.2-1.644,3.789-4.058,4.371-6.844"/>
						
							<line fill="none" stroke="#2D346A" stroke-width="1.5" stroke-linecap="round" stroke-linejoin="round" x1="43.464" y1="25.966" x2="43.464" y2="25.966"/>
						
							<path fill="none" stroke="#2D346A" stroke-width="1.5" stroke-linecap="round" stroke-linejoin="round" stroke-dasharray="0,3.0544" d="
							M40.491,25.294c-0.326-0.029-0.657-0.044-0.991-0.044c-2.32,0-4.476,0.692-6.281,1.875"/>
					</g>
				</g>
			</g>
		</g>
		<path fill="#E4C95C" d="M50.4,22.852c0.002-0.201,0.071-1.202,1.2-1.202c0.002,0,0.002,0,0.003,0c0.002,0,0.003,0,0.005,0h0
			c0.001,0,0.001,0,0.001,0h0.001c0,0,0.001,0,0.002,0C51.827,21.644,52,21.467,52,21.25c0-0.22-0.178-0.399-0.398-0.4
			c-0.201-0.002-1.202-0.071-1.202-1.2c0-0.221-0.179-0.4-0.4-0.4s-0.4,0.179-0.4,0.4c0,1.129-1.001,1.198-1.202,1.2
			C48.178,20.851,48,21.03,48,21.25c0,0.221,0.179,0.4,0.4,0.4c1.129,0,1.198,1.002,1.2,1.2c0,0.002,0,0.002,0,0.002
			c0,0.003,0.001,0.006,0,0.006v0.001v0.001c0,0,0,0.001,0,0.002c0.006,0.215,0.183,0.388,0.4,0.388
			C50.22,23.25,50.399,23.072,50.4,22.852z"/>
		<path fill="#E4C95C" d="M12.505,26.698c0.001-0.101,0.036-0.601,0.6-0.601h0.001h0.002h0h0.001h0.001h0
			c0.108-0.003,0.195-0.091,0.195-0.2c0-0.11-0.089-0.199-0.199-0.2c-0.101-0.001-0.601-0.036-0.601-0.6c0-0.111-0.089-0.2-0.2-0.2
			s-0.2,0.089-0.2,0.2c0,0.564-0.5,0.599-0.601,0.6c-0.11,0.001-0.199,0.09-0.199,0.2c0,0.111,0.089,0.2,0.2,0.2
			c0.565,0,0.599,0.501,0.6,0.6c0,0.001,0,0.001,0,0.001c0,0.001,0.001,0.003,0.001,0.003c-0.001,0-0.001,0-0.001,0v0.001v0.001
			c0.003,0.108,0.091,0.194,0.2,0.194C12.415,26.897,12.505,26.808,12.505,26.698z"/>
		<path fill="#E4C95C" d="M36.615,9.776c0.001-0.101,0.036-0.601,0.6-0.601h0.001h0.002h0h0.001h0.001h0
			c0.108-0.003,0.195-0.091,0.195-0.2c0-0.11-0.089-0.199-0.199-0.2c-0.101-0.001-0.601-0.036-0.601-0.6c0-0.111-0.089-0.2-0.2-0.2
			s-0.2,0.089-0.2,0.2c0,0.564-0.5,0.599-0.601,0.6c-0.11,0.001-0.199,0.09-0.199,0.2c0,0.111,0.089,0.2,0.2,0.2
			c0.565,0,0.599,0.501,0.6,0.6c0,0.001,0,0.001,0,0.001c0,0.001,0.001,0.003,0.001,0.003c-0.001,0-0.001,0-0.001,0V9.78v0.001
			c0.003,0.108,0.091,0.194,0.2,0.194C36.525,9.975,36.614,9.886,36.615,9.776z"/>
		<path fill="#E4C95C" d="M1.2,40.784c0.001-0.101,0.036-0.601,0.6-0.601h0.001h0.002h0h0.001h0.001h0
			C1.913,40.179,2,40.091,2,39.983c0-0.11-0.089-0.199-0.199-0.2C1.7,39.781,1.2,39.747,1.2,39.183c0-0.111-0.089-0.2-0.2-0.2
			s-0.2,0.089-0.2,0.2c0,0.564-0.5,0.599-0.601,0.6C0.089,39.783,0,39.872,0,39.983c0,0.111,0.089,0.2,0.2,0.2
			c0.565,0,0.599,0.501,0.6,0.6c0,0.001,0,0.001,0,0.001c0,0.001,0.001,0.003,0.001,0.003c-0.001,0-0.001,0-0.001,0v0.001v0.001
			c0.003,0.108,0.091,0.194,0.2,0.194C1.11,40.983,1.199,40.893,1.2,40.784z"/>
		<path fill="#E4C95C" d="M57.7,48.851c0.001-0.101,0.036-0.601,0.6-0.601h0.001h0.002h0h0.001h0.001h0
			c0.108-0.003,0.195-0.091,0.195-0.2c0-0.11-0.089-0.199-0.199-0.2c-0.101-0.001-0.601-0.036-0.601-0.6c0-0.111-0.089-0.2-0.2-0.2
			s-0.2,0.089-0.2,0.2c0,0.564-0.5,0.599-0.601,0.6c-0.11,0.001-0.199,0.09-0.199,0.2c0,0.111,0.089,0.2,0.2,0.2
			c0.565,0,0.599,0.501,0.6,0.6c0,0.001,0,0.001,0,0.001c0,0.001,0.001,0.003,0.001,0.003c-0.001,0-0.001,0-0.001,0v0.001v0.001
			c0.003,0.108,0.091,0.194,0.2,0.194C57.61,49.05,57.699,48.961,57.7,48.851z"/>
		<path fill="#E4C95C" d="M63.2,27.224c0.001-0.101,0.036-0.601,0.6-0.601h0.001h0.002h0h0.001h0.001h0
			C63.913,26.62,64,26.531,64,26.423c0-0.11-0.089-0.199-0.199-0.2c-0.101-0.001-0.601-0.036-0.601-0.6c0-0.111-0.089-0.2-0.2-0.2
			s-0.2,0.089-0.2,0.2c0,0.564-0.5,0.599-0.601,0.6c-0.11,0.001-0.199,0.09-0.199,0.2c0,0.111,0.089,0.2,0.2,0.2
			c0.565,0,0.599,0.501,0.6,0.6c0,0.001,0,0.001,0,0.001c0,0.001,0.001,0.003,0.001,0.003c-0.001,0-0.001,0-0.001,0v0.001v0.001
			c0.003,0.108,0.091,0.194,0.2,0.194C63.11,27.423,63.199,27.334,63.2,27.224z"/>
		<path fill="#E4C95C" d="M5.9,12.577c0.002-0.201,0.071-1.202,1.2-1.202c0.002,0,0.002,0,0.003,0c0.002,0,0.003,0,0.005,0h0
			c0.001,0,0.001,0,0.001,0H7.11c0,0,0.001,0,0.002,0c0.215-0.006,0.388-0.183,0.388-0.4c0-0.22-0.178-0.399-0.398-0.4
			C6.901,10.573,5.9,10.504,5.9,9.375c0-0.221-0.179-0.4-0.4-0.4s-0.4,0.179-0.4,0.4c0,1.129-1.001,1.198-1.202,1.2
			c-0.22,0.001-0.398,0.18-0.398,0.4c0,0.221,0.179,0.4,0.4,0.4c1.129,0,1.198,1.002,1.2,1.2c0,0.002,0,0.002,0,0.002
			c0,0.003,0.001,0.006,0,0.006v0.001v0.001c0,0,0,0.001,0,0.002c0.006,0.215,0.183,0.388,0.4,0.388
			C5.72,12.975,5.899,12.797,5.9,12.577z"/>
	</g>
</g>
</svg>
