<?xml version="1.0" encoding="utf-8"?>
<!-- Generator: Adobe Illustrator 17.0.0, SVG Export Plug-In . SVG Version: 6.00 Build 0)  -->
<!DOCTYPE svg PUBLIC "-//W3C//DTD SVG 1.1//EN" "http://www.w3.org/Graphics/SVG/1.1/DTD/svg11.dtd">
<svg version="1.1" xmlns="http://www.w3.org/2000/svg" xmlns:xlink="http://www.w3.org/1999/xlink" x="0px" y="0px" width="64px"
	 height="64px" viewBox="0 0 64 64" enable-background="new 0 0 64 64" xml:space="preserve">
<g id="Layer_4">
</g>
<g id="Layer_3">
</g>
<g id="Layer_2">
</g>
<g id="Layer_1">
</g>
<g id="Layer_5">
	<g>
		<g>
			<g>
				<g>
					<g>
						<path fill="#FBFFFF" d="M59.5,31.287c0-15.188-12.312-27.5-27.5-27.5S4.5,16.099,4.5,31.287
							c0,9.396,4.715,17.687,11.905,22.647h31.191C54.785,48.973,59.5,40.682,59.5,31.287z"/>
					</g>
				</g>
				<g>
					<path fill="#2D346A" d="M49.794,54.684H14.206c-0.414,0-0.75-0.336-0.75-0.75s0.336-0.75,0.75-0.75h35.588
						c0.414,0,0.75,0.336,0.75,0.75S50.208,54.684,49.794,54.684z"/>
				</g>
				<g>
					<path fill="#FFFFFF" d="M43.625,57.919h-23.25c-0.414,0-0.75-0.336-0.75-0.75s0.336-0.75,0.75-0.75h23.25
						c0.414,0,0.75,0.336,0.75,0.75S44.039,57.919,43.625,57.919z"/>
				</g>
				<g>
					<path fill="#FFFFFF" d="M32.313,61.154h-4.672c-0.414,0-0.75-0.336-0.75-0.75s0.336-0.75,0.75-0.75h4.672
						c0.414,0,0.75,0.336,0.75,0.75S32.728,61.154,32.313,61.154z"/>
				</g>
				<g>
					<path fill="#FFFFFF" d="M36.415,61.154h-1.249c-0.414,0-0.75-0.336-0.75-0.75s0.336-0.75,0.75-0.75h1.249
						c0.414,0,0.75,0.336,0.75,0.75S36.829,61.154,36.415,61.154z"/>
				</g>
			</g>
			<g>
				<path fill="#FFFFFF" d="M62.4,47.22c0.002-0.201,0.071-1.202,1.2-1.202c0.002,0,0.002,0,0.003,0c0.001,0,0.003,0,0.005,0h0
					c0.001,0,0.001,0,0.001,0h0.001c0,0,0.001,0,0.001,0c0.215-0.006,0.388-0.183,0.388-0.4c0-0.22-0.178-0.399-0.398-0.4
					c-0.201-0.002-1.202-0.071-1.202-1.2c0-0.221-0.179-0.4-0.4-0.4c-0.221,0-0.4,0.179-0.4,0.4c0,1.128-1.001,1.198-1.202,1.2
					c-0.22,0.001-0.398,0.18-0.398,0.4c0,0.221,0.179,0.4,0.4,0.4c1.129,0,1.198,1.002,1.2,1.2c0,0.002,0,0.002,0,0.002
					c0,0.003,0.001,0.006,0,0.006v0.001v0.001c0,0,0,0.001,0,0.001c0.006,0.215,0.183,0.388,0.4,0.388
					C62.22,47.618,62.399,47.44,62.4,47.22z"/>
			</g>
			<g>
				<path fill="#E4C95C" d="M51.352,24.891c0.002-0.201,0.071-1.202,1.2-1.202c0.002,0,0.002,0,0.003,0c0.001,0,0.003,0,0.005,0h0
					c0.001,0,0.001,0,0.001,0h0.001c0,0,0.001,0,0.001,0c0.215-0.006,0.388-0.183,0.388-0.4c0-0.22-0.178-0.399-0.398-0.4
					c-0.201-0.002-1.202-0.072-1.202-1.2c0-0.221-0.179-0.4-0.4-0.4c-0.221,0-0.4,0.179-0.4,0.4c0,1.128-1.001,1.198-1.202,1.2
					c-0.22,0.001-0.398,0.18-0.398,0.4c0,0.221,0.179,0.4,0.4,0.4c1.129,0,1.198,1.002,1.2,1.2c0,0.001,0,0.002,0,0.002
					c0,0.003,0.001,0.006,0,0.006v0.001v0.001c0,0,0,0.001,0,0.002c0.006,0.215,0.183,0.388,0.4,0.388
					C51.173,25.289,51.351,25.111,51.352,24.891z"/>
			</g>
			<g>
				<path fill="#FFFFFF" d="M6.9,11.198c0.002-0.201,0.071-1.202,1.2-1.202c0.002,0,0.002,0,0.003,0c0.002,0,0.003,0,0.005,0h0
					c0.001,0,0.001,0,0.001,0H8.11c0,0,0.001,0,0.002,0C8.327,9.989,8.5,9.813,8.5,9.596c0-0.22-0.178-0.399-0.398-0.4
					C7.901,9.193,6.9,9.124,6.9,7.996c0-0.221-0.179-0.4-0.4-0.4c-0.221,0-0.4,0.179-0.4,0.4c0,1.129-1.001,1.198-1.202,1.2
					C4.678,9.197,4.5,9.375,4.5,9.596c0,0.221,0.179,0.4,0.4,0.4c1.129,0,1.198,1.002,1.2,1.2c0,0.002,0,0.002,0,0.002
					c0,0.003,0.001,0.006,0,0.006v0.001v0.001c0,0,0,0.001,0,0.002c0.006,0.215,0.183,0.388,0.4,0.388
					C6.72,11.596,6.899,11.417,6.9,11.198z"/>
			</g>
			<g>
				<path fill="#FFFFFF" d="M1.2,48.857c0.001-0.101,0.036-0.601,0.6-0.601h0.001h0.002h0h0.001h0.001h0
					C1.913,48.253,2,48.165,2,48.056c0-0.11-0.089-0.199-0.199-0.2C1.7,47.855,1.2,47.82,1.2,47.256c0-0.111-0.089-0.2-0.2-0.2
					c-0.111,0-0.2,0.09-0.2,0.2c0,0.564-0.5,0.599-0.601,0.6C0.089,47.857,0,47.946,0,48.056c0,0.111,0.089,0.2,0.2,0.2
					c0.565,0,0.599,0.501,0.6,0.6v0.001c0,0.001,0.001,0.003,0.001,0.003c-0.001,0-0.001,0-0.001,0v0.001v0.001
					c0.003,0.108,0.091,0.194,0.2,0.194C1.11,49.056,1.199,48.967,1.2,48.857z"/>
			</g>
			<g>
				<path fill="#FFFFFF" d="M55.994,10.397c0.001-0.101,0.036-0.601,0.6-0.601h0.001h0.002h0h0.001h0.001h0
					c0.108-0.003,0.195-0.091,0.195-0.2c0-0.11-0.089-0.199-0.199-0.2c-0.101-0.001-0.601-0.036-0.601-0.6
					c0-0.111-0.089-0.2-0.2-0.2c-0.111,0-0.2,0.09-0.2,0.2c0,0.564-0.5,0.599-0.601,0.6c-0.11,0.001-0.199,0.09-0.199,0.2
					c0,0.111,0.089,0.2,0.2,0.2c0.565,0,0.599,0.501,0.6,0.6c0,0.001,0,0.001,0,0.001c0,0.001,0.001,0.003,0.001,0.003
					c-0.001,0-0.001,0-0.001,0v0.001v0.001c0.003,0.108,0.091,0.194,0.2,0.194C55.904,10.596,55.993,10.507,55.994,10.397z"/>
			</g>
			<g>
				<path fill="#E4C95C" d="M37.042,12.19c0.001-0.101,0.036-0.601,0.6-0.601h0.001h0.002h0h0.001h0.001h0
					c0.108-0.003,0.194-0.091,0.194-0.2c0-0.11-0.089-0.199-0.199-0.2c-0.101-0.001-0.601-0.036-0.601-0.6c0-0.111-0.09-0.2-0.2-0.2
					c-0.11,0-0.2,0.09-0.2,0.2c0,0.564-0.5,0.599-0.601,0.6c-0.11,0.001-0.199,0.09-0.199,0.2c0,0.111,0.09,0.2,0.2,0.2
					c0.565,0,0.599,0.501,0.6,0.6v0.001c0,0.001,0.001,0.003,0.001,0.003l-0.001,0v0.001v0.001c0.003,0.108,0.091,0.194,0.2,0.194
					C36.952,12.389,37.041,12.3,37.042,12.19z"/>
			</g>
			<g>
				<path fill="#E4C95C" d="M11.606,33.787c0.002-0.201,0.071-1.202,1.2-1.202c0.002,0,0.002,0,0.003,0c0.002,0,0.003,0,0.005,0h0
					h0.001h0.001c0,0,0.001,0,0.001,0c0.215-0.006,0.388-0.183,0.388-0.4c0-0.22-0.178-0.399-0.398-0.4
					c-0.201-0.002-1.202-0.072-1.202-1.2c0-0.221-0.179-0.4-0.4-0.4s-0.4,0.179-0.4,0.4c0,1.128-1.001,1.198-1.202,1.2
					c-0.22,0.001-0.398,0.18-0.398,0.4c0,0.221,0.179,0.4,0.4,0.4c1.129,0,1.198,1.002,1.2,1.2c0,0.002,0,0.002,0,0.002
					c0,0.003,0.001,0.006,0,0.006v0.001v0.001c0,0,0,0.001,0,0.002c0.006,0.215,0.183,0.388,0.4,0.388
					C11.426,34.185,11.605,34.007,11.606,33.787z"/>
			</g>
			<g>
				<g>
					<g>
						<polyline fill="#C3CCE9" points="17.802,20.658 17.802,53.846 31.733,53.846 31.733,20.658 						"/>
						<path fill="#2D346A" d="M31.733,54.596H17.803c-0.414,0-0.75-0.336-0.75-0.75V20.658c0-0.414,0.336-0.75,0.75-0.75
							s0.75,0.336,0.75,0.75v32.438h12.431V20.658c0-0.414,0.336-0.75,0.75-0.75s0.75,0.336,0.75,0.75v33.188
							C32.483,54.26,32.147,54.596,31.733,54.596z"/>
					</g>
					<g>
						<g>
							<polyline fill="#E8F3FF" points="21.969,14.041 17.802,20.658 31.733,20.658 27.567,14.041 							"/>
							<path fill="#2D346A" d="M31.733,21.408H17.803c-0.273,0-0.524-0.148-0.656-0.388s-0.124-0.531,0.021-0.762l4.166-6.617
								c0.221-0.352,0.685-0.455,1.034-0.235c0.351,0.221,0.456,0.684,0.235,1.034l-3.442,5.468h11.214l-3.443-5.468
								c-0.221-0.351-0.115-0.813,0.235-1.034c0.35-0.22,0.813-0.116,1.034,0.235l4.167,6.617c0.146,0.23,0.154,0.522,0.021,0.762
								C32.258,21.26,32.007,21.408,31.733,21.408z"/>
						</g>
						<g>
							<path fill="#E4C95C" d="M27.567,14.041l-2.799-4.446l-2.799,4.446c0.811,0.512,1.769,0.813,2.799,0.813
								S26.756,14.553,27.567,14.041z"/>
							<path fill="#2D346A" d="M24.768,15.604c-1.13,0-2.236-0.321-3.199-0.928c-0.35-0.221-0.455-0.684-0.234-1.034l2.799-4.445
								c0.275-0.438,0.994-0.438,1.27,0l2.799,4.445c0.221,0.35,0.115,0.813-0.234,1.033C27.005,15.282,25.898,15.604,24.768,15.604
								z M23.036,13.754c1.098,0.462,2.369,0.461,3.464,0l-1.732-2.751L23.036,13.754z"/>
						</g>
					</g>
					<g>
						<path fill="#2D346A" d="M22.446,54.596c-0.414,0-0.75-0.336-0.75-0.75V23.658c0-0.414,0.336-0.75,0.75-0.75
							s0.75,0.336,0.75,0.75v30.188C23.196,54.26,22.86,54.596,22.446,54.596z"/>
					</g>
					<g>
						<rect x="26.34" y="20.658" fill="#2D346A" width="1.5" height="33.188"/>
					</g>
				</g>
				<g>
					<g>
						
							<rect x="28.81" y="26.136" transform="matrix(0.681 0.7323 -0.7323 0.681 37.8765 -19.2143)" fill="#E4C95C" width="24.366" height="15.466"/>
					</g>
					<g>
						<path fill="#2D346A" d="M37.811,27.596c-0.201,0-0.401-0.08-0.549-0.239c-0.282-0.304-0.266-0.778,0.038-1.06l3.867-3.596
							c0.304-0.283,0.779-0.266,1.06,0.038c0.282,0.304,0.266,0.778-0.038,1.06l-3.867,3.596
							C38.177,27.529,37.993,27.596,37.811,27.596z"/>
					</g>
					<g>
						<path fill="#2D346A" d="M39.334,32.835c-0.201,0-0.401-0.08-0.549-0.239c-0.282-0.304-0.266-0.777,0.038-1.06l5.662-5.267
							c0.304-0.283,0.778-0.267,1.06,0.038c0.282,0.304,0.266,0.777-0.038,1.06l-5.662,5.267
							C39.7,32.769,39.517,32.835,39.334,32.835z"/>
					</g>
					<g>
						<path fill="#2D346A" d="M49.563,36.632c-0.201,0-0.401-0.08-0.549-0.239c-0.282-0.303-0.266-0.777,0.038-1.06l2.071-1.927
							c0.304-0.283,0.778-0.266,1.06,0.038c0.282,0.303,0.266,0.777-0.038,1.06l-2.071,1.927
							C49.929,36.565,49.745,36.632,49.563,36.632z"/>
					</g>
					<g>
						<path fill="#2D346A" d="M44.448,34.733c-0.201,0-0.401-0.08-0.549-0.239c-0.282-0.304-0.266-0.778,0.038-1.06l3.867-3.597
							c0.305-0.283,0.778-0.265,1.06,0.038c0.282,0.304,0.266,0.778-0.038,1.06l-3.867,3.597
							C44.814,34.667,44.631,34.733,44.448,34.733z"/>
					</g>
					<g>
						<path fill="#2D346A" d="M43.627,48.806c-0.201,0-0.401-0.08-0.549-0.239L26.485,30.725c-0.282-0.304-0.266-0.777,0.038-1.06
							L38.119,18.88c0.146-0.136,0.316-0.23,0.538-0.2c0.198,0.007,0.387,0.093,0.521,0.238L55.772,36.76
							c0.282,0.304,0.266,0.777-0.038,1.06l-8.902,8.28c-0.304,0.283-0.778,0.265-1.06-0.038c-0.282-0.304-0.266-0.777,0.038-1.06
							l8.354-7.77L38.592,20.488l-10.498,9.764l16.082,17.293c0.282,0.304,0.266,0.778-0.038,1.06
							C43.993,48.739,43.81,48.806,43.627,48.806z"/>
					</g>
					<g>
						<path fill="#E8F3FF" d="M27.251,41.483l-5.836,5.428c-1.488,1.383-1.572,3.711-0.188,5.198l0.143,0.154
							c1.384,1.488,3.711,1.572,5.198,0.188l5.836-5.427l4.885,5.253c1.383,1.488,3.711,1.572,5.198,0.189l2.81-2.613L25.364,28.418
							l-2.81,2.613c-1.488,1.383-1.572,3.711-0.188,5.199L27.251,41.483z"/>
						<path fill="#2D346A" d="M39.983,54.199c-1.226,0-2.408-0.515-3.243-1.412l-4.374-4.704L27.079,53
							c-0.821,0.765-1.893,1.186-3.015,1.186l0,0c-1.227,0-2.409-0.515-3.243-1.412l-0.144-0.154
							c-1.663-1.787-1.562-4.595,0.227-6.258l5.287-4.917l-4.375-4.704c-1.663-1.788-1.561-4.595,0.227-6.258l2.81-2.613
							c0.145-0.136,0.312-0.222,0.538-0.2c0.198,0.007,0.387,0.093,0.521,0.238l19.935,21.434c0.282,0.304,0.266,0.777-0.038,1.06
							l-2.81,2.613C42.177,53.778,41.105,54.199,39.983,54.199z M32.404,46.273c0.009,0,0.019,0,0.027,0.001
							c0.198,0.007,0.387,0.093,0.521,0.238l4.885,5.253c1.067,1.146,2.994,1.215,4.14,0.15l2.261-2.103L25.325,29.478l-2.261,2.103
							c-1.182,1.1-1.249,2.956-0.15,4.139l4.886,5.253c0.136,0.146,0.208,0.339,0.2,0.538c-0.007,0.198-0.093,0.387-0.238,0.521
							l-5.836,5.428c-1.183,1.101-1.25,2.957-0.15,4.139l0.144,0.154c0.561,0.603,1.322,0.934,2.146,0.934l0,0
							c0.742,0,1.449-0.278,1.993-0.783l5.836-5.428C32.032,46.345,32.215,46.273,32.404,46.273z"/>
					</g>
					<g>
						<circle fill="#C3CCE9" cx="23.934" cy="49.734" r="1.226"/>
					</g>
				</g>
			</g>
		</g>
	</g>
</g>
</svg>
