<?xml version="1.0" encoding="utf-8"?>
<!-- Generator: Adobe Illustrator 17.0.0, SVG Export Plug-In . SVG Version: 6.00 Build 0)  -->
<!DOCTYPE svg PUBLIC "-//W3C//DTD SVG 1.1//EN" "http://www.w3.org/Graphics/SVG/1.1/DTD/svg11.dtd">
<svg version="1.1" xmlns="http://www.w3.org/2000/svg" xmlns:xlink="http://www.w3.org/1999/xlink" x="0px" y="0px" width="64px"
	 height="64px" viewBox="0 0 64 64" enable-background="new 0 0 64 64" xml:space="preserve">
<g id="Layer_4">
</g>
<g id="Layer_3">
</g>
<g id="Layer_2">
</g>
<g id="Layer_1">
</g>
<g id="Layer_5">
	<g>
		<g>
			<g>
				<g>
					<g>
						<path fill="#FBFFFF" d="M59.5,31.287c0-15.188-12.312-27.5-27.5-27.5S4.5,16.099,4.5,31.287
							c0,9.396,4.715,17.687,11.905,22.647h31.191C54.785,48.973,59.5,40.682,59.5,31.287z"/>
					</g>
				</g>
				<g>
					<path fill="#2D346A" d="M49.794,54.684H14.206c-0.414,0-0.75-0.336-0.75-0.75s0.336-0.75,0.75-0.75h35.588
						c0.414,0,0.75,0.336,0.75,0.75S50.208,54.684,49.794,54.684z"/>
				</g>
				<g>
					<path fill="#FFFFFF" d="M43.625,57.919h-23.25c-0.414,0-0.75-0.336-0.75-0.75s0.336-0.75,0.75-0.75h23.25
						c0.414,0,0.75,0.336,0.75,0.75S44.039,57.919,43.625,57.919z"/>
				</g>
				<g>
					<path fill="#FFFFFF" d="M32.313,61.154h-4.672c-0.414,0-0.75-0.336-0.75-0.75s0.336-0.75,0.75-0.75h4.672
						c0.414,0,0.75,0.336,0.75,0.75S32.728,61.154,32.313,61.154z"/>
				</g>
				<g>
					<path fill="#FFFFFF" d="M36.415,61.154h-1.249c-0.414,0-0.75-0.336-0.75-0.75s0.336-0.75,0.75-0.75h1.249
						c0.414,0,0.75,0.336,0.75,0.75S36.829,61.154,36.415,61.154z"/>
				</g>
			</g>
			<g>
				<path fill="#FFFFFF" d="M59.9,49.658c0.002-0.201,0.071-1.202,1.2-1.202c0.002,0,0.002,0,0.003,0c0.001,0,0.003,0,0.005,0h0
					c0.001,0,0.001,0,0.001,0h0.001c0,0,0.001,0,0.001,0c0.215-0.006,0.388-0.183,0.388-0.4c0-0.22-0.178-0.399-0.398-0.4
					c-0.201-0.002-1.202-0.072-1.202-1.2c0-0.221-0.179-0.4-0.4-0.4c-0.221,0-0.4,0.179-0.4,0.4c0,1.128-1.001,1.198-1.202,1.2
					c-0.22,0.001-0.398,0.18-0.398,0.4c0,0.221,0.179,0.4,0.4,0.4c1.129,0,1.198,1.002,1.2,1.2c0,0.002,0,0.002,0,0.002
					c0,0.003,0.001,0.006,0,0.006v0.001v0.001v0.001c0.006,0.215,0.183,0.388,0.4,0.388C59.72,50.056,59.899,49.878,59.9,49.658z"/>
			</g>
			<g>
				<path fill="#E4C95C" d="M20.606,19.198c0.002-0.201,0.072-1.202,1.2-1.202c0.002,0,0.002,0,0.003,0c0.002,0,0.003,0,0.005,0h0
					h0.001h0.001c0,0,0.001,0,0.001,0c0.215-0.006,0.388-0.183,0.388-0.4c0-0.22-0.178-0.399-0.398-0.4
					c-0.201-0.002-1.202-0.071-1.202-1.2c0-0.221-0.179-0.4-0.4-0.4s-0.4,0.179-0.4,0.4c0,1.129-1.001,1.198-1.202,1.2
					c-0.22,0.001-0.398,0.18-0.398,0.4c0,0.221,0.179,0.4,0.4,0.4c1.129,0,1.198,1.002,1.2,1.2c0,0.002,0,0.002,0,0.002
					c0,0.003,0.001,0.006,0,0.006v0.001v0.001c0,0,0,0.001,0,0.002c0.006,0.215,0.183,0.388,0.4,0.388
					C20.426,19.596,20.605,19.417,20.606,19.198z"/>
			</g>
			<g>
				<path fill="#FFFFFF" d="M4.9,48.658c0.002-0.201,0.071-1.202,1.2-1.202c0.002,0,0.002,0,0.003,0c0.002,0,0.003,0,0.005,0h0
					c0.001,0,0.001,0,0.001,0H6.11c0,0,0.001,0,0.002,0c0.215-0.006,0.388-0.183,0.388-0.4c0-0.22-0.178-0.399-0.398-0.4
					c-0.201-0.002-1.202-0.072-1.202-1.2c0-0.221-0.179-0.4-0.4-0.4c-0.221,0-0.4,0.179-0.4,0.4c0,1.128-1.001,1.198-1.202,1.2
					c-0.22,0.001-0.398,0.18-0.398,0.4c0,0.221,0.179,0.4,0.4,0.4c1.129,0,1.198,1.002,1.2,1.2c0,0.002,0,0.002,0,0.002
					c0,0.003,0.001,0.006,0,0.006v0.001v0.001v0.001c0.006,0.215,0.183,0.388,0.4,0.388C4.72,49.056,4.899,48.878,4.9,48.658z"/>
			</g>
			<g>
				<path fill="#FFFFFF" d="M1.2,14.397c0.001-0.101,0.036-0.601,0.6-0.601h0.001h0.002h0h0.001h0.001h0
					C1.914,13.792,2,13.704,2,13.596c0-0.11-0.089-0.199-0.199-0.2C1.7,13.394,1.2,13.36,1.2,12.796c0-0.111-0.089-0.2-0.2-0.2
					c-0.11,0-0.2,0.09-0.2,0.2c0,0.564-0.5,0.599-0.601,0.6C0.089,13.396,0,13.485,0,13.596c0,0.111,0.09,0.2,0.2,0.2
					c0.565,0,0.599,0.501,0.6,0.6v0.001c0,0.001,0.001,0.003,0.001,0.003c-0.001,0-0.001,0-0.001,0v0.001v0.001
					c0.003,0.108,0.091,0.194,0.2,0.194C1.11,14.596,1.199,14.507,1.2,14.397z"/>
			</g>
			<g>
				<path fill="#E4C95C" d="M38.817,10.397c0.001-0.101,0.036-0.601,0.6-0.601h0.001h0.002h0h0.001h0.001h0
					c0.108-0.003,0.194-0.091,0.194-0.2c0-0.11-0.089-0.199-0.199-0.2c-0.101-0.001-0.601-0.036-0.601-0.6c0-0.111-0.09-0.2-0.2-0.2
					c-0.111,0-0.2,0.09-0.2,0.2c0,0.564-0.5,0.599-0.601,0.6c-0.11,0.001-0.199,0.09-0.199,0.2c0,0.111,0.089,0.2,0.2,0.2
					c0.565,0,0.599,0.501,0.6,0.6c0,0.001,0,0.001,0,0.001c0,0.001,0.001,0.003,0.001,0.003l-0.001,0v0.001v0.001
					c0.003,0.108,0.091,0.194,0.2,0.194C38.727,10.596,38.816,10.507,38.817,10.397z"/>
			</g>
			<g>
				<path fill="#E4C95C" d="M14.406,32.179c0.001-0.101,0.036-0.601,0.6-0.601h0.001h0.002h0h0.001h0.001h0
					c0.108-0.003,0.194-0.091,0.194-0.2c0-0.11-0.089-0.199-0.199-0.2c-0.101-0.001-0.601-0.036-0.601-0.6c0-0.111-0.09-0.2-0.2-0.2
					c-0.11,0-0.2,0.09-0.2,0.2c0,0.564-0.5,0.599-0.601,0.6c-0.11,0.001-0.199,0.09-0.199,0.2c0,0.111,0.089,0.2,0.2,0.2
					c0.565,0,0.599,0.501,0.6,0.6v0.001c0,0.001,0.001,0.003,0.001,0.003l-0.001,0v0.001v0.001c0.003,0.108,0.091,0.194,0.2,0.194
					C14.316,32.378,14.405,32.289,14.406,32.179z"/>
			</g>
			<g>
				<path fill="#FFFFFF" d="M63.2,23.397c0.001-0.101,0.036-0.601,0.6-0.601h0.001h0.002h0h0.001h0.001h0
					c0.108-0.003,0.194-0.091,0.194-0.2c0-0.11-0.089-0.199-0.199-0.2c-0.101-0.001-0.601-0.036-0.601-0.6
					c0-0.111-0.089-0.2-0.2-0.2c-0.111,0-0.2,0.089-0.2,0.2c0,0.564-0.5,0.599-0.601,0.6c-0.11,0.001-0.199,0.09-0.199,0.2
					c0,0.111,0.09,0.2,0.2,0.2c0.565,0,0.599,0.501,0.6,0.6c0,0.001,0,0.001,0,0.001c0,0.001,0.001,0.003,0.001,0.003
					c-0.001,0-0.001,0-0.001,0v0.001v0.001c0.003,0.108,0.091,0.194,0.2,0.194C63.11,23.596,63.199,23.507,63.2,23.397z"/>
			</g>
			<g>
				<g>
					<polyline fill="#E4C95C" points="44.04,37.754 53.752,31.758 55.598,14.186 55.598,14.186 38.025,16.031 32.029,25.744 					
						"/>
					<path fill="#2D346A" d="M44.04,38.504c-0.251,0-0.497-0.126-0.639-0.356c-0.218-0.353-0.108-0.814,0.244-1.032l9.399-5.801
						l1.71-16.286l-16.285,1.71l-5.802,9.398c-0.217,0.354-0.68,0.462-1.032,0.244c-0.353-0.217-0.462-0.68-0.244-1.031l5.996-9.712
						c0.122-0.198,0.329-0.328,0.56-0.353l17.573-1.846c0.221-0.028,0.449,0.056,0.608,0.216c0.16,0.16,0.239,0.384,0.216,0.608
						l-1.846,17.573c-0.024,0.231-0.154,0.438-0.352,0.561l-9.712,5.995C44.311,38.468,44.175,38.504,44.04,38.504z"/>
				</g>
				<g>
					<path fill="#E8F3FF" d="M27.361,28.254C13.725,41.89,15.096,49.67,17.605,52.179l0,0c2.509,2.509,10.288,3.88,23.925-9.756"/>
					<path fill="#2D346A" d="M22.206,54.556c-2.896,0-4.487-1.202-5.131-1.847c-0.779-0.779-7.127-8.102,9.756-24.985
						c0.293-0.293,0.768-0.293,1.061,0s0.293,0.768,0,1.061c-12.875,12.875-12.19,20.43-9.756,22.864
						c0.529,0.528,2.601,2.164,7.067,0.981c4.5-1.19,9.961-4.903,15.796-10.738c0.293-0.293,0.768-0.293,1.061,0
						s0.293,0.768,0,1.061c-6.108,6.108-11.65,9.852-16.474,11.128C24.303,54.419,23.18,54.556,22.206,54.556z"/>
				</g>
				<g>
					<circle fill="#FFFFFF" cx="44.236" cy="25.547" r="2.336"/>
					<path fill="#2D346A" d="M44.236,28.633c-0.824,0-1.599-0.321-2.182-0.904c-1.203-1.202-1.203-3.16,0-4.364
						c1.167-1.167,3.2-1.165,4.365,0c1.204,1.204,1.203,3.162,0,4.364C45.836,28.312,45.061,28.633,44.236,28.633z M44.236,23.961
						c-0.423,0-0.822,0.164-1.122,0.464c-0.618,0.619-0.618,1.625,0,2.243c0.6,0.601,1.644,0.599,2.243,0
						c0.619-0.618,0.619-1.624,0-2.243C45.059,24.125,44.66,23.961,44.236,23.961z"/>
				</g>
				<g>
					<path fill="#2D346A" d="M49.88,20.653c-0.192,0-0.384-0.073-0.53-0.22c-0.293-0.293-0.293-0.768,0-1.061l5.718-5.718
						c0.293-0.293,0.768-0.293,1.061,0s0.293,0.768,0,1.061l-5.718,5.718C50.264,20.58,50.072,20.653,49.88,20.653z"/>
				</g>
				<g>
					<path fill="#C3CCE9" d="M37.723,38.616l3.806,3.806c0.991,0.991,2.598,0.991,3.589,0l0,0c0.991-0.991,0.991-2.598,0-3.589
						L30.95,24.665c-0.991-0.991-2.598-0.991-3.589,0l0,0c-0.991,0.991-0.991,2.598,0,3.589l8.321,8.321"/>
					<path fill="#2D346A" d="M43.324,43.914c-0.842,0-1.684-0.321-2.325-0.962l-3.806-3.806c-0.293-0.293-0.293-0.768,0-1.061
						s0.768-0.293,1.061,0l3.806,3.806c0.697,0.696,1.831,0.698,2.529,0c0.697-0.697,0.697-1.831,0-2.528L30.42,25.195
						c-0.676-0.676-1.853-0.676-2.528,0c-0.338,0.338-0.523,0.786-0.523,1.264s0.186,0.927,0.523,1.265l8.321,8.321
						c0.293,0.293,0.293,0.768,0,1.061s-0.768,0.293-1.061,0l-8.321-8.321c-0.621-0.621-0.963-1.446-0.963-2.325
						c0-0.878,0.342-1.704,0.963-2.324c1.241-1.241,3.407-1.243,4.649,0l14.168,14.168c1.282,1.282,1.282,3.367,0,4.649
						C45.008,43.593,44.166,43.914,43.324,43.914z"/>
				</g>
				<g>
					<path fill="#2D346A" d="M45.888,24.645c-0.192,0-0.384-0.073-0.53-0.22c-0.293-0.293-0.293-0.768,0-1.061l1.853-1.852
						c0.293-0.293,0.768-0.293,1.061,0s0.293,0.768,0,1.061l-1.853,1.852C46.272,24.571,46.08,24.645,45.888,24.645z"/>
				</g>
			</g>
		</g>
	</g>
</g>
</svg>
