<?xml version="1.0" encoding="utf-8"?>
<!-- Generator: Adobe Illustrator 17.0.0, SVG Export Plug-In . SVG Version: 6.00 Build 0)  -->
<!DOCTYPE svg PUBLIC "-//W3C//DTD SVG 1.1//EN" "http://www.w3.org/Graphics/SVG/1.1/DTD/svg11.dtd">
<svg version="1.1" xmlns="http://www.w3.org/2000/svg" xmlns:xlink="http://www.w3.org/1999/xlink" x="0px" y="0px" width="64px"
	 height="64px" viewBox="0 0 64 64" enable-background="new 0 0 64 64" xml:space="preserve">
<g id="Layer_4">
</g>
<g id="Layer_3">
</g>
<g id="Layer_2">
</g>
<g id="Layer_1">
</g>
<g id="Layer_5">
	<g>
		<g>
			<g>
				<g>
					<g>
						<path fill="#FBFFFF" d="M59.5,31.287c0-15.188-12.312-27.5-27.5-27.5S4.5,16.099,4.5,31.287
							c0,9.396,4.715,17.687,11.905,22.647h31.191C54.785,48.973,59.5,40.682,59.5,31.287z"/>
					</g>
				</g>
				<g>
					<path fill="#2D346A" d="M49.794,54.684H14.206c-0.414,0-0.75-0.336-0.75-0.75s0.336-0.75,0.75-0.75h35.588
						c0.414,0,0.75,0.336,0.75,0.75S50.208,54.684,49.794,54.684z"/>
				</g>
				<g>
					<path fill="#FFFFFF" d="M43.625,57.919h-23.25c-0.414,0-0.75-0.336-0.75-0.75s0.336-0.75,0.75-0.75h23.25
						c0.414,0,0.75,0.336,0.75,0.75S44.039,57.919,43.625,57.919z"/>
				</g>
				<g>
					<path fill="#FFFFFF" d="M32.313,61.154h-4.672c-0.414,0-0.75-0.336-0.75-0.75s0.336-0.75,0.75-0.75h4.672
						c0.414,0,0.75,0.336,0.75,0.75S32.728,61.154,32.313,61.154z"/>
				</g>
				<g>
					<path fill="#FFFFFF" d="M36.415,61.154h-1.249c-0.414,0-0.75-0.336-0.75-0.75s0.336-0.75,0.75-0.75h1.249
						c0.414,0,0.75,0.336,0.75,0.75S36.829,61.154,36.415,61.154z"/>
				</g>
			</g>
			<g>
				<g>
					<g>
						<path fill="#FFFFFF" d="M28,36.846c0-0.242,0.021-0.478,0.036-0.716c-4.181-1.538-7.213-5.426-7.5-10.068
							C16.141,27.678,13,31.89,13,36.846c0,6.351,5.149,11.5,11.5,11.5c2.869,0,5.486-1.057,7.5-2.794
							C29.554,43.443,28,40.328,28,36.846z"/>
					</g>
					<g>
						<path fill="#FFFFFF" d="M43.464,26.062c-0.287,4.642-3.319,8.53-7.5,10.068C35.978,36.368,36,36.604,36,36.846
							c0,3.483-1.554,6.597-4,8.706c2.014,1.737,4.631,2.794,7.5,2.794c6.351,0,11.5-5.149,11.5-11.5
							C51,31.89,47.859,27.678,43.464,26.062z"/>
					</g>
					<g>
						<path fill="#E8F3FF" d="M36,36.846c0-0.242-0.021-0.478-0.036-0.716c-1.237,0.455-2.569,0.716-3.964,0.716
							c-1.395,0-2.726-0.261-3.964-0.716C28.021,36.368,28,36.604,28,36.846c0,3.483,1.554,6.597,4,8.706
							C34.446,43.443,36,40.328,36,36.846z"/>
					</g>
					<g>
						<path fill="#FFFFFF" d="M32,28.14c2.014-1.737,4.631-2.794,7.5-2.794c1.395,0,2.727,0.261,3.964,0.716
							c0.015-0.238,0.036-0.474,0.036-0.716c0-6.351-5.149-11.5-11.5-11.5c-6.351,0-11.5,5.149-11.5,11.5
							c0,0.242,0.021,0.478,0.036,0.716c1.237-0.455,2.569-0.716,3.964-0.716C27.369,25.346,29.986,26.403,32,28.14z"/>
					</g>
					<g>
						<path fill="#E8F3FF" d="M28.036,36.129c0.197-3.191,1.688-6.027,3.964-7.99c-2.014-1.737-4.631-2.794-7.5-2.794
							c-1.395,0-2.726,0.261-3.964,0.716C20.823,30.704,23.855,34.592,28.036,36.129z"/>
					</g>
					<g>
						<path fill="#E8F3FF" d="M32,28.14c2.276,1.962,3.767,4.799,3.964,7.99c4.181-1.538,7.213-5.426,7.5-10.068
							c-1.237-0.455-2.569-0.716-3.964-0.716C36.631,25.346,34.014,26.403,32,28.14z"/>
					</g>
					<g>
						<path fill="#C3CCE9" d="M32,28.14c-2.276,1.962-3.767,4.799-3.964,7.99c1.237,0.455,2.569,0.716,3.964,0.716
							c1.395,0,2.726-0.261,3.964-0.716C35.767,32.938,34.276,30.102,32,28.14z"/>
					</g>
				</g>
				<g>
					<g>
						<path fill="#2D346A" d="M24.5,49.096c-6.755,0-12.25-5.495-12.25-12.25c0-5.104,3.226-9.722,8.027-11.488
							c0.388-0.144,0.819,0.056,0.963,0.445c0.143,0.389-0.057,0.819-0.445,0.963c-4.214,1.55-7.045,5.602-7.045,10.08
							c0,5.928,4.822,10.75,10.75,10.75c2.566,0,5.056-0.928,7.011-2.612c0.313-0.271,0.787-0.237,1.058,0.079
							c0.271,0.313,0.235,0.787-0.079,1.058C30.263,48.039,27.426,49.096,24.5,49.096z"/>
					</g>
					<g>
						<path fill="#2D346A" d="M51,37.596c-0.414,0-0.75-0.336-0.75-0.75c0-4.479-2.831-8.53-7.045-10.08
							c-0.389-0.144-0.588-0.574-0.445-0.963c0.144-0.39,0.576-0.589,0.963-0.445c4.802,1.767,8.027,6.384,8.027,11.488
							C51.75,37.26,51.414,37.596,51,37.596z"/>
					</g>
					<g>
						<path fill="#2D346A" d="M39.5,49.096c-2.926,0-5.763-1.057-7.989-2.976c-0.314-0.271-0.35-0.744-0.079-1.058
							c0.271-0.316,0.745-0.35,1.058-0.079c1.955,1.685,4.444,2.612,7.011,2.612c4.647,0,8.75-2.962,10.209-7.371
							c0.13-0.395,0.553-0.611,0.947-0.477c0.394,0.13,0.606,0.555,0.477,0.947C49.471,45.72,44.795,49.096,39.5,49.096z"/>
					</g>
					<g>
						<g>
							<path fill="#2D346A" d="M35.96,36.88c-0.19,0-0.38-0.08-0.53-0.22c-0.14-0.141-0.22-0.341-0.22-0.53
								c0-0.2,0.08-0.39,0.22-0.53c0.3-0.29,0.79-0.28,1.061,0c0.149,0.141,0.22,0.34,0.22,0.53c0,0.189-0.07,0.39-0.21,0.53
								C36.359,36.8,36.16,36.88,35.96,36.88z"/>
						</g>
						<g>
							<path fill="#2D346A" d="M32.6,36.85c-0.05-0.41,0.24-0.78,0.66-0.83l0,0c0.41-0.05,0.78,0.24,0.83,0.66l0,0
								c0.05,0.41-0.24,0.78-0.65,0.83l0,0c-0.029,0-0.06,0.01-0.09,0.01l0,0C32.97,37.52,32.649,37.24,32.6,36.85z M30.569,37.51
								L30.569,37.51L30.569,37.51c-0.42-0.05-0.71-0.42-0.659-0.84l0,0c0.05-0.41,0.42-0.7,0.83-0.65l0,0
								c0.42,0.05,0.71,0.42,0.659,0.83l0,0c-0.05,0.38-0.369,0.67-0.75,0.67l0,0C30.62,37.52,30.6,37.51,30.569,37.51z"/>
						</g>
						<g>
							<path fill="#2D346A" d="M28.04,36.88c-0.2,0-0.4-0.08-0.54-0.22c-0.141-0.141-0.21-0.341-0.21-0.53
								c0-0.2,0.069-0.39,0.21-0.53c0.29-0.28,0.79-0.28,1.06,0c0.15,0.141,0.23,0.33,0.23,0.53s-0.08,0.39-0.221,0.53
								C28.43,36.8,28.229,36.88,28.04,36.88z"/>
						</g>
						<g>
							<path fill="#2D346A" d="M29.6,44.05c-0.25-0.34-0.17-0.81,0.16-1.05l0,0c0.34-0.24,0.8-0.17,1.05,0.16l0,0
								c0.25,0.34,0.17,0.81-0.16,1.05l0,0c-0.14,0.1-0.29,0.149-0.439,0.149l0,0C29.97,44.359,29.75,44.25,29.6,44.05z M28.21,41.6
								L28.21,41.6c-0.16-0.38,0.02-0.819,0.399-0.979l0,0c0.381-0.17,0.82,0.01,0.98,0.399l0,0c0.16,0.38-0.021,0.82-0.4,0.98l0,0
								c-0.09,0.04-0.189,0.06-0.29,0.06l0,0C28.609,42.06,28.33,41.89,28.21,41.6z M27.42,38.899c-0.07-0.409,0.21-0.8,0.62-0.869
								l0,0c0.399-0.07,0.79,0.21,0.859,0.609l0,0c0,0,0,0,0,0.01l0,0c0.07,0.4-0.21,0.79-0.609,0.86l0,0
								c-0.05,0.01-0.09,0.01-0.13,0.01l0,0C27.8,39.52,27.479,39.26,27.42,38.899z"/>
						</g>
						<g>
							<path fill="#2D346A" d="M32,46.3c-0.2,0-0.391-0.08-0.53-0.22c-0.14-0.141-0.22-0.33-0.22-0.53c0-0.19,0.08-0.39,0.22-0.53
								c0.28-0.279,0.78-0.279,1.061,0c0.14,0.141,0.22,0.33,0.22,0.53s-0.08,0.39-0.22,0.53C32.39,46.22,32.2,46.3,32,46.3z"/>
						</g>
						<g>
							<path fill="#2D346A" d="M33.35,44.22c-0.33-0.25-0.41-0.72-0.16-1.05l0,0l0,0l0,0c0.24-0.34,0.71-0.41,1.04-0.17l0,0
								c0.34,0.25,0.41,0.72,0.17,1.05l0,0c-0.149,0.2-0.38,0.31-0.609,0.31l0,0C33.64,44.359,33.479,44.31,33.35,44.22z M34.8,42
								c-0.38-0.16-0.56-0.601-0.39-0.98l0,0c0.159-0.38,0.6-0.56,0.979-0.399l0,0c0.38,0.16,0.561,0.6,0.4,0.979l0,0
								c-0.12,0.29-0.4,0.46-0.69,0.46l0,0C35,42.06,34.899,42.04,34.8,42z M35.71,39.51c-0.41-0.07-0.68-0.45-0.61-0.86l0,0
								c0.07-0.409,0.46-0.689,0.86-0.619l0,0c0.41,0.069,0.689,0.46,0.62,0.869l0,0c-0.061,0.36-0.38,0.62-0.74,0.62l0,0
								C35.8,39.52,35.75,39.52,35.71,39.51z"/>
						</g>
					</g>
					<g>
						<path fill="#2D346A" d="M43.465,26.812c-0.016,0-0.031,0-0.047-0.001c-0.414-0.026-0.729-0.382-0.703-0.795l0.012-0.176
							c0.012-0.164,0.023-0.328,0.023-0.494c0-5.928-4.822-10.75-10.75-10.75s-10.75,4.822-10.75,10.75
							c0,0.166,0.012,0.33,0.023,0.494l0.012,0.176c0.025,0.413-0.289,0.769-0.703,0.795c-0.415,0.026-0.769-0.288-0.795-0.703
							l-0.011-0.165c-0.014-0.197-0.026-0.396-0.026-0.597c0-6.755,5.495-12.25,12.25-12.25s12.25,5.495,12.25,12.25
							c0,0.201-0.013,0.399-0.026,0.597l-0.011,0.165C44.188,26.506,43.857,26.812,43.465,26.812z"/>
					</g>
					<g>
						<g>
							<path fill="#2D346A" d="M28.04,36.88c-0.2,0-0.4-0.08-0.54-0.22c-0.141-0.141-0.21-0.341-0.21-0.53
								c0-0.2,0.069-0.39,0.21-0.53c0.29-0.28,0.79-0.28,1.06,0c0.15,0.141,0.23,0.33,0.23,0.53s-0.08,0.39-0.221,0.53
								C28.43,36.8,28.229,36.88,28.04,36.88z"/>
						</g>
						<g>
							<path fill="#2D346A" d="M28.38,33.85c-0.39-0.13-0.6-0.56-0.47-0.95l0,0l0,0l0,0c0.14-0.39,0.56-0.6,0.949-0.47l0,0
								c0.4,0.13,0.61,0.561,0.471,0.95l0,0c-0.101,0.31-0.391,0.51-0.71,0.51l0,0C28.54,33.89,28.46,33.88,28.38,33.85z
								 M29.56,31.04c-0.35-0.24-0.439-0.7-0.2-1.05l0,0c0.23-0.341,0.7-0.431,1.04-0.2l0,0c0.341,0.229,0.431,0.7,0.2,1.04l0,0
								c-0.149,0.22-0.38,0.34-0.62,0.34l0,0C29.83,31.17,29.689,31.12,29.56,31.04z"/>
						</g>
						<g>
							<path fill="#2D346A" d="M32,28.89c-0.2,0-0.391-0.08-0.53-0.22s-0.22-0.34-0.22-0.53c0-0.2,0.08-0.39,0.22-0.53
								c0.28-0.279,0.78-0.279,1.061,0c0.14,0.141,0.22,0.33,0.22,0.53c0,0.19-0.08,0.391-0.22,0.53
								C32.39,28.81,32.2,28.89,32,28.89z"/>
						</g>
						<g>
							<path fill="#2D346A" d="M29.13,27.149L29.13,27.149L29.13,27.149c-0.38-0.18-0.53-0.63-0.35-1l0,0
								c0.17-0.38,0.619-0.54,1-0.35l0,0c0.369,0.17,0.529,0.62,0.35,1l0,0c-0.13,0.26-0.4,0.42-0.68,0.42l0,0
								C29.34,27.22,29.229,27.2,29.13,27.149z M26.42,26.27c-0.41-0.08-0.68-0.47-0.601-0.87l0,0c0.07-0.409,0.461-0.68,0.87-0.609
								l0,0c0.41,0.069,0.681,0.47,0.61,0.87l0,0c-0.07,0.37-0.39,0.62-0.74,0.62l0,0C26.51,26.28,26.47,26.27,26.42,26.27z
								 M22.77,25.46c-0.04-0.42,0.261-0.78,0.681-0.82l0,0c0.409-0.04,0.77,0.271,0.81,0.68l0,0c0.04,0.41-0.27,0.78-0.68,0.82l0,0
								c-0.021,0-0.04,0-0.061,0l0,0C23.13,26.14,22.8,25.85,22.77,25.46z"/>
						</g>
						<g>
							<path fill="#2D346A" d="M20.54,26.81c-0.2,0-0.391-0.08-0.54-0.22c-0.13-0.14-0.21-0.33-0.21-0.53s0.08-0.39,0.21-0.529
								c0.28-0.28,0.78-0.28,1.06,0c0.15,0.14,0.23,0.34,0.23,0.529c0,0.2-0.08,0.391-0.221,0.53
								C20.92,26.729,20.729,26.81,20.54,26.81z"/>
						</g>
						<g>
							<path fill="#2D346A" d="M24.67,35.149c-0.33-0.25-0.4-0.72-0.15-1.05l0,0c0.25-0.33,0.721-0.399,1.05-0.149l0,0
								c0.33,0.239,0.4,0.72,0.16,1.05l0,0c-0.149,0.189-0.38,0.3-0.609,0.3l0,0C24.97,35.3,24.81,35.25,24.67,35.149z
								 M22.189,32.66c-0.25-0.341-0.18-0.811,0.15-1.051l0,0c0.33-0.25,0.8-0.18,1.05,0.15l0,0c0.25,0.33,0.18,0.8-0.149,1.05l0,0
								c-0.141,0.101-0.301,0.15-0.45,0.15l0,0C22.56,32.96,22.33,32.85,22.189,32.66z M20.51,29.56L20.51,29.56
								c-0.14-0.39,0.05-0.819,0.44-0.96l0,0c0.39-0.14,0.83,0.05,0.97,0.44l0,0c0,0,0,0,0,0.01l0,0c0.14,0.38-0.061,0.81-0.45,0.96
								l0,0c-0.08,0.03-0.17,0.04-0.26,0.04l0,0C20.91,30.05,20.62,29.859,20.51,29.56z"/>
						</g>
					</g>
					<g>
						<g>
							<path fill="#2D346A" d="M32,28.89c-0.2,0-0.391-0.08-0.53-0.22s-0.22-0.34-0.22-0.53c0-0.2,0.08-0.39,0.22-0.53
								c0.28-0.279,0.78-0.279,1.061,0c0.14,0.141,0.22,0.33,0.22,0.53c0,0.19-0.08,0.391-0.22,0.53
								C32.39,28.81,32.2,28.89,32,28.89z"/>
						</g>
						<g>
							<path fill="#2D346A" d="M34.67,33.38c-0.14-0.39,0.07-0.82,0.46-0.95l0,0c0.4-0.13,0.82,0.08,0.96,0.47l0,0
								c0.13,0.391-0.08,0.82-0.47,0.95l0,0c-0.08,0.03-0.16,0.04-0.24,0.04l0,0C35.06,33.89,34.77,33.689,34.67,33.38z
								 M33.399,30.83L33.399,30.83c-0.229-0.34-0.14-0.8,0.2-1.04l0,0c0.34-0.23,0.811-0.141,1.04,0.21l0,0c0,0,0,0,0.01,0l0,0
								c0.221,0.34,0.141,0.81-0.21,1.04l0,0c-0.13,0.08-0.27,0.12-0.42,0.12l0,0C33.78,31.16,33.55,31.05,33.399,30.83z"/>
						</g>
						<g>
							<path fill="#2D346A" d="M35.96,36.88c-0.19,0-0.38-0.08-0.53-0.22c-0.14-0.141-0.22-0.341-0.22-0.53
								c0-0.2,0.08-0.39,0.22-0.53c0.3-0.29,0.79-0.28,1.061,0c0.149,0.141,0.22,0.34,0.22,0.53c0,0.189-0.07,0.39-0.21,0.53
								C36.359,36.8,36.16,36.88,35.96,36.88z"/>
						</g>
						<g>
							<path fill="#2D346A" d="M38.27,35c-0.25-0.33-0.18-0.8,0.15-1.05l0,0l0,0l0,0c0.34-0.25,0.81-0.181,1.05,0.149l0,0
								c0.25,0.33,0.18,0.8-0.15,1.05l0,0c-0.13,0.101-0.289,0.15-0.449,0.15l0,0C38.64,35.3,38.42,35.2,38.27,35z M40.76,32.81
								c-0.33-0.25-0.4-0.71-0.15-1.05l0,0c0.25-0.33,0.721-0.4,1.051-0.15l0,0c0.33,0.25,0.399,0.721,0.149,1.051l0,0
								c-0.149,0.199-0.37,0.3-0.6,0.3l0,0C41.05,32.96,40.899,32.91,40.76,32.81z M42.53,30.01c-0.391-0.14-0.591-0.57-0.45-0.96
								l0,0l0,0l0,0c0.14-0.39,0.569-0.59,0.96-0.45l0,0c0.39,0.141,0.59,0.58,0.45,0.97l0,0c-0.12,0.301-0.4,0.49-0.71,0.49l0,0
								C42.7,30.06,42.609,30.04,42.53,30.01z"/>
						</g>
						<g>
							<path fill="#2D346A" d="M43.46,26.81c-0.19,0-0.391-0.08-0.53-0.22s-0.22-0.33-0.22-0.53c0-0.189,0.08-0.39,0.22-0.529
								c0.28-0.28,0.79-0.28,1.061,0c0.14,0.14,0.22,0.34,0.22,0.529c0,0.2-0.08,0.391-0.21,0.53
								C43.85,26.729,43.66,26.81,43.46,26.81z"/>
						</g>
						<g>
							<path fill="#2D346A" d="M33.88,26.79c-0.19-0.37-0.03-0.82,0.35-1l0,0c0.37-0.181,0.82-0.021,1,0.35l0,0
								c0.181,0.38,0.021,0.82-0.35,1l0,0c-0.11,0.05-0.22,0.08-0.33,0.08l0,0C34.27,27.22,34,27.06,33.88,26.79z M36.71,25.66
								c-0.07-0.4,0.2-0.801,0.6-0.87l0,0c0.41-0.07,0.8,0.2,0.88,0.609l0,0c0.07,0.4-0.199,0.79-0.609,0.87l0,0l0,0l0,0
								c-0.04,0-0.09,0.011-0.13,0.011l0,0C37.09,26.28,36.78,26.02,36.71,25.66z M40.42,26.14c-0.41-0.04-0.71-0.399-0.68-0.82l0,0
								c0.04-0.409,0.409-0.72,0.819-0.68l0,0c0.41,0.04,0.71,0.4,0.681,0.82l0,0c-0.04,0.39-0.37,0.68-0.75,0.68l0,0
								C40.47,26.14,40.45,26.14,40.42,26.14z"/>
						</g>
					</g>
				</g>
			</g>
			<g>
				<path fill="#E4C95C" d="M50.4,22.948c0.002-0.201,0.071-1.202,1.2-1.202c0.002,0,0.002,0,0.003,0c0.001,0,0.003,0,0.005,0h0
					c0.001,0,0.001,0,0.001,0h0.001c0,0,0.001,0,0.001,0c0.215-0.006,0.388-0.183,0.388-0.4c0-0.22-0.178-0.399-0.398-0.4
					c-0.201-0.002-1.202-0.072-1.202-1.2c0-0.221-0.179-0.4-0.4-0.4c-0.221,0-0.4,0.179-0.4,0.4c0,1.128-1.001,1.198-1.202,1.2
					c-0.22,0.001-0.398,0.18-0.398,0.4c0,0.221,0.179,0.4,0.4,0.4c1.129,0,1.198,1.002,1.2,1.2c0,0.001,0,0.002,0,0.002
					c0,0.003,0.001,0.006,0,0.006v0.001v0.001c0,0,0,0.001,0,0.002c0.006,0.215,0.183,0.388,0.4,0.388
					C50.22,23.346,50.399,23.168,50.4,22.948z"/>
			</g>
			<g>
				<path fill="#E4C95C" d="M12.505,26.794c0.001-0.101,0.036-0.601,0.6-0.601h0.001h0.002h0h0.001h0h0
					c0.108-0.003,0.195-0.091,0.195-0.2c0-0.11-0.089-0.199-0.199-0.2c-0.101-0.001-0.601-0.036-0.601-0.6c0-0.111-0.09-0.2-0.2-0.2
					c-0.111,0-0.2,0.09-0.2,0.2c0,0.564-0.5,0.599-0.601,0.6c-0.11,0.001-0.199,0.09-0.199,0.2c0,0.111,0.089,0.2,0.2,0.2
					c0.565,0,0.599,0.501,0.6,0.6c0,0.001,0,0.001,0,0.001l0.001,0.003c-0.001,0-0.001,0-0.001,0v0.001v0.001
					c0.003,0.108,0.091,0.194,0.2,0.194C12.415,26.993,12.505,26.904,12.505,26.794z"/>
			</g>
			<g>
				<path fill="#E4C95C" d="M36.615,9.872c0.001-0.101,0.036-0.601,0.6-0.601h0.001h0.002h0h0.001h0.001h0
					c0.108-0.003,0.194-0.091,0.194-0.2c0-0.11-0.089-0.199-0.199-0.2c-0.101-0.001-0.601-0.036-0.601-0.6
					c0-0.111-0.089-0.2-0.2-0.2c-0.111,0-0.2,0.09-0.2,0.2c0,0.564-0.5,0.599-0.601,0.6c-0.11,0.001-0.199,0.09-0.199,0.2
					c0,0.111,0.089,0.2,0.2,0.2c0.565,0,0.599,0.501,0.6,0.6c0,0.001,0,0.001,0,0.001c0,0.001,0.001,0.003,0.001,0.003l-0.001,0
					v0.001v0.001c0.003,0.108,0.091,0.194,0.2,0.194C36.525,10.071,36.614,9.982,36.615,9.872z"/>
			</g>
			<g>
				<path fill="#FFFFFF" d="M1.2,40.879c0.001-0.101,0.036-0.601,0.6-0.601h0.001h0.002h0h0.001h0.001h0
					C1.913,40.275,2,40.187,2,40.078c0-0.11-0.089-0.199-0.199-0.2C1.7,39.877,1.2,39.842,1.2,39.278c0-0.111-0.089-0.2-0.2-0.2
					c-0.111,0-0.2,0.089-0.2,0.2c0,0.564-0.5,0.599-0.601,0.6C0.089,39.879,0,39.968,0,40.078c0,0.111,0.089,0.2,0.2,0.2
					c0.565,0,0.599,0.501,0.6,0.6v0.001c0,0.001,0.001,0.003,0.001,0.003c-0.001,0-0.001,0-0.001,0v0.001v0.001
					c0.003,0.108,0.091,0.194,0.2,0.194C1.11,41.078,1.199,40.989,1.2,40.879z"/>
			</g>
			<g>
				<path fill="#FFFFFF" d="M57.7,48.946c0.001-0.101,0.036-0.601,0.6-0.601h0.001h0.002h0h0.001h0.001h0
					c0.108-0.003,0.194-0.091,0.194-0.2c0-0.11-0.089-0.199-0.199-0.2c-0.101-0.001-0.601-0.036-0.601-0.6
					c0-0.111-0.089-0.2-0.2-0.2c-0.111,0-0.2,0.089-0.2,0.2c0,0.564-0.5,0.599-0.601,0.6c-0.11,0.001-0.199,0.09-0.199,0.2
					c0,0.111,0.09,0.2,0.2,0.2c0.565,0,0.599,0.501,0.6,0.6c0,0.001,0,0.001,0,0.001c0,0.001,0.001,0.003,0.001,0.003
					c-0.001,0-0.001,0-0.001,0v0.001v0.001c0.003,0.108,0.091,0.194,0.2,0.194C57.61,49.145,57.699,49.056,57.7,48.946z"/>
			</g>
			<g>
				<path fill="#FFFFFF" d="M63.2,27.319c0.001-0.101,0.036-0.601,0.6-0.601h0.001h0.002h0h0.001h0.001h0
					c0.108-0.003,0.194-0.091,0.194-0.2c0-0.11-0.089-0.199-0.199-0.2c-0.101-0.001-0.601-0.036-0.601-0.6
					c0-0.111-0.089-0.2-0.2-0.2c-0.111,0-0.2,0.089-0.2,0.2c0,0.564-0.5,0.599-0.601,0.6c-0.11,0.001-0.199,0.09-0.199,0.2
					c0,0.111,0.09,0.2,0.2,0.2c0.565,0,0.599,0.501,0.6,0.6c0,0.001,0,0.001,0,0.001c0,0.001,0.001,0.003,0.001,0.003
					c-0.001,0-0.001,0-0.001,0v0.001v0.001c0.003,0.108,0.091,0.194,0.2,0.194C63.11,27.518,63.199,27.429,63.2,27.319z"/>
			</g>
			<g>
				<path fill="#FFFFFF" d="M5.9,12.673c0.002-0.201,0.071-1.202,1.2-1.202c0.002,0,0.002,0,0.003,0c0.002,0,0.003,0,0.005,0h0
					c0.001,0,0.001,0,0.001,0H7.11c0,0,0.001,0,0.002,0c0.215-0.006,0.388-0.183,0.388-0.4c0-0.22-0.178-0.399-0.398-0.4
					C6.901,10.669,5.9,10.599,5.9,9.471c0-0.221-0.179-0.4-0.4-0.4c-0.221,0-0.4,0.179-0.4,0.4c0,1.128-1.001,1.198-1.202,1.2
					c-0.22,0.001-0.398,0.18-0.398,0.4c0,0.221,0.179,0.4,0.4,0.4c1.129,0,1.198,1.002,1.2,1.2c0,0.002,0,0.002,0,0.002
					c0,0.003,0.001,0.006,0,0.006v0.001v0.001c0,0,0,0.001,0,0.001c0.006,0.215,0.183,0.388,0.4,0.388
					C5.72,13.071,5.899,12.893,5.9,12.673z"/>
			</g>
		</g>
	</g>
</g>
</svg>
