<?xml version="1.0" encoding="utf-8"?>
<!-- Generator: Adobe Illustrator 17.0.0, SVG Export Plug-In . SVG Version: 6.00 Build 0)  -->
<!DOCTYPE svg PUBLIC "-//W3C//DTD SVG 1.1//EN" "http://www.w3.org/Graphics/SVG/1.1/DTD/svg11.dtd">
<svg version="1.1" xmlns="http://www.w3.org/2000/svg" xmlns:xlink="http://www.w3.org/1999/xlink" x="0px" y="0px" width="64px"
	 height="64px" viewBox="0 0 64 64" enable-background="new 0 0 64 64" xml:space="preserve">
<g id="Layer_4">
</g>
<g id="Layer_3">
</g>
<g id="Layer_2">
</g>
<g id="Layer_1">
</g>
<g id="Layer_5">
	<g>
		<g>
			<g>
				<g>
					<g>
						<path fill="#FBFFFF" d="M59.5,31.287c0-15.188-12.312-27.5-27.5-27.5S4.5,16.099,4.5,31.287
							c0,9.396,4.715,17.687,11.905,22.647h31.191C54.785,48.973,59.5,40.682,59.5,31.287z"/>
					</g>
				</g>
				<g>
					<path fill="#2D346A" d="M49.794,54.684H14.206c-0.414,0-0.75-0.336-0.75-0.75s0.336-0.75,0.75-0.75h35.588
						c0.414,0,0.75,0.336,0.75,0.75S50.208,54.684,49.794,54.684z"/>
				</g>
				<g>
					<path fill="#FFFFFF" d="M43.625,57.919h-23.25c-0.414,0-0.75-0.336-0.75-0.75s0.336-0.75,0.75-0.75h23.25
						c0.414,0,0.75,0.336,0.75,0.75S44.039,57.919,43.625,57.919z"/>
				</g>
				<g>
					<path fill="#FFFFFF" d="M32.313,61.154h-4.672c-0.414,0-0.75-0.336-0.75-0.75s0.336-0.75,0.75-0.75h4.672
						c0.414,0,0.75,0.336,0.75,0.75S32.728,61.154,32.313,61.154z"/>
				</g>
				<g>
					<path fill="#FFFFFF" d="M36.415,61.154h-1.249c-0.414,0-0.75-0.336-0.75-0.75s0.336-0.75,0.75-0.75h1.249
						c0.414,0,0.75,0.336,0.75,0.75S36.829,61.154,36.415,61.154z"/>
				</g>
			</g>
			<g>
				<g>
					<path fill="#E8F3FF" d="M42.939,25.828c-5.077-5.077-10.854-7.53-12.905-5.48l-14.51,14.51l18.385,18.498l14.511-14.624
						C50.47,36.682,48.016,30.905,42.939,25.828z"/>
				</g>
				<g>
					
						<ellipse transform="matrix(-0.7071 -0.7071 0.7071 -0.7071 11.0451 92.6765)" fill="#C3CCE9" cx="24.717" cy="44.051" rx="13" ry="5.25"/>
				</g>
				<g>
					<path fill="#2D346A" d="M31.837,54.72c-2.966,0-7.289-2.353-11.363-6.427c-2.522-2.521-4.501-5.3-5.573-7.824
						c-1.163-2.737-1.13-4.919,0.092-6.141c0.293-0.293,0.768-0.293,1.061,0s0.293,0.768,0,1.061
						c-0.75,0.75-0.667,2.388,0.228,4.494c0.999,2.351,2.864,4.961,5.253,7.35c5.104,5.104,10.338,6.986,11.844,5.48
						c0.293-0.293,0.768-0.293,1.061,0s0.293,0.768,0,1.061C33.798,54.414,32.905,54.72,31.837,54.72z"/>
				</g>
				<g>
					<path fill="#2D346A" d="M33.909,53.993c-0.192,0-0.384-0.073-0.53-0.22c-0.293-0.293-0.293-0.768,0-1.061
						c0.334-0.335,0.504-0.848,0.504-1.524c0-0.456-0.078-0.975-0.231-1.543c-0.108-0.399,0.129-0.812,0.529-0.919
						c0.399-0.114,0.811,0.128,0.919,0.528c0.188,0.695,0.283,1.346,0.283,1.934c0,1.089-0.317,1.959-0.944,2.585
						C34.292,53.92,34.101,53.993,33.909,53.993z M32.756,46.556c-0.256,0-0.505-0.131-0.646-0.367
						c-0.622-1.047-1.378-2.111-2.248-3.162c-0.264-0.319-0.219-0.792,0.1-1.057c0.319-0.263,0.792-0.219,1.056,0.1
						c0.919,1.111,1.72,2.239,2.382,3.354c0.211,0.356,0.094,0.816-0.262,1.027C33.018,46.521,32.886,46.556,32.756,46.556z
						 M27.702,40.385c-0.184,0-0.369-0.067-0.514-0.203c-0.976-0.917-1.988-1.75-3.007-2.478c-0.337-0.24-0.416-0.708-0.176-1.046
						s0.709-0.416,1.046-0.175c1.075,0.766,2.139,1.642,3.165,2.604c0.302,0.284,0.316,0.759,0.033,1.061
						C28.101,40.306,27.902,40.385,27.702,40.385z M21.171,35.821c-0.104,0-0.208-0.021-0.309-0.066
						c-1.356-0.615-2.564-0.914-3.501-0.863c-0.423,0.027-0.768-0.293-0.792-0.706c-0.024-0.414,0.292-0.769,0.706-0.792
						c1.184-0.069,2.605,0.27,4.206,0.994c0.377,0.172,0.544,0.616,0.374,0.993C21.729,35.657,21.457,35.821,21.171,35.821z"/>
				</g>
				<g>
					<path fill="#2D346A" d="M48.419,39.482c-0.192,0-0.384-0.073-0.53-0.22c-0.293-0.293-0.293-0.768,0-1.061
						c0.75-0.75,0.667-2.388-0.228-4.493c-0.998-2.351-2.864-4.961-5.252-7.351c-5.104-5.104-10.337-6.982-11.844-5.48
						c-0.293,0.293-0.768,0.293-1.061,0s-0.293-0.768,0-1.061c2.417-2.418,8.422-0.062,13.965,5.48
						c2.522,2.522,4.501,5.301,5.573,7.824c1.163,2.738,1.129,4.919-0.093,6.141C48.803,39.409,48.611,39.482,48.419,39.482z"/>
				</g>
				<g>
					<path fill="#2D346A" d="M33.909,54.106c-0.191,0-0.382-0.072-0.528-0.217c-0.294-0.292-0.296-0.767-0.005-1.062l12.389-12.502
						c0.292-0.294,0.767-0.295,1.061-0.005c0.294,0.292,0.296,0.767,0.005,1.062L34.441,53.885
						C34.295,54.032,34.102,54.106,33.909,54.106z"/>
				</g>
				<g>
					<path fill="#2D346A" d="M15.524,35.608c-0.192,0-0.384-0.073-0.53-0.22c-0.293-0.293-0.293-0.768,0-1.061l14.511-14.511
						c0.293-0.293,0.768-0.293,1.061,0s0.293,0.768,0,1.061L16.054,35.389C15.908,35.535,15.716,35.608,15.524,35.608z"/>
				</g>
			</g>
			<g>
				<path fill="#FFFFFF" d="M1.2,45.856c0.001-0.101,0.036-0.601,0.6-0.601h0.001h0.002h0h0.001h0.001h0
					C1.914,45.252,2,45.164,2,45.055c0-0.11-0.089-0.199-0.199-0.2C1.7,44.854,1.2,44.819,1.2,44.255c0-0.111-0.089-0.2-0.2-0.2
					c-0.11,0-0.2,0.09-0.2,0.2c0,0.564-0.5,0.599-0.601,0.6C0.089,44.856,0,44.945,0,45.055c0,0.111,0.09,0.2,0.2,0.2
					c0.565,0,0.599,0.501,0.6,0.6v0.001c0,0.001,0.001,0.003,0.001,0.003c-0.001,0-0.001,0-0.001,0v0.001v0.001
					c0.003,0.108,0.091,0.194,0.2,0.194C1.11,46.055,1.199,45.966,1.2,45.856z"/>
			</g>
			<g>
				<path fill="#FFFFFF" d="M63.2,20.213c0.001-0.101,0.036-0.601,0.6-0.601h0.001h0.002h0h0.001h0.001h0
					c0.108-0.003,0.194-0.091,0.194-0.2c0-0.11-0.089-0.199-0.199-0.2c-0.101-0.001-0.601-0.036-0.601-0.6
					c0-0.111-0.089-0.2-0.2-0.2c-0.111,0-0.2,0.089-0.2,0.2c0,0.564-0.5,0.599-0.601,0.6c-0.11,0.001-0.199,0.09-0.199,0.2
					c0,0.111,0.09,0.2,0.2,0.2c0.565,0,0.599,0.501,0.6,0.6v0.001c0,0.001,0.001,0.003,0.001,0.003c-0.001,0-0.001,0-0.001,0
					s0,0,0,0.001v0.001c0.003,0.108,0.091,0.194,0.2,0.194C63.11,20.412,63.199,20.323,63.2,20.213z"/>
			</g>
			<g>
				<path fill="#E4C95C" d="M19.575,18.152c0.001-0.101,0.036-0.601,0.6-0.601h0.001h0.002h0h0.001h0.001h0
					c0.108-0.003,0.194-0.091,0.194-0.2c0-0.11-0.089-0.199-0.199-0.2c-0.101-0.001-0.601-0.036-0.601-0.6c0-0.11-0.089-0.2-0.2-0.2
					c-0.111,0-0.2,0.09-0.2,0.2c0,0.564-0.5,0.599-0.601,0.6c-0.11,0.001-0.199,0.09-0.199,0.2c0,0.111,0.09,0.2,0.2,0.2
					c0.565,0,0.599,0.501,0.6,0.6v0.001c0,0.001,0.001,0.003,0.001,0.003c-0.001,0-0.001,0-0.001,0v0.001v0.001
					c0.003,0.108,0.091,0.194,0.2,0.194C19.485,18.351,19.574,18.262,19.575,18.152z"/>
			</g>
			<g>
				<path fill="#E4C95C" d="M42.265,15.198c0.002-0.201,0.072-1.202,1.2-1.202c0.001,0,0.002,0,0.002,0c0.002,0,0.004,0,0.006,0h0
					h0.001h0.001h0.002c0.215-0.006,0.388-0.183,0.388-0.4c0-0.22-0.178-0.399-0.398-0.4c-0.201-0.002-1.202-0.071-1.202-1.2
					c0-0.221-0.179-0.4-0.4-0.4s-0.4,0.179-0.4,0.4c0,1.129-1.001,1.198-1.202,1.2c-0.22,0.001-0.398,0.18-0.398,0.4
					c0,0.221,0.179,0.4,0.4,0.4c1.129,0,1.198,1.002,1.2,1.2c0,0.002,0,0.002,0,0.003c0,0.002,0.001,0.005,0,0.005
					c0,0.001,0,0.001,0,0.001v0.001c0,0,0,0.001,0,0.002c0.006,0.215,0.183,0.388,0.4,0.388
					C42.085,15.596,42.264,15.417,42.265,15.198z"/>
			</g>
			<g>
				<path fill="#FFFFFF" d="M58.9,52.536c0.002-0.201,0.071-1.202,1.2-1.202c0.002,0,0.002,0,0.002,0c0.002,0,0.004,0,0.005,0h0
					c0.001,0,0.001,0,0.001,0h0.001c0,0,0.001,0,0.001,0c0.215-0.006,0.388-0.183,0.388-0.4c0-0.22-0.178-0.399-0.398-0.4
					c-0.201-0.002-1.202-0.072-1.202-1.2c0-0.221-0.179-0.4-0.4-0.4c-0.221,0-0.4,0.179-0.4,0.4c0,1.128-1.001,1.198-1.202,1.2
					c-0.22,0.001-0.398,0.18-0.398,0.4c0,0.221,0.179,0.4,0.4,0.4c1.129,0,1.198,1.002,1.2,1.2c0,0.002,0,0.002,0,0.003
					c0,0.002,0.001,0.006,0,0.005c0,0.001,0,0.001,0,0.001v0.001c0,0,0,0.001,0,0.002c0.006,0.215,0.183,0.388,0.4,0.388
					C58.72,52.934,58.899,52.756,58.9,52.536z"/>
			</g>
			<g>
				<path fill="#FFFFFF" d="M8.521,11.198c0.002-0.201,0.071-1.202,1.2-1.202c0.002,0,0.002,0,0.002,0c0.002,0,0.004,0,0.005,0h0
					c0.001,0,0.001,0,0.001,0h0.001c0,0,0.001,0,0.002,0c0.215-0.006,0.388-0.183,0.388-0.4c0-0.22-0.178-0.399-0.398-0.4
					c-0.201-0.002-1.202-0.071-1.202-1.2c0-0.221-0.179-0.4-0.4-0.4s-0.4,0.179-0.4,0.4c0,1.129-1.001,1.198-1.202,1.2
					c-0.22,0.001-0.398,0.18-0.398,0.4c0,0.221,0.179,0.4,0.4,0.4c1.129,0,1.198,1.002,1.2,1.2c0,0.002,0,0.002,0,0.003
					c0,0.002,0.001,0.005,0,0.005c0,0.001,0,0.001,0,0.001v0.001c0,0,0,0.001,0,0.002c0.006,0.215,0.183,0.388,0.4,0.388
					C8.342,11.596,8.52,11.417,8.521,11.198z"/>
			</g>
		</g>
	</g>
</g>
</svg>
