<?xml version="1.0" encoding="utf-8"?>
<!-- Generator: Adobe Illustrator 17.0.0, SVG Export Plug-In . SVG Version: 6.00 Build 0)  -->
<!DOCTYPE svg PUBLIC "-//W3C//DTD SVG 1.1//EN" "http://www.w3.org/Graphics/SVG/1.1/DTD/svg11.dtd">
<svg version="1.1" xmlns="http://www.w3.org/2000/svg" xmlns:xlink="http://www.w3.org/1999/xlink" x="0px" y="0px" width="64px"
	 height="64px" viewBox="0 0 64 64" enable-background="new 0 0 64 64" xml:space="preserve">
<g id="Layer_4">
</g>
<g id="Layer_3">
</g>
<g id="Layer_2">
</g>
<g id="Layer_1">
</g>
<g id="Layer_5">
	<g>
		<g>
			<g>
				<path fill="#FBE2CB" d="M59.5,31.191c0-15.188-12.312-27.5-27.5-27.5S4.5,16.003,4.5,31.191c0,9.396,4.715,17.687,11.905,22.647
					h31.191C54.785,48.878,59.5,40.587,59.5,31.191z"/>
			</g>
			
				<line fill="none" stroke="#2D346A" stroke-width="1.5" stroke-linecap="round" stroke-miterlimit="10" x1="11.206" y1="53.838" x2="52.794" y2="53.838"/>
			
				<line fill="none" stroke="#C3CCE9" stroke-width="1.5" stroke-linecap="round" stroke-linejoin="round" stroke-miterlimit="10" x1="17.375" y1="57.074" x2="46.625" y2="57.074"/>
			
				<line fill="none" stroke="#C3CCE9" stroke-width="1.5" stroke-linecap="round" stroke-linejoin="round" stroke-miterlimit="10" x1="25.641" y1="60.309" x2="32.314" y2="60.309"/>
			
				<line fill="none" stroke="#C3CCE9" stroke-width="1.5" stroke-linecap="round" stroke-linejoin="round" stroke-miterlimit="10" x1="35.166" y1="60.309" x2="38.415" y2="60.309"/>
		</g>
		<g>
			<polygon fill="#E8F3FF" points="32.628,16.75 15.65,53.838 49.606,53.838 			"/>
			<polygon fill="#C3CCE9" points="32.628,16.75 36.415,53.838 49.606,53.838 			"/>
			<g>
				<g>
					
						<line fill="none" stroke="#2D346A" stroke-width="1.5" stroke-linecap="round" stroke-linejoin="round" x1="32.628" y1="16.75" x2="32.831" y2="18.74"/>
					
						<line fill="none" stroke="#2D346A" stroke-width="1.5" stroke-linecap="round" stroke-linejoin="round" stroke-dasharray="3.6979,3.6979" x1="33.207" y1="22.418" x2="36.024" y2="50.009"/>
					
						<line fill="none" stroke="#2D346A" stroke-width="1.5" stroke-linecap="round" stroke-linejoin="round" x1="36.212" y1="51.849" x2="36.415" y2="53.838"/>
				</g>
			</g>
			
				<polyline fill="none" stroke="#2D346A" stroke-width="1.5" stroke-linecap="round" stroke-linejoin="round" stroke-miterlimit="10" points="
				41.578,36.302 32.628,16.75 15.65,53.838 49.606,53.838 43.024,39.459 			"/>
		</g>
		<path fill="#E4C95C" d="M62.4,47.125c0.002-0.201,0.071-1.202,1.2-1.202c0.002,0,0.002,0,0.003,0c0.002,0,0.003,0,0.005,0h0
			c0.001,0,0.001,0,0.001,0h0.001c0,0,0.001,0,0.002,0C63.827,45.917,64,45.74,64,45.523c0-0.22-0.178-0.399-0.398-0.4
			c-0.201-0.002-1.202-0.071-1.202-1.2c0-0.221-0.179-0.4-0.4-0.4s-0.4,0.179-0.4,0.4c0,1.129-1.001,1.198-1.202,1.2
			c-0.22,0.001-0.398,0.18-0.398,0.4c0,0.221,0.179,0.4,0.4,0.4c1.129,0,1.198,1.002,1.2,1.2c0,0.002,0,0.002,0,0.002
			c0,0.003,0.001,0.006,0,0.006v0.001v0.001c0,0,0,0.001,0,0.002c0.006,0.215,0.183,0.388,0.4,0.388
			C62.22,47.523,62.399,47.345,62.4,47.125z"/>
		<path fill="#E4C95C" d="M45.914,22.744c0.002-0.201,0.071-1.202,1.2-1.202c0.002,0,0.002,0,0.003,0c0.002,0,0.003,0,0.005,0h0
			c0.001,0,0.001,0,0.001,0h0.001c0,0,0.001,0,0.002,0c0.215-0.006,0.388-0.183,0.388-0.4c0-0.22-0.178-0.399-0.398-0.4
			c-0.201-0.002-1.202-0.071-1.202-1.2c0-0.221-0.179-0.4-0.4-0.4c-0.221,0-0.4,0.179-0.4,0.4c0,1.129-1.001,1.198-1.202,1.2
			c-0.22,0.001-0.398,0.18-0.398,0.4c0,0.221,0.179,0.4,0.4,0.4c1.129,0,1.198,1.002,1.2,1.2c0,0.002,0,0.002,0,0.002
			c0,0.003,0.001,0.006,0,0.006v0.001v0.001v0.002c0.006,0.215,0.183,0.388,0.4,0.388C45.734,23.142,45.913,22.964,45.914,22.744z"
			/>
		<path fill="#E4C95C" d="M1.2,39.347c0.001-0.101,0.036-0.601,0.6-0.601h0.001h0.002h0h0.001h0.001h0
			C1.913,38.743,2,38.655,2,38.546c0-0.11-0.089-0.199-0.199-0.2C1.7,38.345,1.2,38.31,1.2,37.746c0-0.111-0.089-0.2-0.2-0.2
			s-0.2,0.089-0.2,0.2c0,0.564-0.5,0.599-0.601,0.6C0.089,38.347,0,38.436,0,38.546c0,0.111,0.089,0.2,0.2,0.2
			c0.565,0,0.599,0.501,0.6,0.6c0,0.001,0,0.001,0,0.001c0,0.001,0.001,0.003,0.001,0.003c-0.001,0-0.001,0-0.001,0v0.001v0.001
			c0.003,0.108,0.091,0.194,0.2,0.194C1.11,39.546,1.199,39.457,1.2,39.347z"/>
		<path fill="#E4C95C" d="M7.101,12.701c0.002-0.201,0.071-1.202,1.2-1.202c0.002,0,0.002,0,0.003,0c0.002,0,0.003,0,0.005,0h0
			c0.001,0,0.001,0,0.001,0s0.001,0,0.001,0c0,0,0.001,0,0.002,0c0.215-0.006,0.388-0.183,0.388-0.4c0-0.22-0.178-0.399-0.398-0.4
			c-0.201-0.002-1.202-0.071-1.202-1.2c0-0.221-0.179-0.4-0.4-0.4s-0.4,0.179-0.4,0.4c0,1.129-1.001,1.198-1.202,1.2
			c-0.22,0.001-0.398,0.18-0.398,0.4c0,0.221,0.179,0.4,0.4,0.4c1.129,0,1.198,1.002,1.2,1.2c0,0.002,0,0.002,0,0.002
			c0,0.003,0.001,0.006,0,0.006v0.001c0,0,0,0.001,0,0.001v0.002c0.006,0.215,0.183,0.388,0.4,0.388
			C6.922,13.099,7.1,12.921,7.101,12.701z"/>
		<path fill="#E4C95C" d="M15.05,33.896c0.002-0.201,0.071-1.202,1.2-1.202c0.002,0,0.002,0,0.003,0c0.002,0,0.003,0,0.005,0h0
			h0.001h0.001c0,0,0.001,0,0.002,0c0.215-0.006,0.388-0.183,0.388-0.4c0-0.22-0.178-0.399-0.398-0.4
			c-0.201-0.002-1.202-0.071-1.202-1.2c0-0.221-0.179-0.4-0.4-0.4s-0.4,0.179-0.4,0.4c0,1.129-1.001,1.198-1.202,1.2
			c-0.22,0.001-0.398,0.18-0.398,0.4c0,0.221,0.179,0.4,0.4,0.4c1.129,0,1.198,1.002,1.2,1.2c0,0.002,0,0.002,0,0.002
			c0,0.003,0.001,0.006,0,0.006v0.001v0.001v0.002c0.006,0.215,0.183,0.388,0.4,0.388C14.87,34.294,15.049,34.116,15.05,33.896z"/>
		<path fill="#E4C95C" d="M58.2,11.301c0.001-0.101,0.036-0.601,0.6-0.601h0.001h0.002h0h0.001h0.001h0
			C58.913,10.697,59,10.609,59,10.5c0-0.11-0.089-0.199-0.199-0.2C58.7,10.299,58.2,10.264,58.2,9.7c0-0.111-0.089-0.2-0.2-0.2
			s-0.2,0.089-0.2,0.2c0,0.564-0.5,0.599-0.601,0.6C57.089,10.301,57,10.39,57,10.5c0,0.111,0.089,0.2,0.2,0.2
			c0.565,0,0.599,0.501,0.6,0.6c0,0.001,0,0.001,0,0.001c0,0.001,0.001,0.003,0.001,0.003c-0.001,0-0.001,0-0.001,0v0.001v0.001
			c0.003,0.108,0.091,0.194,0.2,0.194C58.11,11.5,58.199,11.411,58.2,11.301z"/>
		<path fill="#E4C95C" d="M22,18.943c0.001-0.101,0.036-0.601,0.6-0.601h0.001h0.002h0h0.001h0.001h0
			c0.108-0.003,0.195-0.091,0.195-0.2c0-0.11-0.089-0.199-0.199-0.2C22.5,17.94,22,17.906,22,17.342c0-0.111-0.089-0.2-0.2-0.2
			s-0.2,0.089-0.2,0.2c0,0.564-0.5,0.599-0.601,0.6c-0.11,0.001-0.199,0.09-0.199,0.2c0,0.111,0.089,0.2,0.2,0.2
			c0.565,0,0.599,0.501,0.6,0.6v0.001c0,0.001,0.001,0.003,0.001,0.003c-0.001,0-0.001,0-0.001,0v0.001v0.001
			c0.003,0.108,0.091,0.194,0.2,0.194C21.91,19.142,21.999,19.053,22,18.943z"/>
	</g>
</g>
</svg>
