<?xml version="1.0" encoding="utf-8"?>
<!-- Generator: Adobe Illustrator 17.0.0, SVG Export Plug-In . SVG Version: 6.00 Build 0)  -->
<!DOCTYPE svg PUBLIC "-//W3C//DTD SVG 1.1//EN" "http://www.w3.org/Graphics/SVG/1.1/DTD/svg11.dtd">
<svg version="1.1" xmlns="http://www.w3.org/2000/svg" xmlns:xlink="http://www.w3.org/1999/xlink" x="0px" y="0px" width="64px"
	 height="64px" viewBox="0 0 64 64" enable-background="new 0 0 64 64" xml:space="preserve">
<g id="Layer_4">
</g>
<g id="Layer_3">
</g>
<g id="Layer_2">
</g>
<g id="Layer_1">
</g>
<g id="Layer_5">
	<g>
		<g>
			<g>
				<g>
					<g>
						<path fill="#FBFFFF" d="M59.5,31.287c0-15.188-12.312-27.5-27.5-27.5S4.5,16.099,4.5,31.287
							c0,9.396,4.715,17.687,11.905,22.647h31.191C54.785,48.973,59.5,40.682,59.5,31.287z"/>
					</g>
				</g>
				<g>
					<path fill="#2D346A" d="M49.794,54.684H14.206c-0.414,0-0.75-0.336-0.75-0.75s0.336-0.75,0.75-0.75h35.588
						c0.414,0,0.75,0.336,0.75,0.75S50.208,54.684,49.794,54.684z"/>
				</g>
				<g>
					<path fill="#FFFFFF" d="M43.625,57.919h-23.25c-0.414,0-0.75-0.336-0.75-0.75s0.336-0.75,0.75-0.75h23.25
						c0.414,0,0.75,0.336,0.75,0.75S44.039,57.919,43.625,57.919z"/>
				</g>
				<g>
					<path fill="#FFFFFF" d="M32.313,61.154h-4.672c-0.414,0-0.75-0.336-0.75-0.75s0.336-0.75,0.75-0.75h4.672
						c0.414,0,0.75,0.336,0.75,0.75S32.728,61.154,32.313,61.154z"/>
				</g>
				<g>
					<path fill="#FFFFFF" d="M36.415,61.154h-1.249c-0.414,0-0.75-0.336-0.75-0.75s0.336-0.75,0.75-0.75h1.249
						c0.414,0,0.75,0.336,0.75,0.75S36.829,61.154,36.415,61.154z"/>
				</g>
			</g>
			<g>
				<g>
					<polygon fill="#E8F3FF" points="32,16.437 38.069,28.735 51.641,30.707 41.82,40.279 44.139,53.796 32,47.414 19.861,53.796 
						22.18,40.279 12.359,30.707 25.931,28.735 					"/>
				</g>
				<g>
					<path fill="#2D346A" d="M44.139,54.546c-0.119,0-0.239-0.028-0.349-0.086L32,48.262L20.21,54.46
						c-0.252,0.133-0.56,0.112-0.789-0.058c-0.231-0.168-0.347-0.452-0.299-0.733l2.252-13.128l-9.538-9.297
						c-0.204-0.199-0.278-0.497-0.189-0.769c0.088-0.271,0.322-0.47,0.605-0.511l13.181-1.916l5.895-11.943
						c0.254-0.512,1.092-0.512,1.346,0l6.069,12.297c0.183,0.371,0.03,0.821-0.341,1.005c-0.371,0.185-0.821,0.03-1.005-0.341
						L32,18.132l-5.396,10.935c-0.109,0.222-0.32,0.375-0.565,0.41L13.971,31.23l8.732,8.512c0.177,0.172,0.258,0.421,0.216,0.664
						l-2.062,12.019l10.794-5.675c0.217-0.115,0.48-0.115,0.697,0l10.794,5.675l-2.062-12.019c-0.042-0.243,0.039-0.492,0.216-0.664
						l8.732-8.512l-8.605-1.251c-0.41-0.06-0.694-0.44-0.635-0.85c0.061-0.411,0.45-0.688,0.85-0.635l10.109,1.47
						c0.283,0.041,0.518,0.239,0.605,0.511c0.089,0.271,0.015,0.569-0.189,0.769l-9.538,9.297l2.252,13.128
						c0.048,0.281-0.067,0.565-0.299,0.733C44.449,54.498,44.294,54.546,44.139,54.546z"/>
				</g>
			</g>
			<g>
				<path fill="#FFFFFF" d="M62.4,18.244c0.002-0.201,0.072-1.202,1.2-1.202c0.002,0,0.002,0,0.003,0c0.001,0,0.003,0,0.005,0h0
					c0.001,0,0.001,0,0.001,0h0.001c0,0,0.001,0,0.001,0c0.215-0.006,0.388-0.183,0.388-0.4c0-0.22-0.178-0.399-0.398-0.4
					c-0.201-0.002-1.202-0.072-1.202-1.2c0-0.221-0.179-0.4-0.4-0.4c-0.221,0-0.4,0.179-0.4,0.4c0,1.128-1.001,1.198-1.202,1.2
					c-0.22,0.001-0.398,0.18-0.398,0.4c0,0.221,0.179,0.4,0.4,0.4c1.129,0,1.198,1.002,1.2,1.2c0,0.001,0,0.002,0,0.002
					c0,0.003,0.001,0.006,0,0.006v0.001c0,0,0,0.001,0,0.001c0,0.001,0,0.001,0,0.002c0.006,0.215,0.183,0.388,0.4,0.388
					C62.22,18.642,62.399,18.464,62.4,18.244z"/>
			</g>
			<g>
				<path fill="#E4C95C" d="M50.995,44.447c0.002-0.201,0.071-1.202,1.2-1.202c0.002,0,0.002,0,0.003,0c0.002,0,0.003,0,0.005,0h0
					c0.001,0,0.001,0,0.001,0h0.001c0,0,0.001,0,0.002,0c0.215-0.006,0.388-0.183,0.388-0.4c0-0.22-0.178-0.399-0.398-0.4
					c-0.201-0.002-1.202-0.071-1.202-1.2c0-0.221-0.179-0.4-0.4-0.4s-0.4,0.179-0.4,0.4c0,1.129-1.001,1.198-1.202,1.2
					c-0.22,0.001-0.398,0.18-0.398,0.4c0,0.221,0.179,0.4,0.4,0.4c1.129,0,1.198,1.002,1.2,1.2c0,0.001,0,0.002,0,0.002
					c0,0.003,0.001,0.006,0,0.006v0.001v0.001c0,0,0,0.001,0,0.002c0.006,0.215,0.183,0.388,0.4,0.388
					C50.816,44.846,50.994,44.667,50.995,44.447z"/>
			</g>
			<g>
				<path fill="#E4C95C" d="M19.775,18.244c0.002-0.201,0.072-1.202,1.2-1.202c0.002,0,0.002,0,0.003,0c0.001,0,0.003,0,0.005,0h0
					c0.001,0,0.001,0,0.001,0h0.001c0,0,0.001,0,0.002,0c0.215-0.006,0.388-0.183,0.388-0.4c0-0.22-0.178-0.399-0.398-0.4
					c-0.201-0.002-1.202-0.072-1.202-1.2c0-0.221-0.179-0.4-0.4-0.4c-0.221,0-0.4,0.179-0.4,0.4c0,1.128-1.001,1.198-1.202,1.2
					c-0.22,0.001-0.398,0.18-0.398,0.4c0,0.221,0.179,0.4,0.4,0.4c1.129,0,1.198,1.002,1.2,1.2c0,0.001,0,0.002,0,0.002
					c0,0.003,0.001,0.006,0,0.006v0.001c0,0,0,0.001,0,0.001c0,0.001,0,0.001,0,0.002c0.006,0.215,0.183,0.388,0.4,0.388
					C19.595,18.642,19.774,18.464,19.775,18.244z"/>
			</g>
			<g>
				<path fill="#FFFFFF" d="M4.4,48.657c0.002-0.201,0.072-1.202,1.2-1.202c0.002,0,0.002,0,0.002,0c0.002,0,0.004,0,0.005,0h0
					c0.001,0,0.001,0,0.001,0H5.61c0,0,0.001,0,0.001,0C5.827,47.449,6,47.272,6,47.055c0-0.22-0.178-0.399-0.398-0.4
					c-0.201-0.002-1.202-0.071-1.202-1.2c0-0.221-0.179-0.4-0.4-0.4c-0.221,0-0.4,0.179-0.4,0.4c0,1.129-1.001,1.198-1.202,1.2
					C2.178,46.656,2,46.835,2,47.055c0,0.221,0.179,0.4,0.4,0.4c1.129,0,1.198,1.002,1.2,1.2c0,0.002,0,0.002,0,0.002
					c0,0.003,0.001,0.006,0,0.006c0,0.001,0,0.001,0,0.001v0.001v0.002c0.006,0.215,0.183,0.388,0.4,0.388
					C4.22,49.055,4.399,48.877,4.4,48.657z"/>
			</g>
			<g>
				<path fill="#FFFFFF" d="M1.2,19.443c0.001-0.101,0.036-0.601,0.6-0.601h0.001h0.002h0h0.001h0.001h0
					C1.913,18.839,2,18.75,2,18.642c0-0.11-0.089-0.199-0.199-0.2C1.7,18.441,1.2,18.406,1.2,17.842c0-0.111-0.089-0.2-0.2-0.2
					c-0.11,0-0.2,0.089-0.2,0.2c0,0.564-0.5,0.599-0.601,0.6c-0.11,0-0.199,0.09-0.199,0.2c0,0.111,0.089,0.2,0.2,0.2
					c0.565,0,0.599,0.501,0.6,0.6v0.001c0,0.001,0.001,0.003,0.001,0.003c-0.001,0-0.001,0-0.001,0v0.001v0.001
					c0.003,0.108,0.091,0.194,0.2,0.194C1.11,19.642,1.199,19.553,1.2,19.443z"/>
			</g>
			<g>
				<path fill="#E4C95C" d="M44.825,22.038c0.001-0.101,0.036-0.601,0.6-0.601c0.001,0,0.001,0,0.001,0c0.001,0,0.002,0,0.003,0h0
					h0.001h0.001c0,0,0,0,0.001,0c0.108-0.003,0.194-0.091,0.194-0.2c0-0.11-0.089-0.199-0.199-0.2
					c-0.101-0.001-0.601-0.036-0.601-0.6c0-0.111-0.089-0.2-0.2-0.2c-0.111,0-0.2,0.09-0.2,0.2c0,0.564-0.5,0.599-0.601,0.6
					c-0.11,0.001-0.199,0.09-0.199,0.2c0,0.111,0.09,0.2,0.2,0.2c0.565,0,0.599,0.501,0.6,0.6v0.001c0,0.001,0.001,0.003,0,0.003v0
					v0v0.001c0.003,0.108,0.091,0.194,0.2,0.194C44.735,22.237,44.824,22.148,44.825,22.038z"/>
			</g>
		</g>
	</g>
</g>
</svg>
