<?xml version="1.0" encoding="utf-8"?>
<!-- Generator: Adobe Illustrator 17.0.0, SVG Export Plug-In . SVG Version: 6.00 Build 0)  -->
<!DOCTYPE svg PUBLIC "-//W3C//DTD SVG 1.1//EN" "http://www.w3.org/Graphics/SVG/1.1/DTD/svg11.dtd">
<svg version="1.1" xmlns="http://www.w3.org/2000/svg" xmlns:xlink="http://www.w3.org/1999/xlink" x="0px" y="0px" width="64px"
	 height="64px" viewBox="0 0 64 64" enable-background="new 0 0 64 64" xml:space="preserve">
<g id="Layer_4">
</g>
<g id="Layer_3">
</g>
<g id="Layer_2">
</g>
<g id="Layer_1">
</g>
<g id="Layer_5">
	<g>
		<g>
			<g>
				<path fill="#FBE2CB" d="M59.5,31.191c0-15.188-12.312-27.5-27.5-27.5S4.5,16.003,4.5,31.191c0,9.396,4.715,17.687,11.905,22.647
					h31.191C54.785,48.878,59.5,40.587,59.5,31.191z"/>
			</g>
			
				<line fill="none" stroke="#2D346A" stroke-width="1.5" stroke-linecap="round" stroke-miterlimit="10" x1="10.206" y1="53.838" x2="53.794" y2="53.838"/>
			
				<line fill="none" stroke="#C3CCE9" stroke-width="1.5" stroke-linecap="round" stroke-linejoin="round" stroke-miterlimit="10" x1="20.375" y1="57.074" x2="43.625" y2="57.074"/>
			
				<line fill="none" stroke="#C3CCE9" stroke-width="1.5" stroke-linecap="round" stroke-linejoin="round" stroke-miterlimit="10" x1="27.641" y1="60.309" x2="32.314" y2="60.309"/>
			
				<line fill="none" stroke="#C3CCE9" stroke-width="1.5" stroke-linecap="round" stroke-linejoin="round" stroke-miterlimit="10" x1="35.166" y1="60.309" x2="36.415" y2="60.309"/>
		</g>
		<g>
			<g>
				<path fill="#E8F3FF" d="M39.5,15.716c-2.735,0-5.292,0.744-7.5,2.023c4.479,2.595,7.5,7.428,7.5,12.977
					c0,5.549-3.021,10.382-7.5,12.977c2.208,1.279,4.765,2.023,7.5,2.023c8.284,0,15-6.716,15-15
					C54.5,22.432,47.784,15.716,39.5,15.716z"/>
				<path fill="#E8F3FF" d="M24.5,30.716c0-5.549,3.021-10.382,7.5-12.977c-2.208-1.279-4.765-2.023-7.5-2.023
					c-8.284,0-15,6.716-15,15c0,8.284,6.716,15,15,15c2.735,0,5.292-0.744,7.5-2.023C27.521,41.098,24.5,36.265,24.5,30.716z"/>
				<path fill="#C3CCE9" d="M39.5,30.716c0-5.549-3.021-10.382-7.5-12.977c-4.479,2.595-7.5,7.428-7.5,12.977
					c0,5.549,3.021,10.382,7.5,12.977C36.479,41.098,39.5,36.265,39.5,30.716z"/>
			</g>
			<g>
				
					<path fill="none" stroke="#2D346A" stroke-width="1.5" stroke-linecap="round" stroke-linejoin="round" stroke-miterlimit="10" d="
					M50.107,20.109c-5.858-5.858-15.355-5.858-21.213,0s-5.858,15.355,0,21.213s15.355,5.858,21.213,0
					c4.702-4.702,5.63-11.75,2.783-17.378"/>
				
					<path fill="none" stroke="#2D346A" stroke-width="1.5" stroke-linecap="round" stroke-linejoin="round" stroke-miterlimit="10" d="
					M24.5,45.716c8.284,0,15-6.716,15-15s-6.716-15-15-15s-15,6.716-15,15c0,6.49,4.122,12.018,9.891,14.107"/>
				<line fill="none" stroke="#2D346A" stroke-width="1.5" stroke-miterlimit="10" x1="28.92" y1="20.087" x2="39.5" y2="30.667"/>
				
					<line fill="none" stroke="#2D346A" stroke-width="1.5" stroke-miterlimit="10" x1="25.842" y1="24.509" x2="38.188" y2="36.855"/>
				<line fill="none" stroke="#2D346A" stroke-width="1.5" stroke-miterlimit="10" x1="24.5" y1="30.716" x2="35.13" y2="41.297"/>
			</g>
		</g>
		<path fill="#E4C95C" d="M62.4,45.125c0.002-0.201,0.071-1.202,1.2-1.202c0.002,0,0.002,0,0.003,0c0.002,0,0.003,0,0.005,0h0
			c0.001,0,0.001,0,0.001,0h0.001c0,0,0.001,0,0.002,0C63.827,43.917,64,43.74,64,43.523c0-0.22-0.178-0.399-0.398-0.4
			c-0.201-0.002-1.202-0.071-1.202-1.2c0-0.221-0.179-0.4-0.4-0.4s-0.4,0.179-0.4,0.4c0,1.129-1.001,1.198-1.202,1.2
			c-0.22,0.001-0.398,0.18-0.398,0.4c0,0.221,0.179,0.4,0.4,0.4c1.129,0,1.198,1.002,1.2,1.2c0,0.002,0,0.002,0,0.002
			c0,0.003,0.001,0.006,0,0.006v0.001v0.001c0,0,0,0.001,0,0.002c0.006,0.215,0.183,0.388,0.4,0.388
			C62.22,45.523,62.399,45.345,62.4,45.125z"/>
		<path fill="#E4C95C" d="M4.9,49.223c0.002-0.201,0.071-1.202,1.2-1.202c0.002,0,0.002,0,0.003,0c0.002,0,0.003,0,0.005,0h0
			c0.001,0,0.001,0,0.001,0H6.11c0,0,0.001,0,0.002,0c0.215-0.006,0.388-0.183,0.388-0.4c0-0.22-0.178-0.399-0.398-0.4
			c-0.201-0.002-1.202-0.071-1.202-1.2c0-0.221-0.179-0.4-0.4-0.4s-0.4,0.179-0.4,0.4c0,1.129-1.001,1.198-1.202,1.2
			c-0.22,0.001-0.398,0.18-0.398,0.4c0,0.221,0.179,0.4,0.4,0.4c1.129,0,1.198,1.002,1.2,1.2c0,0.002,0,0.002,0,0.002
			c0,0.003,0.001,0.006,0,0.006v0.001v0.001c0,0,0,0.001,0,0.002c0.006,0.215,0.183,0.388,0.4,0.388
			C4.72,49.621,4.899,49.442,4.9,49.223z"/>
		<path fill="#E4C95C" d="M1.2,20.057c0.001-0.101,0.036-0.601,0.6-0.601h0.001h0.002h0h0.001h0.001h0
			C1.913,19.452,2,19.364,2,19.256c0-0.11-0.089-0.199-0.199-0.2C1.7,19.054,1.2,19.02,1.2,18.456c0-0.111-0.089-0.2-0.2-0.2
			s-0.2,0.089-0.2,0.2c0,0.564-0.5,0.599-0.601,0.6C0.089,19.056,0,19.145,0,19.256c0,0.111,0.089,0.2,0.2,0.2
			c0.565,0,0.599,0.501,0.6,0.6v0.001c0,0.001,0.001,0.003,0.001,0.003c-0.001,0-0.001,0-0.001,0v0.001v0.001
			c0.003,0.108,0.091,0.194,0.2,0.194C1.11,20.256,1.199,20.166,1.2,20.057z"/>
		<path fill="#E4C95C" d="M30.12,50.422c0.001-0.101,0.036-0.601,0.6-0.601h0.001h0.002h0h0.001h0.001h0
			c0.108-0.003,0.195-0.091,0.195-0.2c0-0.11-0.089-0.199-0.199-0.2c-0.101-0.001-0.601-0.036-0.601-0.6c0-0.111-0.089-0.2-0.2-0.2
			c-0.111,0-0.2,0.089-0.2,0.2c0,0.564-0.5,0.599-0.601,0.6c-0.11,0.001-0.199,0.09-0.199,0.2c0,0.111,0.089,0.2,0.2,0.2
			c0.565,0,0.599,0.501,0.6,0.6v0.001c0,0.001,0.001,0.003,0.001,0.003l-0.001,0v0.001v0.001c0.003,0.108,0.091,0.194,0.2,0.194
			C30.03,50.621,30.119,50.531,30.12,50.422z"/>
		<path fill="#E4C95C" d="M55.994,10.301C55.995,10.2,56.03,9.7,56.594,9.7h0.001h0.002h0h0.001h0.001h0
			c0.108-0.003,0.195-0.091,0.195-0.2c0-0.11-0.089-0.199-0.199-0.2c-0.101-0.001-0.601-0.036-0.601-0.6c0-0.111-0.089-0.2-0.2-0.2
			s-0.2,0.089-0.2,0.2c0,0.564-0.5,0.599-0.601,0.6c-0.11,0.001-0.199,0.09-0.199,0.2c0,0.111,0.089,0.2,0.2,0.2
			c0.565,0,0.599,0.501,0.6,0.6c0,0.001,0,0.001,0,0.001c0,0.001,0.001,0.003,0.001,0.003c-0.001,0-0.001,0-0.001,0v0.001v0.001
			c0.003,0.108,0.091,0.194,0.2,0.194C55.904,10.5,55.994,10.411,55.994,10.301z"/>
		<path fill="#E4C95C" d="M36.598,11.846c0.002-0.201,0.071-1.202,1.2-1.202c0.002,0,0.002,0,0.003,0c0.002,0,0.003,0,0.005,0h0
			c0.001,0,0.001,0,0.001,0h0.001c0,0,0.001,0,0.002,0c0.215-0.006,0.388-0.183,0.388-0.4c0-0.22-0.178-0.399-0.398-0.4
			c-0.201-0.002-1.202-0.071-1.202-1.2c0-0.221-0.179-0.4-0.4-0.4s-0.4,0.179-0.4,0.4c0,1.129-1.001,1.198-1.202,1.2
			c-0.22,0.001-0.398,0.18-0.398,0.4c0,0.221,0.179,0.4,0.4,0.4c1.129,0,1.198,1.002,1.2,1.2c0,0.002,0,0.002,0,0.002
			c0,0.003,0.001,0.006,0,0.006v0.001v0.001c0,0,0,0.001,0,0.002c0.006,0.215,0.183,0.388,0.4,0.388
			C36.418,12.244,36.597,12.066,36.598,11.846z"/>
	</g>
</g>
</svg>
