<?xml version="1.0" encoding="utf-8"?>
<!-- Generator: Adobe Illustrator 17.0.0, SVG Export Plug-In . SVG Version: 6.00 Build 0)  -->
<!DOCTYPE svg PUBLIC "-//W3C//DTD SVG 1.1//EN" "http://www.w3.org/Graphics/SVG/1.1/DTD/svg11.dtd">
<svg version="1.1" xmlns="http://www.w3.org/2000/svg" xmlns:xlink="http://www.w3.org/1999/xlink" x="0px" y="0px" width="64px"
	 height="64px" viewBox="0 0 64 64" enable-background="new 0 0 64 64" xml:space="preserve">
<g id="Layer_4">
</g>
<g id="Layer_3">
</g>
<g id="Layer_2">
</g>
<g id="Layer_1">
</g>
<g id="Layer_5">
	<g>
		<g>
			<g>
				<g>
					<g>
						<path fill="#FBFFFF" d="M59.5,31.287c0-15.188-12.312-27.5-27.5-27.5S4.5,16.099,4.5,31.287
							c0,9.396,4.715,17.687,11.905,22.647h31.191C54.785,48.973,59.5,40.682,59.5,31.287z"/>
					</g>
				</g>
				<g>
					<path fill="#2D346A" d="M49.794,54.684H14.206c-0.414,0-0.75-0.336-0.75-0.75s0.336-0.75,0.75-0.75h35.588
						c0.414,0,0.75,0.336,0.75,0.75S50.208,54.684,49.794,54.684z"/>
				</g>
				<g>
					<path fill="#FFFFFF" d="M43.625,57.919h-23.25c-0.414,0-0.75-0.336-0.75-0.75s0.336-0.75,0.75-0.75h23.25
						c0.414,0,0.75,0.336,0.75,0.75S44.039,57.919,43.625,57.919z"/>
				</g>
				<g>
					<path fill="#FFFFFF" d="M32.313,61.154h-4.672c-0.414,0-0.75-0.336-0.75-0.75s0.336-0.75,0.75-0.75h4.672
						c0.414,0,0.75,0.336,0.75,0.75S32.728,61.154,32.313,61.154z"/>
				</g>
				<g>
					<path fill="#FFFFFF" d="M36.415,61.154h-1.249c-0.414,0-0.75-0.336-0.75-0.75s0.336-0.75,0.75-0.75h1.249
						c0.414,0,0.75,0.336,0.75,0.75S36.829,61.154,36.415,61.154z"/>
				</g>
			</g>
			<g>
				<g>
					<circle fill="#E8F3FF" cx="32" cy="18.526" r="4.633"/>
				</g>
				<g>
					<polyline fill="#E8F3FF" points="34.059,14.376 34.059,8.503 29.941,8.503 29.941,14.381 					"/>
				</g>
				<g>
					<g>
						<polygon fill="#E8F3FF" points="20.998,53.7 32,23.159 27.418,17.858 						"/>
					</g>
					<g>
						<polygon fill="#E8F3FF" points="36.582,17.858 32,23.159 43.002,53.7 						"/>
					</g>
				</g>
				<g>
					<g>
						<path fill="#2D346A" d="M32,23.818c-2.968,0-5.383-2.415-5.383-5.383s2.415-5.383,5.383-5.383s5.383,2.415,5.383,5.383
							S34.968,23.818,32,23.818z M32,14.553c-2.141,0-3.883,1.742-3.883,3.883s1.742,3.883,3.883,3.883s3.883-1.742,3.883-3.883
							S34.141,14.553,32,14.553z"/>
					</g>
					<g>
						<path fill="#2D346A" d="M29.941,15.04c-0.414,0-0.75-0.336-0.75-0.75V8.412c0-0.414,0.336-0.75,0.75-0.75h4.118
							c0.414,0,0.75,0.336,0.75,0.75v5.874c0,0.414-0.336,0.75-0.75,0.75s-0.75-0.336-0.75-0.75V9.162h-2.618v5.128
							C30.691,14.704,30.355,15.04,29.941,15.04z"/>
					</g>
					<g>
						<path fill="#2D346A" d="M26.285,24.847c-0.044,0-0.088-0.004-0.133-0.012c-0.408-0.073-0.679-0.463-0.606-0.87l1.134-6.329
							c0.073-0.408,0.46-0.68,0.871-0.606c0.408,0.073,0.679,0.463,0.606,0.87l-1.134,6.329
							C26.958,24.592,26.641,24.847,26.285,24.847z"/>
					</g>
					<g>
						<path fill="#2D346A" d="M20.999,54.359c-0.064,0-0.129-0.008-0.194-0.025c-0.376-0.101-0.613-0.474-0.544-0.856l4.757-26.56
							c0.073-0.408,0.461-0.68,0.871-0.606c0.408,0.073,0.679,0.463,0.606,0.87l-3.192,17.819l7.993-22.187
							c0.14-0.39,0.569-0.594,0.96-0.452c0.39,0.141,0.592,0.57,0.451,0.96L21.704,53.863
							C21.594,54.167,21.308,54.359,20.999,54.359z"/>
					</g>
					<g>
						<path fill="#2D346A" d="M43.001,54.359c-0.309,0-0.596-0.192-0.705-0.496L31.294,23.322c-0.141-0.39,0.062-0.819,0.451-0.96
							c0.389-0.142,0.82,0.063,0.96,0.452l7.993,22.187l-4.854-27.102c-0.073-0.407,0.198-0.797,0.606-0.87
							c0.409-0.068,0.798,0.198,0.871,0.606l6.42,35.842c0.069,0.383-0.168,0.756-0.544,0.856
							C43.131,54.352,43.066,54.359,43.001,54.359z"/>
					</g>
				</g>
				<g>
					<path fill="#2D346A" d="M32,38.67c-5.184,0-10.368-1.974-14.314-5.92c-0.293-0.293-0.293-0.768,0-1.061s0.768-0.293,1.061,0
						c7.308,7.309,19.199,7.309,26.507,0c0.293-0.293,0.768-0.293,1.061,0s0.293,0.768,0,1.061C42.368,36.696,37.184,38.67,32,38.67
						z"/>
				</g>
				<g>
					<path fill="#2D346A" d="M32,40.533c-0.414,0-0.75-0.336-0.75-0.75v-3.709c0-0.414,0.336-0.75,0.75-0.75s0.75,0.336,0.75,0.75
						v3.709C32.75,40.197,32.414,40.533,32,40.533z"/>
				</g>
			</g>
			<g>
				<path fill="#FFFFFF" d="M1.6,17.244c-0.002-0.201-0.072-1.202-1.2-1.202c-0.002,0-0.002,0-0.003,0c-0.002,0-0.003,0-0.005,0h0
					c-0.001,0-0.001,0-0.001,0H0.39c0,0-0.001,0-0.002,0C0.173,16.036,0,15.859,0,15.642c0-0.22,0.178-0.399,0.398-0.4
					c0.201-0.002,1.202-0.071,1.202-1.2c0-0.221,0.179-0.4,0.4-0.4c0.221,0,0.4,0.179,0.4,0.4c0,1.128,1.001,1.198,1.202,1.2
					C3.822,15.243,4,15.421,4,15.642c0,0.221-0.179,0.4-0.4,0.4c-1.129,0-1.198,1.002-1.2,1.2c0,0.001,0,0.002,0,0.002
					c0,0.003-0.001,0.006,0,0.006v0.001c0,0,0,0.001,0,0.001c0,0.001,0,0.001,0,0.002c-0.006,0.215-0.183,0.388-0.4,0.388
					C1.78,17.642,1.601,17.464,1.6,17.244z"/>
			</g>
			<g>
				<path fill="#FFFFFF" d="M62.8,42.856c-0.001-0.101-0.036-0.601-0.6-0.601h-0.001h-0.002h0h-0.001h-0.001h0
					C62.087,42.252,62,42.164,62,42.055c0-0.11,0.089-0.199,0.199-0.2c0.101-0.001,0.601-0.036,0.601-0.6c0-0.111,0.09-0.2,0.2-0.2
					c0.111,0,0.2,0.09,0.2,0.2c0,0.564,0.5,0.599,0.601,0.6c0.11,0.001,0.199,0.09,0.199,0.2c0,0.111-0.089,0.2-0.2,0.2
					c-0.565,0-0.599,0.501-0.6,0.6v0.001c0,0.001-0.001,0.003-0.001,0.003c0.001,0,0.001,0,0.001,0v0.001v0.001
					c-0.003,0.108-0.091,0.194-0.2,0.194C62.89,43.055,62.801,42.966,62.8,42.856z"/>
			</g>
			<g>
				<path fill="#E4C95C" d="M14.439,40.582c-0.001-0.101-0.036-0.601-0.6-0.601c-0.001,0-0.001,0-0.001,0c-0.001,0-0.002,0-0.003,0
					h0h-0.001h0c0,0,0,0-0.001,0c-0.108-0.003-0.194-0.091-0.194-0.2c0-0.11,0.089-0.199,0.199-0.2
					c0.101-0.001,0.601-0.036,0.601-0.6c0-0.111,0.089-0.2,0.2-0.2c0.111,0,0.2,0.09,0.2,0.2c0,0.564,0.5,0.599,0.601,0.6
					c0.11,0.001,0.199,0.09,0.199,0.2c0,0.111-0.089,0.2-0.2,0.2c-0.565,0-0.599,0.501-0.6,0.6c0,0.001,0,0.001,0,0.001
					c0,0.001-0.001,0.003-0.001,0.003l0.001,0v0v0.001c-0.003,0.108-0.091,0.194-0.2,0.194
					C14.529,40.781,14.44,40.692,14.439,40.582z"/>
			</g>
			<g>
				<path fill="#E4C95C" d="M16.291,21.737c-0.001-0.101-0.036-0.601-0.6-0.601c-0.001,0-0.001,0-0.001,0c-0.001,0-0.002,0-0.003,0
					h0h-0.001h-0.001h-0.001c-0.108-0.003-0.194-0.091-0.194-0.2c0-0.11,0.089-0.199,0.199-0.2c0.101-0.001,0.601-0.036,0.601-0.6
					c0-0.111,0.089-0.2,0.2-0.2c0.111,0,0.2,0.089,0.2,0.2c0,0.564,0.5,0.599,0.601,0.6c0.11,0.001,0.199,0.09,0.199,0.2
					c0,0.111-0.09,0.2-0.2,0.2c-0.565,0-0.599,0.501-0.6,0.6c0,0.001,0,0.001,0,0.001c0,0.001-0.001,0.003,0,0.003v0.001v0v0.001
					c-0.003,0.108-0.091,0.194-0.2,0.194C16.381,21.936,16.291,21.847,16.291,21.737z"/>
			</g>
			<g>
				<path fill="#FFFFFF" d="M57.092,10.198c-0.002-0.201-0.071-1.202-1.2-1.202c-0.002,0-0.002,0-0.002,0c-0.002,0-0.004,0-0.005,0
					h0c-0.001,0-0.001,0-0.001,0h-0.001c0,0-0.001,0-0.001,0c-0.215-0.006-0.388-0.183-0.388-0.4c0-0.22,0.178-0.399,0.398-0.4
					c0.201-0.002,1.202-0.071,1.202-1.2c0-0.221,0.179-0.4,0.4-0.4s0.4,0.179,0.4,0.4c0,1.129,1.001,1.198,1.202,1.2
					c0.22,0.001,0.398,0.18,0.398,0.4c0,0.221-0.179,0.4-0.4,0.4c-1.129,0-1.198,1.002-1.2,1.2c0,0.002,0,0.002,0,0.003
					c0,0.002-0.001,0.005,0,0.005c0,0.001,0,0.001,0,0.001v0.001c0,0,0,0.001,0,0.002c-0.006,0.215-0.183,0.388-0.4,0.388
					C57.272,10.596,57.093,10.417,57.092,10.198z"/>
			</g>
			<g>
				<path fill="#E4C95C" d="M46.657,23.198c-0.002-0.201-0.071-1.202-1.2-1.202c-0.001,0-0.002,0-0.002,0c-0.002,0-0.004,0-0.005,0
					h0c-0.001,0-0.001,0-0.001,0h-0.001c0,0-0.001,0-0.002,0c-0.215-0.006-0.388-0.183-0.388-0.4c0-0.22,0.178-0.399,0.398-0.4
					c0.201-0.002,1.202-0.071,1.202-1.2c0-0.221,0.179-0.4,0.4-0.4s0.4,0.179,0.4,0.4c0,1.129,1.001,1.198,1.202,1.2
					c0.22,0.001,0.398,0.18,0.398,0.4c0,0.221-0.179,0.4-0.4,0.4c-1.129,0-1.198,1.002-1.2,1.2c0,0.002,0,0.002,0,0.003
					c0,0.002-0.001,0.005,0,0.005c0,0.001,0,0.001,0,0.001v0.001c0,0,0,0.001,0,0.002c-0.006,0.215-0.183,0.388-0.4,0.388
					C46.837,23.596,46.658,23.417,46.657,23.198z"/>
			</g>
			<g>
				<path fill="#E4C95C" d="M31.6,48.22c-0.002-0.201-0.072-1.202-1.2-1.202c-0.001,0-0.002,0-0.002,0c-0.002,0-0.004,0-0.006,0h0
					c-0.001,0-0.001,0-0.001,0H30.39c0,0-0.001,0-0.002,0C30.173,47.012,30,46.836,30,46.618c0-0.22,0.178-0.399,0.398-0.4
					c0.201-0.002,1.202-0.071,1.202-1.2c0-0.221,0.179-0.4,0.4-0.4c0.221,0,0.4,0.179,0.4,0.4c0,1.128,1.001,1.198,1.202,1.2
					c0.22,0.001,0.398,0.18,0.398,0.4c0,0.221-0.179,0.4-0.4,0.4c-1.129,0-1.198,1.002-1.2,1.2c0,0.002,0,0.002,0,0.003
					c0,0.002-0.001,0.006,0,0.005v0.001v0.001c0,0,0,0.001,0,0.001c-0.006,0.215-0.183,0.388-0.4,0.388
					C31.78,48.618,31.601,48.44,31.6,48.22z"/>
			</g>
			<g>
				<circle fill="#C3CCE9" cx="32" cy="18.436" r="1.5"/>
			</g>
		</g>
	</g>
</g>
</svg>
