<?xml version="1.0" encoding="utf-8"?>
<!-- Generator: Adobe Illustrator 17.0.0, SVG Export Plug-In . SVG Version: 6.00 Build 0)  -->
<!DOCTYPE svg PUBLIC "-//W3C//DTD SVG 1.1//EN" "http://www.w3.org/Graphics/SVG/1.1/DTD/svg11.dtd">
<svg version="1.1" xmlns="http://www.w3.org/2000/svg" xmlns:xlink="http://www.w3.org/1999/xlink" x="0px" y="0px" width="64px"
	 height="64px" viewBox="0 0 64 64" enable-background="new 0 0 64 64" xml:space="preserve">
<g id="Layer_4">
</g>
<g id="Layer_3">
</g>
<g id="Layer_2">
</g>
<g id="Layer_1">
</g>
<g id="Layer_5">
	<g>
		<g>
			<g>
				<g>
					<g>
						<path fill="#FBFFFF" d="M59.5,31.287c0-15.188-12.312-27.5-27.5-27.5S4.5,16.099,4.5,31.287
							c0,9.396,4.715,17.687,11.905,22.647h31.191C54.785,48.973,59.5,40.682,59.5,31.287z"/>
					</g>
				</g>
				<g>
					<path fill="#2D346A" d="M53.794,54.684H10.206c-0.414,0-0.75-0.336-0.75-0.75s0.336-0.75,0.75-0.75h43.588
						c0.414,0,0.75,0.336,0.75,0.75S54.208,54.684,53.794,54.684z"/>
				</g>
				<g>
					<path fill="#FFFFFF" d="M43.625,57.919h-23.25c-0.414,0-0.75-0.336-0.75-0.75s0.336-0.75,0.75-0.75h23.25
						c0.414,0,0.75,0.336,0.75,0.75S44.039,57.919,43.625,57.919z"/>
				</g>
				<g>
					<path fill="#FFFFFF" d="M32.313,61.154h-4.672c-0.414,0-0.75-0.336-0.75-0.75s0.336-0.75,0.75-0.75h4.672
						c0.414,0,0.75,0.336,0.75,0.75S32.728,61.154,32.313,61.154z"/>
				</g>
				<g>
					<path fill="#FFFFFF" d="M36.415,61.154h-1.249c-0.414,0-0.75-0.336-0.75-0.75s0.336-0.75,0.75-0.75h1.249
						c0.414,0,0.75,0.336,0.75,0.75S36.829,61.154,36.415,61.154z"/>
				</g>
			</g>
			<g>
				<g>
					<g>
						<rect x="39.938" y="13.351" fill="#C3CCE9" width="11.828" height="40.583"/>
					</g>
					<g>
						<path fill="#FFFFFF" d="M51.563,26.53h-1.54c-0.414,0-0.75-0.336-0.75-0.75s0.336-0.75,0.75-0.75h1.54
							c0.414,0,0.75,0.336,0.75,0.75S51.977,26.53,51.563,26.53z"/>
					</g>
					<g>
						<path fill="#FFFFFF" d="M51.563,18.467h-1.54c-0.414,0-0.75-0.336-0.75-0.75s0.336-0.75,0.75-0.75h1.54
							c0.414,0,0.75,0.336,0.75,0.75S51.977,18.467,51.563,18.467z"/>
					</g>
					<g>
						<path fill="#FFFFFF" d="M51.563,34.593h-1.54c-0.414,0-0.75-0.336-0.75-0.75s0.336-0.75,0.75-0.75h1.54
							c0.414,0,0.75,0.336,0.75,0.75S51.977,34.593,51.563,34.593z"/>
					</g>
					<g>
						<path fill="#FFFFFF" d="M51.563,42.656h-1.54c-0.414,0-0.75-0.336-0.75-0.75s0.336-0.75,0.75-0.75h1.54
							c0.414,0,0.75,0.336,0.75,0.75S51.977,42.656,51.563,42.656z"/>
					</g>
					<g>
						<path fill="#2D346A" d="M51.563,30.562h-2.46c-0.414,0-0.75-0.336-0.75-0.75s0.336-0.75,0.75-0.75h2.46
							c0.414,0,0.75,0.336,0.75,0.75S51.977,30.562,51.563,30.562z"/>
					</g>
					<g>
						<path fill="#2D346A" d="M51.563,22.498h-2.46c-0.414,0-0.75-0.336-0.75-0.75s0.336-0.75,0.75-0.75h2.46
							c0.414,0,0.75,0.336,0.75,0.75S51.977,22.498,51.563,22.498z"/>
					</g>
					<g>
						<path fill="#2D346A" d="M51.563,38.625h-2.46c-0.414,0-0.75-0.336-0.75-0.75s0.336-0.75,0.75-0.75h2.46
							c0.414,0,0.75,0.336,0.75,0.75S51.977,38.625,51.563,38.625z"/>
					</g>
					<g>
						<path fill="#2D346A" d="M51.563,46.688h-2.46c-0.414,0-0.75-0.336-0.75-0.75s0.336-0.75,0.75-0.75h2.46
							c0.414,0,0.75,0.336,0.75,0.75S51.977,46.688,51.563,46.688z"/>
					</g>
					<g>
						<path fill="#2D346A" d="M51.766,54.684H39.938c-0.414,0-0.75-0.336-0.75-0.75V13.352c0-0.414,0.336-0.75,0.75-0.75h5.828
							c0.414,0,0.75,0.336,0.75,0.75s-0.336,0.75-0.75,0.75h-5.078v39.082h10.328V14.102h-2.25c-0.414,0-0.75-0.336-0.75-0.75
							s0.336-0.75,0.75-0.75h3c0.414,0,0.75,0.336,0.75,0.75v40.582C52.516,54.348,52.18,54.684,51.766,54.684z"/>
					</g>
				</g>
				<g>
					<g>
						<path fill="#E8F3FF" d="M12.234,14.62v39.314h39.314L12.234,14.62z M20.795,33.373l12,12h-12V33.373z"/>
					</g>
					<g>
						<path fill="#C3CCE9" d="M35.322,54.375c-0.414,0-0.75-0.336-0.75-0.75v-1.22c0-0.414,0.336-0.75,0.75-0.75
							s0.75,0.336,0.75,0.75v1.22C36.072,54.039,35.736,54.375,35.322,54.375z"/>
					</g>
					<g>
						<path fill="#C3CCE9" d="M26.091,54.375c-0.414,0-0.75-0.336-0.75-0.75v-1.22c0-0.414,0.336-0.75,0.75-0.75
							s0.75,0.336,0.75,0.75v1.22C26.841,54.039,26.505,54.375,26.091,54.375z"/>
					</g>
					<g>
						<path fill="#C3CCE9" d="M16.859,54.375c-0.414,0-0.75-0.336-0.75-0.75v-1.22c0-0.414,0.336-0.75,0.75-0.75
							s0.75,0.336,0.75,0.75v1.22C17.609,54.039,17.273,54.375,16.859,54.375z"/>
					</g>
					<g>
						<path fill="#2D346A" d="M30.707,54.375c-0.414,0-0.75-0.336-0.75-0.75v-1.962c0-0.414,0.336-0.75,0.75-0.75
							s0.75,0.336,0.75,0.75v1.962C31.457,54.039,31.121,54.375,30.707,54.375z"/>
					</g>
					<g>
						<path fill="#C3CCE9" d="M44.554,54.375c-0.414,0-0.75-0.336-0.75-0.75v-1.22c0-0.414,0.336-0.75,0.75-0.75
							s0.75,0.336,0.75,0.75v1.22C45.304,54.039,44.968,54.375,44.554,54.375z"/>
					</g>
					<g>
						<path fill="#2D346A" d="M39.938,54.375c-0.414,0-0.75-0.336-0.75-0.75v-1.962c0-0.414,0.336-0.75,0.75-0.75
							s0.75,0.336,0.75,0.75v1.962C40.688,54.039,40.352,54.375,39.938,54.375z"/>
					</g>
					<g>
						<path fill="#2D346A" d="M21.475,54.375c-0.414,0-0.75-0.336-0.75-0.75v-1.962c0-0.414,0.336-0.75,0.75-0.75
							s0.75,0.336,0.75,0.75v1.962C22.225,54.039,21.889,54.375,21.475,54.375z"/>
					</g>
					<g>
						<path fill="#2D346A" d="M32.795,46.123h-12c-0.414,0-0.75-0.336-0.75-0.75v-12c0-0.304,0.183-0.577,0.463-0.693
							c0.28-0.114,0.603-0.052,0.817,0.163l12,12c0.215,0.215,0.278,0.537,0.163,0.817C33.372,45.94,33.099,46.123,32.795,46.123z
							 M21.545,44.623h9.439l-9.439-9.439V44.623z"/>
					</g>
					<g>
						<path fill="#2D346A" d="M51.548,54.684H12.234c-0.414,0-0.75-0.336-0.75-0.75V14.62c0-0.304,0.183-0.577,0.463-0.693
							c0.279-0.115,0.603-0.052,0.817,0.163l5.809,5.809c0.293,0.293,0.293,0.768,0,1.061s-0.768,0.293-1.061,0l-4.528-4.528v36.753
							h36.753l-29.6-29.6c-0.293-0.293-0.293-0.768,0-1.061s0.768-0.293,1.061,0l30.88,30.88c0.215,0.215,0.278,0.537,0.163,0.817
							C52.125,54.501,51.852,54.684,51.548,54.684z"/>
					</g>
				</g>
			</g>
			<g>
				<path fill="#FFFFFF" d="M4.908,11.198c0.002-0.201,0.071-1.202,1.2-1.202c0.002,0,0.002,0,0.002,0c0.002,0,0.004,0,0.005,0h0
					c0.001,0,0.001,0,0.001,0h0.001c0,0,0.001,0,0.002,0c0.215-0.006,0.388-0.183,0.388-0.4c0-0.22-0.178-0.399-0.398-0.4
					c-0.201-0.002-1.202-0.071-1.202-1.2c0-0.221-0.179-0.4-0.4-0.4c-0.221,0-0.4,0.179-0.4,0.4c0,1.129-1.001,1.198-1.202,1.2
					c-0.22,0.001-0.398,0.18-0.398,0.4c0,0.221,0.179,0.4,0.4,0.4c1.129,0,1.198,1.002,1.2,1.2c0,0.002,0,0.002,0,0.003
					c0,0.002,0.001,0.005,0,0.005c0,0.001,0,0.001,0,0.001v0.001c0,0,0,0.001,0,0.002c0.006,0.215,0.183,0.388,0.4,0.388
					C4.729,11.596,4.907,11.417,4.908,11.198z"/>
			</g>
			<g>
				<path fill="#FFFFFF" d="M1.2,44.856c0.001-0.101,0.036-0.601,0.6-0.601h0.001h0.002h0h0.001h0.001h0
					C1.914,44.252,2,44.164,2,44.055c0-0.11-0.089-0.199-0.199-0.2C1.7,43.854,1.2,43.819,1.2,43.255c0-0.111-0.089-0.2-0.2-0.2
					c-0.111,0-0.2,0.09-0.2,0.2c0,0.564-0.5,0.599-0.601,0.6C0.089,43.856,0,43.945,0,44.055c0,0.111,0.089,0.2,0.2,0.2
					c0.565,0,0.599,0.501,0.6,0.6v0.001c0,0.001,0.001,0.003,0.001,0.003c-0.001,0-0.001,0-0.001,0v0.001v0.001
					c0.003,0.108,0.091,0.194,0.2,0.194C1.11,45.055,1.199,44.966,1.2,44.856z"/>
			</g>
			<g>
				<path fill="#FFFFFF" d="M62.4,49.22c0.002-0.201,0.072-1.202,1.2-1.202c0.002,0,0.002,0,0.003,0c0.001,0,0.003,0,0.005,0h0
					c0.001,0,0.001,0,0.001,0h0.001c0,0,0.001,0,0.001,0c0.215-0.006,0.388-0.183,0.388-0.4c0-0.22-0.178-0.399-0.398-0.4
					c-0.201-0.002-1.202-0.071-1.202-1.2c0-0.221-0.179-0.4-0.4-0.4c-0.221,0-0.4,0.179-0.4,0.4c0,1.128-1.001,1.198-1.202,1.2
					c-0.22,0.001-0.398,0.18-0.398,0.4c0,0.221,0.179,0.4,0.4,0.4c1.129,0,1.198,1.002,1.2,1.2c0,0.002,0,0.002,0,0.002
					c0,0.003,0.001,0.006,0,0.006v0.001v0.001c0,0,0,0.001,0,0.001c0.006,0.215,0.183,0.388,0.4,0.388
					C62.22,49.618,62.399,49.44,62.4,49.22z"/>
			</g>
			<g>
				<path fill="#E4C95C" d="M26.598,15.942c0.002-0.201,0.072-1.202,1.2-1.202c0.002,0,0.002,0,0.003,0c0.001,0,0.003,0,0.005,0h0
					c0.001,0,0.001,0,0.001,0h0.001c0,0,0.001,0,0.001,0c0.215-0.006,0.388-0.183,0.388-0.4c0-0.22-0.178-0.399-0.398-0.4
					c-0.201-0.002-1.202-0.071-1.202-1.2c0-0.221-0.179-0.4-0.4-0.4c-0.221,0-0.4,0.179-0.4,0.4c0,1.128-1.001,1.198-1.202,1.2
					c-0.22,0.001-0.398,0.18-0.398,0.4c0,0.221,0.179,0.4,0.4,0.4c1.129,0,1.198,1.002,1.2,1.2c0,0.002,0,0.002,0,0.002
					c0,0.003,0.001,0.006,0,0.006v0.001v0.001c0,0,0,0.001,0,0.002c0.006,0.215,0.183,0.388,0.4,0.388
					C26.418,16.34,26.597,16.162,26.598,15.942z"/>
			</g>
			<g>
				<path fill="#FFFFFF" d="M61.2,15.397c0.001-0.101,0.036-0.601,0.6-0.601h0.001h0.002h0h0.001h0.001h0
					c0.108-0.003,0.194-0.091,0.194-0.2c0-0.11-0.089-0.199-0.199-0.2c-0.101-0.001-0.601-0.036-0.601-0.6
					c0-0.111-0.089-0.2-0.2-0.2c-0.111,0-0.2,0.09-0.2,0.2c0,0.564-0.5,0.599-0.601,0.6c-0.11,0.001-0.199,0.09-0.199,0.2
					c0,0.111,0.09,0.2,0.2,0.2c0.565,0,0.599,0.501,0.6,0.6c0,0.001,0,0.001,0,0.001c0,0.001,0.001,0.003,0.001,0.003
					c-0.001,0-0.001,0-0.001,0v0.001v0.001c0.003,0.108,0.091,0.194,0.2,0.194C61.11,15.596,61.199,15.507,61.2,15.397z"/>
			</g>
			<g>
				<path fill="#E4C95C" d="M32.286,24.397c0.001-0.101,0.036-0.601,0.6-0.601h0.001h0.002h0h0.001h0.001h0
					c0.108-0.003,0.194-0.091,0.194-0.2c0-0.11-0.089-0.199-0.199-0.2c-0.101-0.001-0.601-0.036-0.601-0.6
					c0-0.111-0.089-0.2-0.2-0.2c-0.11,0-0.2,0.089-0.2,0.2c0,0.564-0.5,0.599-0.601,0.6c-0.11,0.001-0.199,0.09-0.199,0.2
					c0,0.111,0.09,0.2,0.2,0.2c0.565,0,0.599,0.501,0.6,0.6c0,0.001,0,0.001,0,0.001c0,0.001,0.001,0.003,0.001,0.003
					c-0.001,0-0.001,0-0.001,0v0.001v0.001c0.003,0.108,0.091,0.194,0.2,0.194C32.197,24.596,32.286,24.507,32.286,24.397z"/>
			</g>
		</g>
	</g>
</g>
</svg>
