<?xml version="1.0" encoding="utf-8"?>
<!-- Generator: Adobe Illustrator 17.0.0, SVG Export Plug-In . SVG Version: 6.00 Build 0)  -->
<!DOCTYPE svg PUBLIC "-//W3C//DTD SVG 1.1//EN" "http://www.w3.org/Graphics/SVG/1.1/DTD/svg11.dtd">
<svg version="1.1" xmlns="http://www.w3.org/2000/svg" xmlns:xlink="http://www.w3.org/1999/xlink" x="0px" y="0px" width="64px"
	 height="64px" viewBox="0 0 64 64" enable-background="new 0 0 64 64" xml:space="preserve">
<g id="Layer_4">
</g>
<g id="Layer_3">
</g>
<g id="Layer_2">
</g>
<g id="Layer_1">
</g>
<g id="Layer_5">
	<g>
		<g>
			<g>
				<path fill="#FFFFFF" d="M2.4,14.399c0.002-0.201,0.071-1.202,1.2-1.202c0.002,0,0.002,0,0.003,0c0.002,0,0.003,0,0.005,0h0
					c0.001,0,0.001,0,0.001,0H3.61c0,0,0.001,0,0.002,0C3.827,13.191,4,13.014,4,12.797c0-0.22-0.178-0.399-0.398-0.4
					c-0.201-0.002-1.202-0.071-1.202-1.2c0-0.221-0.179-0.4-0.4-0.4c-0.221,0-0.4,0.179-0.4,0.4c0,1.128-1.001,1.198-1.202,1.2
					C0.178,12.398,0,12.577,0,12.797c0,0.221,0.179,0.4,0.4,0.4c1.129,0,1.198,1.002,1.2,1.2c0,0.002,0,0.002,0,0.002
					c0,0.003,0.001,0.006,0,0.006v0.001v0.001v0.002c0.006,0.215,0.183,0.388,0.4,0.388C2.22,14.797,2.399,14.619,2.4,14.399z"/>
			</g>
			<g>
				<g>
					<g>
						<path fill="#FBFFFF" d="M59.5,31.287c0-15.188-12.312-27.5-27.5-27.5S4.5,16.099,4.5,31.287
							c0,9.396,4.715,17.687,11.905,22.647h31.191C54.785,48.973,59.5,40.682,59.5,31.287z"/>
					</g>
				</g>
				<g>
					<path fill="#2D346A" d="M52.794,54.684H11.206c-0.414,0-0.75-0.336-0.75-0.75s0.336-0.75,0.75-0.75h41.588
						c0.414,0,0.75,0.336,0.75,0.75S53.208,54.684,52.794,54.684z"/>
				</g>
				<g>
					<path fill="#FFFFFF" d="M43.625,57.919h-23.25c-0.414,0-0.75-0.336-0.75-0.75s0.336-0.75,0.75-0.75h23.25
						c0.414,0,0.75,0.336,0.75,0.75S44.039,57.919,43.625,57.919z"/>
				</g>
				<g>
					<path fill="#FFFFFF" d="M32.313,61.154h-4.672c-0.414,0-0.75-0.336-0.75-0.75s0.336-0.75,0.75-0.75h4.672
						c0.414,0,0.75,0.336,0.75,0.75S32.728,61.154,32.313,61.154z"/>
				</g>
				<g>
					<path fill="#FFFFFF" d="M36.415,61.154h-1.249c-0.414,0-0.75-0.336-0.75-0.75s0.336-0.75,0.75-0.75h1.249
						c0.414,0,0.75,0.336,0.75,0.75S36.829,61.154,36.415,61.154z"/>
				</g>
			</g>
			<g>
				<path fill="#E4C95C" d="M10.9,28.076c0.001-0.101,0.036-0.601,0.6-0.601h0.001h0.002h0h0.001h0.001h0
					c0.108-0.003,0.194-0.091,0.194-0.2c0-0.11-0.089-0.199-0.199-0.2c-0.101-0.001-0.601-0.036-0.601-0.6
					c0-0.111-0.089-0.2-0.2-0.2c-0.111,0-0.2,0.089-0.2,0.2c0,0.564-0.5,0.599-0.601,0.6c-0.11,0.001-0.199,0.09-0.199,0.2
					c0,0.111,0.09,0.2,0.2,0.2c0.565,0,0.599,0.501,0.6,0.6c0,0.001,0,0.001,0,0.001c0,0.001,0.001,0.003,0.001,0.003
					c-0.001,0-0.001,0-0.001,0v0.001v0.001c0.003,0.108,0.091,0.194,0.2,0.194C10.81,28.275,10.899,28.186,10.9,28.076z"/>
			</g>
			<g>
				<path fill="#E4C95C" d="M54.994,36.261c0.001-0.101,0.036-0.601,0.6-0.601h0.001h0.002h0h0.001h0.001h0
					c0.108-0.003,0.195-0.091,0.195-0.2c0-0.11-0.089-0.199-0.199-0.2c-0.101-0.001-0.601-0.036-0.601-0.6
					c0-0.111-0.089-0.2-0.2-0.2c-0.111,0-0.2,0.089-0.2,0.2c0,0.564-0.5,0.599-0.601,0.6c-0.11,0-0.199,0.09-0.199,0.2
					c0,0.111,0.089,0.2,0.2,0.2c0.565,0,0.599,0.501,0.6,0.6c0,0.001,0,0.001,0,0.001c0,0.001,0.001,0.003,0.001,0.003
					c-0.001,0-0.001,0-0.001,0v0v0.001c0.003,0.108,0.091,0.194,0.2,0.194C54.904,36.46,54.993,36.371,54.994,36.261z"/>
			</g>
			<g>
				<path fill="#FFFFFF" d="M4.7,49.946c0.001-0.101,0.036-0.601,0.6-0.601h0.001h0.002h0h0.001h0.001h0
					c0.108-0.003,0.194-0.091,0.194-0.2c0-0.11-0.089-0.199-0.199-0.2C5.2,48.944,4.7,48.91,4.7,48.345c0-0.111-0.089-0.2-0.2-0.2
					c-0.11,0-0.2,0.089-0.2,0.2c0,0.564-0.5,0.599-0.601,0.6c-0.11,0.001-0.199,0.09-0.199,0.2c0,0.111,0.089,0.2,0.2,0.2
					c0.565,0,0.599,0.501,0.6,0.6c0,0.001,0,0.001,0,0.001c0,0.001,0.001,0.003,0.001,0.003c-0.001,0-0.001,0-0.001,0v0.001v0.001
					c0.003,0.108,0.091,0.194,0.2,0.194C4.61,50.145,4.699,50.056,4.7,49.946z"/>
			</g>
			<g>
				<path fill="#FFFFFF" d="M57.7,14.319c0.001-0.101,0.036-0.601,0.6-0.601h0.001h0.002h0h0.001h0.001h0
					c0.108-0.003,0.194-0.091,0.194-0.2c0-0.11-0.089-0.199-0.199-0.2c-0.101-0.001-0.601-0.036-0.601-0.6
					c0-0.111-0.089-0.2-0.2-0.2c-0.111,0-0.2,0.09-0.2,0.2c0,0.564-0.5,0.599-0.601,0.6c-0.11,0.001-0.199,0.09-0.199,0.2
					c0,0.111,0.09,0.2,0.2,0.2c0.565,0,0.599,0.501,0.6,0.6c0,0.001,0,0.001,0,0.001c0,0.001,0.001,0.003,0.001,0.003
					c-0.001,0-0.001,0-0.001,0v0.001v0.001c0.003,0.108,0.091,0.194,0.2,0.194C57.61,14.518,57.699,14.429,57.7,14.319z"/>
			</g>
			<g>
				<g>
					<g>
						<polyline fill="#E8F3FF" points="35.875,8.9 14.764,8.9 14.764,40.078 42.045,40.078 42.045,8.9 38.875,8.9 						"/>
						<path fill="#2D346A" d="M42.045,40.828H14.764c-0.414,0-0.75-0.336-0.75-0.75V8.899c0-0.414,0.336-0.75,0.75-0.75h21.111
							c0.414,0,0.75,0.336,0.75,0.75s-0.336,0.75-0.75,0.75H15.514v29.679h25.781V9.649h-2.419c-0.414,0-0.75-0.336-0.75-0.75
							s0.336-0.75,0.75-0.75h3.169c0.414,0,0.75,0.336,0.75,0.75v31.179C42.795,40.492,42.459,40.828,42.045,40.828z"/>
					</g>
					<g>
						<polygon fill="#FFFFFF" points="37.426,13.518 19.383,13.518 19.383,26.96 19.383,35.46 37.426,35.46 						"/>
					</g>
					<g>
						<path fill="#C3CCE9" d="M19.913,31.49l-1.061-1.061l7.825-7.825c0.293-0.293,0.768-0.293,1.061,0l6.064,6.063l3.094-3.094
							l1.061,1.061l-3.624,3.624c-0.293,0.293-0.768,0.293-1.061,0l-6.064-6.063L19.913,31.49z"/>
					</g>
					<g>
						<path fill="#2D346A" d="M37.426,36.21H24.625c-0.414,0-0.75-0.336-0.75-0.75s0.336-0.75,0.75-0.75h12.052V14.269H20.133V34.71
							h1.492c0.414,0,0.75,0.336,0.75,0.75s-0.336,0.75-0.75,0.75h-2.242c-0.414,0-0.75-0.336-0.75-0.75V13.519
							c0-0.414,0.336-0.75,0.75-0.75h18.043c0.414,0,0.75,0.336,0.75,0.75V35.46C38.176,35.874,37.84,36.21,37.426,36.21z"/>
					</g>
					<g>
						<rect x="26.095" y="3.127" fill="#C3CCE9" width="4.619" height="5.773"/>
						<path fill="#2D346A" d="M30.714,9.649h-4.619c-0.414,0-0.75-0.336-0.75-0.75V3.127c0-0.414,0.336-0.75,0.75-0.75h4.619
							c0.414,0,0.75,0.336,0.75,0.75v5.772C31.464,9.313,31.128,9.649,30.714,9.649z M26.845,8.149h3.119V3.877h-3.119V8.149z"/>
					</g>
					<g>
						<rect x="18.591" y="44.12" fill="#C3CCE9" width="19.628" height="3.464"/>
						<path fill="#2D346A" d="M38.219,48.333H18.591c-0.414,0-0.75-0.336-0.75-0.75v-3.464c0-0.414,0.336-0.75,0.75-0.75h19.628
							c0.414,0,0.75,0.336,0.75,0.75v3.464C38.969,47.997,38.633,48.333,38.219,48.333z M19.341,46.833h18.128v-1.964H19.341V46.833
							z"/>
					</g>
					<g>
						<polygon fill="#C3CCE9" points="23.786,40.078 19.167,40.078 13.394,53.934 18.013,53.934 						"/>
						<path fill="#2D346A" d="M18.013,54.684h-4.619c-0.251,0-0.485-0.125-0.624-0.334s-0.165-0.473-0.068-0.704l5.773-13.855
							c0.117-0.28,0.39-0.462,0.692-0.462h4.619c0.251,0,0.485,0.125,0.624,0.334s0.165,0.473,0.068,0.704l-5.773,13.855
							C18.588,54.502,18.315,54.684,18.013,54.684z M14.519,53.184h2.994l5.148-12.355h-2.994L14.519,53.184z"/>
					</g>
					<g>
						<polygon fill="#C3CCE9" points="33.023,40.078 37.642,40.078 43.415,53.934 38.796,53.934 						"/>
						<path fill="#2D346A" d="M43.435,54.684c-0.006-0.001-0.013-0.001-0.02,0h-4.619c-0.303,0-0.576-0.182-0.692-0.462
							l-5.773-13.855c-0.096-0.231-0.071-0.495,0.068-0.704s0.373-0.334,0.624-0.334h4.619c0.303,0,0.576,0.182,0.692,0.462
							l5.712,13.709c0.087,0.123,0.139,0.272,0.139,0.435C44.185,54.348,43.849,54.684,43.435,54.684z M39.296,53.184h2.994
							l-5.148-12.355h-2.994L39.296,53.184z"/>
					</g>
					<g>
						<path fill="#C3CCE9" d="M32.654,23.793c-1.517,0-2.75-1.233-2.75-2.75s1.233-2.75,2.75-2.75s2.75,1.233,2.75,2.75
							S34.171,23.793,32.654,23.793z M32.654,19.793c-0.689,0-1.25,0.561-1.25,1.25s0.561,1.25,1.25,1.25s1.25-0.561,1.25-1.25
							S33.344,19.793,32.654,19.793z"/>
					</g>
				</g>
				<g>
					<g>
						<g>
							<path fill="#E8F3FF" d="M46.358,49.473c0,3.543,1.189,4.375,1.84,4.375c0.652,0,1.841-0.833,1.841-4.375V30.061h-3.681
								V49.473z"/>
						</g>
						<g>
							<polygon fill="#C3CCE9" points="47.005,24.489 46.358,30.061 50.039,30.061 49.393,24.489 							"/>
						</g>
						<g>
							<path fill="#2D346A" d="M50.039,35.033c-0.414,0-0.75-0.336-0.75-0.75v-4.223l-0.642-5.484
								c-0.048-0.412,0.247-0.784,0.659-0.832c0.409-0.039,0.784,0.247,0.832,0.658l0.646,5.571l0.005,4.31
								C50.789,34.697,50.453,35.033,50.039,35.033z"/>
						</g>
						<g>
							<path fill="#2D346A" d="M48.199,54.599c-0.433,0-2.591-0.247-2.591-5.125V30.061l0.652-5.658
								c0.048-0.411,0.42-0.697,0.832-0.658c0.412,0.048,0.707,0.42,0.659,0.832l-0.647,5.571l0.005,19.326
								c0,2.979,0.875,3.625,1.091,3.625s1.09-0.646,1.09-3.625v-12.19c0-0.414,0.336-0.75,0.75-0.75s0.75,0.336,0.75,0.75v12.19
								C50.789,54.352,48.631,54.599,48.199,54.599z"/>
						</g>
					</g>
					<g>
						<rect x="46.358" y="29.311" fill="#2D346A" width="3.681" height="1.5"/>
					</g>
					<g>
						<path fill="#E4C95C" d="M50.606,22.404c0-3.168-2.407-6.655-2.407-6.655c0,3.274-2.407,3.871-2.407,6.655
							c0,1.33,1.078,2.407,2.407,2.407C49.528,24.811,50.606,23.733,50.606,22.404z"/>
						<path fill="#2D346A" d="M48.199,25.561c-1.741,0-3.157-1.416-3.157-3.157c0-1.563,0.667-2.565,1.256-3.449
							c0.592-0.89,1.151-1.729,1.151-3.206c0-0.328,0.213-0.618,0.527-0.716c0.315-0.1,0.654,0.02,0.84,0.29
							c0.104,0.15,2.54,3.718,2.54,7.081C51.356,24.145,49.939,25.561,48.199,25.561z M48.577,17.909
							c-0.276,0.742-0.667,1.329-1.031,1.876c-0.562,0.843-1.005,1.51-1.005,2.618c0,0.914,0.744,1.657,1.657,1.657
							s1.657-0.743,1.657-1.657C49.856,20.83,49.189,19.134,48.577,17.909z"/>
					</g>
				</g>
			</g>
			<g>
				<path fill="#FFFFFF" d="M62.4,45.721c0.002-0.201,0.071-1.202,1.2-1.202c0.002,0,0.002,0,0.003,0c0.001,0,0.003,0,0.005,0h0
					c0.001,0,0.001,0,0.001,0h0.001c0,0,0.001,0,0.001,0C63.827,44.513,64,44.337,64,44.12c0-0.22-0.178-0.399-0.398-0.4
					c-0.201-0.002-1.202-0.072-1.202-1.2c0-0.221-0.179-0.4-0.4-0.4c-0.221,0-0.4,0.179-0.4,0.4c0,1.128-1.001,1.198-1.202,1.2
					c-0.22,0.001-0.398,0.18-0.398,0.4c0,0.221,0.179,0.4,0.4,0.4c1.129,0,1.198,1.002,1.2,1.2c0,0.002,0,0.002,0,0.002
					c0,0.003,0.001,0.006,0,0.006v0.001v0.001c0,0,0,0.001,0,0.002c0.006,0.215,0.183,0.388,0.4,0.388
					C62.22,46.12,62.399,45.941,62.4,45.721z"/>
			</g>
		</g>
	</g>
</g>
</svg>
