<?xml version="1.0" encoding="utf-8"?>
<!-- Generator: Adobe Illustrator 17.0.0, SVG Export Plug-In . SVG Version: 6.00 Build 0)  -->
<!DOCTYPE svg PUBLIC "-//W3C//DTD SVG 1.1//EN" "http://www.w3.org/Graphics/SVG/1.1/DTD/svg11.dtd">
<svg version="1.1" xmlns="http://www.w3.org/2000/svg" xmlns:xlink="http://www.w3.org/1999/xlink" x="0px" y="0px" width="64px"
	 height="64px" viewBox="0 0 64 64" enable-background="new 0 0 64 64" xml:space="preserve">
<g id="Layer_4">
</g>
<g id="Layer_3">
</g>
<g id="Layer_2">
</g>
<g id="Layer_1">
</g>
<g id="Layer_5">
	<g>
		<g>
			<g>
				<g>
					<g>
						<path fill="#FBFFFF" d="M59.5,31.287c0-15.188-12.312-27.5-27.5-27.5S4.5,16.099,4.5,31.287
							c0,9.396,4.715,17.687,11.905,22.647h31.191C54.785,48.973,59.5,40.682,59.5,31.287z"/>
					</g>
				</g>
				<g>
					<path fill="#2D346A" d="M49.794,54.684H14.206c-0.414,0-0.75-0.336-0.75-0.75s0.336-0.75,0.75-0.75h35.588
						c0.414,0,0.75,0.336,0.75,0.75S50.208,54.684,49.794,54.684z"/>
				</g>
				<g>
					<path fill="#FFFFFF" d="M43.625,57.919h-23.25c-0.414,0-0.75-0.336-0.75-0.75s0.336-0.75,0.75-0.75h23.25
						c0.414,0,0.75,0.336,0.75,0.75S44.039,57.919,43.625,57.919z"/>
				</g>
				<g>
					<path fill="#FFFFFF" d="M32.313,61.154h-4.672c-0.414,0-0.75-0.336-0.75-0.75s0.336-0.75,0.75-0.75h4.672
						c0.414,0,0.75,0.336,0.75,0.75S32.728,61.154,32.313,61.154z"/>
				</g>
				<g>
					<path fill="#FFFFFF" d="M36.415,61.154h-1.249c-0.414,0-0.75-0.336-0.75-0.75s0.336-0.75,0.75-0.75h1.249
						c0.414,0,0.75,0.336,0.75,0.75S36.829,61.154,36.415,61.154z"/>
				</g>
			</g>
			<g>
				<g>
					<path fill="#C3CCE9" d="M48.936,24.159c0-1.657-1.343-3-3-3H25.064c-1.657,0-3,1.343-3,3v20.873c0,1.657,1.343,3,3,3h20.873
						c1.657,0,3-1.343,3-3V24.159z"/>
				</g>
				<g>
					<path fill="#E8F3FF" d="M41.936,17.159c0-1.657-1.343-3-3-3H18.064c-1.657,0-3,1.343-3,3v20.873c0,1.657,1.343,3,3,3h20.873
						c1.657,0,3-1.343,3-3V17.159z"/>
				</g>
				<g>
					<path fill="#2D346A" d="M45.937,48.782c-0.414,0-0.75-0.336-0.75-0.75s0.336-0.75,0.75-0.75c1.24,0,2.25-1.01,2.25-2.25V24.159
						c0-1.24-1.01-2.25-2.25-2.25h-4c-0.414,0-0.75-0.336-0.75-0.75s0.336-0.75,0.75-0.75h4c2.067,0,3.75,1.683,3.75,3.75v20.873
						C49.687,47.1,48.004,48.782,45.937,48.782z"/>
				</g>
				<g>
					<path fill="#2D346A" d="M42.937,48.782H25.063c-2.067,0-3.75-1.683-3.75-3.75v-4c0-0.414,0.336-0.75,0.75-0.75
						s0.75,0.336,0.75,0.75v4c0,1.24,1.01,2.25,2.25,2.25h17.873c0.414,0,0.75,0.336,0.75,0.75S43.351,48.782,42.937,48.782z"/>
				</g>
				<g>
					<path fill="#2D346A" d="M38.937,41.782H18.063c-2.067,0-3.75-1.683-3.75-3.75V17.159c0-2.067,1.683-3.75,3.75-3.75h17.873
						c0.414,0,0.75,0.336,0.75,0.75s-0.336,0.75-0.75,0.75H18.063c-1.24,0-2.25,1.01-2.25,2.25v20.873c0,1.24,1.01,2.25,2.25,2.25
						h20.873c1.24,0,2.25-1.01,2.25-2.25V17.159c0-1.24-1.01-2.25-2.25-2.25c-0.414,0-0.75-0.336-0.75-0.75s0.336-0.75,0.75-0.75
						c2.067,0,3.75,1.683,3.75,3.75v20.873C42.687,40.1,41.004,41.782,38.937,41.782z"/>
				</g>
				<g>
					<polygon fill="#FFFFFF" points="33.5,25.986 30.109,25.986 30.109,22.596 26.891,22.596 26.891,25.986 23.5,25.986 
						23.5,29.205 26.891,29.205 26.891,32.596 30.109,32.596 30.109,29.205 33.5,29.205 					"/>
					<path fill="#2D346A" d="M30.109,33.346h-3.219c-0.414,0-0.75-0.336-0.75-0.75v-2.641H23.5c-0.414,0-0.75-0.336-0.75-0.75
						v-3.219c0-0.414,0.336-0.75,0.75-0.75h2.641v-2.641c0-0.414,0.336-0.75,0.75-0.75h3.219c0.414,0,0.75,0.336,0.75,0.75v2.641
						H33.5c0.414,0,0.75,0.336,0.75,0.75v3.219c0,0.414-0.336,0.75-0.75,0.75h-2.641v2.641
						C30.859,33.01,30.523,33.346,30.109,33.346z M27.641,31.846h1.719v-2.641c0-0.414,0.336-0.75,0.75-0.75h2.641v-1.719h-2.641
						c-0.414,0-0.75-0.336-0.75-0.75v-2.641h-1.719v2.641c0,0.414-0.336,0.75-0.75,0.75H24.25v1.719h2.641
						c0.414,0,0.75,0.336,0.75,0.75V31.846z"/>
				</g>
			</g>
			<g>
				<path fill="#FFFFFF" d="M57.672,11.673c0.002-0.201,0.072-1.202,1.2-1.202c0.002,0,0.002,0,0.003,0c0.002,0,0.003,0,0.005,0h0
					c0.001,0,0.001,0,0.001,0h0.001c0,0,0.001,0,0.002,0c0.215-0.006,0.388-0.183,0.388-0.4c0-0.22-0.178-0.399-0.398-0.4
					c-0.201-0.002-1.202-0.071-1.202-1.2c0-0.221-0.179-0.4-0.4-0.4s-0.4,0.179-0.4,0.4c0,1.128-1.001,1.198-1.202,1.2
					c-0.22,0.001-0.398,0.18-0.398,0.4c0,0.221,0.179,0.4,0.4,0.4c1.129,0,1.198,1.002,1.2,1.2c0,0.002,0,0.002,0,0.002
					c0,0.003,0.001,0.006,0,0.006v0.001v0.001c0,0,0,0.001,0,0.001c0.006,0.215,0.183,0.388,0.4,0.388
					C57.492,12.071,57.67,11.893,57.672,11.673z"/>
			</g>
			<g>
				<path fill="#E4C95C" d="M54.672,33.698c0.002-0.201,0.072-1.202,1.2-1.202c0.002,0,0.002,0,0.003,0c0.002,0,0.003,0,0.005,0h0
					c0.001,0,0.001,0,0.001,0h0.001c0,0,0.001,0,0.002,0c0.215-0.006,0.388-0.183,0.388-0.4c0-0.22-0.178-0.399-0.398-0.4
					c-0.201-0.002-1.202-0.072-1.202-1.2c0-0.221-0.179-0.4-0.4-0.4s-0.4,0.179-0.4,0.4c0,1.128-1.001,1.198-1.202,1.2
					c-0.22,0.001-0.398,0.18-0.398,0.4c0,0.221,0.179,0.4,0.4,0.4c1.129,0,1.198,1.001,1.2,1.2c0,0.002,0,0.002,0,0.002
					c0,0.003,0.001,0.006,0,0.006v0.001v0.001c0,0,0,0.001,0,0.002c0.006,0.215,0.183,0.388,0.4,0.388
					C54.492,34.096,54.67,33.918,54.672,33.698z"/>
			</g>
			<g>
				<path fill="#E4C95C" d="M27.041,10.673c0.002-0.201,0.071-1.202,1.2-1.202c0.001,0,0.002,0,0.003,0c0.002,0,0.003,0,0.005,0h0
					c0.001,0,0.001,0,0.001,0h0.001c0,0,0.001,0,0.002,0c0.215-0.006,0.388-0.183,0.388-0.4c0-0.22-0.178-0.399-0.398-0.4
					c-0.201-0.002-1.202-0.071-1.202-1.2c0-0.221-0.179-0.4-0.4-0.4s-0.4,0.179-0.4,0.4c0,1.128-1.001,1.198-1.202,1.2
					c-0.22,0.001-0.398,0.18-0.398,0.4c0,0.221,0.179,0.4,0.4,0.4c1.129,0,1.198,1.002,1.2,1.2c0,0.002,0,0.002,0,0.002
					c0,0.003,0.001,0.006,0,0.006v0.001v0.001c0,0,0,0.001,0,0.001c0.006,0.215,0.183,0.388,0.4,0.388
					C26.862,11.071,27.04,10.893,27.041,10.673z"/>
			</g>
			<g>
				<path fill="#FFFFFF" d="M63.2,27.319c0.001-0.101,0.036-0.601,0.6-0.601h0.001h0.002h0h0.001h0.001h0
					c0.108-0.003,0.194-0.091,0.194-0.2c0-0.11-0.089-0.199-0.199-0.2c-0.101-0.001-0.601-0.036-0.601-0.6
					c0-0.111-0.089-0.2-0.2-0.2c-0.111,0-0.2,0.089-0.2,0.2c0,0.564-0.5,0.599-0.601,0.6c-0.11,0.001-0.199,0.09-0.199,0.2
					c0,0.111,0.09,0.2,0.2,0.2c0.565,0,0.599,0.501,0.6,0.6c0,0.001,0,0.001,0,0.001c0,0.001,0.001,0.003,0.001,0.003
					c-0.001,0-0.001,0-0.001,0v0.001v0.001c0.003,0.108,0.091,0.194,0.2,0.194C63.11,27.518,63.199,27.429,63.2,27.319z"/>
			</g>
			<g>
				<path fill="#E4C95C" d="M10.2,33.005c0.001-0.101,0.036-0.601,0.6-0.601h0.001h0.002h0h0.001h0.001h0
					c0.108-0.003,0.194-0.091,0.194-0.2c0-0.11-0.089-0.199-0.199-0.2c-0.101-0.001-0.601-0.036-0.601-0.6
					c0-0.111-0.089-0.2-0.2-0.2c-0.111,0-0.2,0.089-0.2,0.2c0,0.564-0.5,0.599-0.601,0.6C9.089,32.004,9,32.094,9,32.204
					c0,0.111,0.09,0.2,0.2,0.2c0.565,0,0.599,0.501,0.6,0.6c0,0.001,0,0.001,0,0.001c0,0.001,0.001,0.003,0.001,0.003
					c-0.001,0-0.001,0-0.001,0v0v0.001c0.003,0.108,0.091,0.194,0.2,0.194C10.11,33.204,10.199,33.115,10.2,33.005z"/>
			</g>
			<g>
				<path fill="#FFFFFF" d="M1.2,15.598c0.001-0.101,0.036-0.601,0.6-0.601h0.001h0.002h0h0.001h0.001h0
					C1.913,14.994,2,14.906,2,14.797c0-0.11-0.089-0.199-0.199-0.2C1.7,14.596,1.2,14.561,1.2,13.997c0-0.111-0.089-0.2-0.2-0.2
					c-0.11,0-0.2,0.089-0.2,0.2c0,0.564-0.5,0.599-0.601,0.6C0.089,14.598,0,14.687,0,14.797c0,0.111,0.089,0.2,0.2,0.2
					c0.565,0,0.599,0.501,0.6,0.6v0.001c0,0.001,0.001,0.003,0.001,0.003c-0.001,0-0.001,0-0.001,0v0v0.001
					c0.003,0.108,0.091,0.194,0.2,0.194C1.11,15.797,1.199,15.708,1.2,15.598z"/>
			</g>
			<g>
				<path fill="#FFFFFF" d="M4.9,50.948c0.002-0.201,0.072-1.202,1.2-1.202c0.002,0,0.002,0,0.003,0c0.001,0,0.003,0,0.005,0h0
					c0.001,0,0.001,0,0.001,0H6.11c0,0,0.001,0,0.001,0c0.215-0.006,0.388-0.183,0.388-0.4c0-0.22-0.178-0.399-0.398-0.4
					c-0.201-0.002-1.202-0.071-1.202-1.2c0-0.221-0.179-0.4-0.4-0.4c-0.221,0-0.4,0.179-0.4,0.4c0,1.128-1.001,1.198-1.202,1.2
					c-0.22,0.001-0.398,0.18-0.398,0.4c0,0.221,0.179,0.4,0.4,0.4c1.129,0,1.198,1.001,1.2,1.2c0,0.002,0,0.002,0,0.002
					c0,0.003,0.001,0.006,0,0.006v0.001v0.001c0,0,0,0.001,0,0.002c0.006,0.215,0.183,0.388,0.4,0.388
					C4.72,51.346,4.899,51.168,4.9,50.948z"/>
			</g>
		</g>
	</g>
</g>
</svg>
