<?xml version="1.0" encoding="utf-8"?>
<!-- Generator: Adobe Illustrator 17.0.0, SVG Export Plug-In . SVG Version: 6.00 Build 0)  -->
<!DOCTYPE svg PUBLIC "-//W3C//DTD SVG 1.1//EN" "http://www.w3.org/Graphics/SVG/1.1/DTD/svg11.dtd">
<svg version="1.1" xmlns="http://www.w3.org/2000/svg" xmlns:xlink="http://www.w3.org/1999/xlink" x="0px" y="0px" width="64px"
	 height="64px" viewBox="0 0 64 64" enable-background="new 0 0 64 64" xml:space="preserve">
<g id="Layer_4">
</g>
<g id="Layer_3">
</g>
<g id="Layer_2">
</g>
<g id="Layer_1">
</g>
<g id="Layer_5">
	<g>
		<g>
			<g>
				<path fill="#FBE2CB" d="M59.5,31.191c0-15.188-12.312-27.5-27.5-27.5S4.5,16.003,4.5,31.191c0,9.396,4.715,17.687,11.905,22.647
					h31.191C54.785,48.878,59.5,40.587,59.5,31.191z"/>
			</g>
			
				<line fill="none" stroke="#2D346A" stroke-width="1.5" stroke-linecap="round" stroke-miterlimit="10" x1="10.206" y1="53.838" x2="53.794" y2="53.838"/>
			
				<line fill="none" stroke="#C3CCE9" stroke-width="1.5" stroke-linecap="round" stroke-linejoin="round" stroke-miterlimit="10" x1="20.375" y1="57.074" x2="43.625" y2="57.074"/>
			
				<line fill="none" stroke="#C3CCE9" stroke-width="1.5" stroke-linecap="round" stroke-linejoin="round" stroke-miterlimit="10" x1="27.641" y1="60.309" x2="32.314" y2="60.309"/>
			
				<line fill="none" stroke="#C3CCE9" stroke-width="1.5" stroke-linecap="round" stroke-linejoin="round" stroke-miterlimit="10" x1="35.166" y1="60.309" x2="36.415" y2="60.309"/>
		</g>
		<g>
			<rect x="13.456" y="16.75" fill="#E8F3FF" width="37.088" height="37.088"/>
			<rect x="41.865" y="16.75" fill="#C3CCE9" width="8.679" height="37.088"/>
			<g>
				<g>
					
						<line fill="none" stroke="#2D346A" stroke-width="1.5" stroke-linecap="round" stroke-linejoin="round" x1="41.865" y1="16.75" x2="41.865" y2="18.75"/>
					
						<line fill="none" stroke="#2D346A" stroke-width="1.5" stroke-linecap="round" stroke-linejoin="round" stroke-dasharray="3.6765,3.6765" x1="41.865" y1="22.426" x2="41.865" y2="50"/>
					
						<line fill="none" stroke="#2D346A" stroke-width="1.5" stroke-linecap="round" stroke-linejoin="round" x1="41.865" y1="51.838" x2="41.865" y2="53.838"/>
				</g>
			</g>
			
				<polyline fill="none" stroke="#2D346A" stroke-width="1.5" stroke-linecap="round" stroke-linejoin="round" stroke-miterlimit="10" points="
				13.456,42.75 13.456,16.75 47.544,16.75 			"/>
			
				<polyline fill="none" stroke="#2D346A" stroke-width="1.5" stroke-linecap="round" stroke-linejoin="round" stroke-miterlimit="10" points="
				50.544,16.75 50.544,53.838 13.456,53.838 13.456,45.75 			"/>
		</g>
		<path fill="#E4C95C" d="M1.6,17.148c-0.002-0.201-0.071-1.202-1.2-1.202c-0.002,0-0.002,0-0.003,0c-0.002,0-0.003,0-0.005,0h0
			c-0.001,0-0.001,0-0.001,0H0.39c0,0-0.001,0-0.002,0C0.173,15.94,0,15.763,0,15.546c0-0.22,0.178-0.399,0.398-0.4
			c0.201-0.002,1.202-0.071,1.202-1.2c0-0.221,0.179-0.4,0.4-0.4s0.4,0.179,0.4,0.4c0,1.129,1.001,1.198,1.202,1.2
			C3.822,15.147,4,15.326,4,15.546c0,0.221-0.179,0.4-0.4,0.4c-1.129,0-1.198,1.002-1.2,1.2c0,0.002,0,0.002,0,0.002
			c0,0.003-0.001,0.006,0,0.006v0.001c0,0,0,0.001,0,0.001c0,0.001,0,0.001,0,0.002c-0.006,0.215-0.183,0.388-0.4,0.388
			C1.78,17.546,1.601,17.368,1.6,17.148z"/>
		<path fill="#E4C95C" d="M61.6,49.44c-0.002-0.201-0.071-1.202-1.2-1.202c-0.002,0-0.002,0-0.003,0c-0.002,0-0.003,0-0.005,0h0
			c-0.001,0-0.001,0-0.001,0H60.39c0,0-0.001,0-0.002,0C60.173,48.232,60,48.055,60,47.838c0-0.22,0.178-0.399,0.398-0.4
			c0.201-0.002,1.202-0.071,1.202-1.2c0-0.221,0.179-0.4,0.4-0.4s0.4,0.179,0.4,0.4c0,1.129,1.001,1.198,1.202,1.2
			c0.22,0.001,0.398,0.18,0.398,0.4c0,0.221-0.179,0.4-0.4,0.4c-1.129,0-1.198,1.002-1.2,1.2c0,0.002,0,0.002,0,0.002
			c0,0.003-0.001,0.006,0,0.006v0.001c0,0,0,0.001,0,0.001c0,0.001,0,0.001,0,0.002c-0.006,0.215-0.183,0.388-0.4,0.388
			C61.78,49.838,61.601,49.66,61.6,49.44z"/>
		<path fill="#E4C95C" d="M35.124,11.443c-0.002-0.201-0.071-1.202-1.2-1.202c-0.002,0-0.002,0-0.002,0c-0.002,0-0.004,0-0.005,0h0
			c-0.001,0-0.001,0-0.001,0h-0.001h-0.002c-0.215-0.006-0.388-0.183-0.388-0.4c0-0.22,0.178-0.399,0.398-0.4
			c0.201-0.002,1.202-0.071,1.202-1.2c0-0.221,0.179-0.4,0.4-0.4c0.221,0,0.4,0.179,0.4,0.4c0,1.129,1.001,1.198,1.202,1.2
			c0.22,0.001,0.398,0.18,0.398,0.4c0,0.221-0.179,0.4-0.4,0.4c-1.129,0-1.198,1.002-1.2,1.2c0,0.002,0,0.002,0,0.002
			c0,0.003-0.001,0.006,0,0.006v0.001c0,0,0,0.001,0,0.001c0,0.001,0,0.001,0,0.002c-0.006,0.215-0.183,0.388-0.4,0.388
			C35.304,11.841,35.125,11.663,35.124,11.443z"/>
		<path fill="#E4C95C" d="M62.8,10.642c-0.001-0.101-0.036-0.601-0.6-0.601h-0.001h-0.002h0h-0.001h-0.001h0
			C62.087,10.038,62,9.95,62,9.841c0-0.11,0.089-0.199,0.199-0.2C62.3,9.64,62.8,9.606,62.8,9.041c0-0.111,0.089-0.2,0.2-0.2
			s0.2,0.089,0.2,0.2c0,0.564,0.5,0.599,0.601,0.6C63.911,9.642,64,9.731,64,9.841c0,0.111-0.089,0.2-0.2,0.2
			c-0.565,0-0.599,0.501-0.6,0.6c0,0.001,0,0.001,0,0.001c0,0.001-0.001,0.003-0.001,0.003c0.001,0,0.001,0,0.001,0v0.001v0.001
			c-0.003,0.108-0.091,0.194-0.2,0.194C62.89,10.841,62.801,10.752,62.8,10.642z"/>
		<path fill="#E4C95C" d="M6.8,51.324c-0.001-0.101-0.036-0.601-0.6-0.601c-0.001,0-0.001,0-0.001,0c-0.001,0-0.002,0-0.003,0h0
			H6.196H6.195c0,0,0,0-0.001,0C6.087,50.72,6,50.631,6,50.523c0-0.11,0.089-0.199,0.199-0.2C6.3,50.322,6.8,50.287,6.8,49.723
			c0-0.111,0.089-0.2,0.2-0.2c0.111,0,0.2,0.089,0.2,0.2c0,0.564,0.5,0.599,0.601,0.6C7.911,50.323,8,50.413,8,50.523
			c0,0.111-0.089,0.2-0.2,0.2c-0.565,0-0.599,0.501-0.6,0.6c0,0.001,0,0.001,0,0.001c0,0.001-0.001,0.003,0,0.003v0.001c0,0,0,0,0,0
			v0.001c-0.003,0.108-0.091,0.194-0.2,0.194C6.89,51.523,6.801,51.434,6.8,51.324z"/>
	</g>
</g>
</svg>
