<?xml version="1.0" encoding="utf-8"?>
<!-- Generator: Adobe Illustrator 17.0.0, SVG Export Plug-In . SVG Version: 6.00 Build 0)  -->
<!DOCTYPE svg PUBLIC "-//W3C//DTD SVG 1.1//EN" "http://www.w3.org/Graphics/SVG/1.1/DTD/svg11.dtd">
<svg version="1.1" xmlns="http://www.w3.org/2000/svg" xmlns:xlink="http://www.w3.org/1999/xlink" x="0px" y="0px" width="64px"
	 height="64px" viewBox="0 0 64 64" enable-background="new 0 0 64 64" xml:space="preserve">
<g id="Layer_4">
</g>
<g id="Layer_3">
</g>
<g id="Layer_2">
</g>
<g id="Layer_1">
</g>
<g id="Layer_5">
	<g>
		<g>
			<g>
				<path fill="#FBE2CB" d="M59.5,31.191c0-15.188-12.312-27.5-27.5-27.5S4.5,16.003,4.5,31.191c0,9.396,4.715,17.687,11.905,22.647
					h31.191C54.785,48.878,59.5,40.587,59.5,31.191z"/>
			</g>
			
				<line fill="none" stroke="#2D346A" stroke-width="1.5" stroke-linecap="round" stroke-miterlimit="10" x1="11.206" y1="53.838" x2="52.794" y2="53.838"/>
		</g>
		<g>
			<path fill="#E8F3FF" d="M9.3,30.825c0,12.71,10.303,23.013,23.013,23.013s23.013-10.303,23.013-23.013"/>
			<ellipse fill="#C3CCE9" cx="32.314" cy="30.825" rx="23.013" ry="7.043"/>
			
				<path fill="none" stroke="#2D346A" stroke-width="1.5" stroke-linecap="round" stroke-linejoin="round" stroke-miterlimit="10" d="
				M9.3,30.825c0,12.71,10.303,23.013,23.013,23.013s23.013-10.303,23.013-23.013"/>
			
				<path fill="none" stroke="#2D346A" stroke-width="1.5" stroke-linecap="round" stroke-linejoin="round" stroke-miterlimit="10" d="
				M48.077,35.956c4.463-1.285,7.251-3.108,7.251-5.132c0-3.89-10.303-7.043-23.013-7.043c-3.375,0-6.58,0.222-9.468,0.622"/>
			
				<path fill="none" stroke="#2D346A" stroke-width="1.5" stroke-linecap="round" stroke-linejoin="round" stroke-miterlimit="10" d="
				M20.163,24.842C13.641,26.086,9.3,28.3,9.3,30.825c0,3.89,10.303,7.043,23.013,7.043c4.963,0,9.56-0.481,13.319-1.299"/>
		</g>
		<path fill="#E4C95C" d="M1.6,47.125c-0.002-0.201-0.071-1.202-1.2-1.202c-0.002,0-0.002,0-0.003,0c-0.002,0-0.003,0-0.005,0h0
			c-0.001,0-0.001,0-0.001,0H0.39c0,0-0.001,0-0.002,0C0.173,45.917,0,45.74,0,45.523c0-0.22,0.178-0.399,0.398-0.4
			c0.201-0.002,1.202-0.071,1.202-1.2c0-0.221,0.179-0.4,0.4-0.4s0.4,0.179,0.4,0.4c0,1.129,1.001,1.198,1.202,1.2
			C3.822,45.124,4,45.303,4,45.523c0,0.221-0.179,0.4-0.4,0.4c-1.129,0-1.198,1.002-1.2,1.2c0,0.002,0,0.002,0,0.002
			c0,0.003-0.001,0.006,0,0.006v0.001v0.001c0,0,0,0.001,0,0.002C2.394,47.35,2.217,47.523,2,47.523
			C1.78,47.523,1.601,47.345,1.6,47.125z"/>
		<path fill="#E4C95C" d="M62.8,39.347c-0.001-0.101-0.036-0.601-0.6-0.601h-0.001h-0.002h0h-0.001h-0.001h0
			C62.087,38.743,62,38.655,62,38.546c0-0.11,0.089-0.199,0.199-0.2c0.101-0.001,0.601-0.036,0.601-0.6c0-0.111,0.089-0.2,0.2-0.2
			s0.2,0.089,0.2,0.2c0,0.564,0.5,0.599,0.601,0.6c0.11,0.001,0.199,0.09,0.199,0.2c0,0.111-0.089,0.2-0.2,0.2
			c-0.565,0-0.599,0.501-0.6,0.6c0,0.001,0,0.001,0,0.001c0,0.001-0.001,0.003-0.001,0.003c0.001,0,0.001,0,0.001,0v0.001v0.001
			c-0.003,0.108-0.091,0.194-0.2,0.194C62.89,39.546,62.801,39.457,62.8,39.347z"/>
		<path fill="#E4C95C" d="M24.134,16.148c0.002-0.201,0.071-1.202,1.2-1.202c0.002,0,0.002,0,0.003,0c0.002,0,0.003,0,0.005,0h0
			c0.001,0,0.001,0,0.001,0s0.001,0,0.001,0c0,0,0.001,0,0.002,0c0.215-0.006,0.388-0.183,0.388-0.4c0-0.22-0.178-0.399-0.398-0.4
			c-0.201-0.002-1.202-0.071-1.202-1.2c0-0.221-0.179-0.4-0.4-0.4s-0.4,0.179-0.4,0.4c0,1.129-1.001,1.198-1.202,1.2
			c-0.22,0.001-0.398,0.18-0.398,0.4c0,0.221,0.179,0.4,0.4,0.4c1.129,0,1.198,1.002,1.2,1.2c0,0.002,0,0.002,0,0.002
			c0,0.003,0.001,0.006,0,0.006v0.001c0,0,0,0.001,0,0.001c0,0.001,0,0.001,0,0.002c0.006,0.215,0.183,0.388,0.4,0.388
			C23.955,16.546,24.133,16.368,24.134,16.148z"/>
		<path fill="#E4C95C" d="M57.899,12.701c-0.002-0.201-0.071-1.202-1.2-1.202c-0.002,0-0.002,0-0.003,0c-0.002,0-0.003,0-0.005,0h0
			c-0.001,0-0.001,0-0.001,0s-0.001,0-0.001,0c0,0-0.001,0-0.002,0c-0.215-0.006-0.388-0.183-0.388-0.4
			c0-0.22,0.178-0.399,0.398-0.4c0.201-0.002,1.202-0.071,1.202-1.2c0-0.221,0.179-0.4,0.4-0.4c0.221,0,0.4,0.179,0.4,0.4
			c0,1.129,1.001,1.198,1.202,1.2c0.22,0.001,0.398,0.18,0.398,0.4c0,0.221-0.179,0.4-0.4,0.4c-1.129,0-1.198,1.002-1.2,1.2
			c0,0.002,0,0.002,0,0.002c0,0.003-0.001,0.006,0,0.006v0.001c0,0,0,0.001,0,0.001v0.002c-0.006,0.215-0.183,0.388-0.4,0.388
			C58.078,13.099,57.9,12.921,57.899,12.701z"/>
		<path fill="#E4C95C" d="M36.99,17.641c0.001-0.101,0.036-0.601,0.6-0.601h0.001h0.002h0c0,0,0.001,0,0.001,0h0.001h0
			c0.108-0.003,0.195-0.091,0.195-0.2c0-0.11-0.089-0.199-0.199-0.2c-0.101-0.001-0.601-0.036-0.601-0.6c0-0.111-0.089-0.2-0.2-0.2
			s-0.2,0.089-0.2,0.2c0,0.564-0.5,0.599-0.601,0.6c-0.11,0.001-0.199,0.09-0.199,0.2c0,0.111,0.089,0.2,0.2,0.2
			c0.565,0,0.599,0.501,0.6,0.6c0,0.001,0,0.001,0,0.001c0,0.001,0.001,0.003,0.001,0.003c-0.001,0-0.001,0-0.001,0v0.001v0.001
			c0.003,0.108,0.091,0.194,0.2,0.194C36.901,17.84,36.99,17.751,36.99,17.641z"/>
		<path fill="#E4C95C" d="M5.8,11.301C5.799,11.2,5.764,10.7,5.2,10.7H5.199H5.196h0H5.196H5.195h0C5.087,10.697,5,10.609,5,10.5
			c0-0.11,0.089-0.199,0.199-0.2C5.3,10.299,5.8,10.264,5.8,9.7c0-0.111,0.089-0.2,0.2-0.2s0.2,0.089,0.2,0.2
			c0,0.564,0.5,0.599,0.601,0.6C6.911,10.301,7,10.39,7,10.5c0,0.111-0.089,0.2-0.2,0.2c-0.565,0-0.599,0.501-0.6,0.6
			c0,0.001,0,0.001,0,0.001c0,0.001-0.001,0.003-0.001,0.003c0.001,0,0.001,0,0.001,0v0.001v0.001C6.197,11.413,6.109,11.5,6,11.5
			C5.89,11.5,5.801,11.411,5.8,11.301z"/>
		
			<line fill="none" stroke="#C3CCE9" stroke-width="1.5" stroke-linecap="round" stroke-linejoin="round" stroke-miterlimit="10" x1="20.375" y1="57.074" x2="43.625" y2="57.074"/>
		
			<line fill="none" stroke="#C3CCE9" stroke-width="1.5" stroke-linecap="round" stroke-linejoin="round" stroke-miterlimit="10" x1="27.641" y1="60.309" x2="32.314" y2="60.309"/>
		
			<line fill="none" stroke="#C3CCE9" stroke-width="1.5" stroke-linecap="round" stroke-linejoin="round" stroke-miterlimit="10" x1="35.166" y1="60.309" x2="36.415" y2="60.309"/>
	</g>
</g>
</svg>
