<?xml version="1.0" encoding="utf-8"?>
<!-- Generator: Adobe Illustrator 17.0.0, SVG Export Plug-In . SVG Version: 6.00 Build 0)  -->
<!DOCTYPE svg PUBLIC "-//W3C//DTD SVG 1.1//EN" "http://www.w3.org/Graphics/SVG/1.1/DTD/svg11.dtd">
<svg version="1.1" xmlns="http://www.w3.org/2000/svg" xmlns:xlink="http://www.w3.org/1999/xlink" x="0px" y="0px" width="64px"
	 height="64px" viewBox="0 0 64 64" enable-background="new 0 0 64 64" xml:space="preserve">
<g id="Layer_4">
</g>
<g id="Layer_3">
</g>
<g id="Layer_2">
</g>
<g id="Layer_1">
</g>
<g id="Layer_5">
	<g>
		<g>
			<g>
				<path fill="#FBE2CB" d="M59.5,31.191c0-15.188-12.312-27.5-27.5-27.5S4.5,16.003,4.5,31.191c0,9.396,4.715,17.687,11.905,22.647
					h31.191C54.785,48.878,59.5,40.587,59.5,31.191z"/>
			</g>
			
				<line fill="none" stroke="#2D346A" stroke-width="1.5" stroke-linecap="round" stroke-miterlimit="10" x1="14.206" y1="53.838" x2="49.794" y2="53.838"/>
			
				<line fill="none" stroke="#C3CCE9" stroke-width="1.5" stroke-linecap="round" stroke-linejoin="round" stroke-miterlimit="10" x1="20.375" y1="57.074" x2="43.625" y2="57.074"/>
			
				<line fill="none" stroke="#C3CCE9" stroke-width="1.5" stroke-linecap="round" stroke-linejoin="round" stroke-miterlimit="10" x1="27.641" y1="60.309" x2="32.314" y2="60.309"/>
			
				<line fill="none" stroke="#C3CCE9" stroke-width="1.5" stroke-linecap="round" stroke-linejoin="round" stroke-miterlimit="10" x1="35.166" y1="60.309" x2="36.415" y2="60.309"/>
		</g>
		<g>
			
				<path fill="#E8F3FF" stroke="#2D346A" stroke-width="1.5" stroke-linecap="round" stroke-linejoin="round" stroke-miterlimit="10" d="
				M45.695,10.232c1.657,0,3,1.343,3,3v37.606c0,1.657-1.343,3-3,3h-27.39c-1.657,0-3-1.343-3-3V13.232c0-1.657,1.343-3,3-3h24.39"
				/>
			
				<polyline fill="#C3CCE9" stroke="#2D346A" stroke-width="1.5" stroke-linecap="round" stroke-linejoin="round" stroke-miterlimit="10" points="
				18.305,26.417 18.305,41.838 45.695,41.838 45.695,13.232 18.305,13.232 18.305,23.417 			"/>
			
				<circle fill="#FFFFFF" stroke="#2D346A" stroke-width="1.5" stroke-linecap="round" stroke-linejoin="round" stroke-miterlimit="10" cx="32" cy="47.961" r="3.021"/>
			
				<line fill="none" stroke="#2D346A" stroke-width="1.5" stroke-linecap="round" stroke-linejoin="round" stroke-miterlimit="10" x1="43.695" y1="45.838" x2="43.695" y2="49.838"/>
			
				<line fill="none" stroke="#2D346A" stroke-width="1.5" stroke-linecap="round" stroke-linejoin="round" stroke-miterlimit="10" x1="24.695" y1="45.838" x2="24.695" y2="49.838"/>
			
				<line fill="none" stroke="#2D346A" stroke-width="1.5" stroke-linecap="round" stroke-linejoin="round" stroke-miterlimit="10" x1="20.695" y1="45.838" x2="20.695" y2="49.838"/>
		</g>
		<g>
			
				<path fill="#E8F3FF" stroke="#2D346A" stroke-width="1.5" stroke-linecap="round" stroke-linejoin="round" stroke-miterlimit="10" d="
				M37.422,19.438l-2.319,4.276V51.52c0,1.281,1.038,2.319,2.319,2.319l0,0c1.281,0,2.319-1.038,2.319-2.319V23.713L37.422,19.438z"
				/>
			
				<line fill="none" stroke="#2D346A" stroke-width="1.5" stroke-linecap="round" stroke-linejoin="round" stroke-miterlimit="10" x1="35.104" y1="23.713" x2="39.741" y2="23.713"/>
			
				<polyline fill="#E4C95C" stroke="#2D346A" stroke-width="1.5" stroke-linecap="round" stroke-linejoin="round" stroke-miterlimit="10" points="
				37.109,41.838 35.109,41.838 35.109,33.109 39.741,33.109 39.741,41.838 			"/>
			
				<line fill="none" stroke="#2D346A" stroke-width="1.5" stroke-linecap="round" stroke-linejoin="round" stroke-miterlimit="10" x1="37.422" y1="19.438" x2="37.422" y2="18.097"/>
		</g>
		<path fill="#E4C95C" d="M53.824,32.602c-0.002-0.201-0.071-1.202-1.2-1.202c-0.002,0-0.002,0-0.003,0c-0.002,0-0.003,0-0.005,0h0
			c-0.001,0-0.001,0-0.001,0h-0.001c0,0-0.001,0-0.002,0c-0.215-0.006-0.388-0.183-0.388-0.4c0-0.22,0.178-0.399,0.398-0.4
			c0.201-0.002,1.202-0.071,1.202-1.2c0-0.221,0.179-0.4,0.4-0.4c0.221,0,0.4,0.179,0.4,0.4c0,1.129,1.001,1.198,1.202,1.2
			c0.22,0.001,0.398,0.18,0.398,0.4c0,0.221-0.179,0.4-0.4,0.4c-1.129,0-1.198,1.002-1.2,1.2c0,0.002,0,0.002,0,0.002
			c0,0.003-0.001,0.006,0,0.006v0.001v0.001c0,0,0,0.001,0,0.002C54.618,32.827,54.441,33,54.224,33
			C54.004,33,53.825,32.822,53.824,32.602z"/>
		<path fill="#E4C95C" d="M10.006,36.761c-0.001-0.101-0.036-0.601-0.6-0.601H9.405H9.402h0H9.401H9.401h0
			c-0.108-0.003-0.195-0.091-0.195-0.2c0-0.11,0.089-0.199,0.199-0.2c0.101-0.001,0.601-0.036,0.601-0.6c0-0.111,0.089-0.2,0.2-0.2
			s0.2,0.089,0.2,0.2c0,0.564,0.5,0.599,0.601,0.6c0.11,0.001,0.199,0.09,0.199,0.2c0,0.111-0.089,0.2-0.2,0.2
			c-0.565,0-0.599,0.501-0.6,0.6c0,0.001,0,0.001,0,0.001c0,0.001-0.001,0.003-0.001,0.003c0.001,0,0.001,0,0.001,0v0.001v0.001
			c-0.003,0.108-0.091,0.194-0.2,0.194C10.096,36.96,10.006,36.871,10.006,36.761z"/>
		<path fill="#E4C95C" d="M1.6,47.102C1.598,46.901,1.529,45.9,0.4,45.9c-0.002,0-0.002,0-0.003,0c-0.002,0-0.003,0-0.005,0h0
			c-0.001,0-0.001,0-0.001,0s-0.001,0-0.001,0c0,0-0.001,0-0.002,0C0.173,45.894,0,45.717,0,45.5c0-0.22,0.178-0.399,0.398-0.4
			C0.599,45.098,1.6,45.028,1.6,43.9c0-0.221,0.179-0.4,0.4-0.4s0.4,0.179,0.4,0.4c0,1.129,1.001,1.198,1.202,1.2
			C3.822,45.101,4,45.28,4,45.5c0,0.221-0.179,0.4-0.4,0.4c-1.129,0-1.198,1.002-1.2,1.2c0,0.002,0,0.002,0,0.002
			c0,0.003-0.001,0.006,0,0.006v0.001c0,0,0,0.001,0,0.001v0.002C2.394,47.327,2.217,47.5,2,47.5C1.78,47.5,1.601,47.322,1.6,47.102
			z"/>
		<path fill="#E4C95C" d="M4.8,13.301C4.799,13.2,4.764,12.7,4.2,12.7H4.199H4.196h0H4.196H4.195h0C4.087,12.697,4,12.609,4,12.5
			c0-0.11,0.089-0.199,0.199-0.2C4.3,12.299,4.8,12.264,4.8,11.7c0-0.111,0.089-0.2,0.2-0.2s0.2,0.089,0.2,0.2
			c0,0.564,0.5,0.599,0.601,0.6C5.911,12.301,6,12.39,6,12.5c0,0.111-0.089,0.2-0.2,0.2c-0.565,0-0.599,0.501-0.6,0.6
			c0,0.001,0,0.001,0,0.001c0,0.001-0.001,0.003-0.001,0.003c0.001,0,0.001,0,0.001,0v0.001v0.001C5.197,13.413,5.109,13.5,5,13.5
			C4.89,13.5,4.801,13.411,4.8,13.301z"/>
		<path fill="#E4C95C" d="M62.8,41.301C62.799,41.2,62.764,40.7,62.2,40.7h-0.001h-0.002h0h-0.001h-0.001h0
			C62.087,40.697,62,40.609,62,40.5c0-0.11,0.089-0.199,0.199-0.2c0.101-0.001,0.601-0.036,0.601-0.6c0-0.111,0.089-0.2,0.2-0.2
			s0.2,0.089,0.2,0.2c0,0.564,0.5,0.599,0.601,0.6C63.911,40.301,64,40.39,64,40.5c0,0.111-0.089,0.2-0.2,0.2
			c-0.565,0-0.599,0.501-0.6,0.6c0,0.001,0,0.001,0,0.001c0,0.001-0.001,0.003-0.001,0.003c0.001,0,0.001,0,0.001,0v0.001v0.001
			C63.197,41.413,63.109,41.5,63,41.5C62.89,41.5,62.801,41.411,62.8,41.301z"/>
		<path fill="#E4C95C" d="M56.8,9.18c-0.001-0.101-0.036-0.601-0.6-0.601h-0.001h-0.002h0h-0.001h-0.001h0
			C56.087,8.576,56,8.487,56,8.379c0-0.11,0.089-0.199,0.199-0.2C56.3,8.178,56.8,8.143,56.8,7.579c0-0.111,0.089-0.2,0.2-0.2
			s0.2,0.089,0.2,0.2c0,0.564,0.5,0.599,0.601,0.6C57.911,8.179,58,8.269,58,8.379c0,0.111-0.089,0.2-0.2,0.2
			c-0.565,0-0.599,0.501-0.6,0.6c0,0.001,0,0.001,0,0.001c0,0.001-0.001,0.003-0.001,0.003c0.001,0,0.001,0,0.001,0v0.001v0.001
			c-0.003,0.108-0.091,0.194-0.2,0.194C56.89,9.379,56.801,9.29,56.8,9.18z"/>
	</g>
</g>
</svg>
