<?xml version="1.0" encoding="utf-8"?>
<!-- Generator: Adobe Illustrator 17.0.0, SVG Export Plug-In . SVG Version: 6.00 Build 0)  -->
<!DOCTYPE svg PUBLIC "-//W3C//DTD SVG 1.1//EN" "http://www.w3.org/Graphics/SVG/1.1/DTD/svg11.dtd">
<svg version="1.1" xmlns="http://www.w3.org/2000/svg" xmlns:xlink="http://www.w3.org/1999/xlink" x="0px" y="0px" width="64px"
	 height="64px" viewBox="0 0 64 64" enable-background="new 0 0 64 64" xml:space="preserve">
<g id="Layer_4">
</g>
<g id="Layer_3">
</g>
<g id="Layer_2">
</g>
<g id="Layer_1">
</g>
<g id="Layer_5">
	<g>
		<g>
			<g>
				<g>
					<g>
						<path fill="#FBFFFF" d="M59.5,31.287c0-15.188-12.312-27.5-27.5-27.5S4.5,16.099,4.5,31.287
							c0,9.396,4.715,17.687,11.905,22.647h31.191C54.785,48.973,59.5,40.682,59.5,31.287z"/>
					</g>
				</g>
				<g>
					<path fill="#2D346A" d="M49.794,54.684H14.206c-0.414,0-0.75-0.336-0.75-0.75s0.336-0.75,0.75-0.75h35.588
						c0.414,0,0.75,0.336,0.75,0.75S50.208,54.684,49.794,54.684z"/>
				</g>
				<g>
					<path fill="#FFFFFF" d="M43.625,57.919h-23.25c-0.414,0-0.75-0.336-0.75-0.75s0.336-0.75,0.75-0.75h23.25
						c0.414,0,0.75,0.336,0.75,0.75S44.039,57.919,43.625,57.919z"/>
				</g>
				<g>
					<path fill="#FFFFFF" d="M32.313,61.154h-4.672c-0.414,0-0.75-0.336-0.75-0.75s0.336-0.75,0.75-0.75h4.672
						c0.414,0,0.75,0.336,0.75,0.75S32.728,61.154,32.313,61.154z"/>
				</g>
				<g>
					<path fill="#FFFFFF" d="M36.415,61.154h-1.249c-0.414,0-0.75-0.336-0.75-0.75s0.336-0.75,0.75-0.75h1.249
						c0.414,0,0.75,0.336,0.75,0.75S36.829,61.154,36.415,61.154z"/>
				</g>
			</g>
			<g>
				<g>
					<circle fill="#E8F3FF" cx="32" cy="35.39" r="18.544"/>
				</g>
				<g>
					<path fill="#2D346A" d="M32.033,54.686c-0.565,0-1.134-0.024-1.704-0.074c-5.135-0.446-9.788-2.865-13.103-6.812
						c-6.843-8.146-5.783-20.34,2.363-27.184c8.146-6.84,20.341-5.783,27.184,2.363c0.267,0.317,0.226,0.79-0.092,1.057
						c-0.318,0.266-0.79,0.226-1.057-0.092c-6.312-7.514-17.558-8.49-25.07-2.18c-7.513,6.312-8.49,17.558-2.18,25.07
						c3.057,3.64,7.349,5.87,12.084,6.282c4.734,0.412,9.347-1.046,12.986-4.103c6.43-5.401,8.208-14.678,4.228-22.057
						c-0.197-0.365-0.061-0.82,0.304-1.017c0.364-0.194,0.819-0.061,1.016,0.304c4.316,8.003,2.389,18.062-4.583,23.918
						C40.902,53.11,36.561,54.686,32.033,54.686z"/>
				</g>
				<g>
					
						<path fill="none" stroke="#2D346A" stroke-width="1.5" stroke-linecap="round" stroke-linejoin="round" stroke-miterlimit="10" d="
						M46.199,23.462"/>
				</g>
			</g>
			<g>
				<path fill="#FFFFFF" d="M62.4,49.22c0.002-0.201,0.071-1.202,1.2-1.202c0.002,0,0.002,0,0.003,0c0.002,0,0.003,0,0.005,0h0
					c0.001,0,0.001,0,0.001,0h0.001c0,0,0.001,0,0.001,0c0.215-0.006,0.388-0.183,0.388-0.4c0-0.22-0.178-0.399-0.398-0.4
					c-0.201-0.002-1.202-0.071-1.202-1.2c0-0.221-0.179-0.4-0.4-0.4c-0.221,0-0.4,0.179-0.4,0.4c0,1.128-1.001,1.198-1.202,1.2
					c-0.22,0.001-0.398,0.18-0.398,0.4c0,0.221,0.179,0.4,0.4,0.4c1.129,0,1.198,1.002,1.2,1.2c0,0.002,0,0.002,0,0.002
					c0,0.003,0.001,0.006,0,0.006v0.001v0.001c0,0,0,0.001,0,0.002c0.006,0.215,0.183,0.388,0.4,0.388
					C62.22,49.618,62.399,49.44,62.4,49.22z"/>
			</g>
			<g>
				<path fill="#FFFFFF" d="M1.2,32.856c0.001-0.101,0.036-0.601,0.6-0.601h0.001h0.002h0h0.001h0.001h0
					C1.914,32.252,2,32.164,2,32.055c0-0.11-0.089-0.199-0.199-0.2C1.7,31.854,1.2,31.819,1.2,31.255c0-0.111-0.089-0.2-0.2-0.2
					c-0.11,0-0.2,0.09-0.2,0.2c0,0.564-0.5,0.599-0.601,0.6C0.089,31.856,0,31.945,0,32.055c0,0.111,0.089,0.2,0.2,0.2
					c0.565,0,0.599,0.501,0.6,0.6v0.001c0,0.001,0.001,0.003,0.001,0.003c-0.001,0-0.001,0-0.001,0v0.001v0.001
					c0.003,0.108,0.091,0.194,0.2,0.194C1.11,33.055,1.199,32.966,1.2,32.856z"/>
			</g>
			<g>
				<path fill="#FFFFFF" d="M60.7,17.443c0.001-0.101,0.036-0.601,0.6-0.601c0.001,0,0.001,0,0.001,0c0.001,0,0.002,0,0.003,0h0
					h0.001h0.001c0,0,0,0,0.001,0c0.108-0.003,0.194-0.091,0.194-0.2c0-0.11-0.089-0.199-0.199-0.2
					c-0.101-0.001-0.601-0.036-0.601-0.6c0-0.111-0.089-0.2-0.2-0.2c-0.111,0-0.2,0.089-0.2,0.2c0,0.564-0.5,0.599-0.601,0.6
					c-0.11,0-0.199,0.09-0.199,0.2c0,0.111,0.09,0.2,0.2,0.2c0.565,0,0.599,0.501,0.6,0.6c0,0.001,0,0.001,0,0.001
					c0,0.001,0.001,0.003,0,0.003v0.001v0v0.001c0.003,0.108,0.091,0.194,0.2,0.194C60.61,17.642,60.699,17.553,60.7,17.443z"/>
			</g>
			<g>
				<path fill="#E4C95C" d="M13.656,21.038c0.001-0.101,0.036-0.601,0.6-0.601c0.001,0,0.001,0,0.001,0c0.001,0,0.002,0,0.003,0h0
					h0.001h0.001h0.001c0.108-0.003,0.194-0.091,0.194-0.2c0-0.11-0.089-0.199-0.199-0.2c-0.101-0.001-0.601-0.036-0.601-0.6
					c0-0.111-0.09-0.2-0.2-0.2c-0.111,0-0.2,0.09-0.2,0.2c0,0.564-0.5,0.599-0.601,0.6c-0.11,0.001-0.199,0.09-0.199,0.2
					c0,0.111,0.089,0.2,0.2,0.2c0.565,0,0.599,0.501,0.6,0.6v0.001c0,0.001,0.001,0.003,0,0.003v0v0v0.001
					c0.003,0.108,0.091,0.194,0.2,0.194C13.566,21.237,13.655,21.148,13.656,21.038z"/>
			</g>
			<g>
				<path fill="#FFFFFF" d="M12.908,7.198c0.002-0.201,0.071-1.202,1.2-1.202c0.002,0,0.002,0,0.002,0c0.002,0,0.004,0,0.005,0h0
					c0.001,0,0.001,0,0.001,0h0.001c0,0,0.001,0,0.002,0c0.215-0.006,0.388-0.183,0.388-0.4c0-0.22-0.178-0.399-0.398-0.4
					c-0.201-0.002-1.202-0.071-1.202-1.2c0-0.221-0.179-0.4-0.4-0.4c-0.221,0-0.4,0.179-0.4,0.4c0,1.129-1.001,1.198-1.202,1.2
					c-0.22,0.001-0.398,0.18-0.398,0.4c0,0.221,0.179,0.4,0.4,0.4c1.129,0,1.198,1.002,1.2,1.2c0,0.002,0,0.002,0,0.003
					c0,0.002,0.001,0.005,0,0.005c0,0.001,0,0.001,0,0.001v0.001c0,0,0,0.001,0,0.002c0.006,0.215,0.183,0.388,0.4,0.388
					C12.729,7.596,12.907,7.417,12.908,7.198z"/>
			</g>
			<g>
				<path fill="#E4C95C" d="M43.964,14.198c0.002-0.201,0.072-1.202,1.2-1.202c0.002,0,0.002,0,0.002,0c0.002,0,0.004,0,0.006,0h0
					c0.001,0,0.001,0,0.001,0h0.001c0,0,0.001,0,0.002,0c0.215-0.006,0.388-0.183,0.388-0.4c0-0.22-0.178-0.399-0.398-0.4
					c-0.201-0.002-1.202-0.071-1.202-1.2c0-0.221-0.179-0.4-0.4-0.4s-0.4,0.179-0.4,0.4c0,1.129-1.001,1.198-1.202,1.2
					c-0.22,0.001-0.398,0.18-0.398,0.4c0,0.221,0.179,0.4,0.4,0.4c1.129,0,1.198,1.002,1.2,1.2c0,0.002,0,0.002,0,0.003
					c0,0.002,0.001,0.005,0,0.005c0,0.001,0,0.001,0,0.001v0.001c0,0,0,0.001,0,0.002c0.006,0.215,0.183,0.388,0.4,0.388
					C43.785,14.596,43.963,14.417,43.964,14.198z"/>
			</g>
		</g>
	</g>
</g>
</svg>
