<?xml version="1.0" encoding="utf-8"?>
<!-- Generator: Adobe Illustrator 17.0.0, SVG Export Plug-In . SVG Version: 6.00 Build 0)  -->
<!DOCTYPE svg PUBLIC "-//W3C//DTD SVG 1.1//EN" "http://www.w3.org/Graphics/SVG/1.1/DTD/svg11.dtd">
<svg version="1.1" xmlns="http://www.w3.org/2000/svg" xmlns:xlink="http://www.w3.org/1999/xlink" x="0px" y="0px" width="64px"
	 height="64px" viewBox="0 0 64 64" enable-background="new 0 0 64 64" xml:space="preserve">
<g id="Layer_4">
</g>
<g id="Layer_3">
</g>
<g id="Layer_2">
</g>
<g id="Layer_1">
</g>
<g id="Layer_5">
	<g>
		<g>
			<g>
				<g>
					<g>
						<path fill="#FBFFFF" d="M59.5,31.287c0-15.188-12.312-27.5-27.5-27.5S4.5,16.099,4.5,31.287
							c0,9.396,4.715,17.687,11.905,22.647h31.191C54.785,48.973,59.5,40.682,59.5,31.287z"/>
					</g>
				</g>
				<g>
					<path fill="#2D346A" d="M49.794,54.684H14.206c-0.414,0-0.75-0.336-0.75-0.75s0.336-0.75,0.75-0.75h35.588
						c0.414,0,0.75,0.336,0.75,0.75S50.208,54.684,49.794,54.684z"/>
				</g>
				<g>
					<path fill="#FFFFFF" d="M43.625,57.919h-23.25c-0.414,0-0.75-0.336-0.75-0.75s0.336-0.75,0.75-0.75h23.25
						c0.414,0,0.75,0.336,0.75,0.75S44.039,57.919,43.625,57.919z"/>
				</g>
				<g>
					<path fill="#FFFFFF" d="M32.313,61.154h-4.672c-0.414,0-0.75-0.336-0.75-0.75s0.336-0.75,0.75-0.75h4.672
						c0.414,0,0.75,0.336,0.75,0.75S32.728,61.154,32.313,61.154z"/>
				</g>
				<g>
					<path fill="#FFFFFF" d="M36.415,61.154h-1.249c-0.414,0-0.75-0.336-0.75-0.75s0.336-0.75,0.75-0.75h1.249
						c0.414,0,0.75,0.336,0.75,0.75S36.829,61.154,36.415,61.154z"/>
				</g>
			</g>
			<g>
				<g>
					<path fill="#E8F3FF" d="M45.695,10.328c1.657,0,3,1.343,3,3v37.606c0,1.657-1.343,3-3,3H18.305c-1.657,0-3-1.343-3-3V13.328
						c0-1.657,1.343-3,3-3h24.389"/>
					<path fill="#2D346A" d="M45.694,54.684H18.306c-2.067,0-3.75-1.683-3.75-3.75V13.328c0-2.067,1.683-3.75,3.75-3.75h24.389
						c0.414,0,0.75,0.336,0.75,0.75s-0.336,0.75-0.75,0.75H18.306c-1.24,0-2.25,1.01-2.25,2.25v37.605c0,1.24,1.01,2.25,2.25,2.25
						h27.389c1.24,0,2.25-1.01,2.25-2.25V13.328c0-1.24-1.01-2.25-2.25-2.25c-0.414,0-0.75-0.336-0.75-0.75s0.336-0.75,0.75-0.75
						c2.067,0,3.75,1.683,3.75,3.75v37.605C49.444,53.001,47.762,54.684,45.694,54.684z"/>
				</g>
				<g>
					<polyline fill="#C3CCE9" points="18.305,26.513 18.305,41.934 45.695,41.934 45.695,13.328 18.305,13.328 18.305,23.513 					
						"/>
					<path fill="#2D346A" d="M45.694,42.684H18.306c-0.414,0-0.75-0.336-0.75-0.75V26.513c0-0.414,0.336-0.75,0.75-0.75
						s0.75,0.336,0.75,0.75v14.671h25.889V14.078H19.056v9.435c0,0.414-0.336,0.75-0.75,0.75s-0.75-0.336-0.75-0.75V13.328
						c0-0.414,0.336-0.75,0.75-0.75h27.389c0.414,0,0.75,0.336,0.75,0.75v28.605C46.444,42.348,46.108,42.684,45.694,42.684z"/>
				</g>
				<g>
					<circle fill="#FFFFFF" cx="32" cy="48.056" r="3.021"/>
					<path fill="#2D346A" d="M32,51.827c-2.079,0-3.771-1.691-3.771-3.771c0-2.079,1.691-3.771,3.771-3.771s3.771,1.691,3.771,3.771
						C35.771,50.136,34.079,51.827,32,51.827z M32,45.785c-1.252,0-2.271,1.019-2.271,2.271c0,1.253,1.019,2.271,2.271,2.271
						s2.271-1.019,2.271-2.271C34.271,46.804,33.252,45.785,32,45.785z"/>
				</g>
				<g>
					<path fill="#2D346A" d="M43.694,50.684c-0.414,0-0.75-0.336-0.75-0.75v-4c0-0.414,0.336-0.75,0.75-0.75s0.75,0.336,0.75,0.75v4
						C44.444,50.348,44.108,50.684,43.694,50.684z"/>
				</g>
				<g>
					<path fill="#2D346A" d="M24.694,50.684c-0.414,0-0.75-0.336-0.75-0.75v-4c0-0.414,0.336-0.75,0.75-0.75s0.75,0.336,0.75,0.75v4
						C25.444,50.348,25.108,50.684,24.694,50.684z"/>
				</g>
				<g>
					<path fill="#2D346A" d="M20.694,50.684c-0.414,0-0.75-0.336-0.75-0.75v-4c0-0.414,0.336-0.75,0.75-0.75s0.75,0.336,0.75,0.75v4
						C21.444,50.348,21.108,50.684,20.694,50.684z"/>
				</g>
			</g>
			<g>
				<g>
					<path fill="#E8F3FF" d="M37.422,19.533l-2.319,4.276v27.806c0,1.28,1.038,2.319,2.319,2.319l0,0
						c1.28,0,2.319-1.038,2.319-2.319V23.809L37.422,19.533z"/>
					<path fill="#2D346A" d="M37.422,54.684c-1.692,0-3.068-1.376-3.068-3.068V23.809c0-0.125,0.031-0.248,0.091-0.357l2.318-4.275
						c0.262-0.484,1.057-0.484,1.318,0l2.319,4.275c0.06,0.109,0.091,0.232,0.091,0.357v27.807
						C40.491,53.308,39.114,54.684,37.422,54.684z M35.854,23.999v27.616c0,0.865,0.703,1.568,1.568,1.568s1.569-0.703,1.569-1.568
						V23.999l-1.569-2.893L35.854,23.999z"/>
				</g>
				<g>
					<path fill="#2D346A" d="M39.741,24.559h-4.638c-0.414,0-0.75-0.336-0.75-0.75s0.336-0.75,0.75-0.75h4.638
						c0.414,0,0.75,0.336,0.75,0.75S40.155,24.559,39.741,24.559z"/>
				</g>
				<g>
					<polyline fill="#E4C95C" points="37.109,41.934 35.109,41.934 35.109,33.205 39.741,33.205 39.741,41.934 					"/>
					<path fill="#2D346A" d="M39.741,42.684c-0.414,0-0.75-0.336-0.75-0.75v-7.979h-3.132v7.229h1.25c0.414,0,0.75,0.336,0.75,0.75
						s-0.336,0.75-0.75,0.75h-2c-0.414,0-0.75-0.336-0.75-0.75v-8.729c0-0.414,0.336-0.75,0.75-0.75h4.632
						c0.414,0,0.75,0.336,0.75,0.75v8.729C40.491,42.348,40.155,42.684,39.741,42.684z"/>
				</g>
				<g>
					<path fill="#2D346A" d="M37.422,20.283c-0.414,0-0.75-0.336-0.75-0.75v-1.341c0-0.414,0.336-0.75,0.75-0.75
						s0.75,0.336,0.75,0.75v1.341C38.172,19.947,37.836,20.283,37.422,20.283z"/>
				</g>
			</g>
			<g>
				<path fill="#E4C95C" d="M53.824,32.698c-0.002-0.201-0.072-1.202-1.2-1.202c-0.002,0-0.002,0-0.003,0c-0.001,0-0.003,0-0.005,0
					h0c-0.001,0-0.001,0-0.001,0h-0.001c0,0-0.001,0-0.002,0c-0.215-0.006-0.388-0.183-0.388-0.4c0-0.22,0.178-0.399,0.398-0.4
					c0.201-0.002,1.202-0.072,1.202-1.2c0-0.221,0.179-0.4,0.4-0.4c0.221,0,0.4,0.179,0.4,0.4c0,1.128,1.001,1.198,1.202,1.2
					c0.22,0.001,0.398,0.18,0.398,0.4c0,0.221-0.179,0.4-0.4,0.4c-1.129,0-1.198,1.002-1.2,1.2c0,0.002,0,0.002,0,0.002
					c0,0.003-0.001,0.006,0,0.006v0.001v0.001c0,0,0,0.001,0,0.002c-0.006,0.215-0.183,0.388-0.4,0.388
					C54.004,33.096,53.825,32.918,53.824,32.698z"/>
			</g>
			<g>
				<path fill="#E4C95C" d="M10.006,36.856c-0.001-0.101-0.036-0.601-0.6-0.601H9.404H9.402h0H9.401H9.401h0
					c-0.108-0.003-0.194-0.091-0.194-0.2c0-0.11,0.089-0.199,0.199-0.2c0.101-0.001,0.601-0.036,0.601-0.6c0-0.11,0.09-0.2,0.2-0.2
					c0.111,0,0.2,0.09,0.2,0.2c0,0.564,0.5,0.599,0.601,0.6c0.11,0.001,0.199,0.09,0.199,0.2c0,0.111-0.089,0.2-0.2,0.2
					c-0.565,0-0.599,0.501-0.6,0.6c0,0.001,0,0.001,0,0.001c0,0.001-0.001,0.003-0.001,0.003c0.001,0,0.001,0,0.001,0v0.001v0.001
					c-0.003,0.108-0.091,0.194-0.2,0.194C10.096,37.055,10.006,36.966,10.006,36.856z"/>
			</g>
			<g>
				<path fill="#FFFFFF" d="M1.6,47.198c-0.002-0.201-0.071-1.202-1.2-1.202c-0.001,0-0.002,0-0.003,0c-0.002,0-0.003,0-0.005,0h0
					c-0.001,0-0.001,0-0.001,0H0.39c0,0-0.001,0-0.002,0C0.173,45.989,0,45.813,0,45.596c0-0.22,0.178-0.399,0.398-0.4
					c0.201-0.002,1.202-0.071,1.202-1.2c0-0.221,0.179-0.4,0.4-0.4c0.221,0,0.4,0.179,0.4,0.4c0,1.129,1.001,1.198,1.202,1.2
					C3.822,45.197,4,45.375,4,45.596c0,0.221-0.179,0.4-0.4,0.4c-1.129,0-1.198,1.002-1.2,1.2c0,0.002,0,0.002,0,0.002
					c0,0.003-0.001,0.006,0,0.006v0.001v0.001v0.002c-0.006,0.215-0.183,0.388-0.4,0.388C1.78,47.596,1.601,47.417,1.6,47.198z"/>
			</g>
			<g>
				<path fill="#FFFFFF" d="M4.8,13.397c-0.001-0.101-0.036-0.601-0.6-0.601H4.199H4.196h0H4.195H4.195h0
					C4.086,12.792,4,12.704,4,12.596c0-0.11,0.089-0.199,0.199-0.2C4.3,12.394,4.8,12.36,4.8,11.796c0-0.111,0.089-0.2,0.2-0.2
					c0.111,0,0.2,0.09,0.2,0.2c0,0.564,0.5,0.599,0.601,0.6C5.911,12.396,6,12.485,6,12.596c0,0.111-0.089,0.2-0.2,0.2
					c-0.565,0-0.599,0.501-0.6,0.6c0,0.001,0,0.001,0,0.001c0,0.001-0.001,0.003-0.001,0.003c0.001,0,0.001,0,0.001,0v0.001v0.001
					c-0.003,0.108-0.091,0.194-0.2,0.194C4.89,13.596,4.801,13.507,4.8,13.397z"/>
			</g>
			<g>
				<path fill="#FFFFFF" d="M62.8,41.397c-0.001-0.101-0.036-0.601-0.6-0.601h-0.001h-0.002h0h-0.001h-0.001h0
					C62.086,40.792,62,40.704,62,40.596c0-0.11,0.089-0.199,0.199-0.2c0.101-0.001,0.601-0.036,0.601-0.6c0-0.111,0.09-0.2,0.2-0.2
					c0.111,0,0.2,0.09,0.2,0.2c0,0.564,0.5,0.599,0.601,0.6c0.11,0.001,0.199,0.09,0.199,0.2c0,0.111-0.089,0.2-0.2,0.2
					c-0.565,0-0.599,0.501-0.6,0.6c0,0.001,0,0.001,0,0.001c0,0.001-0.001,0.003-0.001,0.003c0.001,0,0.001,0,0.001,0v0.001v0.001
					c-0.003,0.108-0.091,0.194-0.2,0.194C62.89,41.596,62.801,41.507,62.8,41.397z"/>
			</g>
			<g>
				<path fill="#FFFFFF" d="M56.8,9.275c-0.001-0.101-0.036-0.601-0.6-0.601h-0.001h-0.002h0h-0.001h-0.001h0
					C56.086,8.671,56,8.583,56,8.474c0-0.11,0.089-0.199,0.199-0.2C56.3,8.273,56.8,8.239,56.8,7.674c0-0.11,0.09-0.2,0.2-0.2
					c0.111,0,0.2,0.089,0.2,0.2c0,0.564,0.5,0.599,0.601,0.6C57.911,8.275,58,8.364,58,8.474c0,0.111-0.089,0.2-0.2,0.2
					c-0.565,0-0.599,0.501-0.6,0.6c0,0.001,0,0.001,0,0.001c0,0.001-0.001,0.003-0.001,0.003c0.001,0,0.001,0,0.001,0v0.001V9.28
					c-0.003,0.108-0.091,0.194-0.2,0.194C56.89,9.474,56.801,9.385,56.8,9.275z"/>
			</g>
		</g>
	</g>
</g>
</svg>
