<?xml version="1.0" encoding="utf-8"?>
<!-- Generator: Adobe Illustrator 17.0.0, SVG Export Plug-In . SVG Version: 6.00 Build 0)  -->
<!DOCTYPE svg PUBLIC "-//W3C//DTD SVG 1.1//EN" "http://www.w3.org/Graphics/SVG/1.1/DTD/svg11.dtd">
<svg version="1.1" xmlns="http://www.w3.org/2000/svg" xmlns:xlink="http://www.w3.org/1999/xlink" x="0px" y="0px" width="64px"
	 height="64px" viewBox="0 0 64 64" enable-background="new 0 0 64 64" xml:space="preserve">
<g id="Layer_4">
</g>
<g id="Layer_3">
</g>
<g id="Layer_2">
</g>
<g id="Layer_1">
</g>
<g id="Layer_5">
	<g>
		<g>
			<g>
				<g>
					<g>
						<path fill="#FBFFFF" d="M59.5,31.287c0-15.188-12.312-27.5-27.5-27.5S4.5,16.099,4.5,31.287
							c0,9.396,4.715,17.687,11.905,22.647h31.191C54.785,48.973,59.5,40.682,59.5,31.287z"/>
					</g>
				</g>
				<g>
					<path fill="#2D346A" d="M49.794,54.684H14.206c-0.414,0-0.75-0.336-0.75-0.75s0.336-0.75,0.75-0.75h35.588
						c0.414,0,0.75,0.336,0.75,0.75S50.208,54.684,49.794,54.684z"/>
				</g>
				<g>
					<path fill="#FFFFFF" d="M43.625,57.919h-23.25c-0.414,0-0.75-0.336-0.75-0.75s0.336-0.75,0.75-0.75h23.25
						c0.414,0,0.75,0.336,0.75,0.75S44.039,57.919,43.625,57.919z"/>
				</g>
				<g>
					<path fill="#FFFFFF" d="M32.313,61.154h-4.672c-0.414,0-0.75-0.336-0.75-0.75s0.336-0.75,0.75-0.75h4.672
						c0.414,0,0.75,0.336,0.75,0.75S32.728,61.154,32.313,61.154z"/>
				</g>
				<g>
					<path fill="#FFFFFF" d="M36.415,61.154h-1.249c-0.414,0-0.75-0.336-0.75-0.75s0.336-0.75,0.75-0.75h1.249
						c0.414,0,0.75,0.336,0.75,0.75S36.829,61.154,36.415,61.154z"/>
				</g>
			</g>
			<g>
				<g>
					<polyline fill="#E8F3FF" points="47.5,43.762 47.5,23.25 20.314,23.25 20.314,53.934 47.5,53.934 47.5,46.762 					"/>
				</g>
				<g>
					<path fill="#2D346A" d="M47.5,22.039c-0.414,0-0.75-0.336-0.75-0.75c0-7.082-5.762-12.844-12.843-12.844
						c-7.082,0-12.844,5.762-12.844,12.844c0,0.414-0.336,0.75-0.75,0.75s-0.75-0.336-0.75-0.75c0-7.909,6.435-14.344,14.344-14.344
						c7.908,0,14.343,6.435,14.343,14.344C48.25,21.703,47.914,22.039,47.5,22.039z"/>
				</g>
				<g>
					<path fill="#C3CCE9" d="M47.5,25.048h-2.523h-3.104h-3.104h-3.104H20.314v2.305h15.351v3.784c0,0.857,0.695,1.552,1.552,1.552
						c0.857,0,1.552-0.695,1.552-1.552v-1.696c0-0.857,0.695-1.552,1.552-1.552c0.857,0,1.552,0.695,1.552,1.552v5.192
						c0,0.857,0.695,1.552,1.552,1.552c0.857,0,1.552-0.695,1.552-1.552v-7.28H47.5V25.048z"/>
				</g>
				<g>
					<path fill="#2D346A" d="M47.5,54.684H20.313c-0.414,0-0.75-0.336-0.75-0.75V23.25c0-0.414,0.336-0.75,0.75-0.75H47.5
						c0.414,0,0.75,0.336,0.75,0.75v20.513c0,0.414-0.336,0.75-0.75,0.75s-0.75-0.336-0.75-0.75V24H21.063v29.184H46.75v-6.421
						c0-0.414,0.336-0.75,0.75-0.75s0.75,0.336,0.75,0.75v7.171C48.25,54.348,47.914,54.684,47.5,54.684z"/>
				</g>
				<g>
					<polyline fill="#E8F3FF" points="26.625,25.048 18.02,25.048 18.02,21.529 49.794,21.529 49.794,25.048 29.625,25.048 					"/>
					<path fill="#2D346A" d="M49.794,25.798H29.625c-0.414,0-0.75-0.336-0.75-0.75s0.336-0.75,0.75-0.75h19.419v-2.019H18.77v2.019
						h7.855c0.414,0,0.75,0.336,0.75,0.75s-0.336,0.75-0.75,0.75H18.02c-0.414,0-0.75-0.336-0.75-0.75v-3.519
						c0-0.414,0.336-0.75,0.75-0.75h31.774c0.414,0,0.75,0.336,0.75,0.75v3.519C50.544,25.462,50.208,25.798,49.794,25.798z"/>
				</g>
			</g>
			<g>
				<g>
					
						<rect x="12.351" y="29.57" transform="matrix(1 0.0011 -0.0011 1 0.0381 -0.0227)" fill="#E4C95C" width="16.987" height="10.782"/>
				</g>
				<g>
					<path fill="#2D346A" d="M15.751,33.996L15.751,33.996c-0.415,0-0.75-0.337-0.75-0.751l0.004-3.682
						c0-0.414,0.336-0.749,0.75-0.749h0.001c0.414,0,0.749,0.337,0.749,0.751l-0.004,3.682
						C16.501,33.661,16.165,33.996,15.751,33.996z"/>
				</g>
				<g>
					<path fill="#2D346A" d="M19.146,35.709L19.146,35.709c-0.415,0-0.75-0.337-0.75-0.751l0.006-5.391
						c0-0.414,0.336-0.749,0.75-0.749h0.001c0.414,0,0.749,0.337,0.749,0.751l-0.006,5.391
						C19.896,35.374,19.561,35.709,19.146,35.709z"/>
				</g>
				<g>
					<path fill="#2D346A" d="M25.944,32.298C25.944,32.298,25.944,32.298,25.944,32.298c-0.415,0-0.75-0.337-0.75-0.751l0.002-1.972
						c0-0.414,0.336-0.749,0.75-0.749c0,0,0,0,0.001,0c0.414,0,0.749,0.337,0.749,0.751l-0.002,1.972
						C26.694,31.963,26.358,32.298,25.944,32.298z"/>
				</g>
				<g>
					<path fill="#2D346A" d="M22.545,34.004L22.545,34.004c-0.415,0-0.75-0.337-0.75-0.751l0.004-3.682
						c0-0.414,0.336-0.749,0.75-0.749h0.001c0.414,0,0.749,0.337,0.749,0.751l-0.004,3.682
						C23.295,33.669,22.959,34.004,22.545,34.004z"/>
				</g>
				<g>
					<path fill="#2D346A" d="M29.332,41.111L29.332,41.111l-16.987-0.019c-0.414,0-0.749-0.337-0.749-0.751l0.012-11.04
						c0-0.199,0.079-0.39,0.221-0.53c0.141-0.14,0.331-0.219,0.529-0.219h0.001l16.987,0.019c0.199,0,0.39,0.079,0.53,0.221
						c0.141,0.141,0.219,0.331,0.219,0.53l-0.01,8.476c0,0.414-0.336,0.749-0.75,0.749h-0.001c-0.414,0-0.749-0.337-0.749-0.751
						l0.009-7.726l-15.487-0.017l-0.01,9.54l16.236,0.018c0.414,0,0.749,0.337,0.749,0.751S29.746,41.111,29.332,41.111z"/>
				</g>
				<g>
					<path fill="#E8F3FF" d="M10.636,40.341l-0.003,2.675c-0.002,1.416,1.145,2.566,2.561,2.567l5.001,0.005l-0.006,5.556
						c-0.002,1.416,1.145,2.566,2.562,2.567l0.147,0c1.416,0.001,2.566-1.145,2.567-2.562l0.006-5.556l5.001,0.006
						c1.416,0.001,2.566-1.145,2.567-2.562l0.003-2.675L10.636,40.341z"/>
					<path fill="#2D346A" d="M20.901,54.462c-0.001,0-0.005,0-0.005,0h-0.146c-1.827-0.001-3.313-1.489-3.312-3.317l0.005-4.807
						l-4.251-0.005c-0.885-0.001-1.717-0.346-2.342-0.973s-0.97-1.459-0.969-2.345l0.003-2.676c0-0.199,0.079-0.39,0.221-0.53
						c0.141-0.14,0.331-0.219,0.529-0.219h0.001l20.406,0.022c0.414,0,0.749,0.337,0.749,0.751l-0.003,2.675
						c-0.003,1.825-1.489,3.311-3.313,3.311l0,0l-4.256-0.004l-0.005,4.806C24.212,52.977,22.726,54.462,20.901,54.462z
						 M11.385,41.092l-0.002,1.926c0,0.484,0.188,0.94,0.53,1.283s0.798,0.532,1.282,0.532l5.001,0.006
						c0.414,0,0.749,0.337,0.749,0.751l-0.006,5.557c-0.001,1,0.813,1.814,1.813,1.815h0.149c0.998,0,1.813-0.813,1.813-1.813
						l0.006-5.556c0-0.414,0.336-0.749,0.75-0.749c0,0,0,0,0.001,0l5.001,0.005c1.001,0,1.815-0.813,1.816-1.813l0.002-1.925
						L11.385,41.092z"/>
				</g>
				<g>
					<circle fill="#C3CCE9" cx="20.827" cy="51.202" r="0.855"/>
				</g>
			</g>
			<g>
				<path fill="#FFFFFF" d="M3.6,50.22c-0.002-0.201-0.072-1.202-1.2-1.202c-0.002,0-0.002,0-0.003,0c-0.002,0-0.003,0-0.005,0h0
					c-0.001,0-0.001,0-0.001,0H2.39c0,0-0.001,0-0.002,0C2.173,49.012,2,48.836,2,48.618c0-0.22,0.178-0.399,0.398-0.4
					c0.201-0.002,1.202-0.071,1.202-1.2c0-0.221,0.179-0.4,0.4-0.4c0.221,0,0.4,0.179,0.4,0.4c0,1.128,1.001,1.198,1.202,1.2
					C5.822,48.22,6,48.398,6,48.618c0,0.221-0.179,0.4-0.4,0.4c-1.129,0-1.198,1.002-1.2,1.2c0,0.002,0,0.002,0,0.002
					c0,0.003-0.001,0.006,0,0.006v0.001v0.001c0,0,0,0.001,0,0.001c-0.006,0.215-0.183,0.388-0.4,0.388
					C3.78,50.618,3.601,50.44,3.6,50.22z"/>
			</g>
			<g>
				<path fill="#FFFFFF" d="M62.8,43.443c-0.001-0.101-0.036-0.601-0.6-0.601h-0.001h-0.002h0h-0.001h-0.001h0
					C62.086,42.839,62,42.75,62,42.642c0-0.11,0.089-0.2,0.199-0.2c0.101-0.001,0.601-0.036,0.601-0.6c0-0.111,0.09-0.2,0.2-0.2
					c0.111,0,0.2,0.089,0.2,0.2c0,0.564,0.5,0.599,0.601,0.6c0.11,0,0.199,0.09,0.199,0.2c0,0.111-0.089,0.2-0.2,0.2
					c-0.565,0-0.599,0.501-0.6,0.6c0,0.001,0,0.001,0,0.001c0,0.001-0.001,0.003-0.001,0.003c0.001,0,0.001,0,0.001,0v0.001v0.001
					c-0.003,0.108-0.091,0.194-0.2,0.194C62.89,43.642,62.801,43.553,62.8,43.443z"/>
			</g>
			<g>
				<path fill="#FFFFFF" d="M55.127,8.497c-0.001-0.101-0.036-0.601-0.6-0.601h-0.001h-0.002h0h-0.001h-0.001h0
					c-0.108-0.003-0.194-0.091-0.194-0.2c0-0.11,0.089-0.199,0.199-0.2c0.101-0.001,0.601-0.036,0.601-0.6c0-0.11,0.089-0.2,0.2-0.2
					c0.111,0,0.2,0.089,0.2,0.2c0,0.564,0.5,0.599,0.601,0.6c0.11,0.001,0.199,0.09,0.199,0.2c0,0.111-0.089,0.2-0.2,0.2
					c-0.565,0-0.599,0.501-0.6,0.6c0,0.001,0,0.001,0,0.001c0,0.001-0.001,0.003-0.001,0.003c0.001,0,0.001,0,0.001,0v0.001v0.001
					c-0.003,0.108-0.091,0.194-0.2,0.194C55.217,8.696,55.128,8.607,55.127,8.497z"/>
			</g>
			<g>
				<path fill="#E4C95C" d="M32.114,15.19c-0.001-0.101-0.036-0.601-0.6-0.601h-0.001H31.51h0h0h-0.001h0
					c-0.108-0.003-0.195-0.091-0.195-0.2c0-0.11,0.089-0.199,0.199-0.2c0.101-0.001,0.601-0.036,0.601-0.6c0-0.111,0.09-0.2,0.2-0.2
					c0.111,0,0.2,0.09,0.2,0.2c0,0.564,0.5,0.599,0.601,0.6c0.11,0.001,0.199,0.09,0.199,0.2c0,0.111-0.089,0.2-0.2,0.2
					c-0.565,0-0.599,0.501-0.6,0.6v0.001c0,0.001,0,0.003,0,0.003c0,0,0,0,0,0v0.001v0.001c-0.003,0.108-0.091,0.194-0.2,0.194
					C32.204,15.389,32.114,15.3,32.114,15.19z"/>
			</g>
			<g>
				<path fill="#E4C95C" d="M52.927,33.087c-0.002-0.201-0.072-1.202-1.2-1.202c-0.002,0-0.002,0-0.003,0c-0.002,0-0.003,0-0.005,0
					h0c-0.001,0-0.001,0-0.001,0h-0.001c0,0-0.001,0-0.002,0c-0.215-0.006-0.388-0.183-0.388-0.4c0-0.22,0.178-0.399,0.398-0.4
					c0.201-0.002,1.202-0.071,1.202-1.2c0-0.221,0.179-0.4,0.4-0.4c0.221,0,0.4,0.179,0.4,0.4c0,1.129,1.001,1.198,1.202,1.2
					c0.22,0.001,0.398,0.18,0.398,0.4c0,0.221-0.179,0.4-0.4,0.4c-1.129,0-1.198,1.002-1.2,1.2c0,0.002,0,0.002,0,0.002
					c0,0.003-0.001,0.006,0,0.006v0.001v0.001v0.002c-0.006,0.215-0.183,0.388-0.4,0.388C53.107,33.485,52.928,33.307,52.927,33.087
					z"/>
			</g>
			<g>
				<path fill="#E4C95C" d="M11.806,23.891c-0.002-0.201-0.071-1.202-1.2-1.202c-0.002,0-0.002,0-0.003,0c-0.002,0-0.003,0-0.005,0
					h0c-0.001,0-0.001,0-0.001,0h-0.001c0,0-0.001,0-0.002,0c-0.215-0.006-0.388-0.183-0.388-0.4c0-0.22,0.178-0.399,0.398-0.4
					c0.201-0.002,1.202-0.072,1.202-1.2c0-0.221,0.179-0.4,0.4-0.4s0.4,0.179,0.4,0.4c0,1.128,1.001,1.198,1.202,1.2
					c0.22,0.001,0.398,0.18,0.398,0.4c0,0.221-0.179,0.4-0.4,0.4c-1.129,0-1.198,1.002-1.2,1.2c0,0.001,0,0.002,0,0.002
					c0,0.003-0.001,0.006,0,0.006v0.001v0.001V23.9c-0.006,0.215-0.183,0.388-0.4,0.388C11.986,24.289,11.807,24.111,11.806,23.891z
					"/>
			</g>
			<g>
				<path fill="#FFFFFF" d="M0.8,15.397c-0.001-0.101-0.036-0.601-0.6-0.601H0.199H0.196h0H0.195H0.195h0
					C0.086,14.792,0,14.704,0,14.596c0-0.11,0.089-0.199,0.199-0.2C0.3,14.394,0.8,14.36,0.8,13.796c0-0.111,0.09-0.2,0.2-0.2
					c0.111,0,0.2,0.09,0.2,0.2c0,0.564,0.5,0.599,0.601,0.6C1.911,14.396,2,14.485,2,14.596c0,0.111-0.089,0.2-0.2,0.2
					c-0.565,0-0.599,0.501-0.6,0.6c0,0.001,0,0.001,0,0.001c0,0.001-0.001,0.003-0.001,0.003c0.001,0,0.001,0,0.001,0v0.001v0.001
					c-0.003,0.108-0.091,0.194-0.2,0.194C0.89,15.596,0.801,15.507,0.8,15.397z"/>
			</g>
		</g>
	</g>
</g>
</svg>
