<?xml version="1.0" encoding="utf-8"?>
<!-- Generator: Adobe Illustrator 18.0.0, SVG Export Plug-In . SVG Version: 6.00 Build 0)  -->
<!DOCTYPE svg PUBLIC "-//W3C//DTD SVG 1.1//EN" "http://www.w3.org/Graphics/SVG/1.1/DTD/svg11.dtd">
<svg version="1.1" id="Layer_1" xmlns="http://www.w3.org/2000/svg" xmlns:xlink="http://www.w3.org/1999/xlink" x="0px" y="0px"
	 viewBox="0 0 1400 800" enable-background="new 0 0 1400 800" xml:space="preserve">
<g>
	<path d="M325.5,635.6c-12.7,0-25.2-3.5-34.4-6.9c-14.7-5.4-29.6-13.9-40.9-23.1c-11.4-9.4-25.5-18.5-40.4-28.1
		c-11.3-7.3-23-14.8-34.5-23.1c-23.4-16.9-35.6-45-36.1-46.2l3.7-1.6c0.1,0.3,12.2,28.3,34.7,44.5c11.4,8.2,23,15.7,34.3,23
		c15,9.7,29.2,18.8,40.8,28.4c21.3,17.5,57.8,33.3,83.6,28.1c14.8-3,20.5-10.9,23.4-16.6l3.6,1.8c-5.2,10.1-13.7,16.2-26.1,18.7
		C333.3,635.2,329.4,635.6,325.5,635.6z"/>
	<path d="M312.6,593.3c-1-0.6-24.9-14.9-41.1-48.8c-7-14.7-13.1-42.5-13.4-43.7l3.9-0.9c0.1,0.3,6.3,28.6,13.1,42.8
		c15.7,32.9,39.3,46.9,39.5,47.1L312.6,593.3z"/>
	<path d="M229.3,524.2c-7.3,0-15.5-1.7-24.9-6.6c-19.5-10.1-33.2-37-33.8-38.2l3.6-1.8c0.1,0.3,13.7,27,32,36.4
		c21.7,11.2,36.3,4.7,48.1-0.6c3.2-1.4,6.2-2.7,9-3.5l1.1,3.8c-2.5,0.7-5.4,2-8.4,3.4C248.9,520.3,240.2,524.2,229.3,524.2z"/>
	<path d="M189.9,467.2c8,0,10.1,12.4,10.3,14.5c0.2,2.8,2.2,16.2,9.8,21c6.1,3.9,19.7,8.8,27.8,8.8c1.8,0,3.3-0.2,4.5-0.8
		c5.2-2.5,13.2-5,17.4-5c0.8,0,1.5,0.1,1.9,0.3c0.2,0.1,0.4,0.2,0.6,0.2c1.7,0-1.6-5.9,2.5-8.7c2.4-1.6,4.4-2.5,6.4-2.5
		c1.7,0,3.5,0.6,5.7,2c4.8,3,2,8.2,1.2,14.5c-0.7,6.2,2.5,29,5,34.2s23,41.5,26.2,46.5s10,14,20.8,14.5c11,0.5,24.2,1.8,30.2,9.5
		c3.8,4.9,5.8,16.8,2.2,21c-1.7,2-5.5,5-11.5,7.4l-5.5-5.5c-0.2-0.2-0.5-0.3-0.7-0.3c-0.5,0-1,0.4-1,0.9l-0.6,7.2
		c-4.4,1-9.5,1.6-15.3,1.6c-1.7,0-3.5-0.1-5.4-0.2c-0.6,0-1.2-0.1-1.8-0.1l-3.4-7.1c-0.2-0.4-0.5-0.6-0.9-0.6
		c-0.4,0-0.7,0.2-0.9,0.6l-2.8,6.2c-6.5-1-12.8-2.4-18.7-4.2l-1.5-6.4c-0.1-0.5-0.5-0.8-1-0.8c-0.2,0-0.5,0.1-0.6,0.2l-5,4.3
		c-7.7-2.7-14.7-5.8-20.7-8.8l1.5-5.2c0.2-0.7-0.4-1.3-1-1.3c-0.2,0-0.4,0.1-0.6,0.2l-5.1,3.5c-4-2.5-8.8-6.3-14.4-10.8l1.8-5
		c0.2-0.7-0.3-1.3-0.9-1.3c-0.1,0-0.2,0-0.3,0.1l-5.9,2c-2.6-2-5.3-4.2-8.1-6.4l-0.7-0.9l0.3,0.7c-9.4-7.2-20.6-14.8-33.7-21.4
		c-3.7-1.9-8.2-4.4-12.9-7.3l1.2-5.5c0.1-0.7-0.4-1.2-1-1.2c-0.2,0-0.4,0-0.5,0.2l-5,3.2c-4.9-3.2-10-6.7-15-10.3l1.7-6.1
		c0.2-0.7-0.4-1.3-1-1.3c-0.2,0-0.4,0.1-0.6,0.2l-4.9,3.7c-4.5-3.4-8.8-6.9-12.7-10.2l2.1-5.6c0.2-0.7-0.3-1.3-0.9-1.3
		c-0.1,0-0.2,0-0.3,0.1l-6.1,2.1c-2.5-2.4-4.7-4.6-6.5-6.7c0,0-4.9-6.7-1.8-15.5c3.2-8.9,19.8-33,40.2-44.1c0.4-0.2,1.5-4.4,6.8-8.7
		C184.5,468.4,187.5,467.2,189.9,467.2 M189.9,461.2c-4.2,0-8.4,1.8-12.9,5.5c-4.2,3.5-6.4,7-7.5,9c-20.8,12-37.7,36-41.4,46.5
		c-3.4,9.3,0,17.6,2.6,21.1c0.1,0.1,0.2,0.2,0.3,0.4c1.9,2.1,4.2,4.5,6.9,7.1c1,0.9,2.2,1.5,3.6,1.6c0.3,1.3,0.9,2.5,2,3.4
		c3.9,3.4,8.3,6.9,13,10.5c0.9,0.7,1.9,1,2.9,1.2c0.4,0.9,1.1,1.8,2,2.4c5,3.7,10.2,7.2,15.3,10.5c1,0.6,2.1,1,3.2,1
		c0.5,1,1.3,1.9,2.2,2.5c5,3.1,9.5,5.7,13.4,7.6c10.7,5.4,21.2,12,32.8,20.8c0.1,0,0.1,0.1,0.2,0.1c0.1,0.1,0.1,0.1,0.2,0.1
		c2.5,1.9,5,3.9,8,6.3c1,0.8,2.1,1.2,3.3,1.3c0.3,1.1,1,2.2,2,3c5.9,4.8,10.8,8.6,15.1,11.2c1,0.6,2,0.9,3.1,0.9c0,0,0.1,0,0.1,0
		c0.6,0.9,1.4,1.6,2.4,2.1c7,3.5,14.2,6.6,21.4,9.1c0.7,0.2,1.3,0.3,2,0.3c1,0,1.9-0.2,2.8-0.7c0.7,1.5,2.1,2.6,3.7,3.1
		c6.6,1.9,13.2,3.4,19.6,4.3c0.3,0,0.6,0.1,0.9,0.1c1.3,0,2.5-0.4,3.5-1.1c1,1.2,2.5,1.9,4,2c0.2,0,0.4,0,0.6,0.1
		c0.4,0,0.8,0.1,1.3,0.1c1.9,0.1,3.9,0.2,5.8,0.2c5.9,0,11.4-0.6,16.6-1.8c1.7-0.4,3-1.4,3.9-2.8c0.8,0.4,1.7,0.6,2.6,0.6
		c0.7,0,1.5-0.1,2.2-0.4c6-2.4,11.1-5.7,13.9-9.2c3.6-4.4,3.4-11.2,2.9-14.8c-0.7-5.3-2.6-10.4-5.1-13.7c-7.2-9.3-21-11.2-34.7-11.8
		c-5.8-0.3-11-4.1-16-11.8c-3.3-5-23.6-41-25.9-45.8c-2-4.1-5.1-25.8-4.5-31c0.1-1.2,0.4-2.5,0.7-3.8c0.9-4.5,2.4-12-4.7-16.5
		c-3.2-2-6-3-8.9-3c-3.9,0-7.1,1.8-9.7,3.5c-3.1,2.1-4.3,4.9-4.7,7.5c-5.8,0.8-13,3.5-17,5.4l0,0c0,0-0.5,0.2-1.9,0.2
		c-6.6,0-19-4.3-24.6-7.9c-4.4-2.8-6.6-12.5-7-16.5c-0.2-1.9-0.9-6.1-2.8-10C199.5,462.5,193.3,461.2,189.9,461.2L189.9,461.2
		L189.9,461.2L189.9,461.2z"/>
	<path d="M166,523.1c25.9,0,68.5,14.9,74.3,19.8c1.4,1.2,2.2,2.8,2.3,4.5c0.2,4.6-4.3,9.3-9.1,14.3c-0.6,0.6-1.3,1.3-2,2.1
		c0.5,0,1.1-0.1,1.7-0.1c23.3,0,76.5,29.5,82.8,32.8l10.1,7.4c-16.6-8.7-73.9-32.2-92.7-32.2c-0.9,0-1.7,0.1-2.5,0.2
		c-1,0.2-2.3,0.4-3.8,0.4c-2.3,0-4.8-0.6-6.1-3c-2.1-4,1.6-7.9,6.7-13.1c2-2.1,5.6-5.8,6.6-7.7c-7.1-4.1-41.2-14-62.1-14
		c-5.2,0-9.5,0.6-12.5,2l-7.8-10.9C155.4,523.8,160.3,523.1,166,523.1 M166,521.1c-6.4,0-11.4,0.9-15,2.6c-0.5,0.3-0.9,0.7-1.1,1.3
		c-0.1,0.6,0,1.2,0.3,1.7l7.8,10.9c0.4,0.5,1,0.8,1.6,0.8c0.3,0,0.6-0.1,0.9-0.2c2.5-1.2,6.4-1.8,11.6-1.8
		c19.2,0,49.4,8.4,59.2,12.8c-1.5,1.9-3.8,4.3-5.1,5.6c-5.3,5.4-9.8,10.1-7,15.5c1,1.9,3.1,4.1,7.9,4.1c1.6,0,3.1-0.2,4.1-0.4
		c0.6-0.1,1.3-0.1,2.1-0.1c18.5,0,76,23.8,91.8,32c0.3,0.2,0.6,0.2,0.9,0.2c0.7,0,1.3-0.3,1.7-0.9c0.6-0.9,0.3-2.1-0.5-2.7
		l-10.1-7.4c-0.1-0.1-0.2-0.1-0.3-0.2c-0.5-0.3-1.2-0.7-2.2-1.2c-36.9-19.8-63.3-30.4-78.5-31.7c4.7-4.9,8.7-9.5,8.5-14.5
		c-0.1-2.3-1.2-4.5-3-6C235.3,536,192,521.1,166,521.1L166,521.1z"/>
</g>
<g>
	<g>
		<g>
			<path d="M1062.9,456.1c57,36.5,114-5.8,171,30.6c0,7.4,0,14.9,0,22.3c-57-36.5-114,5.8-171-30.6
				C1062.9,471,1062.9,463.6,1062.9,456.1 M1062.9,450.1c-1.4-0.6-2.7-0.7-3.8-0.4c-1.4,0.4-2.2,1.7-2.2,3.5c0,7.4,0,14.9,0,22.3
				c0,2.8,2,6.4,4.8,8.2c57,37.6,114-4.7,171,30.7c0.4,0.3,0.8,0.5,1.2,0.7c1.4,0.6,2.7,0.7,3.8,0.4c1.4-0.4,2.2-1.7,2.2-3.5
				c0-7.4,0-14.9,0-22.3c0-2.8-2-6.4-4.8-8.2c-57-37.6-114,4.7-171-30.7C1063.7,450.5,1063.3,450.3,1062.9,450.1L1062.9,450.1z"/>
		</g>
		<rect x="1082.9" y="465.6" width="2" height="20"/>
		<rect x="1086.9" y="466.9" width="2" height="10"/>
		<rect x="1090.9" y="468" width="2" height="10"/>
		<rect x="1094.9" y="468.9" width="2" height="10"/>
		<rect x="1098.9" y="469.7" width="2" height="20"/>
		<rect x="1102.9" y="470.3" width="2" height="10"/>
		<rect x="1106.9" y="470.8" width="2" height="10"/>
		<rect x="1110.9" y="471.1" width="2" height="10"/>
		<rect x="1114.9" y="471.4" width="2" height="20"/>
		<rect x="1118.9" y="471.5" width="2" height="10"/>
		<rect x="1122.9" y="471.6" width="2" height="10"/>
		<rect x="1126.9" y="471.5" width="2" height="10"/>
		<rect x="1130.9" y="471.5" width="2" height="20"/>
		<rect x="1134.9" y="471.4" width="2" height="10"/>
		<rect x="1138.9" y="471.2" width="2" height="10"/>
		<rect x="1142.9" y="471" width="2" height="10"/>
		<rect x="1146.9" y="470.8" width="2" height="20"/>
		<rect x="1150.9" y="470.6" width="2" height="10"/>
		<rect x="1154.9" y="470.4" width="2" height="10"/>
		<rect x="1158.9" y="470.2" width="2" height="10"/>
		<rect x="1162.9" y="470.1" width="2" height="20"/>
		<rect x="1166.9" y="470" width="2" height="10"/>
		<rect x="1170.9" y="470" width="2" height="10"/>
		<rect x="1174.9" y="470" width="2" height="10"/>
		<rect x="1178.9" y="470.1" width="2" height="20"/>
		<rect x="1182.9" y="470.4" width="2" height="10"/>
		<rect x="1186.9" y="470.7" width="2" height="10"/>
		<rect x="1190.9" y="471.1" width="2" height="10"/>
		<rect x="1194.9" y="471.7" width="2" height="20"/>
		<rect x="1198.9" y="472.4" width="2" height="10"/>
		<rect x="1202.9" y="473.3" width="2" height="10"/>
		<rect x="1206.9" y="474.4" width="2" height="10"/>
		<rect x="1210.9" y="475.6" width="2" height="20"/>
		<rect x="1214.9" y="477" width="2" height="10"/>
		<rect x="1218.9" y="478.6" width="2" height="10"/>
		<rect x="1222.9" y="480.5" width="2" height="10"/>
		<rect x="1226.9" y="482.5" width="2" height="20"/>
		<path d="M1075.8,488.2l-3-2.6l1-1.2c5.1-6,4.2-16.1-2.1-24l3.1-2.5c7.6,9.5,8.4,21.5,2,29.1L1075.8,488.2z"/>
	</g>
	<g>
		<g>
			<path d="M1062.9,533.1c57,36.5,114-5.8,171,30.6c0,7.4,0,14.9,0,22.3c-57-36.5-114,5.8-171-30.6
				C1062.9,548,1062.9,540.6,1062.9,533.1 M1062.9,527.1c-1.4-0.6-2.7-0.7-3.8-0.4c-1.4,0.4-2.2,1.7-2.2,3.5c0,7.4,0,14.9,0,22.3
				c0,2.8,2,6.4,4.8,8.2c57,37.6,114-4.7,171,30.7c0.4,0.3,0.8,0.5,1.2,0.7c1.4,0.6,2.7,0.7,3.8,0.4c1.4-0.4,2.2-1.7,2.2-3.5
				c0-7.4,0-14.9,0-22.3c0-2.8-2-6.4-4.8-8.2c-57-37.6-114,4.7-171-30.7C1063.7,527.5,1063.3,527.3,1062.9,527.1L1062.9,527.1z"/>
		</g>
		<rect x="1066.9" y="535.5" width="2" height="20"/>
		<rect x="1070.9" y="537.6" width="2" height="10"/>
		<rect x="1074.9" y="539.5" width="2" height="10"/>
		<rect x="1078.9" y="541.2" width="2" height="10"/>
		<rect x="1082.9" y="542.6" width="2" height="20"/>
		<rect x="1086.9" y="543.9" width="2" height="10"/>
		<rect x="1090.9" y="545" width="2" height="10"/>
		<rect x="1094.9" y="545.9" width="2" height="10"/>
		<rect x="1098.9" y="546.7" width="2" height="20"/>
		<rect x="1102.9" y="547.3" width="2" height="10"/>
		<rect x="1106.9" y="547.8" width="2" height="10"/>
		<rect x="1110.9" y="548.1" width="2" height="10"/>
		<rect x="1114.9" y="548.4" width="2" height="20"/>
		<rect x="1118.9" y="548.5" width="2" height="10"/>
		<rect x="1122.9" y="548.6" width="2" height="10"/>
		<rect x="1126.9" y="548.6" width="2" height="10"/>
		<rect x="1130.9" y="548.5" width="2" height="20"/>
		<rect x="1134.9" y="548.4" width="2" height="10"/>
		<rect x="1138.9" y="548.2" width="2" height="10"/>
		<rect x="1142.9" y="548" width="2" height="10"/>
		<rect x="1146.9" y="547.8" width="2" height="20"/>
		<rect x="1150.9" y="547.6" width="2" height="10"/>
		<rect x="1154.9" y="547.4" width="2" height="10"/>
		<rect x="1158.9" y="547.2" width="2" height="10"/>
		<rect x="1162.9" y="547.1" width="2" height="20"/>
		<rect x="1166.9" y="547" width="2" height="10"/>
		<rect x="1170.9" y="547" width="2" height="10"/>
		<rect x="1174.9" y="547" width="2" height="10"/>
		<rect x="1178.9" y="547.1" width="2" height="20"/>
		<rect x="1182.9" y="547.4" width="2" height="10"/>
		<rect x="1186.9" y="547.7" width="2" height="10"/>
		<rect x="1190.9" y="548.1" width="2" height="10"/>
		<rect x="1194.9" y="548.7" width="2" height="20"/>
		<rect x="1198.9" y="549.4" width="2" height="10"/>
		<rect x="1202.9" y="550.3" width="2" height="10"/>
		<rect x="1206.9" y="551.4" width="2" height="10"/>
		<rect x="1210.9" y="552.6" width="2" height="20"/>
		<rect x="1214.9" y="554" width="2" height="10"/>
		<rect x="1218.9" y="555.6" width="2" height="10"/>
		<rect x="1222.9" y="557.5" width="2" height="10"/>
		<rect x="1226.9" y="559.5" width="2" height="20"/>
	</g>
	<g>
		<g>
			<path d="M1062.9,610.4c19.7,12.6,39.5,15.8,59.2,16.1c0,7.4,0,14.9,0,22.3c-19.7-0.3-39.5-3.4-59.2-16.1
				C1062.9,625.2,1062.9,617.8,1062.9,610.4 M1062.9,604.4c-1.4-0.6-2.7-0.7-3.8-0.4c-1.4,0.4-2.2,1.7-2.2,3.5c0,7.4,0,14.9,0,22.3
				c0,2.8,2,6.4,4.8,8.2c19.7,13,39.5,16.5,59.2,16.9c0.4,0,0.8,0,1.2-0.1c1.4-0.3,2.7-1,3.8-2.1c1.4-1.4,2.2-3.3,2.2-5.2
				c0-7.4,0-14.9,0-22.3c0-2.8-2-4.8-4.8-4.8c-19.7-0.2-39.5-3.1-59.2-15.3C1063.7,604.8,1063.3,604.5,1062.9,604.4L1062.9,604.4z"
				/>
		</g>
		<rect x="1066.9" y="612.5" width="2" height="20"/>
		<rect x="1070.9" y="614.6" width="2" height="10"/>
		<rect x="1074.9" y="616.5" width="2" height="10"/>
		<rect x="1078.9" y="618.2" width="2" height="10"/>
		<rect x="1082.9" y="619.6" width="2" height="20"/>
		<rect x="1086.9" y="620.9" width="2" height="10"/>
		<rect x="1090.9" y="622" width="2" height="10"/>
		<rect x="1094.9" y="622.9" width="2" height="10"/>
		<rect x="1098.9" y="623.7" width="2" height="20"/>
		<path d="M1109.6,651.6l-1-1.3c-6.3-8.1-5.4-20.2,2.1-28.8l3,2.6c-6.3,7.1-7.1,17.1-2,23.7l1,1.3L1109.6,651.6z"/>
	</g>
	<g>
		<path d="M1059.9,554.1c0-7.4,0-14.9,0-22.3c0-0.9,0.4-1.6,1.1-1.8c0.5-0.2,1.2-0.1,1.9,0.2c0.2,0.1,0.4,0.2,0.6,0.3
			c0.9,0.6,1.8,1.1,2.7,1.6c38.1,6.2,76.1-21.4,114.2-35.9c-3.2-0.1-6.4-0.2-9.6-0.2c-36.2,15.5-72.5,39.4-108.7,31.2
			c-1.8-0.4-3.2,0.5-3.2,2.4c0,7.4,0,14.9,0,22.3c0,1.1,0.5,2.4,1.3,3.5C1060,555,1059.9,554.6,1059.9,554.1z"/>
		<path d="M1236.9,488.1c0,7.4,0,14.9,0,22.3c0,0.9-0.4,1.6-1.1,1.8c-0.5,0.2-1.2,0.1-1.9-0.2c-0.2-0.1-0.4-0.2-0.6-0.3
			c-0.1-0.1-0.2-0.1-0.3-0.2c-38.1-7.6-76.1,19.5-114.2,34.5c3.2,0.1,6.4,0.1,9.6,0.1c35.5-15.5,70.9-38.2,106.4-30.1
			c1.8,0.4,3.2-0.5,3.2-2.4c0-7.4,0-14.9,0-22.3C1237.9,490.3,1237.5,489.2,1236.9,488.1z"/>
	</g>
	<g>
		<path d="M1059.9,631.3c0-7.4,0-14.9,0-22.3c0-0.9,0.4-1.6,1.1-1.8c0.5-0.2,1.2-0.1,1.9,0.2c0.2,0.1,0.4,0.2,0.6,0.3
			c0.7,0.5,1.5,0.9,2.2,1.3c38.2,6.5,76.4-21.3,114.7-35.8c-3.2-0.1-6.4-0.2-9.6-0.2c-36.2,15.5-72.5,39.4-108.7,31.2
			c-1.8-0.4-3.2,0.5-3.2,2.4c0,7.4,0,14.9,0,22.3c0,1,0.4,2.2,1.1,3.3C1059.9,632,1059.9,631.6,1059.9,631.3z"/>
		<path d="M1236.9,565.1c0,7.4,0,14.9,0,22.3c0,0.9-0.4,1.6-1.1,1.8c-0.5,0.2-1.2,0.1-1.9-0.2c-0.2-0.1-0.4-0.2-0.6-0.3
			c-0.1-0.1-0.2-0.1-0.3-0.2c-38.2-7.6-76.5,19.8-114.7,34.7c1.5,0.1,3,0.1,4.5,0.1c1,0,1.7,0.5,2.1,1.3
			c36.6-15.5,73.3-40,109.9-31.7c1.8,0.4,3.2-0.5,3.2-2.4c0-7.4,0-14.9,0-22.3C1237.9,567.3,1237.5,566.2,1236.9,565.1z"/>
	</g>
</g>
<g>
	<path d="M179,231c22.1,0,40,17.9,40,40s-17.9,40-40,40s-40-17.9-40-40S156.9,231,179,231 M179,225c-25.4,0-46,20.6-46,46
		s20.6,46,46,46c25.4,0,46-20.6,46-46S204.4,225,179,225L179,225z"/>
	<path d="M179,237c18.7,0,34,15.3,34,34c0,18.7-15.3,34-34,34c-18.7,0-34-15.3-34-34C145,252.3,160.3,237,179,237 M179,235
		c-19.9,0-36,16.1-36,36c0,19.9,16.1,36,36,36c19.9,0,36-16.1,36-36C215,251.1,198.9,235,179,235L179,235z"/>
	<path d="M319,231c22.1,0,40,17.9,40,40s-17.9,40-40,40s-40-17.9-40-40S296.9,231,319,231 M319,225c-25.4,0-46,20.6-46,46
		s20.6,46,46,46c25.4,0,46-20.6,46-46S344.4,225,319,225L319,225z"/>
	<path d="M319,237c18.7,0,34,15.3,34,34c0,18.7-15.3,34-34,34c-18.7,0-34-15.3-34-34C285,252.3,300.3,237,319,237 M319,235
		c-19.9,0-36,16.1-36,36c0,19.9,16.1,36,36,36c19.9,0,36-16.1,36-36C355,251.1,338.9,235,319,235L319,235z"/>
	<path d="M302.1,207.8c-0.5-1.1-1.6-1.8-2.7-1.8H218c-1,0-2,0.5-2.5,1.4l-42.3,65c-0.6,0.9-0.6,2.1-0.1,3.1c0.5,1,1.5,1.6,2.6,1.6
		h53.2c-0.3-1-0.4-2-0.4-3c0-1,0.1-2,0.4-3h-47.7l38.4-59h73L246,263.6c1.8,1,3.3,2.4,4.4,4.1l51.2-56.7
		C302.4,210.1,302.6,208.9,302.1,207.8z"/>
	<g>
		<path d="M210.6,198.2c-3.2,0-6.1,0-8.4,0c-2.8,0-5.4-1.3-7.2-3.5c-1.7-2.1-2.4-4.9-1.9-7.6l0-0.1c0.2-2.3,2-6.4,8-6.7
			c2.7-0.1,5.3,0.8,8.2,1.9c3.7,1.4,8.4,3.2,15.2,3.2c1.3,0,2.6-0.1,3.8-0.2c1.1-0.1,2.2-0.2,3.3-0.2c1.7,0,3.9,0.2,5.7,1.6
			c2.2,1.7,3.2,4.8,2.3,7.4c-0.9,2.5-3.2,4-6.2,4c-1.3,0-3.7,0-6.6,0C222.1,198.2,216,198.2,210.6,198.2z M201.8,184.3
			c-0.1,0-0.2,0-0.3,0c-4.1,0.2-4.3,3-4.3,3.1l-0.1,0.5c-0.3,1.5,0.1,3.1,1,4.3c1,1.2,2.5,2,4.1,2c6,0.1,17.1,0,24.6,0
			c3,0,5.3,0,6.7,0c0.9,0,2-0.2,2.4-1.3c0.3-1-0.1-2.3-1-2.9c-0.7-0.5-1.6-0.8-3.2-0.8c-0.9,0-1.9,0.1-3,0.2
			c-1.2,0.1-2.6,0.2-4.1,0.2c-7.6,0-12.6-1.9-16.6-3.5C205.5,185.1,203.6,184.3,201.8,184.3z"/>
	</g>
	<g>
		<path d="M245.6,247c0.8,0,1.4,0.6,1.4,1.4v0.1c0,0.8-0.6,1.4-1.4,1.4h-10.1c-0.8,0-1.4-0.6-1.4-1.4v-0.1c0-0.8,0.6-1.4,1.4-1.4
			H245.6 M245.6,245h-10.1c-1.9,0-3.4,1.5-3.4,3.4v0.1c0,1.9,1.5,3.4,3.4,3.4h10.1c1.9,0,3.4-1.5,3.4-3.4v-0.1
			C249,246.5,247.5,245,245.6,245L245.6,245z"/>
	</g>
	<g>
		<path d="M325,205.5v5h-11.5c-1.4,0-2.5-1.1-2.5-2.5c0-1.4,1.1-2.5,2.5-2.5H325 M327,203.5h-2h-11.5c-2.5,0-4.5,2-4.5,4.5
			c0,2.5,2,4.5,4.5,4.5H325h2v-2v-5V203.5L327,203.5z"/>
	</g>
	<g>
		<path d="M245.6,296c0.8,0,1.4,0.6,1.4,1.4v0.1c0,0.8-0.6,1.4-1.4,1.4h-10.1c-0.8,0-1.4-0.6-1.4-1.4v-0.1c0-0.8,0.6-1.4,1.4-1.4
			H245.6 M245.6,294h-10.1c-0.9,0-1.8,0.4-2.4,1c-0.7,0.7-1,1.5-1,2.4v0.1c0,1.9,1.5,3.4,3.4,3.4h10.1c0.9,0,1.8-0.4,2.4-1
			c0.7-0.7,1-1.5,1-2.4v-0.1C249,295.5,247.5,294,245.6,294L245.6,294z"/>
	</g>
	<path d="M243.5,273l-28.7-76.7c-2.2,0-4.4,0-6.4,0l29.4,78.8c0.5,1.2,1.6,2,2.8,2c0.3,0,0.7-0.1,1-0.2
		C243.3,276.2,244.1,274.5,243.5,273z"/>
	<path d="M240.3,260c-7.7,0-14,6.3-14,14c0,7.4,5.8,13.5,13.2,14v-4c-5.1-0.4-9.2-4.7-9.2-10c0-5.5,4.5-10,10-10c5.5,0,10,4.5,10,10
		c0,5.1-3.9,9.3-8.8,9.9v4c7.2-0.6,12.8-6.6,12.8-13.9C254.3,266.3,248.1,260,240.3,260z"/>
	<path d="M243.5,296v-1v-21c0-1.7-1.3-3-3-3s-3,1.3-3,3v21v1H243.5z M239.5,274c0-0.6,0.4-1,1-1c0.6,0,1,0.4,1,1v21h-2V274z"/>
	<path d="M239.5,261.9V251h2v10.9c0.7,0.1,1.4,0.2,2,0.3V251v-1h-6v1v11.2C238.1,262.1,238.8,261.9,239.5,261.9z"/>
	<path d="M325.3,181.3h-31.7c-0.9,0-1.8,0.4-2.4,1.2c-0.6,0.8-0.7,1.7-0.5,2.6l27,91c0.4,1.3,1.6,2.1,2.9,2.1c0.3,0,0.6,0,0.9-0.1
		c1.6-0.5,2.5-2.1,2-3.7l-25.9-87.2h27.6c5,0,9,4,9,9c0,4.7-3.7,8.6-8.3,9v6c8-0.4,14.3-6.9,14.3-15
		C340.3,188.1,333.6,181.3,325.3,181.3z"/>
</g>
<g>
	<g>
		<path d="M486.6,296c3.2,0,6.4,0.7,9.4,1.9c3.2,1.4,6.5,2.1,10,2.1h139c2,0,2.8,1.4,3.1,2c0.3,0.6,0.8,2.2-0.5,3.6L634,320.8
			c-0.6,0.7-1.6,1.1-2.5,1.1H469.3c-3.6,0-6.6-2.9-6.6-6.6v-12.9c0-3.6,2.9-6.6,6.6-6.6H486.6 M486.6,290h-17.3
			c-6.9,0-12.6,5.7-12.6,12.6v12.9c0,6.9,5.7,12.6,12.6,12.6h162.2c2.7,0,5.3-1.2,7-3.2l13.4-15.2c5.3-6.1,1-15.6-7-15.6h-139
			c-2.6,0-5.2-0.5-7.6-1.6C494.6,290.8,490.6,290,486.6,290L486.6,290z"/>
	</g>
	<g>
		<path d="M641.2,304.4l-11.2,13.1H525.3c-3.5,0-6.3-2.8-6.3-6.3v-0.4c0-3.5,2.8-6.3,6.3-6.3H641.2 M642.6,302.6H525.3
			c-4.5,0-8.2,3.7-8.2,8.2v0.4c0,4.5,3.7,8.2,8.2,8.2h104.9c0.4,0,0.7-0.2,0.9-0.4l12.4-14.4C644.2,303.8,643.7,302.6,642.6,302.6
			L642.6,302.6z"/>
	</g>
	<g>
		<path d="M577.8,213.4c1.1,0,1.9,0.9,1.9,1.9v2.1c0,1.1-0.9,1.9-1.9,1.9h-28.1v-6H577.8 M577.8,211.4H549c-0.7,0-1.3,0.6-1.3,1.3
			v7.4c0,0.7,0.6,1.3,1.3,1.3h28.8c2.2,0,3.9-1.8,3.9-3.9v-2.1C581.7,213.2,579.9,211.4,577.8,211.4L577.8,211.4z"/>
	</g>
	<g>
		<path d="M574.7,213.4v1.4c0,0.3-0.3,0.6-0.6,0.6h-13.8c-0.3,0-0.6-0.3-0.6-0.6v-1.4H574.7 M576.7,211.4h-19v3.4
			c0,1.4,1.2,2.6,2.6,2.6h13.8c1.4,0,2.6-1.2,2.6-2.6V211.4L576.7,211.4z"/>
	</g>
	<path d="M463.9,161.3l86.2,36.7l-35,10.7l-30.2-21.9l-16.5,1.3L463.9,161.3 M463.9,159.3c-0.4,0-0.9,0.1-1.2,0.4
		c-0.6,0.5-0.9,1.2-0.7,1.9l4.4,26.7c0.2,1,1,1.7,2,1.7c0.1,0,0.1,0,0.2,0l15.8-1.2l29.6,21.5c0.3,0.3,0.8,0.4,1.2,0.4
		c0.2,0,0.4,0,0.6-0.1l35-10.7c0.8-0.2,1.4-1,1.4-1.8c0-0.8-0.4-1.6-1.2-1.9l-86.2-36.7C464.5,159.4,464.2,159.3,463.9,159.3
		L463.9,159.3z"/>
	<path d="M490,325v3.1c0,1.6-1.3,2.9-2.9,2.9h-12.2c-1.6,0-2.9-1.3-2.9-2.9V325h-2v3.1c0,2.7,2.2,4.9,4.9,4.9h12.2
		c2.7,0,4.9-2.2,4.9-4.9V325H490z"/>
	<path d="M627,325v3.1c0,1.6-1.3,2.9-2.9,2.9h-12.2c-1.6,0-2.9-1.3-2.9-2.9V325h-2v3.1c0,2.7,2.2,4.9,4.9,4.9h12.2
		c2.7,0,4.9-2.2,4.9-4.9V325H627z"/>
	<path d="M468.3,194c0.2,0,0.3,0,0.5,0l14.3-1.1l3.5,2.5c-4.1,4.8-6.8,10.9-8.1,18.3c-1.4,8.1-9.8,60.3-13,80
		c1.2-0.5,2.5-0.8,3.8-0.8h2.4c3.4-20.9,11.4-70.3,12.7-78.2c1.8-10.3,6.5-16.3,11.7-19.9l-11.3-8.2l-16.5,1.3l-4.4-26.7l86.2,36.7
		l-35,10.7l-6.6-4.8c-0.1,0-0.2,0-0.2,0.1c-6.2,1.5-9.4,5.4-10.8,13.1c-1.3,7.6-8.8,54-12.4,76h1.5c1.5,0,3.1,0.1,4.5,0.4
		c4.2-26,11.1-68.2,12.3-75.4c0.6-3.3,1.3-6,4.1-7.5l4.1,2.9c1,0.8,2.3,1.1,3.5,1.1c0.6,0,1.2-0.1,1.7-0.3l35-10.7
		c2.4-0.7,4.1-2.9,4.2-5.4c0.1-2.5-1.3-4.9-3.6-5.8l-86.2-36.7c-0.8-0.3-1.6-0.5-2.3-0.5c-1.3,0-2.6,0.4-3.7,1.3
		c-1.7,1.4-2.6,3.5-2.2,5.7l4.4,26.7C462.9,191.9,465.4,194,468.3,194z"/>
	<g>
		<path d="M548.7,213.4l-33.6-4.7c-1.7-0.3-3.3,0.8-3.6,2.5c-0.2,1.6,1,3.1,2.6,3.4l33.7,4.7c0.2,0,0.4,0.1,0.6,0.1
			c0.1,0,0.2,0,0.3,0V213.4z"/>
		<path d="M514.6,211.7L514.6,211.7l19.1,2.7L514.6,211.7C514.6,211.7,514.6,211.7,514.6,211.7 M514.5,208.6c-1.4,0-2.7,1.1-3,2.6
			c-0.2,1.6,1,3.1,2.6,3.4l33.7,4.7c0.2,0,0.4,0.1,0.6,0.1c0.1,0,0.2,0,0.3,0v-6l-33.6-4.7C514.9,208.6,514.7,208.6,514.5,208.6
			L514.5,208.6z"/>
	</g>
</g>
<g>
	<g>
		<rect x="808" y="257" width="84" height="6"/>
		<polygon points="892,247 892,241 808,241 808,247 888,247 		"/>
	</g>
	<g>
		<path d="M805.8,239c0.7,0,1.2,0.6,1.2,1.2v23.5c0,0.7-0.6,1.2-1.2,1.2H803v-26H805.8 M805.8,237H803h-2v2v26v2h2h2.8
			c1.8,0,3.2-1.5,3.2-3.2v-23.5C809,238.5,807.6,237,805.8,237L805.8,237z"/>
	</g>
	<path d="M774,257.3c-0.3-0.2-0.6-0.3-1-0.3c0,0,0,0,0,0l0,0c-1.1,0-2,0.9-2,2c0,1.1-0.9,2-2,2c-1.1,0-2-0.9-2-2c0-1.1-0.9-2-2-2
		c0,0,0,0,0,0c0,0,0,0,0,0c-1.1,0-2,0.9-2,2c0,1.1-0.9,2-2,2c-1.1,0-2-0.9-2-2c0-1.1-0.9-2-2-2c0,0,0,0,0,0l0,0c-1.1,0-2,0.9-2,2
		c0,1.1-0.9,2-2,2c-1.1,0-2-0.9-2-2v-14c0-1.1,0.9-2,2-2c1.1,0,2,0.9,2,2c0,1.1,0.9,2,2,2l0,0c0,0,0,0,0,0c1.1,0,2-0.9,2-2
		c0-1.1,0.9-2,2-2c1.1,0,2,0.9,2,2c0,1.1,0.9,2,2,2c0,0,0,0,0,0c0,0,0,0,0,0c1.1,0,2-0.9,2-2c0-1.1,0.9-2,2-2c1.1,0,2,0.9,2,2
		c0,1.1,0.9,2,2,2l0,0c0,0,0,0,0,0c0.4,0,0.7-0.1,1-0.3v-6.9c-0.4,0.2-0.7,0.4-1,0.7c-1.1-1-2.5-1.5-4-1.5c-1.5,0-2.9,0.6-4,1.5
		c-1.1-1-2.5-1.5-4-1.5c-1.5,0-2.9,0.6-4,1.5c-1.1-1-2.5-1.5-4-1.5c-3.3,0-6,2.7-6,6v14c0,3.3,2.7,6,6,6c1.5,0,2.9-0.6,4-1.5
		c1.1,1,2.5,1.5,4,1.5c1.5,0,2.9-0.6,4-1.5c1.1,1,2.5,1.5,4,1.5c1.5,0,2.9-0.6,4-1.5c0.3,0.3,0.6,0.5,1,0.7V257.3z"/>
	<path d="M796,198h-14c-3.9,0-7,3.1-7,7v23.9c-0.3,0.1-0.5,0.3-0.8,0.5c-1.9,0.8-3.2,2.6-3.2,4.7v35.8c0,2.1,1.3,4,3.2,4.7
		c0.3,0.2,0.5,0.4,0.8,0.5V301c0,3.9,3.1,7,7,7h14c3.9,0,7-3.1,7-7v-96C803,201.1,799.9,198,796,198z M777,271h-0.9
		c-0.6,0-1.1-0.5-1.1-1.1v-35.8c0-0.6,0.5-1.1,1.1-1.1h0.9V271z M797,301c0,0.6-0.5,1-1,1h-14c-0.6,0-1-0.4-1-1v-31h0v-36h0v-29
		c0-0.6,0.4-1,1-1h14c0.5,0,1,0.4,1,1V301z"/>
	<g>
		<path d="M894.2,239c-0.7,0-1.2,0.6-1.2,1.2v23.5c0,0.7,0.6,1.2,1.2,1.2h2.8v-26H894.2 M894.2,237h2.8h2v2v26v2h-2h-2.8
			c-1.8,0-3.2-1.5-3.2-3.2v-23.5C891,238.5,892.5,237,894.2,237L894.2,237z"/>
	</g>
	<path d="M926,257.3c0.3-0.2,0.6-0.3,1-0.3c0,0,0,0,0,0l0,0c1.1,0,2,0.9,2,2c0,1.1,0.9,2,2,2c1.1,0,2-0.9,2-2c0-1.1,0.9-2,2-2
		c0,0,0,0,0,0c0,0,0,0,0,0c1.1,0,2,0.9,2,2c0,1.1,0.9,2,2,2c1.1,0,2-0.9,2-2c0-1.1,0.9-2,2-2c0,0,0,0,0,0l0,0c1.1,0,2,0.9,2,2
		c0,1.1,0.9,2,2,2c1.1,0,2-0.9,2-2v-14c0-1.1-0.9-2-2-2c-1.1,0-2,0.9-2,2c0,1.1-0.9,2-2,2l0,0c0,0,0,0,0,0c-1.1,0-2-0.9-2-2
		c0-1.1-0.9-2-2-2c-1.1,0-2,0.9-2,2c0,1.1-0.9,2-2,2c0,0,0,0,0,0c0,0,0,0,0,0c-1.1,0-2-0.9-2-2c0-1.1-0.9-2-2-2c-1.1,0-2,0.9-2,2
		c0,1.1-0.9,2-2,2l0,0c0,0,0,0,0,0c-0.4,0-0.7-0.1-1-0.3v-6.9c0.4,0.2,0.7,0.4,1,0.7c1.1-1,2.5-1.5,4-1.5c1.5,0,2.9,0.6,4,1.5
		c1.1-1,2.5-1.5,4-1.5c1.5,0,2.9,0.6,4,1.5c1.1-1,2.5-1.5,4-1.5c3.3,0,6,2.7,6,6v14c0,3.3-2.7,6-6,6c-1.5,0-2.9-0.6-4-1.5
		c-1.1,1-2.5,1.5-4,1.5c-1.5,0-2.9-0.6-4-1.5c-1.1,1-2.5,1.5-4,1.5c-1.5,0-2.9-0.6-4-1.5c-0.3,0.3-0.6,0.5-1,0.7V257.3z"/>
	<path d="M904,198h14c3.9,0,7,3.1,7,7v23.9c0.3,0.1,0.5,0.3,0.8,0.5c1.9,0.8,3.2,2.6,3.2,4.7v35.8c0,2.1-1.3,4-3.2,4.7
		c-0.3,0.2-0.5,0.4-0.8,0.5V301c0,3.9-3.1,7-7,7h-14c-3.9,0-7-3.1-7-7v-96C897,201.1,900.2,198,904,198z M923,271h0.9
		c0.6,0,1.1-0.5,1.1-1.1v-35.8c0-0.6-0.5-1.1-1.1-1.1H923V271z M903,301c0,0.6,0.5,1,1,1h14c0.5,0,1-0.4,1-1v-31h0v-36h0v-29
		c0-0.6-0.5-1-1-1h-14c-0.5,0-1,0.4-1,1V301z"/>
</g>
<g>
	<g>
		<path d="M1139.4,161c21.5,0,39,17.5,39,39c0,21.5-17.5,39-39,39c-21.5,0-39-17.5-39-39C1100.4,178.5,1117.9,161,1139.4,161
			 M1139.4,155c-24.9,0-45,20.1-45,45c0,24.9,20.1,45,45,45s45-20.1,45-45C1184.4,175.1,1164.2,155,1139.4,155L1139.4,155z"/>
	</g>
	<rect x="1139" y="163.6" width="1" height="8"/>
	<rect x="1126.6" y="166.1" transform="matrix(0.9239 -0.3826 0.3826 0.9239 20.6873 444.1579)" width="1" height="8"/>
	<rect x="1116" y="173.1" transform="matrix(0.7072 -0.7071 0.7071 0.7072 201.7767 841.3105)" width="1" height="8"/>
	<rect x="1109" y="183.6" transform="matrix(0.3827 -0.9239 0.9239 0.3827 511.5933 1140.8014)" width="1" height="8"/>
	<rect x="1103" y="199.4" width="8" height="1"/>
	<rect x="1109" y="208.3" transform="matrix(-0.3826 -0.9239 0.9239 -0.3826 1337.7458 1318.6188)" width="1" height="8"/>
	<rect x="1116" y="218.8" transform="matrix(-0.7071 -0.7071 0.7071 -0.7071 1748.3246 1169.887)" width="1" height="8"/>
	<rect x="1126.4" y="225.9" transform="matrix(-0.9239 -0.3827 0.3827 -0.9239 2080.1091 873.5781)" width="1" height="8"/>
	<rect x="1138.8" y="228.4" width="1" height="8"/>
	<rect x="1151.2" y="225.9" transform="matrix(-0.9239 0.3826 -0.3826 -0.9239 2303.7915 1.7162)" width="1" height="8"/>
	<rect x="1161.7" y="218.9" transform="matrix(-0.7071 0.7071 -0.7071 -0.7071 2141.709 -441.2546)" width="1" height="8"/>
	<rect x="1168.8" y="208.4" transform="matrix(-0.3827 0.9239 -0.9239 -0.3827 1813.0481 -786.508)" width="1" height="8"/>
	<rect x="1167.8" y="199.6" width="8" height="1"/>
	<rect x="1168.8" y="183.7" transform="matrix(0.3827 0.9239 -0.9239 0.3827 895.2113 -964.4627)" width="1" height="8"/>
	<rect x="1161.8" y="173.2" transform="matrix(0.7071 0.7071 -0.7071 0.7071 465.6941 -769.9974)" width="1" height="8"/>
	<rect x="1151.3" y="166.1" transform="matrix(0.9239 0.3827 -0.3827 0.9239 152.8049 -427.8854)" width="1" height="8"/>
	<rect x="1136.3" y="163.7" transform="matrix(0.9969 -7.840172e-02 7.840172e-02 0.9969 -9.4941 89.6336)" width="1" height="4"/>
	<rect x="1133.6" y="164" transform="matrix(0.9877 -0.1564 0.1564 0.9877 -12.0122 179.4243)" width="1" height="4"/>
	<rect x="1130.9" y="164.6" transform="matrix(0.9724 -0.2334 0.2334 0.9724 -7.6264 268.6736)" width="1" height="4"/>
	<rect x="1128.3" y="165.3" transform="matrix(0.9511 -0.309 0.309 0.9511 3.5538 357.0157)" width="1" height="4"/>
	<rect x="1123.3" y="167.3" transform="matrix(0.891 -0.454 0.454 0.891 45.6145 528.6821)" width="1" height="4"/>
	<rect x="1121" y="168.7" transform="matrix(0.8526 -0.5225 0.5225 0.8526 76.1021 611.1442)" width="1" height="4"/>
	<rect x="1118.7" y="170.2" transform="matrix(0.809 -0.5878 0.5878 0.809 112.5763 690.7705)" width="1" height="4"/>
	<rect x="1116.6" y="171.8" transform="matrix(0.7604 -0.6495 0.6495 0.7604 154.796 767.2033)" width="1" height="4"/>
	<rect x="1112.8" y="175.6" transform="matrix(0.6495 -0.7604 0.7604 0.6495 255.1644 908.7847)" width="1" height="4"/>
	<rect x="1111.1" y="177.7" transform="matrix(0.5878 -0.809 0.809 0.5878 312.7985 973.4022)" width="1" height="4"/>
	<rect x="1109.6" y="180" transform="matrix(0.5225 -0.8526 0.8526 0.5225 374.9265 1033.4404)" width="1" height="4"/>
	<rect x="1108.3" y="182.3" transform="matrix(0.454 -0.891 0.891 0.454 441.1512 1088.5835)" width="1" height="4"/>
	<rect x="1106.2" y="187.3" transform="matrix(0.309 -0.9511 0.9511 0.309 584.6982 1183.3834)" width="1" height="4"/>
	<rect x="1105.5" y="189.9" transform="matrix(0.2335 -0.9724 0.9724 0.2335 661.1328 1222.5161)" width="1" height="4"/>
	<rect x="1104.9" y="192.6" transform="matrix(0.1564 -0.9877 0.9877 0.1564 740.3892 1255.979)" width="1" height="4"/>
	
		<rect x="1104.6" y="195.2" transform="matrix(7.840168e-02 -0.9969 0.9969 7.840168e-02 821.8475 1283.5042)" width="1" height="4"/>
	
		<rect x="1104.6" y="200.6" transform="matrix(-7.850112e-02 -0.9969 0.9969 -7.850112e-02 989.859 1320.2515)" width="1" height="4"/>
	<rect x="1104.9" y="203.3" transform="matrix(-0.1564 -0.9877 0.9877 -0.1564 1075.5272 1329.2562)" width="1" height="4"/>
	<rect x="1105.5" y="206" transform="matrix(-0.2334 -0.9724 0.9724 -0.2334 1161.8513 1331.9125)" width="1" height="4"/>
	<rect x="1106.2" y="208.6" transform="matrix(-0.309 -0.9511 0.9511 -0.309 1248.4054 1328.1487)" width="1" height="4"/>
	<rect x="1108.2" y="213.6" transform="matrix(-0.4539 -0.891 0.891 -0.4539 1419.9485 1301.3258)" width="1" height="4"/>
	<rect x="1109.6" y="215.9" transform="matrix(-0.5225 -0.8526 0.8526 -0.5225 1504.2876 1278.2272)" width="1" height="4"/>
	<rect x="1111" y="218.2" transform="matrix(-0.5878 -0.809 0.809 -0.5878 1586.8199 1248.8051)" width="1" height="4"/>
	<rect x="1112.7" y="220.3" transform="matrix(-0.6495 -0.7604 0.7604 -0.6495 1667.2083 1213.1075)" width="1" height="4"/>
	<rect x="1116.5" y="224.1" transform="matrix(-0.7604 -0.6495 0.6495 -0.7604 1819.5311 1123.5048)" width="1" height="4"/>
	<rect x="1118.6" y="225.8" transform="matrix(-0.809 -0.5878 0.5878 -0.809 1890.6378 1069.8773)" width="1" height="4"/>
	<rect x="1120.9" y="227.3" transform="matrix(-0.8527 -0.5225 0.5225 -0.8527 1957.7382 1010.6633)" width="1" height="4"/>
	<rect x="1123.2" y="228.6" transform="matrix(-0.891 -0.454 0.454 -0.891 2020.2854 946.2416)" width="1" height="4"/>
	<rect x="1128.2" y="230.7" transform="matrix(-0.9511 -0.309 0.309 -0.9511 2130.2793 802.7523)" width="1" height="4"/>
	<rect x="1130.8" y="231.4" transform="matrix(-0.9724 -0.2335 0.2335 -0.9724 2176.8467 724.5198)" width="1" height="4"/>
	<rect x="1133.5" y="231.9" transform="matrix(-0.9877 -0.1565 0.1565 -0.9877 2217.3257 642.4622)" width="1" height="4"/>
	
		<rect x="1136.1" y="232.3" transform="matrix(-0.9969 -7.850111e-02 7.850111e-02 -0.9969 2251.3708 557.0326)" width="1" height="4"/>
	
		<rect x="1141.5" y="232.3" transform="matrix(-0.9969 7.840294e-02 -7.840294e-02 -0.9969 2298.9089 378.2879)" width="1" height="4"/>
	<rect x="1144.2" y="232" transform="matrix(-0.9877 0.1564 -0.1564 -0.9877 2311.9226 286.023)" width="1" height="4"/>
	<rect x="1146.9" y="231.4" transform="matrix(-0.9724 0.2334 -0.2334 -0.9724 2317.5107 192.643)" width="1" height="4"/>
	<rect x="1149.5" y="230.7" transform="matrix(-0.9511 0.309 -0.309 -0.9511 2315.5417 98.6751)" width="1" height="4"/>
	<rect x="1154.4" y="228.7" transform="matrix(-0.891 0.454 -0.454 -0.891 2288.7178 -88.1748)" width="1" height="4"/>
	<rect x="1156.8" y="227.3" transform="matrix(-0.8526 0.5225 -0.5225 -0.8526 2263.8833 -179.8265)" width="1" height="4"/>
	<rect x="1159" y="225.8" transform="matrix(-0.809 0.5878 -0.5878 -0.809 2231.5549 -269.4124)" width="1" height="4"/>
	<rect x="1161.2" y="224.2" transform="matrix(-0.7604 0.6495 -0.6495 -0.7604 2191.8813 -356.3161)" width="1" height="4"/>
	<rect x="1165" y="220.4" transform="matrix(-0.6494 0.7604 -0.7604 -0.6494 2091.4849 -519.488)" width="1" height="4"/>
	<rect x="1166.7" y="218.3" transform="matrix(-0.5878 0.809 -0.809 -0.5878 2031.406 -594.5327)" width="1" height="4"/>
	<rect x="1168.2" y="216" transform="matrix(-0.5225 0.8527 -0.8527 -0.5225 1965.1569 -664.5551)" width="1" height="4"/>
	<rect x="1169.5" y="213.7" transform="matrix(-0.454 0.891 -0.891 -0.454 1893.3225 -728.8956)" width="1" height="4"/>
	<rect x="1171.6" y="208.7" transform="matrix(-0.309 0.9511 -0.9511 -0.309 1734.5907 -838.9336)" width="1" height="4"/>
	<rect x="1172.3" y="206.1" transform="matrix(-0.2335 0.9724 -0.9724 -0.2335 1648.9562 -883.7234)" width="1" height="4"/>
	<rect x="1172.8" y="203.4" transform="matrix(-0.1565 0.9877 -0.9877 -0.1565 1559.8621 -921.2893)" width="1" height="4"/>
	
		<rect x="1173.2" y="200.8" transform="matrix(-7.850112e-02 0.9969 -0.9969 -7.850112e-02 1467.9203 -951.36)" width="1" height="4"/>
	
		<rect x="1173.2" y="195.4" transform="matrix(7.840168e-02 0.9969 -0.9969 7.840168e-02 1278.4033 -988.1629)" width="1" height="4"/>
	<rect x="1172.9" y="192.7" transform="matrix(0.1564 0.9877 -0.9877 0.1564 1182.1454 -994.6791)" width="1" height="4"/>
	<rect x="1172.3" y="190" transform="matrix(0.2334 0.9724 -0.9724 0.2334 1085.8243 -993.225)" width="1" height="4"/>
	<rect x="1171.6" y="187.4" transform="matrix(0.309 0.9511 -0.9511 0.309 990.0647 -983.8392)" width="1" height="4"/>
	<rect x="1169.5" y="182.4" transform="matrix(0.454 0.891 -0.891 0.454 803.1881 -941.8051)" width="1" height="4"/>
	<rect x="1168.2" y="180.1" transform="matrix(0.5225 0.8526 -0.8526 0.5225 713.3048 -909.5496)" width="1" height="4"/>
	<rect x="1166.7" y="177.8" transform="matrix(0.5878 0.809 -0.809 0.5878 626.6258 -870.1683)" width="1" height="4"/>
	<rect x="1165.1" y="175.7" transform="matrix(0.6495 0.7604 -0.7604 0.6495 543.6893 -823.9785)" width="1" height="4"/>
	<rect x="1161.3" y="171.9" transform="matrix(0.7604 0.6495 -0.6495 0.7604 391.3289 -712.872)" width="1" height="4"/>
	<rect x="1159.1" y="170.2" transform="matrix(0.809 0.5878 -0.5878 0.809 322.7221 -648.7485)" width="1" height="4"/>
	<rect x="1156.9" y="168.7" transform="matrix(0.8527 0.5225 -0.5225 0.8527 259.7286 -579.5504)" width="1" height="4"/>
	<rect x="1154.6" y="167.4" transform="matrix(0.891 0.454 -0.454 0.891 202.8063 -505.9297)" width="1" height="4"/>
	<rect x="1149.6" y="165.3" transform="matrix(0.9511 0.309 -0.309 0.9511 107.9799 -347.1712)" width="1" height="4"/>
	<rect x="1147" y="164.6" transform="matrix(0.9724 0.2335 -0.2335 0.9724 70.6126 -263.3158)" width="1" height="4"/>
	<rect x="1144.3" y="164.1" transform="matrix(0.9877 0.1565 -0.1565 0.9877 40.0935 -177.1156)" width="1" height="4"/>
	<rect x="1141.6" y="163.7" transform="matrix(0.9969 7.849328e-02 -7.849328e-02 0.9969 16.5331 -89.1396)" width="1" height="4"/>
	<path d="M1139.4,205c-2.8,0-5-2.2-5-5c0-2.8,2.2-5,5-5s5,2.2,5,5C1144.4,202.8,1142.1,205,1139.4,205z M1139.4,197
		c-1.7,0-3,1.3-3,3c0,1.7,1.3,3,3,3s3-1.3,3-3C1142.4,198.3,1141,197,1139.4,197z"/>
	<path d="M1139.4,225c-0.6,0-1-0.4-1-1v-20c0-0.6,0.4-1,1-1s1,0.4,1,1v20C1140.4,224.6,1139.9,225,1139.4,225z"/>
	<g>
		<path d="M1154,341.4h-2v-87.9l0.8-0.2c23.5-6.1,40.6-28.1,40.6-52.3v-21h2v21c0,24.9-17.4,47.5-41.4,54V341.4z"/>
		<path d="M1126,341.4h-2v-86.6c-24.3-7.9-40.6-29.9-40.6-54.8v-20h2v20c0,24.3,16,45.6,39.9,53.1l0.7,0.2V341.4z"/>
	</g>
	<path d="M1225,169h-57.3c2,1.8,3.8,3.8,5.4,6h51.9c2.7,0,5.1,1.1,6.9,3c1.8,2,2.7,4.5,2.4,7.2l-13.7,153.6
		c-0.4,4.9-4.4,8.5-9.3,8.5h-144c-4.9,0-8.9-3.7-9.3-8.5l-13.7-153.6c-0.2-2.6,0.6-5.2,2.4-7.2s4.2-3,6.9-3h51.9
		c1.6-2.2,3.4-4.2,5.4-6h-57.3c-9,0-16.1,7.7-15.3,16.7l13.7,153.6c0.7,7.9,7.3,14,15.3,14h144c8,0,14.6-6.1,15.3-14l13.7-153.6
		C1241.1,176.7,1234,169,1225,169z"/>
	<path d="M1208.7,343.3h-138.7c-4.1,0-7.5-3.1-7.9-7.2L1049,187.7c-0.2-2.2,0.5-4.4,2-6c1.5-1.6,3.6-2.6,5.8-2.6h46.6v2h-46.6
		c-1.7,0-3.2,0.7-4.4,1.9c-1.1,1.2-1.7,2.9-1.5,4.5l13.2,148.5c0.3,3.1,2.8,5.4,5.9,5.4h138.7c3.1,0,5.6-2.3,5.9-5.4l13.2-148.5
		c0.1-1.6-0.4-3.3-1.5-4.5c-1.1-1.2-2.7-1.9-4.4-1.9h-46.6v-2h46.6c2.2,0,4.3,0.9,5.8,2.6c1.5,1.6,2.2,3.8,2,6l-13.2,148.5
		C1216.2,340.2,1212.9,343.3,1208.7,343.3z"/>
</g>
<g>
	<g>
		<rect x="501" y="490.2" transform="matrix(0.4999 0.8661 -0.8661 0.4999 679.9517 -187.0547)" width="2" height="10.1"/>
		<path d="M495.9,501c0.4,0,0.7,0,1.1-0.1l3.3,5.7c1.1-0.8,2.2-1.5,3.4-2.2l-4.9-8.4l-0.9,0.5c-0.6,0.4-1.3,0.5-2,0.5
			c-1.4,0-2.7-0.7-3.5-2c-1.1-1.9-0.4-4.4,1.5-5.5l6.9-4c0.6-0.4,1.3-0.5,2-0.5c1.4,0,2.7,0.7,3.5,2c1.1,1.9,0.4,4.4-1.5,5.5
			l-0.9,0.5l4.9,8.4c1.2-0.6,2.4-1.2,3.6-1.8l-3.3-5.6c0.7-0.8,1.1-1.8,1.4-2.9c0.6-2.1,0.3-4.2-0.8-6.1c-1.4-2.5-4.1-4-6.9-4
			c-1.4,0-2.8,0.4-4,1.1l-6.9,4c-3.8,2.2-5.1,7.1-2.9,10.9C490.4,499.4,493.1,501,495.9,501z"/>
	</g>
	<g>
		<path d="M551.4,493.6c48.3,0,87.5,39.2,87.5,87.5c0,48.3-39.2,87.5-87.5,87.5s-87.5-39.2-87.5-87.5
			C463.9,532.8,503.1,493.6,551.4,493.6 M551.4,487.6c-51.6,0-93.5,41.9-93.5,93.5c0,51.6,41.9,93.5,93.5,93.5s93.5-41.9,93.5-93.5
			C644.9,529.6,603,487.6,551.4,487.6L551.4,487.6z"/>
	</g>
	<g>
		<path d="M551.4,501.1c44.2,0,80,35.8,80,80c0,44.2-35.8,80-80,80s-80-35.8-80-80C471.4,537,507.3,501.1,551.4,501.1 M551.4,499.1
			c-45.2,0-82,36.8-82,82c0,45.2,36.8,82,82,82c45.2,0,82-36.8,82-82C633.4,535.9,596.7,499.1,551.4,499.1L551.4,499.1z"/>
	</g>
	<path d="M551.5,519.9c-0.6,0-1-0.4-1-1v-12c0-0.6,0.4-1,1-1s1,0.4,1,1v12C552.5,519.4,552.1,519.9,551.5,519.9z"/>
	<path d="M551.5,513.9c-0.6,0-1-0.4-1-1v-6c0-0.6,0.4-1,1-1s1,0.4,1,1v6C552.5,513.4,552.1,513.9,551.5,513.9z"/>
	<path d="M544.4,514.2c-0.5,0-0.9-0.4-1-0.9l-0.6-6c-0.1-0.5,0.3-1,0.9-1.1c0.5-0.1,1,0.3,1.1,0.9l0.6,6c0.1,0.5-0.3,1-0.9,1.1
		C544.4,514.2,544.4,514.2,544.4,514.2z"/>
	<path d="M537.3,515.4c-0.5,0-0.9-0.3-1-0.8l-1.2-5.9c-0.1-0.5,0.2-1.1,0.8-1.2c0.5-0.1,1.1,0.2,1.2,0.8l1.2,5.9
		c0.1,0.5-0.2,1.1-0.8,1.2C537.4,515.3,537.4,515.4,537.3,515.4z"/>
	<path d="M530.4,517.2c-0.4,0-0.8-0.3-1-0.7l-1.9-5.7c-0.2-0.5,0.1-1.1,0.6-1.3c0.5-0.2,1.1,0.1,1.3,0.6l1.9,5.7
		c0.2,0.5-0.1,1.1-0.6,1.3C530.6,517.2,530.5,517.2,530.4,517.2z"/>
	<path d="M523.7,519.8c-0.4,0-0.7-0.2-0.9-0.6l-2.4-5.5c-0.2-0.5,0-1.1,0.5-1.3c0.5-0.2,1.1,0,1.3,0.5l2.4,5.5
		c0.2,0.5,0,1.1-0.5,1.3C524,519.7,523.9,519.8,523.7,519.8z"/>
	<path d="M517.4,523c-0.3,0-0.7-0.2-0.9-0.5l-3-5.2c-0.3-0.5-0.1-1.1,0.4-1.4c0.5-0.3,1.1-0.1,1.4,0.4l3,5.2
		c0.3,0.5,0.1,1.1-0.4,1.4C517.7,523,517.5,523,517.4,523z"/>
	<path d="M511.4,526.9c-0.3,0-0.6-0.1-0.8-0.4l-3.5-4.9c-0.3-0.4-0.2-1.1,0.2-1.4c0.4-0.3,1.1-0.2,1.4,0.2l3.5,4.9
		c0.3,0.4,0.2,1.1-0.2,1.4C511.8,526.8,511.6,526.9,511.4,526.9z"/>
	<path d="M505.8,531.4c-0.3,0-0.5-0.1-0.7-0.3l-4-4.5c-0.4-0.4-0.3-1,0.1-1.4c0.4-0.4,1-0.3,1.4,0.1l4,4.5c0.4,0.4,0.3,1-0.1,1.4
		C506.3,531.3,506,531.4,505.8,531.4z"/>
	<path d="M500.7,536.4c-0.2,0-0.5-0.1-0.7-0.3l-4.5-4c-0.4-0.4-0.4-1-0.1-1.4c0.4-0.4,1-0.4,1.4-0.1l4.5,4c0.4,0.4,0.4,1,0.1,1.4
		C501.3,536.3,501,536.4,500.7,536.4z"/>
	<path d="M496.2,542c-0.2,0-0.4-0.1-0.6-0.2l-4.9-3.5c-0.4-0.3-0.5-0.9-0.2-1.4c0.3-0.4,0.9-0.5,1.4-0.2l4.9,3.5
		c0.4,0.3,0.5,0.9,0.2,1.4C496.9,541.8,496.6,542,496.2,542z"/>
	<path d="M492.3,548c-0.2,0-0.3,0-0.5-0.1l-5.2-3c-0.5-0.3-0.6-0.9-0.4-1.4c0.3-0.5,0.9-0.6,1.4-0.4l5.2,3c0.5,0.3,0.6,0.9,0.4,1.4
		C493,547.8,492.7,548,492.3,548z"/>
	<path d="M489.1,554.3c-0.1,0-0.3,0-0.4-0.1l-5.5-2.4c-0.5-0.2-0.7-0.8-0.5-1.3c0.2-0.5,0.8-0.7,1.3-0.5l5.5,2.4
		c0.5,0.2,0.7,0.8,0.5,1.3C489.8,554.1,489.5,554.3,489.1,554.3z"/>
	<path d="M486.5,561c-0.1,0-0.2,0-0.3,0l-5.7-1.9c-0.5-0.2-0.8-0.7-0.6-1.3s0.7-0.8,1.3-0.6l5.7,1.9c0.5,0.2,0.8,0.7,0.6,1.3
		C487.3,560.7,487,561,486.5,561z"/>
	<path d="M484.7,567.9c-0.1,0-0.1,0-0.2,0l-5.9-1.2c-0.5-0.1-0.9-0.6-0.8-1.2c0.1-0.5,0.6-0.9,1.2-0.8l5.9,1.2
		c0.5,0.1,0.9,0.6,0.8,1.2C485.6,567.6,485.1,567.9,484.7,567.9z"/>
	<path d="M483.6,575c0,0-0.1,0-0.1,0l-6-0.6c-0.5-0.1-0.9-0.5-0.9-1.1c0.1-0.5,0.5-1,1.1-0.9l6,0.6c0.5,0.1,0.9,0.5,0.9,1.1
		C484.5,574.6,484.1,575,483.6,575z"/>
	<path d="M483.2,582.1h-6c-0.6,0-1-0.4-1-1c0-0.6,0.4-1,1-1h6c0.6,0,1,0.4,1,1C484.2,581.6,483.7,582.1,483.2,582.1z"/>
	<path d="M477.6,589.9c-0.5,0-0.9-0.4-1-0.9c-0.1-0.5,0.3-1,0.9-1.1l6-0.6c0.5-0.1,1,0.3,1.1,0.9c0.1,0.5-0.3,1-0.9,1.1l-6,0.6
		C477.6,589.9,477.6,589.9,477.6,589.9z"/>
	<path d="M478.8,597.5c-0.5,0-0.9-0.3-1-0.8c-0.1-0.5,0.2-1.1,0.8-1.2l5.9-1.2c0.5-0.1,1.1,0.2,1.2,0.8c0.1,0.5-0.2,1.1-0.8,1.2
		l-5.9,1.2C478.9,597.5,478.9,597.5,478.8,597.5z"/>
	<path d="M480.8,605c-0.4,0-0.8-0.3-1-0.7c-0.2-0.5,0.1-1.1,0.6-1.3l5.7-1.9c0.5-0.2,1.1,0.1,1.3,0.6c0.2,0.5-0.1,1.1-0.6,1.3
		l-5.7,1.9C481,605,480.9,605,480.8,605z"/>
	<path d="M483.6,612.3c-0.4,0-0.7-0.2-0.9-0.6c-0.2-0.5,0-1.1,0.5-1.3l5.5-2.4c0.5-0.2,1.1,0,1.3,0.5c0.2,0.5,0,1.1-0.5,1.3
		l-5.5,2.4C483.9,612.3,483.7,612.3,483.6,612.3z"/>
	<path d="M487.1,619.2c-0.3,0-0.7-0.2-0.9-0.5c-0.3-0.5-0.1-1.1,0.4-1.4l5.2-3c0.5-0.3,1.1-0.1,1.4,0.4c0.3,0.5,0.1,1.1-0.4,1.4
		l-5.2,3C487.4,619.2,487.3,619.2,487.1,619.2z"/>
	<path d="M491.3,625.8c-0.3,0-0.6-0.1-0.8-0.4c-0.3-0.4-0.2-1.1,0.2-1.4l4.9-3.5c0.4-0.3,1.1-0.2,1.4,0.2c0.3,0.4,0.2,1.1-0.2,1.4
		l-4.9,3.5C491.7,625.7,491.5,625.8,491.3,625.8z"/>
	<path d="M496.2,631.8c-0.3,0-0.5-0.1-0.7-0.3c-0.4-0.4-0.3-1,0.1-1.4l4.5-4c0.4-0.4,1-0.3,1.4,0.1c0.4,0.4,0.3,1-0.1,1.4l-4.5,4
		C496.7,631.7,496.5,631.8,496.2,631.8z"/>
	<path d="M501.7,637.3c-0.2,0-0.5-0.1-0.7-0.3c-0.4-0.4-0.4-1-0.1-1.4l4-4.5c0.4-0.4,1-0.4,1.4-0.1c0.4,0.4,0.4,1,0.1,1.4l-4,4.5
		C502.3,637.2,502,637.3,501.7,637.3z"/>
	<path d="M507.7,642.2c-0.2,0-0.4-0.1-0.6-0.2c-0.4-0.3-0.5-0.9-0.2-1.4l3.5-4.9c0.3-0.4,0.9-0.5,1.4-0.2c0.4,0.3,0.5,0.9,0.2,1.4
		l-3.5,4.9C508.4,642.1,508.1,642.2,507.7,642.2z"/>
	<path d="M514.3,646.4c-0.2,0-0.3,0-0.5-0.1c-0.5-0.3-0.6-0.9-0.4-1.4l3-5.2c0.3-0.5,0.9-0.6,1.4-0.4c0.5,0.3,0.6,0.9,0.4,1.4
		l-3,5.2C514.9,646.3,514.6,646.4,514.3,646.4z"/>
	<path d="M521.2,650c-0.1,0-0.3,0-0.4-0.1c-0.5-0.2-0.7-0.8-0.5-1.3l2.4-5.5c0.2-0.5,0.8-0.7,1.3-0.5c0.5,0.2,0.7,0.8,0.5,1.3
		l-2.4,5.5C521.9,649.8,521.6,650,521.2,650z"/>
	<path d="M528.4,652.8c-0.1,0-0.2,0-0.3,0c-0.5-0.2-0.8-0.7-0.6-1.3l1.9-5.7c0.2-0.5,0.7-0.8,1.3-0.6c0.5,0.2,0.8,0.7,0.6,1.3
		l-1.9,5.7C529.3,652.5,528.9,652.8,528.4,652.8z"/>
	<path d="M536,654.8c-0.1,0-0.1,0-0.2,0c-0.5-0.1-0.9-0.6-0.8-1.2l1.2-5.9c0.1-0.5,0.6-0.9,1.2-0.8c0.5,0.1,0.9,0.6,0.8,1.2
		l-1.2,5.9C536.8,654.5,536.4,654.8,536,654.8z"/>
	<path d="M543.6,656c0,0-0.1,0-0.1,0c-0.5-0.1-0.9-0.5-0.9-1.1l0.6-6c0.1-0.5,0.5-1,1.1-0.9c0.5,0.1,0.9,0.5,0.9,1.1l-0.6,6
		C544.6,655.6,544.1,656,543.6,656z"/>
	<path d="M551.4,656.4c-0.6,0-1-0.4-1-1v-6c0-0.6,0.4-1,1-1c0.6,0,1,0.4,1,1v6C552.4,656,551.9,656.4,551.4,656.4z"/>
	<path d="M559.2,656c-0.5,0-0.9-0.4-1-0.9l-0.6-6c-0.1-0.5,0.3-1,0.9-1.1c0.5-0.1,1,0.3,1.1,0.9l0.6,6c0.1,0.5-0.3,1-0.9,1.1
		C559.2,656,559.2,656,559.2,656z"/>
	<path d="M566.8,654.8c-0.5,0-0.9-0.3-1-0.8l-1.2-5.9c-0.1-0.5,0.2-1.1,0.8-1.2c0.5-0.1,1.1,0.2,1.2,0.8l1.2,5.9
		c0.1,0.5-0.2,1.1-0.8,1.2C567,654.8,566.9,654.8,566.8,654.8z"/>
	<path d="M574.3,652.8c-0.4,0-0.8-0.3-1-0.7l-1.9-5.7c-0.2-0.5,0.1-1.1,0.6-1.3c0.5-0.2,1.1,0.1,1.3,0.6l1.9,5.7
		c0.2,0.5-0.1,1.1-0.6,1.3C574.6,652.8,574.5,652.8,574.3,652.8z"/>
	<path d="M581.6,650c-0.4,0-0.7-0.2-0.9-0.6l-2.4-5.5c-0.2-0.5,0-1.1,0.5-1.3c0.5-0.2,1.1,0,1.3,0.5l2.4,5.5c0.2,0.5,0,1.1-0.5,1.3
		C581.9,650,581.7,650,581.6,650z"/>
	<path d="M588.5,646.5c-0.3,0-0.7-0.2-0.9-0.5l-3-5.2c-0.3-0.5-0.1-1.1,0.4-1.4c0.5-0.3,1.1-0.1,1.4,0.4l3,5.2
		c0.3,0.5,0.1,1.1-0.4,1.4C588.9,646.5,588.7,646.5,588.5,646.5z"/>
	<path d="M595.1,642.3c-0.3,0-0.6-0.1-0.8-0.4l-3.5-4.9c-0.3-0.4-0.2-1.1,0.2-1.4c0.4-0.3,1.1-0.2,1.4,0.2l3.5,4.9
		c0.3,0.4,0.2,1.1-0.2,1.4C595.5,642.2,595.3,642.3,595.1,642.3z"/>
	<path d="M601.1,637.4c-0.3,0-0.5-0.1-0.7-0.3l-4-4.5c-0.4-0.4-0.3-1,0.1-1.4c0.4-0.4,1-0.3,1.4,0.1l4,4.5c0.4,0.4,0.3,1-0.1,1.4
		C601.6,637.3,601.3,637.4,601.1,637.4z"/>
	<path d="M606.6,631.9c-0.2,0-0.5-0.1-0.7-0.3l-4.5-4c-0.4-0.4-0.4-1-0.1-1.4c0.4-0.4,1-0.4,1.4-0.1l4.5,4c0.4,0.4,0.4,1,0.1,1.4
		C607.2,631.8,606.9,631.9,606.6,631.9z"/>
	<path d="M611.5,625.8c-0.2,0-0.4-0.1-0.6-0.2l-4.9-3.5c-0.4-0.3-0.5-0.9-0.2-1.4c0.3-0.4,0.9-0.5,1.4-0.2l4.9,3.5
		c0.4,0.3,0.5,0.9,0.2,1.4C612.1,625.7,611.8,625.8,611.5,625.8z"/>
	<path d="M615.7,619.3c-0.2,0-0.3,0-0.5-0.1l-5.2-3c-0.5-0.3-0.6-0.9-0.4-1.4c0.3-0.5,0.9-0.6,1.4-0.4l5.2,3
		c0.5,0.3,0.6,0.9,0.4,1.4C616.4,619.1,616.1,619.3,615.7,619.3z"/>
	<path d="M619.3,612.4c-0.1,0-0.3,0-0.4-0.1l-5.5-2.4c-0.5-0.2-0.7-0.8-0.5-1.3c0.2-0.5,0.8-0.7,1.3-0.5l5.5,2.4
		c0.5,0.2,0.7,0.8,0.5,1.3C620,612.2,619.7,612.4,619.3,612.4z"/>
	<path d="M622.1,605.1c-0.1,0-0.2,0-0.3,0l-5.7-1.9c-0.5-0.2-0.8-0.7-0.6-1.3c0.2-0.5,0.7-0.8,1.3-0.6l5.7,1.9
		c0.5,0.2,0.8,0.7,0.6,1.3C622.9,604.9,622.5,605.1,622.1,605.1z"/>
	<path d="M624.1,597.6c-0.1,0-0.1,0-0.2,0l-5.9-1.2c-0.5-0.1-0.9-0.6-0.8-1.2c0.1-0.5,0.6-0.9,1.2-0.8l5.9,1.2
		c0.5,0.1,0.9,0.6,0.8,1.2C625,597.3,624.5,597.6,624.1,597.6z"/>
	<path d="M625.3,590c0,0-0.1,0-0.1,0l-6-0.6c-0.5-0.1-0.9-0.5-0.9-1.1c0.1-0.5,0.5-1,1.1-0.9l6,0.6c0.5,0.1,0.9,0.5,0.9,1.1
		C626.2,589.6,625.8,590,625.3,590z"/>
	<path d="M625.7,582.2h-6c-0.6,0-1-0.4-1-1c0-0.6,0.4-1,1-1h6c0.6,0,1,0.4,1,1C626.7,581.8,626.3,582.2,625.7,582.2z"/>
	<path d="M619.3,575.1c-0.5,0-0.9-0.4-1-0.9c-0.1-0.5,0.3-1,0.9-1.1l6-0.6c0.5-0.1,1,0.3,1.1,0.9c0.1,0.5-0.3,1-0.9,1.1l-6,0.6
		C619.4,575.1,619.4,575.1,619.3,575.1z"/>
	<path d="M618.2,568c-0.5,0-0.9-0.3-1-0.8c-0.1-0.5,0.2-1.1,0.8-1.2l5.9-1.2c0.5-0.1,1.1,0.2,1.2,0.8c0.1,0.5-0.2,1.1-0.8,1.2
		l-5.9,1.2C618.4,568,618.3,568,618.2,568z"/>
	<path d="M616.4,561.1c-0.4,0-0.8-0.3-1-0.7c-0.2-0.5,0.1-1.1,0.6-1.3l5.7-1.9c0.5-0.2,1.1,0.1,1.3,0.6c0.2,0.5-0.1,1.1-0.6,1.3
		l-5.7,1.9C616.6,561.1,616.5,561.1,616.4,561.1z"/>
	<path d="M613.8,554.4c-0.4,0-0.7-0.2-0.9-0.6c-0.2-0.5,0-1.1,0.5-1.3l5.5-2.4c0.5-0.2,1.1,0,1.3,0.5c0.2,0.5,0,1.1-0.5,1.3
		l-5.5,2.4C614.1,554.4,614,554.4,613.8,554.4z"/>
	<path d="M610.6,548.1c-0.3,0-0.7-0.2-0.9-0.5c-0.3-0.5-0.1-1.1,0.4-1.4l5.2-3c0.5-0.3,1.1-0.1,1.4,0.4c0.3,0.5,0.1,1.1-0.4,1.4
		l-5.2,3C610.9,548,610.8,548.1,610.6,548.1z"/>
	<path d="M606.7,542.1c-0.3,0-0.6-0.1-0.8-0.4c-0.3-0.4-0.2-1.1,0.2-1.4l4.9-3.5c0.4-0.3,1.1-0.2,1.4,0.2c0.3,0.4,0.2,1.1-0.2,1.4
		l-4.9,3.5C607.1,542,606.9,542.1,606.7,542.1z"/>
	<path d="M602.2,536.5c-0.3,0-0.5-0.1-0.7-0.3c-0.4-0.4-0.3-1,0.1-1.4l4.5-4c0.4-0.4,1-0.3,1.4,0.1c0.4,0.4,0.3,1-0.1,1.4l-4.5,4
		C602.7,536.4,602.5,536.5,602.2,536.5z"/>
	<path d="M597.2,531.4c-0.2,0-0.5-0.1-0.7-0.3c-0.4-0.4-0.4-1-0.1-1.4l4-4.5c0.4-0.4,1-0.4,1.4-0.1c0.4,0.4,0.4,1,0.1,1.4l-4,4.5
		C597.7,531.3,597.4,531.4,597.2,531.4z"/>
	<path d="M591.6,526.9c-0.2,0-0.4-0.1-0.6-0.2c-0.4-0.3-0.5-0.9-0.2-1.4l3.5-4.9c0.3-0.4,1-0.5,1.4-0.2c0.4,0.3,0.5,0.9,0.2,1.4
		l-3.5,4.9C592.2,526.8,591.9,526.9,591.6,526.9z"/>
	<path d="M585.6,523c-0.2,0-0.3,0-0.5-0.1c-0.5-0.3-0.6-0.9-0.4-1.4l3-5.2c0.3-0.5,0.9-0.6,1.4-0.4c0.5,0.3,0.6,0.9,0.4,1.4l-3,5.2
		C586.3,522.9,586,523,585.6,523z"/>
	<path d="M579.3,519.8c-0.1,0-0.3,0-0.4-0.1c-0.5-0.2-0.7-0.8-0.5-1.3l2.4-5.5c0.2-0.5,0.8-0.7,1.3-0.5c0.5,0.2,0.7,0.8,0.5,1.3
		l-2.4,5.5C580,519.6,579.6,519.8,579.3,519.8z"/>
	<path d="M572.6,517.2c-0.1,0-0.2,0-0.3,0c-0.5-0.2-0.8-0.7-0.6-1.3l1.9-5.7c0.2-0.5,0.7-0.8,1.3-0.6c0.5,0.2,0.8,0.7,0.6,1.3
		l-1.9,5.7C573.4,517,573,517.2,572.6,517.2z"/>
	<path d="M565.7,515.4c-0.1,0-0.1,0-0.2,0c-0.5-0.1-0.9-0.6-0.8-1.2l1.2-5.9c0.1-0.5,0.6-0.9,1.2-0.8c0.5,0.1,0.9,0.6,0.8,1.2
		l-1.2,5.9C566.6,515.1,566.2,515.4,565.7,515.4z"/>
	<path d="M558.6,514.3c0,0-0.1,0-0.1,0c-0.5-0.1-0.9-0.5-0.9-1.1l0.6-6c0.1-0.5,0.5-1,1.1-0.9c0.5,0.1,0.9,0.5,0.9,1.1l-0.6,6
		C559.6,513.9,559.1,514.3,558.6,514.3z"/>
	<path d="M520.4,528.2c-0.3,0-0.7-0.2-0.9-0.5l-6-10.4c-0.3-0.5-0.1-1.1,0.4-1.4c0.5-0.3,1.1-0.1,1.4,0.4l6,10.4
		c0.3,0.5,0.1,1.1-0.4,1.4C520.7,528.1,520.5,528.2,520.4,528.2z"/>
	<path d="M497.5,551c-0.2,0-0.3,0-0.5-0.1l-10.4-6c-0.5-0.3-0.6-0.9-0.4-1.4c0.3-0.5,0.9-0.6,1.4-0.4l10.4,6
		c0.5,0.3,0.6,0.9,0.4,1.4C498.2,550.8,497.9,551,497.5,551z"/>
	<path d="M489.2,582.1h-12c-0.6,0-1-0.4-1-1c0-0.6,0.4-1,1-1h12c0.6,0,1,0.4,1,1C490.2,581.6,489.7,582.1,489.2,582.1z"/>
	<path d="M487.1,619.2c-0.3,0-0.7-0.2-0.9-0.5c-0.3-0.5-0.1-1.1,0.4-1.4l10.4-6c0.5-0.3,1.1-0.1,1.4,0.4c0.3,0.5,0.1,1.1-0.4,1.4
		l-10.4,6C487.4,619.2,487.3,619.2,487.1,619.2z"/>
	<path d="M514.3,646.4c-0.2,0-0.3,0-0.5-0.1c-0.5-0.3-0.6-0.9-0.4-1.4l6-10.4c0.3-0.5,0.9-0.6,1.4-0.4c0.5,0.3,0.6,0.9,0.4,1.4
		l-6,10.4C514.9,646.3,514.6,646.4,514.3,646.4z"/>
	<path d="M551.4,656.4c-0.6,0-1-0.4-1-1v-12c0-0.6,0.4-1,1-1c0.6,0,1,0.4,1,1v12C552.4,656,551.9,656.4,551.4,656.4z"/>
	<path d="M588.5,646.5c-0.3,0-0.7-0.2-0.9-0.5l-6-10.4c-0.3-0.5-0.1-1.1,0.4-1.4c0.5-0.3,1.1-0.1,1.4,0.4l6,10.4
		c0.3,0.5,0.1,1.1-0.4,1.4C588.9,646.5,588.7,646.5,588.5,646.5z"/>
	<path d="M615.7,619.3c-0.2,0-0.3,0-0.5-0.1l-10.4-6c-0.5-0.3-0.6-0.9-0.4-1.4c0.3-0.5,0.9-0.6,1.4-0.4l10.4,6
		c0.5,0.3,0.6,0.9,0.4,1.4C616.4,619.1,616.1,619.3,615.7,619.3z"/>
	<path d="M625.7,582.2h-12c-0.6,0-1-0.4-1-1c0-0.6,0.4-1,1-1h12c0.6,0,1,0.4,1,1C626.7,581.8,626.3,582.2,625.7,582.2z"/>
	<path d="M605.4,551.1c-0.3,0-0.7-0.2-0.9-0.5c-0.3-0.5-0.1-1.1,0.4-1.4l10.4-6c0.5-0.3,1.1-0.1,1.4,0.4c0.3,0.5,0.1,1.1-0.4,1.4
		l-10.4,6C605.7,551,605.6,551.1,605.4,551.1z"/>
	<path d="M582.6,528.2c-0.2,0-0.3,0-0.5-0.1c-0.5-0.3-0.6-0.9-0.4-1.4l6-10.4c0.3-0.5,0.9-0.6,1.4-0.4c0.5,0.3,0.6,0.9,0.4,1.4
		l-6,10.4C583.3,528.1,583,528.2,582.6,528.2z"/>
	<g>
		<path d="M551.4,576.1c2.8,0,5,2.2,5,5c0,2.8-2.2,5-5,5s-5-2.2-5-5C546.4,578.4,548.7,576.1,551.4,576.1 M551.4,572.1c-5,0-9,4-9,9
			c0,5,4,9,9,9s9-4,9-9C560.4,576.2,556.4,572.1,551.4,572.1L551.4,572.1z"/>
	</g>
	<path d="M558.4,480.1V472h1c4.4,0,8-3.6,8-8c0-4.4-3.6-8-8-8h-16c-4.4,0-8,3.6-8,8c0,4.4,3.6,8,8,8h1v8.1c-5,0.5-9,4.8-9,10v2v0.1
		c1.3-0.2,2.7-0.4,4-0.6V490c0-3.3,2.7-6,6-6h12c3.3,0,6,2.7,6,6v1.4c1.3,0.2,2.7,0.4,4,0.6V492v-2
		C567.4,484.8,563.5,480.6,558.4,480.1z M548.4,470h6v12h-6V470z M556.6,468h-13.2c-2.2,0-4-1.8-4-4c0-2.2,1.8-4,4-4h16
		c2.2,0,4,1.8,4,4c0,2.2-1.8,4-4,4H556.6z"/>
	<path d="M536.5,491.9c2.8-0.5,5.6-0.8,8.5-1c-12.1-2.9-21.1-13.8-21.1-26.7c0-15.2,12.3-27.5,27.5-27.5s27.5,12.3,27.5,27.5
		c0,13-9,23.8-21.1,26.7c2.9,0.2,5.7,0.5,8.5,1c9.9-5.3,16.6-15.8,16.6-27.7c0-17.4-14.1-31.5-31.5-31.5
		c-17.4,0-31.5,14.1-31.5,31.5C519.9,476.1,526.7,486.6,536.5,491.9z"/>
	<g>
		<path d="M551.4,574.1c0.4,0,0.7,0,1.1,0.1v-44.4c0-0.6-0.4-1-1-1s-1,0.4-1,1v44.3C550.8,574.2,551.1,574.1,551.4,574.1z"/>
		<path d="M551.4,588.1c-0.3,0-0.6,0-0.9-0.1v11.8c0,0.6,0.4,1,1,1s1-0.4,1-1v-11.8C552.2,588.1,551.8,588.1,551.4,588.1z"/>
	</g>
</g>
<g>
	<g>
		<path d="M816.6,453.6c3.8,0,6.7,2.9,6.7,6.9v11.8c7.1-1.7,15.1-2.6,23.7-2.6c27.8,0,50.3,10,51,22.5h0c5,0,9,4,9,9v12.7
			c0,1.2-1,2.3-2.3,2.3H895l-9.5,136.1c-0.1,2.1-1.9,3.7-4,3.7h-70.9c-2.1,0-3.9-1.6-4-3.7L797,516.1h-7.8c-1.2,0-2.3-1-2.3-2.3
			v-12.7c0-5,4-9,9-9h0c0.2-4.7,3.5-9,9-12.5l2.3-17.9c0.7-4.3,3.4-8,7.9-8c0,0,0.1,0,0.1,0C815.8,453.6,816.2,453.6,816.6,453.6
			 M816.6,447.6L816.6,447.6L816.6,447.6c-0.6,0-1.2,0-1.8,0.1c-6.8,0.2-12.1,5.2-13.5,13l0,0.1l0,0.1l-1.9,15.3
			c-4.8,3.7-7.3,7.4-8.4,10.8c-5.8,2.1-10,7.6-10,14.2v12.7c0,4.6,3.7,8.3,8.3,8.3h2.2l9.1,130.6c0.3,5.2,4.7,9.3,10,9.3h70.9
			c5.3,0,9.6-4.1,10-9.3l9.1-130.5h4.2c4.6,0,8.3-3.7,8.3-8.3v-12.7c0-6.5-4.2-12.1-10-14.2c-2.3-6.4-8.5-12.1-17.9-16.2
			c-10.3-4.6-23.9-7.1-38.1-7.1c-6.1,0-12,0.4-17.7,1.3v-4.6C829.3,453.2,823.7,447.6,816.6,447.6L816.6,447.6L816.6,447.6z"/>
	</g>
	<rect x="789.7" y="489.6" width="114.4" height="4"/>
	<rect x="795.6" y="522.6" width="101.8" height="2"/>
	<g>
		<line x1="785.1" y1="518" x2="906.9" y2="518"/>
		<rect x="785.1" y="516" width="121.9" height="4"/>
	</g>
	<path d="M816.6,450.6c2.3,0,4.3,0.7,5.9,1.9c13.7-3.9,29-5.1,42.1-5.1c12.2,0,22.6,1.1,28.2,2c9,1.5,11.6,3.8,10.5,4.7
		c-0.6,0.5-1.1,0.7-2,0.7c-1.5,0-4.1-0.7-10.4-1.3v4.4c0,0.6-0.5,1.1-1.1,1.1h-29.7c-0.6,0-1.1-0.5-1.1-1.1V453
		c-15.7,0.7-26,5.2-32.7,10v5c5.3-4.5,14.2-9.4,28.7-10.8v0.6c0,2.8,2.3,5.1,5.1,5.1h29.7c2.8,0,5.1-2.2,5.1-5
		c1.2,0.2,2.2,0.3,3,0.4c1.5,0.2,2.4,0.4,3.4,0.4c1.7,0,3.1-0.5,4.5-1.6c1.4-1.2,2-3,1.6-4.7c-0.6-2.1-2.6-5.1-14-7
		c-6-1-16.7-2-28.9-2c-13.4,0-32.8,1.3-49.5,7.3C815.6,450.6,816.1,450.6,816.6,450.6z"/>
	<path d="M865,471.1V462h20v15.3c2.3,1.1,4.3,2.4,6,3.7v-23.2c0,0.6-0.5,1.1-1.1,1.1h-29.7c-0.6,0-1.1-0.5-1.1-1.1V456h0v14.3
		C861.1,470.5,863.1,470.8,865,471.1z"/>
</g>
</svg>
