<?xml version="1.0" encoding="utf-8"?>
<!-- Generator: Adobe Illustrator 16.0.0, SVG Export Plug-In . SVG Version: 6.00 Build 0)  -->
<!DOCTYPE svg PUBLIC "-//W3C//DTD SVG 1.1//EN" "http://www.w3.org/Graphics/SVG/1.1/DTD/svg11.dtd">
<svg version="1.1" id="Layer_1" xmlns="http://www.w3.org/2000/svg" xmlns:xlink="http://www.w3.org/1999/xlink" x="0px" y="0px"
	 width="100px" height="100px" viewBox="0 0 100 100" enable-background="new 0 0 100 100" xml:space="preserve">
<path d="M82.611,28.071h-13.53v-7.549c0-3.444-2.804-6.246-6.25-6.246H38.956c-3.442,0-6.242,2.802-6.242,6.246v7.549h-13.53
	c-5.019,0-9.103,4.082-9.103,9.098v19.742c0,1.104,0.896,2,2,2h1.724v17.741c0,5.017,4.083,9.098,9.103,9.098h55.98
	c5.015,0,9.095-4.081,9.095-9.098V58.911h1.724c1.104,0,2-0.896,2-2V37.169C91.707,32.153,87.626,28.071,82.611,28.071z
	 M36.714,20.522c0-1.238,1.006-2.246,2.242-2.246h23.875c1.24,0,2.25,1.007,2.25,2.246v7.549H36.714V20.522z M19.184,32.071h63.428
	c2.81,0,5.095,2.287,5.095,5.098v17.742H59.058v-6.799c0-1.104-0.896-2-2-2H44.737c-1.104,0-2,0.896-2,2v6.799H14.081V37.169
	C14.081,34.358,16.37,32.071,19.184,32.071z M46.737,50.112h8.321v13.599h-8.321V50.112z M83.982,76.652
	c0,2.811-2.286,5.098-5.095,5.098h-55.98c-2.813,0-5.103-2.287-5.103-5.098V58.911h24.932v6.8c0,1.104,0.896,2,2,2h12.321
	c1.104,0,2-0.896,2-2v-6.8h24.924V76.652z"/>
</svg>
