<?xml version="1.0" encoding="utf-8"?>
<!-- Generator: Adobe Illustrator 16.0.0, SVG Export Plug-In . SVG Version: 6.00 Build 0)  -->
<!DOCTYPE svg PUBLIC "-//W3C//DTD SVG 1.1//EN" "http://www.w3.org/Graphics/SVG/1.1/DTD/svg11.dtd">
<svg version="1.1" id="Layer_1" xmlns="http://www.w3.org/2000/svg" xmlns:xlink="http://www.w3.org/1999/xlink" x="0px" y="0px"
	 width="100px" height="100px" viewBox="0 0 100 100" enable-background="new 0 0 100 100" xml:space="preserve">
<circle cx="27.871" cy="44.207" r="2.656"/>
<path d="M92.545,34.953l-2.02-2.02c-1.957-1.957-5.141-1.957-7.097,0c-0.948,0.947-1.469,2.208-1.469,3.549
	c0,1.34,0.523,2.601,1.47,3.547l1.653,1.654c0.26,0.26,0.299,0.563,0.299,0.722c0,0.157-0.039,0.459-0.298,0.718
	c-0.396,0.396-1.042,0.397-1.44-0.001c-0.036-0.036-0.078-0.062-0.116-0.094c-4.287-10.616-14.609-18.166-26.695-18.371
	c0.048-0.41,0.08-0.826,0.08-1.249c0-5.874-4.778-10.652-10.651-10.652S35.61,17.534,35.61,23.408c0,0.417,0.03,0.826,0.077,1.23
	H18.113c-1.104,0-2,0.896-2,2c0,3.082,0.981,6.063,2.787,8.534c-2.281,4.039-6.069,7.011-10.557,8.238
	c-0.87,0.237-1.473,1.027-1.473,1.929v10.744c0,0.901,0.603,1.691,1.472,1.929c7.543,2.064,12.812,8.963,12.812,16.774v10.457
	c0,1.104,0.896,2,2,2h11.338c0.793,0,1.511-0.469,1.831-1.195l2.093-4.758h21.322v3.953c0,1.104,0.896,2,2,2h11.339
	c0.812,0,1.543-0.491,1.851-1.242l8.828-21.562c0.066-0.163,0.108-0.331,0.127-0.501c1.175-3.238,1.771-6.589,1.771-9.966
	c0-2.271-0.268-4.48-0.759-6.604c1.102-0.116,2.175-0.573,3.017-1.416c0.948-0.946,1.47-2.206,1.47-3.548
	c0-1.34-0.522-2.601-1.47-3.549l-1.654-1.654c-0.259-0.26-0.298-0.562-0.298-0.721c0-0.157,0.039-0.46,0.297-0.719
	c0.398-0.396,1.044-0.396,1.44,0l2.019,2.02c0.781,0.78,2.047,0.782,2.829,0C93.326,37.001,93.326,35.734,92.545,34.953z
	 M46.262,16.756c3.667,0,6.651,2.984,6.651,6.652c0,3.667-2.984,6.65-6.651,6.65s-6.651-2.983-6.651-6.65
	C39.61,19.74,42.594,16.756,46.262,16.756z M79.975,62.97c-0.049,0.129-0.083,0.262-0.102,0.396l-8.139,19.879h-7.997v-3.953
	c0-1.104-0.896-2-2-2H37.11c-0.793,0-1.511,0.469-1.831,1.195l-2.093,4.758h-8.033v-8.457c0-9.092-5.801-17.178-14.284-20.172
	v-7.807c5.348-1.887,9.748-5.833,12.212-11.014c0.345-0.727,0.222-1.589-0.312-2.189c-1.262-1.417-2.106-3.134-2.463-4.967h16.688
	c0.643,1.134,1.482,2.142,2.479,2.969h-2.836c-1.104,0-2,0.896-2,2s0.896,2,2,2h19.25c1.104,0,2-0.896,2-2s-0.896-2-2-2h-2.836
	c0.997-0.827,1.836-1.835,2.479-2.969h0.625c0.059,0.005,0.118,0.008,0.178,0.008c13.962,0,25.321,11.361,25.321,25.326
	C81.654,57.02,81.089,60.047,79.975,62.97z"/>
</svg>
