<?xml version="1.0" encoding="utf-8"?>
<!-- Generator: Adobe Illustrator 16.0.0, SVG Export Plug-In . SVG Version: 6.00 Build 0)  -->
<!DOCTYPE svg PUBLIC "-//W3C//DTD SVG 1.1//EN" "http://www.w3.org/Graphics/SVG/1.1/DTD/svg11.dtd">
<svg version="1.1" id="Layer_1" xmlns="http://www.w3.org/2000/svg" xmlns:xlink="http://www.w3.org/1999/xlink" x="0px" y="0px"
	 width="100px" height="100px" viewBox="0 0 100 100" enable-background="new 0 0 100 100" xml:space="preserve">
<path d="M89.176,12.066H9.845c-2.761,0-5.007,2.246-5.007,5.007v52.811c0,2.763,2.246,5.01,5.007,5.01h29.532
	c-0.721,2.509-1.956,4.895-3.617,6.958l-2.015,2.501c-0.483,0.6-0.579,1.424-0.247,2.118c0.333,0.694,1.034,1.137,1.804,1.137
	h28.414c0.77,0,1.472-0.442,1.804-1.137c0.332-0.694,0.236-1.519-0.247-2.118l-2.015-2.5c-1.66-2.062-2.894-4.446-3.615-6.959
	h29.531c2.761,0,5.007-2.247,5.007-5.01V17.073C94.183,14.312,91.937,12.066,89.176,12.066z M84.183,42.85c-1.104,0-2,0.896-2,2
	v16.044h-4.668v-9.902c0-1.104-0.896-2-2-2s-2,0.896-2,2v9.902h-4.668V49.476c0-1.104-0.896-2-2-2s-2,0.896-2,2v11.418h-4.668
	V40.215c0-1.104-0.896-2-2-2s-2,0.896-2,2v20.679h-4.668V39.454c0-1.104-0.896-2-2-2s-2,0.896-2,2v21.439h-4.669V44.246
	c0-1.104-0.896-2-2-2s-2,0.896-2,2v16.647h-4.668V53.64c0-1.104-0.896-2-2-2s-2,0.896-2,2v7.254h-4.668V47.995c0-1.104-0.896-2-2-2
	s-2,0.896-2,2v12.898h-4.668v-7.635c0-1.104-0.896-2-2-2s-2,0.896-2,2v7.635h-4V26.066h81.345v34.827h-4V44.85
	C86.183,43.745,85.287,42.85,84.183,42.85z M9.845,16.066h79.331c0.555,0,1.007,0.452,1.007,1.007v4.993H8.838v-4.993
	C8.838,16.519,9.29,16.066,9.845,16.066z M59.562,83.607H39.457c1.933-2.607,3.325-5.596,4.055-8.714h11.997
	C56.24,78.014,57.631,81.002,59.562,83.607z M89.176,70.894h-32.06H41.904H9.845c-0.555,0-1.007-0.453-1.007-1.01v-4.99h81.345v4.99
	C90.183,70.44,89.731,70.894,89.176,70.894z"/>
</svg>
