<?xml version="1.0" encoding="utf-8"?>
<!-- Generator: Adobe Illustrator 16.0.0, SVG Export Plug-In . SVG Version: 6.00 Build 0)  -->
<!DOCTYPE svg PUBLIC "-//W3C//DTD SVG 1.1//EN" "http://www.w3.org/Graphics/SVG/1.1/DTD/svg11.dtd">
<svg version="1.1" id="Layer_1" xmlns="http://www.w3.org/2000/svg" xmlns:xlink="http://www.w3.org/1999/xlink" x="0px" y="0px"
	 width="100px" height="100px" viewBox="0 0 100 100" enable-background="new 0 0 100 100" xml:space="preserve">
<path d="M89.112,43.825c-0.919-1.139-2.287-1.792-3.755-1.792h-2.24v-8.021c0-2.663-2.166-4.829-4.829-4.829H51.885l-1.457-2.668
	c-0.847-1.553-2.471-2.518-4.239-2.518H22.442c-2.661,0-4.826,2.167-4.826,4.83v13.206h-2.243c-1.463,0-2.83,0.651-3.753,1.79
	c-0.921,1.138-1.273,2.611-0.969,4.044l7.07,33.176c0.473,2.215,2.458,3.823,4.721,3.823h55.846c2.266,0,4.252-1.608,4.723-3.823
	l7.07-33.177C90.386,46.438,90.032,44.964,89.112,43.825z M21.616,28.828c0-0.458,0.371-0.83,0.826-0.83h23.746
	c0.304,0,0.582,0.166,0.729,0.434l2.026,3.71c0.351,0.642,1.023,1.042,1.755,1.042h27.59c0.457,0,0.829,0.372,0.829,0.829v8.021
	H21.616V28.828z M79.099,80.211c-0.081,0.381-0.422,0.656-0.811,0.656H22.442c-0.388,0-0.728-0.276-0.809-0.657l-7.07-33.176
	c-0.053-0.247,0.008-0.5,0.164-0.693c0.156-0.192,0.397-0.307,0.646-0.307h4.243h61.501h4.24c0.252,0,0.486,0.11,0.643,0.304
	c0.159,0.197,0.221,0.451,0.169,0.696L79.099,80.211z"/>
</svg>
