<?xml version="1.0" encoding="utf-8"?>
<!-- Generator: Adobe Illustrator 16.0.0, SVG Export Plug-In . SVG Version: 6.00 Build 0)  -->
<!DOCTYPE svg PUBLIC "-//W3C//DTD SVG 1.1//EN" "http://www.w3.org/Graphics/SVG/1.1/DTD/svg11.dtd">
<svg version="1.1" id="Layer_1" xmlns="http://www.w3.org/2000/svg" xmlns:xlink="http://www.w3.org/1999/xlink" x="0px" y="0px"
	 width="100px" height="100px" viewBox="0 0 100 100" enable-background="new 0 0 100 100" xml:space="preserve">
<path d="M76.714,55.621c-0.009-0.041-0.016-0.083-0.027-0.124c-0.044-0.148-0.101-0.296-0.182-0.437s-0.181-0.264-0.288-0.377
	c-0.029-0.03-0.062-0.056-0.092-0.085c-0.092-0.084-0.188-0.159-0.293-0.225c-0.021-0.014-0.037-0.033-0.06-0.046L59.439,44.9
	c2.219-2.43,4.693-6.106,4.693-10.428c0-7.495-5.857-13.698-13.315-14.121c-0.261-0.018-0.526-0.025-0.815-0.025
	c-0.003,0-0.006,0-0.008,0c0,0-0.484,0.006-0.712,0.018c-7.521,0.387-13.413,6.593-13.413,14.129c0,4.548,2.738,8.383,5.036,10.8
	c0.014,0.015,0.028,0.029,0.043,0.043l-15.611,9.013c-0.021,0.013-0.037,0.031-0.059,0.045c-0.104,0.065-0.202,0.142-0.295,0.227
	c-0.03,0.028-0.062,0.054-0.091,0.084c-0.107,0.113-0.207,0.236-0.288,0.377s-0.138,0.288-0.182,0.438
	c-0.012,0.04-0.019,0.081-0.027,0.122c-0.027,0.121-0.044,0.241-0.049,0.363c-0.001,0.026-0.01,0.051-0.01,0.077v24.113
	c0,0.715,0.381,1.375,1,1.732l24.217,13.982c0.024,0.014,0.052,0.019,0.076,0.031c0.105,0.056,0.215,0.101,0.33,0.137
	c0.042,0.013,0.083,0.028,0.126,0.039c0.15,0.036,0.306,0.061,0.468,0.061s0.317-0.024,0.468-0.061
	c0.043-0.011,0.084-0.026,0.126-0.039c0.115-0.036,0.225-0.081,0.33-0.137c0.024-0.013,0.052-0.018,0.076-0.031l24.219-13.982
	c0.619-0.357,1-1.018,1-1.732V56.061c0-0.027-0.009-0.052-0.011-0.078C76.758,55.861,76.741,55.741,76.714,55.621z M50.554,67.732
	L30.337,56.061l11.752-6.784v5.826c0,2.536,2.062,4.599,4.599,4.599h6.625c2.536,0,4.599-2.062,4.599-4.599v-6.465l12.86,7.423
	L50.554,67.732z M46.089,52.402h7.822v2.7c0,0.33-0.269,0.599-0.599,0.599h-6.625c-0.33,0-0.599-0.269-0.599-0.599V52.402z
	 M39.869,34.473c0-5.405,4.225-9.857,9.613-10.134c0.173-0.009,0.543-0.013,0.534-0.013c0.18,0,0.359,0.004,0.555,0.018
	c5.361,0.304,9.562,4.753,9.562,10.129c0,3.369-2.43,6.45-3.903,8.009c-0.843,0.806-1.449,1.647-1.802,2.503
	c-0.462,1.118-0.519,2.399-0.517,3.387v0.031h-7.822v-0.023c0.004-1.053-0.08-1.883-0.26-2.599
	c-0.024-0.282-0.104-0.563-0.255-0.825c-0.012-0.021-0.029-0.037-0.042-0.058c-0.354-0.818-0.942-1.63-1.761-2.415
	C42.299,40.925,39.869,37.845,39.869,34.473z M28.337,59.525l20.217,11.672v19.495L28.337,79.02V59.525z M52.554,90.692V71.197
	l20.219-11.673V79.02L52.554,90.692z"/>
<path d="M50,16.453c1.104,0,2-0.896,2-2V5.844c0-1.104-0.896-2-2-2s-2,0.896-2,2v8.609C48,15.558,48.896,16.453,50,16.453z"/>
<path d="M34.43,21.732c0.391,0.391,0.902,0.586,1.414,0.586s1.023-0.195,1.414-0.586c0.781-0.78,0.781-2.047,0-2.828l-5.713-5.715
	c-0.781-0.781-2.047-0.781-2.828,0c-0.781,0.78-0.781,2.047,0,2.828L34.43,21.732z"/>
<path d="M31.981,34.473c0-1.104-0.896-2-2-2H21.37c-1.104,0-2,0.896-2,2s0.896,2,2,2h8.611
	C31.086,36.473,31.981,35.577,31.981,34.473z"/>
<path d="M78.63,32.473h-8.611c-1.104,0-2,0.896-2,2s0.896,2,2,2h8.611c1.104,0,2-0.896,2-2S79.734,32.473,78.63,32.473z"/>
<path d="M64.156,22.316c0.512,0,1.023-0.195,1.414-0.586l5.713-5.713c0.781-0.781,0.781-2.047,0-2.828s-2.047-0.781-2.828,0
	l-5.713,5.713c-0.781,0.781-0.781,2.047,0,2.828C63.133,22.121,63.645,22.316,64.156,22.316z"/>
</svg>
