<?xml version="1.0" encoding="utf-8"?>
<!-- Generator: Adobe Illustrator 16.0.0, SVG Export Plug-In . SVG Version: 6.00 Build 0)  -->
<!DOCTYPE svg PUBLIC "-//W3C//DTD SVG 1.1//EN" "http://www.w3.org/Graphics/SVG/1.1/DTD/svg11.dtd">
<svg version="1.1" id="Layer_1" xmlns="http://www.w3.org/2000/svg" xmlns:xlink="http://www.w3.org/1999/xlink" x="0px" y="0px"
	 width="100px" height="100px" viewBox="0 0 100 100" enable-background="new 0 0 100 100" xml:space="preserve">
<path d="M88.934,53.154h-5.822V47.48c1.165,0,2.272-0.508,3.032-1.391s1.097-2.053,0.924-3.205c-1.152-7.656-7.428-20.5-36.513-20.5
	l-0.577,0.002l-0.531-0.002c-29.086,0-35.361,12.845-36.512,20.501c-0.173,1.151,0.164,2.321,0.924,3.204
	c0.76,0.883,1.867,1.391,3.031,1.391v5.674h-5.823c-1.104,0-2,0.896-2,2s0.896,2,2,2h5.823v5.674c-2.209,0-4,1.791-4,4v1.688
	c0,5.018,4.081,9.1,9.098,9.1h56.024c5.018,0,9.1-4.082,9.1-9.1v-1.688c0-2.209-1.791-4-4-4v-5.674h5.822c1.104,0,2-0.896,2-2
	S90.038,53.154,88.934,53.154z M32.25,28.503v1.847c0,1.104,0.896,2,2,2s2-0.896,2-2V27.53c1.967-0.387,4.122-0.689,6.5-0.884v2.703
	c0,1.104,0.896,2,2,2s2-0.896,2-2v-2.922c0.875-0.026,1.769-0.043,2.696-0.043c0.183,0,0.369,0.001,0.554,0.002
	c0.187-0.001,0.37-0.002,0.554-0.002c0.927,0,1.82,0.017,2.696,0.043v2.922c0,1.104,0.896,2,2,2s2-0.896,2-2v-2.703
	c2.378,0.195,4.533,0.498,6.5,0.884v2.819c0,1.104,0.896,2,2,2s2-0.896,2-2v-1.846c11.596,3.445,14.665,10.347,15.361,14.977H16.89
	C17.586,38.851,20.652,31.949,32.25,28.503z M20.89,47.48h58.222v5.674H20.89V47.48z M83.111,68.516c0,2.816-2.284,5.1-5.1,5.1
	H21.987c-2.816,0-5.098-2.283-5.098-5.1v-1.688h66.222V68.516z M79.111,62.828H20.89v-5.674h58.222V62.828z"/>
</svg>
