<?xml version="1.0" encoding="utf-8"?>
<!-- Generator: Adobe Illustrator 16.0.0, SVG Export Plug-In . SVG Version: 6.00 Build 0)  -->
<!DOCTYPE svg PUBLIC "-//W3C//DTD SVG 1.1//EN" "http://www.w3.org/Graphics/SVG/1.1/DTD/svg11.dtd">
<svg version="1.1" id="Layer_1" xmlns="http://www.w3.org/2000/svg" xmlns:xlink="http://www.w3.org/1999/xlink" x="0px" y="0px"
	 width="100px" height="100px" viewBox="0 0 100 100" enable-background="new 0 0 100 100" xml:space="preserve">
<path d="M58.301,25.216H30.572c-1.104,0-2,0.896-2,2s0.896,2,2,2h27.729c1.104,0,2-0.896,2-2S59.406,25.216,58.301,25.216z"/>
<path d="M58.301,35.677H30.572c-1.104,0-2,0.896-2,2s0.896,2,2,2h27.729c1.104,0,2-0.896,2-2S59.406,35.677,58.301,35.677z"/>
<path d="M58.301,46.139H30.572c-1.104,0-2,0.896-2,2s0.896,2,2,2h27.729c1.104,0,2-0.896,2-2S59.406,46.139,58.301,46.139z"/>
<path d="M44.438,56.601H30.572c-1.104,0-2,0.896-2,2s0.896,2,2,2h13.866c1.104,0,2-0.896,2-2S45.542,56.601,44.438,56.601z"/>
<path d="M79.712,25.107h-9.125v-9.126c0-1.104-0.896-2-2-2H20.288c-1.104,0-2,0.896-2,2v56.911c0,1.104,0.896,2,2,2h9.125v9.126
	c0,1.104,0.896,2,2,2h48.298c1.104,0,2-0.896,2-2V27.107C81.712,26.003,80.816,25.107,79.712,25.107z M22.288,17.981h44.298v52.911
	H22.288V17.981z M77.712,82.019H33.414v-7.126h35.173c1.104,0,2-0.896,2-2V29.107h7.125V82.019z"/>
</svg>
