<?xml version="1.0" encoding="utf-8"?>
<!-- Generator: Adobe Illustrator 16.0.0, SVG Export Plug-In . SVG Version: 6.00 Build 0)  -->
<!DOCTYPE svg PUBLIC "-//W3C//DTD SVG 1.1//EN" "http://www.w3.org/Graphics/SVG/1.1/DTD/svg11.dtd">
<svg version="1.1" id="Layer_1" xmlns="http://www.w3.org/2000/svg" xmlns:xlink="http://www.w3.org/1999/xlink" x="0px" y="0px"
	 width="100px" height="100px" viewBox="0 0 100 100" enable-background="new 0 0 100 100" xml:space="preserve">
<path d="M87.905,8H61.204c-4.095,0-7.426,3.331-7.426,7.426c0,4.093,3.331,7.423,7.426,7.423h9.596c1.889,0,3.426,1.537,3.426,3.426
	c0,1.888-1.537,3.424-3.426,3.424H48.292c-4.095,0-7.426,3.331-7.426,7.426c0,1.104,0.896,2,2,2s2-0.896,2-2
	c0-1.889,1.537-3.426,3.426-3.426h22.507c4.095,0,7.426-3.33,7.426-7.424c0-4.095-3.332-7.426-7.426-7.426h-9.596
	c-1.889,0-3.426-1.535-3.426-3.423c0-1.889,1.537-3.426,3.426-3.426h26.701c1.104,0,2-0.896,2-2S89.009,8,87.905,8z"/>
<path d="M69.876,85.5H13.911c-1.104,0-2,0.896-2,2s0.896,2,2,2h55.966c1.104,0,2-0.896,2-2S70.981,85.5,69.876,85.5z"/>
<path d="M67.112,50.051v-3.703c0-1.104-0.896-2-2-2H18.673c-1.104,0-2,0.896-2,2V57.15c0,13.906,11.313,25.22,25.22,25.22
	c7.469,0,14.187-3.267,18.809-8.443c0.014,0,0.028,0.004,0.042,0.004h4.824c6.614,0,11.995-5.381,11.995-11.995
	C77.563,55.846,72.998,50.812,67.112,50.051z M41.893,78.37c-11.701,0-21.22-9.52-21.22-21.22v-8.803h42.439v8.803
	C63.112,68.851,53.593,78.37,41.893,78.37z M65.568,69.931h-1.947c2.215-3.751,3.491-8.118,3.491-12.78v-3.059
	c3.672,0.723,6.451,3.963,6.451,7.844C73.563,66.344,69.977,69.931,65.568,69.931z"/>
</svg>
