<?xml version="1.0" encoding="utf-8"?>
<!-- Generator: Adobe Illustrator 16.0.0, SVG Export Plug-In . SVG Version: 6.00 Build 0)  -->
<!DOCTYPE svg PUBLIC "-//W3C//DTD SVG 1.1//EN" "http://www.w3.org/Graphics/SVG/1.1/DTD/svg11.dtd">
<svg version="1.1" id="Layer_1" xmlns="http://www.w3.org/2000/svg" xmlns:xlink="http://www.w3.org/1999/xlink" x="0px" y="0px"
	 width="100px" height="100px" viewBox="0 0 100 100" enable-background="new 0 0 100 100" xml:space="preserve">
<path d="M61.617,13.785H38.383c-5.011,0-9.088,4.076-9.088,9.085v59.916c0,5.01,4.077,9.085,9.088,9.085h23.234
	c5.012,0,9.089-4.076,9.089-9.085V22.871C70.706,17.861,66.629,13.785,61.617,13.785z M33.295,29.871h33.411v44.135H33.295V29.871z
	 M38.383,17.785h23.234c2.806,0,5.089,2.281,5.089,5.085v3H33.295v-3C33.295,20.066,35.577,17.785,38.383,17.785z M61.617,87.872
	H38.383c-2.806,0-5.088-2.281-5.088-5.085v-4.781h33.411v4.781C66.706,85.591,64.423,87.872,61.617,87.872z"/>
<circle cx="50" cy="82.938" r="2.682"/>
</svg>
