<?xml version="1.0" encoding="utf-8"?>
<!-- Generator: Adobe Illustrator 16.0.0, SVG Export Plug-In . SVG Version: 6.00 Build 0)  -->
<!DOCTYPE svg PUBLIC "-//W3C//DTD SVG 1.1//EN" "http://www.w3.org/Graphics/SVG/1.1/DTD/svg11.dtd">
<svg version="1.1" id="Layer_1" xmlns="http://www.w3.org/2000/svg" xmlns:xlink="http://www.w3.org/1999/xlink" x="0px" y="0px"
	 width="100px" height="100px" viewBox="0 0 100 100" enable-background="new 0 0 100 100" xml:space="preserve">
<path d="M89.176,12.066H9.845c-2.761,0-5.007,2.246-5.007,5.007v52.811c0,2.763,2.246,5.01,5.007,5.01h29.532
	c-0.721,2.509-1.956,4.895-3.617,6.958l-2.015,2.501c-0.483,0.6-0.579,1.424-0.246,2.118c0.332,0.694,1.033,1.137,1.804,1.137
	h28.414c0.771,0,1.472-0.442,1.804-1.137c0.333-0.694,0.237-1.519-0.246-2.118l-2.015-2.5c-1.659-2.062-2.894-4.446-3.614-6.959
	h29.53c2.761,0,5.007-2.247,5.007-5.01V17.073C94.183,14.312,91.937,12.066,89.176,12.066z M37.172,53.678h17.5
	c0.131,0,0.263-0.014,0.392-0.039c0.06-0.013,0.115-0.035,0.173-0.052c0.067-0.02,0.135-0.035,0.2-0.062
	c0.068-0.029,0.131-0.068,0.195-0.104c0.05-0.027,0.102-0.049,0.148-0.081c0.11-0.073,0.214-0.157,0.307-0.25l14.204-14.204v5.963
	c0,1.104,0.896,2,2,2s2-0.896,2-2V34.059c0-0.131-0.014-0.263-0.039-0.392c-0.013-0.06-0.035-0.115-0.052-0.173
	c-0.02-0.067-0.035-0.135-0.062-0.2c-0.029-0.068-0.068-0.131-0.104-0.195c-0.027-0.05-0.049-0.102-0.081-0.148
	c-0.146-0.22-0.335-0.408-0.555-0.555c-0.047-0.032-0.099-0.054-0.148-0.081c-0.064-0.035-0.127-0.074-0.195-0.104
	c-0.065-0.026-0.133-0.042-0.2-0.062c-0.058-0.017-0.113-0.039-0.173-0.052c-0.129-0.025-0.261-0.039-0.392-0.039H61.5
	c-1.104,0-2,0.896-2,2s0.896,2,2,2h5.963L53.844,49.678h-17.5c-0.131,0-0.263,0.014-0.392,0.039
	c-0.06,0.013-0.115,0.035-0.173,0.052c-0.067,0.02-0.135,0.035-0.2,0.062c-0.068,0.029-0.131,0.068-0.195,0.104
	c-0.05,0.027-0.102,0.049-0.148,0.081c-0.11,0.073-0.214,0.157-0.307,0.25L24.316,60.877c-0.005,0.005-0.009,0.012-0.014,0.017
	H8.838V26.066h81.345v34.827H29.956L37.172,53.678z M9.845,16.066h79.331c0.555,0,1.007,0.452,1.007,1.007v4.993H8.838v-4.993
	C8.838,16.519,9.289,16.066,9.845,16.066z M59.562,83.607H39.457c1.934-2.607,3.325-5.596,4.056-8.714h11.996
	C56.24,78.014,57.631,81.002,59.562,83.607z M89.176,70.894h-32.06H41.904H9.845c-0.556,0-1.007-0.453-1.007-1.01v-4.99h81.345v4.99
	C90.183,70.44,89.73,70.894,89.176,70.894z"/>
</svg>
