<?xml version="1.0" encoding="utf-8"?>
<!-- Generator: Adobe Illustrator 16.0.0, SVG Export Plug-In . SVG Version: 6.00 Build 0)  -->
<!DOCTYPE svg PUBLIC "-//W3C//DTD SVG 1.1//EN" "http://www.w3.org/Graphics/SVG/1.1/DTD/svg11.dtd">
<svg version="1.1" id="Layer_1" xmlns="http://www.w3.org/2000/svg" xmlns:xlink="http://www.w3.org/1999/xlink" x="0px" y="0px"
	 width="100px" height="100px" viewBox="0 0 100 100" enable-background="new 0 0 100 100" xml:space="preserve">
<path d="M87.759,52.262v-4.783c0-4.904-3.501-9.003-8.135-9.935v-7.12c0-1.104-0.896-2-2-2h-5.421
	c-0.543-5.08-4.853-9.051-10.075-9.051H16.795c-5.588,0-10.135,4.546-10.135,10.134v45.525c0,5.588,4.546,10.134,10.135,10.134
	h60.829c5.588,0,10.135-4.546,10.135-10.134v-4.407c3.158-1.719,5.306-5.066,5.306-8.907v-0.547
	C93.065,57.33,90.917,53.98,87.759,52.262z M75.624,37.344H21.729c-1.356,0-2.46-1.104-2.46-2.459c0-1.357,1.104-2.46,2.46-2.46
	h48.533h5.361V37.344z M83.759,75.032c0,3.382-2.752,6.134-6.135,6.134H16.795c-3.383,0-6.135-2.752-6.135-6.134V29.507
	c0-3.382,2.752-6.134,6.135-6.134h45.333c3.013,0,5.526,2.184,6.039,5.051H21.729c-3.562,0-6.46,2.898-6.46,6.46
	c0,3.562,2.898,6.459,6.46,6.459h55.895c3.383,0,6.135,2.752,6.135,6.135v3.6c-0.274-0.022-0.549-0.042-0.828-0.042H66.293
	c-5.588,0-10.134,4.547-10.134,10.135v0.547c0,5.587,4.546,10.133,10.134,10.133h16.637c0.279,0,0.554-0.02,0.828-0.042V75.032z
	 M89.065,61.718c0,3.382-2.752,6.133-6.134,6.133H66.293c-3.382,0-6.134-2.751-6.134-6.133v-0.547c0-3.383,2.751-6.135,6.134-6.135
	h16.637c3.382,0,6.134,2.752,6.134,6.135V61.718z"/>
<circle cx="66.566" cy="61.443" r="3.123"/>
</svg>
