<?xml version="1.0" encoding="utf-8"?>
<!-- Generator: Adobe Illustrator 16.0.0, SVG Export Plug-In . SVG Version: 6.00 Build 0)  -->
<!DOCTYPE svg PUBLIC "-//W3C//DTD SVG 1.1//EN" "http://www.w3.org/Graphics/SVG/1.1/DTD/svg11.dtd">
<svg version="1.1" id="Layer_1" xmlns="http://www.w3.org/2000/svg" xmlns:xlink="http://www.w3.org/1999/xlink" x="0px" y="0px"
	 width="100px" height="100px" viewBox="0 0 100 100" enable-background="new 0 0 100 100" xml:space="preserve">
<path d="M78.845,31.01H62.07c0.569-0.39,1.115-0.801,1.609-1.257c4.397-4.056,3.719-8.854,1.229-11.598
	c-0.043-0.048-0.089-0.093-0.137-0.137c-1.409-1.277-3.199-1.981-5.042-1.981c-1.638,0-4.105,0.558-6.555,3.212
	c-1.078,1.168-1.966,2.551-2.666,4.113c-0.699-1.562-1.588-2.945-2.666-4.113c-2.449-2.654-4.917-3.212-6.555-3.212
	c-1.843,0-3.634,0.704-5.042,1.981c-0.048,0.044-0.094,0.09-0.138,0.138c-2.488,2.743-3.165,7.542,1.23,11.597
	c0.495,0.456,1.041,0.867,1.609,1.257H21.155c-3.075,0-5.577,2.502-5.577,5.577v14.542c0,3.013,2.403,5.47,5.393,5.567v25.268
	c0,1.104,0.896,2,2,2h18.786h15.623h18.785c1.104,0,2-0.896,2-2V56.706h0.681c3.075,0,5.577-2.502,5.577-5.577V36.587
	C84.422,33.512,81.92,31.01,78.845,31.01z M56.115,21.962c1.161-1.26,2.412-1.925,3.615-1.925c0.817,0,1.624,0.312,2.282,0.88
	c1.158,1.341,1.478,3.57-1.044,5.896c-2.285,2.107-5.407,2.973-8.141,3.288C53.142,27.368,54.006,24.247,56.115,21.962z
	 M39.007,20.917c0.658-0.568,1.465-0.88,2.282-0.88c1.203,0,2.453,0.665,3.615,1.925c2.108,2.284,2.973,5.406,3.288,8.14
	c-2.734-0.316-5.856-1.181-8.14-3.288C37.531,24.487,37.849,22.259,39.007,20.917z M24.97,56.706h14.786v23.258H24.97V56.706z
	 M43.756,79.964V56.706h11.623v23.258H43.756z M74.164,79.964H59.379V56.706h14.785V79.964z M80.422,51.129
	c0,0.87-0.708,1.577-1.577,1.577h-2.681H57.379H41.756H22.97h-1.815c-0.87,0-1.577-0.707-1.577-1.577V36.587
	c0-0.87,0.708-1.577,1.577-1.577h57.69c0.87,0,1.577,0.707,1.577,1.577V51.129z"/>
</svg>
