<?xml version="1.0" encoding="utf-8"?>
<!-- Generator: Adobe Illustrator 16.0.0, SVG Export Plug-In . SVG Version: 6.00 Build 0)  -->
<!DOCTYPE svg PUBLIC "-//W3C//DTD SVG 1.1//EN" "http://www.w3.org/Graphics/SVG/1.1/DTD/svg11.dtd">
<svg version="1.1" id="Layer_1" xmlns="http://www.w3.org/2000/svg" xmlns:xlink="http://www.w3.org/1999/xlink" x="0px" y="0px"
	 width="100px" height="100px" viewBox="0 0 100 100" enable-background="new 0 0 100 100" xml:space="preserve">
<path d="M70.38,43.825c0.06-0.19,0.102-0.39,0.102-0.6V32.089c0-11.299-9.188-20.491-20.48-20.491
	c-11.296,0-20.485,9.192-20.485,20.491v11.137c0,0.21,0.042,0.409,0.102,0.6c-6.074,0.146-10.972,5.123-10.972,11.232v22.102
	c0,6.199,5.043,11.243,11.243,11.243h40.222c6.2,0,11.244-5.044,11.244-11.243V55.058C81.355,48.947,76.455,43.971,70.38,43.825z
	 M33.516,32.089c0-9.094,7.396-16.491,16.485-16.491c9.087,0,16.48,7.397,16.48,16.491v11.137c0,0.205,0.04,0.399,0.097,0.586
	h-5.316V32.503c0-6.214-5.052-11.269-11.262-11.269c-6.212,0-11.266,5.055-11.266,11.269v11.309h-5.317
	c0.057-0.187,0.097-0.381,0.097-0.586V32.089z M57.263,43.812H42.736V32.503c0-4.008,3.259-7.269,7.266-7.269
	c4.004,0,7.262,3.261,7.262,7.269V43.812z M77.355,77.159c0,3.994-3.25,7.243-7.244,7.243H29.889c-3.994,0-7.243-3.249-7.243-7.243
	V55.058c0-3.995,3.25-7.246,7.243-7.246h40.222c3.995,0,7.244,3.251,7.244,7.246V77.159z"/>
<path d="M50,57.841c-1.104,0-2,0.896-2,2v12.531c0,1.104,0.896,2,2,2s2-0.896,2-2V59.841C52,58.736,51.104,57.841,50,57.841z"/>
</svg>
