<?xml version="1.0" encoding="utf-8"?>
<!-- Generator: Adobe Illustrator 16.0.0, SVG Export Plug-In . SVG Version: 6.00 Build 0)  -->
<!DOCTYPE svg PUBLIC "-//W3C//DTD SVG 1.1//EN" "http://www.w3.org/Graphics/SVG/1.1/DTD/svg11.dtd">
<svg version="1.1" id="Layer_1" xmlns="http://www.w3.org/2000/svg" xmlns:xlink="http://www.w3.org/1999/xlink" x="0px" y="0px"
	 width="100px" height="100px" viewBox="0 0 100 100" enable-background="new 0 0 100 100" xml:space="preserve">
<path d="M85.84,62.244h-5.174c1.02-3.185,1.562-6.538,1.562-9.96c0-18.009-14.651-32.66-32.66-32.66
	c-18.01,0-32.661,14.651-32.661,32.66c0,3.421,0.543,6.774,1.562,9.96h-5.174c-4.224,0-7.66,3.436-7.66,7.658
	c0,4.224,3.437,7.66,7.66,7.66h16.467c0.003,0,0.005,0,0.007,0h39.693c0.019,0.001,0.037,0.006,0.056,0.006
	c0.022,0,0.045-0.005,0.067-0.006H85.84c4.224,0,7.66-3.437,7.66-7.66C93.5,65.68,90.063,62.244,85.84,62.244z M49.568,23.624
	c15.804,0,28.66,12.856,28.66,28.66c0,8.134-3.449,15.843-9.475,21.278H50.051c0.87-0.217,1.518-0.997,1.518-1.935v-3.634
	c3.164-0.163,5.963-1.323,7.707-3.219c1.488-1.616,2.211-3.734,2.09-6.123c-0.264-5.295-5.193-7.097-9.797-8.296v-9.697
	c3.608,0.515,6.109,2.647,6.268,2.786c0.827,0.73,2.087,0.653,2.819-0.17c0.733-0.825,0.659-2.09-0.166-2.824
	c-0.204-0.182-3.766-3.26-8.921-3.812v-3.697c0-1.104-0.896-2-2-2s-2,0.896-2,2v3.823c-0.886,0.152-1.794,0.376-2.729,0.726
	c-3.312,1.239-5.353,4.301-5.197,7.798c0.167,3.758,2.793,6.787,6.853,7.906c0.35,0.097,0.709,0.189,1.073,0.282v10.056
	c-2.433-0.646-4.912-1.878-6.422-3.338c-0.793-0.768-2.061-0.746-2.828,0.049c-0.768,0.794-0.746,2.061,0.049,2.828
	c2.228,2.153,5.775,3.863,9.201,4.581v3.975c0,0.938,0.647,1.718,1.518,1.935H30.38c-6.024-5.438-9.473-13.146-9.473-21.278
	C20.907,36.48,33.765,23.624,49.568,23.624z M47.568,49.343c-0.003-0.001-0.007-0.002-0.01-0.003
	c-2.365-0.652-3.831-2.233-3.92-4.229c-0.077-1.732,0.944-3.254,2.603-3.874c0.449-0.168,0.891-0.294,1.327-0.397V49.343z
	 M51.568,54.509c3.423,0.98,5.69,2.107,5.803,4.344c0.066,1.331-0.273,2.382-1.039,3.214c-0.991,1.077-2.753,1.777-4.764,1.921
	V54.509z M9.636,69.902c0-2.018,1.642-3.658,3.66-3.658h6.75c1.243,2.628,2.838,5.091,4.752,7.318H13.296
	C11.277,73.562,9.636,71.921,9.636,69.902z M85.84,73.562H74.338c1.915-2.228,3.509-4.69,4.752-7.318h6.75
	c2.019,0,3.66,1.641,3.66,3.658C89.5,71.921,87.858,73.562,85.84,73.562z"/>
</svg>
