<?xml version="1.0" encoding="utf-8"?>
<!-- Generator: Adobe Illustrator 16.0.0, SVG Export Plug-In . SVG Version: 6.00 Build 0)  -->
<!DOCTYPE svg PUBLIC "-//W3C//DTD SVG 1.1//EN" "http://www.w3.org/Graphics/SVG/1.1/DTD/svg11.dtd">
<svg version="1.1" id="Layer_1" xmlns="http://www.w3.org/2000/svg" xmlns:xlink="http://www.w3.org/1999/xlink" x="0px" y="0px"
	 width="100px" height="100px" viewBox="0 0 100 100" enable-background="new 0 0 100 100" xml:space="preserve">
<path d="M84.626,40.318c-0.781-0.781-2.047-0.781-2.828,0L43.526,78.591c-5.656,5.641-14.844,5.634-20.492-0.015
	c-5.648-5.649-5.653-14.837-0.015-20.492l38.272-38.271c1.7-1.7,3.96-2.636,6.363-2.636c2.404,0,4.664,0.936,6.364,2.636
	c3.509,3.51,3.509,9.219,0,12.729L36.308,70.253c-1.365,1.366-3.585,1.364-4.95,0c-1.364-1.365-1.364-3.585,0-4.95l19.712-19.712
	c0.781-0.781,0.781-2.047,0-2.828s-2.047-0.781-2.828,0L28.529,62.475c-2.925,2.924-2.925,7.683,0,10.606
	c2.923,2.923,7.682,2.925,10.606,0l37.712-37.712c5.069-5.068,5.069-13.316,0-18.385c-2.455-2.456-5.72-3.808-9.192-3.808
	s-6.736,1.353-9.191,3.808L20.209,55.238c-0.001,0.001-0.002,0.002-0.003,0.003l-0.869,0.869c-0.145,0.145-0.262,0.305-0.354,0.477
	c-2.718,3.3-4.196,7.404-4.196,11.735c0,4.942,1.925,9.588,5.419,13.082s8.14,5.418,13.081,5.418c4.332,0,8.437-1.478,11.736-4.195
	c0.172-0.092,0.332-0.209,0.477-0.354l0.869-0.869c0.003-0.002,0.005-0.005,0.007-0.007l38.25-38.251
	C85.407,42.365,85.407,41.1,84.626,40.318z"/>
</svg>
