<?xml version="1.0" encoding="utf-8"?>
<!-- Generator: Adobe Illustrator 16.0.0, SVG Export Plug-In . SVG Version: 6.00 Build 0)  -->
<!DOCTYPE svg PUBLIC "-//W3C//DTD SVG 1.1//EN" "http://www.w3.org/Graphics/SVG/1.1/DTD/svg11.dtd">
<svg version="1.1" id="Layer_1" xmlns="http://www.w3.org/2000/svg" xmlns:xlink="http://www.w3.org/1999/xlink" x="0px" y="0px"
	 width="100px" height="100px" viewBox="0 0 100 100" enable-background="new 0 0 100 100" xml:space="preserve">
<path d="M81.738,22.13h-2.086V10.645c0-1.104-0.896-2-2-2H21.246c-1.104,0-2,0.896-2,2V22.13H17.16c-5.172,0-9.379,4.208-9.379,9.38
	v24.113c0,5.172,4.207,9.379,9.379,9.379h2.086v25.573c0,1.104,0.896,2,2,2h56.406c1.104,0,2-0.896,2-2V65.002h2.086
	c5.171,0,9.378-4.207,9.378-9.379V31.51C91.116,26.338,86.909,22.13,81.738,22.13z M23.246,12.645h52.406v9.485H23.246V12.645z
	 M23.246,88.575V54.069h52.406v8.923c0,0.003-0.001,0.007-0.001,0.01s0.001,0.007,0.001,0.01v25.563H23.246z M87.116,55.623
	c0,2.966-2.412,5.379-5.378,5.379h-2.086v-8.933c0-1.104-0.896-2-2-2H21.246c-1.104,0-2,0.896-2,2v8.933H17.16
	c-2.966,0-5.379-2.413-5.379-5.379V31.51c0-2.967,2.413-5.38,5.379-5.38h4.086h56.406h4.086c2.966,0,5.378,2.413,5.378,5.38V55.623z
	"/>
<path d="M67.845,60.302h-36.79c-1.104,0-2,0.896-2,2s0.896,2,2,2h36.79c1.104,0,2-0.896,2-2S68.949,60.302,67.845,60.302z"/>
<path d="M67.845,69.727h-36.79c-1.104,0-2,0.896-2,2s0.896,2,2,2h36.79c1.104,0,2-0.896,2-2S68.949,69.727,67.845,69.727z"/>
<path d="M57.128,78.343H31.055c-1.104,0-2,0.896-2,2s0.896,2,2,2h26.073c1.104,0,2-0.896,2-2S58.232,78.343,57.128,78.343z"/>
<path d="M77,31.017c-2.885,0-5.231,2.347-5.231,5.23c0,2.885,2.347,5.231,5.231,5.231c2.884,0,5.23-2.347,5.23-5.231
	C82.23,33.363,79.884,31.017,77,31.017z M77,37.479c-0.679,0-1.231-0.553-1.231-1.231s0.553-1.23,1.231-1.23s1.23,0.552,1.23,1.23
	S77.679,37.479,77,37.479z"/>
</svg>
