<?xml version="1.0" encoding="utf-8"?>
<!-- Generator: Adobe Illustrator 16.0.0, SVG Export Plug-In . SVG Version: 6.00 Build 0)  -->
<!DOCTYPE svg PUBLIC "-//W3C//DTD SVG 1.1//EN" "http://www.w3.org/Graphics/SVG/1.1/DTD/svg11.dtd">
<svg version="1.1" id="Layer_1" xmlns="http://www.w3.org/2000/svg" xmlns:xlink="http://www.w3.org/1999/xlink" x="0px" y="0px"
	 width="100px" height="100px" viewBox="0 0 100 100" enable-background="new 0 0 100 100" xml:space="preserve">
<path d="M79.076,24.195l-1.938-8.189c-0.213-0.902-1.019-1.539-1.946-1.539H71.52v-4.34c0-1.104-0.896-2-2-2H30.48
	c-1.104,0-2,0.896-2,2v4.34h-3.672c-0.927,0-1.733,0.637-1.946,1.539l-2.002,8.459c-0.141,0.596-0.001,1.222,0.377,1.701
	c0.379,0.48,0.958,0.76,1.569,0.76h2.942l1.888,24.271h-0.911c-0.557,0-1.089,0.232-1.468,0.642
	c-0.379,0.409-0.569,0.958-0.526,1.514l1.889,24.301c0.081,1.041,0.95,1.845,1.994,1.845h1.222l0.819,10.53
	c0.081,1.041,0.95,1.845,1.994,1.845H67.35c1.044,0,1.913-0.804,1.994-1.845l0.818-10.53h1.223c1.044,0,1.913-0.804,1.994-1.845
	l1.89-24.301c0.043-0.556-0.147-1.104-0.526-1.514c-0.378-0.409-0.91-0.642-1.468-0.642h-0.912l1.888-24.271h2.942
	c0.007-0.001,0.014,0,0.02,0c1.104,0,2-0.896,2-2C79.213,24.668,79.165,24.422,79.076,24.195z M32.48,12.127H67.52v2.34H32.48
	V12.127z M65.499,87.873H34.501l-0.651-8.375h32.299L65.499,87.873z M69.534,75.498H30.466l-1.578-20.301h42.225L69.534,75.498z
	 M68.351,51.197H31.649l-1.888-24.271h40.478L68.351,51.197z M25.335,22.926l1.055-4.459h4.09H69.52h4.09l1.055,4.459H25.335z"/>
</svg>
