<?xml version="1.0" encoding="utf-8"?>
<!-- Generator: Adobe Illustrator 16.0.0, SVG Export Plug-In . SVG Version: 6.00 Build 0)  -->
<!DOCTYPE svg PUBLIC "-//W3C//DTD SVG 1.1//EN" "http://www.w3.org/Graphics/SVG/1.1/DTD/svg11.dtd">
<svg version="1.1" id="Layer_1" xmlns="http://www.w3.org/2000/svg" xmlns:xlink="http://www.w3.org/1999/xlink" x="0px" y="0px"
	 width="100px" height="100px" viewBox="0 0 100 100" enable-background="new 0 0 100 100" xml:space="preserve">
<path d="M81.605,25.251H62.25v-7.409c0-1.381-1.119-2.5-2.5-2.5h-19.5c-1.381,0-2.5,1.119-2.5,2.5v7.409H18.395
	c-1.381,0-2.5,1.119-2.5,2.5v11.231c0,1.381,1.119,2.5,2.5,2.5h3.641l4.555,40.952c0.141,1.266,1.211,2.224,2.485,2.224h41.85
	c1.274,0,2.344-0.958,2.485-2.224l4.555-40.952h3.64c1.381,0,2.5-1.119,2.5-2.5V27.751C84.105,26.37,82.986,25.251,81.605,25.251z
	 M42.75,20.342h14.5v4.909h-14.5V20.342z M68.688,79.658H31.313l-4.246-38.176h5.645l1.921,28.205
	c0.089,1.312,1.179,2.33,2.494,2.33h8.331c1.381,0,2.5-1.119,2.5-2.5V41.482h4.084v28.035c0,1.381,1.119,2.5,2.5,2.5h8.331
	c1.315,0,2.405-1.019,2.494-2.33l1.921-28.205h5.646L68.688,79.658z M37.724,41.482h5.234v25.535h-3.496L37.724,41.482z
	 M57.042,41.482h5.234l-1.739,25.535h-3.496V41.482z M79.105,36.482H20.895v-6.231h58.211V36.482z"/>
</svg>
