<?xml version="1.0" encoding="utf-8"?>
<!-- Generator: Adobe Illustrator 16.0.0, SVG Export Plug-In . SVG Version: 6.00 Build 0)  -->
<!DOCTYPE svg PUBLIC "-//W3C//DTD SVG 1.1//EN" "http://www.w3.org/Graphics/SVG/1.1/DTD/svg11.dtd">
<svg version="1.1" id="Layer_1" xmlns="http://www.w3.org/2000/svg" xmlns:xlink="http://www.w3.org/1999/xlink" x="0px" y="0px"
	 width="100px" height="100px" viewBox="0 0 100 100" enable-background="new 0 0 100 100" xml:space="preserve">
<path d="M84.151,29.742h-9.126v-9.126c0-1.104-0.896-2-2-2H34.333l-8.684-8.684c-0.781-0.781-2.047-0.781-2.828,0l-8.387,8.387
	c-0.781,0.781-0.781,2.047,0,2.828l8.293,8.293v48.087c0,1.104,0.896,2,2,2h9.126v9.126c0,1.104,0.896,2,2,2h48.298
	c1.104,0,2-0.896,2-2V31.742C86.151,30.638,85.256,29.742,84.151,29.742z M24.235,14.175l7.853,7.853
	c0.002,0.002,0.004,0.004,0.006,0.006L45.552,35.49l-2.78,2.779l-2.779,2.779l-13.85-13.85l-0.002-0.002l-7.464-7.464L24.235,14.175
	z M47.482,39.216l1.799,5.563l-5.563-1.8l1.882-1.882L47.482,39.216z M26.728,33.44l11.851,11.851
	c0.102,0.102,0.211,0.188,0.326,0.263c0.018,0.011,0.036,0.018,0.054,0.028c0.117,0.071,0.24,0.129,0.367,0.174
	c0.019,0.007,0.033,0.019,0.052,0.024l12.396,4.009c0.202,0.065,0.409,0.097,0.615,0.097c0.006,0,0.013-0.001,0.02,0
	c1.105,0,2-0.896,2-2c0-0.313-0.071-0.61-0.2-0.874l-3.924-12.137c-0.007-0.021-0.021-0.039-0.028-0.06
	c-0.042-0.118-0.097-0.231-0.16-0.34c-0.016-0.025-0.026-0.054-0.042-0.078c-0.075-0.114-0.16-0.223-0.259-0.321l-11.46-11.46
	h32.691v52.911H26.728V33.44z M82.151,86.653H37.854v-7.126h35.172c1.104,0,2-0.896,2-2V33.742h7.126V86.653z"/>
</svg>
