<?xml version="1.0" encoding="utf-8"?>
<!-- Generator: Adobe Illustrator 16.0.0, SVG Export Plug-In . SVG Version: 6.00 Build 0)  -->
<!DOCTYPE svg PUBLIC "-//W3C//DTD SVG 1.1//EN" "http://www.w3.org/Graphics/SVG/1.1/DTD/svg11.dtd">
<svg version="1.1" id="Layer_1" xmlns="http://www.w3.org/2000/svg" xmlns:xlink="http://www.w3.org/1999/xlink" x="0px" y="0px"
	 width="100px" height="100px" viewBox="0 0 100 100" enable-background="new 0 0 100 100" xml:space="preserve">
<path d="M89.443,33.059h-8.565V21.841c0-0.187-0.025-0.367-0.073-0.538C80.076,14.122,73.994,8.5,66.624,8.5
	s-13.452,5.622-14.181,12.803c-0.048,0.171-0.073,0.352-0.073,0.538v11.218H10.66c-1.104,0-2,0.896-2,2V87c0,1.104,0.896,2,2,2
	s2-0.896,2-2V37.059h64.218v20.875c0,3.402-2.768,6.17-6.169,6.17s-6.169-2.768-6.169-6.17V47.5c0-1.104-0.896-2-2-2s-2,0.896-2,2
	v10.434c0,5.607,4.562,10.17,10.169,10.17s10.169-4.562,10.169-10.17V37.059h6.565V87c0,1.104,0.896,2,2,2s2-0.896,2-2V35.059
	C91.443,33.954,90.548,33.059,89.443,33.059z M68.708,33.059h-4.169v-9.732c0-1.149,0.936-2.085,2.085-2.085
	s2.084,0.936,2.084,2.085V33.059z M72.708,33.059v-9.732c0-3.355-2.729-6.085-6.084-6.085c-3.355,0-6.085,2.729-6.085,6.085v9.732
	H56.37V22.753c0-5.653,4.6-10.253,10.254-10.253s10.254,4.6,10.254,10.253v10.306H72.708z"/>
</svg>
