<?xml version="1.0" encoding="utf-8"?>
<!-- Generator: Adobe Illustrator 16.0.0, SVG Export Plug-In . SVG Version: 6.00 Build 0)  -->
<!DOCTYPE svg PUBLIC "-//W3C//DTD SVG 1.1//EN" "http://www.w3.org/Graphics/SVG/1.1/DTD/svg11.dtd">
<svg version="1.1" id="Layer_1" xmlns="http://www.w3.org/2000/svg" xmlns:xlink="http://www.w3.org/1999/xlink" x="0px" y="0px"
	 width="100px" height="100px" viewBox="0 0 100 100" enable-background="new 0 0 100 100" xml:space="preserve">
<path d="M84.245,72.306L72.722,60.781c9.491-10.946,9.043-27.583-1.358-37.986c-5.27-5.271-12.277-8.173-19.73-8.173
	c-6.782,0-13.189,2.409-18.259,6.812L21.853,9.914c-0.781-0.781-2.047-0.781-2.829,0c-0.781,0.781-0.781,2.048,0,2.828l5.452,5.45
	c-12.826,14.3-12.37,36.374,1.374,50.117c6.413,6.414,14.796,10.14,23.784,10.623v8.406h-11.67c-1.104,0-2,0.896-2,2s0.896,2,2,2
	h27.341c1.104,0,2-0.896,2-2s-0.896-2-2-2H53.634v-8.406c8.326-0.446,16.13-3.679,22.333-9.25l5.451,5.451
	c0.39,0.391,0.902,0.586,1.414,0.586s1.023-0.195,1.414-0.586C85.026,74.353,85.026,73.087,84.245,72.306z M29.489,33.532
	c0.193,1.011,0.468,2.059,0.829,3.142c0.569,1.703,1.351,3.441,2.284,5.181l-4.523,4.523C27.381,42.076,27.835,37.622,29.489,33.532
	z M67.059,24.271l-6.304,6.304c-2.021-1.877-4.129-3.537-6.256-4.96l5.492-5.492C62.55,21.076,64.937,22.473,67.059,24.271z
	 M74.01,34.193l-5.459,5.459c-1.408-2.104-3.072-4.205-4.97-6.247l6.296-6.296C71.699,29.263,73.072,31.663,74.01,34.193z
	 M69.632,57.693l-6.733-6.732l4.833-4.834C70.061,50.85,70.663,55.021,69.632,57.693z M34.112,35.407
	c-1.087-3.256-1.235-6.064-0.473-8.053l6.731,6.731l-4.808,4.809C34.986,37.72,34.494,36.553,34.112,35.407z M43.198,36.915
	l5.608,5.608l-6.285,6.285c-1.884-2.038-3.535-4.163-4.911-6.307L43.198,36.915z M51.635,45.352l5.608,5.608l-5.585,5.586
	c-2.138-1.372-4.273-3.028-6.311-4.906L51.635,45.352z M60.071,53.789l6.725,6.725c-0.813,0.314-1.756,0.487-2.848,0.487
	c-2.551,0-5.554-0.866-8.681-2.408L60.071,53.789z M60.071,48.132l-5.608-5.608l6.283-6.283c1.951,2.105,3.599,4.222,4.932,6.285
	L60.071,48.132z M57.921,33.408l-6.287,6.287l-5.608-5.608l5.585-5.585C53.749,29.875,55.884,31.53,57.921,33.408z M43.198,31.258
	l-6.725-6.725c0.813-0.313,1.755-0.486,2.846-0.486c2.551,0,5.555,0.866,8.682,2.409L43.198,31.258z M34.724,45.389
	c1.43,2.135,3.1,4.235,4.97,6.247l-6.303,6.304c-1.822-2.154-3.195-4.555-4.133-7.086L34.724,45.389z M42.514,54.473
	c2.021,1.877,4.129,3.537,6.256,4.961l-5.492,5.491c-2.56-0.953-4.947-2.349-7.069-4.148L42.514,54.473z M52.299,61.562
	c2.875,1.544,5.716,2.604,8.366,3.104c-2.829,1.153-5.882,1.761-9.03,1.761c-1.314,0-2.61-0.111-3.882-0.317L52.299,61.562z
	 M73.762,51.555c-0.49-2.63-1.534-5.471-3.086-8.371l4.514-4.514C75.89,42.986,75.429,47.455,73.762,51.555z M55.517,18.94
	l-4.547,4.546c-2.876-1.545-5.717-2.605-8.369-3.104c2.83-1.154,5.884-1.762,9.032-1.761C52.948,18.622,54.245,18.733,55.517,18.94z
	 M51.642,74.99c-0.002,0-0.005-0.001-0.008-0.001c-0.002,0-0.005,0.001-0.007,0.001c-8.668-0.003-16.818-3.379-22.949-9.509
	c-12.184-12.184-12.635-31.718-1.366-44.453l3.236,3.235c-9.493,10.949-9.045,27.586,1.358,37.989
	c5.27,5.271,12.277,8.173,19.729,8.173c6.782,0,13.19-2.41,18.26-6.815l3.236,3.236C67.195,72.107,59.642,74.988,51.642,74.99z"/>
</svg>
