<?xml version="1.0" encoding="utf-8"?>
<!-- Generator: Adobe Illustrator 16.0.0, SVG Export Plug-In . SVG Version: 6.00 Build 0)  -->
<!DOCTYPE svg PUBLIC "-//W3C//DTD SVG 1.1//EN" "http://www.w3.org/Graphics/SVG/1.1/DTD/svg11.dtd">
<svg version="1.1" id="Layer_1" xmlns="http://www.w3.org/2000/svg" xmlns:xlink="http://www.w3.org/1999/xlink" x="0px" y="0px"
	 width="100px" height="100px" viewBox="0 0 100 100" enable-background="new 0 0 100 100" xml:space="preserve">
<path d="M84.414,29.069c-0.097-0.267-0.247-0.519-0.461-0.733c-0.173-0.173-0.372-0.301-0.582-0.397
	c-1.755-1.634-4.1-2.643-6.681-2.643H23.31c-2.579,0-4.922,1.007-6.676,2.639c-0.213,0.097-0.415,0.227-0.589,0.401
	c-0.216,0.216-0.366,0.471-0.463,0.74c-1.309,1.67-2.097,3.767-2.097,6.048v29.755c0,5.418,4.408,9.825,9.825,9.825h53.38
	c5.417,0,9.825-4.407,9.825-9.825V35.124C86.515,32.84,85.726,30.74,84.414,29.069z M82.515,35.124v29.755
	c0,1.074-0.297,2.078-0.807,2.943L64.503,50.613l17.608-17.607C82.369,33.663,82.515,34.376,82.515,35.124z M76.69,29.296
	c1.002,0,1.947,0.255,2.771,0.703L53.95,55.509c-2.18,2.178-5.726,2.177-7.904,0.001L20.537,30c0.825-0.449,1.77-0.704,2.773-0.704
	H76.69z M18.29,67.818c-0.508-0.864-0.805-1.866-0.805-2.939V35.124c0-0.747,0.146-1.459,0.403-2.116l17.607,17.607L18.29,67.818z
	 M23.31,70.704c-0.673,0-1.317-0.12-1.918-0.331l16.932-16.93l4.895,4.896c1.869,1.867,4.324,2.802,6.779,2.802
	c2.455,0,4.911-0.935,6.78-2.803l4.896-4.896l16.93,16.933c-0.601,0.21-1.243,0.33-1.915,0.33H23.31z"/>
</svg>
