<?xml version="1.0" encoding="utf-8"?>
<!-- Generator: Adobe Illustrator 16.0.0, SVG Export Plug-In . SVG Version: 6.00 Build 0)  -->
<!DOCTYPE svg PUBLIC "-//W3C//DTD SVG 1.1//EN" "http://www.w3.org/Graphics/SVG/1.1/DTD/svg11.dtd">
<svg version="1.1" id="Layer_1" xmlns="http://www.w3.org/2000/svg" xmlns:xlink="http://www.w3.org/1999/xlink" x="0px" y="0px"
	 width="100px" height="100px" viewBox="0 0 100 100" enable-background="new 0 0 100 100" xml:space="preserve">
<path d="M93.144,58.37L79.041,44.266v-21.47c0-1.104-0.896-2-2-2h-9.499c-1.104,0-2,0.896-2,2v7.969L51.107,16.33
	c-0.75-0.75-2.078-0.75-2.828,0L6.241,58.37c-0.375,0.375-0.586,0.884-0.586,1.414s0.211,1.039,0.586,1.414l6.5,6.499
	c0.781,0.781,2.047,0.781,2.828,0l4.774-4.774v21.598c0,1.104,0.896,2,2,2h22.082h10.533h22.082c1.104,0,2-0.896,2-2V62.923
	l4.774,4.775c0.375,0.375,0.884,0.585,1.414,0.585c0.001,0,0,0,0.001,0c0.53,0,1.039-0.211,1.414-0.586l6.499-6.499
	C93.925,60.417,93.925,59.151,93.144,58.37z M69.542,24.796h5.499v15.469l-5.499-5.5V24.796z M46.426,82.521V68.435h6.533v14.086
	H46.426z M75.041,82.521H56.959V66.435c0-1.104-0.896-2-2-2H44.426c-1.104,0-2,0.896-2,2v16.086H24.344V58.923l25.35-25.351
	l25.348,25.351V82.521z M85.229,63.456L51.107,29.33c-0.375-0.375-0.884-0.586-1.414-0.586s-1.039,0.211-1.414,0.586L14.155,63.455
	l-3.672-3.671l39.21-39.212l25.919,25.922c0.011,0.011,0.021,0.021,0.032,0.031l13.257,13.259L85.229,63.456z"/>
</svg>
