<?xml version="1.0" encoding="utf-8"?>
<!-- Generator: Adobe Illustrator 16.0.0, SVG Export Plug-In . SVG Version: 6.00 Build 0)  -->
<!DOCTYPE svg PUBLIC "-//W3C//DTD SVG 1.1//EN" "http://www.w3.org/Graphics/SVG/1.1/DTD/svg11.dtd">
<svg version="1.1" id="Layer_1" xmlns="http://www.w3.org/2000/svg" xmlns:xlink="http://www.w3.org/1999/xlink" x="0px" y="0px"
	 width="100px" height="100px" viewBox="0 0 100 100" enable-background="new 0 0 100 100" xml:space="preserve">
<path d="M88.706,41.167c0-0.101-0.007-0.2-0.021-0.299c0-0.001,0-0.002,0-0.002c-0.007-0.069-0.009-0.093-0.022-0.16
	c-0.007-0.057-0.026-0.154-0.038-0.21c-0.003-0.014-0.009-0.036-0.015-0.061c-0.01-0.051-0.021-0.102-0.035-0.152
	c-0.012-0.053-0.026-0.104-0.044-0.156c-0.009-0.03-0.017-0.059-0.021-0.073l-0.058-0.173c-0.025-0.072-0.053-0.144-0.082-0.215
	l-1.854,0.75l1.809-0.855c-0.018-0.042-0.037-0.086-0.058-0.129c-0.024-0.053-0.056-0.117-0.101-0.209
	c-0.04-0.076-0.083-0.154-0.127-0.23c-0.016-0.028-0.048-0.078-0.064-0.105c-0.002-0.002-0.004-0.005-0.006-0.008
	c-0.019-0.033-0.038-0.064-0.059-0.095c-0.025-0.041-0.063-0.102-0.078-0.124c-0.065-0.096-0.136-0.188-0.204-0.275
	c-0.019-0.027-0.083-0.115-0.104-0.141c-0.05-0.063-0.104-0.124-0.16-0.181c-0.217-0.218-0.49-0.385-0.781-0.483
	c-0.079-0.027-0.777-0.285-0.945-1.091c-0.315-1.513,0.858-3.156,1.112-3.431c0.024-0.022,0.05-0.046,0.073-0.07
	c0.06-0.06,0.118-0.12,0.177-0.185c0.034-0.039,0.067-0.079,0.099-0.12l0.079-0.106c0.046-0.062,0.088-0.126,0.126-0.192
	c0.026-0.043,0.057-0.096,0.105-0.188c0.019-0.035,0.062-0.125,0.078-0.161c0.011-0.023,0.051-0.123,0.061-0.146
	c0.013-0.033,0.028-0.075,0.041-0.113c0.004-0.011,0.007-0.021,0.011-0.031c0-0.002,0.001-0.003,0.002-0.005
	c0.016-0.049,0.032-0.104,0.049-0.163c0.007-0.024,0.029-0.111,0.034-0.136c0.018-0.076,0.032-0.15,0.044-0.229
	c0-0.001,0-0.002,0-0.002c0.013-0.062,0.021-0.118,0.026-0.184c0.006-0.054,0.01-0.107,0.012-0.161
	c0.001-0.015,0.002-0.027,0.003-0.037c0.004-0.052,0.005-0.129,0.005-0.203c0.001-0.051,0-0.095-0.002-0.105
	c0-0.072,0.001-0.081-0.007-0.152c-0.003-0.059-0.008-0.118-0.016-0.177c-0.003-0.021-0.004-0.038-0.005-0.046
	c-0.004-0.036-0.009-0.073-0.015-0.109l-0.023-0.141c-0.003-0.016-0.025-0.127-0.028-0.143c-0.005-0.025-0.021-0.09-0.031-0.131
	c-0.016-0.076-0.036-0.15-0.062-0.224c-0.003-0.009-0.005-0.018-0.007-0.024l-0.058-0.177c-0.028-0.083-0.061-0.17-0.096-0.253
	c-0.016-0.039-0.033-0.08-0.053-0.123c-0.006-0.014-0.012-0.027-0.018-0.04c0-0.001,0-0.001-0.001-0.001
	c-0.02-0.045-0.041-0.091-0.063-0.134l-0.071-0.146c-0.041-0.076-0.083-0.154-0.128-0.231c-0.002-0.003-0.064-0.104-0.066-0.107
	c-0.033-0.059-0.023-0.047-0.062-0.102c-0.012-0.02-0.042-0.068-0.055-0.087c-0.053-0.08-0.11-0.159-0.195-0.271
	c-0.006-0.008-0.078-0.104-0.102-0.136c-0.029-0.039-0.061-0.079-0.093-0.117h0.001c-0.067-0.08-0.135-0.157-0.168-0.191
	l-0.156-0.17c-0.024-0.025-0.08-0.08-0.113-0.112c-0.015-0.014-0.028-0.027-0.04-0.038l-0.112-0.105
	c-0.021-0.02-0.128-0.114-0.149-0.133l-0.192-0.156c-0.021-0.017-0.043-0.033-0.065-0.05c-0.021-0.017-0.04-0.031-0.055-0.042
	s-0.037-0.027-0.062-0.045c-0.051-0.038-0.104-0.075-0.162-0.113l-0.206-0.131c-0.003-0.002-0.037-0.021-0.064-0.038
	c-0.052-0.032-0.105-0.062-0.159-0.089l-0.776,1.553l-0.146,0.22l0.893-1.791c-0.032-0.019-0.152-0.077-0.186-0.094
	c-0.06-0.029-0.122-0.058-0.273-0.122c-0.027-0.013-0.087-0.035-0.116-0.046L54.976,14.646c-0.02-0.008-0.14-0.052-0.16-0.06
	l-0.721,1.868l0.581-1.915c-0.037-0.013-0.136-0.043-0.173-0.054l-0.151-0.043c-0.091-0.023-0.173-0.045-0.201-0.05
	c-0.096-0.023-0.19-0.043-0.281-0.06c-0.01-0.001-0.02-0.003-0.028-0.005c-0.08-0.014-0.16-0.025-0.298-0.044
	c-0.115-0.015-0.226-0.023-0.332-0.029c-0.101-0.007-0.2-0.01-0.297-0.01c-0.092-0.001-0.176,0.002-0.261,0.011
	c-0.127,0.006-0.247,0.016-0.332,0.028c-0.152,0.019-0.291,0.05-0.481,0.101c-0.11,0.023-0.219,0.052-0.291,0.076
	c-0.36,0.115-0.687,0.27-0.935,0.435c-0.18,0.114-0.345,0.24-0.503,0.383L13.823,48.23c-0.085,0.077-0.157,0.164-0.227,0.252
	c-0.887,0.694-1.581,1.621-1.939,2.728c-1.12,3.464-0.27,8.303,10.101,11.672l3.129,1.194v4.371l-10.224,9.258
	c-0.612,0.555-0.821,1.43-0.523,2.202c0.298,0.771,1.039,1.28,1.866,1.28h6.561l3.517,3.906c0.355,0.396,0.854,0.633,1.385,0.659
	c0.033,0.002,0.067,0.003,0.102,0.003c0.495,0,0.974-0.184,1.343-0.518l10.882-9.854c0.013-0.012,0.021-0.025,0.033-0.037
	c0.052-0.049,0.097-0.104,0.143-0.157c0.04-0.047,0.082-0.092,0.116-0.142c0.037-0.053,0.066-0.109,0.099-0.166
	s0.066-0.112,0.093-0.171c0.025-0.058,0.042-0.118,0.062-0.178c0.021-0.063,0.044-0.126,0.059-0.19
	c0.014-0.058,0.019-0.118,0.026-0.178c0.009-0.071,0.02-0.143,0.021-0.215c0-0.017,0.005-0.032,0.005-0.049v-3.91L51.2,74.078
	c0.492,0.188,0.984,0.279,1.455,0.278c0.947,0,1.81-0.37,2.414-1.075l-0.003-0.002c0.265-0.211,0.526-0.448,0.786-0.683
	l11.331-10.258c6.829-6.184,15.028-13.609,20.556-18.621c0.067-0.065,0.136-0.136,0.191-0.199c0.087-0.098,0.163-0.197,0.206-0.261
	c0.037-0.052,0.074-0.109,0.107-0.168c0.024-0.04,0.047-0.08,0.07-0.122l-0.001-0.001c0.023-0.042,0.046-0.087,0.067-0.132
	c0.034-0.064,0.064-0.132,0.092-0.199c0.021-0.048,0.039-0.098,0.056-0.146c0.011-0.032,0.021-0.065,0.03-0.1
	c0.01-0.032,0.02-0.065,0.027-0.098c0.021-0.064,0.037-0.13,0.05-0.195l0.018-0.104c0.01-0.048,0.019-0.093,0.023-0.125
	c0.006-0.033,0.01-0.065,0.014-0.099c0.007-0.058,0.012-0.115,0.014-0.174c0.006-0.067,0.008-0.134,0.008-0.203
	c0.001-0.033,0.001-0.066,0.001-0.079C88.713,41.241,88.709,41.167,88.706,41.167z M84.48,28.744l0.283-0.26l-1.193,1.249
	l-0.035,0.023L84.48,28.744z M83.345,28.979l0.616-1.131l-0.633,1.25l-0.088,0.088L83.345,28.979z M53.515,17.66l0.349-1.278
	l-0.202,0.989l-0.146,0.407V17.66z M53.334,16.273l-0.063,0.972l-0.132,0.528l-0.004-0.023L53.334,16.273z M52.79,18.27l0.079-0.02
	c0.001,0,0.002,0,0.002,0c0.002-0.005,0.044-0.001,0.066-0.003c0.028-0.002,0.057-0.004,0.084-0.007v0.001
	c0.015,0.004,0.029,0.007,0.044,0.011v0.004l0.001-0.004c0.04,0.009,0.08,0.017,0.12,0.023c0.032,0.008,0.131,0.032,0.15,0.036
	l0.001-0.003L82.809,29.5c0.009,0.004,0.042,0.02,0.073,0.034c0.009,0.005,0.018,0.01,0.024,0.014
	c0.03,0.019,0.061,0.035,0.091,0.052c0.032,0.026,0.061,0.047,0.1,0.073c0.019,0.014,0.037,0.028,0.056,0.041l0.101,0.089
	c0.061,0.063,0.109,0.109,0.126,0.122l0.002-0.002c0.001,0.001,0.003,0.003,0.004,0.005l-0.006,0.005l0.061,0.069
	c0.02,0.025,0.035,0.047,0.039,0.053l0.068,0.085c0.013,0.021,0.033,0.054,0.055,0.086l0.042,0.069l0.003-0.002
	c0.006,0.009,0.011,0.016,0.015,0.021h0.002c0.004,0.01,0.008,0.02,0.013,0.03c-0.072,0.05-0.145,0.096-0.211,0.155
	C72.022,40.867,53.599,57.55,51.59,59.361L23.551,48.706c-0.081-0.032-1.517-0.599-3.144-1.049L52.79,18.27z M27.714,80.927
	l-2.771-3.077c-0.379-0.422-0.919-0.662-1.486-0.662h-2.263l7.035-6.37c0.013-0.011,0.021-0.025,0.033-0.036
	c0.052-0.05,0.097-0.104,0.143-0.158c0.04-0.047,0.082-0.092,0.116-0.142c0.037-0.053,0.066-0.11,0.099-0.166
	c0.032-0.057,0.066-0.112,0.093-0.171c0.025-0.058,0.042-0.118,0.062-0.178c0.021-0.063,0.044-0.126,0.059-0.19
	c0.014-0.058,0.019-0.118,0.026-0.178c0.009-0.071,0.02-0.143,0.021-0.215c0-0.017,0.005-0.032,0.005-0.049v-6.661
	c0-0.022,0.001-0.045,0-0.066v-1.813l7.564,2.875v3.45c0,0.022-0.001,0.045,0,0.066v5.83L27.714,80.927z M52.454,70.276
	l-12.003-4.562v-3.425c0-0.83-0.514-1.574-1.29-1.869l-11.564-4.395c-0.614-0.235-1.305-0.15-1.846,0.223s-0.864,0.989-0.864,1.646
	v1.904l-1.495-0.568c-0.113-0.051-0.228-0.099-0.355-0.141c-2.407-0.781-8.799-2.857-7.572-6.649
	c0.248-0.767,1.182-1.465,2.42-1.264c1.788,0.299,4.167,1.237,4.218,1.257l28.162,10.702c1.536,0.582,3.065,0.268,3.993-0.816
	c0.237-0.19,0.468-0.399,0.692-0.603l26.81-24.275c0.43,1.829,1.654,3.027,2.863,3.642c0.003,0.006,0.006,0.01,0.008,0.014
	c0.003,0.008,0.007,0.016,0.011,0.024c0.001,0.002,0.002,0.004,0.002,0.006C74.222,50.572,54.79,68.168,52.454,70.276z"/>
<path d="M47.102,31.501l18.966,7.207c0.23,0.088,0.471,0.131,0.71,0.131c0.488,0,0.971-0.18,1.345-0.52l5.938-5.394
	c0.515-0.468,0.75-1.169,0.62-1.853c-0.129-0.684-0.604-1.25-1.255-1.497L54.46,22.369c-0.7-0.266-1.497-0.117-2.055,0.389
	l-5.938,5.394c-0.515,0.468-0.75,1.169-0.62,1.853C45.976,30.688,46.451,31.254,47.102,31.501z M54.187,26.544l14.771,5.613
	l-2.617,2.376L51.569,28.92L54.187,26.544z"/>
</svg>
