<?xml version="1.0" encoding="utf-8"?>
<!-- Generator: Adobe Illustrator 16.0.0, SVG Export Plug-In . SVG Version: 6.00 Build 0)  -->
<!DOCTYPE svg PUBLIC "-//W3C//DTD SVG 1.1//EN" "http://www.w3.org/Graphics/SVG/1.1/DTD/svg11.dtd">
<svg version="1.1" id="Layer_1" xmlns="http://www.w3.org/2000/svg" xmlns:xlink="http://www.w3.org/1999/xlink" x="0px" y="0px"
	 width="100px" height="100px" viewBox="0 0 100 100" enable-background="new 0 0 100 100" xml:space="preserve">
<path d="M95.5,32.369H61.729v-3.087c0-1.104-0.896-2-2-2h-5.841c-0.355-1.078-0.792-2.13-1.307-3.147l4.132-4.133
	c0.375-0.375,0.586-0.884,0.586-1.414c0-0.531-0.211-1.039-0.586-1.415L49.52,9.98c-0.781-0.78-2.048-0.781-2.828,0l-4.132,4.132
	c-1.017-0.515-2.069-0.952-3.147-1.306V6.965c0-1.104-0.896-2-2-2H27.238c-1.104,0-2,0.896-2,2v5.841
	c-1.08,0.355-2.131,0.792-3.147,1.307L17.959,9.98c-0.375-0.375-0.884-0.586-1.415-0.586c-0.53,0-1.039,0.211-1.414,0.586
	l-7.194,7.195c-0.375,0.375-0.586,0.884-0.586,1.414c0,0.531,0.211,1.039,0.586,1.415l4.132,4.131
	c-0.515,1.017-0.951,2.068-1.306,3.146H4.922c-1.104,0-2,0.896-2,2v10.175c0,1.104,0.896,2,2,2h5.841
	c0.355,1.08,0.792,2.131,1.306,3.147l-4.132,4.133c-0.375,0.375-0.586,0.884-0.586,1.414c0,0.531,0.211,1.039,0.586,1.415
	l7.194,7.193c0.781,0.78,2.048,0.781,2.828,0l4.132-4.132c1.017,0.515,2.068,0.952,3.148,1.308v5.84c0,1.104,0.896,2,2,2h3.087
	v27.141c0,1.104,0.896,2,2,2H95.5c1.104,0,2-0.896,2-2V34.369C97.5,33.265,96.604,32.369,95.5,32.369z M29.238,59.773v-5.34
	c0-0.915-0.621-1.713-1.508-1.938c-1.743-0.442-3.414-1.136-4.968-2.063c-0.787-0.469-1.791-0.345-2.438,0.304l-3.779,3.779
	l-4.365-4.365l3.779-3.78c0.648-0.647,0.773-1.652,0.304-2.439c-0.926-1.552-1.619-3.222-2.061-4.966
	c-0.225-0.887-1.023-1.509-1.939-1.509H6.922v-6.175h5.341c0.916,0,1.714-0.622,1.939-1.509c0.44-1.74,1.134-3.411,2.061-4.967
	c0.468-0.787,0.343-1.791-0.304-2.438l-3.779-3.778l4.366-4.366l3.779,3.781c0.648,0.648,1.653,0.772,2.44,0.303
	c1.552-0.927,3.222-1.621,4.964-2.062c0.888-0.225,1.509-1.023,1.509-1.939V8.965h6.173v5.341c0,0.916,0.622,1.714,1.509,1.939
	c1.739,0.44,3.411,1.133,4.968,2.061c0.785,0.469,1.791,0.344,2.438-0.304l3.779-3.779l4.366,4.365l-3.779,3.78
	c-0.647,0.647-0.772,1.652-0.304,2.438c0.928,1.556,1.621,3.227,2.062,4.967c0.225,0.887,1.023,1.509,1.939,1.509h5.341v1.087H42.52
	c-0.936-4.776-5.148-8.392-10.194-8.392c-5.73,0-10.392,4.662-10.392,10.393c0,5.045,3.616,9.259,8.392,10.195v15.208H29.238z
	 M30.326,34.369v6.068c-2.547-0.842-4.392-3.241-4.392-6.067c0-3.525,2.868-6.393,6.392-6.393c2.825,0,5.224,1.845,6.066,4.392
	h-6.066C31.221,32.369,30.326,33.265,30.326,34.369z M93.5,88.914H34.326V36.369H93.5V88.914z"/>
<path d="M45.057,50.284h13.01c0.847,2.633,3.318,4.545,6.229,4.545s5.382-1.912,6.229-4.545h11.552c1.104,0,2-0.896,2-2
	s-0.896-2-2-2H70.525c-0.847-2.633-3.318-4.544-6.229-4.544s-5.382,1.912-6.229,4.544h-13.01c-1.104,0-2,0.896-2,2
	S43.952,50.284,45.057,50.284z M64.296,45.739c1.403,0,2.544,1.142,2.544,2.544c0,1.403-1.142,2.545-2.544,2.545
	s-2.544-1.142-2.544-2.545C61.751,46.881,62.893,45.739,64.296,45.739z"/>
<path d="M45.057,64.954h3.475c0.847,2.633,3.318,4.544,6.229,4.544s5.382-1.912,6.229-4.544h21.087c1.104,0,2-0.896,2-2
	s-0.896-2-2-2H60.99c-0.847-2.633-3.318-4.544-6.229-4.544s-5.382,1.911-6.229,4.544h-3.475c-1.104,0-2,0.896-2,2
	S43.952,64.954,45.057,64.954z M54.761,60.41c1.403,0,2.544,1.141,2.544,2.544s-1.142,2.544-2.544,2.544s-2.544-1.142-2.544-2.544
	S53.358,60.41,54.761,60.41z"/>
<path d="M45.057,79.625h19.612c0.847,2.633,3.318,4.544,6.229,4.544c2.911,0,5.382-1.912,6.229-4.544h4.95c1.104,0,2-0.896,2-2
	s-0.896-2-2-2h-4.95c-0.848-2.633-3.318-4.544-6.229-4.544c-2.911,0-5.382,1.912-6.229,4.544H45.057c-1.104,0-2,0.896-2,2
	S43.952,79.625,45.057,79.625z M70.897,75.08c1.403,0,2.545,1.142,2.545,2.544s-1.142,2.544-2.545,2.544
	c-1.403,0-2.544-1.142-2.544-2.544S69.495,75.08,70.897,75.08z"/>
</svg>
