<?xml version="1.0" encoding="utf-8"?>
<!-- Generator: Adobe Illustrator 16.0.0, SVG Export Plug-In . SVG Version: 6.00 Build 0)  -->
<!DOCTYPE svg PUBLIC "-//W3C//DTD SVG 1.1//EN" "http://www.w3.org/Graphics/SVG/1.1/DTD/svg11.dtd">
<svg version="1.1" id="Layer_1" xmlns="http://www.w3.org/2000/svg" xmlns:xlink="http://www.w3.org/1999/xlink" x="0px" y="0px"
	 width="100px" height="100px" viewBox="0 0 100 100" enable-background="new 0 0 100 100" xml:space="preserve">
<path d="M82.184,31.941L68.059,17.816c-0.781-0.781-2.048-0.781-2.828,0L24.567,58.479c-0.102,0.102-0.188,0.212-0.264,0.327
	c-0.01,0.015-0.016,0.032-0.024,0.048c-0.074,0.119-0.132,0.245-0.178,0.375c-0.006,0.017-0.017,0.031-0.023,0.049l-6.751,20.877
	c-0.231,0.715-0.042,1.498,0.489,2.029c0.381,0.381,0.892,0.586,1.414,0.586c0.206,0,0.414-0.031,0.615-0.097l20.877-6.75
	c0.021-0.007,0.039-0.021,0.06-0.028c0.119-0.043,0.232-0.097,0.341-0.161c0.025-0.015,0.053-0.025,0.077-0.041
	c0.115-0.075,0.223-0.16,0.322-0.259L82.184,34.77C82.965,33.988,82.965,32.723,82.184,31.941z M22.337,77.663l4.542-14.045
	l9.503,9.504L22.337,77.663z M40.107,71.191l-1.615-1.615l-9.682-9.684l37.834-37.834l4.234,4.234L41.645,55.525
	c-0.781,0.781-0.781,2.047,0,2.828c0.39,0.391,0.902,0.586,1.414,0.586s1.023-0.195,1.414-0.586l29.234-29.232l4.234,4.234
	L40.107,71.191z"/>
</svg>
