<?xml version="1.0" encoding="utf-8"?>
<!-- Generator: Adobe Illustrator 16.0.0, SVG Export Plug-In . SVG Version: 6.00 Build 0)  -->
<!DOCTYPE svg PUBLIC "-//W3C//DTD SVG 1.1//EN" "http://www.w3.org/Graphics/SVG/1.1/DTD/svg11.dtd">
<svg version="1.1" id="Layer_1" xmlns="http://www.w3.org/2000/svg" xmlns:xlink="http://www.w3.org/1999/xlink" x="0px" y="0px"
	 width="100px" height="100px" viewBox="0 0 100 100" enable-background="new 0 0 100 100" xml:space="preserve">
<path d="M91.839,42.628c-1.405-1.405-3.274-2.18-5.262-2.18s-3.856,0.774-5.26,2.18l-11.33,11.331
	c-0.597-0.4-1.247-0.709-1.934-0.921c-0.03-0.009-0.061-0.017-0.091-0.025c-0.286-0.084-0.577-0.15-0.873-0.2
	c-0.073-0.012-0.145-0.025-0.218-0.036c-0.333-0.046-0.671-0.076-1.013-0.076c0,0,0,0-0.001,0s-0.001,0-0.001,0l-34.162,0.006
	c-3.066,0-5.976,1.175-8.22,3.335L6.566,72.935C6.191,73.31,5.98,73.818,5.98,74.35c0,0.53,0.21,1.039,0.586,1.414l15.39,15.392
	c0.375,0.375,0.884,0.586,1.414,0.586c0.531,0,1.04-0.211,1.415-0.586l7.249-7.251h25.973c1.987,0,3.854-0.773,5.259-2.179
	l28.573-28.573c1.407-1.405,2.181-3.273,2.181-5.262S93.246,44.033,91.839,42.628z M89.011,50.323L60.438,78.897
	c-0.649,0.649-1.513,1.007-2.436,1.007H31.205c-0.531,0-1.04,0.211-1.415,0.586l-6.42,6.422L10.809,74.351l15.465-15.453
	c1.468-1.413,3.393-2.191,5.42-2.191L65.856,56.7c1.02,0,1.984,0.467,2.648,1.281c0.031,0.038,0.07,0.067,0.103,0.103
	c0.448,0.597,0.691,1.302,0.691,2.056c0,0.92-0.358,1.784-1.008,2.435c-0.649,0.649-1.512,1.007-2.43,1.007
	c-0.001,0-0.002,0-0.002,0H47.013c-1.104,0-2,0.896-2,2s0.896,2,2,2h18.844c0.002,0,0.003,0,0.005,0
	c1.986,0,3.853-0.773,5.258-2.179s2.179-3.274,2.179-5.263c0-1.086-0.264-2.146-0.716-3.121l11.563-11.562
	c1.3-1.301,3.565-1.298,4.865,0c0.65,0.65,1.009,1.516,1.009,2.435S89.662,49.673,89.011,50.323z"/>
<path d="M47.957,46.16c0.082,0,0.163-0.013,0.243-0.023c0.054,0.006,0.105,0.019,0.16,0.02c0.156,0.002,0.311,0.004,0.466,0.004
	c6.83,0,13.229-2.646,18.064-7.48c4.945-4.945,7.601-11.525,7.476-18.529c-0.019-1.077-0.887-1.945-1.964-1.965
	c-5.682-0.118-11.088,1.623-15.569,4.928c-0.867-5.421-3.447-10.393-7.486-14.293c-0.775-0.748-2.002-0.749-2.778-0.001
	c-5.042,4.863-7.818,11.395-7.818,18.389c0,6.995,2.776,13.526,7.817,18.392C46.955,45.974,47.456,46.16,47.957,46.16z
	 M64.062,35.852c-3.181,3.181-7.167,5.242-11.502,5.988c2.825-4.021,4.413-8.753,4.58-13.752c3.631-3.438,8.225-5.483,13.172-5.847
	C69.932,27.387,67.753,32.16,64.062,35.852z M47.957,13.166c3.37,3.907,5.204,8.823,5.204,14.044s-1.834,10.136-5.205,14.043
	c-3.371-3.907-5.206-8.823-5.206-14.045S44.586,17.071,47.957,13.166z"/>
</svg>
