<?xml version="1.0" encoding="utf-8"?>
<!-- Generator: Adobe Illustrator 16.0.0, SVG Export Plug-In . SVG Version: 6.00 Build 0)  -->
<!DOCTYPE svg PUBLIC "-//W3C//DTD SVG 1.1//EN" "http://www.w3.org/Graphics/SVG/1.1/DTD/svg11.dtd">
<svg version="1.1" id="Layer_1" xmlns="http://www.w3.org/2000/svg" xmlns:xlink="http://www.w3.org/1999/xlink" x="0px" y="0px"
	 width="100px" height="100px" viewBox="0 0 100 100" enable-background="new 0 0 100 100" xml:space="preserve">
<path d="M89.228,39.802L68.915,19.486c-0.573-0.573-1.431-0.744-2.18-0.434c-0.747,0.31-1.234,1.039-1.234,1.848v9.529h-15.5
	c-1.104,0-2,0.896-2,2s0.896,2,2,2h17.5c1.104,0,2-0.896,2-2v-6.7l15.484,15.486L69.501,56.7v-6.701c0-1.104-0.896-2-2-2H34.487
	c0.014-0.96,0.014-2.188,0.014-3.766v-5.765c0-0.809-0.487-1.538-1.234-1.848c-0.75-0.311-1.607-0.14-2.18,0.434L10.774,57.367
	c-0.781,0.781-0.781,2.047,0,2.828l20.312,20.315c0.383,0.383,0.894,0.586,1.414,0.586c0.258,0,0.518-0.05,0.766-0.152
	c0.747-0.31,1.234-1.039,1.234-1.848L34.5,69.564h15.501c1.104,0,2-0.896,2-2s-0.896-2-2-2H32.499c-1.104,0-2,0.896-2,2
	c0,0.008,0,0.016,0,0.024c0.001,0.225,0.002,3.63,0.002,6.679L15.017,58.781l15.484-15.484c0,2.989-0.001,6.322-0.002,6.661
	c-0.003,0.142,0.01,0.285,0.038,0.428c0.185,0.938,1.007,1.613,1.962,1.613h33.002v9.529c0,0.809,0.487,1.538,1.234,1.848
	c0.749,0.309,1.606,0.139,2.18-0.434L89.228,42.63C90.009,41.849,90.009,40.583,89.228,39.802z"/>
</svg>
