<?xml version="1.0" encoding="utf-8"?>
<!-- Generator: Adobe Illustrator 16.0.0, SVG Export Plug-In . SVG Version: 6.00 Build 0)  -->
<!DOCTYPE svg PUBLIC "-//W3C//DTD SVG 1.1//EN" "http://www.w3.org/Graphics/SVG/1.1/DTD/svg11.dtd">
<svg version="1.1" id="Layer_1" xmlns="http://www.w3.org/2000/svg" xmlns:xlink="http://www.w3.org/1999/xlink" x="0px" y="0px"
	 width="100px" height="100px" viewBox="0 0 100 100" enable-background="new 0 0 100 100" xml:space="preserve">
<path d="M82.737,35.761h-2.789l-4.352-11.956c-1.403-3.855-5.68-5.853-9.537-4.446L14.72,38.044
	c-1.868,0.68-3.359,2.047-4.199,3.848c-0.84,1.802-0.928,3.822-0.248,5.689l10.414,28.613c0.168,0.464,0.499,0.811,0.896,1.037
	c1.267,2.3,3.714,3.861,6.52,3.861h54.635c4.104,0,7.441-3.338,7.441-7.441V43.202C90.179,39.099,86.841,35.761,82.737,35.761z
	 M24.661,46.761h61.518v4H24.661V46.761z M86.134,42.761H24.706c0.219-1.688,1.65-3,3.396-3h54.635
	C84.483,39.761,85.915,41.073,86.134,42.761z M67.428,23.116c1.781-0.649,3.762,0.274,4.41,2.057l3.854,10.588H32.688L67.428,23.116
	z M14.146,43.582c0.388-0.833,1.077-1.465,1.94-1.779l5.385-1.96c-0.515,1.011-0.811,2.15-0.811,3.359v21.229l-6.63-18.218
	C13.717,45.35,13.758,44.416,14.146,43.582z M82.737,77.093H28.103c-1.897,0-3.441-1.544-3.441-3.441V54.761h61.518v18.891
	C86.179,75.549,84.635,77.093,82.737,77.093z"/>
<path d="M40.952,58.802H30.661c-1.104,0-2,0.896-2,2v10.291c0,1.104,0.896,2,2,2h10.291c1.104,0,2-0.896,2-2V60.802
	C42.952,59.697,42.057,58.802,40.952,58.802z M38.952,69.093h-6.291v-6.291h6.291V69.093z"/>
</svg>
