<?xml version="1.0" encoding="utf-8"?>
<!-- Generator: Adobe Illustrator 16.0.0, SVG Export Plug-In . SVG Version: 6.00 Build 0)  -->
<!DOCTYPE svg PUBLIC "-//W3C//DTD SVG 1.1//EN" "http://www.w3.org/Graphics/SVG/1.1/DTD/svg11.dtd">
<svg version="1.1" id="Layer_1" xmlns="http://www.w3.org/2000/svg" xmlns:xlink="http://www.w3.org/1999/xlink" x="0px" y="0px"
	 width="100px" height="100px" viewBox="0 0 100 100" enable-background="new 0 0 100 100" xml:space="preserve">
<path d="M84.245,72.933L72.722,61.408c9.491-10.946,9.043-27.583-1.358-37.986c-5.27-5.271-12.277-8.173-19.73-8.173
	c-0.194,0-0.386,0.01-0.579,0.014c-0.118-0.007-0.235-0.005-0.355,0.009c-6.435,0.211-12.489,2.59-17.325,6.79L21.853,10.541
	c-0.781-0.781-2.047-0.781-2.829,0c-0.781,0.781-0.781,2.048,0,2.828l5.452,5.45c-12.826,14.3-12.37,36.374,1.374,50.117
	c6.413,6.414,14.796,10.14,23.784,10.623v8.406h-11.67c-1.104,0-2,0.896-2,2s0.896,2,2,2h27.341c1.104,0,2-0.896,2-2s-0.896-2-2-2
	H53.634V79.56c8.326-0.446,16.13-3.679,22.333-9.25l5.451,5.451c0.39,0.391,0.902,0.586,1.414,0.586s1.023-0.195,1.414-0.586
	C85.026,74.979,85.026,73.714,84.245,72.933z M34.732,26.25c0-0.001,0.001-0.001,0.002-0.002s0.001-0.001,0.001-0.002
	c0.041-0.04,0.083-0.077,0.123-0.117l3.786,0.95l2.801,3.602l-2.507,8.179l-2.466,4.009l-8.47-3.045
	C28.695,34.855,30.921,30.062,34.732,26.25z M36.636,47.178c0.174,0.063,0.359,0.104,0.549,0.117c0,0,0,0,0.001,0
	c0.001,0,0.002,0,0.004,0c0.001,0,0.002,0.001,0.004,0.001c0-0.001,0.002-0.001,0.004,0c0-0.001,0.002-0.001,0.004,0h0
	c0.001,0,0.002,0,0.004,0l3.799,0.224l3.13,3.701c0.11,0.131,0.238,0.247,0.378,0.345l1.212,0.851
	c0.171,1.028,0.479,2.868,0.8,4.707c0.243,1.393,0.494,2.785,0.698,3.827c0.335,1.712,0.654,3.336,2.235,3.336
	c0.114,0,0.235-0.008,0.362-0.025c0.343-0.036,4.761-0.404,4.762-0.404c1.087-0.091,1.901-1.037,1.829-2.126l-0.502-7.555
	l2.26-5.452c0.177-0.427,0.201-0.903,0.066-1.346l-1.374-4.534c-0.219-0.723-0.826-1.26-1.569-1.39l-7.531-1.318
	c-0.492-0.089-0.999,0.015-1.42,0.283l-4.892,3.12l-0.67-0.04l1.699-2.762c0.089-0.145,0.159-0.3,0.208-0.462l2.886-9.416
	c0.191-0.623,0.066-1.3-0.333-1.813l-3.862-4.967c-0.274-0.353-0.659-0.604-1.092-0.712l-1.498-0.376
	c3.185-2.038,6.801-3.286,10.61-3.637l1.562,6.23c0.133,0.53,0.477,0.982,0.951,1.252c0.304,0.173,0.646,0.262,0.989,0.262
	c0.192,0,0.386-0.027,0.574-0.084l11.186-3.351c0.178-0.054,0.337-0.136,0.486-0.23c0.876,0.604,1.719,1.264,2.518,1.988
	l-7.529,2.04c-0.742,0.201-1.304,0.811-1.443,1.566l-1.391,7.506c-0.097,0.523,0.019,1.064,0.322,1.502l2.41,3.482
	c0.471,0.682,1.312,1.003,2.121,0.805l3.439-0.844l2.421,5.681c0.09,0.21,0.215,0.403,0.37,0.571l2.421,2.625
	c0.368,0.398,0.881,0.631,1.423,0.644c0.016,0.001,0.032,0.001,0.047,0.001c0.525,0,1.029-0.206,1.404-0.576l0.986-0.972
	c-1.056,3.883-3.086,7.555-6.13,10.599c-4.514,4.515-10.516,7.001-16.9,7.001s-12.387-2.486-16.901-7.001
	c-4.445-4.445-6.744-10.221-6.949-16.057L36.636,47.178z M52.292,60.034c-0.389,0.033-0.783,0.066-1.151,0.098
	c-0.392-2.019-1.041-5.767-1.603-9.193c-0.087-0.531-0.384-1.005-0.825-1.313l-1.688-1.185l-2.04-2.411l2.854-1.82l5.554,0.973
	l0.81,2.672l-2.165,5.223c-0.118,0.284-0.168,0.592-0.148,0.898L52.292,60.034z M53.516,19.328c2.31,0.18,4.552,0.687,6.675,1.499
	l-5.859,1.755L53.516,19.328z M75.478,44.127c-0.591-0.078-1.209,0.099-1.667,0.551l-1.468,1.447l-0.785-0.851l-2.953-6.926
	c-0.383-0.901-1.363-1.391-2.316-1.158l-3.751,0.92l-1.152-1.666l1.01-5.45l8.282-2.244C74.097,33.269,75.696,38.722,75.478,44.127z
	 M51.642,75.617c-0.002,0-0.005-0.001-0.008-0.001c-0.002,0-0.005,0.001-0.007,0.001c-8.668-0.003-16.818-3.379-22.949-9.509
	c-12.184-12.184-12.635-31.718-1.366-44.453l3.236,3.235c-9.493,10.949-9.045,27.586,1.358,37.989
	c5.27,5.271,12.277,8.173,19.729,8.173c6.782,0,13.19-2.41,18.26-6.815l3.236,3.236C67.195,72.734,59.642,75.615,51.642,75.617z"/>
</svg>
