<?xml version="1.0" encoding="utf-8"?>
<!-- Generator: Adobe Illustrator 16.0.0, SVG Export Plug-In . SVG Version: 6.00 Build 0)  -->
<!DOCTYPE svg PUBLIC "-//W3C//DTD SVG 1.1//EN" "http://www.w3.org/Graphics/SVG/1.1/DTD/svg11.dtd">
<svg version="1.1" id="Layer_1" xmlns="http://www.w3.org/2000/svg" xmlns:xlink="http://www.w3.org/1999/xlink" x="0px" y="0px"
	 width="100px" height="100px" viewBox="0 0 100 100" enable-background="new 0 0 100 100" xml:space="preserve">
<path d="M89.707,16.483H29.211c-1.104,0-2,0.896-2,2v44.899H10.349c-1.104,0-2,0.896-2,2v10.293c0,6.327,5.147,11.474,11.473,11.474
	h60.41c0.007,0,0.013,0,0.02,0c0.007,0,0.013-0.002,0.02-0.002c6.309-0.022,11.435-5.159,11.435-11.472V18.483
	C91.707,17.378,90.811,16.483,89.707,16.483z M19.822,83.149c-4.121,0-7.473-3.353-7.473-7.474v-8.293h56.409v8.293
	c0,2.852,1.046,5.465,2.775,7.474H19.822z M87.707,75.675c0,4.121-3.353,7.474-7.475,7.474c-4.121,0-7.474-3.353-7.474-7.474V65.382
	c0-1.104-0.896-2-2-2H31.211V20.483h56.495V75.675z"/>
<path d="M41.812,33.761h34.255c1.104,0,2-0.896,2-2s-0.896-2-2-2H41.812c-1.104,0-2,0.896-2,2S40.707,33.761,41.812,33.761z"/>
<path d="M41.812,43.507h34.255c1.104,0,2-0.896,2-2s-0.896-2-2-2H41.812c-1.104,0-2,0.896-2,2S40.707,43.507,41.812,43.507z"/>
<path d="M41.812,53.252h22.661c1.104,0,2-0.896,2-2s-0.896-2-2-2H41.812c-1.104,0-2,0.896-2,2S40.707,53.252,41.812,53.252z"/>
</svg>
