<?xml version="1.0" encoding="utf-8"?>
<!-- Generator: Adobe Illustrator 16.0.0, SVG Export Plug-In . SVG Version: 6.00 Build 0)  -->
<!DOCTYPE svg PUBLIC "-//W3C//DTD SVG 1.1//EN" "http://www.w3.org/Graphics/SVG/1.1/DTD/svg11.dtd">
<svg version="1.1" id="Layer_1" xmlns="http://www.w3.org/2000/svg" xmlns:xlink="http://www.w3.org/1999/xlink" x="0px" y="0px"
	 width="100px" height="100px" viewBox="0 0 100 100" enable-background="new 0 0 100 100" xml:space="preserve">
<path d="M49.989,35.602c4.426,0,8.026-3.602,8.026-8.028c0-4.426-3.601-8.026-8.026-8.026c-4.427,0-8.027,3.601-8.027,8.026
	C41.962,32,45.562,35.602,49.989,35.602z M49.989,23.547c2.22,0,4.026,1.807,4.026,4.026c0,2.222-1.807,4.028-4.026,4.028
	c-2.221,0-4.027-1.807-4.027-4.028C45.962,25.354,47.769,23.547,49.989,23.547z"/>
<path d="M88.223,49.581L63.14,41.788c1.104-1.507,2.149-3.031,3.078-4.956c2.221-4.601,2.062-9.025,2.056-9.127
	c0-10.038-8.153-18.234-18.186-18.296c-0.079-0.004-0.159-0.005-0.236,0.001c-10.005,0.094-18.125,8.276-18.123,18.211
	c-0.008,0.186-0.167,4.61,2.053,9.21c1.138,2.36,2.448,4.12,3.835,5.982c0.562,0.755,1.139,1.527,1.719,2.368
	c0.777,1.125,1.439,2.099,2.025,3.003l-3.903,1.212l-24.492-7.609c-0.608-0.188-1.268-0.077-1.779,0.3
	c-0.513,0.377-0.814,0.975-0.814,1.61v36.378c0,0.876,0.57,1.65,1.406,1.91l25.086,7.795c0.194,0.061,0.395,0.09,0.594,0.09
	s0.399-0.029,0.594-0.09l24.492-7.61l24.492,7.61c0.194,0.061,0.395,0.09,0.594,0.09c0.422,0,0.838-0.134,1.186-0.39
	c0.513-0.377,0.814-0.975,0.814-1.61V51.491C89.629,50.615,89.059,49.841,88.223,49.581z M37.384,35.094
	c-1.768-3.663-1.66-7.274-1.657-7.389c0-7.858,6.394-14.271,14.253-14.296c0.007,0,0.014,0,0.021,0s0.014,0,0.021,0
	c7.859,0.024,14.253,6.438,14.255,14.374c0.001,0.036,0.108,3.647-1.659,7.311c-0.974,2.018-2.119,3.555-3.444,5.335
	c-0.588,0.79-1.19,1.6-1.799,2.479c-3.104,4.494-4.632,6.933-6.229,11.421c-0.415,1.165-0.794,2.328-1.144,3.516
	c-0.351-1.188-0.729-2.351-1.145-3.516c-0.836-2.349-1.657-4.137-2.689-5.948c-0.007-0.014-0.016-0.026-0.022-0.039
	c-0.938-1.643-2.048-3.307-3.518-5.434c-0.608-0.881-1.212-1.692-1.802-2.483C39.5,38.646,38.356,37.11,37.384,35.094z
	 M14.371,46.413l21.086,6.551v32.19l-21.086-6.552V46.413z M39.457,52.964l3.972-1.233c0.598,1.188,1.122,2.432,1.659,3.94
	c1.253,3.519,2.16,7.03,2.942,11.388c0.171,0.953,1,1.646,1.969,1.646c0.968,0,1.797-0.693,1.969-1.646
	c0.783-4.357,1.691-7.869,2.943-11.389c1.264-3.549,2.454-5.638,4.714-8.973l0.918-0.285v32.189l-21.086,6.552V52.964z
	 M85.629,85.154l-21.086-6.552V46.413l21.086,6.551V85.154z"/>
</svg>
