<?xml version="1.0" encoding="utf-8"?>
<!-- Generator: Adobe Illustrator 16.0.0, SVG Export Plug-In . SVG Version: 6.00 Build 0)  -->
<!DOCTYPE svg PUBLIC "-//W3C//DTD SVG 1.1//EN" "http://www.w3.org/Graphics/SVG/1.1/DTD/svg11.dtd">
<svg version="1.1" id="Layer_1" xmlns="http://www.w3.org/2000/svg" xmlns:xlink="http://www.w3.org/1999/xlink" x="0px" y="0px"
	 width="100px" height="100px" viewBox="0 0 100 100" enable-background="new 0 0 100 100" xml:space="preserve">
<path d="M57.666,48H52V37.334c0-1.104-0.896-2-2-2s-2,0.896-2,2V50c0,1.104,0.896,2,2,2h7.666c1.104,0,2-0.896,2-2
	S58.771,48,57.666,48z"/>
<path d="M87.149,37.431l-20.376-3.564c-0.056-0.01-0.109-0.007-0.164-0.012C62.395,29.521,56.508,26.82,50,26.82
	s-12.395,2.7-16.609,7.034c-0.055,0.005-0.108,0.002-0.164,0.012l-20.376,3.564c-0.957,0.167-1.655,0.998-1.655,1.97V60.6
	c0,0.972,0.698,1.803,1.655,1.97l20.376,3.564c0.057,0.01,0.111,0.01,0.167,0.015C37.607,70.48,43.493,73.18,50,73.18
	s12.393-2.699,16.606-7.031c0.056-0.005,0.111-0.005,0.167-0.015l20.376-3.564c0.957-0.167,1.655-0.998,1.655-1.97V39.4
	C88.805,38.429,88.106,37.598,87.149,37.431z M15.195,58.919V41.081l14.685-2.569c-1.942,3.39-3.06,7.31-3.06,11.488
	s1.117,8.099,3.06,11.488L15.195,58.919z M50,69.18c-10.576,0-19.18-8.604-19.18-19.18S39.424,30.82,50,30.82S69.18,39.424,69.18,50
	S60.576,69.18,50,69.18z M84.805,58.919L70.12,61.488c1.942-3.39,3.06-7.31,3.06-11.488s-1.117-8.099-3.06-11.488l14.685,2.569
	V58.919z"/>
<path d="M46.167,25.25h7.666c1.104,0,2-0.896,2-2s-0.896-2-2-2h-7.666c-1.104,0-2,0.896-2,2S45.062,25.25,46.167,25.25z"/>
</svg>
