<?xml version="1.0" encoding="utf-8"?>
<!-- Generator: Adobe Illustrator 16.0.0, SVG Export Plug-In . SVG Version: 6.00 Build 0)  -->
<!DOCTYPE svg PUBLIC "-//W3C//DTD SVG 1.1//EN" "http://www.w3.org/Graphics/SVG/1.1/DTD/svg11.dtd">
<svg version="1.1" id="Layer_1" xmlns="http://www.w3.org/2000/svg" xmlns:xlink="http://www.w3.org/1999/xlink" x="0px" y="0px"
	 width="100px" height="100px" viewBox="0 0 100 100" enable-background="new 0 0 100 100" xml:space="preserve">
<path d="M49.999,22.348c1.104,0,2-0.896,2-2V6c0-1.104-0.896-2-2-2s-2,0.896-2,2v14.348C47.999,21.452,48.895,22.348,49.999,22.348z
	"/>
<path d="M27.175,30.629c0.391,0.391,0.902,0.586,1.414,0.586s1.023-0.195,1.414-0.586c0.781-0.781,0.781-2.047,0-2.828
	L19.857,17.655c-0.781-0.781-2.047-0.781-2.828,0c-0.781,0.781-0.781,2.047,0,2.828L27.175,30.629z"/>
<path d="M21.72,50.624c0-1.104-0.896-2-2-2H5.372c-1.104,0-2,0.896-2,2s0.896,2,2,2H19.72C20.824,52.624,21.72,51.729,21.72,50.624z
	"/>
<path d="M27.173,70.62L17.027,80.765c-0.781,0.781-0.781,2.047,0,2.828c0.391,0.391,0.902,0.586,1.414,0.586
	s1.023-0.195,1.414-0.586l10.146-10.145c0.781-0.781,0.781-2.047,0-2.828C29.22,69.839,27.954,69.839,27.173,70.62z"/>
<path d="M72.82,70.622c-0.781-0.781-2.047-0.781-2.828,0c-0.781,0.781-0.781,2.047,0,2.828l10.146,10.146
	c0.391,0.391,0.902,0.586,1.414,0.586s1.023-0.195,1.414-0.586c0.781-0.781,0.781-2.047,0-2.828L72.82,70.622z"/>
<path d="M94.623,48.626l-14.348,0c-1.104,0-2,0.896-2,2s0.896,2,2,2l14.348,0c1.104,0,2-0.896,2-2S95.728,48.626,94.623,48.626z"/>
<path d="M71.408,31.217c0.512,0,1.023-0.195,1.414-0.586l10.145-10.146c0.781-0.781,0.781-2.047,0-2.829
	c-0.781-0.78-2.047-0.781-2.828,0L69.994,27.803c-0.781,0.781-0.781,2.047,0,2.829C70.385,31.021,70.896,31.217,71.408,31.217z"/>
<path d="M61.188,31.391c-3.379-1.95-7.222-2.98-11.154-2.98c-3.892,0-7.735,1.031-11.114,2.981
	c-10.633,6.14-14.289,19.786-8.15,30.418l7.588,13.144v9.387c0,6.45,5.247,11.697,11.697,11.697c4.527,0,8.453-2.59,10.396-6.362
	c0.043-0.073,0.077-0.15,0.11-0.229c0.754-1.545,1.189-3.274,1.189-5.106v-9.387l7.588-13.144
	C75.478,51.176,71.821,37.531,61.188,31.391z M57.751,76.417v3.089l-15.394-2.188v-0.901H57.751z M42.357,84.318v-2.96l15.394,2.188
	v0.794c0,0.737-0.11,1.447-0.305,2.123L42.357,84.318z M43.61,88.536l11.461,1.628c-1.349,1.164-3.1,1.872-5.017,1.872
	C47.358,92.037,44.985,90.641,43.61,88.536z M65.874,59.81l-7.277,12.607h-2.673v-3.984l3.855-10.724
	c0.374-1.04-0.166-2.185-1.205-2.559c-1.039-0.375-2.185,0.166-2.559,1.205l-3.974,11.052c-0.078,0.217-0.118,0.446-0.118,0.677
	v4.333h-3.739v-4.333c0-0.23-0.04-0.459-0.118-0.677l-3.974-11.052c-0.373-1.04-1.519-1.58-2.559-1.205
	c-1.039,0.374-1.579,1.519-1.205,2.559l3.855,10.724v3.984h-2.673L34.234,59.81c-5.036-8.723-2.037-19.917,6.686-24.954
	c2.771-1.6,5.924-2.445,9.155-2.445c3.19,0,6.342,0.846,9.113,2.445C67.911,39.892,70.91,51.086,65.874,59.81z"/>
<path d="M57.711,37.413c-2.322-1.34-4.963-2.049-7.637-2.049c-1.104,0-2,0.896-2,2s0.896,2,2,2c1.973,0,3.922,0.523,5.637,1.513
	c3.45,1.993,5.616,5.716,5.653,9.716c0.01,1.098,0.903,1.981,2,1.981c0.006,0,0.013,0,0.019,0c1.104-0.01,1.991-0.914,1.981-2.019
	C65.314,45.146,62.382,40.11,57.711,37.413z"/>
</svg>
