<svg id="Layer_1" data-name="Layer 1" xmlns="http://www.w3.org/2000/svg" viewBox="0 0 196 277"><defs><style>.cls-1,.cls-2{fill:none;stroke:#000;}.cls-1{stroke-linejoin:round;stroke-width:2px;}.cls-2{stroke-miterlimit:10;stroke-width:4px;}</style></defs><title>google-nexus-9</title><circle cx="98" cy="16" r="1.5"/><circle cx="98" cy="261" r="1.5"/><rect class="cls-1" x="12" y="28" width="172" height="222"/><rect class="cls-2" x="2" y="2" width="192" height="273" rx="7" ry="7"/><path d="M68,2h60a0,0,0,0,1,0,0V5a1,1,0,0,1-1,1H69a1,1,0,0,1-1-1V2a0,0,0,0,1,0,0Z"/><path d="M510,860h60a0,0,0,0,1,0,0v3a1,1,0,0,1-1,1H511a1,1,0,0,1-1-1v-3A0,0,0,0,1,510,860Z" transform="translate(638 1135) rotate(-180)"/></svg>