<svg id="Layer_1" data-name="Layer 1" xmlns="http://www.w3.org/2000/svg" viewBox="0 0 88 178"><defs><style>.cls-1,.cls-2,.cls-3{fill:none;stroke:#000;stroke-miterlimit:10;}.cls-1{stroke-width:4px;}.cls-2,.cls-3{stroke-width:2px;}.cls-3{stroke-linecap:round;}</style></defs><title>htc-one-m9</title><rect class="cls-1" x="2" y="2" width="84" height="174" rx="12" ry="12"/><rect class="cls-2" x="6" y="16" width="76" height="146"/><circle cx="64" cy="10" r="3"/><line class="cls-3" x1="57" y1="8" x2="57" y2="12"/><rect x="21" y="8" width="0.5" height="0.5"/><rect x="21" y="9" width="0.5" height="0.5"/><rect x="21" y="10" width="0.5" height="0.5"/><rect x="21" y="11" width="0.5" height="0.5"/><rect x="21" y="12" width="0.5" height="0.5"/><rect x="22" y="8" width="0.5" height="0.5"/><rect x="22" y="9" width="0.5" height="0.5"/><rect x="22" y="10" width="0.5" height="0.5"/><rect x="22" y="11" width="0.5" height="0.5"/><rect x="22" y="12" width="0.5" height="0.5"/><rect x="23" y="8" width="0.5" height="0.5"/><rect x="23" y="9" width="0.5" height="0.5"/><rect x="23" y="10" width="0.5" height="0.5"/><rect x="23" y="11" width="0.5" height="0.5"/><rect x="23" y="12" width="0.5" height="0.5"/><rect x="24" y="8" width="0.5" height="0.5"/><rect x="24" y="9" width="0.5" height="0.5"/><rect x="24" y="10" width="0.5" height="0.5"/><rect x="24" y="11" width="0.5" height="0.5"/><rect x="24" y="12" width="0.5" height="0.5"/><rect x="25" y="8" width="0.5" height="0.5"/><rect x="25" y="9" width="0.5" height="0.5"/><rect x="25" y="10" width="0.5" height="0.5"/><rect x="25" y="11" width="0.5" height="0.5"/><rect x="25" y="12" width="0.5" height="0.5"/><rect x="26" y="8" width="0.5" height="0.5"/><rect x="26" y="9" width="0.5" height="0.5"/><rect x="26" y="10" width="0.5" height="0.5"/><rect x="26" y="11" width="0.5" height="0.5"/><rect x="26" y="12" width="0.5" height="0.5"/><rect x="27" y="8" width="0.5" height="0.5"/><rect x="27" y="9" width="0.5" height="0.5"/><rect x="27" y="10" width="0.5" height="0.5"/><rect x="27" y="11" width="0.5" height="0.5"/><rect x="27" y="12" width="0.5" height="0.5"/><rect x="28" y="8" width="0.5" height="0.5"/><rect x="28" y="9" width="0.5" height="0.5"/><rect x="28" y="10" width="0.5" height="0.5"/><rect x="28" y="11" width="0.5" height="0.5"/><rect x="28" y="12" width="0.5" height="0.5"/><rect x="29" y="8" width="0.5" height="0.5"/><rect x="29" y="9" width="0.5" height="0.5"/><rect x="29" y="10" width="0.5" height="0.5"/><rect x="29" y="11" width="0.5" height="0.5"/><rect x="29" y="12" width="0.5" height="0.5"/><rect x="30" y="8" width="0.5" height="0.5"/><rect x="30" y="9" width="0.5" height="0.5"/><rect x="30" y="10" width="0.5" height="0.5"/><rect x="30" y="11" width="0.5" height="0.5"/><rect x="30" y="12" width="0.5" height="0.5"/><rect x="31" y="8" width="0.5" height="0.5"/><rect x="31" y="9" width="0.5" height="0.5"/><rect x="31" y="10" width="0.5" height="0.5"/><rect x="31" y="11" width="0.5" height="0.5"/><rect x="31" y="12" width="0.5" height="0.5"/><rect x="32" y="8" width="0.5" height="0.5"/><rect x="32" y="9" width="0.5" height="0.5"/><rect x="32" y="10" width="0.5" height="0.5"/><rect x="32" y="11" width="0.5" height="0.5"/><rect x="32" y="12" width="0.5" height="0.5"/><rect x="33" y="8" width="0.5" height="0.5"/><rect x="33" y="9" width="0.5" height="0.5"/><rect x="33" y="10" width="0.5" height="0.5"/><rect x="33" y="11" width="0.5" height="0.5"/><rect x="33" y="12" width="0.5" height="0.5"/><rect x="34" y="8" width="0.5" height="0.5"/><rect x="34" y="9" width="0.5" height="0.5"/><rect x="34" y="10" width="0.5" height="0.5"/><rect x="34" y="11" width="0.5" height="0.5"/><rect x="34" y="12" width="0.5" height="0.5"/><rect x="35" y="8" width="0.5" height="0.5"/><rect x="35" y="9" width="0.5" height="0.5"/><rect x="35" y="10" width="0.5" height="0.5"/><rect x="35" y="11" width="0.5" height="0.5"/><rect x="35" y="12" width="0.5" height="0.5"/><rect x="36" y="8" width="0.5" height="0.5"/><rect x="36" y="9" width="0.5" height="0.5"/><rect x="36" y="10" width="0.5" height="0.5"/><rect x="36" y="11" width="0.5" height="0.5"/><rect x="36" y="12" width="0.5" height="0.5"/><rect x="37" y="8" width="0.5" height="0.5"/><rect x="37" y="9" width="0.5" height="0.5"/><rect x="37" y="10" width="0.5" height="0.5"/><rect x="37" y="11" width="0.5" height="0.5"/><rect x="37" y="12" width="0.5" height="0.5"/><rect x="38" y="8" width="0.5" height="0.5"/><rect x="38" y="9" width="0.5" height="0.5"/><rect x="38" y="10" width="0.5" height="0.5"/><rect x="38" y="11" width="0.5" height="0.5"/><rect x="38" y="12" width="0.5" height="0.5"/><rect x="39" y="8" width="0.5" height="0.5"/><rect x="39" y="9" width="0.5" height="0.5"/><rect x="39" y="10" width="0.5" height="0.5"/><rect x="39" y="11" width="0.5" height="0.5"/><rect x="39" y="12" width="0.5" height="0.5"/><rect x="40" y="8" width="0.5" height="0.5"/><rect x="40" y="9" width="0.5" height="0.5"/><rect x="40" y="10" width="0.5" height="0.5"/><rect x="40" y="11" width="0.5" height="0.5"/><rect x="40" y="12" width="0.5" height="0.5"/><rect x="41" y="8" width="0.5" height="0.5"/><rect x="41" y="9" width="0.5" height="0.5"/><rect x="41" y="10" width="0.5" height="0.5"/><rect x="41" y="11" width="0.5" height="0.5"/><rect x="41" y="12" width="0.5" height="0.5"/><rect x="42" y="8" width="0.5" height="0.5"/><rect x="42" y="9" width="0.5" height="0.5"/><rect x="42" y="10" width="0.5" height="0.5"/><rect x="42" y="11" width="0.5" height="0.5"/><rect x="42" y="12" width="0.5" height="0.5"/><rect x="43" y="8" width="0.5" height="0.5"/><rect x="43" y="9" width="0.5" height="0.5"/><rect x="43" y="10" width="0.5" height="0.5"/><rect x="43" y="11" width="0.5" height="0.5"/><rect x="43" y="12" width="0.5" height="0.5"/><rect x="44" y="8" width="0.5" height="0.5"/><rect x="44" y="9" width="0.5" height="0.5"/><rect x="44" y="10" width="0.5" height="0.5"/><rect x="44" y="11" width="0.5" height="0.5"/><rect x="44" y="12" width="0.5" height="0.5"/><rect x="45" y="8" width="0.5" height="0.5"/><rect x="45" y="9" width="0.5" height="0.5"/><rect x="45" y="10" width="0.5" height="0.5"/><rect x="45" y="11" width="0.5" height="0.5"/><rect x="45" y="12" width="0.5" height="0.5"/><rect x="46" y="8" width="0.5" height="0.5"/><rect x="46" y="9" width="0.5" height="0.5"/><rect x="46" y="10" width="0.5" height="0.5"/><rect x="46" y="11" width="0.5" height="0.5"/><rect x="46" y="12" width="0.5" height="0.5"/><rect x="47" y="8" width="0.5" height="0.5"/><rect x="47" y="9" width="0.5" height="0.5"/><rect x="47" y="10" width="0.5" height="0.5"/><rect x="47" y="11" width="0.5" height="0.5"/><rect x="47" y="12" width="0.5" height="0.5"/><rect x="48" y="8" width="0.5" height="0.5"/><rect x="48" y="9" width="0.5" height="0.5"/><rect x="48" y="10" width="0.5" height="0.5"/><rect x="48" y="11" width="0.5" height="0.5"/><rect x="48" y="12" width="0.5" height="0.5"/><rect x="49" y="8" width="0.5" height="0.5"/><rect x="49" y="9" width="0.5" height="0.5"/><rect x="49" y="10" width="0.5" height="0.5"/><rect x="49" y="11" width="0.5" height="0.5"/><rect x="49" y="12" width="0.5" height="0.5"/><rect x="50" y="8" width="0.5" height="0.5"/><rect x="50" y="9" width="0.5" height="0.5"/><rect x="50" y="10" width="0.5" height="0.5"/><rect x="50" y="11" width="0.5" height="0.5"/><rect x="50" y="12" width="0.5" height="0.5"/><rect x="51" y="8" width="0.5" height="0.5"/><rect x="51" y="9" width="0.5" height="0.5"/><rect x="51" y="10" width="0.5" height="0.5"/><rect x="51" y="11" width="0.5" height="0.5"/><rect x="51" y="12" width="0.5" height="0.5"/><rect x="52" y="8" width="0.5" height="0.5"/><rect x="52" y="9" width="0.5" height="0.5"/><rect x="52" y="10" width="0.5" height="0.5"/><rect x="52" y="11" width="0.5" height="0.5"/><rect x="52" y="12" width="0.5" height="0.5"/><rect x="53" y="8" width="0.5" height="0.5"/><rect x="53" y="9" width="0.5" height="0.5"/><rect x="53" y="10" width="0.5" height="0.5"/><rect x="53" y="11" width="0.5" height="0.5"/><rect x="53" y="12" width="0.5" height="0.5"/><rect x="21" y="166" width="0.5" height="0.5"/><rect x="21" y="167" width="0.5" height="0.5"/><rect x="21" y="168" width="0.5" height="0.5"/><rect x="21" y="169" width="0.5" height="0.5"/><rect x="21" y="170" width="0.5" height="0.5"/><rect x="22" y="166" width="0.5" height="0.5"/><rect x="22" y="167" width="0.5" height="0.5"/><rect x="22" y="168" width="0.5" height="0.5"/><rect x="22" y="169" width="0.5" height="0.5"/><rect x="22" y="170" width="0.5" height="0.5"/><rect x="23" y="166" width="0.5" height="0.5"/><rect x="23" y="167" width="0.5" height="0.5"/><rect x="23" y="168" width="0.5" height="0.5"/><rect x="23" y="169" width="0.5" height="0.5"/><rect x="23" y="170" width="0.5" height="0.5"/><rect x="24" y="166" width="0.5" height="0.5"/><rect x="24" y="167" width="0.5" height="0.5"/><rect x="24" y="168" width="0.5" height="0.5"/><rect x="24" y="169" width="0.5" height="0.5"/><rect x="24" y="170" width="0.5" height="0.5"/><rect x="25" y="166" width="0.5" height="0.5"/><rect x="25" y="167" width="0.5" height="0.5"/><rect x="25" y="168" width="0.5" height="0.5"/><rect x="25" y="169" width="0.5" height="0.5"/><rect x="25" y="170" width="0.5" height="0.5"/><rect x="26" y="166" width="0.5" height="0.5"/><rect x="26" y="167" width="0.5" height="0.5"/><rect x="26" y="168" width="0.5" height="0.5"/><rect x="26" y="169" width="0.5" height="0.5"/><rect x="26" y="170" width="0.5" height="0.5"/><rect x="27" y="166" width="0.5" height="0.5"/><rect x="27" y="167" width="0.5" height="0.5"/><rect x="27" y="168" width="0.5" height="0.5"/><rect x="27" y="169" width="0.5" height="0.5"/><rect x="27" y="170" width="0.5" height="0.5"/><rect x="28" y="166" width="0.5" height="0.5"/><rect x="28" y="167" width="0.5" height="0.5"/><rect x="28" y="168" width="0.5" height="0.5"/><rect x="28" y="169" width="0.5" height="0.5"/><rect x="28" y="170" width="0.5" height="0.5"/><rect x="29" y="166" width="0.5" height="0.5"/><rect x="29" y="167" width="0.5" height="0.5"/><rect x="29" y="168" width="0.5" height="0.5"/><rect x="29" y="169" width="0.5" height="0.5"/><rect x="29" y="170" width="0.5" height="0.5"/><rect x="30" y="166" width="0.5" height="0.5"/><rect x="30" y="167" width="0.5" height="0.5"/><rect x="30" y="168" width="0.5" height="0.5"/><rect x="30" y="169" width="0.5" height="0.5"/><rect x="30" y="170" width="0.5" height="0.5"/><rect x="31" y="166" width="0.5" height="0.5"/><rect x="31" y="167" width="0.5" height="0.5"/><rect x="31" y="168" width="0.5" height="0.5"/><rect x="31" y="169" width="0.5" height="0.5"/><rect x="31" y="170" width="0.5" height="0.5"/><rect x="32" y="166" width="0.5" height="0.5"/><rect x="32" y="167" width="0.5" height="0.5"/><rect x="32" y="168" width="0.5" height="0.5"/><rect x="32" y="169" width="0.5" height="0.5"/><rect x="32" y="170" width="0.5" height="0.5"/><rect x="33" y="166" width="0.5" height="0.5"/><rect x="33" y="167" width="0.5" height="0.5"/><rect x="33" y="168" width="0.5" height="0.5"/><rect x="33" y="169" width="0.5" height="0.5"/><rect x="33" y="170" width="0.5" height="0.5"/><rect x="34" y="166" width="0.5" height="0.5"/><rect x="34" y="167" width="0.5" height="0.5"/><rect x="34" y="168" width="0.5" height="0.5"/><rect x="34" y="169" width="0.5" height="0.5"/><rect x="34" y="170" width="0.5" height="0.5"/><rect x="35" y="166" width="0.5" height="0.5"/><rect x="35" y="167" width="0.5" height="0.5"/><rect x="35" y="168" width="0.5" height="0.5"/><rect x="35" y="169" width="0.5" height="0.5"/><rect x="35" y="170" width="0.5" height="0.5"/><rect x="36" y="166" width="0.5" height="0.5"/><rect x="36" y="167" width="0.5" height="0.5"/><rect x="36" y="168" width="0.5" height="0.5"/><rect x="36" y="169" width="0.5" height="0.5"/><rect x="36" y="170" width="0.5" height="0.5"/><rect x="37" y="166" width="0.5" height="0.5"/><rect x="37" y="167" width="0.5" height="0.5"/><rect x="37" y="168" width="0.5" height="0.5"/><rect x="37" y="169" width="0.5" height="0.5"/><rect x="37" y="170" width="0.5" height="0.5"/><rect x="38" y="166" width="0.5" height="0.5"/><rect x="38" y="167" width="0.5" height="0.5"/><rect x="38" y="168" width="0.5" height="0.5"/><rect x="38" y="169" width="0.5" height="0.5"/><rect x="38" y="170" width="0.5" height="0.5"/><rect x="39" y="166" width="0.5" height="0.5"/><rect x="39" y="167" width="0.5" height="0.5"/><rect x="39" y="168" width="0.5" height="0.5"/><rect x="39" y="169" width="0.5" height="0.5"/><rect x="39" y="170" width="0.5" height="0.5"/><rect x="40" y="166" width="0.5" height="0.5"/><rect x="40" y="167" width="0.5" height="0.5"/><rect x="40" y="168" width="0.5" height="0.5"/><rect x="40" y="169" width="0.5" height="0.5"/><rect x="40" y="170" width="0.5" height="0.5"/><rect x="41" y="166" width="0.5" height="0.5"/><rect x="41" y="167" width="0.5" height="0.5"/><rect x="41" y="168" width="0.5" height="0.5"/><rect x="41" y="169" width="0.5" height="0.5"/><rect x="41" y="170" width="0.5" height="0.5"/><rect x="42" y="166" width="0.5" height="0.5"/><rect x="42" y="167" width="0.5" height="0.5"/><rect x="42" y="168" width="0.5" height="0.5"/><rect x="42" y="169" width="0.5" height="0.5"/><rect x="42" y="170" width="0.5" height="0.5"/><rect x="43" y="166" width="0.5" height="0.5"/><rect x="43" y="167" width="0.5" height="0.5"/><rect x="43" y="168" width="0.5" height="0.5"/><rect x="43" y="169" width="0.5" height="0.5"/><rect x="43" y="170" width="0.5" height="0.5"/><rect x="44" y="166" width="0.5" height="0.5"/><rect x="44" y="167" width="0.5" height="0.5"/><rect x="44" y="168" width="0.5" height="0.5"/><rect x="44" y="169" width="0.5" height="0.5"/><rect x="44" y="170" width="0.5" height="0.5"/><rect x="45" y="166" width="0.5" height="0.5"/><rect x="45" y="167" width="0.5" height="0.5"/><rect x="45" y="168" width="0.5" height="0.5"/><rect x="45" y="169" width="0.5" height="0.5"/><rect x="45" y="170" width="0.5" height="0.5"/><rect x="46" y="166" width="0.5" height="0.5"/><rect x="46" y="167" width="0.5" height="0.5"/><rect x="46" y="168" width="0.5" height="0.5"/><rect x="46" y="169" width="0.5" height="0.5"/><rect x="46" y="170" width="0.5" height="0.5"/><rect x="47" y="166" width="0.5" height="0.5"/><rect x="47" y="167" width="0.5" height="0.5"/><rect x="47" y="168" width="0.5" height="0.5"/><rect x="47" y="169" width="0.5" height="0.5"/><rect x="47" y="170" width="0.5" height="0.5"/><rect x="48" y="166" width="0.5" height="0.5"/><rect x="48" y="167" width="0.5" height="0.5"/><rect x="48" y="168" width="0.5" height="0.5"/><rect x="48" y="169" width="0.5" height="0.5"/><rect x="48" y="170" width="0.5" height="0.5"/><rect x="49" y="166" width="0.5" height="0.5"/><rect x="49" y="167" width="0.5" height="0.5"/><rect x="49" y="168" width="0.5" height="0.5"/><rect x="49" y="169" width="0.5" height="0.5"/><rect x="49" y="170" width="0.5" height="0.5"/><rect x="50" y="166" width="0.5" height="0.5"/><rect x="50" y="167" width="0.5" height="0.5"/><rect x="50" y="168" width="0.5" height="0.5"/><rect x="50" y="169" width="0.5" height="0.5"/><rect x="50" y="170" width="0.5" height="0.5"/><rect x="51" y="166" width="0.5" height="0.5"/><rect x="51" y="167" width="0.5" height="0.5"/><rect x="51" y="168" width="0.5" height="0.5"/><rect x="51" y="169" width="0.5" height="0.5"/><rect x="51" y="170" width="0.5" height="0.5"/><rect x="52" y="166" width="0.5" height="0.5"/><rect x="52" y="167" width="0.5" height="0.5"/><rect x="52" y="168" width="0.5" height="0.5"/><rect x="52" y="169" width="0.5" height="0.5"/><rect x="52" y="170" width="0.5" height="0.5"/><rect x="53" y="166" width="0.5" height="0.5"/><rect x="53" y="167" width="0.5" height="0.5"/><rect x="53" y="168" width="0.5" height="0.5"/><rect x="53" y="169" width="0.5" height="0.5"/><rect x="53" y="170" width="0.5" height="0.5"/><rect x="54" y="166" width="0.5" height="0.5"/><rect x="54" y="167" width="0.5" height="0.5"/><rect x="54" y="168" width="0.5" height="0.5"/><rect x="54" y="169" width="0.5" height="0.5"/><rect x="54" y="170" width="0.5" height="0.5"/><rect x="55" y="166" width="0.5" height="0.5"/><rect x="55" y="167" width="0.5" height="0.5"/><rect x="55" y="168" width="0.5" height="0.5"/><rect x="55" y="169" width="0.5" height="0.5"/><rect x="55" y="170" width="0.5" height="0.5"/><rect x="56" y="166" width="0.5" height="0.5"/><rect x="56" y="167" width="0.5" height="0.5"/><rect x="56" y="168" width="0.5" height="0.5"/><rect x="56" y="169" width="0.5" height="0.5"/><rect x="56" y="170" width="0.5" height="0.5"/><rect x="57" y="166" width="0.5" height="0.5"/><rect x="57" y="167" width="0.5" height="0.5"/><rect x="57" y="168" width="0.5" height="0.5"/><rect x="57" y="169" width="0.5" height="0.5"/><rect x="57" y="170" width="0.5" height="0.5"/><rect x="58" y="166" width="0.5" height="0.5"/><rect x="58" y="167" width="0.5" height="0.5"/><rect x="58" y="168" width="0.5" height="0.5"/><rect x="58" y="169" width="0.5" height="0.5"/><rect x="58" y="170" width="0.5" height="0.5"/><rect x="59" y="166" width="0.5" height="0.5"/><rect x="59" y="167" width="0.5" height="0.5"/><rect x="59" y="168" width="0.5" height="0.5"/><rect x="59" y="169" width="0.5" height="0.5"/><rect x="59" y="170" width="0.5" height="0.5"/><rect x="60" y="166" width="0.5" height="0.5"/><rect x="60" y="167" width="0.5" height="0.5"/><rect x="60" y="168" width="0.5" height="0.5"/><rect x="60" y="169" width="0.5" height="0.5"/><rect x="60" y="170" width="0.5" height="0.5"/><rect x="61" y="166" width="0.5" height="0.5"/><rect x="61" y="167" width="0.5" height="0.5"/><rect x="61" y="168" width="0.5" height="0.5"/><rect x="61" y="169" width="0.5" height="0.5"/><rect x="61" y="170" width="0.5" height="0.5"/><rect x="62" y="166" width="0.5" height="0.5"/><rect x="62" y="167" width="0.5" height="0.5"/><rect x="62" y="168" width="0.5" height="0.5"/><rect x="62" y="169" width="0.5" height="0.5"/><rect x="62" y="170" width="0.5" height="0.5"/><rect x="63" y="166" width="0.5" height="0.5"/><rect x="63" y="167" width="0.5" height="0.5"/><rect x="63" y="168" width="0.5" height="0.5"/><rect x="63" y="169" width="0.5" height="0.5"/><rect x="63" y="170" width="0.5" height="0.5"/><rect x="64" y="166" width="0.5" height="0.5"/><rect x="64" y="167" width="0.5" height="0.5"/><rect x="64" y="168" width="0.5" height="0.5"/><rect x="64" y="169" width="0.5" height="0.5"/><rect x="64" y="170" width="0.5" height="0.5"/><rect x="65" y="166" width="0.5" height="0.5"/><rect x="65" y="167" width="0.5" height="0.5"/><rect x="65" y="168" width="0.5" height="0.5"/><rect x="65" y="169" width="0.5" height="0.5"/><rect x="65" y="170" width="0.5" height="0.5"/><rect x="66" y="166" width="0.5" height="0.5"/><rect x="66" y="167" width="0.5" height="0.5"/><rect x="66" y="168" width="0.5" height="0.5"/><rect x="66" y="169" width="0.5" height="0.5"/><rect x="66" y="170" width="0.5" height="0.5"/></svg>