<svg id="Layer_1" data-name="Layer 1" xmlns="http://www.w3.org/2000/svg" viewBox="0 0 96 184"><defs><style>.cls-1,.cls-2,.cls-3{fill:none;stroke:#000;}.cls-1,.cls-3{stroke-miterlimit:10;}.cls-1{stroke-width:4px;}.cls-2{stroke-linejoin:round;}.cls-2,.cls-3{stroke-width:2px;}.cls-3{stroke-linecap:round;}</style></defs><title>lg-g4</title><path class="cls-1" d="M1301,300.29a491.44,491.44,0,0,1-81.93,0,5.51,5.51,0,0,1-5-5.49V129.2a5.51,5.51,0,0,1,5-5.49,491.44,491.44,0,0,1,81.93,0,5.51,5.51,0,0,1,5,5.49V294.8A5.51,5.51,0,0,1,1301,300.29Z" transform="translate(-1212 -120)"/><rect class="cls-2" x="7" y="16" width="82" height="148"/><line class="cls-3" x1="41" y1="9" x2="55" y2="9"/><circle cx="25" cy="9" r="1.5"/><circle cx="16.5" cy="9" r="1"/></svg>