<svg id="Layer_1" data-name="Layer 1" xmlns="http://www.w3.org/2000/svg" viewBox="0 0 92 184"><defs><style>.cls-1,.cls-2,.cls-3,.cls-4{fill:none;stroke:#000;}.cls-1,.cls-2,.cls-3{stroke-miterlimit:10;}.cls-1{stroke-width:4px;}.cls-2,.cls-3,.cls-4{stroke-width:2px;}.cls-3{stroke-linecap:round;}.cls-4{stroke-linejoin:round;}</style></defs><title>lg-g5</title><path class="cls-1" d="M253,582H188a12,12,0,0,1-12-12V415a12,12,0,0,1,11.19-12c7.66-.51,18.94-1,32.81-1,15.06,0,27.07.63,34.71,1.18A10,10,0,0,1,264,413.1v158A11,11,0,0,1,253,582Z" transform="translate(-174 -400)"/><line class="cls-2" x1="2" y1="168" x2="90" y2="168"/><circle cx="16.5" cy="8.5" r="2.5"/><line class="cls-3" x1="39" y1="8" x2="55" y2="8"/><rect class="cls-4" x="6" y="18" width="80" height="146"/></svg>