<svg id="Layer_1" data-name="Layer 1" xmlns="http://www.w3.org/2000/svg" viewBox="0 0 96 188"><defs><style>.cls-1,.cls-2,.cls-3{fill:none;stroke:#000;stroke-miterlimit:10;}.cls-1{stroke-width:4px;}.cls-2,.cls-3{stroke-width:2px;}.cls-3{stroke-linecap:round;}</style></defs><title>motorola-moto-x</title><path class="cls-1" d="M1294.87,581.18q-34.85,1.64-69.75,0A11.81,11.81,0,0,1,1214,569.56V410.44a11.81,11.81,0,0,1,11.13-11.62q34.85-1.64,69.75,0A11.81,11.81,0,0,1,1306,410.44q0,79.56,0,159.13A11.81,11.81,0,0,1,1294.87,581.18Z" transform="translate(-1212 -396)"/><rect class="cls-2" x="7" y="20" width="82" height="150"/><line class="cls-3" x1="34" y1="9" x2="62" y2="9"/><line class="cls-3" x1="34" y1="176" x2="62" y2="176"/><line class="cls-3" x1="27" y1="9" x2="29" y2="9"/><circle cx="73" cy="9" r="2"/><circle cx="22.5" cy="9" r="1.5"/><circle cx="17" cy="176" r="1"/><circle cx="79" cy="176" r="1"/><circle cx="66" cy="9" r="1"/><circle cx="79" cy="9" r="2"/></svg>