<svg id="Layer_1" data-name="Layer 1" xmlns="http://www.w3.org/2000/svg" viewBox="0 0 96 190"><defs><style>.cls-1,.cls-2,.cls-3{fill:none;stroke:#000;}.cls-1{stroke-miterlimit:10;stroke-width:4px;}.cls-2,.cls-3{stroke-linejoin:round;stroke-width:2px;}.cls-3{stroke-linecap:round;}</style></defs><title>oneplus-2</title><path class="cls-1" d="M982.23,860.8a744,744,0,0,1-84.47,0,4,4,0,0,1-3.77-3.94V681.14a4,4,0,0,1,3.77-3.94,744,744,0,0,1,84.47,0,4,4,0,0,1,3.77,3.94V856.86A4,4,0,0,1,982.23,860.8Z" transform="translate(-892 -674)"/><rect class="cls-2" x="7" y="20" width="82" height="147"/><line class="cls-3" x1="40" y1="10" x2="56" y2="10"/><circle cx="82.5" cy="9.5" r="1.5"/><path class="cls-3" d="M946.74,847H933.26c-1.8,0-3.26,1.77-3.26,4s1.46,4,3.26,4h13.48c1.8,0,3.26-1.77,3.26-4S948.54,847,946.74,847Z" transform="translate(-892 -674)"/><line class="cls-3" x1="73" y1="177" x2="78" y2="177"/><line class="cls-3" x1="18" y1="177" x2="23" y2="177"/></svg>