<svg id="Layer_1" data-name="Layer 1" xmlns="http://www.w3.org/2000/svg" viewBox="0 0 170 250"><defs><style>.cls-1,.cls-2,.cls-3,.cls-4{fill:none;stroke:#000;}.cls-1{stroke-miterlimit:10;stroke-width:4px;}.cls-2,.cls-3,.cls-4{stroke-linejoin:round;}.cls-2{stroke-width:2px;}.cls-4{stroke-linecap:round;}</style></defs><title>samsung-galaxy-tab-s2-8-0</title><rect class="cls-1" x="2" y="2" width="166" height="246" rx="12" ry="12"/><rect class="cls-2" x="9" y="24" width="152" height="202"/><rect class="cls-2" x="76" y="233" width="18" height="8" rx="4" ry="4"/><circle cx="103" cy="11.5" r="1"/><circle cx="112.5" cy="11.5" r="1.5"/><rect class="cls-3" x="50.5" y="235.5" width="5" height="3"/><polyline class="cls-4" points="51.5 234 57 234 57 237.5"/><path class="cls-4" d="M240.5,850.5H243a1.5,1.5,0,0,1,1.5,1.5h0a1.5,1.5,0,0,1-1.5,1.5h-3.5" transform="translate(-125 -616)"/><polygon points="116 235.5 114 234.5 116 233.5 116 235.5"/></svg>