<svg id="Layer_1" data-name="Layer 1" xmlns="http://www.w3.org/2000/svg" viewBox="0 0 90 178"><defs><style>.cls-1,.cls-2,.cls-3{fill:none;stroke:#000;stroke-linejoin:round;}.cls-1,.cls-3{stroke-width:2px;}.cls-2{stroke-width:4px;}.cls-3{stroke-linecap:round;}</style></defs><title>samsung-galaxy-s7</title><rect class="cls-1" x="7" y="20" width="76" height="138"/><path class="cls-2" d="M1091.2,301.71q-31.2.59-62.39,0a12,12,0,0,1-11.8-11.92V140.21a12,12,0,0,1,11.8-11.92q31.2-.59,62.39,0a12,12,0,0,1,11.8,11.92V289.79A12,12,0,0,1,1091.2,301.71Z" transform="translate(-1015 -126)"/><rect class="cls-1" x="36" y="163" width="18" height="8" rx="3" ry="3"/><line class="cls-3" x1="37.6" y1="7.4" x2="52.4" y2="7.4"/><circle cx="16.5" cy="6.5" r="1.5"/><circle cx="20.5" cy="6.5" r="1.5"/><circle cx="67.5" cy="8.5" r="2.5"/></svg>