<svg id="Layer_1" data-name="Layer 1" xmlns="http://www.w3.org/2000/svg" viewBox="0 0 204 294"><defs><style>.cls-1,.cls-2,.cls-3,.cls-4{fill:none;stroke:#000;}.cls-1{stroke-miterlimit:10;stroke-width:4px;}.cls-2,.cls-3,.cls-4{stroke-linejoin:round;}.cls-2{stroke-width:2px;}.cls-4{stroke-linecap:round;}</style></defs><title>samsung-galaxy-tab-s2-9-7</title><rect class="cls-1" x="2" y="2" width="200" height="290" rx="12" ry="12"/><rect class="cls-2" x="12" y="27" width="180" height="240"/><rect class="cls-2" x="93" y="276" width="18" height="8" rx="4" ry="4"/><circle cx="126" cy="17.5" r="1"/><circle cx="135.5" cy="17.5" r="1.5"/><rect class="cls-3" x="67.5" y="278.5" width="5" height="3"/><polyline class="cls-4" points="68.5 277 74 277 74 280.5"/><path class="cls-4" d="M1290.5,449.5h2.5a1.5,1.5,0,0,1,1.5,1.5h0a1.5,1.5,0,0,1-1.5,1.5h-3.5" transform="translate(-1158 -172)"/><polygon points="133 278.5 131 277.5 133 276.5 133 278.5"/></svg>