<svg id="Layer_1" data-name="Layer 1" xmlns="http://www.w3.org/2000/svg" viewBox="0 0 92 189"><defs><style>.cls-1,.cls-2,.cls-3,.cls-4,.cls-5{fill:none;stroke:#000;stroke-linejoin:round;}.cls-1,.cls-3{stroke-width:2px;}.cls-2{stroke-width:4px;}.cls-3,.cls-5{stroke-linecap:round;}</style></defs><title>samsung-galaxy-s7-edge</title><rect class="cls-1" x="6" y="18" width="80" height="152"/><path class="cls-2" d="M1375.92,301.69q-31.93.62-63.84,0A12.5,12.5,0,0,1,1300,289V130a12.5,12.5,0,0,1,12.08-12.67q31.93-.62,63.84,0A12.5,12.5,0,0,1,1388,130V289A12.5,12.5,0,0,1,1375.92,301.69Z" transform="translate(-1298 -115)"/><rect class="cls-1" x="37" y="174" width="18" height="8" rx="3" ry="3"/><line class="cls-3" x1="38.6" y1="8.4" x2="53.4" y2="8.4"/><circle cx="27.5" cy="7.5" r="1.5"/><circle cx="31.5" cy="7.5" r="1.5"/><circle cx="68.5" cy="9.5" r="2.5"/><rect class="cls-4" x="18.5" y="176.5" width="5" height="3"/><polyline class="cls-5" points="19.5 175 25 175 25 178.5"/><path class="cls-5" d="M1367.5,290.5h2.5a1.5,1.5,0,0,1,1.5,1.5h0a1.5,1.5,0,0,1-1.5,1.5h-3.5" transform="translate(-1298 -115)"/><polygon points="70 176.5 68 175.5 70 174.5 70 176.5"/></svg>